<svg xmlns="http://www.w3.org/2000/svg">
<defs>
<font id="PermianSerifTypeface" horiz-adv-x="500" >
  <font-face 
    font-family="PermianSerifTypeface"
    font-weight="400"
    font-stretch="normal"
    units-per-em="1000"
    panose-1="2 0 0 0 0 0 0 0 0 0"
    ascent="750"
    descent="-250"
    x-height="500"
    cap-height="700"
    bbox="-113 -320 1320 1134"
    underline-thickness="50"
    underline-position="-50"
    unicode-range="U+0020-U+FFFD"
  />
<missing-glyph horiz-adv-x="634" 
d="M47 0l-23 22v489l23 22h490l22 -22v-490l-22 -21h-490zM55 51l21 -20h432l19 19v432l-19 20h-432l-21 -20v-431zM183 323v89l-1 14l13 1v-7q7 7 21 7q29 0 29 -32q0 -18 -9.5 -28.5t-25.5 -10.5q-5 0 -15 4v-25l1 -12h-13zM143 357v7q-12 -8 -23 -8q-21 0 -21 23v36
l-1 11h14v-43q0 -16 13 -16q10 0 17 5v54h13v-54l1 -14zM496 331l-4 -8q-39 15 -39 69q0 53 39 70l4 -9q-31 -15 -31 -60q0 -47 31 -62zM261 359l1 11q4 0 11 -1.5t11 -1.5q13 0 13 8q0 6 -16 12q-19 6 -19 21q0 19 22 19q5 0 11.5 -1t9.5 -1l-1 -11q-5 0 -11 1.5t-10 1.5
q-10 0 -10 -8q0 -7 17 -12q18 -7 18 -21q0 -20 -24 -20q-5 0 -13.5 1.5t-9.5 1.5zM195 412v-41q10 -5 16 -5q21 0 21 25t-19 25q-11 0 -18 -4zM298 102v-1q-1 -1 -1 -2q0 -2 3 -2l7 -1q11 0 11 -9q0 -11 -15 -11t-15 9q0 6 6 8q-2 2 -2 4l3 6q-6 1 -6 9q0 13 14 13q3 0 7 -2
q3 3 10 3v-5q-5 0 -8 -1q4 -2 4 -7q0 -12 -14 -12q-3 0 -4 1zM378 77v40l-1 7h6v-3q6 4 10 4q13 0 13 -15q0 -18 -16 -18q-5 0 -7 2v-12l1 -5h-6zM212 192v11l-1 6l6 1v-41l1 -7h-6v3q-4 -4 -9 -4q-14 0 -14 16q0 17 15 17q4 0 8 -2zM238 246q0 18 16 18q15 0 15 -15
q0 -18 -16 -18q-15 0 -15 15zM228 176q0 18 16 18q14 0 14 -15q0 -18 -16 -18q-14 0 -14 15zM130 181l-7 -19h-6l-5 19l-1 7h-1q0 -4 -1 -7l-5 -19h-6l-8 25l-2 7h6l5 -19l2 -8l5 20l2 7h6l5 -18l2 -9q1 4 2 9l3 8l2 10h5q0 -6 -3 -13zM427 168v-5q-2 -2 -5 -2q-5 0 -5 4
q-6 -4 -10 -4q-9 0 -9 9q0 8 10 9q3 1 9 1v2q0 7 -8 7l-9 -1v4q4 2 10 2q13 0 13 -11q0 -2 -0.5 -7.5t-0.5 -7.5t2 -2zM167 178h-22q0 -12 11 -12l9 2v-4q-4 -3 -11 -3q-15 0 -15 16q0 17 15 17t13 -16zM265 114v-16l1 -6h-7v20q0 7 -6 7t-8 -2v-25h-6v48h6v-19q6 4 11 4

<glyph glyph-name="f_f" unicode="ff" horiz-adv-x="747" 
d="M636 708q-70 0 -70 -101v-107h161v-52l-161 5v-410l100 -22v-21h-273v21l80 22v412l-266 1v-413l100 -22v-21h-273v21l80 22v412l-66 3v42h66v39q0 94 45 152.5t142 58.5q36 0 87 -11t54 -11l-20 -84q-36 5 -80.5 29.5t-64.5 24.5q-70 0 -70 -101v-97h266v49
q0 94 45 152.5t142 58.5q36 0 87 -11t54 -11l-20 -84q-36 5 -80.5 29.5t-64.5 24.5z" />
    <glyph glyph-name="fi" unicode="fi" horiz-adv-x="666" 
d="M538 505l20 -5v-457l80 -22v-21h-253v21l80 22v409l-258 1v-410l100 -22v-21h-273v21l80 22v412l-66 3v42h66v49q0 94 45 152.5t142 58.5q24 0 44 -3t45.5 -9t39.5 -8l-19 -81q-33 6 -73 27.5t-61 21.5q-70 0 -70 -101v-107zM509 627q-26 0 -42.5 16t-16.5 41q0 26 18 41
t46 15q27 0 42.5 -14.5t15.5 -39.5q0 -27 -17 -43t-46 -16z" />
    <glyph glyph-name="fl" unicode="fl" horiz-adv-x="670" 
d="M469 42v497q0 39 2.5 72.5t4.5 48.5l3 14q-24 -20 -70 -20q-30 0 -69.5 27t-62.5 27q-70 0 -70 -101v-107h161v-52l-161 5v-410l100 -22v-21h-273v21l80 22v412l-66 3v42h66v49q0 93 43 152t133 59q29 0 77.5 -11t81.5 -11q45 0 93 23l20 -5v-714l80 -21v-21h-253v21z
" />
    <glyph glyph-name="f_f_i" unicode="ffi" horiz-adv-x="1025" 
d="M277 698q-70 0 -70 -101v-97h266v49q0 94 45 152.5t142 58.5q24 0 44 -3t45.5 -9t39.5 -8l-19 -81q-33 6 -73 27.5t-61 21.5q-70 0 -70 -101v-107l331 5l20 -5v-457l80 -22v-21h-253v21l80 22v409l-258 1v-410l100 -22v-21h-273v21l80 22v412l-266 1v-413l100 -22v-21
h-273v21l80 22v412l-66 3v42h66v39q0 94 45 152.5t142 58.5q36 0 87 -11t54 -11l-20 -84q-36 5 -80.5 29.5t-64.5 24.5zM868 627q-26 0 -42.5 16t-16.5 41q0 26 18 41t46 15q27 0 42.5 -14.5t15.5 -39.5q0 -27 -17 -43t-46 -16z" />
    <glyph glyph-name="f_f_l" unicode="ffl" horiz-adv-x="1029" 
d="M828 42v497q0 39 2.5 72.5t5.5 48.5l2 14q-24 -20 -70 -20q-30 0 -69.5 27t-62.5 27q-70 0 -70 -101v-107h161v-52l-161 5v-410l100 -22v-21h-273v21l80 22v409l-266 4v-413l100 -22v-21h-273v21l80 22v412l-66 3v42h66v39q0 94 45 152.5t142 58.5q36 0 87 -11t54 -11
l-20 -84q-36 5 -80.5 29.5t-64.5 24.5q-70 0 -70 -101v-97h266v49q0 93 43 152t133 59q29 0 77.5 -11t81.5 -11q45 0 93 23l20 -5v-714l80 -21v-21h-253v21z" />
    <glyph glyph-name="f_b" unicode="fb" horiz-adv-x="958" 
d="M469 30v509q0 39 2.5 72.5t4.5 48.5l3 14q-24 -20 -70 -20q-30 0 -69.5 27t-62.5 27q-70 0 -70 -101v-107h161v-52l-161 5v-410l100 -22v-21h-273v21l80 22v412l-66 3v42h66v49q0 93 43 152t133 59q29 0 77.5 -11t81.5 -11q45 0 93 23l20 -5l-2 -315q71 69 159 69
q92 0 140 -69t48 -164q0 -135 -65.5 -211t-193.5 -76q-111 0 -179 40zM652 40q79 0 118.5 58t39.5 142q0 96 -31 146t-102 50q-63 0 -119 -35q4 -51 4 -100v-236q37 -25 90 -25z" />
    <glyph glyph-name="f_h" unicode="fh" horiz-adv-x="982" 
d="M469 43v496q0 39 2.5 72.5t4.5 48.5l3 14q-24 -20 -70 -20q-30 0 -69.5 27t-62.5 27q-70 0 -70 -101v-107h161v-52l-161 5v-410l100 -22v-21h-273v21l80 22v412l-66 3v42h66v49q0 93 43 152t133 59q29 0 77.5 -11t81.5 -11q45 0 93 23l20 -5l-4 -315q89 69 162 69
q77 0 119 -49t42 -130v-288l80 -22v-21h-243v21l70 22v265q0 128 -103 128q-32 0 -63.5 -8.5t-47.5 -17.5l-16 -8q4 -41 4 -95v-264l70 -22v-21h-243v21z" />
    <glyph glyph-name="f_k" unicode="fk" horiz-adv-x="945" 
d="M469 43v496q0 39 2.5 72.5t4.5 48.5l3 14q-24 -20 -70 -20q-30 0 -69.5 27t-62.5 27q-70 0 -70 -101v-107h161v-52l-161 5v-410l100 -22v-21h-273v21l80 22v412l-66 3v42h66v49q0 93 43 152t133 59q29 0 77.5 -11t81.5 -11q45 0 93 23l20 -5v-472h74l126 175l-58 20v21
h205v-21q-66 -13 -89 -40l-130 -151l197 -236q22 -26 52 -31v-21h-62q-41 0 -64 12.5t-45 40.5l-150 185h-56v-195l70 -22v-21h-243v21z" />
    <glyph glyph-name="f_f_b" unicode="ffb" horiz-adv-x="1317" 
d="M828 30v509q0 39 2.5 72.5t5.5 48.5l2 14q-24 -20 -70 -20q-30 0 -69.5 27t-62.5 27q-70 0 -70 -101v-107h161v-52l-161 5v-410l100 -22v-21h-273v21l80 22v410l-266 3v-413l100 -22v-21h-273v21l80 22v412l-66 3v42h66v39q0 94 45 152.5t142 58.5q36 0 87 -11t54 -11
l-20 -84q-36 5 -80.5 29.5t-64.5 24.5q-70 0 -70 -101v-97h266v49q0 93 43 152t133 59q29 0 77.5 -11t81.5 -11q45 0 93 23l20 -5l-2 -315q71 69 159 69q92 0 140 -69t48 -164q0 -135 -65.5 -211t-193.5 -76q-111 0 -179 40zM1011 40q79 0 118.5 58t39.5 142q0 96 -31 146
t-102 50q-63 0 -119 -35q4 -51 4 -100v-236q37 -25 90 -25z" />
    <glyph glyph-name="f_f_h" unicode="ffh" horiz-adv-x="1341" 
d="M828 43v496q0 39 2.5 72.5t5.5 48.5l2 14q-24 -20 -70 -20q-30 0 -69.5 27t-62.5 27q-70 0 -70 -101v-107h161v-52l-161 5v-410l100 -22v-21h-273v21l80 22v409l-266 4v-413l100 -22v-21h-273v21l80 22v412l-66 3v42h66v39q0 94 45 152.5t142 58.5q36 0 87 -11t54 -11
l-20 -84q-36 5 -80.5 29.5t-64.5 24.5q-70 0 -70 -101v-97h266v49q0 93 43 152t133 59q29 0 77.5 -11t81.5 -11q45 0 93 23l20 -5l-4 -315q89 69 162 69q77 0 119 -49t42 -130v-288l80 -22v-21h-243v21l70 22v265q0 128 -103 128q-32 0 -64 -8.5t-48 -17.5l-15 -8
q4 -41 4 -95v-264l70 -22v-21h-243v21z" />
    <glyph glyph-name="f_f_j" unicode="ffj" horiz-adv-x="1007" 
d="M277 698q-70 0 -70 -101v-97h266v49q0 94 45 152.5t142 58.5q24 0 44 -3t45.5 -9t39.5 -8l-19 -81q-33 6 -73 27.5t-61 21.5q-70 0 -70 -101v-107l331 5l20 -5v-483q0 -151 -156 -274l-20 20q83 86 83 242v451h-258v-413l100 -22v-21h-273v21l80 22v412l-22 1h-244v-413
l100 -22v-21h-273v21l80 22v412l-66 3v42h66v39q0 94 45 152.5t142 58.5q36 0 87 -11t54 -11l-20 -84q-36 5 -80.5 29.5t-64.5 24.5zM868 627q-26 0 -42.5 16t-16.5 41q0 26 18 41t46 15q27 0 42.5 -14.5t15.5 -39.5q0 -27 -17 -43t-46 -16z" />
    <glyph glyph-name="f_f_k" unicode="ffk" horiz-adv-x="1304" 
d="M828 43v496q0 39 2.5 72.5t5.5 48.5l2 14q-24 -20 -70 -20q-30 0 -69.5 27t-62.5 27q-70 0 -70 -101v-107h161v-52l-161 5v-410l100 -22v-21h-273v21l80 22v409l-266 4v-413l100 -22v-21h-273v21l80 22v412l-66 3v42h66v39q0 94 45 152.5t142 58.5q36 0 87 -11t54 -11
l-20 -84q-36 5 -80.5 29.5t-64.5 24.5q-70 0 -70 -101v-97h266v49q0 93 43 152t133 59q29 0 77.5 -11t81.5 -11q45 0 93 23l20 -5v-472h74l126 175l-58 20v21h205v-21q-66 -13 -89 -40l-130 -151l197 -236q22 -26 52 -31v-21h-62q-41 0 -64 12.5t-45 40.5l-150 185h-56v-195
l70 -22v-21h-243v21z" />
    <glyph glyph-name="f_j" unicode="fj" horiz-adv-x="648" 
d="M538 505l20 -5v-483q0 -151 -156 -274l-20 20q83 86 83 242v447l-258 1v-410l100 -22v-21h-273v21l80 22v412l-66 3v42h66v49q0 94 45 152.5t142 58.5q36 0 80.5 -9.5t48.5 -10.5l-19 -81q-32 5 -72.5 27t-61.5 22q-70 0 -70 -101v-107zM509 627q-26 0 -42.5 16t-16.5 41
q0 26 18 41t46 15q27 0 42.5 -14.5t15.5 -39.5q0 -27 -17 -43t-46 -16z" />
    <glyph glyph-name=".notdef" horiz-adv-x="634" 
d="M47 0l-23 22v489l23 22h490l22 -22v-490l-22 -21h-490zM55 51l21 -20h432l19 19v432l-19 20h-432l-21 -20v-431zM183 323v89l-1 14l13 1v-7q7 7 21 7q29 0 29 -32q0 -18 -9.5 -28.5t-25.5 -10.5q-5 0 -15 4v-25l1 -12h-13zM143 357v7q-12 -8 -23 -8q-21 0 -21 23v36
l-1 11h14v-43q0 -16 13 -16q10 0 17 5v54h13v-54l1 -14zM496 331l-4 -8q-39 15 -39 69q0 53 39 70l4 -9q-31 -15 -31 -60q0 -47 31 -62zM261 359l1 11q4 0 11 -1.5t11 -1.5q13 0 13 8q0 6 -16 12q-19 6 -19 21q0 19 22 19q5 0 11.5 -1t9.5 -1l-1 -11q-5 0 -11 1.5t-10 1.5
q-10 0 -10 -8q0 -7 17 -12q18 -7 18 -21q0 -20 -24 -20q-5 0 -13.5 1.5t-9.5 1.5zM195 412v-41q10 -5 16 -5q21 0 21 25t-19 25q-11 0 -18 -4zM298 102v-1q-1 -1 -1 -2q0 -2 3 -2l7 -1q11 0 11 -9q0 -11 -15 -11t-15 9q0 6 6 8q-2 2 -2 4l3 6q-6 1 -6 9q0 13 14 13q3 0 7 -2
q3 3 10 3v-5q-5 0 -8 -1q4 -2 4 -7q0 -12 -14 -12q-3 0 -4 1zM378 77v40l-1 7h6v-3q6 4 10 4q13 0 13 -15q0 -18 -16 -18q-5 0 -7 2v-12l1 -5h-6zM212 192v11l-1 6l6 1v-41l1 -7h-6v3q-4 -4 -9 -4q-14 0 -14 16q0 17 15 17q4 0 8 -2zM238 246q0 18 16 18q15 0 15 -15
q0 -18 -16 -18q-15 0 -15 15zM228 176q0 18 16 18q14 0 14 -15q0 -18 -16 -18q-14 0 -14 15zM130 181l-7 -19h-6l-5 19l-1 7h-1q0 -4 -1 -7l-5 -19h-6l-8 25l-2 7h6l5 -19l2 -8l5 20l2 7h6l5 -18l2 -9q1 4 2 9l3 8l2 10h5q0 -6 -3 -13zM427 168v-5q-2 -2 -5 -2q-5 0 -5 4
q-6 -4 -10 -4q-9 0 -9 9q0 8 10 9q3 1 9 1v2q0 7 -8 7l-9 -1v4q4 2 10 2q13 0 13 -11q0 -2 -0.5 -7.5t-0.5 -7.5t2 -2zM167 178h-22q0 -12 11 -12l9 2v-4q-4 -3 -11 -3q-15 0 -15 16q0 17 15 17t13 -16zM265 114v-16l1 -6h-7v20q0 7 -6 7t-8 -2v-25h-6v48h6v-19q6 4 11 4
q9 0 9 -11zM492 178h-22q2 -12 12 -12l8 2v-4q-4 -3 -10 -3q-16 0 -16 16q0 17 16 17q14 0 12 -16zM389 184v-22h-6v20q0 7 -6 7q-4 0 -8 -2v-25h-6v47l6 1v-20q4 4 11 4q9 0 9 -10zM442 114v-16l1 -6h-6v20q0 7 -7 7q-6 0 -8 -2v-19l1 -6h-7v48h6v-19q6 4 11 4q9 0 9 -11z
M190 92v3q-4 -3 -10 -3q-10 0 -10 10v17l-1 5h7v-20q0 -7 6 -7q4 0 8 2v25h6v-32h-6zM294 184v-17l1 -5h-7v20q0 7 -6 7q-4 0 -8 -2v-25h-6v32h6v-4q4 4 10 4q10 0 10 -10zM353 76l-6 1q1 4 5 14l1 1l-9 25l-3 7h7l6 -18l2 -8q1 4 3 8l2 6l3 12h5q0 -1 -3 -13l-8 -19z
M341 216h-5q0 4 5 14v2l-9 25l-3 6l7 1l6 -19l2 -8q1 4 3 9l2 6q3 9 3 11h6q0 -1 -1 -3.5t-1.5 -4.5t-1.5 -4l-8 -20zM393 385v10h40v-10h-40zM244 249q0 -13 10 -13q9 0 9 10q0 14 -10 14q-9 0 -9 -11zM234 179q0 -13 10 -13q8 0 8 11q0 13 -9 13t-9 -11zM212 168v19
q-3 3 -7 3q-10 0 -10 -12t9 -12q4 0 8 2zM208 232l1 6q6 -2 10 -2q6 0 6 4t-7 5q-9 3 -9 10q0 9 10 9q2 0 5 -0.5t5 -0.5l-1 -5q-2 0 -5 0.5t-4 0.5q-5 0 -5 -4q0 -2 8 -5t8 -10q0 -9 -11 -9q-2 0 -5.5 0.5t-5.5 0.5zM139 93v5q2 0 5.5 -0.5t4.5 -0.5q7 0 7 3t-8 6
q-9 3 -9 10q0 9 10 9q3 0 6 -1t4 -1l-1 -5q-2 0 -4.5 1t-4.5 1q-5 0 -5 -4q0 -3 8 -6q9 -4 9 -9q0 -9 -12 -9q-2 0 -5.5 0.5t-4.5 0.5zM383 117v-18q3 -3 8 -3q9 0 9 12q0 11 -9 11q-6 0 -8 -2zM456 183l-8 -21h-6l-9 25l-3 7h7l6 -19l2 -8h1q0 4 2 8l3 10q2 6 2 9h6z
M212 109q0 -12 10 -12l8 1v-4q-4 -2 -9 -2q-15 0 -15 15q0 18 15 18q1 0 4 -1t5 -1l-1 -5q-1 0 -4 1t-5 1q-8 0 -8 -11zM323 189h-4v4l4 1l3 7h2v-7h12v-5h-12v-17q0 -6 6 -6l6 1v-4q-3 -2 -7 -2q-10 0 -10 11v17zM285 232h-7v31l6 1v-5q5 5 8 5q2 0 4.5 -1.5t3.5 -1.5
l-2 -5q-1 0 -3.5 1.5t-3.5 1.5q-3 0 -7 -4v-18zM313 232h-7v31l6 1v-5q5 5 8 5q2 0 4.5 -1.5t3.5 -1.5l-3 -5l-6 3q-3 0 -7 -4v-18zM357 412q0 9 10 9q8 0 8 -8q0 -9 -9 -9t-9 8zM357 364q0 9 10 9q8 0 8 -9q0 -8 -9 -8t-9 8zM328 92v41l-1 7h6v-42l1 -6h-6zM296 92
q-2 -4 -2 -5q0 -7 10 -7q9 0 9 6q0 5 -6 5h-7q-1 0 -2 1h-2zM295 113q0 -7 8 -7q7 0 7 7t-8 7q-7 0 -7 -7zM416 169q0 1 0.5 3.5t0.5 4.5q-5 0 -7 -1q-6 -1 -6 -6q0 -4 5 -4q4 0 7 3zM145 182h16q0 8 -7 8t-9 -8zM470 182h16q0 8 -7 8t-9 -8zM367 220l-2 2q4 4 4 9
q-4 0 -4 4t4 4t4 -5q0 -10 -6 -14zM306 188l-2 2q4 6 4 9q-4 0 -4 4t4 4t4 -5q0 -8 -6 -14z" />
    <glyph glyph-name=".null" horiz-adv-x="0" 
 />
    <glyph glyph-name="nonmarkingreturn" horiz-adv-x="333" 
 />
    <glyph glyph-name="space" unicode=" " horiz-adv-x="235" 
 />
    <glyph glyph-name="exclam" unicode="!" horiz-adv-x="282" 
d="M115 200l-26 501l104 5l-25 -506h-53zM139 -15q-26 0 -42 17.5t-16 45.5q0 29 17.5 45.5t46.5 16.5q27 0 42 -16t15 -44q0 -30 -17 -47.5t-46 -17.5z" />
    <glyph glyph-name="quotedbl" unicode="&#x22;" horiz-adv-x="368" 
d="M78 463l-26 238l104 5l-25 -243h-53zM238 463l-26 238l104 5l-25 -243h-53z" />
    <glyph glyph-name="numbersign" unicode="#" horiz-adv-x="725" 
d="M87 383v74h173l52 135h82l-52 -135h159l52 135h82l-52 -135h92v-74h-120l-63 -166h143v-74h-172l-54 -143h-83l55 143h-159l-54 -143h-83l55 143h-93v74h121l64 166h-145zM314 383l-63 -166h158l64 166h-159z" />
    <glyph glyph-name="dollar" unicode="$" horiz-adv-x="512" 
d="M224 38q66 0 108.5 28t42.5 80q0 31 -11 55.5t-36 44t-44.5 31t-56.5 29.5l-51 26.5t-44.5 28t-41.5 37t-24 45t-11 59.5q0 68 49 113t132 55l-6 135q38 14 78 0l-8 -134q40 -2 76.5 -11.5t53.5 -17.5l16 -9l-7 -159h-38l-15 124q-52 22 -117 22q-58 0 -90 -25.5
t-32 -75.5q0 -25 10.5 -46.5t32 -39.5t41.5 -30t53 -29q90 -45 119 -70q64 -54 64 -135q0 -71 -47.5 -118t-131.5 -60l9 -144q-37 -14 -78 0l6 139q-50 0 -93.5 9.5t-61.5 18.5l-19 10l-1 166h37l20 -136q54 -16 117 -16z" />
    <glyph glyph-name="percent" unicode="%" horiz-adv-x="920" 
d="M270 0h-98q286 400 478 700h97q-267 -373 -477 -700zM232 394q44 0 67.5 31t23.5 90q0 146 -99 146q-90 0 -90 -121q0 -146 98 -146zM220 341q-82 0 -130 53t-48 123q0 91 50 144t146 53q82 0 130 -53t48 -123q0 -91 -50 -144t-146 -53zM694 43q44 0 67.5 31t23.5 90
q0 146 -99 146q-90 0 -90 -121q0 -146 98 -146zM682 -10q-82 0 -130 53t-48 123q0 91 50 144t146 53q82 0 130 -53t48 -123q0 -91 -50 -144t-146 -53z" />
    <glyph glyph-name="ampersand" unicode="&#x26;" horiz-adv-x="707" 
d="M646 32h13v-32h-35q-88 0 -176 69q-84 -79 -195 -79q-90 0 -146.5 46.5t-56.5 122.5q0 110 136 192q-92 105 -95 180q-5 84 46.5 133.5t133.5 49.5q85 0 131 -40.5t46 -103.5q0 -60 -39 -106.5t-117 -100.5l57 -65q64 -76 120 -136q59 83 87 211l-100 14v31h218v-31
l-70 -14q-30 -142 -103 -244q97 -97 145 -97zM274 47q78 0 139 53q-32 31 -144 159l-59 65q-65 -56 -65 -135q0 -66 36.5 -104t92.5 -38zM179 557q1 -13 3 -24t6.5 -23t7 -19.5t10 -19.5t10 -16.5t12.5 -17t12 -14.5t14 -16t13 -15q49 40 70 77t21 89q0 48 -24.5 75
t-67.5 27q-42 0 -66 -29t-21 -74z" />
    <glyph glyph-name="quotesingle" unicode="'" horiz-adv-x="208" 
d="M78 463l-26 238l104 5l-25 -243h-53z" />
    <glyph glyph-name="parenleft" unicode="(" horiz-adv-x="324" 
d="M40 289q0 166 76 307t214 206l13 -26q-106 -63 -160.5 -194t-54.5 -283t54.5 -283t160.5 -194l-13 -26q-92 44 -159 123.5t-99 174t-32 195.5z" />
    <glyph glyph-name="parenright" unicode=")" horiz-adv-x="324" 
d="M284 289q0 -101 -32 -195.5t-99 -174t-159 -123.5l-13 26q106 63 160.5 194t54.5 283t-54.5 283t-160.5 194l13 26q138 -65 214 -206t76 -307z" />
    <glyph glyph-name="asterisk" unicode="*" horiz-adv-x="537" 
d="M42 707q6 20 23.5 30t37.5 0l124 -76l25 19l-30 144q-3 21 11.5 34.5t34.5 13.5q21 0 36 -13.5t11 -35.5l-31 -141l26 -20l124 75q20 10 37.5 0t23.5 -30q6 -19 -2 -36.5t-29 -21.5l-140 -17l-11 -34l104 -89q15 -18 11.5 -36.5t-21.5 -31.5q-14 -12 -34 -9.5t-30 21.5
l-56 124h-38l-55 -124q-10 -19 -30 -21.5t-34 9.5q-18 13 -21.5 31.5t11.5 36.5l104 90l-10 33l-141 17q-21 4 -29 21.5t-2 36.5z" />
    <glyph glyph-name="plus" unicode="+" horiz-adv-x="499" 
d="M44 253v64h170v174h70v-174h171v-64h-171v-173h-70v173h-170z" />
    <glyph glyph-name="comma" unicode="," horiz-adv-x="250" 
d="M81 -171l-20 22q69 60 74 143q-34 -8 -54.5 10t-20.5 46q0 27 18 43.5t46 16.5t46.5 -18.5t18.5 -53.5q0 -126 -108 -209z" />
    <glyph glyph-name="hyphen" unicode="-" horiz-adv-x="436" 
d="M73 252v69l291 10v-69z" />
    <glyph glyph-name="period" unicode="." horiz-adv-x="244" 
d="M119 -15q-26 0 -42 17.5t-16 45.5q0 29 17.5 45.5t46.5 16.5q27 0 42 -16t15 -44q0 -30 -17 -47.5t-46 -17.5z" />
    <glyph glyph-name="slash" unicode="/" horiz-adv-x="467" 
d="M27 -174h-83l431 874h82z" />
    <glyph glyph-name="zero" unicode="0" horiz-adv-x="611" 
d="M310 40q66 0 103.5 77t37.5 203q0 154 -38 247t-115 93q-67 0 -102.5 -76t-35.5 -204q0 -340 150 -340zM294 -10q-74 0 -129 50t-81 125.5t-26 163.5q0 176 66 278.5t193 102.5q74 0 129 -50t81 -125.5t26 -163.5q0 -176 -66 -278.5t-193 -102.5z" />
    <glyph glyph-name="one" unicode="1" horiz-adv-x="377" 
d="M13 618l238 88h20v-706h-98v618l-151 -31z" />
    <glyph glyph-name="two" unicode="2" horiz-adv-x="485" 
d="M314 511q0 62 -33 97t-99 35q-40 0 -74 -8.5t-48 -17.5l-15 -9v37q7 7 21.5 18t61 29t97.5 18q83 0 135 -46t52 -135q0 -47 -13.5 -89.5t-51.5 -97.5t-74 -98.5t-113 -129.5l-44 -49l246 14l80 10l-8 -89h-413v30l85 99q120 139 164 223t44 159z" />
    <glyph glyph-name="three" unicode="3" horiz-adv-x="507" 
d="M145 348l5 44h25q71 0 111.5 38.5t40.5 97.5q0 53 -32.5 84t-95.5 31q-42 0 -77 -8.5t-49 -17.5l-14 -9v37q8 7 22 18t59.5 29t92.5 18q87 0 138.5 -42.5t51.5 -118.5q0 -66 -39.5 -112t-115.5 -63q85 -11 135 -57.5t50 -120.5q0 -88 -61 -147t-164 -59q-52 0 -98 16.5
t-66 33.5l-21 16l7 32q70 -33 140 -33q83 0 123 40.5t40 108.5q0 61 -44.5 102.5t-137.5 41.5h-26z" />
    <glyph glyph-name="four" unicode="4" horiz-adv-x="550" 
d="M320 -30v179h-282l-28 46l352 509h50v-489l114 1l-8 -67h-106v-86l5 -93h-97zM280 484l-187 -275l227 5v257l3 85h-3q-10 -27 -40 -72z" />
    <glyph glyph-name="five" unicode="5" horiz-adv-x="504" 
d="M435 700l-5 -89q-36 8 -85 10l-185 8l-12 -189q152 -4 228.5 -69t76.5 -166q0 -93 -60 -154t-166 -61q-113 0 -184 66l7 28q60 -30 144 -30q78 0 118.5 37t40.5 106q0 88 -74.5 131t-198.5 43l18 329h337z" />
    <glyph glyph-name="six" unicode="6" horiz-adv-x="547" 
d="M456 685q-124 -17 -205.5 -102t-98.5 -237q60 75 163 75q88 0 139 -51.5t51 -145.5q0 -99 -59 -166.5t-159 -67.5q-106 0 -170 76.5t-64 201.5q0 405 396 453zM283 359q-86 0 -131 -74v-29q0 -93 35.5 -155.5t104.5 -62.5q58 0 88.5 47t30.5 120q0 72 -32 113t-96 41z
" />
    <glyph glyph-name="seven" unicode="7" horiz-adv-x="437" 
d="M23 616l6 84h402v-17q-146 -313 -240 -700l-94 24q128 381 258 632l-234 -12z" />
    <glyph glyph-name="eight" unicode="8" horiz-adv-x="554" 
d="M56 174q0 124 154 188q-63 37 -97.5 77.5t-34.5 103.5q0 75 58.5 121t147.5 46q87 0 142 -43.5t54 -116.5q-2 -100 -136 -169q73 -41 113 -85t40 -116q0 -82 -64 -136.5t-154 -54.5q-101 0 -162 48.5t-61 136.5zM406 164q0 30 -12 55.5t-38.5 48t-47.5 36.5t-60 36
q-97 -63 -97 -175q0 -52 32.5 -87.5t92.5 -35.5q56 0 93 32t37 90zM170 562q0 -52 35 -87.5t101 -72.5q78 55 79 152q1 48 -27 78t-78 30q-53 0 -81.5 -28.5t-28.5 -71.5z" />
    <glyph glyph-name="nine" unicode="9" horiz-adv-x="547" 
d="M91 15q121 17 202 98t100 227q-58 -72 -161 -72q-87 0 -138.5 56t-51.5 152q0 99 59 166.5t159 67.5q106 0 170 -76.5t64 -201.5q0 -405 -396 -453zM264 330q85 0 130 72q1 13 1 42q0 93 -35.5 155.5t-104.5 62.5q-58 0 -88.5 -47t-30.5 -120q0 -74 32.5 -119.5
t95.5 -45.5z" />
    <glyph glyph-name="colon" unicode=":" horiz-adv-x="265" 
d="M130 -15q-26 0 -42 17.5t-16 45.5q0 29 17.5 45.5t46.5 16.5q27 0 42 -16t15 -44q0 -30 -17 -47.5t-46 -17.5zM130 339q-26 0 -42 17.5t-16 45.5q0 29 17.5 45.5t46.5 16.5q27 0 42 -16t15 -44q0 -30 -17 -47.5t-46 -17.5z" />
    <glyph glyph-name="semicolon" unicode=";" horiz-adv-x="278" 
d="M132 339q-26 0 -42 17.5t-16 45.5q0 29 17.5 45.5t46.5 16.5q27 0 42 -16t15 -44q0 -30 -17 -47.5t-46 -17.5zM98 -171l-20 22q69 60 74 143q-34 -8 -54.5 10t-20.5 46q0 27 18 43.5t46 16.5t46.5 -18.5t18.5 -53.5q0 -126 -108 -209z" />
    <glyph glyph-name="less" unicode="&#x3c;" horiz-adv-x="460" 
d="M38 296l348 213v-87l-244 -137l244 -139v-86l-348 213v23z" />
    <glyph glyph-name="equal" unicode="=" horiz-adv-x="561" 
d="M75 342v69h411v-69h-411zM75 152v69h411v-69h-411z" />
    <glyph glyph-name="greater" unicode="&#x3e;" horiz-adv-x="461" 
d="M74 509l348 -213v-23l-348 -213v86l244 139l-244 137v87z" />
    <glyph glyph-name="question" unicode="?" horiz-adv-x="405" 
d="M239 241l-4 -44q-55 1 -86 25.5t-31 69.5t25.5 86t55.5 66.5t55.5 58.5t25.5 64q0 35 -28 54t-79 19q-32 0 -63.5 -8t-47.5 -16l-15 -9v45q2 3 5.5 7t16 14.5t27 19t38.5 15t51 6.5q75 0 120.5 -38t45.5 -103q0 -52 -25.5 -98.5t-56 -74t-56 -59.5t-25.5 -60
q0 -38 51 -40zM190 -15q-26 0 -42 17.5t-16 45.5q0 29 17.5 45.5t46.5 16.5q27 0 42 -16t15 -44q0 -30 -17 -47.5t-46 -17.5z" />
    <glyph glyph-name="at" unicode="@" horiz-adv-x="917" 
d="M672 -10q-75 0 -106 63q-6 -7 -16.5 -17.5t-46 -28t-73.5 -17.5q-83 0 -134.5 59t-51.5 150q0 102 58 166.5t147 64.5q33 0 61.5 -9t41.5 -19l12 -9l72 42h11v-348q0 -43 33 -43q38 0 58.5 55.5t20.5 126.5q0 163 -79.5 252t-222.5 89q-153 0 -232.5 -97.5t-79.5 -248.5
q0 -77 21.5 -143t64.5 -117t114.5 -76t163.5 -17l5 -39q-208 -31 -338 73t-130 297q0 186 112.5 304t326.5 118q159 0 266 -94t107 -264q0 -105 -54 -189t-132 -84zM555 100l-1 237q-31 32 -83 32q-62 0 -96 -41.5t-34 -113.5q0 -70 29.5 -115.5t83.5 -45.5q28 0 53.5 11.5
t36.5 23.5z" />
    <glyph glyph-name="A" unicode="A" horiz-adv-x="684" 
d="M183 203l-16 -48q-21 -59 -30 -111l84 -13v-31h-234v31l75 13l241 657l74 6l247 -663l63 -13v-31h-243v31l78 13l-57 159h-282zM322 623h-4q-11 -54 -27 -101l-91 -269h246l-97 266q-8 22 -15 48t-10 41z" />
    <glyph glyph-name="B" unicode="B" horiz-adv-x="632" 
d="M225 50h100q76 0 118 41t42 108q0 61 -40.5 101t-113.5 40h-106v-290zM450 515q0 58 -36 96.5t-116 38.5h-73v-260h146q37 12 58 46t21 79zM327 0h-280v31l80 13v612l-80 13v31h258q120 0 182.5 -47t62.5 -124q0 -55 -33 -98t-85 -60v-3q64 -13 108.5 -60t44.5 -109
q0 -94 -70 -146.5t-188 -52.5z" />
    <glyph glyph-name="C" unicode="C" horiz-adv-x="664" 
d="M437 38q49 0 107 15l21 150h38v-178q-78 -39 -177 -39q-174 0 -274 93t-100 259q0 103 39.5 187.5t120 136.5t190.5 52q58 0 109 -10t73 -20l22 -10l-8 -170h-39l-15 134q-60 24 -135 24q-122 0 -188.5 -82t-66.5 -221q0 -140 75 -230.5t208 -90.5z" />
    <glyph glyph-name="D" unicode="D" horiz-adv-x="740" 
d="M297 650h-72v-600h100q125 0 193 80t68 214q0 135 -73.5 220.5t-215.5 85.5zM317 0h-270v31l80 13v612l-80 13v31h287q165 0 260 -94.5t95 -242.5q0 -175 -104.5 -269t-267.5 -94z" />
    <glyph glyph-name="E" unicode="E" horiz-adv-x="600" 
d="M225 333v-283l264 4l27 119h37l-4 -173h-502v31l80 13v612l-80 13v31h492l-6 -170h-41l-13 114l-254 6v-267l234 6v-61z" />
    <glyph glyph-name="F" unicode="F" horiz-adv-x="566" 
d="M479 644l-254 6v-287l234 6v-61l-234 4v-268l91 -13v-31h-269v31l80 13v612l-80 13v31h492l-6 -170h-41z" />
    <glyph glyph-name="G" unicode="G" horiz-adv-x="722" 
d="M428 662q-126 0 -200.5 -78.5t-74.5 -212.5q0 -151 75 -242t205 -91q26 0 49.5 3t33.5 6l11 3v210l-100 14v31h268v-31l-70 -14v-242q-74 -32 -200 -32q-78 0 -144 20.5t-118.5 62t-82 110.5t-29.5 159q0 168 99.5 272t277.5 104q58 0 108.5 -10t71.5 -20l22 -10l-8 -170
h-39l-15 133q-66 25 -140 25z" />
    <glyph glyph-name="H" unicode="H" horiz-adv-x="804" 
d="M677 44l80 -13v-31h-258v31l80 13v291h-354v-291l80 -13v-31h-258v31l80 13v612l-80 13v31h258v-31l-80 -13v-271h354v271l-80 13v31h258v-31l-80 -13v-612z" />
    <glyph glyph-name="I" unicode="I" horiz-adv-x="352" 
d="M225 656v-612l80 -13v-31h-258v31l80 13v612l-80 13v31h258v-31z" />
    <glyph glyph-name="J" unicode="J" horiz-adv-x="339" 
d="M219 656v-525q0 -72 -17 -118q-12 -31 -33.5 -63.5t-37 -50l-50.5 -55.5q-8 -9 -12 -13l-33 24l42 58q27 37 35 72t8 94v577l-80 13v31h258v-31z" />
    <glyph glyph-name="K" unicode="K" horiz-adv-x="673" 
d="M225 332v-288l80 -13v-31h-258v31l80 13v612l-80 13v31h258v-31l-80 -13v-274h90l183 274l-68 13v31h219v-31l-74 -13l-207 -278l233 -307q18 -23 30.5 -29.5t41.5 -10.5v-31h-80q-40 0 -58.5 9t-41.5 42l-202 281h-66z" />
    <glyph glyph-name="L" unicode="L" horiz-adv-x="581" 
d="M225 656v-606l264 4l29 149h37l-6 -203h-502v31l80 13v612l-80 13v31h258v-31z" />
    <glyph glyph-name="M" unicode="M" horiz-adv-x="926" 
d="M186 555v-507l80 -17v-31h-218v31l80 17v608l-80 13v31h198l185 -396l28 -67h2q13 32 30 66l200 397h187v-31l-80 -13v-610l80 -15v-31h-252v31l80 15v495l4 73h-3q-20 -48 -31 -70l-225 -444h-19l-220 461l-26 62h-3q3 -33 3 -68z" />
    <glyph glyph-name="N" unicode="N" horiz-adv-x="766" 
d="M587 234v417l-80 18v31h218v-31l-80 -18v-651l-54 -4l-358 488l-52 79l-3 -1q5 -44 5 -90v-425l80 -16v-31h-218v31l80 16v563l-46 53v37l110 4l349 -480q11 -15 23.5 -34.5t18.5 -31.5l7 -12l4 1q-4 46 -4 87z" />
    <glyph glyph-name="O" unicode="O" horiz-adv-x="769" 
d="M399 33q103 0 159 83.5t56 212.5q0 86 -27.5 161.5t-85 126t-133.5 50.5q-102 0 -157.5 -85t-55.5 -218q0 -82 27.5 -156t84.5 -124.5t132 -50.5zM373 -14q-142 0 -231 101.5t-89 259.5q0 69 20.5 133t60.5 117t108 85t154 32q142 0 231 -101.5t89 -259.5
q0 -69 -20.5 -133t-60.5 -117t-108 -85t-154 -32z" />
    <glyph glyph-name="P" unicode="P" horiz-adv-x="595" 
d="M225 277v-233l101 -13v-31h-279v31l80 13v612l-80 13v31h250q263 0 263 -207q0 -97 -70.5 -156.5t-182.5 -59.5h-82zM225 327h82q72 0 112.5 43.5t40.5 117.5q0 73 -43.5 117.5t-133.5 44.5h-58v-323z" />
    <glyph glyph-name="Q" unicode="Q" horiz-adv-x="770" 
d="M374 -14q-142 0 -231.5 101.5t-89.5 259.5q0 69 20.5 133t61 117t108.5 85t154 32q142 0 231 -101.5t89 -259.5q0 -109 -50.5 -202.5t-146.5 -135.5q33 -22 55 -48l91 -109q16 -19 26.5 -25t30.5 -8v-31h-57q-45 0 -63 9t-46 44l-116 145q-31 -6 -67 -6zM400 33
q103 0 159 82.5t56 204.5q0 140 -66.5 243.5t-179.5 103.5q-101 0 -157.5 -82.5t-56.5 -204.5q0 -90 27.5 -167.5t85 -128.5t132.5 -51z" />
    <glyph glyph-name="R" unicode="R" horiz-adv-x="656" 
d="M225 287v-243l101 -13v-31h-279v31l80 13v612l-80 13v31h270q128 0 195.5 -53t67.5 -149q0 -71 -42.5 -122.5t-118.5 -72.5l168 -230q18 -25 30.5 -32t41.5 -12v-29q-29 -9 -65 -9q-44 0 -64 13t-53 61l-147 222h-105zM225 337h102q72 0 112.5 43.5t40.5 116.5
q0 67 -44 110t-133 43h-78v-313z" />
    <glyph glyph-name="S" unicode="S" horiz-adv-x="540" 
d="M239 38q67 0 111 31t44 87q0 33 -11 58.5t-37 47t-45.5 33t-58.5 31.5l-52.5 27.5t-45.5 30t-42 39t-25 48t-11 63.5q0 81 62 130.5t164 49.5q48 0 92 -10t64 -20l19 -11l-8 -169h-39l-15 134q-54 24 -120 24q-60 0 -92.5 -28.5t-32.5 -81.5q0 -51 35.5 -84t105.5 -70
q91 -48 121 -74q66 -57 66 -144q0 -89 -67 -141.5t-181 -52.5q-51 0 -95.5 10t-63.5 20l-19 10l-1 177h38l22 -149q49 -16 118 -16z" />
    <glyph glyph-name="T" unicode="T" horiz-adv-x="622" 
d="M33 700h573l-21 -184h-37l-7 126l-176 9v-607l80 -13v-31h-258v31l80 13v607l-169 -9l-37 -126h-37z" />
    <glyph glyph-name="U" unicode="U" horiz-adv-x="742" 
d="M634 655v-371q0 -56 -12.5 -105.5t-40.5 -94.5t-81 -71.5t-126 -26.5q-127 0 -196 73.5t-69 203.5v393l-80 13v31h258v-31l-80 -14v-404q0 -97 45 -154.5t126 -57.5q90 0 136.5 59.5t46.5 162.5v394l-80 14v31h233v-31z" />
    <glyph glyph-name="V" unicode="V" horiz-adv-x="682" 
d="M161 657l173 -475q8 -22 15 -48t9 -41l3 -15h4q11 54 27 101l124 367q21 59 30 111l-84 13v31h234v-31l-75 -13l-241 -657l-74 -6l-247 663l-63 13v31h243v-31z" />
    <glyph glyph-name="W" unicode="W" horiz-adv-x="983" 
d="M985 669l-66 -13q-22 -54 -65 -201l-126 -455l-90 -6l-124 461q-7 26 -12.5 53.5t-7.5 42.5l-2 15h-4q-7 -59 -20 -109l-115 -457l-88 -6l-200 662l-76 13v31h259v-31l-84 -13l128 -438q8 -29 15 -58.5t9 -43.5l3 -15h4q10 52 25 117l118 482l79 5l128 -492q8 -29 14 -59
t8 -45l2 -15h4q9 53 28 118l87 335q21 80 25 109l-84 13v31h228v-31z" />
    <glyph glyph-name="X" unicode="X" horiz-adv-x="676" 
d="M500 44l-179 258q-13 -28 -42 -67l-85 -116q-25 -34 -34 -72l80 -16v-31h-234v31l68 16l217 296l-211 312l-65 14v31h259v-31l-87 -13l166 -250q16 27 44 67l75 108q29 42 31 70l-77 18v31h234v-31l-68 -16l-207 -288l228 -321l58 -13v-31h-259v31z" />
    <glyph glyph-name="Y" unicode="Y" horiz-adv-x="632" 
d="M369 299v-255l80 -13v-31h-258v31l80 13v255l-230 357l-58 13v31h239v-31l-77 -13l143 -234l43 -83h4q17 38 45 89l93 159q23 42 23 65l-68 17v31h205v-31l-59 -15z" />
    <glyph glyph-name="Z" unicode="Z" horiz-adv-x="591" 
d="M135 643l-37 -127h-37l9 184h463v-25l-375 -626l319 8l30 123h37l-6 -180h-501v25l375 626z" />
    <glyph glyph-name="bracketleft" unicode="[" horiz-adv-x="304" 
d="M92 -199v984h178v-46h-100v-892h100v-46h-178z" />
    <glyph glyph-name="backslash" unicode="\" horiz-adv-x="467" 
d="M523 -174h-83l-430 874h82z" />
    <glyph glyph-name="bracketright" unicode="]" horiz-adv-x="304" 
d="M212 785v-984h-178v46h100v892h-100v46h178z" />
    <glyph glyph-name="asciicircum" unicode="^" horiz-adv-x="467" 
d="M353 533l-120 139l-120 -139h-93l205 227h17l205 -227h-94z" />
    <glyph glyph-name="underscore" unicode="_" horiz-adv-x="496" 
d="M18 -173v63h460v-63h-460z" />
    <glyph glyph-name="grave" unicode="`" horiz-adv-x="312" 
d="M259 631l-28 -30l-183 143l62 64z" />
    <glyph glyph-name="a" unicode="a" horiz-adv-x="519" 
d="M329 59q-69 -64 -159 -64q-60 0 -94 34.5t-34 86.5q0 125 150 152q53 9 136 9v54q0 60 -21.5 87.5t-85.5 27.5q-31 0 -68 -6t-59 -12l-22 -5v34q9 6 24.5 15t63.5 23.5t94 14.5q87 0 126 -47t39 -140v-240q0 -43 37 -43h31v-27q-31 -23 -76 -23q-71 0 -82 69zM214 57
q51 0 115 38q-3 28 -3 71v71q-53 1 -111 -14q-82 -21 -82 -93q0 -33 21 -53t60 -20z" />
    <glyph glyph-name="b" unicode="b" horiz-adv-x="575" 
d="M336 510q92 0 140 -69t48 -164q0 -135 -65.5 -211t-193.5 -76q-111 0 -179 40v677l-81 8v31l154 15l20 -5l-2 -315q71 69 159 69zM269 40q79 0 118.5 58t39.5 142q0 96 -31 146t-102 50q-63 0 -119 -35q4 -51 4 -100v-236q37 -25 90 -25z" />
    <glyph glyph-name="c" unicode="c" horiz-adv-x="475" 
d="M271 458q-59 0 -92.5 -59t-33.5 -132q0 -96 42.5 -155.5t119.5 -59.5q32 0 63.5 6t46.5 12l15 6v-34q-7 -6 -19 -14.5t-53.5 -23t-85.5 -14.5q-106 0 -165 69.5t-59 181.5q0 117 69.5 193t180.5 76q36 0 79.5 -10t58.5 -12l-20 -81q-27 4 -73 27.5t-74 23.5z" />
    <glyph glyph-name="d" unicode="d" horiz-adv-x="595" 
d="M305 455q-75 0 -116.5 -52t-41.5 -143q0 -89 36.5 -142.5t104.5 -53.5q58 0 111 35q-4 36 -4 100v232q-36 24 -90 24zM488 756v-673q0 -43 37 -43h31v-27q-31 -23 -76 -23q-71 0 -82 69q-24 -22 -40.5 -34t-48.5 -23.5t-69 -11.5q-84 0 -137 68.5t-53 164.5
q0 134 65.5 210.5t178.5 76.5q29 0 54 -7t36 -13l11 -7v224l-81 8v31l154 15z" />
    <glyph glyph-name="e" unicode="e" horiz-adv-x="521" 
d="M472 257h-327q2 -91 50.5 -148t128.5 -57q30 0 62 6t49 12l17 6v-34q-7 -6 -20.5 -14.5t-57.5 -23t-90 -14.5q-107 0 -170.5 70t-63.5 181q0 121 67 195t164 74q104 0 153 -65.5t38 -187.5zM277 459q-54 0 -88.5 -41.5t-41.5 -113.5l234 6q-1 69 -23 109t-81 40z" />
    <glyph glyph-name="f" unicode="f" horiz-adv-x="394" 
d="M282 708q-70 0 -70 -101v-107h161v-52l-161 5v-410l100 -12v-31h-273v31l80 12v412l-80 3v42h80v49q0 94 45 152.5t142 58.5q36 0 87 -11t54 -11l-20 -84q-36 5 -80.5 29.5t-64.5 24.5z" />
    <glyph glyph-name="g" unicode="g" horiz-adv-x="555" 
d="M42 -117q0 83 88 128q-25 22 -25 61q0 24 16.5 49.5t40.5 38.5q-53 20 -81 62t-28 98q0 90 57 140t159 50q60 0 103 -23l165 15l-3 -59l-100 -2q38 -45 38 -105q0 -81 -59 -135.5t-162 -54.5q-20 0 -50 4q-28 -24 -17.5 -51.5t50.5 -29.5l118 -7q74 -5 116 -42t42 -101
q0 -78 -68.5 -129.5t-167.5 -53.5q-102 -2 -167 35.5t-65 111.5zM229 -16q-44 4 -69 12q-34 -37 -34 -82q0 -49 43.5 -83.5t115.5 -34.5q76 0 116 25t40 71q0 40 -28 62t-75 24zM257 457q-52 0 -80.5 -33.5t-28.5 -84.5q0 -66 30 -103t90 -37q49 0 79 34.5t30 88.5
q0 135 -120 135z" />
    <glyph glyph-name="h" unicode="h" horiz-adv-x="623" 
d="M202 756l-4 -315q89 69 162 69q77 0 119 -49t42 -130v-288l80 -12v-31h-243v31l70 12v265q0 128 -103 128q-32 0 -64 -8.5t-47 -17.5l-16 -8q4 -41 4 -95v-264l70 -12v-31h-243v31l80 12v664l-81 8v31l154 15z" />
    <glyph glyph-name="i" unicode="i" horiz-adv-x="320" 
d="M162 627q-26 0 -42.5 16t-16.5 41q0 26 18 41t46 15q27 0 42.5 -14.5t15.5 -39.5q0 -27 -17 -43t-46 -16zM191 505l20 -5v-457l80 -12v-31h-253v31l80 12v409l-81 8v31z" />
    <glyph glyph-name="j" unicode="j" horiz-adv-x="291" 
d="M181 505l20 -5v-483q0 -151 -156 -274l-20 20q83 86 83 242v447l-81 8v31zM152 627q-26 0 -42.5 16t-16.5 41q0 26 18 41t46 15q27 0 42.5 -14.5t15.5 -39.5q0 -27 -17 -43t-46 -16z" />
    <glyph glyph-name="k" unicode="k" horiz-adv-x="589" 
d="M109 43v662l-81 10v31l154 15l20 -5v-472h74l126 175l-58 10v31h205v-31l-71 -10l-148 -171l188 -225q16 -19 25 -23.5t36 -8.5v-31h-62q-46 0 -63.5 9t-45.5 44l-150 185h-56v-195l70 -12v-31h-243v31z" />
    <glyph glyph-name="l" unicode="l" horiz-adv-x="311" 
d="M109 42v663l-81 10v31l154 15l20 -5v-714l80 -11v-31h-253v31z" />
    <glyph glyph-name="m" unicode="m" horiz-adv-x="921" 
d="M514 342v-299l70 -12v-31h-233v31l70 12v271q0 121 -103 121q-47 0 -111 -33q4 -54 4 -101v-258l70 -12v-31h-243v31l80 12v408l-81 8v31l154 15l20 -5l-4 -59q85 69 168 69q88 0 122 -76q78 76 169 76q73 0 112.5 -47t39.5 -128v-292l80 -12v-31h-243v31l70 12v277
q0 55 -26 85t-75 30t-115 -33q5 -28 5 -60z" />
    <glyph glyph-name="n" unicode="n" horiz-adv-x="632" 
d="M530 331v-289l80 -11v-31h-243v31l70 11v266q0 128 -103 128q-32 0 -64 -8.5t-48 -17.5l-15 -8q4 -41 4 -95v-265l70 -11v-31h-243v31l80 11v409l-81 8v31l154 15l20 -5l-4 -59q89 69 162 69q77 0 119 -49t42 -130z" />
    <glyph glyph-name="o" unicode="o" horiz-adv-x="574" 
d="M286 39q143 0 143 210q0 97 -37.5 154.5t-103.5 57.5q-143 0 -143 -210q0 -97 37.5 -154.5t103.5 -57.5zM274 -10q-104 0 -164 68.5t-60 180.5q0 120 65 195.5t185 75.5q104 0 164 -68.5t60 -180.5q0 -120 -65 -195.5t-185 -75.5z" />
    <glyph glyph-name="p" unicode="p" horiz-adv-x="597" 
d="M28 -251v31l80 11v661l-81 8v31l154 14l20 -5l-3 -59q77 69 158 69q91 0 140.5 -67.5t49.5 -165.5q0 -134 -65.5 -210.5t-178.5 -76.5q-29 0 -54 7t-36 13l-11 7v-226l80 -11v-31h-253zM291 45q75 0 116.5 52t41.5 143q0 98 -31.5 147t-101.5 49q-66 0 -119 -35
q4 -36 4 -100v-232q36 -24 90 -24z" />
    <glyph glyph-name="q" unicode="q" horiz-adv-x="579" 
d="M401 482l78 33h10v-724l80 -11v-31h-273v31l100 11v176l3 92q-73 -69 -152 -69q-90 0 -143 68t-53 165q0 134 65.5 210.5t178.5 76.5q29 0 55.5 -7t38.5 -14zM306 455q-75 0 -116.5 -52t-41.5 -143q0 -92 36.5 -144t106.5 -52q56 0 109 35q-4 36 -4 100v232
q-36 24 -90 24z" />
    <glyph glyph-name="r" unicode="r" horiz-adv-x="463" 
d="M207 397q4 -46 4 -100v-254l100 -12v-31h-273v31l80 12v409l-81 8v31l154 14l20 -5l-4 -67q77 77 133 77q23 0 40.5 -8.5t36.5 -22t34 -19.5l-39 -73q-16 7 -35 19.5t-35 20t-35 7.5q-46 0 -100 -37z" />
    <glyph glyph-name="s" unicode="s" horiz-adv-x="436" 
d="M232 42q39 0 62.5 18t23.5 47q0 27 -19.5 47t-49 32.5t-63.5 28.5t-63.5 33t-49 49t-19.5 74q0 63 49 101t124 38q28 0 55.5 -4t55.5 -10t41 -8l-20 -84q-33 4 -81.5 29t-79.5 25q-33 0 -50.5 -16.5t-17.5 -42.5q0 -35 27 -58.5t65 -39t76 -34t65 -53t27 -84.5
q0 -67 -51 -103.5t-123 -36.5q-36 0 -67.5 4t-62.5 10l-42 8l20 84q32 -4 83 -29t85 -25z" />
    <glyph glyph-name="t" unicode="t" horiz-adv-x="384" 
d="M34 455v22l64 23l73 116h21l-1 -116h170v-55l-170 8v-305q0 -96 77 -96q23 0 46.5 5t35.5 9l12 5v-37q-6 -5 -17 -12.5t-45 -19.5t-69 -12q-132 0 -132 157v226q0 57 4 81z" />
    <glyph glyph-name="u" unicode="u" horiz-adv-x="620" 
d="M514 441v-358q0 -43 37 -43h31v-27q-31 -23 -76 -23q-71 0 -82 69q-84 -69 -167 -69q-71 0 -113 49.5t-42 129.5v282l-81 8v31l158 15l20 -5l-4 -29v-291q0 -50 24.5 -83t78.5 -33q59 0 127 34q-4 52 -4 101v252l-81 8v31l158 15l20 -5z" />
    <glyph glyph-name="v" unicode="v" horiz-adv-x="564" 
d="M233 500v-31l-66 -13l98 -260q10 -27 19 -56.5t13 -45.5l4 -16h4q12 54 32 114l88 263l-75 14v31h211v-31l-69 -13l-169 -456l-74 -5l-181 461l-65 13v31h230z" />
    <glyph glyph-name="w" unicode="w" horiz-adv-x="831" 
d="M758 456l-160 -456l-77 -5l-92 339l-19 83h-4q-7 -48 -16 -85l-83 -332l-85 -5l-157 461l-60 13v31h220v-31l-69 -13l86 -270q8 -26 15 -55.5l11 -46.5l3 -16h4q9 55 25 116l81 316l78 7l91 -315q8 -28 14 -58.5t8 -47.5l3 -16h5q13 62 31 122l81 264l-70 13v31h205v-31z
" />
    <glyph glyph-name="x" unicode="x" horiz-adv-x="599" 
d="M418 43l-137 171l-122 -171l82 -12v-31h-222v31l65 12l169 199l-169 214l-59 13v31h238v-31l-72 -13l124 -163l119 163l-84 13v31h222v-31l-65 -13l-165 -192l181 -220l59 -13v-31h-238v31z" />
    <glyph glyph-name="y" unicode="y" horiz-adv-x="574" 
d="M164 -250q32 119 98 232l-193 474l-65 13v31h233v-31l-65 -13l97 -263l36 -116h4q14 53 34 113l90 266l-75 13v31h212v-31l-69 -13l-172 -457q-24 -63 -41.5 -126.5t-23.5 -95.5l-6 -32z" />
    <glyph glyph-name="z" unicode="z" horiz-adv-x="472" 
d="M372 54l16 86h38l-9 -140h-377v10l270 443l-205 -9l-16 -84h-35l6 140h362v-10l-271 -443z" />
    <glyph glyph-name="braceleft" unicode="{" horiz-adv-x="327" 
d="M120 452v185q0 74 29.5 111t94.5 37h54v-31h-23q-77 0 -77 -117v-175q0 -100 -79 -152q33 -14 56 -53.5t23 -91.5v-216q0 -117 77 -117h23v-31h-54q-65 0 -94.5 37t-29.5 111v209q0 105 -30 137q-35 -13 -71 -16l-6 26q54 12 80.5 45t26.5 102z" />
    <glyph glyph-name="bar" unicode="|" horiz-adv-x="262" 
d="M92 -259v1024h78v-1024h-78z" />
    <glyph glyph-name="braceright" unicode="}" horiz-adv-x="327" 
d="M207 134v-185q0 -74 -29.5 -111t-94.5 -37h-54v31h23q77 0 77 117v175q0 102 79 151q-33 14 -56 54t-23 92v216q0 117 -77 117h-23v31h54q65 0 94.5 -37t29.5 -111v-209q0 -105 30 -137q35 13 71 16l6 -26q-54 -12 -80.5 -45t-26.5 -102z" />
    <glyph glyph-name="asciitilde" unicode="~" horiz-adv-x="549" 
d="M358 307q72 0 98 67l30 -11q1 -56 -32 -94t-85 -38q-36 0 -88.5 32.5t-86.5 32.5q-72 0 -98 -67l-30 11q-1 56 32 94t85 38q43 0 92.5 -32.5t82.5 -32.5z" />
    <glyph glyph-name="uni00A0" unicode="&#xa0;" horiz-adv-x="235" 
 />
    <glyph glyph-name="exclamdown" unicode="&#xa1;" horiz-adv-x="266" 
d="M160 251l26 -501l-104 -5l25 506h53zM136 466q26 0 42 -17.5t16 -45.5q0 -29 -17.5 -45.5t-46.5 -16.5q-27 0 -42 16t-15 44q0 30 17 47.5t46 17.5z" />
    <glyph glyph-name="cent" unicode="&#xa2;" horiz-adv-x="484" 
d="M265 458q-59 0 -92.5 -59t-33.5 -132q0 -96 42.5 -155.5t119.5 -59.5q32 0 63.5 6t46.5 12l15 6v-34q-47 -42 -127 -50v-106h-58v105q-93 9 -145 77t-52 173q0 102 53.5 174t143.5 90v105h58v-100q33 -1 75 -10.5t58 -11.5l-20 -81q-27 4 -73 27.5t-74 23.5z" />
    <glyph glyph-name="sterling" unicode="&#xa3;" horiz-adv-x="563" 
d="M221 434l16 -88h175v-50h-166l3 -17q9 -39 4.5 -70.5t-10 -54t-19.5 -39.5t-24.5 -27.5t-25 -17.5t-20.5 -9.5t-11 -3.5l300 15l23 108h42l-10 -180h-452v57q6 1 15 4t31 16t37.5 30.5t25 51.5t2.5 75l-11 62h-91v50h82l-12 72q-24 135 42.5 216t197.5 81q24 0 55.5 -5
t50.5 -10l19 -5l-10 -180h-39l-14 129q-33 7 -69 7q-89 0 -123 -53.5t-14 -163.5z" />
    <glyph glyph-name="yen" unicode="&#xa5;" horiz-adv-x="718" 
d="M419 123v-79l80 -13v-31h-258v31l80 13v79h-138v60h138v81h-138v60h122l-214 332l-58 13v31h239v-31l-77 -13l143 -234l43 -83h4q17 38 45 89l93 159q23 42 23 65l-68 17v31h205v-31l-59 -15l-191 -330h121v-60h-135v-81h135v-60h-135z" />
    <glyph glyph-name="brokenbar" unicode="&#xa6;" horiz-adv-x="232" 
d="M155 373h-78v392h78v-392zM77 143h78v-402h-78v402z" />
    <glyph glyph-name="section" unicode="&#xa7;" horiz-adv-x="494" 
d="M447 332q0 -81 -80 -118q36 -34 36 -89q0 -64 -52 -99.5t-136 -35.5q-39 0 -77.5 5t-57.5 10l-19 5l8 66q79 -22 151 -22q98 0 98 67q0 27 -27.5 45.5t-67 32t-79 30.5t-67 50t-27.5 82q0 26 11.5 48t30 35t30 19t21.5 9q-49 41 -49 104q0 65 50 102t132 37q42 0 79.5 -5
t54.5 -10l16 -5l-8 -71q-72 26 -156 26q-41 0 -64 -16.5t-23 -43.5q0 -29 28 -52.5t68 -40.5t80 -36.5t68 -52.5t28 -76zM362 299q0 33 -20.5 57.5t-46 37t-66.5 30.5t-62 31l2 -2q-34 -34 -34 -71q0 -32 21.5 -55t48.5 -34l68 -26.5t64 -29.5q25 25 25 62z" />
    <glyph glyph-name="dieresis" unicode="&#xa8;" horiz-adv-x="502" 
d="M149 627q-23 0 -38.5 17t-15.5 40q0 24 16 40t41 16q26 0 40.5 -15t14.5 -39q0 -25 -16 -42t-42 -17zM348 627q-23 0 -38.5 17t-15.5 40q0 24 16 40t41 16q26 0 40.5 -15t14.5 -39q0 -25 -16 -42t-42 -17z" />
    <glyph glyph-name="copyright" unicode="&#xa9;" horiz-adv-x="809" 
d="M405 -8q-152 0 -255 104.5t-103 257.5q0 152 103 257.5t255 105.5q151 0 254 -105.5t103 -257.5q0 -150 -104 -256t-253 -106zM405 38q115 0 192.5 88.5t77.5 227.5q0 141 -76.5 229t-193.5 88t-193.5 -88t-76.5 -229t76 -228.5t194 -87.5zM436 513q-65 0 -96.5 -42
t-31.5 -115q0 -65 31 -107t90 -42q24 0 48.5 5t36.5 10l13 5v-43q-42 -25 -117 -25q-86 0 -135 52.5t-49 136.5q0 93 55 153t135 60q29 0 57 -4t41 -8l14 -4l-3 -150h-36l-18 114q-22 4 -35 4z" />
    <glyph glyph-name="guillemotleft" unicode="&#xab;" horiz-adv-x="513" 
d="M28 231v29q147 135 210 215l24 -18q-45 -98 -143 -212q92 -104 143 -214l-24 -15q-63 80 -210 215zM238 231v29q117 107 194 205l24 -18q-54 -117 -127 -202q99 -112 137 -194l-24 -15q-18 22 -38.5 43t-38 37l-55.5 50z" />
    <glyph glyph-name="logicalnot" unicode="&#xac;" horiz-adv-x="649" 
d="M75 269v64h497v-235h-62v171h-435z" />
    <glyph glyph-name="registered" unicode="&#xae;" horiz-adv-x="474" 
d="M237 338q-80 0 -135 54.5t-55 133.5t55 134t135 55t135 -55t55 -134t-55.5 -133.5t-134.5 -54.5zM237 370q60 0 98 41t38 115q0 76 -37.5 117t-98.5 41t-99 -41t-38 -117q0 -74 38.5 -115t98.5 -41zM233 602h-18v-75h20q36 0 36 38q0 16 -10.5 26.5t-27.5 10.5zM167 461
v148l-24 2v17h100q38 0 58.5 -16.5t20.5 -45.5q0 -36 -36 -50l21 -44q5 -11 9.5 -14t17.5 -5v-15q-57 -18 -75 23l-17 41h-27v-64h-72v19z" />
    <glyph glyph-name="macron" unicode="&#xaf;" horiz-adv-x="364" 
d="M25 554v59h234v-59h-234z" />
    <glyph glyph-name="degree" unicode="&#xb0;" horiz-adv-x="403" 
d="M205 505q38 0 60.5 26.5t22.5 64.5q0 46 -23 79t-68 33q-39 0 -61.5 -26.5t-22.5 -65.5q0 -48 22 -79.5t70 -31.5zM194 452q-68 0 -107.5 43.5t-39.5 101.5q0 75 41 119t121 44q68 0 107.5 -43.5t39.5 -101.5q0 -75 -41 -119t-121 -44z" />
    <glyph glyph-name="plusminus" unicode="&#xb1;" horiz-adv-x="554" 
d="M71 313v64h170v144h70v-144h171v-64h-171v-143h-70v143h-170zM71 65v63h411v-63h-411z" />
    <glyph glyph-name="acute" unicode="&#xb4;" horiz-adv-x="294" 
d="M71 590l-28 30l149 177l62 -64z" />
    <glyph glyph-name="mu" unicode="&#xb5;" horiz-adv-x="609" 
d="M413 59q-67 -69 -149 -69q-30 0 -59 15t-47 39l-3 -2q29 -103 29 -205v-39h-94v619l-5 83h98v-294q0 -136 109 -136q56 0 117 33v314l-5 83h98v-417q0 -43 38 -43h31v-27q-31 -23 -76 -23q-71 0 -82 69z" />
    <glyph glyph-name="paragraph" unicode="&#xb6;" horiz-adv-x="695" 
d="M344 700h241v-951h-78v895h-88v-895h-78v431h-26q-131 0 -203 71.5t-72 187.5q0 118 80 189.5t224 71.5zM137 450q0 -95 51.5 -150.5t152.5 -55.5v399q-101 0 -152.5 -55.5t-51.5 -137.5z" />
    <glyph glyph-name="periodcentered" unicode="&#xb7;" horiz-adv-x="255" 
d="M127 218q-24 0 -41.5 17t-17.5 42q0 24 18.5 41.5t42.5 17.5t41 -17t17 -42q0 -24 -18 -41.5t-42 -17.5z" />
    <glyph glyph-name="cedilla" unicode="&#xb8;" horiz-adv-x="240" 
d="M125 -200q-68 0 -125 34l13 28q45 -15 92 -15q59 0 59 36q0 21 -30 30t-63 -3l-15 13l42 98l19 -2l9 -71q48 7 78 -11.5t30 -54.5q0 -34 -31 -58t-78 -24z" />
    <glyph glyph-name="guillemotright" unicode="&#xbb;" horiz-adv-x="513" 
d="M485 260v-29q-147 -135 -210 -215l-24 15q51 110 143 214q-98 114 -143 212l24 18q63 -80 210 -215zM275 260v-29l-72 -65l-55.5 -50t-38 -37t-38.5 -43l-24 15q38 82 137 194q-73 85 -127 202l24 18q77 -98 194 -205z" />
    <glyph glyph-name="onequarter" unicode="&#xbc;" horiz-adv-x="718" 
d="M541 -10v107h-157l-13 19l183 287l59 -8v-256h63l-4 -42h-59v-55l2 -52h-74zM123 0l-53 35l480 677l53 -33zM41 656l150 55h12v-387h-71v320l-85 -8zM518 274l-85 -136l107 1v136l4 49h-2q-6 -21 -24 -50z" />
    <glyph glyph-name="onehalf" unicode="&#xbd;" horiz-adv-x="728" 
d="M123 0l-53 35l480 677l53 -33zM591 273q0 71 -71 71q-20 0 -42 -5t-34 -9l-12 -5v23q4 5 12.5 11.5t38.5 18t63 11.5q52 0 85 -29t33 -80q0 -91 -169 -231l186 12l-5 -61h-264v32q179 153 179 241zM41 656l150 55h12v-387h-71v320l-85 -8z" />
    <glyph glyph-name="threequarters" unicode="&#xbe;" horiz-adv-x="758" 
d="M581 -10v107h-157l-13 19l183 287l59 -8v-256h63l-4 -42h-59v-55l2 -52h-74zM171 0l-53 35l480 677l53 -33zM107 513l3 28q45 0 69.5 18t24.5 49q0 59 -68 59q-24 0 -43 -3.5t-26 -7.5l-7 -3v25q34 32 107 32q48 0 78 -23t30 -64q0 -75 -83 -94q46 -6 72.5 -31t26.5 -67
q0 -47 -39.5 -79.5t-99.5 -32.5q-30 0 -56 9t-37 18l-11 9l5 21q37 -16 78 -16q42 0 64.5 20t22.5 55q0 78 -111 78zM558 274l-85 -136l107 1v136l4 49h-2q-6 -21 -24 -50z" />
    <glyph glyph-name="questiondown" unicode="&#xbf;" horiz-adv-x="400" 
d="M169 253l4 44q55 -1 86 -25.5t31 -69.5t-25.5 -86t-55.5 -66.5t-55.5 -58.5t-25.5 -64q0 -35 28 -54t79 -19q32 0 63.5 8t47.5 16l15 9v-45q-2 -3 -5.5 -7t-16 -14.5t-27 -19t-38.5 -15t-51 -6.5q-75 0 -120.5 38t-45.5 103q0 52 25.5 98.5t56 74t56 59.5t25.5 60
q0 38 -51 40zM218 509q26 0 42 -17.5t16 -45.5q0 -29 -17.5 -45.5t-46.5 -16.5q-27 0 -42 16t-15 44q0 30 17 47.5t46 17.5z" />
    <glyph glyph-name="Agrave" unicode="&#xc0;" horiz-adv-x="684" 
d="M183 203l-16 -48q-21 -59 -30 -111l84 -13v-31h-234v31l75 13l241 657l74 6l247 -663l63 -13v-31h-243v31l78 13l-57 159h-282zM322 623h-4q-11 -54 -27 -101l-91 -269h246l-97 266q-8 22 -15 48t-10 41zM380 781l-28 -30l-183 143l62 64z" />
    <glyph glyph-name="Aacute" unicode="&#xc1;" horiz-adv-x="684" 
d="M183 203l-16 -48q-21 -59 -30 -111l84 -13v-31h-234v31l75 13l241 657l74 6l247 -663l63 -13v-31h-243v31l78 13l-57 159h-282zM322 623h-4q-11 -54 -27 -101l-91 -269h246l-97 266q-8 22 -15 48t-10 41zM314 750l-28 30l149 177l62 -64z" />
    <glyph glyph-name="Acircumflex" unicode="&#xc2;" horiz-adv-x="684" 
d="M183 203l-16 -48q-21 -59 -30 -111l84 -13v-31h-234v31l75 13l241 657l74 6l247 -663l63 -13v-31h-243v31l78 13l-57 159h-282zM322 623h-4q-11 -54 -27 -101l-91 -269h246l-97 266q-8 22 -15 48t-10 41zM200 762l-17 27l143 122h29l141 -120l-20 -28l-136 74z" />
    <glyph glyph-name="Atilde" unicode="&#xc3;" horiz-adv-x="684" 
d="M183 203l-16 -48q-21 -59 -30 -111l84 -13v-31h-234v31l75 13l241 657l74 6l247 -663l63 -13v-31h-243v31l78 13l-57 159h-282zM322 623h-4q-11 -54 -27 -101l-91 -269h246l-97 266q-8 22 -15 48t-10 41zM404 784q-28 0 -73 27.5t-63 27.5q-38 0 -64 -52l-27 7
q8 47 34.5 79t72.5 32q30 0 73 -27.5t60 -27.5q37 0 66 51l27 -6q-20 -111 -106 -111z" />
    <glyph glyph-name="Adieresis" unicode="&#xc4;" horiz-adv-x="684" 
d="M183 203l-16 -48q-21 -59 -30 -111l84 -13v-31h-234v31l75 13l241 657l74 6l247 -663l63 -13v-31h-243v31l78 13l-57 159h-282zM322 623h-4q-11 -54 -27 -101l-91 -269h246l-97 266q-8 22 -15 48t-10 41zM241 781q-23 0 -38.5 17t-15.5 40q0 24 16 40t41 16
q26 0 40.5 -15t14.5 -39q0 -25 -16 -42t-42 -17zM440 781q-23 0 -38.5 17t-15.5 40q0 24 16 40t41 16q26 0 40.5 -15t14.5 -39q0 -25 -16 -42t-42 -17z" />
    <glyph glyph-name="Aring" unicode="&#xc5;" horiz-adv-x="684" 
d="M183 203l-16 -48q-21 -59 -30 -111l84 -13v-31h-234v31l75 13l241 657l74 6l247 -663l63 -13v-31h-243v31l78 13l-57 159h-282zM322 623h-4q-11 -54 -27 -101l-91 -269h246l-97 266q-8 22 -15 48t-10 41zM240 850q0 45 29.5 72t73.5 27t73.5 -27t29.5 -72t-29.5 -72
t-73.5 -27t-73.5 27t-29.5 72zM397 850q0 58 -54 58t-54 -58t54 -58t54 58z" />
    <glyph glyph-name="AE" unicode="&#xc6;" horiz-adv-x="918" 
d="M543 333v-283l264 4l27 119h37l-4 -173h-502v31l80 13v159h-239l-25 -48l-52 -111l84 -13v-31h-234v31l75 13l344 613l-70 12v31h529l-6 -170h-41l-13 114l-254 6v-267l234 6v-61zM397 549l-163 -296h211v395q-20 -47 -48 -99z" />
    <glyph glyph-name="Ccedilla" unicode="&#xc7;" horiz-adv-x="666" 
d="M402 -200q-68 0 -125 34l13 28q45 -15 92 -15q59 0 59 36q0 21 -30 30t-63 -3l-15 13l28 67q-145 17 -226 108t-81 240q0 103 39.5 187.5t120 136.5t190.5 52q58 0 109 -10t73 -20l22 -10l-8 -170h-39l-15 134q-60 24 -135 24q-122 0 -188.5 -82t-66.5 -221
q0 -140 75 -230.5t208 -90.5q49 0 107 15l21 150h38v-178q-78 -39 -177 -39q-5 0 -15 0.5t-15 0.5l5 -39q48 7 78 -11.5t30 -54.5q0 -34 -31 -58t-78 -24z" />
    <glyph glyph-name="Egrave" unicode="&#xc8;" horiz-adv-x="600" 
d="M225 333v-283l264 4l27 119h37l-4 -173h-502v31l80 13v612l-80 13v31h492l-6 -170h-41l-13 114l-254 6v-267l234 6v-61zM402 780l-28 -30l-183 143l62 64z" />
    <glyph glyph-name="Eacute" unicode="&#xc9;" horiz-adv-x="600" 
d="M225 333v-283l264 4l27 119h37l-4 -173h-502v31l80 13v612l-80 13v31h492l-6 -170h-41l-13 114l-254 6v-267l234 6v-61zM282 750l-28 30l149 177l62 -64z" />
    <glyph glyph-name="Ecircumflex" unicode="&#xca;" horiz-adv-x="600" 
d="M225 333v-283l264 4l27 119h37l-4 -173h-502v31l80 13v612l-80 13v31h492l-6 -170h-41l-13 114l-254 6v-267l234 6v-61zM188 762l-17 27l143 122h29l141 -120l-20 -28l-136 74z" />
    <glyph glyph-name="Edieresis" unicode="&#xcb;" horiz-adv-x="600" 
d="M225 333v-283l264 4l27 119h37l-4 -173h-502v31l80 13v612l-80 13v31h492l-6 -170h-41l-13 114l-254 6v-267l234 6v-61zM221 785q-23 0 -38.5 17t-15.5 40q0 24 16 40t41 16q26 0 40.5 -15t14.5 -39q0 -25 -16 -42t-42 -17zM420 785q-23 0 -38.5 17t-15.5 40q0 24 16 40
t41 16q26 0 40.5 -15t14.5 -39q0 -25 -16 -42t-42 -17z" />
    <glyph glyph-name="Igrave" unicode="&#xcc;" horiz-adv-x="352" 
d="M225 656v-612l80 -13v-31h-258v31l80 13v612l-80 13v31h258v-31zM259 780l-28 -30l-183 143l62 64z" />
    <glyph glyph-name="Iacute" unicode="&#xcd;" horiz-adv-x="352" 
d="M225 656v-612l80 -13v-31h-258v31l80 13v612l-80 13v31h258v-31zM134 751l-28 30l149 177l62 -64z" />
    <glyph glyph-name="Icircumflex" unicode="&#xce;" horiz-adv-x="352" 
d="M225 656v-612l80 -13v-31h-258v31l80 13v612l-80 13v31h258v-31zM35 762l-17 27l143 122h29l141 -120l-20 -28l-136 74z" />
    <glyph glyph-name="Idieresis" unicode="&#xcf;" horiz-adv-x="352" 
d="M225 656v-612l80 -13v-31h-258v31l80 13v612l-80 13v31h258v-31zM76 783q-23 0 -38.5 17t-15.5 40q0 24 16 40t41 16q26 0 40.5 -15t14.5 -39q0 -25 -16 -42t-42 -17zM275 783q-23 0 -38.5 17t-15.5 40q0 24 16 40t41 16q26 0 40.5 -15t14.5 -39q0 -25 -16 -42t-42 -17z
" />
    <glyph glyph-name="Eth" unicode="&#xd0;" horiz-adv-x="747" 
d="M22 331v54h112v271l-80 13v31h287q165 0 260 -94.5t95 -242.5q0 -175 -104.5 -269t-267.5 -94h-270v31l80 13v287h-112zM304 650h-72v-265h124v-54h-124v-281h100q125 0 193 80t68 214q0 135 -73.5 220.5t-215.5 85.5z" />
    <glyph glyph-name="Ntilde" unicode="&#xd1;" horiz-adv-x="766" 
d="M587 234v417l-80 18v31h218v-31l-80 -18v-651l-54 -4l-358 488l-52 79l-3 -1q5 -44 5 -90v-425l80 -16v-31h-218v31l80 16v563l-46 53v37l110 4l349 -480q11 -15 23.5 -34.5t18.5 -31.5l7 -12l4 1q-4 46 -4 87zM452 760q-28 0 -73 27.5t-63 27.5q-38 0 -64 -52l-27 7
q8 47 34.5 79t72.5 32q30 0 73 -27.5t60 -27.5q37 0 66 51l27 -6q-20 -111 -106 -111z" />
    <glyph glyph-name="Ograve" unicode="&#xd2;" horiz-adv-x="769" 
d="M399 33q103 0 159 83.5t56 212.5q0 86 -27.5 161.5t-85 126t-133.5 50.5q-102 0 -157.5 -85t-55.5 -218q0 -82 27.5 -156t84.5 -124.5t132 -50.5zM373 -14q-142 0 -231 101.5t-89 259.5q0 69 20.5 133t60.5 117t108 85t154 32q142 0 231 -101.5t89 -259.5
q0 -69 -20.5 -133t-60.5 -117t-108 -85t-154 -32zM455 780l-28 -30l-183 143l62 64z" />
    <glyph glyph-name="Oacute" unicode="&#xd3;" horiz-adv-x="769" 
d="M399 33q103 0 159 83.5t56 212.5q0 86 -27.5 161.5t-85 126t-133.5 50.5q-102 0 -157.5 -85t-55.5 -218q0 -82 27.5 -156t84.5 -124.5t132 -50.5zM373 -14q-142 0 -231 101.5t-89 259.5q0 69 20.5 133t60.5 117t108 85t154 32q142 0 231 -101.5t89 -259.5
q0 -69 -20.5 -133t-60.5 -117t-108 -85t-154 -32zM364 750l-28 30l149 177l62 -64z" />
    <glyph glyph-name="Ocircumflex" unicode="&#xd4;" horiz-adv-x="769" 
d="M399 33q103 0 159 83.5t56 212.5q0 86 -27.5 161.5t-85 126t-133.5 50.5q-102 0 -157.5 -85t-55.5 -218q0 -82 27.5 -156t84.5 -124.5t132 -50.5zM373 -14q-142 0 -231 101.5t-89 259.5q0 69 20.5 133t60.5 117t108 85t154 32q142 0 231 -101.5t89 -259.5
q0 -69 -20.5 -133t-60.5 -117t-108 -85t-154 -32zM243 751l-17 27l143 122h29l141 -120l-20 -28l-136 74z" />
    <glyph glyph-name="Otilde" unicode="&#xd5;" horiz-adv-x="769" 
d="M399 33q103 0 159 83.5t56 212.5q0 86 -27.5 161.5t-85 126t-133.5 50.5q-102 0 -157.5 -85t-55.5 -218q0 -82 27.5 -156t84.5 -124.5t132 -50.5zM373 -14q-142 0 -231 101.5t-89 259.5q0 69 20.5 133t60.5 117t108 85t154 32q142 0 231 -101.5t89 -259.5
q0 -69 -20.5 -133t-60.5 -117t-108 -85t-154 -32zM435 789q-28 0 -73 27.5t-63 27.5q-38 0 -64 -52l-27 7q8 47 34.5 79t72.5 32q30 0 73 -27.5t60 -27.5q37 0 66 51l27 -6q-20 -111 -106 -111z" />
    <glyph glyph-name="Odieresis" unicode="&#xd6;" horiz-adv-x="769" 
d="M399 33q103 0 159 83.5t56 212.5q0 86 -27.5 161.5t-85 126t-133.5 50.5q-102 0 -157.5 -85t-55.5 -218q0 -82 27.5 -156t84.5 -124.5t132 -50.5zM373 -14q-142 0 -231 101.5t-89 259.5q0 69 20.5 133t60.5 117t108 85t154 32q142 0 231 -101.5t89 -259.5
q0 -69 -20.5 -133t-60.5 -117t-108 -85t-154 -32zM289 781q-23 0 -38.5 17t-15.5 40q0 24 16 40t41 16q26 0 40.5 -15t14.5 -39q0 -25 -16 -42t-42 -17zM488 781q-23 0 -38.5 17t-15.5 40q0 24 16 40t41 16q26 0 40.5 -15t14.5 -39q0 -25 -16 -42t-42 -17z" />
    <glyph glyph-name="multiply" unicode="&#xd7;" 
d="M107 88l-47 48l142 150l-142 149l49 50l141 -149l141 149l49 -50l-143 -149l143 -150l-47 -48l-143 149z" />
    <glyph glyph-name="Oslash" unicode="&#xd8;" horiz-adv-x="769" 
d="M153 -64l-50 32l65 93q-115 101 -115 286q0 69 20.5 133t60.5 117t108 85t154 32q105 0 186 -60l56 80l50 -33l-62 -88q90 -101 90 -260q0 -69 -20.5 -133t-60.5 -117t-108 -85t-154 -32q-88 0 -157 40zM155 364q0 -133 65 -228l313 448q-68 83 -165 83
q-102 0 -157.5 -85t-55.5 -218zM399 33q103 0 159 83.5t56 212.5q0 110 -46 200l-308 -440q59 -56 139 -56z" />
    <glyph glyph-name="Ugrave" unicode="&#xd9;" horiz-adv-x="742" 
d="M634 655v-371q0 -56 -12.5 -105.5t-40.5 -94.5t-81 -71.5t-126 -26.5q-127 0 -196 73.5t-69 203.5v393l-80 13v31h258v-31l-80 -14v-404q0 -97 45 -154.5t126 -57.5q90 0 136.5 59.5t46.5 162.5v394l-80 14v31h233v-31zM434 781l-28 -30l-183 143l62 64z" />
    <glyph glyph-name="Uacute" unicode="&#xda;" horiz-adv-x="742" 
d="M634 655v-371q0 -56 -12.5 -105.5t-40.5 -94.5t-81 -71.5t-126 -26.5q-127 0 -196 73.5t-69 203.5v393l-80 13v31h258v-31l-80 -14v-404q0 -97 45 -154.5t126 -57.5q90 0 136.5 59.5t46.5 162.5v394l-80 14v31h233v-31zM368 750l-28 30l149 177l62 -64z" />
    <glyph glyph-name="Ucircumflex" unicode="&#xdb;" horiz-adv-x="742" 
d="M634 655v-371q0 -56 -12.5 -105.5t-40.5 -94.5t-81 -71.5t-126 -26.5q-127 0 -196 73.5t-69 203.5v393l-80 13v31h258v-31l-80 -14v-404q0 -97 45 -154.5t126 -57.5q90 0 136.5 59.5t46.5 162.5v394l-80 14v31h233v-31zM246 751l-17 27l143 122h29l141 -120l-20 -28
l-136 74z" />
    <glyph glyph-name="Udieresis" unicode="&#xdc;" horiz-adv-x="742" 
d="M634 655v-371q0 -56 -12.5 -105.5t-40.5 -94.5t-81 -71.5t-126 -26.5q-127 0 -196 73.5t-69 203.5v393l-80 13v31h258v-31l-80 -14v-404q0 -97 45 -154.5t126 -57.5q90 0 136.5 59.5t46.5 162.5v394l-80 14v31h233v-31zM278 782q-23 0 -38.5 17t-15.5 40q0 24 16 40
t41 16q26 0 40.5 -15t14.5 -39q0 -25 -16 -42t-42 -17zM477 782q-23 0 -38.5 17t-15.5 40q0 24 16 40t41 16q26 0 40.5 -15t14.5 -39q0 -25 -16 -42t-42 -17z" />
    <glyph glyph-name="Yacute" unicode="&#xdd;" horiz-adv-x="632" 
d="M369 299v-255l80 -13v-31h-258v31l80 13v255l-230 357l-58 13v31h239v-31l-77 -13l143 -234l43 -83h4q17 38 45 89l93 159q23 42 23 65l-68 17v31h205v-31l-59 -15zM325 750l-28 30l149 177l62 -64z" />
    <glyph glyph-name="Thorn" unicode="&#xde;" horiz-adv-x="616" 
d="M324 700v-21l-100 -21v-68h92q125 0 194 -55.5t69 -159.5q0 -103 -69.5 -160.5t-183.5 -57.5h-102v-115l100 -21v-21h-278v21l80 21v616l-80 21v21h278zM224 207h102q74 0 113.5 48t39.5 117q0 74 -43 121t-134 47h-78v-333z" />
    <glyph glyph-name="germandbls" unicode="&#xdf;" horiz-adv-x="658" 
d="M476 -10q-35 0 -88.5 9.5t-73.5 11.5l8 72q21 -2 72.5 -13t78.5 -11q70 0 70 70q0 25 -23 43.5t-55.5 31.5t-65 29t-55.5 46.5t-23 73.5q0 40 21 73.5t45.5 53.5t45.5 52t21 70q0 45 -32.5 74.5t-85.5 29.5q-71 0 -100 -34.5t-29 -100.5v-571h-159v31l66 11v408h-66v50
h67v47q0 101 57.5 157t162.5 56q88 0 152.5 -46t64.5 -115q0 -45 -23 -78t-50 -49.5t-50 -44.5t-23 -64q0 -24 23 -42.5t55.5 -33.5t65 -32.5t55.5 -47.5t23 -71q0 -67 -42 -106.5t-110 -39.5z" />
    <glyph glyph-name="agrave" unicode="&#xe0;" horiz-adv-x="519" 
d="M329 59q-69 -64 -159 -64q-60 0 -94 34.5t-34 86.5q0 125 150 152q53 9 136 9v54q0 60 -21.5 87.5t-85.5 27.5q-31 0 -68 -6t-59 -12l-22 -5v34q9 6 24.5 15t63.5 23.5t94 14.5q87 0 126 -47t39 -140v-240q0 -43 37 -43h31v-27q-31 -23 -76 -23q-71 0 -82 69zM214 57
q51 0 115 38q-3 28 -3 71v71q-53 1 -111 -14q-82 -21 -82 -93q0 -33 21 -53t60 -20zM339 620l-28 -30l-183 143l62 64z" />
    <glyph glyph-name="aacute" unicode="&#xe1;" horiz-adv-x="519" 
d="M329 59q-69 -64 -159 -64q-60 0 -94 34.5t-34 86.5q0 125 150 152q53 9 136 9v54q0 60 -21.5 87.5t-85.5 27.5q-31 0 -68 -6t-59 -12l-22 -5v34q9 6 24.5 15t63.5 23.5t94 14.5q87 0 126 -47t39 -140v-240q0 -43 37 -43h31v-27q-31 -23 -76 -23q-71 0 -82 69zM214 57
q51 0 115 38q-3 28 -3 71v71q-53 1 -111 -14q-82 -21 -82 -93q0 -33 21 -53t60 -20zM206 590l-28 30l149 177l62 -64z" />
    <glyph glyph-name="acircumflex" unicode="&#xe2;" horiz-adv-x="519" 
d="M329 59q-69 -64 -159 -64q-60 0 -94 34.5t-34 86.5q0 125 150 152q53 9 136 9v54q0 60 -21.5 87.5t-85.5 27.5q-31 0 -68 -6t-59 -12l-22 -5v34q9 6 24.5 15t63.5 23.5t94 14.5q87 0 126 -47t39 -140v-240q0 -43 37 -43h31v-27q-31 -23 -76 -23q-71 0 -82 69zM214 57
q51 0 115 38q-3 28 -3 71v71q-53 1 -111 -14q-82 -21 -82 -93q0 -33 21 -53t60 -20zM104 590l-17 27l143 122h29l141 -120l-20 -28l-136 74z" />
    <glyph glyph-name="atilde" unicode="&#xe3;" horiz-adv-x="519" 
d="M329 59q-69 -64 -159 -64q-60 0 -94 34.5t-34 86.5q0 125 150 152q53 9 136 9v54q0 60 -21.5 87.5t-85.5 27.5q-31 0 -68 -6t-59 -12l-22 -5v34q9 6 24.5 15t63.5 23.5t94 14.5q87 0 126 -47t39 -140v-240q0 -43 37 -43h31v-27q-31 -23 -76 -23q-71 0 -82 69zM214 57
q51 0 115 38q-3 28 -3 71v71q-53 1 -111 -14q-82 -21 -82 -93q0 -33 21 -53t60 -20zM316 590q-28 0 -73 27.5t-63 27.5q-38 0 -64 -52l-27 7q8 47 34.5 79t72.5 32q30 0 73 -27.5t60 -27.5q37 0 66 51l27 -6q-20 -111 -106 -111z" />
    <glyph glyph-name="adieresis" unicode="&#xe4;" horiz-adv-x="519" 
d="M329 59q-69 -64 -159 -64q-60 0 -94 34.5t-34 86.5q0 125 150 152q53 9 136 9v54q0 60 -21.5 87.5t-85.5 27.5q-31 0 -68 -6t-59 -12l-22 -5v34q9 6 24.5 15t63.5 23.5t94 14.5q87 0 126 -47t39 -140v-240q0 -43 37 -43h31v-27q-31 -23 -76 -23q-71 0 -82 69zM214 57
q51 0 115 38q-3 28 -3 71v71q-53 1 -111 -14q-82 -21 -82 -93q0 -33 21 -53t60 -20zM149 590q-23 0 -38.5 17t-15.5 40q0 24 16 40t41 16q26 0 40.5 -15t14.5 -39q0 -25 -16 -42t-42 -17zM348 590q-23 0 -38.5 17t-15.5 40q0 24 16 40t41 16q26 0 40.5 -15t14.5 -39
q0 -25 -16 -42t-42 -17z" />
    <glyph glyph-name="aring" unicode="&#xe5;" horiz-adv-x="519" 
d="M329 59q-69 -64 -159 -64q-60 0 -94 34.5t-34 86.5q0 125 150 152q53 9 136 9v54q0 60 -21.5 87.5t-85.5 27.5q-31 0 -68 -6t-59 -12l-22 -5v34q9 6 24.5 15t63.5 23.5t94 14.5q87 0 126 -47t39 -140v-240q0 -43 37 -43h31v-27q-31 -23 -76 -23q-71 0 -82 69zM214 57
q51 0 115 38q-3 28 -3 71v71q-53 1 -111 -14q-82 -21 -82 -93q0 -33 21 -53t60 -20zM150 689q0 45 29.5 72t73.5 27t73.5 -27t29.5 -72t-29.5 -72t-73.5 -27t-73.5 27t-29.5 72zM307 689q0 58 -54 58t-54 -58t54 -58t54 58z" />
    <glyph glyph-name="ae" unicode="&#xe6;" horiz-adv-x="797" 
d="M748 257h-327q2 -91 50.5 -148t128.5 -57q30 0 62 6t49 12l17 6v-34q-7 -6 -20.5 -14.5t-57.5 -23t-90 -14.5q-139 0 -200 111q-70 -106 -190 -106q-60 0 -94 34.5t-34 86.5q0 125 150 152q53 9 135 9v1q1 8 1 53q0 60 -21.5 87.5t-85.5 27.5q-31 0 -68 -6t-59 -12
l-22 -5v34q9 6 24.5 15t63.5 23.5t94 14.5q103 0 136 -78q66 78 167 78q104 0 153 -65.5t38 -187.5zM553 459q-54 0 -88.5 -41.5t-41.5 -113.5l234 6q-1 69 -23 109t-81 40zM326 237q-53 1 -111 -14q-82 -21 -82 -93q0 -33 21 -53t60 -20q44 0 78.5 28t46.5 65
q-13 44 -13 87z" />
    <glyph glyph-name="ccedilla" unicode="&#xe7;" horiz-adv-x="476" 
d="M268 -200q-68 0 -125 34l13 28q45 -15 92 -15q59 0 59 36q0 21 -30 30t-63 -3l-15 13l30 71q-86 14 -132.5 80.5t-46.5 166.5q0 117 69.5 193t180.5 76q36 0 79.5 -10t58.5 -12l-20 -81q-27 4 -73 27.5t-74 23.5q-59 0 -92.5 -59t-33.5 -132q0 -96 42.5 -155.5
t119.5 -59.5q32 0 63.5 6t46.5 12l15 6v-34q-7 -6 -19 -14.5t-53.5 -23t-85.5 -14.5h-11l6 -42q48 7 78 -11.5t30 -54.5q0 -34 -31 -58t-78 -24z" />
    <glyph glyph-name="egrave" unicode="&#xe8;" horiz-adv-x="521" 
d="M472 257h-327q2 -91 50.5 -148t128.5 -57q30 0 62 6t49 12l17 6v-34q-7 -6 -20.5 -14.5t-57.5 -23t-90 -14.5q-107 0 -170.5 70t-63.5 181q0 121 67 195t164 74q104 0 153 -65.5t38 -187.5zM277 459q-54 0 -88.5 -41.5t-41.5 -113.5l234 6q-1 69 -23 109t-81 40zM345 620
l-28 -30l-183 143l62 64z" />
    <glyph glyph-name="eacute" unicode="&#xe9;" horiz-adv-x="521" 
d="M472 257h-327q2 -91 50.5 -148t128.5 -57q30 0 62 6t49 12l17 6v-34q-7 -6 -20.5 -14.5t-57.5 -23t-90 -14.5q-107 0 -170.5 70t-63.5 181q0 121 67 195t164 74q104 0 153 -65.5t38 -187.5zM277 459q-54 0 -88.5 -41.5t-41.5 -113.5l234 6q-1 69 -23 109t-81 40zM243 589
l-28 30l149 177l62 -64z" />
    <glyph glyph-name="ecircumflex" unicode="&#xea;" horiz-adv-x="521" 
d="M472 257h-327q2 -91 50.5 -148t128.5 -57q30 0 62 6t49 12l17 6v-34q-7 -6 -20.5 -14.5t-57.5 -23t-90 -14.5q-107 0 -170.5 70t-63.5 181q0 121 67 195t164 74q104 0 153 -65.5t38 -187.5zM277 459q-54 0 -88.5 -41.5t-41.5 -113.5l234 6q-1 69 -23 109t-81 40zM139 590
l-17 27l143 122h29l141 -120l-20 -28l-136 74z" />
    <glyph glyph-name="edieresis" unicode="&#xeb;" horiz-adv-x="521" 
d="M472 257h-327q2 -91 50.5 -148t128.5 -57q30 0 62 6t49 12l17 6v-34q-7 -6 -20.5 -14.5t-57.5 -23t-90 -14.5q-107 0 -170.5 70t-63.5 181q0 121 67 195t164 74q104 0 153 -65.5t38 -187.5zM277 459q-54 0 -88.5 -41.5t-41.5 -113.5l234 6q-1 69 -23 109t-81 40zM175 590
q-23 0 -38.5 17t-15.5 40q0 24 16 40t41 16q26 0 40.5 -15t14.5 -39q0 -25 -16 -42t-42 -17zM374 590q-23 0 -38.5 17t-15.5 40q0 24 16 40t41 16q26 0 40.5 -15t14.5 -39q0 -25 -16 -42t-42 -17z" />
    <glyph glyph-name="igrave" unicode="&#xec;" horiz-adv-x="320" 
d="M191 505l20 -5v-457l80 -12v-31h-253v31l80 12v409l-81 8v31zM234 619l-28 -30l-183 143l62 64z" />
    <glyph glyph-name="iacute" unicode="&#xed;" horiz-adv-x="320" 
d="M191 505l20 -5v-457l80 -12v-31h-253v31l80 12v409l-81 8v31zM92 590l-28 30l149 177l62 -64z" />
    <glyph glyph-name="icircumflex" unicode="&#xee;" horiz-adv-x="320" 
d="M191 505l20 -5v-457l80 -12v-31h-253v31l80 12v409l-81 8v31zM10 589l-17 27l143 122h29l141 -120l-20 -28l-136 74z" />
    <glyph glyph-name="idieresis" unicode="&#xef;" horiz-adv-x="320" 
d="M191 505l20 -5v-457l80 -12v-31h-253v31l80 12v409l-81 8v31zM49 589q-23 0 -38.5 17t-15.5 40q0 24 16 40t41 16q26 0 40.5 -15t14.5 -39q0 -25 -16 -42t-42 -17zM248 589q-23 0 -38.5 17t-15.5 40q0 24 16 40t41 16q26 0 40.5 -15t14.5 -39q0 -25 -16 -42t-42 -17z" />
    <glyph glyph-name="eth" unicode="&#xf0;" horiz-adv-x="589" 
d="M151 557l-29 40l125 82q-67 32 -151 42l8 37q117 -16 191 -47l144 95l27 -41l-120 -79q177 -104 177 -379q0 -133 -64 -225t-180 -92q-107 0 -167.5 68.5t-60.5 171.5q0 100 59 165.5t161 65.5q98 0 147 -45q-22 160 -124 235zM424 315q0 19 -2 55q-62 37 -118 37
q-77 0 -116.5 -49.5t-39.5 -129.5q0 -85 36 -137t105 -52q37 0 64.5 23t42.5 63t21.5 87t6.5 103z" />
    <glyph glyph-name="ntilde" unicode="&#xf1;" horiz-adv-x="632" 
d="M530 331v-289l80 -11v-31h-243v31l70 11v266q0 128 -103 128q-32 0 -64 -8.5t-48 -17.5l-15 -8q4 -41 4 -95v-265l70 -11v-31h-243v31l80 11v409l-81 8v31l154 15l20 -5l-4 -59q89 69 162 69q77 0 119 -49t42 -130zM373 590q-28 0 -73 27.5t-63 27.5q-38 0 -64 -52l-27 7
q8 47 34.5 79t72.5 32q30 0 73 -27.5t60 -27.5q37 0 66 51l27 -6q-20 -111 -106 -111z" />
    <glyph glyph-name="ograve" unicode="&#xf2;" horiz-adv-x="574" 
d="M286 39q143 0 143 210q0 97 -37.5 154.5t-103.5 57.5q-143 0 -143 -210q0 -97 37.5 -154.5t103.5 -57.5zM274 -10q-104 0 -164 68.5t-60 180.5q0 120 65 195.5t185 75.5q104 0 164 -68.5t60 -180.5q0 -120 -65 -195.5t-185 -75.5zM366 620l-28 -30l-183 143l62 64z" />
    <glyph glyph-name="oacute" unicode="&#xf3;" horiz-adv-x="574" 
d="M286 39q143 0 143 210q0 97 -37.5 154.5t-103.5 57.5q-143 0 -143 -210q0 -97 37.5 -154.5t103.5 -57.5zM274 -10q-104 0 -164 68.5t-60 180.5q0 120 65 195.5t185 75.5q104 0 164 -68.5t60 -180.5q0 -120 -65 -195.5t-185 -75.5zM247 590l-28 30l149 177l62 -64z" />
    <glyph glyph-name="ocircumflex" unicode="&#xf4;" horiz-adv-x="574" 
d="M286 39q143 0 143 210q0 97 -37.5 154.5t-103.5 57.5q-143 0 -143 -210q0 -97 37.5 -154.5t103.5 -57.5zM274 -10q-104 0 -164 68.5t-60 180.5q0 120 65 195.5t185 75.5q104 0 164 -68.5t60 -180.5q0 -120 -65 -195.5t-185 -75.5zM155 589l-17 27l143 122h29l141 -120
l-20 -28l-136 74z" />
    <glyph glyph-name="otilde" unicode="&#xf5;" horiz-adv-x="574" 
d="M286 39q143 0 143 210q0 97 -37.5 154.5t-103.5 57.5q-143 0 -143 -210q0 -97 37.5 -154.5t103.5 -57.5zM274 -10q-104 0 -164 68.5t-60 180.5q0 120 65 195.5t185 75.5q104 0 164 -68.5t60 -180.5q0 -120 -65 -195.5t-185 -75.5zM356 590q-28 0 -73 27.5t-63 27.5
q-38 0 -64 -52l-27 7q8 47 34.5 79t72.5 32q30 0 73 -27.5t60 -27.5q37 0 66 51l27 -6q-20 -111 -106 -111z" />
    <glyph glyph-name="odieresis" unicode="&#xf6;" horiz-adv-x="574" 
d="M286 39q143 0 143 210q0 97 -37.5 154.5t-103.5 57.5q-143 0 -143 -210q0 -97 37.5 -154.5t103.5 -57.5zM274 -10q-104 0 -164 68.5t-60 180.5q0 120 65 195.5t185 75.5q104 0 164 -68.5t60 -180.5q0 -120 -65 -195.5t-185 -75.5zM183 590q-23 0 -38.5 17t-15.5 40
q0 24 16 40t41 16q26 0 40.5 -15t14.5 -39q0 -25 -16 -42t-42 -17zM382 590q-23 0 -38.5 17t-15.5 40q0 24 16 40t41 16q26 0 40.5 -15t14.5 -39q0 -25 -16 -42t-42 -17z" />
    <glyph glyph-name="divide" unicode="&#xf7;" horiz-adv-x="544" 
d="M61 253v64h421v-64h-421zM265 402q-26 0 -42 17.5t-16 45.5q0 29 17.5 45.5t46.5 16.5q27 0 42 -16t15 -44q0 -30 -17 -47.5t-46 -17.5zM265 48q-26 0 -42 17.5t-16 45.5q0 29 17.5 45.5t46.5 16.5q27 0 42 -16t15 -44q0 -30 -17 -47.5t-46 -17.5z" />
    <glyph glyph-name="oslash" unicode="&#xf8;" horiz-adv-x="574" 
d="M100 -60l-50 32l61 85q-61 69 -61 182q0 120 65 195.5t185 75.5q66 0 118 -30l56 77l50 -33l-60 -83q60 -68 60 -180q0 -120 -65 -195.5t-185 -75.5q-67 0 -117 29zM145 251q0 -70 20 -121l211 292q-36 39 -88 39q-143 0 -143 -210zM286 39q143 0 143 210q0 66 -19 118
l-211 -291q35 -37 87 -37z" />
    <glyph glyph-name="ugrave" unicode="&#xf9;" horiz-adv-x="620" 
d="M514 441v-358q0 -43 37 -43h31v-27q-31 -23 -76 -23q-71 0 -82 69q-84 -69 -167 -69q-71 0 -113 49.5t-42 129.5v282l-81 8v31l158 15l20 -5l-4 -29v-291q0 -50 24.5 -83t78.5 -33q59 0 127 34q-4 52 -4 101v252l-81 8v31l158 15l20 -5zM357 620l-28 -30l-183 143l62 64z
" />
    <glyph glyph-name="uacute" unicode="&#xfa;" horiz-adv-x="620" 
d="M514 441v-358q0 -43 37 -43h31v-27q-31 -23 -76 -23q-71 0 -82 69q-84 -69 -167 -69q-71 0 -113 49.5t-42 129.5v282l-81 8v31l158 15l20 -5l-4 -29v-291q0 -50 24.5 -83t78.5 -33q59 0 127 34q-4 52 -4 101v252l-81 8v31l158 15l20 -5zM275 589l-28 30l149 177l62 -64z
" />
    <glyph glyph-name="ucircumflex" unicode="&#xfb;" horiz-adv-x="620" 
d="M514 441v-358q0 -43 37 -43h31v-27q-31 -23 -76 -23q-71 0 -82 69q-84 -69 -167 -69q-71 0 -113 49.5t-42 129.5v282l-81 8v31l158 15l20 -5l-4 -29v-291q0 -50 24.5 -83t78.5 -33q59 0 127 34q-4 52 -4 101v252l-81 8v31l158 15l20 -5zM167 589l-17 27l143 122h29
l141 -120l-20 -28l-136 74z" />
    <glyph glyph-name="udieresis" unicode="&#xfc;" horiz-adv-x="620" 
d="M514 441v-358q0 -43 37 -43h31v-27q-31 -23 -76 -23q-71 0 -82 69q-84 -69 -167 -69q-71 0 -113 49.5t-42 129.5v282l-81 8v31l158 15l20 -5l-4 -29v-291q0 -50 24.5 -83t78.5 -33q59 0 127 34q-4 52 -4 101v252l-81 8v31l158 15l20 -5zM205 590q-23 0 -38.5 17t-15.5 40
q0 24 16 40t41 16q26 0 40.5 -15t14.5 -39q0 -25 -16 -42t-42 -17zM404 590q-23 0 -38.5 17t-15.5 40q0 24 16 40t41 16q26 0 40.5 -15t14.5 -39q0 -25 -16 -42t-42 -17z" />
    <glyph glyph-name="yacute" unicode="&#xfd;" horiz-adv-x="574" 
d="M164 -250q32 119 98 232l-193 474l-65 13v31h233v-31l-65 -13l97 -263l36 -116h4q14 53 34 113l90 266l-75 13v31h212v-31l-69 -13l-172 -457q-24 -63 -41.5 -126.5t-23.5 -95.5l-6 -32zM275 590l-28 30l149 177l62 -64z" />
    <glyph glyph-name="thorn" unicode="&#xfe;" horiz-adv-x="588" 
d="M10 -251v32l80 11v913l-81 10v34l154 5l20 -5l-2 -307q72 68 154 68q100 0 151 -68.5t51 -171.5q0 -125 -65 -202.5t-167 -77.5q-73 0 -122 33v-231l80 -11v-32h-253zM295 45q76 0 110.5 57.5t34.5 145.5q0 192 -135 192q-65 0 -124 -39q0 -2 0.5 -16t1 -36t0.5 -44v-220
q47 -40 112 -40z" />
    <glyph glyph-name="ydieresis" unicode="&#xff;" horiz-adv-x="574" 
d="M164 -250q32 119 98 232l-193 474l-65 13v31h233v-31l-65 -13l97 -263l36 -116h4q14 53 34 113l90 266l-75 13v31h212v-31l-69 -13l-172 -457q-24 -63 -41.5 -126.5t-23.5 -95.5l-6 -32zM195 590q-23 0 -38.5 17t-15.5 40q0 24 16 40t41 16q26 0 40.5 -15t14.5 -39
q0 -25 -16 -42t-42 -17zM394 590q-23 0 -38.5 17t-15.5 40q0 24 16 40t41 16q26 0 40.5 -15t14.5 -39q0 -25 -16 -42t-42 -17z" />
    <glyph glyph-name="Amacron" unicode="&#x100;" horiz-adv-x="684" 
d="M183 203l-16 -48q-21 -59 -30 -111l84 -13v-31h-234v31l75 13l241 657l74 6l247 -663l63 -13v-31h-243v31l78 13l-57 159h-282zM322 623h-4q-11 -54 -27 -101l-91 -269h246l-97 266q-8 22 -15 48t-10 41zM220 801v59h234v-59h-234z" />
    <glyph glyph-name="amacron" unicode="&#x101;" horiz-adv-x="519" 
d="M329 59q-69 -64 -159 -64q-60 0 -94 34.5t-34 86.5q0 125 150 152q53 9 136 9v54q0 60 -21.5 87.5t-85.5 27.5q-31 0 -68 -6t-59 -12l-22 -5v34q9 6 24.5 15t63.5 23.5t94 14.5q87 0 126 -47t39 -140v-240q0 -43 37 -43h31v-27q-31 -23 -76 -23q-71 0 -82 69zM214 57
q51 0 115 38q-3 28 -3 71v71q-53 1 -111 -14q-82 -21 -82 -93q0 -33 21 -53t60 -20zM138 615v59h234v-59h-234z" />
    <glyph glyph-name="Abreve" unicode="&#x102;" horiz-adv-x="684" 
d="M183 203l-16 -48q-21 -59 -30 -111l84 -13v-31h-234v31l75 13l241 657l74 6l247 -663l63 -13v-31h-243v31l78 13l-57 159h-282zM322 623h-4q-11 -54 -27 -101l-91 -269h246l-97 266q-8 22 -15 48t-10 41zM337 783q-57 0 -95.5 37.5t-43.5 108.5l24 6q14 -39 44.5 -61
t70.5 -22q38 0 69.5 22.5t45.5 60.5l24 -6q-6 -68 -42 -107t-97 -39z" />
    <glyph glyph-name="abreve" unicode="&#x103;" horiz-adv-x="519" 
d="M329 59q-69 -64 -159 -64q-60 0 -94 34.5t-34 86.5q0 125 150 152q53 9 136 9v54q0 60 -21.5 87.5t-85.5 27.5q-31 0 -68 -6t-59 -12l-22 -5v34q9 6 24.5 15t63.5 23.5t94 14.5q87 0 126 -47t39 -140v-240q0 -43 37 -43h31v-27q-31 -23 -76 -23q-71 0 -82 69zM214 57
q51 0 115 38q-3 28 -3 71v71q-53 1 -111 -14q-82 -21 -82 -93q0 -33 21 -53t60 -20zM247 590q-57 0 -95.5 37.5t-43.5 108.5l24 6q14 -39 44.5 -61t70.5 -22q38 0 69.5 22.5t45.5 60.5l24 -6q-6 -68 -42 -107t-97 -39z" />
    <glyph glyph-name="Aogonek" unicode="&#x104;" horiz-adv-x="684" 
d="M588 -194q-41 0 -72.5 19.5t-31.5 60.5q0 79 104 114h-144v31l78 13l-57 159h-282l-16 -48q-21 -59 -30 -111l84 -13v-31h-234v31l75 13l241 657l74 6l247 -663l63 -13v-31h-56q-84 -32 -84 -93q0 -27 19 -42t48 -15q16 0 34 4t28 8l9 4v-28q-37 -32 -97 -32zM322 623h-4
q-11 -54 -27 -101l-91 -269h246l-97 266q-8 22 -15 48t-10 41z" />
    <glyph glyph-name="aogonek" unicode="&#x105;" horiz-adv-x="518" 
d="M407 -198q-41 0 -72.5 19.5t-31.5 60.5q0 74 90 110q-54 8 -64 67q-69 -64 -159 -64q-60 0 -94 34.5t-34 86.5q0 125 150 152q53 9 136 9v54q0 60 -21.5 87.5t-85.5 27.5q-31 0 -68 -6t-59 -12l-22 -5v34q9 6 24.5 15t63.5 23.5t94 14.5q87 0 126 -47t39 -140v-240
q0 -43 37 -43h31v-27q-17 -12 -41 -18q-80 -32 -80 -92q0 -27 19 -42t48 -15q16 0 34 4t27 8l10 4v-28q-37 -32 -97 -32zM214 57q51 0 115 38q-3 28 -3 71v71q-53 1 -111 -14q-82 -21 -82 -93q0 -33 21 -53t60 -20z" />
    <glyph glyph-name="Cacute" unicode="&#x106;" horiz-adv-x="664" 
d="M437 38q49 0 107 15l21 150h38v-178q-78 -39 -177 -39q-174 0 -274 93t-100 259q0 103 39.5 187.5t120 136.5t190.5 52q58 0 109 -10t73 -20l22 -10l-8 -170h-39l-15 134q-60 24 -135 24q-122 0 -188.5 -82t-66.5 -221q0 -140 75 -230.5t208 -90.5zM333 748l-28 30
l149 177l62 -64z" />
    <glyph glyph-name="cacute" unicode="&#x107;" horiz-adv-x="475" 
d="M271 458q-59 0 -92.5 -59t-33.5 -132q0 -96 42.5 -155.5t119.5 -59.5q32 0 63.5 6t46.5 12l15 6v-34q-7 -6 -19 -14.5t-53.5 -23t-85.5 -14.5q-106 0 -165 69.5t-59 181.5q0 117 69.5 193t180.5 76q36 0 79.5 -10t58.5 -12l-20 -81q-27 4 -73 27.5t-74 23.5zM219 591
l-28 30l149 177l62 -64z" />
    <glyph glyph-name="Ccircumflex" unicode="&#x108;" horiz-adv-x="664" 
d="M437 38q49 0 107 15l21 150h38v-178q-78 -39 -177 -39q-174 0 -274 93t-100 259q0 103 39.5 187.5t120 136.5t190.5 52q58 0 109 -10t73 -20l22 -10l-8 -170h-39l-15 134q-60 24 -135 24q-122 0 -188.5 -82t-66.5 -221q0 -140 75 -230.5t208 -90.5zM256 750l-17 27
l143 122h29l141 -120l-20 -28l-136 74z" />
    <glyph glyph-name="ccircumflex" unicode="&#x109;" horiz-adv-x="475" 
d="M271 458q-59 0 -92.5 -59t-33.5 -132q0 -96 42.5 -155.5t119.5 -59.5q32 0 63.5 6t46.5 12l15 6v-34q-7 -6 -19 -14.5t-53.5 -23t-85.5 -14.5q-106 0 -165 69.5t-59 181.5q0 117 69.5 193t180.5 76q36 0 79.5 -10t58.5 -12l-20 -81q-27 4 -73 27.5t-74 23.5zM128 590
l-17 27l143 122h29l141 -120l-20 -28l-136 74z" />
    <glyph glyph-name="Cdotaccent" unicode="&#x10a;" horiz-adv-x="664" 
d="M437 38q49 0 107 15l21 150h38v-178q-78 -39 -177 -39q-174 0 -274 93t-100 259q0 103 39.5 187.5t120 136.5t190.5 52q58 0 109 -10t73 -20l22 -10l-8 -170h-39l-15 134q-60 24 -135 24q-122 0 -188.5 -82t-66.5 -221q0 -140 75 -230.5t208 -90.5zM399 782
q-24 0 -41.5 17t-17.5 42q0 24 18.5 41.5t42.5 17.5t41 -17t17 -42q0 -24 -18 -41.5t-42 -17.5z" />
    <glyph glyph-name="cdotaccent" unicode="&#x10b;" horiz-adv-x="475" 
d="M271 458q-59 0 -92.5 -59t-33.5 -132q0 -96 42.5 -155.5t119.5 -59.5q32 0 63.5 6t46.5 12l15 6v-34q-7 -6 -19 -14.5t-53.5 -23t-85.5 -14.5q-106 0 -165 69.5t-59 181.5q0 117 69.5 193t180.5 76q36 0 79.5 -10t58.5 -12l-20 -81q-27 4 -73 27.5t-74 23.5zM280 591
q-24 0 -41.5 17t-17.5 42q0 24 18.5 41.5t42.5 17.5t41 -17t17 -42q0 -24 -18 -41.5t-42 -17.5z" />
    <glyph glyph-name="Ccaron" unicode="&#x10c;" horiz-adv-x="664" 
d="M437 38q49 0 107 15l21 150h38v-178q-78 -39 -177 -39q-174 0 -274 93t-100 259q0 103 39.5 187.5t120 136.5t190.5 52q58 0 109 -10t73 -20l22 -10l-8 -170h-39l-15 134q-60 24 -135 24q-122 0 -188.5 -82t-66.5 -221q0 -140 75 -230.5t208 -90.5zM546 919l17 -27
l-143 -122h-29l-141 120l20 28l136 -74z" />
    <glyph glyph-name="ccaron" unicode="&#x10d;" horiz-adv-x="475" 
d="M271 458q-59 0 -92.5 -59t-33.5 -132q0 -96 42.5 -155.5t119.5 -59.5q32 0 63.5 6t46.5 12l15 6v-34q-7 -6 -19 -14.5t-53.5 -23t-85.5 -14.5q-106 0 -165 69.5t-59 181.5q0 117 69.5 193t180.5 76q36 0 79.5 -10t58.5 -12l-20 -81q-27 4 -73 27.5t-74 23.5zM412 740
l17 -27l-143 -122h-29l-141 120l20 28l136 -74z" />
    <glyph glyph-name="Dcaron" unicode="&#x10e;" horiz-adv-x="740" 
d="M297 650h-72v-600h100q125 0 193 80t68 214q0 135 -73.5 220.5t-215.5 85.5zM317 0h-270v31l80 13v612l-80 13v31h287q165 0 260 -94.5t95 -242.5q0 -175 -104.5 -269t-267.5 -94zM503 918l17 -27l-143 -122h-29l-141 120l20 28l136 -74z" />
    <glyph glyph-name="dcaron" unicode="&#x10f;" horiz-adv-x="615" 
d="M305 455q-75 0 -116.5 -52t-41.5 -143q0 -89 36.5 -142.5t104.5 -53.5q58 0 111 35q-4 36 -4 100v232q-36 24 -90 24zM488 756v-673q0 -43 37 -43h31v-27q-31 -23 -76 -23q-71 0 -82 69q-24 -22 -40.5 -34t-48.5 -23.5t-69 -11.5q-84 0 -137 68.5t-53 164.5
q0 134 65.5 210.5t178.5 76.5q29 0 54 -7t36 -13l11 -7v224l-81 8v31l154 15zM569 500l-18 24q37 22 63.5 56.5t30.5 70.5q-34 -8 -54.5 10t-20.5 46q0 27 18 43.5t46 16.5t46.5 -18.5t18.5 -53.5q0 -59 -36.5 -112t-93.5 -83z" />
    <glyph glyph-name="Dcroat" unicode="&#x110;" horiz-adv-x="736" 
d="M21 331v54h112v271l-80 23v21h277q165 0 260 -94.5t95 -242.5q0 -175 -104.5 -269t-267.5 -94h-260v21l80 23v287h-112zM293 650h-62v-265h124v-54h-124v-281h90q125 0 193 80t68 214q0 135 -73.5 220.5t-215.5 85.5z" />
    <glyph glyph-name="dcroat" unicode="&#x111;" horiz-adv-x="595" 
d="M488 579v-496q0 -43 37 -43h31v-27q-31 -23 -76 -23q-71 0 -82 69q-24 -22 -40.5 -34t-48.5 -23.5t-69 -11.5q-84 0 -137 68.5t-53 164.5q0 134 65.5 210.5t178.5 76.5q29 0 54 -7t36 -13l11 -7v96h-165v54h165v74l-81 8v31l154 15l20 -5v-123h76v-54h-76zM305 455
q-75 0 -116.5 -52t-41.5 -143q0 -89 36.5 -142.5t104.5 -53.5q58 0 111 35q-4 36 -4 100v232q-36 24 -90 24z" />
    <glyph glyph-name="Emacron" unicode="&#x112;" horiz-adv-x="600" 
d="M225 333v-283l264 4l27 119h37l-4 -173h-502v31l80 13v612l-80 13v31h492l-6 -170h-41l-13 114l-254 6v-267l234 6v-61zM206 800v59h234v-59h-234z" />
    <glyph glyph-name="emacron" unicode="&#x113;" horiz-adv-x="521" 
d="M472 257h-327q2 -91 50.5 -148t128.5 -57q30 0 62 6t49 12l17 6v-34q-7 -6 -20.5 -14.5t-57.5 -23t-90 -14.5q-107 0 -170.5 70t-63.5 181q0 121 67 195t164 74q104 0 153 -65.5t38 -187.5zM277 459q-54 0 -88.5 -41.5t-41.5 -113.5l234 6q-1 69 -23 109t-81 40zM166 615
v59h234v-59h-234z" />
    <glyph glyph-name="Ebreve" unicode="&#x114;" horiz-adv-x="600" 
d="M225 333v-283l264 4l27 119h37l-4 -173h-502v31l80 13v612l-80 13v31h492l-6 -170h-41l-13 114l-254 6v-267l234 6v-61zM328 760q-57 0 -95.5 37.5t-43.5 108.5l24 6q14 -39 44.5 -61t70.5 -22q38 0 69.5 22.5t45.5 60.5l24 -6q-6 -68 -42 -107t-97 -39z" />
    <glyph glyph-name="ebreve" unicode="&#x115;" horiz-adv-x="521" 
d="M472 257h-327q2 -91 50.5 -148t128.5 -57q30 0 62 6t49 12l17 6v-34q-7 -6 -20.5 -14.5t-57.5 -23t-90 -14.5q-107 0 -170.5 70t-63.5 181q0 121 67 195t164 74q104 0 153 -65.5t38 -187.5zM277 459q-54 0 -88.5 -41.5t-41.5 -113.5l234 6q-1 69 -23 109t-81 40zM286 590
q-57 0 -95.5 37.5t-43.5 108.5l24 6q14 -39 44.5 -61t70.5 -22q38 0 69.5 22.5t45.5 60.5l24 -6q-6 -68 -42 -107t-97 -39z" />
    <glyph glyph-name="Edotaccent" unicode="&#x116;" horiz-adv-x="600" 
d="M225 333v-283l264 4l27 119h37l-4 -173h-502v31l80 13v612l-80 13v31h492l-6 -170h-41l-13 114l-254 6v-267l234 6v-61zM328 782q-24 0 -41.5 17t-17.5 42q0 24 18.5 41.5t42.5 17.5t41 -17t17 -42q0 -24 -18 -41.5t-42 -17.5z" />
    <glyph glyph-name="edotaccent" unicode="&#x117;" horiz-adv-x="521" 
d="M472 257h-327q2 -91 50.5 -148t128.5 -57q30 0 62 6t49 12l17 6v-34q-7 -6 -20.5 -14.5t-57.5 -23t-90 -14.5q-107 0 -170.5 70t-63.5 181q0 121 67 195t164 74q104 0 153 -65.5t38 -187.5zM277 459q-54 0 -88.5 -41.5t-41.5 -113.5l234 6q-1 69 -23 109t-81 40zM286 591
q-24 0 -41.5 17t-17.5 42q0 24 18.5 41.5t42.5 17.5t41 -17t17 -42q0 -24 -18 -41.5t-42 -17.5z" />
    <glyph glyph-name="Eogonek" unicode="&#x118;" horiz-adv-x="600" 
d="M471 -193q-41 0 -72.5 19.5t-31.5 60.5q0 79 101 113h-421v31l80 13v612l-80 13v31h492l-6 -170h-41l-13 114l-254 6v-267l234 6v-61l-234 5v-283l264 4l27 119h37l-4 -173h-38q-81 -32 -81 -92q0 -27 19 -42t48 -15q16 0 34 4t27 8l10 4v-28q-37 -32 -97 -32z" />
    <glyph glyph-name="eogonek" unicode="&#x119;" horiz-adv-x="522" 
d="M291 -194q-36 0 -61.5 22t-25.5 58q0 70 86 104h-6q-107 0 -170.5 70t-63.5 181q0 121 67 195t164 74q104 0 153 -65.5t38 -187.5h-327q2 -91 50.5 -148t128.5 -57q30 0 62 6t49 12l17 6v-34q-35 -28 -93 -43q-92 -36 -92 -92q0 -28 15.5 -42.5t41.5 -14.5q16 0 31 4
t23 8l7 4v-28q-32 -32 -94 -32zM277 459q-54 0 -88.5 -41.5t-41.5 -113.5l234 6q-1 69 -23 109t-81 40z" />
    <glyph glyph-name="Ecaron" unicode="&#x11a;" horiz-adv-x="600" 
d="M225 333v-283l264 4l27 119h37l-4 -173h-502v31l80 13v612l-80 13v31h492l-6 -170h-41l-13 114l-254 6v-267l234 6v-61zM472 919l17 -27l-143 -122h-29l-141 120l20 28l136 -74z" />
    <glyph glyph-name="ecaron" unicode="&#x11b;" horiz-adv-x="521" 
d="M472 257h-327q2 -91 50.5 -148t128.5 -57q30 0 62 6t49 12l17 6v-34q-7 -6 -20.5 -14.5t-57.5 -23t-90 -14.5q-107 0 -170.5 70t-63.5 181q0 121 67 195t164 74q104 0 153 -65.5t38 -187.5zM277 459q-54 0 -88.5 -41.5t-41.5 -113.5l234 6q-1 69 -23 109t-81 40zM431 740
l17 -27l-143 -122h-29l-141 120l20 28l136 -74z" />
    <glyph glyph-name="Gcircumflex" unicode="&#x11c;" horiz-adv-x="722" 
d="M428 662q-126 0 -200.5 -78.5t-74.5 -212.5q0 -151 75 -242t205 -91q26 0 49.5 3t33.5 6l11 3v210l-100 14v31h268v-31l-70 -14v-242q-74 -32 -200 -32q-78 0 -144 20.5t-118.5 62t-82 110.5t-29.5 159q0 168 99.5 272t277.5 104q58 0 108.5 -10t71.5 -20l22 -10l-8 -170
h-39l-15 133q-66 25 -140 25zM272 769l-17 27l143 122h29l141 -120l-20 -28l-136 74z" />
    <glyph glyph-name="gcircumflex" unicode="&#x11d;" horiz-adv-x="555" 
d="M42 -117q0 83 88 128q-25 22 -25 61q0 24 16.5 49.5t40.5 38.5q-53 20 -81 62t-28 98q0 90 57 140t159 50q60 0 103 -23l165 15l-3 -59l-100 -2q38 -45 38 -105q0 -81 -59 -135.5t-162 -54.5q-20 0 -50 4q-28 -24 -17.5 -51.5t50.5 -29.5l118 -7q74 -5 116 -42t42 -101
q0 -78 -68.5 -129.5t-167.5 -53.5q-102 -2 -167 35.5t-65 111.5zM229 -16q-44 4 -69 12q-34 -37 -34 -82q0 -49 43.5 -83.5t115.5 -34.5q76 0 116 25t40 71q0 40 -28 62t-75 24zM257 457q-52 0 -80.5 -33.5t-28.5 -84.5q0 -66 30 -103t90 -37q49 0 79 34.5t30 88.5
q0 135 -120 135zM120 591l-17 27l143 122h29l141 -120l-20 -28l-136 74z" />
    <glyph glyph-name="Gbreve" unicode="&#x11e;" horiz-adv-x="722" 
d="M428 662q-126 0 -200.5 -78.5t-74.5 -212.5q0 -151 75 -242t205 -91q26 0 49.5 3t33.5 6l11 3v210l-100 14v31h268v-31l-70 -14v-242q-74 -32 -200 -32q-78 0 -144 20.5t-118.5 62t-82 110.5t-29.5 159q0 168 99.5 272t277.5 104q58 0 108.5 -10t71.5 -20l22 -10l-8 -170
h-39l-15 133q-66 25 -140 25zM419 770q-57 0 -95.5 37.5t-43.5 108.5l24 6q14 -39 44.5 -61t70.5 -22q38 0 69.5 22.5t45.5 60.5l24 -6q-6 -68 -42 -107t-97 -39z" />
    <glyph glyph-name="gbreve" unicode="&#x11f;" horiz-adv-x="555" 
d="M42 -117q0 83 88 128q-25 22 -25 61q0 24 16.5 49.5t40.5 38.5q-53 20 -81 62t-28 98q0 90 57 140t159 50q60 0 103 -23l165 15l-3 -59l-100 -2q38 -45 38 -105q0 -81 -59 -135.5t-162 -54.5q-20 0 -50 4q-28 -24 -17.5 -51.5t50.5 -29.5l118 -7q74 -5 116 -42t42 -101
q0 -78 -68.5 -129.5t-167.5 -53.5q-102 -2 -167 35.5t-65 111.5zM229 -16q-44 4 -69 12q-34 -37 -34 -82q0 -49 43.5 -83.5t115.5 -34.5q76 0 116 25t40 71q0 40 -28 62t-75 24zM257 457q-52 0 -80.5 -33.5t-28.5 -84.5q0 -66 30 -103t90 -37q49 0 79 34.5t30 88.5
q0 135 -120 135zM255 590q-57 0 -95.5 37.5t-43.5 108.5l24 6q14 -39 44.5 -61t70.5 -22q38 0 69.5 22.5t45.5 60.5l24 -6q-6 -68 -42 -107t-97 -39z" />
    <glyph glyph-name="Gdotaccent" unicode="&#x120;" horiz-adv-x="722" 
d="M428 662q-126 0 -200.5 -78.5t-74.5 -212.5q0 -151 75 -242t205 -91q26 0 49.5 3t33.5 6l11 3v210l-100 14v31h268v-31l-70 -14v-242q-74 -32 -200 -32q-78 0 -144 20.5t-118.5 62t-82 110.5t-29.5 159q0 168 99.5 272t277.5 104q58 0 108.5 -10t71.5 -20l22 -10l-8 -170
h-39l-15 133q-66 25 -140 25zM420 783q-24 0 -41.5 17t-17.5 42q0 24 18.5 41.5t42.5 17.5t41 -17t17 -42q0 -24 -18 -41.5t-42 -17.5z" />
    <glyph glyph-name="gdotaccent" unicode="&#x121;" horiz-adv-x="555" 
d="M42 -117q0 83 88 128q-25 22 -25 61q0 24 16.5 49.5t40.5 38.5q-53 20 -81 62t-28 98q0 90 57 140t159 50q60 0 103 -23l165 15l-3 -59l-100 -2q38 -45 38 -105q0 -81 -59 -135.5t-162 -54.5q-20 0 -50 4q-28 -24 -17.5 -51.5t50.5 -29.5l118 -7q74 -5 116 -42t42 -101
q0 -78 -68.5 -129.5t-167.5 -53.5q-102 -2 -167 35.5t-65 111.5zM229 -16q-44 4 -69 12q-34 -37 -34 -82q0 -49 43.5 -83.5t115.5 -34.5q76 0 116 25t40 71q0 40 -28 62t-75 24zM257 457q-52 0 -80.5 -33.5t-28.5 -84.5q0 -66 30 -103t90 -37q49 0 79 34.5t30 88.5
q0 135 -120 135zM266 590q-24 0 -41.5 17t-17.5 42q0 24 18.5 41.5t42.5 17.5t41 -17t17 -42q0 -24 -18 -41.5t-42 -17.5z" />
    <glyph glyph-name="Gcommaaccent" unicode="&#x122;" horiz-adv-x="722" 
d="M428 662q-126 0 -200.5 -78.5t-74.5 -212.5q0 -151 75 -242t205 -91q26 0 49.5 3t33.5 6l11 3v210l-100 14v31h268v-31l-70 -14v-242q-74 -32 -200 -32q-78 0 -144 20.5t-118.5 62t-82 110.5t-29.5 159q0 168 99.5 272t277.5 104q58 0 108.5 -10t71.5 -20l22 -10l-8 -170
h-39l-15 133q-66 25 -140 25zM346 -320l-18 24q37 22 63.5 56.5t30.5 70.5q-34 -8 -54.5 10t-20.5 46q0 27 18 43.5t46 16.5t46.5 -18.5t18.5 -53.5q0 -59 -36.5 -112t-93.5 -83z" />
    <glyph glyph-name="gcommaaccent" unicode="&#x123;" horiz-adv-x="555" 
d="M337 858l18 -24q-37 -22 -63.5 -56.5t-30.5 -70.5q34 8 54.5 -10t20.5 -46q0 -27 -18 -43.5t-46 -16.5t-46.5 18.5t-18.5 53.5q0 59 36.5 112t93.5 83zM42 -117q0 83 88 128q-25 22 -25 61q0 24 16.5 49.5t40.5 38.5q-53 20 -81 62t-28 98q0 90 57 140t159 50
q60 0 103 -23l165 15l-3 -59l-100 -2q38 -45 38 -105q0 -81 -59 -135.5t-162 -54.5q-20 0 -50 4q-28 -24 -17.5 -51.5t50.5 -29.5l118 -7q74 -5 116 -42t42 -101q0 -78 -68.5 -129.5t-167.5 -53.5q-102 -2 -167 35.5t-65 111.5zM229 -16q-44 4 -69 12q-34 -37 -34 -82
q0 -49 43.5 -83.5t115.5 -34.5q76 0 116 25t40 71q0 40 -28 62t-75 24zM257 457q-52 0 -80.5 -33.5t-28.5 -84.5q0 -66 30 -103t90 -37q49 0 79 34.5t30 88.5q0 135 -120 135z" />
    <glyph glyph-name="Hcircumflex" unicode="&#x124;" horiz-adv-x="804" 
d="M677 44l80 -13v-31h-258v31l80 13v291h-354v-291l80 -13v-31h-258v31l80 13v612l-80 13v31h258v-31l-80 -13v-271h354v271l-80 13v31h258v-31l-80 -13v-612zM260 784l-17 27l143 122h29l141 -120l-20 -28l-136 74z" />
    <glyph glyph-name="hcircumflex" unicode="&#x125;" horiz-adv-x="623" 
d="M202 756l-4 -315q89 69 162 69q77 0 119 -49t42 -130v-288l80 -12v-31h-243v31l70 12v265q0 128 -103 128q-32 0 -64 -8.5t-47 -17.5l-16 -8q4 -41 4 -95v-264l70 -12v-31h-243v31l80 12v664l-81 8v31l154 15zM3 824l-17 27l143 122h29l141 -120l-20 -28l-136 74z" />
    <glyph glyph-name="Hbar" unicode="&#x126;" horiz-adv-x="806" 
d="M678 44l80 -13v-31h-258v31l80 13v291h-354v-291l80 -13v-31h-258v31l80 13v452h-92v51h92v109l-80 13v31h258v-31l-80 -13v-109h354v109l-80 13v31h258v-31l-80 -13v-109h92v-51h-92v-452zM226 385h354v111h-354v-111z" />
    <glyph glyph-name="hbar" unicode="&#x127;" horiz-adv-x="623" 
d="M202 756l-2 -123h161v-54h-161l-2 -138q89 69 162 69q77 0 119 -49t42 -130v-288l80 -12v-31h-243v31l70 12v265q0 128 -103 128q-32 0 -64 -8.5t-47 -17.5l-16 -8q4 -41 4 -95v-264l70 -12v-31h-243v31l80 12v536h-82v54h82v74l-81 8v31l154 15z" />
    <glyph glyph-name="Itilde" unicode="&#x128;" horiz-adv-x="352" 
d="M225 656v-612l80 -13v-31h-258v31l80 13v612l-80 13v31h258v-31zM233 794q-28 0 -73 27.5t-63 27.5q-38 0 -64 -52l-27 7q8 47 34.5 79t72.5 32q30 0 73 -27.5t60 -27.5q37 0 66 51l27 -6q-20 -111 -106 -111z" />
    <glyph glyph-name="itilde" unicode="&#x129;" horiz-adv-x="320" 
d="M191 505l20 -5v-457l80 -12v-31h-253v31l80 12v409l-81 8v31zM208 590q-28 0 -73 27.5t-63 27.5q-38 0 -64 -52l-27 7q8 47 34.5 79t72.5 32q30 0 73 -27.5t60 -27.5q37 0 66 51l27 -6q-20 -111 -106 -111z" />
    <glyph glyph-name="Imacron" unicode="&#x12a;" horiz-adv-x="352" 
d="M225 656v-612l80 -13v-31h-258v31l80 13v612l-80 13v31h258v-31zM58 797v59h234v-59h-234z" />
    <glyph glyph-name="imacron" unicode="&#x12b;" horiz-adv-x="320" 
d="M191 505l20 -5v-457l80 -12v-31h-253v31l80 12v409l-81 8v31zM25 620v59h234v-59h-234z" />
    <glyph glyph-name="Ibreve" unicode="&#x12c;" horiz-adv-x="352" 
d="M225 656v-612l80 -13v-31h-258v31l80 13v612l-80 13v31h258v-31zM176 779q-57 0 -95.5 37.5t-43.5 108.5l24 6q14 -39 44.5 -61t70.5 -22q38 0 69.5 22.5t45.5 60.5l24 -6q-6 -68 -42 -107t-97 -39z" />
    <glyph glyph-name="ibreve" unicode="&#x12d;" horiz-adv-x="320" 
d="M191 505l20 -5v-457l80 -12v-31h-253v31l80 12v409l-81 8v31zM149 591q-57 0 -95.5 37.5t-43.5 108.5l24 6q14 -39 44.5 -61t70.5 -22q38 0 69.5 22.5t45.5 60.5l24 -6q-6 -68 -42 -107t-97 -39z" />
    <glyph glyph-name="Iogonek" unicode="&#x12e;" horiz-adv-x="352" 
d="M169 -194q-41 0 -72.5 19.5t-31.5 60.5q0 79 104 114h-122v31l80 13v612l-80 13v31h258v-31l-80 -13v-612l80 -13v-31h-93q-84 -32 -84 -93q0 -27 19 -42t48 -15q16 0 34 4t27 8l10 4v-28q-37 -32 -97 -32z" />
    <glyph glyph-name="iogonek" unicode="&#x12f;" horiz-adv-x="320" 
d="M161 -192q-41 0 -72.5 19.5t-31.5 60.5q0 78 98 112h-117v31l80 12v409l-81 8v31l154 14l20 -5v-457l80 -12v-31h-93q-78 -32 -78 -91q0 -27 19 -42t48 -15q16 0 34 4t27 8l10 4v-28q-37 -32 -97 -32zM162 627q-26 0 -42.5 16t-16.5 41q0 26 18 41t46 15q27 0 42.5 -14.5
t15.5 -39.5q0 -27 -17 -43t-46 -16z" />
    <glyph glyph-name="Idotaccent" unicode="&#x130;" horiz-adv-x="352" 
d="M225 656v-612l80 -13v-31h-258v31l80 13v612l-80 13v31h258v-31zM175 796q-24 0 -41.5 17t-17.5 42q0 24 18.5 41.5t42.5 17.5t41 -17t17 -42q0 -24 -18 -41.5t-42 -17.5z" />
    <glyph glyph-name="dotlessi" unicode="&#x131;" horiz-adv-x="320" 
d="M191 505l20 -5v-457l80 -12v-31h-253v31l80 12v409l-81 8v31z" />
    <glyph glyph-name="IJ" unicode="&#x132;" horiz-adv-x="683" 
d="M225 656v-612l80 -13v-31h-258v31l80 13v612l-80 13v31h258v-31zM563 656v-525q0 -72 -17 -118q-12 -31 -33.5 -63.5t-37 -50l-50.5 -55.5q-8 -9 -12 -13l-33 24l42 58q27 37 35 72t8 94v577l-80 13v31h258v-31z" />
    <glyph glyph-name="ij" unicode="&#x133;" horiz-adv-x="603" 
d="M162 627q-26 0 -42.5 16t-16.5 41q0 26 18 41t46 15q27 0 42.5 -14.5t15.5 -39.5q0 -27 -17 -43t-46 -16zM191 505l20 -5v-457l80 -12v-31h-253v31l80 12v409l-81 8v31zM493 505l20 -5v-483q0 -151 -156 -274l-20 20q83 86 83 242v447l-81 8v31zM464 627q-26 0 -42.5 16
t-16.5 41q0 26 18 41t46 15q27 0 42.5 -14.5t15.5 -39.5q0 -27 -17 -43t-46 -16z" />
    <glyph glyph-name="Jcircumflex" unicode="&#x134;" horiz-adv-x="339" 
d="M219 656v-525q0 -72 -17 -118q-12 -31 -33.5 -63.5t-37 -50l-50.5 -55.5q-8 -9 -12 -13l-33 24l42 58q27 37 35 72t8 94v577l-80 13v31h258v-31zM18 785l-17 27l143 122h29l141 -120l-20 -28l-136 74z" />
    <glyph glyph-name="jcircumflex" unicode="&#x135;" horiz-adv-x="291" 
d="M181 505l20 -5v-483q0 -151 -156 -274l-20 20q83 86 83 242v447l-81 8v31zM-7 591l-17 27l143 122h29l141 -120l-20 -28l-136 74z" />
    <glyph glyph-name="Kcommaaccent" unicode="&#x136;" horiz-adv-x="673" 
d="M225 332v-288l80 -13v-31h-258v31l80 13v612l-80 13v31h258v-31l-80 -13v-274h90l183 274l-68 13v31h219v-31l-74 -13l-207 -278l233 -307q18 -23 30.5 -29.5t41.5 -10.5v-31h-80q-40 0 -58.5 9t-41.5 42l-202 281h-66zM308 -312l-18 24q37 22 63.5 56.5t30.5 70.5
q-34 -8 -54.5 10t-20.5 46q0 27 18 43.5t46 16.5t46.5 -18.5t18.5 -53.5q0 -59 -36.5 -112t-93.5 -83z" />
    <glyph glyph-name="kcommaaccent" unicode="&#x137;" horiz-adv-x="588" 
d="M108 43v662l-81 10v31l154 15l20 -5v-472h74l126 175l-58 10v31h205v-31l-71 -10l-148 -171l188 -225q16 -19 25 -23.5t36 -8.5v-31h-62q-46 0 -63.5 9t-45.5 44l-150 185h-56v-195l70 -12v-31h-243v31zM241 -312l-18 24q37 22 63.5 56.5t30.5 70.5q-34 -8 -54.5 10
t-20.5 46q0 27 18 43.5t46 16.5t46.5 -18.5t18.5 -53.5q0 -59 -36.5 -112t-93.5 -83z" />
    <glyph glyph-name="Lacute" unicode="&#x139;" horiz-adv-x="581" 
d="M225 656v-606l264 4l29 149h37l-6 -203h-502v31l80 13v612l-80 13v31h258v-31zM158 748l-28 30l149 177l62 -64z" />
    <glyph glyph-name="lacute" unicode="&#x13a;" horiz-adv-x="311" 
d="M109 42v663l-81 10v31l154 15l20 -5v-714l80 -11v-31h-253v31zM117 798l-28 30l149 177l62 -64z" />
    <glyph glyph-name="Lcommaaccent" unicode="&#x13b;" horiz-adv-x="580" 
d="M225 656v-606l264 4l29 149h37l-6 -203h-502v31l80 13v612l-80 13v31h258v-31zM257 -312l-18 24q37 22 63.5 56.5t30.5 70.5q-34 -8 -54.5 10t-20.5 46q0 27 18 43.5t46 16.5t46.5 -18.5t18.5 -53.5q0 -59 -36.5 -112t-93.5 -83z" />
    <glyph glyph-name="lcommaaccent" unicode="&#x13c;" horiz-adv-x="309" 
d="M108 42v663l-81 10v31l154 15l20 -5v-714l80 -11v-31h-253v31zM82 -319l-18 24q37 22 63.5 56.5t30.5 70.5q-34 -8 -54.5 10t-20.5 46q0 27 18 43.5t46 16.5t46.5 -18.5t18.5 -53.5q0 -59 -36.5 -112t-93.5 -83z" />
    <glyph glyph-name="Lcaron" unicode="&#x13d;" horiz-adv-x="581" 
d="M225 656v-606l264 4l29 149h37l-6 -203h-502v31l80 13v612l-80 13v31h258v-31zM398 442l-18 24q37 22 63.5 56.5t30.5 70.5q-34 -8 -54.5 10t-20.5 46q0 27 18 43.5t46 16.5t46.5 -18.5t18.5 -53.5q0 -59 -36.5 -112t-93.5 -83z" />
    <glyph glyph-name="lcaron" unicode="&#x13e;" horiz-adv-x="332" 
d="M109 42v663l-81 10v31l154 15l20 -5v-714l80 -11v-31h-253v31zM273 496l-18 24q37 22 63.5 56.5t30.5 70.5q-34 -8 -54.5 10t-20.5 46q0 27 18 43.5t46 16.5t46.5 -18.5t18.5 -53.5q0 -59 -36.5 -112t-93.5 -83z" />
    <glyph glyph-name="Ldot" unicode="&#x13f;" horiz-adv-x="588" 
d="M501 310q-24 0 -41.5 17t-17.5 42q0 24 18.5 41.5t42.5 17.5t41 -17t17 -42q0 -24 -18 -41.5t-42 -17.5zM225 656v-606l264 4l29 149h37l-6 -203h-502v31l80 13v612l-80 13v31h258v-31z" />
    <glyph glyph-name="ldot" unicode="&#x140;" horiz-adv-x="402" 
d="M352 320q-24 0 -41.5 17t-17.5 42q0 24 18.5 41.5t42.5 17.5t41 -17t17 -42q0 -24 -18 -41.5t-42 -17.5zM109 42v663l-81 10v31l154 15l20 -5v-714l80 -11v-31h-253v31z" />
    <glyph glyph-name="Lslash" unicode="&#x141;" horiz-adv-x="590" 
d="M234 340v-290l264 4l29 149h37l-6 -203h-502v31l80 13v241l-104 -58l-27 46l131 73v310l-80 13v31h258v-31l-80 -13v-255l109 61l27 -45z" />
    <glyph glyph-name="lslash" unicode="&#x142;" horiz-adv-x="399" 
d="M40 216l-26 47l135 76v366l-81 10v31l154 15l20 -5v-364l110 62l26 -46l-136 -77v-289l80 -11v-31h-253v31l80 11v236z" />
    <glyph glyph-name="Nacute" unicode="&#x143;" horiz-adv-x="766" 
d="M587 234v417l-80 18v31h218v-31l-80 -18v-651l-54 -4l-358 488l-52 79l-3 -1q5 -44 5 -90v-425l80 -16v-31h-218v31l80 16v563l-46 53v37l110 4l349 -480q11 -15 23.5 -34.5t18.5 -31.5l7 -12l4 1q-4 46 -4 87zM377 750l-28 30l149 177l62 -64z" />
    <glyph glyph-name="nacute" unicode="&#x144;" horiz-adv-x="632" 
d="M530 331v-289l80 -11v-31h-243v31l70 11v266q0 128 -103 128q-32 0 -64 -8.5t-48 -17.5l-15 -8q4 -41 4 -95v-265l70 -11v-31h-243v31l80 11v409l-81 8v31l154 15l20 -5l-4 -59q89 69 162 69q77 0 119 -49t42 -130zM285 590l-28 30l149 177l62 -64z" />
    <glyph glyph-name="Ncommaaccent" unicode="&#x145;" horiz-adv-x="766" 
d="M587 234v417l-80 18v31h218v-31l-80 -18v-651l-54 -4l-358 488l-52 79l-3 -1q5 -44 5 -90v-425l80 -16v-31h-218v31l80 16v563l-46 53v37l110 4l349 -480q11 -15 23.5 -34.5t18.5 -31.5l7 -12l4 1q-4 46 -4 87zM339 -319l-18 24q37 22 63.5 56.5t30.5 70.5
q-34 -8 -54.5 10t-20.5 46q0 27 18 43.5t46 16.5t46.5 -18.5t18.5 -53.5q0 -59 -36.5 -112t-93.5 -83z" />
    <glyph glyph-name="ncommaaccent" unicode="&#x146;" horiz-adv-x="633" 
d="M531 331v-289l80 -11v-31h-243v31l70 11v266q0 128 -103 128q-32 0 -64 -8.5t-47 -17.5l-16 -8q4 -41 4 -95v-265l70 -11v-31h-243v31l80 11v409l-81 8v31l154 15l20 -5l-4 -59q89 69 162 69q77 0 119 -49t42 -130zM257 -319l-18 24q37 22 63.5 56.5t30.5 70.5
q-34 -8 -54.5 10t-20.5 46q0 27 18 43.5t46 16.5t46.5 -18.5t18.5 -53.5q0 -59 -36.5 -112t-93.5 -83z" />
    <glyph glyph-name="Ncaron" unicode="&#x147;" horiz-adv-x="766" 
d="M587 234v417l-80 18v31h218v-31l-80 -18v-651l-54 -4l-358 488l-52 79l-3 -1q5 -44 5 -90v-425l80 -16v-31h-218v31l80 16v563l-46 53v37l110 4l349 -480q11 -15 23.5 -34.5t18.5 -31.5l7 -12l4 1q-4 46 -4 87zM529 934l17 -27l-143 -122h-29l-141 120l20 28l136 -74z
" />
    <glyph glyph-name="ncaron" unicode="&#x148;" horiz-adv-x="632" 
d="M530 331v-289l80 -11v-31h-243v31l70 11v266q0 128 -103 128q-32 0 -64 -8.5t-48 -17.5l-15 -8q4 -41 4 -95v-265l70 -11v-31h-243v31l80 11v409l-81 8v31l154 15l20 -5l-4 -59q89 69 162 69q77 0 119 -49t42 -130zM447 740l17 -27l-143 -122h-29l-141 120l20 28l136 -74
z" />
    <glyph glyph-name="Eng" unicode="&#x14a;" horiz-adv-x="759" 
d="M583 234v417l-80 28v21h215v-21l-80 -28v-540q0 -58 -1 -80.5t-8.5 -50.5t-24.5 -52q-38 -52 -94 -115l-30 23q51 74 74 117q12 23 21 57l-346 474q-32 42 -52 79l-3 -1q5 -40 5 -90v-425l80 -26v-21h-215v21l80 26v577l-49 55v21h113l346 -476q21 -30 49 -78l4 1
q-4 44 -4 87z" />
    <glyph glyph-name="eng" unicode="&#x14b;" horiz-adv-x="610" 
d="M388 -194l-51 44q7 9 22.5 27.5l21.5 26t15.5 21t15.5 25.5t11 27q14 42 14 108v223q0 128 -103 128q-32 0 -64 -8.5t-48 -17.5l-15 -8q4 -41 4 -95v-265l70 -11v-31h-243v31l80 11v409l-81 8v31l154 15l20 -5l-4 -59q89 69 162 69q77 0 119 -49t42 -130v-242
q0 -69 -21 -119q-21 -49 -121 -164z" />
    <glyph glyph-name="Omacron" unicode="&#x14c;" horiz-adv-x="769" 
d="M399 33q103 0 159 83.5t56 212.5q0 86 -27.5 161.5t-85 126t-133.5 50.5q-102 0 -157.5 -85t-55.5 -218q0 -82 27.5 -156t84.5 -124.5t132 -50.5zM373 -14q-142 0 -231 101.5t-89 259.5q0 69 20.5 133t60.5 117t108 85t154 32q142 0 231 -101.5t89 -259.5
q0 -69 -20.5 -133t-60.5 -117t-108 -85t-154 -32zM263 783v59h234v-59h-234z" />
    <glyph glyph-name="omacron" unicode="&#x14d;" horiz-adv-x="574" 
d="M286 39q143 0 143 210q0 97 -37.5 154.5t-103.5 57.5q-143 0 -143 -210q0 -97 37.5 -154.5t103.5 -57.5zM274 -10q-104 0 -164 68.5t-60 180.5q0 120 65 195.5t185 75.5q104 0 164 -68.5t60 -180.5q0 -120 -65 -195.5t-185 -75.5zM168 622v59h234v-59h-234z" />
    <glyph glyph-name="Obreve" unicode="&#x14e;" horiz-adv-x="769" 
d="M399 33q103 0 159 83.5t56 212.5q0 86 -27.5 161.5t-85 126t-133.5 50.5q-102 0 -157.5 -85t-55.5 -218q0 -82 27.5 -156t84.5 -124.5t132 -50.5zM373 -14q-142 0 -231 101.5t-89 259.5q0 69 20.5 133t60.5 117t108 85t154 32q142 0 231 -101.5t89 -259.5
q0 -69 -20.5 -133t-60.5 -117t-108 -85t-154 -32zM385 763q-57 0 -95.5 37.5t-43.5 108.5l24 6q14 -39 44.5 -61t70.5 -22q38 0 69.5 22.5t45.5 60.5l24 -6q-6 -68 -42 -107t-97 -39z" />
    <glyph glyph-name="obreve" unicode="&#x14f;" horiz-adv-x="574" 
d="M286 39q143 0 143 210q0 97 -37.5 154.5t-103.5 57.5q-143 0 -143 -210q0 -97 37.5 -154.5t103.5 -57.5zM274 -10q-104 0 -164 68.5t-60 180.5q0 120 65 195.5t185 75.5q104 0 164 -68.5t60 -180.5q0 -120 -65 -195.5t-185 -75.5zM288 590q-57 0 -95.5 37.5t-43.5 108.5
l24 6q14 -39 44.5 -61t70.5 -22q38 0 69.5 22.5t45.5 60.5l24 -6q-6 -68 -42 -107t-97 -39z" />
    <glyph glyph-name="Ohungarumlaut" unicode="&#x150;" horiz-adv-x="769" 
d="M399 33q103 0 159 83.5t56 212.5q0 86 -27.5 161.5t-85 126t-133.5 50.5q-102 0 -157.5 -85t-55.5 -218q0 -82 27.5 -156t84.5 -124.5t132 -50.5zM373 -14q-142 0 -231 101.5t-89 259.5q0 69 20.5 133t60.5 117t108 85t154 32q142 0 231 -101.5t89 -259.5
q0 -69 -20.5 -133t-60.5 -117t-108 -85t-154 -32zM291 757l-28 30l149 177l62 -64zM479 757l-28 30l149 177l62 -64z" />
    <glyph glyph-name="ohungarumlaut" unicode="&#x151;" horiz-adv-x="574" 
d="M286 39q143 0 143 210q0 97 -37.5 154.5t-103.5 57.5q-143 0 -143 -210q0 -97 37.5 -154.5t103.5 -57.5zM274 -10q-104 0 -164 68.5t-60 180.5q0 120 65 195.5t185 75.5q104 0 164 -68.5t60 -180.5q0 -120 -65 -195.5t-185 -75.5zM168 591l-28 30l149 177l62 -64z
M356 591l-28 30l149 177l62 -64z" />
    <glyph glyph-name="OE" unicode="&#x152;" horiz-adv-x="1016" 
d="M641 333v-283l264 4l27 119h37l-4 -173h-422v29q-74 -43 -170 -43q-142 0 -231 101.5t-89 259.5q0 69 20.5 133t60.5 117t106.5 85t151.5 32q79 0 151 -39v25h412l-6 -170h-41l-13 114l-254 6v-267l234 6v-61zM384 667q-112 0 -170.5 -81.5t-58.5 -205.5
q0 -90 27.5 -167.5t84.5 -128.5t132 -51t144 52v510q-69 72 -159 72z" />
    <glyph glyph-name="oe" unicode="&#x153;" horiz-adv-x="876" 
d="M827 257h-327q2 -91 50.5 -148t128.5 -57q30 0 62 6t49 12l17 6v-34q-7 -6 -20.5 -14.5t-57.5 -23t-90 -14.5q-117 0 -181 82q-57 -82 -179 -82q-107 0 -168 67t-61 181q0 126 68.5 199t186.5 73q106 0 161 -81q65 81 170 81q104 0 153 -65.5t38 -187.5zM294 39
q31 0 55.5 13t38 33.5t20.5 35.5t10 28q-13 46 -13 92q0 51 14 98q-16 57 -49 89.5t-82 32.5q-70 0 -106.5 -53.5t-36.5 -145.5q0 -107 37.5 -165t111.5 -58zM632 459q-54 0 -88.5 -41.5t-41.5 -113.5l234 6q-1 69 -23 109t-81 40z" />
    <glyph glyph-name="Racute" unicode="&#x154;" horiz-adv-x="656" 
d="M225 287v-243l101 -13v-31h-279v31l80 13v612l-80 13v31h270q128 0 195.5 -53t67.5 -149q0 -71 -42.5 -122.5t-118.5 -72.5l168 -230q18 -25 30.5 -32t41.5 -12v-29q-29 -9 -65 -9q-44 0 -64 13t-53 61l-147 222h-105zM225 337h102q72 0 112.5 43.5t40.5 116.5
q0 67 -44 110t-133 43h-78v-313zM298 749l-28 30l149 177l62 -64z" />
    <glyph glyph-name="racute" unicode="&#x155;" horiz-adv-x="463" 
d="M207 397q4 -46 4 -100v-254l100 -12v-31h-273v31l80 12v409l-81 8v31l154 14l20 -5l-4 -67q77 77 133 77q23 0 40.5 -8.5t36.5 -22t34 -19.5l-39 -73q-16 7 -35 19.5t-35 20t-35 7.5q-46 0 -100 -37zM208 590l-28 30l149 177l62 -64z" />
    <glyph glyph-name="Rcommaaccent" unicode="&#x156;" horiz-adv-x="656" 
d="M225 287v-243l101 -13v-31h-279v31l80 13v612l-80 13v31h270q128 0 195.5 -53t67.5 -149q0 -71 -42.5 -122.5t-118.5 -72.5l168 -230q18 -25 30.5 -32t41.5 -12v-29q-29 -9 -65 -9q-44 0 -64 13t-53 61l-147 222h-105zM225 337h102q72 0 112.5 43.5t40.5 116.5
q0 67 -44 110t-133 43h-78v-313zM291 -320l-18 24q37 22 63.5 56.5t30.5 70.5q-34 -8 -54.5 10t-20.5 46q0 27 18 43.5t46 16.5t46.5 -18.5t18.5 -53.5q0 -59 -36.5 -112t-93.5 -83z" />
    <glyph glyph-name="rcommaaccent" unicode="&#x157;" horiz-adv-x="465" 
d="M208 397q4 -46 4 -100v-254l100 -12v-31h-273v31l80 12v409l-81 8v31l154 14l20 -5l-4 -67q77 77 133 77q23 0 40.5 -8.5t36.5 -22t34 -19.5l-39 -73q-16 7 -35 19.5t-35 20t-35 7.5q-46 0 -100 -37zM94 -320l-18 24q37 22 63.5 56.5t30.5 70.5q-34 -8 -54.5 10t-20.5 46
q0 27 18 43.5t46 16.5t46.5 -18.5t18.5 -53.5q0 -59 -36.5 -112t-93.5 -83z" />
    <glyph glyph-name="Rcaron" unicode="&#x158;" horiz-adv-x="656" 
d="M225 287v-243l101 -13v-31h-279v31l80 13v612l-80 13v31h270q128 0 195.5 -53t67.5 -149q0 -71 -42.5 -122.5t-118.5 -72.5l168 -230q18 -25 30.5 -32t41.5 -12v-29q-29 -9 -65 -9q-44 0 -64 13t-53 61l-147 222h-105zM225 337h102q72 0 112.5 43.5t40.5 116.5
q0 67 -44 110t-133 43h-78v-313zM462 931l17 -27l-143 -122h-29l-141 120l20 28l136 -74z" />
    <glyph glyph-name="rcaron" unicode="&#x159;" horiz-adv-x="463" 
d="M207 397q4 -46 4 -100v-254l100 -12v-31h-273v31l80 12v409l-81 8v31l154 14l20 -5l-4 -67q77 77 133 77q23 0 40.5 -8.5t36.5 -22t34 -19.5l-39 -73q-16 7 -35 19.5t-35 20t-35 7.5q-46 0 -100 -37zM404 740l17 -27l-143 -122h-29l-141 120l20 28l136 -74z" />
    <glyph glyph-name="Sacute" unicode="&#x15a;" horiz-adv-x="540" 
d="M239 38q67 0 111 31t44 87q0 33 -11 58.5t-37 47t-45.5 33t-58.5 31.5l-52.5 27.5t-45.5 30t-42 39t-25 48t-11 63.5q0 81 62 130.5t164 49.5q48 0 92 -10t64 -20l19 -11l-8 -169h-39l-15 134q-54 24 -120 24q-60 0 -92.5 -28.5t-32.5 -81.5q0 -51 35.5 -84t105.5 -70
q91 -48 121 -74q66 -57 66 -144q0 -89 -67 -141.5t-181 -52.5q-51 0 -95.5 10t-63.5 20l-19 10l-1 177h38l22 -149q49 -16 118 -16zM252 749l-28 30l149 177l62 -64z" />
    <glyph glyph-name="sacute" unicode="&#x15b;" horiz-adv-x="436" 
d="M232 42q39 0 62.5 18t23.5 47q0 27 -19.5 47t-49 32.5t-63.5 28.5t-63.5 33t-49 49t-19.5 74q0 63 49 101t124 38q28 0 55.5 -4t55.5 -10t41 -8l-20 -84q-33 4 -81.5 29t-79.5 25q-33 0 -50.5 -16.5t-17.5 -42.5q0 -35 27 -58.5t65 -39t76 -34t65 -53t27 -84.5
q0 -67 -51 -103.5t-123 -36.5q-36 0 -67.5 4t-62.5 10l-42 8l20 84q32 -4 83 -29t85 -25zM179 590l-28 30l149 177l62 -64z" />
    <glyph glyph-name="Scircumflex" unicode="&#x15c;" horiz-adv-x="540" 
d="M239 38q67 0 111 31t44 87q0 33 -11 58.5t-37 47t-45.5 33t-58.5 31.5l-52.5 27.5t-45.5 30t-42 39t-25 48t-11 63.5q0 81 62 130.5t164 49.5q48 0 92 -10t64 -20l19 -11l-8 -169h-39l-15 134q-54 24 -120 24q-60 0 -92.5 -28.5t-32.5 -81.5q0 -51 35.5 -84t105.5 -70
q91 -48 121 -74q66 -57 66 -144q0 -89 -67 -141.5t-181 -52.5q-51 0 -95.5 10t-63.5 20l-19 10l-1 177h38l22 -149q49 -16 118 -16zM141 782l-17 27l143 122h29l141 -120l-20 -28l-136 74z" />
    <glyph glyph-name="scircumflex" unicode="&#x15d;" horiz-adv-x="436" 
d="M232 42q39 0 62.5 18t23.5 47q0 27 -19.5 47t-49 32.5t-63.5 28.5t-63.5 33t-49 49t-19.5 74q0 63 49 101t124 38q28 0 55.5 -4t55.5 -10t41 -8l-20 -84q-33 4 -81.5 29t-79.5 25q-33 0 -50.5 -16.5t-17.5 -42.5q0 -35 27 -58.5t65 -39t76 -34t65 -53t27 -84.5
q0 -67 -51 -103.5t-123 -36.5q-36 0 -67.5 4t-62.5 10l-42 8l20 84q32 -4 83 -29t85 -25zM85 591l-17 27l143 122h29l141 -120l-20 -28l-136 74z" />
    <glyph glyph-name="Scedilla" unicode="&#x15e;" horiz-adv-x="543" 
d="M272 -200q-68 0 -125 34l13 28q45 -15 92 -15q59 0 59 36q0 21 -30 30t-63 -3l-15 13l27 63q-48 1 -89.5 11t-59.5 19l-18 10l-1 177h38l22 -149q49 -16 118 -16q67 0 111 31t44 87q0 33 -11 58.5t-37 47t-45.5 33t-58.5 31.5l-52.5 27.5t-45.5 30t-42 39t-25 48
t-11 63.5q0 81 62 130.5t164 49.5q48 0 91.5 -10t63.5 -20l20 -11l-8 -169h-39l-15 134q-54 24 -120 24q-60 0 -92.5 -28.5t-32.5 -81.5q0 -51 35.5 -84t105.5 -70q91 -48 121 -74q66 -57 66 -144q0 -84 -59 -135t-162 -58l5 -39q48 7 78 -11.5t30 -54.5q0 -34 -31 -58
t-78 -24z" />
    <glyph glyph-name="scedilla" unicode="&#x15f;" horiz-adv-x="437" 
d="M223 -200q-68 0 -125 34l13 28q45 -15 92 -15q59 0 59 36q0 21 -30 30t-63 -3l-15 13l29 68q-27 2 -53 6t-50 8.5l-35 6.5l20 84q32 -4 83 -29t85 -25q39 0 62.5 18t23.5 47q0 27 -19.5 47t-49 32.5t-63.5 28.5t-63.5 33t-49 49t-19.5 74q0 63 49 101t124 38
q28 0 55.5 -4t55.5 -10t41 -8l-20 -84q-33 4 -81.5 29t-79.5 25q-33 0 -50.5 -16.5t-17.5 -42.5q0 -35 27 -58.5t65 -39t76 -34t65 -53t27 -84.5q0 -67 -50.5 -103t-122.5 -37l6 -42q48 7 78 -11.5t30 -54.5q0 -34 -31 -58t-78 -24z" />
    <glyph glyph-name="Scaron" unicode="&#x160;" horiz-adv-x="540" 
d="M239 38q67 0 111 31t44 87q0 33 -11 58.5t-37 47t-45.5 33t-58.5 31.5l-52.5 27.5t-45.5 30t-42 39t-25 48t-11 63.5q0 81 62 130.5t164 49.5q48 0 92 -10t64 -20l19 -11l-8 -169h-39l-15 134q-54 24 -120 24q-60 0 -92.5 -28.5t-32.5 -81.5q0 -51 35.5 -84t105.5 -70
q91 -48 121 -74q66 -57 66 -144q0 -89 -67 -141.5t-181 -52.5q-51 0 -95.5 10t-63.5 20l-19 10l-1 177h38l22 -149q49 -16 118 -16zM429 935l17 -27l-143 -122h-29l-141 120l20 28l136 -74z" />
    <glyph glyph-name="scaron" unicode="&#x161;" horiz-adv-x="436" 
d="M232 42q39 0 62.5 18t23.5 47q0 27 -19.5 47t-49 32.5t-63.5 28.5t-63.5 33t-49 49t-19.5 74q0 63 49 101t124 38q28 0 55.5 -4t55.5 -10t41 -8l-20 -84q-33 4 -81.5 29t-79.5 25q-33 0 -50.5 -16.5t-17.5 -42.5q0 -35 27 -58.5t65 -39t76 -34t65 -53t27 -84.5
q0 -67 -51 -103.5t-123 -36.5q-36 0 -67.5 4t-62.5 10l-42 8l20 84q32 -4 83 -29t85 -25zM374 739l17 -27l-143 -122h-29l-141 120l20 28l136 -74z" />
    <glyph glyph-name="Tcommaaccent" unicode="&#x162;" horiz-adv-x="624" 
d="M34 700h573l-21 -184h-37l-7 126l-176 9v-607l80 -13v-31h-258v31l80 13v607l-169 -9l-37 -126h-37zM266 -320l-18 24q37 22 63.5 56.5t30.5 70.5q-34 -8 -54.5 10t-20.5 46q0 27 18 43.5t46 16.5t46.5 -18.5t18.5 -53.5q0 -59 -36.5 -112t-93.5 -83z" />
    <glyph glyph-name="tcommaaccent" unicode="&#x163;" horiz-adv-x="384" 
d="M34 455v22l64 23l73 116h21l-1 -116h170v-55l-170 8v-305q0 -96 77 -96q23 0 46.5 5t35.5 9l12 5v-37q-6 -5 -17 -12.5t-45 -19.5t-69 -12q-132 0 -132 157v226q0 57 4 81zM159 -319l-18 24q37 22 63.5 56.5t30.5 70.5q-34 -8 -54.5 10t-20.5 46q0 27 18 43.5t46 16.5
t46.5 -18.5t18.5 -53.5q0 -59 -36.5 -112t-93.5 -83z" />
    <glyph glyph-name="Tcaron" unicode="&#x164;" horiz-adv-x="622" 
d="M33 700h573l-21 -184h-37l-7 126l-176 9v-607l80 -13v-31h-258v31l80 13v607l-169 -9l-37 -126h-37zM457 932l17 -27l-143 -122h-29l-141 120l20 28l136 -74z" />
    <glyph glyph-name="tcaron" unicode="&#x165;" horiz-adv-x="384" 
d="M34 455v22l64 23l73 116h21l-1 -116h170v-55l-170 8v-305q0 -96 77 -96q23 0 46.5 5t35.5 9l12 5v-37q-6 -5 -17 -12.5t-45 -19.5t-69 -12q-132 0 -132 157v226q0 57 4 81zM273 525l-18 22q82 47 91 113q-33 -8 -52.5 8t-19.5 42q0 24 17 38.5t44 14.5t44.5 -16.5
t17.5 -47.5q0 -53 -34.5 -100t-89.5 -74z" />
    <glyph glyph-name="Tbar" unicode="&#x166;" horiz-adv-x="622" 
d="M119 327v52h148v272l-169 -9l-37 -126h-37l9 184h573l-21 -184h-37l-7 126l-176 9v-272h148v-52h-148v-283l80 -13v-31h-258v31l80 13v283h-148z" />
    <glyph glyph-name="tbar" unicode="&#x167;" horiz-adv-x="387" 
d="M46 255v59h53v59q0 57 4 81l-69 1v22l64 23l73 116h21l-1 -116h170v-55l-170 8v-139h159v-59h-159v-107q0 -96 77 -96q23 0 46.5 5t35.5 9l12 5v-37q-6 -5 -17 -12.5t-45 -19.5t-69 -12q-132 0 -132 157v108h-53z" />
    <glyph glyph-name="Utilde" unicode="&#x168;" horiz-adv-x="742" 
d="M634 655v-371q0 -56 -12.5 -105.5t-40.5 -94.5t-81 -71.5t-126 -26.5q-127 0 -196 73.5t-69 203.5v393l-80 13v31h258v-31l-80 -14v-404q0 -97 45 -154.5t126 -57.5q90 0 136.5 59.5t46.5 162.5v394l-80 14v31h233v-31zM442 783q-28 0 -73 27.5t-63 27.5q-38 0 -64 -52
l-27 7q8 47 34.5 79t72.5 32q30 0 73 -27.5t60 -27.5q37 0 66 51l27 -6q-20 -111 -106 -111z" />
    <glyph glyph-name="utilde" unicode="&#x169;" horiz-adv-x="620" 
d="M514 441v-358q0 -43 37 -43h31v-27q-31 -23 -76 -23q-71 0 -82 69q-84 -69 -167 -69q-71 0 -113 49.5t-42 129.5v282l-81 8v31l158 15l20 -5l-4 -29v-291q0 -50 24.5 -83t78.5 -33q59 0 127 34q-4 52 -4 101v252l-81 8v31l158 15l20 -5zM373 590q-28 0 -73 27.5t-63 27.5
q-38 0 -64 -52l-27 7q8 47 34.5 79t72.5 32q30 0 73 -27.5t60 -27.5q37 0 66 51l27 -6q-20 -111 -106 -111z" />
    <glyph glyph-name="Umacron" unicode="&#x16a;" horiz-adv-x="742" 
d="M634 655v-371q0 -56 -12.5 -105.5t-40.5 -94.5t-81 -71.5t-126 -26.5q-127 0 -196 73.5t-69 203.5v393l-80 13v31h258v-31l-80 -14v-404q0 -97 45 -154.5t126 -57.5q90 0 136.5 59.5t46.5 162.5v394l-80 14v31h233v-31zM274 783v59h234v-59h-234z" />
    <glyph glyph-name="umacron" unicode="&#x16b;" horiz-adv-x="620" 
d="M514 441v-358q0 -43 37 -43h31v-27q-31 -23 -76 -23q-71 0 -82 69q-84 -69 -167 -69q-71 0 -113 49.5t-42 129.5v282l-81 8v31l158 15l20 -5l-4 -29v-291q0 -50 24.5 -83t78.5 -33q59 0 127 34q-4 52 -4 101v252l-81 8v31l158 15l20 -5zM181 624v59h234v-59h-234z" />
    <glyph glyph-name="Ubreve" unicode="&#x16c;" horiz-adv-x="742" 
d="M634 655v-371q0 -56 -12.5 -105.5t-40.5 -94.5t-81 -71.5t-126 -26.5q-127 0 -196 73.5t-69 203.5v393l-80 13v31h258v-31l-80 -14v-404q0 -97 45 -154.5t126 -57.5q90 0 136.5 59.5t46.5 162.5v394l-80 14v31h233v-31zM385 763q-57 0 -95.5 37.5t-43.5 108.5l24 6
q14 -39 44.5 -61t70.5 -22q38 0 69.5 22.5t45.5 60.5l24 -6q-6 -68 -42 -107t-97 -39z" />
    <glyph glyph-name="ubreve" unicode="&#x16d;" horiz-adv-x="620" 
d="M514 441v-358q0 -43 37 -43h31v-27q-31 -23 -76 -23q-71 0 -82 69q-84 -69 -167 -69q-71 0 -113 49.5t-42 129.5v282l-81 8v31l158 15l20 -5l-4 -29v-291q0 -50 24.5 -83t78.5 -33q59 0 127 34q-4 52 -4 101v252l-81 8v31l158 15l20 -5zM304 590q-57 0 -95.5 37.5
t-43.5 108.5l24 6q14 -39 44.5 -61t70.5 -22q38 0 69.5 22.5t45.5 60.5l24 -6q-6 -68 -42 -107t-97 -39z" />
    <glyph glyph-name="Uring" unicode="&#x16e;" horiz-adv-x="742" 
d="M634 655v-371q0 -56 -12.5 -105.5t-40.5 -94.5t-81 -71.5t-126 -26.5q-127 0 -196 73.5t-69 203.5v393l-80 13v31h258v-31l-80 -14v-404q0 -97 45 -154.5t126 -57.5q90 0 136.5 59.5t46.5 162.5v394l-80 14v31h233v-31zM280 862q0 45 29.5 72t73.5 27t73.5 -27t29.5 -72
t-29.5 -72t-73.5 -27t-73.5 27t-29.5 72zM437 862q0 58 -54 58t-54 -58t54 -58t54 58z" />
    <glyph glyph-name="uring" unicode="&#x16f;" horiz-adv-x="620" 
d="M514 441v-358q0 -43 37 -43h31v-27q-31 -23 -76 -23q-71 0 -82 69q-84 -69 -167 -69q-71 0 -113 49.5t-42 129.5v282l-81 8v31l158 15l20 -5l-4 -29v-291q0 -50 24.5 -83t78.5 -33q59 0 127 34q-4 52 -4 101v252l-81 8v31l158 15l20 -5zM204 689q0 45 29.5 72t73.5 27
t73.5 -27t29.5 -72t-29.5 -72t-73.5 -27t-73.5 27t-29.5 72zM361 689q0 58 -54 58t-54 -58t54 -58t54 58z" />
    <glyph glyph-name="Uhungarumlaut" unicode="&#x170;" horiz-adv-x="742" 
d="M634 655v-371q0 -56 -12.5 -105.5t-40.5 -94.5t-81 -71.5t-126 -26.5q-127 0 -196 73.5t-69 203.5v393l-80 13v31h258v-31l-80 -14v-404q0 -97 45 -154.5t126 -57.5q90 0 136.5 59.5t46.5 162.5v394l-80 14v31h233v-31zM308 750l-28 30l149 177l62 -64zM496 750l-28 30
l149 177l62 -64z" />
    <glyph glyph-name="uhungarumlaut" unicode="&#x171;" horiz-adv-x="620" 
d="M514 441v-358q0 -43 37 -43h31v-27q-31 -23 -76 -23q-71 0 -82 69q-84 -69 -167 -69q-71 0 -113 49.5t-42 129.5v282l-81 8v31l158 15l20 -5l-4 -29v-291q0 -50 24.5 -83t78.5 -33q59 0 127 34q-4 52 -4 101v252l-81 8v31l158 15l20 -5zM191 591l-28 30l149 177l62 -64z
M379 591l-28 30l149 177l62 -64z" />
    <glyph glyph-name="Uogonek" unicode="&#x172;" horiz-adv-x="748" 
d="M399 -201q-41 0 -72.5 19.5t-31.5 60.5q0 73 85 107h-3q-127 0 -196 73.5t-69 203.5v393l-80 13v31h258v-31l-80 -14v-404q0 -97 45 -154.5t126 -57.5q90 0 136.5 59.5t46.5 162.5v394l-80 14v31h233v-31l-80 -14v-371q0 -50 -10 -95t-32 -87t-62.5 -71.5t-95.5 -39.5
q-79 -32 -79 -91q0 -27 19 -42t48 -15q16 0 34 4t27 8l10 4v-28q-37 -32 -97 -32z" />
    <glyph glyph-name="uogonek" unicode="&#x173;" horiz-adv-x="620" 
d="M506 -197q-41 0 -72.5 19.5t-31.5 60.5q0 74 88 108q-56 8 -66 68q-84 -69 -167 -69q-71 0 -113 49.5t-42 129.5v282l-81 8v31l158 15l20 -5l-4 -29v-291q0 -50 24.5 -83t78.5 -33q59 0 127 34q-4 52 -4 101v252l-81 8v31l158 15l20 -5l-4 -59v-358q0 -43 37 -43h31v-27
q-15 -11 -37 -17q-80 -32 -80 -92q0 -27 19 -42t48 -15q16 0 34 4t28 8l9 4v-28q-37 -32 -97 -32z" />
    <glyph glyph-name="Wcircumflex" unicode="&#x174;" horiz-adv-x="983" 
d="M985 669l-66 -13q-22 -54 -65 -201l-126 -455l-90 -6l-124 461q-7 26 -12.5 53.5t-7.5 42.5l-2 15h-4q-7 -59 -20 -109l-115 -457l-88 -6l-200 662l-76 13v31h259v-31l-84 -13l128 -438q8 -29 15 -58.5t9 -43.5l3 -15h4q10 52 25 117l118 482l79 5l128 -492q8 -29 14 -59
t8 -45l2 -15h4q9 53 28 118l87 335q21 80 25 109l-84 13v31h228v-31zM355 783l-17 27l143 122h29l141 -120l-20 -28l-136 74z" />
    <glyph glyph-name="wcircumflex" unicode="&#x175;" horiz-adv-x="831" 
d="M758 456l-160 -456l-77 -5l-92 339l-19 83h-4q-7 -48 -16 -85l-83 -332l-85 -5l-157 461l-60 13v31h220v-31l-69 -13l86 -270q8 -26 15 -55.5l11 -46.5l3 -16h4q9 55 25 116l81 316l78 7l91 -315q8 -28 14 -58.5t8 -47.5l3 -16h5q13 62 31 122l81 264l-70 13v31h205v-31z
M275 591l-17 27l143 122h29l141 -120l-20 -28l-136 74z" />
    <glyph glyph-name="Ycircumflex" unicode="&#x176;" horiz-adv-x="632" 
d="M369 299v-255l80 -13v-31h-258v31l80 13v255l-230 357l-58 13v31h239v-31l-77 -13l143 -234l43 -83h4q17 38 45 89l93 159q23 42 23 65l-68 17v31h205v-31l-59 -15zM188 760l-17 27l143 122h29l141 -120l-20 -28l-136 74z" />
    <glyph glyph-name="ycircumflex" unicode="&#x177;" horiz-adv-x="574" 
d="M164 -250q32 119 98 232l-193 474l-65 13v31h233v-31l-65 -13l97 -263l36 -116h4q14 53 34 113l90 266l-75 13v31h212v-31l-69 -13l-172 -457q-24 -63 -41.5 -126.5t-23.5 -95.5l-6 -32zM162 591l-17 27l143 122h29l141 -120l-20 -28l-136 74z" />
    <glyph glyph-name="Ydieresis" unicode="&#x178;" horiz-adv-x="632" 
d="M369 299v-255l80 -13v-31h-258v31l80 13v255l-230 357l-58 13v31h239v-31l-77 -13l143 -234l43 -83h4q17 38 45 89l93 159q23 42 23 65l-68 17v31h205v-31l-59 -15zM224 795q-23 0 -38.5 17t-15.5 40q0 24 16 40t41 16q26 0 40.5 -15t14.5 -39q0 -25 -16 -42t-42 -17z
M423 795q-23 0 -38.5 17t-15.5 40q0 24 16 40t41 16q26 0 40.5 -15t14.5 -39q0 -25 -16 -42t-42 -17z" />
    <glyph glyph-name="Zacute" unicode="&#x179;" horiz-adv-x="591" 
d="M135 643l-37 -127h-37l9 184h463v-25l-375 -626l319 8l30 123h37l-6 -180h-501v25l375 626zM276 749l-28 30l149 177l62 -64z" />
    <glyph glyph-name="zacute" unicode="&#x17a;" horiz-adv-x="472" 
d="M372 54l16 86h38l-9 -140h-377v10l270 443l-205 -9l-16 -84h-35l6 140h362v-10l-271 -443zM198 591l-28 30l149 177l62 -64z" />
    <glyph glyph-name="Zdotaccent" unicode="&#x17b;" horiz-adv-x="591" 
d="M135 643l-37 -127h-37l9 184h463v-25l-375 -626l319 8l30 123h37l-6 -180h-501v25l375 626zM298 783q-24 0 -41.5 17t-17.5 42q0 24 18.5 41.5t42.5 17.5t41 -17t17 -42q0 -24 -18 -41.5t-42 -17.5z" />
    <glyph glyph-name="zdotaccent" unicode="&#x17c;" horiz-adv-x="472" 
d="M372 54l16 86h38l-9 -140h-377v10l270 443l-205 -9l-16 -84h-35l6 140h362v-10l-271 -443zM247 590q-24 0 -41.5 17t-17.5 42q0 24 18.5 41.5t42.5 17.5t41 -17t17 -42q0 -24 -18 -41.5t-42 -17.5z" />
    <glyph glyph-name="Zcaron" unicode="&#x17d;" horiz-adv-x="591" 
d="M135 643l-37 -127h-37l9 184h463v-25l-375 -626l319 8l30 123h37l-6 -180h-501v25l375 626zM438 926l17 -27l-143 -122h-29l-141 120l20 28l136 -74z" />
    <glyph glyph-name="zcaron" unicode="&#x17e;" horiz-adv-x="472" 
d="M372 54l16 86h38l-9 -140h-377v10l270 443l-205 -9l-16 -84h-35l6 140h362v-10l-271 -443zM378 739l17 -27l-143 -122h-29l-141 120l20 28l136 -74z" />
    <glyph glyph-name="florin" unicode="&#x192;" horiz-adv-x="392" 
d="M117 -70v511l-96 1v58h97v47q0 102 47 157.5t134 55.5q30 0 75 -9t67 -11l-8 -72q-27 2 -70.5 12.5t-66.5 10.5q-49 0 -67.5 -29.5t-18.5 -80.5v-81h171l-5 -63l-166 2v-475q0 -102 -47 -157.5t-134 -55.5q-30 0 -75 9t-67 11l8 72q27 -2 70.5 -12.5t66.5 -10.5
q49 0 67 29.5t18 80.5z" />
    <glyph glyph-name="Aringacute" unicode="&#x1fa;" horiz-adv-x="684" 
d="M183 203l-16 -48q-21 -59 -30 -111l84 -13v-31h-234v31l75 13l241 657l74 6l247 -663l63 -13v-31h-243v31l78 13l-57 159h-282zM322 623h-4q-11 -54 -27 -101l-91 -269h246l-97 266q-8 22 -15 48t-10 41zM240 837q0 38 27 61t67 23t67 -23t27 -61t-27 -61.5t-67 -23.5
t-67 23.5t-27 61.5zM383 837q0 49 -49 49q-50 0 -50 -49q0 -50 50 -50q49 0 49 50zM311 949l-26 27l137 158l57 -58z" />
    <glyph glyph-name="aringacute" unicode="&#x1fb;" horiz-adv-x="519" 
d="M329 59q-69 -64 -159 -64q-60 0 -94 34.5t-34 86.5q0 125 150 152q53 9 136 9v54q0 60 -21.5 87.5t-85.5 27.5q-31 0 -68 -6t-59 -12l-22 -5v34q9 6 24.5 15t63.5 23.5t94 14.5q87 0 126 -47t39 -140v-240q0 -43 37 -43h31v-27q-31 -23 -76 -23q-71 0 -82 69zM214 57
q51 0 115 38q-3 28 -3 71v71q-53 1 -111 -14q-82 -21 -82 -93q0 -33 21 -53t60 -20zM154 675q0 45 29.5 72t73.5 27t73.5 -27t29.5 -72t-29.5 -72t-73.5 -27t-73.5 27t-29.5 72zM311 675q0 58 -54 58t-54 -58t54 -58t54 58zM203 809l-26 27l137 160l58 -58z" />
    <glyph glyph-name="AEacute" unicode="&#x1fc;" horiz-adv-x="918" 
d="M543 333v-283l264 4l27 119h37l-4 -173h-502v31l80 13v159h-239l-25 -48l-52 -111l84 -13v-31h-234v31l75 13l344 613l-70 12v31h529l-6 -170h-41l-13 114l-254 6v-267l234 6v-61zM397 549l-163 -296h211v395q-20 -47 -48 -99zM595 750l-28 30l149 177l62 -64z" />
    <glyph glyph-name="aeacute" unicode="&#x1fd;" horiz-adv-x="797" 
d="M748 257h-327q2 -91 50.5 -148t128.5 -57q30 0 62 6t49 12l17 6v-34q-7 -6 -20.5 -14.5t-57.5 -23t-90 -14.5q-139 0 -200 111q-70 -106 -190 -106q-60 0 -94 34.5t-34 86.5q0 125 150 152q53 9 135 9v1q1 8 1 53q0 60 -21.5 87.5t-85.5 27.5q-31 0 -68 -6t-59 -12
l-22 -5v34q9 6 24.5 15t63.5 23.5t94 14.5q103 0 136 -78q66 78 167 78q104 0 153 -65.5t38 -187.5zM553 459q-54 0 -88.5 -41.5t-41.5 -113.5l234 6q-1 69 -23 109t-81 40zM326 237q-53 1 -111 -14q-82 -21 -82 -93q0 -33 21 -53t60 -20q44 0 78.5 28t46.5 65
q-13 44 -13 87zM408 590l-28 30l149 177l62 -64z" />
    <glyph glyph-name="Oslashacute" unicode="&#x1fe;" horiz-adv-x="769" 
d="M349 750l-28 30l149 177l62 -64zM399 33q103 0 159 83.5t56 212.5q0 86 -27.5 161.5t-85 126t-133.5 50.5q-102 0 -157.5 -85t-55.5 -218q0 -82 27.5 -156t84.5 -124.5t132 -50.5zM373 -14q-142 0 -231 101.5t-89 259.5q0 69 20.5 133t60.5 117t108 85t154 32
q142 0 231 -101.5t89 -259.5q0 -69 -20.5 -133t-60.5 -117t-108 -85t-154 -32z" />
    <glyph glyph-name="oslashacute" unicode="&#x1ff;" horiz-adv-x="574" 
d="M264 590l-28 30l149 177l62 -64zM286 39q143 0 143 210q0 97 -37.5 154.5t-103.5 57.5q-143 0 -143 -210q0 -97 37.5 -154.5t103.5 -57.5zM274 -10q-104 0 -164 68.5t-60 180.5q0 120 65 195.5t185 75.5q104 0 164 -68.5t60 -180.5q0 -120 -65 -195.5t-185 -75.5z" />
    <glyph glyph-name="Scommaaccent" unicode="&#x218;" horiz-adv-x="540" 
d="M239 38q67 0 111 31t44 87q0 33 -11 58.5t-37 47t-45.5 33t-58.5 31.5l-52.5 27.5t-45.5 30t-42 39t-25 48t-11 63.5q0 81 62 130.5t164 49.5q48 0 92 -10t64 -20l19 -11l-8 -169h-39l-15 134q-54 24 -120 24q-60 0 -92.5 -28.5t-32.5 -81.5q0 -51 35.5 -84t105.5 -70
q91 -48 121 -74q66 -57 66 -144q0 -89 -67 -141.5t-181 -52.5q-51 0 -95.5 10t-63.5 20l-19 10l-1 177h38l22 -149q49 -16 118 -16zM201 -320l-18 24q37 22 63.5 56.5t30.5 70.5q-34 -8 -54.5 10t-20.5 46q0 27 18 43.5t46 16.5t46.5 -18.5t18.5 -53.5q0 -59 -36.5 -112
t-93.5 -83z" />
    <glyph glyph-name="scommaaccent" unicode="&#x219;" horiz-adv-x="436" 
d="M232 42q39 0 62.5 18t23.5 47q0 27 -19.5 47t-49 32.5t-63.5 28.5t-63.5 33t-49 49t-19.5 74q0 63 49 101t124 38q28 0 55.5 -4t55.5 -10t41 -8l-20 -84q-33 4 -81.5 29t-79.5 25q-33 0 -50.5 -16.5t-17.5 -42.5q0 -35 27 -58.5t65 -39t76 -34t65 -53t27 -84.5
q0 -67 -51 -103.5t-123 -36.5q-36 0 -67.5 4t-62.5 10l-42 8l20 84q32 -4 83 -29t85 -25zM148 -320l-18 24q37 22 63.5 56.5t30.5 70.5q-34 -8 -54.5 10t-20.5 46q0 27 18 43.5t46 16.5t46.5 -18.5t18.5 -53.5q0 -59 -36.5 -112t-93.5 -83z" />
    <glyph glyph-name="uni021A" unicode="&#x21a;" horiz-adv-x="624" 
d="M34 700h573l-21 -184h-37l-7 126l-176 9v-607l80 -13v-31h-258v31l80 13v607l-169 -9l-37 -126h-37zM266 -320l-18 24q37 22 63.5 56.5t30.5 70.5q-34 -8 -54.5 10t-20.5 46q0 27 18 43.5t46 16.5t46.5 -18.5t18.5 -53.5q0 -59 -36.5 -112t-93.5 -83z" />
    <glyph glyph-name="uni021B" unicode="&#x21b;" horiz-adv-x="384" 
d="M34 455v22l64 23l73 116h21l-1 -116h170v-55l-170 8v-305q0 -96 77 -96q23 0 46.5 5t35.5 9l12 5v-37q-6 -5 -17 -12.5t-45 -19.5t-69 -12q-132 0 -132 157v226q0 57 4 81zM159 -319l-18 24q37 22 63.5 56.5t30.5 70.5q-34 -8 -54.5 10t-20.5 46q0 27 18 43.5t46 16.5
t46.5 -18.5t18.5 -53.5q0 -59 -36.5 -112t-93.5 -83z" />
    <glyph glyph-name="circumflex" unicode="&#x2c6;" horiz-adv-x="384" 
d="M50 562l-17 27l143 122h29l141 -120l-20 -28l-136 74z" />
    <glyph glyph-name="caron" unicode="&#x2c7;" horiz-adv-x="384" 
d="M330 712l17 -27l-143 -122h-29l-141 120l20 28l136 -74z" />
    <glyph glyph-name="breve" unicode="&#x2d8;" horiz-adv-x="398" 
d="M199 516q-57 0 -95.5 37.5t-43.5 108.5l24 6q14 -39 44.5 -61t70.5 -22q38 0 69.5 22.5t45.5 60.5l24 -6q-6 -68 -42 -107t-97 -39z" />
    <glyph glyph-name="dotaccent" unicode="&#x2d9;" horiz-adv-x="186" 
d="M92 508q-24 0 -41.5 17t-17.5 42q0 24 18.5 41.5t42.5 17.5t41 -17t17 -42q0 -24 -18 -41.5t-42 -17.5z" />
    <glyph glyph-name="ring" unicode="&#x2da;" horiz-adv-x="308" 
d="M42 624q0 45 29.5 72t73.5 27t73.5 -27t29.5 -72t-29.5 -72t-73.5 -27t-73.5 27t-29.5 72zM199 624q0 58 -54 58t-54 -58t54 -58t54 58z" />
    <glyph glyph-name="ogonek" unicode="&#x2db;" horiz-adv-x="213" 
d="M118 -194q-41 0 -72.5 19.5t-31.5 60.5q0 79 104 114h43q-84 -32 -84 -93q0 -27 19 -42t48 -15q16 0 34 4t28 8l9 4v-28q-37 -32 -97 -32z" />
    <glyph glyph-name="tilde" unicode="&#x2dc;" horiz-adv-x="424" 
d="M272 541q-28 0 -73 27.5t-63 27.5q-38 0 -64 -52l-27 7q8 47 34.5 79t72.5 32q30 0 73 -27.5t60 -27.5q37 0 66 51l27 -6q-20 -111 -106 -111z" />
    <glyph glyph-name="hungarumlaut" unicode="&#x2dd;" horiz-adv-x="507" 
d="M90 500l-28 30l149 177l62 -64zM278 500l-28 30l149 177l62 -64z" />
    <glyph glyph-name="afii10023" unicode="&#x401;" horiz-adv-x="600" 
d="M225 333v-283l264 4l27 119h37l-4 -173h-502v31l80 13v612l-80 13v31h492l-6 -170h-41l-13 114l-254 6v-267l234 6v-61zM227 782q-23 0 -38.5 17t-15.5 40q0 24 16 40t41 16q26 0 40.5 -15t14.5 -39q0 -25 -16 -42t-42 -17zM426 782q-23 0 -38.5 17t-15.5 40q0 24 16 40
t41 16q26 0 40.5 -15t14.5 -39q0 -25 -16 -42t-42 -17z" />
    <glyph glyph-name="afii10051" unicode="&#x402;" horiz-adv-x="758" 
d="M27 700h584l-11 -184h-37l-17 126l-178 9v-242q66 26 159 26q100 0 145.5 -48.5t45.5 -150.5q0 -134 -48.5 -203t-154.5 -109l-16 33q73 36 97 92t24 172q0 80 -32 115.5t-96 35.5q-25 0 -56 -2t-50 -4l-18 -3v-319l80 -13v-31h-258v31l80 13v607l-178 -9l-27 -126h-37z
" />
    <glyph glyph-name="afii10052" unicode="&#x403;" horiz-adv-x="558" 
d="M225 650v-606l90 -13v-31h-268v31l80 13v612l-80 13v31h492l-6 -170h-41l-13 114zM283 750l-28 30l149 177l62 -64z" />
    <glyph glyph-name="afii10053" unicode="&#x404;" horiz-adv-x="662" 
d="M437 38q49 0 107 15l21 150h38v-178q-78 -39 -177 -39q-174 0 -274 93t-100 259q0 103 39.5 187.5t120 136.5t190.5 52q58 0 109 -10t73 -20l22 -10l-8 -170h-39l-15 134q-60 24 -135 24q-119 0 -185 -77.5t-70 -209.5l318 10v-78l-316 8q12 -123 85.5 -200t195.5 -77z
" />
    <glyph glyph-name="afii10054" unicode="&#x405;" horiz-adv-x="540" 
d="M239 38q67 0 111 31t44 87q0 33 -11 58.5t-37 47t-45.5 33t-58.5 31.5l-52.5 27.5t-45.5 30t-42 39t-25 48t-11 63.5q0 81 62 130.5t164 49.5q48 0 92 -10t64 -20l19 -11l-8 -169h-39l-15 134q-54 24 -120 24q-60 0 -92.5 -28.5t-32.5 -81.5q0 -51 35.5 -84t105.5 -70
q91 -48 121 -74q66 -57 66 -144q0 -89 -67 -141.5t-181 -52.5q-51 0 -95.5 10t-63.5 20l-19 10l-1 177h38l22 -149q49 -16 118 -16z" />
    <glyph glyph-name="afii10055" unicode="&#x406;" horiz-adv-x="350" 
d="M224 656v-612l80 -23v-21h-258v21l80 23v612l-80 23v21h258v-21z" />
    <glyph glyph-name="afii10056" unicode="&#x407;" horiz-adv-x="352" 
d="M225 656v-612l80 -13v-31h-258v31l80 13v612l-80 13v31h258v-31zM76 763q-23 0 -38.5 17t-15.5 40q0 24 16 40t41 16q26 0 40.5 -15t14.5 -39q0 -25 -16 -42t-42 -17zM275 763q-23 0 -38.5 17t-15.5 40q0 24 16 40t41 16q26 0 40.5 -15t14.5 -39q0 -25 -16 -42t-42 -17z
" />
    <glyph glyph-name="afii10057" unicode="&#x408;" horiz-adv-x="339" 
d="M219 656v-525q0 -72 -17 -118q-12 -31 -33.5 -63.5t-37 -50l-50.5 -55.5q-8 -9 -12 -13l-33 24l42 58q27 37 35 72t8 94v577l-80 13v31h258v-31z" />
    <glyph glyph-name="afii10058" unicode="&#x409;" horiz-adv-x="941" 
d="M100 669v31h531v-31l-80 -13v-231h122q113 0 173 -57.5t60 -153.5t-70.5 -155t-181.5 -59h-281v31l80 13v602h-213q-6 -186 -18.5 -317.5t-43.5 -225.5q-26 -77 -72 -100t-96 -3v82q43 -8 71.5 12.5t48.5 76.5q25 68 37.5 221.5t12.5 263.5zM551 50h110q67 0 106 43.5
t39 120.5q0 73 -41 117t-113 44h-101v-325z" />
    <glyph glyph-name="afii10059" unicode="&#x40a;" horiz-adv-x="1067" 
d="M499 669v31h258v-31l-80 -13v-231h122q113 0 173 -57.5t60 -153.5t-70.5 -155t-181.5 -59h-281v31l80 13v291h-354v-291l80 -13v-31h-258v31l80 13v612l-80 13v31h258v-31l-80 -13v-271h354v271zM677 50h110q67 0 106 43.5t39 120.5q0 73 -41 117t-113 44h-101v-325z" />
    <glyph glyph-name="afii10060" unicode="&#x40b;" horiz-adv-x="802" 
d="M27 700h584l-11 -184h-37l-17 126l-178 9v-246q71 30 174 30q81 0 128 -43t47 -120v-228l80 -13v-31h-247v31l70 13v203q0 125 -121 125q-30 0 -62.5 -3t-50.5 -7l-18 -3v-315l80 -13v-31h-258v31l80 13v607l-178 -9l-27 -126h-37z" />
    <glyph glyph-name="afii10061" unicode="&#x40c;" horiz-adv-x="673" 
d="M225 332v-288l80 -13v-31h-258v31l80 13v612l-80 13v31h258v-31l-80 -13v-274h90l183 274l-68 13v31h219v-31l-74 -13l-207 -278l233 -307q18 -23 30.5 -29.5t41.5 -10.5v-31h-80q-40 0 -58.5 9t-41.5 42l-202 281h-66zM374 749l-28 30l149 177l62 -64z" />
    <glyph glyph-name="afii10062" unicode="&#x40e;" horiz-adv-x="632" 
d="M337 783q-112 0 -184 70l54 61q8 -7 34.5 -36.5t47.5 -42.5t48 -13t48 13t47.5 42.5t34.5 36.5l54 -61q-28 -27 -77 -48.5t-107 -21.5zM310 141l-255 509l-59 19v31h243v-31l-82 -19l165 -336l32 -73h4q7 38 21 75l121 334l-83 19v31h225v-31l-68 -20l-196 -481
q-39 -95 -76 -136.5t-93 -41.5q-20 0 -36.5 5t-23.5 11l-7 5v74q32 -11 62 -11q70 0 106 67z" />
    <glyph glyph-name="afii10145" unicode="&#x40f;" horiz-adv-x="805" 
d="M358 0h-311v31l80 13v612l-80 13v31h258v-31l-80 -13v-606h355v606l-80 13v31h258v-31l-80 -13v-612l80 -13v-31h-313l-22 -184h-43z" />
    <glyph glyph-name="afii10017" unicode="&#x410;" horiz-adv-x="684" 
d="M183 203l-16 -48q-21 -59 -30 -111l84 -13v-31h-234v31l75 13l241 657l74 6l247 -663l63 -13v-31h-243v31l78 13l-57 159h-282zM322 623h-4q-11 -54 -27 -101l-91 -269h246l-97 266q-8 22 -15 48t-10 41z" />
    <glyph glyph-name="afii10018" unicode="&#x411;" horiz-adv-x="622" 
d="M225 50h90q82 0 121 47.5t39 116.5q0 67 -42.5 109t-126.5 42h-81v-315zM47 700h492l-6 -170h-41l-13 114l-254 6v-235h107q121 0 182 -56t61 -145q0 -95 -74 -154.5t-196 -59.5h-258v31l80 13v612l-80 13v31z" />
    <glyph glyph-name="afii10019" unicode="&#x412;" horiz-adv-x="632" 
d="M225 50h100q76 0 118 41t42 108q0 61 -40.5 101t-113.5 40h-106v-290zM450 515q0 58 -36 96.5t-116 38.5h-73v-260h146q37 12 58 46t21 79zM327 0h-280v31l80 13v612l-80 13v31h258q120 0 182.5 -47t62.5 -124q0 -55 -33 -98t-85 -60v-3q64 -13 108.5 -60t44.5 -109
q0 -94 -70 -146.5t-188 -52.5z" />
    <glyph glyph-name="afii10020" unicode="&#x413;" horiz-adv-x="558" 
d="M225 650v-606l90 -13v-31h-268v31l80 13v612l-80 13v31h492l-6 -170h-41l-13 114z" />
    <glyph glyph-name="afii10021" unicode="&#x414;" horiz-adv-x="708" 
d="M204 656l-80 13v31h531v-31l-80 -13v-606h103l-2 -234h-41l-28 184h-543l-27 -184h-41l-2 234h64q63 65 105 226t41 380zM128 50h349v599h-214q-6 -224 -42.5 -375.5t-92.5 -223.5z" />
    <glyph glyph-name="afii10022" unicode="&#x415;" horiz-adv-x="600" 
d="M225 333v-283l264 4l27 119h37l-4 -173h-502v31l80 13v612l-80 13v31h492l-6 -170h-41l-13 114l-254 6v-267l234 6v-61z" />
    <glyph glyph-name="afii10024" unicode="&#x416;" horiz-adv-x="991" 
d="M448 44v288h-68l-202 -281q-23 -33 -40.5 -42t-57.5 -9h-80v31q29 4 41.5 10.5t30.5 29.5l233 307l-207 278l-74 13v31h214v-31l-63 -13l183 -274h90v274l-75 13v31h245v-31l-75 -13v-274h90l183 274l-63 13v31h214v-31l-74 -13l-207 -278l233 -307q18 -23 30.5 -29.5
t41.5 -10.5v-31h-80q-40 0 -57 9t-40 42l-203 281h-68v-288l80 -13v-31h-255v31z" />
    <glyph glyph-name="afii10025" unicode="&#x417;" horiz-adv-x="531" 
d="M240 662q-59 0 -119 -24l-15 -134h-39l-8 170q7 4 20.5 11t62.5 18t105 11q111 0 165 -49t54 -125q0 -69 -42.5 -110.5t-106.5 -55.5v-2q75 -6 117.5 -54.5t42.5 -120.5q0 -88 -68.5 -149.5t-178.5 -61.5q-44 0 -89 10t-67 20l-23 9v178h38l20 -150q57 -15 108 -15
q74 0 117 42t43 114q0 71 -42 109.5t-118 38.5h-54v50h52q73 0 112 38.5t39 103.5q0 62 -29 95t-97 33z" />
    <glyph glyph-name="afii10026" unicode="&#x418;" horiz-adv-x="804" 
d="M677 656v-612l80 -13v-31h-258v31l80 13v503l3 56h-5q-13 -31 -25 -51l-327 -552h-178v31l80 13v612l-80 13v31h258v-31l-80 -13v-478l-4 -85h6q20 48 34 71l318 536h178v-31z" />
    <glyph glyph-name="afii10027" unicode="&#x419;" horiz-adv-x="804" 
d="M409 783q-112 0 -184 70l54 61q8 -7 34.5 -36.5t47.5 -42.5t48 -13t48 13t47.5 42.5t34.5 36.5l54 -61q-28 -27 -77 -48.5t-107 -21.5zM677 656v-612l80 -13v-31h-258v31l80 13v503l3 56h-5q-13 -31 -25 -51l-327 -552h-178v31l80 13v612l-80 13v31h258v-31l-80 -13v-478
l-4 -85h6q20 48 34 71l318 536h178v-31z" />
    <glyph glyph-name="afii10028" unicode="&#x41a;" horiz-adv-x="673" 
d="M225 332v-288l80 -13v-31h-258v31l80 13v612l-80 13v31h258v-31l-80 -13v-274h90l183 274l-68 13v31h219v-31l-74 -13l-207 -278l233 -307q18 -23 30.5 -29.5t41.5 -10.5v-31h-80q-40 0 -58.5 9t-41.5 42l-202 281h-66z" />
    <glyph glyph-name="afii10029" unicode="&#x41b;" horiz-adv-x="684" 
d="M459 646h-213q-11 -374 -67 -543q-38 -113 -119 -113q-16 0 -29.5 2.5t-18.5 5.5l-6 2v78q12 -2 23 -2q71 0 102 91q25 69 40 227.5t15 261.5l-80 13v31h531v-31l-80 -13v-612l80 -13v-31h-258v31l80 13v602z" />
    <glyph glyph-name="afii10030" unicode="&#x41c;" horiz-adv-x="926" 
d="M186 555v-507l80 -17v-31h-218v31l80 17v608l-80 13v31h198l185 -396l28 -67h2q13 32 30 66l200 397h187v-31l-80 -13v-610l80 -15v-31h-252v31l80 15v495l4 73h-3q-20 -48 -31 -70l-225 -444h-19l-220 461l-26 62h-3q3 -33 3 -68z" />
    <glyph glyph-name="afii10031" unicode="&#x41d;" horiz-adv-x="804" 
d="M677 44l80 -13v-31h-258v31l80 13v291h-354v-291l80 -13v-31h-258v31l80 13v612l-80 13v31h258v-31l-80 -13v-271h354v271l-80 13v31h258v-31l-80 -13v-612z" />
    <glyph glyph-name="afii10032" unicode="&#x41e;" horiz-adv-x="769" 
d="M399 33q103 0 159 83.5t56 212.5q0 86 -27.5 161.5t-85 126t-133.5 50.5q-102 0 -157.5 -85t-55.5 -218q0 -82 27.5 -156t84.5 -124.5t132 -50.5zM373 -14q-142 0 -231 101.5t-89 259.5q0 69 20.5 133t60.5 117t108 85t154 32q142 0 231 -101.5t89 -259.5
q0 -69 -20.5 -133t-60.5 -117t-108 -85t-154 -32z" />
    <glyph glyph-name="afii10033" unicode="&#x41f;" horiz-adv-x="794" 
d="M47 700h700v-31l-80 -13v-612l80 -13v-31h-258v31l80 13v606h-344v-606l80 -13v-31h-258v31l80 13v612l-80 13v31z" />
    <glyph glyph-name="afii10034" unicode="&#x420;" horiz-adv-x="595" 
d="M225 277v-233l101 -13v-31h-279v31l80 13v612l-80 13v31h250q263 0 263 -207q0 -97 -70.5 -156.5t-182.5 -59.5h-82zM225 327h82q72 0 112.5 43.5t40.5 117.5q0 73 -43.5 117.5t-133.5 44.5h-58v-323z" />
    <glyph glyph-name="afii10035" unicode="&#x421;" horiz-adv-x="664" 
d="M437 38q49 0 107 15l21 150h38v-178q-78 -39 -177 -39q-174 0 -274 93t-100 259q0 103 39.5 187.5t120 136.5t190.5 52q58 0 109 -10t73 -20l22 -10l-8 -170h-39l-15 134q-60 24 -135 24q-122 0 -188.5 -82t-66.5 -221q0 -140 75 -230.5t208 -90.5z" />
    <glyph glyph-name="afii10036" unicode="&#x422;" horiz-adv-x="622" 
d="M33 700h573l-21 -184h-37l-7 126l-176 9v-607l80 -13v-31h-258v31l80 13v607l-169 -9l-37 -126h-37z" />
    <glyph glyph-name="afii10037" unicode="&#x423;" horiz-adv-x="632" 
d="M310 141l-255 509l-59 19v31h243v-31l-82 -19l165 -336l32 -73h4q7 38 21 75l121 334l-83 19v31h225v-31l-68 -20l-196 -481q-39 -95 -76 -136.5t-93 -41.5q-20 0 -36.5 5t-23.5 11l-7 5v74q32 -11 62 -11q70 0 106 67z" />
    <glyph glyph-name="afii10038" unicode="&#x424;" horiz-adv-x="866" 
d="M478 717v-65q178 0 263 -73.5t85 -204.5q0 -126 -87 -203t-261 -77v-61l70 -12v-30h-238v30l72 12v61q-178 0 -263 73.5t-85 204.5q0 126 87 203t261 77v65l-70 8v30h236v-30zM729 374q0 111 -69.5 170t-181.5 59v-460q119 0 185 57.5t66 173.5zM132 372
q0 -111 69.5 -170t180.5 -59v460q-119 0 -184.5 -57.5t-65.5 -173.5z" />
    <glyph glyph-name="afii10039" unicode="&#x425;" horiz-adv-x="676" 
d="M500 44l-179 258q-13 -28 -42 -67l-85 -116q-25 -34 -34 -72l80 -16v-31h-234v31l68 16l217 296l-211 312l-65 14v31h259v-31l-87 -13l166 -250q16 27 44 67l75 108q29 42 31 70l-77 18v31h234v-31l-68 -16l-207 -288l228 -321l58 -13v-31h-259v31z" />
    <glyph glyph-name="afii10040" unicode="&#x426;" horiz-adv-x="800" 
d="M699 0h-652v31l80 13v612l-80 13v31h258v-31l-80 -13v-606h344v606l-80 13v31h258v-31l-80 -13v-606h103l-2 -234h-41z" />
    <glyph glyph-name="afii10041" unicode="&#x427;" horiz-adv-x="720" 
d="M90 506v150l-80 13v31h258v-31l-80 -13v-140q0 -93 37 -143t126 -50q38 0 74 3.5t53 7.5l17 3v319l-80 13v31h258v-31l-80 -13v-612l80 -13v-31h-278v31l100 13v248q-75 -24 -169 -24q-236 0 -236 238z" />
    <glyph glyph-name="afii10042" unicode="&#x428;" horiz-adv-x="1084" 
d="M1037 0h-990v31l80 13v612l-80 13v31h258v-31l-80 -13v-606h268v606l-80 13v31h258v-31l-80 -13v-606h268v606l-80 13v31h258v-31l-80 -13v-612l80 -13v-31z" />
    <glyph glyph-name="afii10043" unicode="&#x429;" horiz-adv-x="1090" 
d="M1017 -184l-28 184h-942v31l80 13v612l-80 13v31h258v-31l-80 -13v-606h268v606l-80 13v31h258v-31l-80 -13v-606h268v606l-80 13v31h258v-31l-80 -13v-606h103l-2 -234h-41z" />
    <glyph glyph-name="afii10044" unicode="&#x42a;" horiz-adv-x="745" 
d="M457 669l-102 -13v-231h122q113 0 173 -57.5t60 -153.5t-70.5 -155t-181.5 -59h-281v31l80 13v608l-162 -9l-32 -127h-37l4 184h427v-31zM355 50h110q67 0 106 43.5t39 120.5q0 73 -41 117t-113 44h-101v-325z" />
    <glyph glyph-name="afii10045" unicode="&#x42b;" horiz-adv-x="933" 
d="M225 50h110q67 0 106 43.5t39 120.5q0 73 -41 117t-113 44h-101v-325zM47 669v31h258v-31l-80 -13v-231h122q113 0 173 -57.5t60 -153.5t-70.5 -155t-181.5 -59h-281v31l80 13v612zM806 656v-612l80 -13v-31h-258v31l80 13v612l-80 13v31h258v-31z" />
    <glyph glyph-name="afii10046" unicode="&#x42c;" horiz-adv-x="615" 
d="M225 50h110q67 0 106 43.5t39 120.5q0 73 -41 117t-113 44h-101v-325zM47 669v31h268v-31l-90 -13v-231h122q113 0 173 -57.5t60 -153.5t-70.5 -155t-181.5 -59h-281v31l80 13v612z" />
    <glyph glyph-name="afii10047" unicode="&#x42d;" horiz-adv-x="663" 
d="M226 662q-48 0 -108 -15l-20 -150h-38v178q78 39 177 39q174 0 274 -93t100 -259q0 -103 -39.5 -187.5t-120 -136.5t-190.5 -52q-58 0 -109 10t-73 20l-22 10l8 170h39l15 -134q57 -24 135 -24q118 0 184 76.5t71 209.5l-321 -13v71l320 -7q-9 127 -83.5 207t-198.5 80z
" />
    <glyph glyph-name="afii10048" unicode="&#x42e;" horiz-adv-x="1068" 
d="M672 -14q-139 0 -227.5 97t-92.5 250h-127v-289l75 -13v-31h-253v31l80 13v612l-80 13v31h253v-31l-75 -13v-269h129q5 64 28.5 121.5t63.5 104t104.5 74t144.5 27.5q142 0 231 -101.5t89 -259.5q0 -69 -20.5 -133t-60.5 -117t-108 -85t-154 -32zM698 33q103 0 159 82.5
t56 204.5q0 140 -66.5 243.5t-179.5 103.5q-101 0 -157 -82.5t-56 -204.5q0 -90 27.5 -167.5t84.5 -128.5t132 -51z" />
    <glyph glyph-name="afii10049" unicode="&#x42f;" horiz-adv-x="658" 
d="M79 497q0 93 73.5 148t189.5 55h270v-21l-80 -23v-612l80 -23v-21h-279v21l101 23v247h-114l-150 -226q-32 -48 -52.5 -61t-64.5 -13q-16 0 -31.5 2.5t-23.5 4.5l-7 2v24q29 5 41.5 12t30.5 32l168 235q-68 19 -110 68t-42 126zM332 341h102v309h-78q-85 0 -131 -44
t-46 -110q0 -72 40.5 -113.5t112.5 -41.5z" />
    <glyph glyph-name="afii10065" unicode="&#x430;" horiz-adv-x="524" 
d="M329 59q-69 -64 -159 -64q-60 0 -94 34.5t-34 86.5q0 125 150 152q53 9 136 9v54q0 60 -21.5 87.5t-85.5 27.5q-31 0 -68 -6t-59 -12l-22 -5v34q9 6 24.5 15t63.5 23.5t94 14.5q87 0 126 -47t39 -140v-240q0 -43 37 -43h31v-27q-31 -23 -76 -23q-71 0 -82 69zM214 57
q51 0 115 38q-3 28 -3 71v71q-53 1 -111 -14q-82 -21 -82 -93q0 -33 21 -53t60 -20z" />
    <glyph glyph-name="afii10066" unicode="&#x431;" horiz-adv-x="600" 
d="M498 775h29q0 -64 -19 -98t-72 -48q-24 -6 -116 -24q-101 -20 -143 -77.5t-50 -181.5l6 -1q21 66 72.5 102t119.5 36q105 0 164 -61.5t59 -163.5q0 -125 -63.5 -196.5t-171.5 -71.5q-119 0 -178 72.5t-59 224.5q0 181 58 282.5t190 130.5q15 3 43.5 7.5t51.5 9t38 10.5
q17 6 24 15t17 33zM313 429q-66 0 -103 -51.5t-37 -128.5q0 -88 37.5 -149t102.5 -61q64 0 101 54t37 124q0 99 -36 155.5t-102 56.5z" />
    <glyph glyph-name="afii10067" unicode="&#x432;" horiz-adv-x="563" 
d="M45 469v31h279q83 0 124.5 -32.5t41.5 -90.5q0 -43 -25.5 -72.5t-70.5 -41.5v-4q52 -7 87.5 -36.5t35.5 -78.5q0 -70 -54.5 -107t-135.5 -37h-282v31l79 12v413zM218 48h102q49 0 76 28.5t27 70.5q0 38 -24.5 63t-73.5 25h-107v-187zM397 364q0 39 -24 63.5t-72 24.5h-83
v-171h130q49 26 49 83z" />
    <glyph glyph-name="afii10068" unicode="&#x433;" horiz-adv-x="470" 
d="M317 31v-31h-272v31l79 12v413l-79 13v31h390l1 -160h-42l-16 111l-160 3v-411z" />
    <glyph glyph-name="afii10069" unicode="&#x434;" horiz-adv-x="614" 
d="M100 469v31h469v-31l-80 -13l-1 -406h94l-10 -214h-41l-20 164h-433l-30 -164h-41l-2 214h54q119 102 119 406zM129 50h267v400h-162q0 -147 -28.5 -249.5t-76.5 -150.5z" />
    <glyph glyph-name="afii10070" unicode="&#x435;" horiz-adv-x="521" 
d="M472 257h-327q2 -91 50.5 -148t128.5 -57q30 0 62 6t49 12l17 6v-34q-7 -6 -20.5 -14.5t-57.5 -23t-90 -14.5q-107 0 -170.5 70t-63.5 181q0 121 67 195t164 74q104 0 153 -65.5t38 -187.5zM277 459q-54 0 -88.5 -41.5t-41.5 -113.5l234 6q-1 69 -23 109t-81 40z" />
    <glyph glyph-name="afii10072" unicode="&#x436;" horiz-adv-x="866" 
d="M479 456v-172h74l126 175l-53 10v31h200v-31l-71 -10l-148 -171l188 -225q16 -19 25 -23.5t36 -8.5v-31h-62q-46 0 -63.5 9t-45.5 44l-150 185h-56v-194l61 -13v-31h-223v31l69 13v194h-56l-150 -185q-28 -35 -45 -44t-63 -9h-62v31q3 0 7 1q23 3 32 7.5t23 21.5l187 225
l-149 173l-70 10v31h200v-31l-53 -10l126 -175h73v171l-64 13v32h213v-32z" />
    <glyph glyph-name="afii10073" unicode="&#x437;" horiz-adv-x="451" 
d="M211 458q-26 0 -74 -21.5t-78 -26.5l-15 72q1 0 61 14t107 14q76 0 125 -33.5t49 -94.5q0 -43 -25.5 -75t-75.5 -43v-4q53 -5 85.5 -35.5t32.5 -81.5q0 -67 -57 -110t-141 -43q-50 0 -92.5 13t-60.5 26l-18 13v34q59 -25 149 -25q57 0 91.5 26.5t34.5 72.5q0 42 -31 64
t-84 22h-63v50h65q49 0 73.5 23t24.5 62q0 41 -22 64t-61 23z" />
    <glyph glyph-name="afii10074" unicode="&#x438;" horiz-adv-x="689" 
d="M474 500h170v-31l-80 -13v-406l80 -19v-31h-243v31l70 19v297l5 70h-4q-18 -39 -46 -83l-212 -334h-169v31l79 19v405l-79 14v31h243v-31l-71 -13v-280l-5 -96h4q18 46 50 96z" />
    <glyph glyph-name="afii10075" unicode="&#x439;" horiz-adv-x="689" 
d="M356 601q-112 0 -184 70l54 61q8 -7 34.5 -36.5t47.5 -42.5t48 -13t48 13t47.5 42.5t34.5 36.5l54 -61q-28 -27 -77 -48.5t-107 -21.5zM474 500h170v-31l-80 -13v-406l80 -19v-31h-243v31l70 19v297l5 70h-4q-18 -39 -46 -83l-212 -334h-169v31l79 19v405l-79 14v31h243
v-31l-71 -13v-280l-5 -96h4q18 46 50 96z" />
    <glyph glyph-name="afii10076" unicode="&#x43a;" horiz-adv-x="604" 
d="M124 43v413l-79 13v31h238v-31l-66 -13v-172h74l126 175l-53 10v31h200v-31l-71 -10l-148 -171l188 -225q16 -19 25 -23.5t36 -8.5v-31h-62q-46 0 -63.5 9t-45.5 44l-150 185h-56v-195l70 -12v-31h-243v31z" />
    <glyph glyph-name="afii10077" unicode="&#x43b;" horiz-adv-x="605" 
d="M175 456l-79 13v31h465v-31l-80 -13v-412l80 -13v-31h-253v31l80 13v408h-160q-4 -241 -45 -351.5t-122 -110.5q-12 0 -23 2.5t-16 5.5l-5 2v76q14 -2 24 -2q36 0 63 33t42 89t22 121t7 139z" />
    <glyph glyph-name="afii10078" unicode="&#x43c;" horiz-adv-x="817" 
d="M181 342l-12 -295l72 -16v-31h-205v31l79 16l17 409l-80 13v31h187l134 -285l30 -69h3q15 39 31 71l138 283h188v-31l-81 -13l25 -412l77 -13v-31h-240v31l75 13l-19 307l-2 81h-3q-12 -31 -36 -80l-160 -322h-23l-159 323l-33 79h-3q2 -48 0 -90z" />
    <glyph glyph-name="afii10079" unicode="&#x43d;" horiz-adv-x="678" 
d="M554 456v-412l80 -13v-31h-243v31l70 13v184h-244v-184l71 -13v-31h-243v31l79 13v412l-79 13v31h243v-31l-71 -13v-178h244v178l-70 13v31h243v-31z" />
    <glyph glyph-name="afii10080" unicode="&#x43e;" horiz-adv-x="574" 
d="M286 39q143 0 143 210q0 97 -37.5 154.5t-103.5 57.5q-143 0 -143 -210q0 -97 37.5 -154.5t103.5 -57.5zM274 -10q-104 0 -164 68.5t-60 180.5q0 120 65 195.5t185 75.5q104 0 164 -68.5t60 -180.5q0 -120 -65 -195.5t-185 -75.5z" />
    <glyph glyph-name="afii10081" unicode="&#x43f;" horiz-adv-x="665" 
d="M541 456v-412l80 -13v-31h-243v31l70 13v406h-231v-407l71 -12v-31h-243v31l79 13v412l-79 13v31h576v-31z" />
    <glyph glyph-name="afii10082" unicode="&#x440;" horiz-adv-x="604" 
d="M35 -251v31l80 11v661l-81 8v31l154 14l20 -5l-3 -59q77 69 158 69q91 0 140.5 -67.5t49.5 -165.5q0 -134 -65.5 -210.5t-178.5 -76.5q-29 0 -54 7t-36 13l-11 7v-226l80 -11v-31h-253zM298 45q75 0 116.5 52t41.5 143q0 98 -31.5 147t-101.5 49q-66 0 -119 -35
q4 -36 4 -100v-232q36 -24 90 -24z" />
    <glyph glyph-name="afii10083" unicode="&#x441;" horiz-adv-x="475" 
d="M271 458q-59 0 -92.5 -59t-33.5 -132q0 -96 42.5 -155.5t119.5 -59.5q32 0 63.5 6t46.5 12l15 6v-34q-7 -6 -19 -14.5t-53.5 -23t-85.5 -14.5q-106 0 -165 69.5t-59 181.5q0 117 69.5 193t180.5 76q36 0 79.5 -10t58.5 -12l-20 -81q-27 4 -73 27.5t-74 23.5z" />
    <glyph glyph-name="afii10084" unicode="&#x442;" horiz-adv-x="536" 
d="M315 452v-408l81 -13v-31h-253v31l79 13v408l-134 -5l-24 -109h-30l4 162h463l-1 -162h-30l-20 109z" />
    <glyph glyph-name="afii10085" unicode="&#x443;" horiz-adv-x="574" 
d="M164 -250q32 119 98 232l-193 474l-65 13v31h233v-31l-65 -13l97 -263l36 -116h4q14 53 34 113l90 266l-75 13v31h212v-31l-69 -13l-172 -457q-24 -63 -41.5 -126.5t-23.5 -95.5l-6 -32z" />
    <glyph glyph-name="afii10086" unicode="&#x444;" horiz-adv-x="823" 
d="M367 -208v240q-59 -43 -119 -43q-97 0 -147 66t-50 168q0 125 60 206t162 81q61 0 94 -27v182l-83 10v31l152 15l20 -5v-248q51 42 119 42q98 0 147.5 -66.5t49.5 -166.5q0 -132 -62.5 -209.5t-159.5 -77.5q-26 0 -49.5 7t-34.5 13l-10 7v-225l82 -11v-31h-253v31z
M456 430v-365q31 -20 74 -20q72 0 109 57.5t37 143.5q0 198 -139 198q-45 0 -81 -14zM293 455q-71 0 -108.5 -58t-37.5 -144q0 -94 33.5 -145.5t98.5 -51.5q51 0 88 13v366q-32 20 -74 20z" />
    <glyph glyph-name="afii10087" unicode="&#x445;" horiz-adv-x="599" 
d="M418 43l-137 171l-122 -171l82 -12v-31h-222v31l65 12l169 199l-169 214l-59 13v31h238v-31l-72 -13l124 -163l119 163l-84 13v31h222v-31l-65 -13l-165 -192l181 -220l59 -13v-31h-238v31z" />
    <glyph glyph-name="afii10088" unicode="&#x446;" horiz-adv-x="666" 
d="M541 50h94l-10 -214h-41l-20 164h-519v31l79 13v412l-79 13v31h243v-31l-71 -12v-407h231v406l-70 13v31h243v-31l-80 -13v-406z" />
    <glyph glyph-name="afii10089" unicode="&#x447;" horiz-adv-x="615" 
d="M398 246v210l-70 13v31h243v-31l-80 -13v-412l80 -13v-31h-263v31l90 13v165q-53 -31 -136 -31q-77 0 -125.5 37t-48.5 123v118l-80 13v31h243v-31l-70 -13v-104q0 -58 30 -88.5t87 -30.5q26 0 51 3.5t37 6.5z" />
    <glyph glyph-name="afii10090" unicode="&#x448;" horiz-adv-x="925" 
d="M509 456v-406h199v407l-71 12v31h243v-31l-79 -13v-412l79 -13v-31h-835v31l79 13v412l-79 13v31h243v-31l-71 -12v-407h199v406l-70 13v31h233v-31z" />
    <glyph glyph-name="afii10091" unicode="&#x449;" horiz-adv-x="925" 
d="M847 -167l-37 167h-765v31l79 13v412l-79 13v31h243v-31l-71 -12v-407h199v406l-70 13v31h233v-31l-70 -13v-406h199v407l-71 12v31h243v-31l-79 -13v-406h87l-10 -217h-31z" />
    <glyph glyph-name="afii10092" unicode="&#x44a;" horiz-adv-x="637" 
d="M32 360l4 140h345v-31l-81 -13v-133h107q91 0 142.5 -38t51.5 -113q0 -82 -58 -127t-157 -45h-259v31l80 13v410l-124 -5l-20 -89h-31zM300 48h96q49 0 77 32t28 83q0 53 -28.5 82.5t-85.5 29.5h-87v-227z" />
    <glyph glyph-name="afii10093" unicode="&#x44b;" horiz-adv-x="829" 
d="M612 44v412l-70 13v31h243v-31l-80 -13v-412l80 -13v-31h-243v31zM124 44v411l-79 14v31h253v-31l-81 -13v-133h107q91 0 142.5 -38t51.5 -113q0 -82 -58 -127t-157 -45h-259v31zM217 48h96q49 0 77 32t28 83q0 53 -28.5 82.5t-85.5 29.5h-87v-227z" />
    <glyph glyph-name="afii10094" unicode="&#x44c;" horiz-adv-x="554" 
d="M124 44v411l-79 14v31h253v-31l-81 -13v-133h107q91 0 142.5 -38t51.5 -113q0 -82 -58 -127t-157 -45h-259v31zM217 48h96q49 0 77 32t28 83q0 53 -28.5 82.5t-85.5 29.5h-87v-227z" />
    <glyph glyph-name="afii10095" unicode="&#x44d;" horiz-adv-x="480" 
d="M155 49q82 0 128 48t51 130l-206 -12v71l206 -12q-7 87 -41.5 135.5t-85.5 48.5q-26 0 -68 -24.5t-77 -29.5l-20 84q12 2 42 8t60 10t62 4q104 0 164 -68.5t60 -180.5q0 -111 -65.5 -191t-167.5 -80q-44 0 -84.5 13t-58.5 26l-18 13v34q56 -27 119 -27z" />
    <glyph glyph-name="afii10096" unicode="&#x44e;" horiz-adv-x="867" 
d="M562 -10q-102 0 -164 65.5t-65 172.5h-116v-184l71 -13v-31h-243v31l79 14v411l-79 13v31h243v-31l-71 -12v-179h118q11 104 76.5 168t176.5 64q104 0 166.5 -68.5t62.5 -180.5q0 -120 -67 -195.5t-188 -75.5zM574 39q75 0 111.5 56.5t36.5 153.5t-40 154.5t-106 57.5
q-75 0 -111.5 -56.5t-36.5 -153.5t40 -154.5t106 -57.5z" />
    <glyph glyph-name="afii10097" unicode="&#x44f;" horiz-adv-x="598" 
d="M381 43v150h-107l-91 -138q-23 -37 -46 -51t-63 -14q-14 0 -27.5 2.5t-19.5 5.5l-6 2v26q30 6 41 13.5t31 34.5l98 131q-51 16 -81 52t-30 89q0 72 55 113t149 41h270v-31l-80 -13v-413l80 -12v-31h-243v31zM179 347q0 -43 29.5 -73.5t78.5 -30.5h94v207h-91
q-50 0 -80.5 -30.5t-30.5 -72.5z" />
    <glyph glyph-name="afii10071" unicode="&#x451;" horiz-adv-x="521" 
d="M472 257h-327q2 -91 50.5 -148t128.5 -57q30 0 62 6t49 12l17 6v-34q-7 -6 -20.5 -14.5t-57.5 -23t-90 -14.5q-107 0 -170.5 70t-63.5 181q0 121 67 195t164 74q104 0 153 -65.5t38 -187.5zM277 459q-54 0 -88.5 -41.5t-41.5 -113.5l234 6q-1 69 -23 109t-81 40zM178 594
q-23 0 -38.5 17t-15.5 40q0 24 16 40t41 16q26 0 40.5 -15t14.5 -39q0 -25 -16 -42t-42 -17zM377 594q-23 0 -38.5 17t-15.5 40q0 24 16 40t41 16q26 0 40.5 -15t14.5 -39q0 -25 -16 -42t-42 -17z" />
    <glyph glyph-name="afii10099" unicode="&#x452;" horiz-adv-x="611" 
d="M434 97v168q0 64 -27 96t-89 32q-31 0 -59.5 -4.5t-41.5 -8.5l-13 -5q4 -41 4 -95v-236l70 -13v-31h-243v31l80 13v496h-84v54h84v103l-81 8v31l154 25l20 -5l-2 -162h190v-54h-191l-1 -126l21.5 15.5t56 25t84.5 15.5q77 0 119 -49t42 -130v-193q0 -87 -20 -133
q-20 -47 -48 -82.5t-77 -84.5l-29 23l30 45q29 44 40 97.5t11 133.5z" />
    <glyph glyph-name="afii10100" unicode="&#x453;" horiz-adv-x="470" 
d="M317 31v-31h-272v31l79 12v413l-79 13v31h390l1 -160h-42l-16 111l-160 3v-411zM219 590l-28 30l149 177l62 -64z" />
    <glyph glyph-name="afii10101" unicode="&#x454;" horiz-adv-x="475" 
d="M271 458q-57 0 -90 -54.5t-36 -124.5l225 7v-73l-223 10q9 -78 51 -124.5t109 -46.5q32 0 63.5 6t46.5 12l15 6v-34q-7 -6 -19 -14.5t-53.5 -23t-85.5 -14.5q-106 0 -165 69.5t-59 181.5q0 117 69.5 193t180.5 76q36 0 79.5 -10t58.5 -12l-20 -81q-27 4 -73 27.5
t-74 23.5z" />
    <glyph glyph-name="afii10102" unicode="&#x455;" horiz-adv-x="437" 
d="M232 42q39 0 62.5 18t23.5 47q0 27 -19.5 47t-49 32.5t-63.5 28.5t-63.5 33t-49 49t-19.5 74q0 63 49 101t124 38q28 0 55.5 -4t55.5 -10t41 -8l-20 -84q-33 4 -81.5 29t-79.5 25q-33 0 -50.5 -16.5t-17.5 -42.5q0 -35 27 -58.5t65 -39t76 -34t65 -53t27 -84.5
q0 -67 -51 -103.5t-123 -36.5q-36 0 -67.5 4t-62.5 10l-42 8l20 84q32 -4 83 -29t85 -25z" />
    <glyph glyph-name="afii10103" unicode="&#x456;" horiz-adv-x="331" 
d="M167 627q-26 0 -42.5 16t-16.5 41q0 26 18 41t46 15q27 0 42.5 -14.5t15.5 -39.5q0 -27 -17 -43t-46 -16zM196 505l20 -5v-457l80 -12v-31h-253v31l80 12v409l-81 8v31z" />
    <glyph glyph-name="afii10104" unicode="&#x457;" horiz-adv-x="331" 
d="M196 505l20 -5v-457l80 -12v-31h-253v31l80 12v409l-81 8v31zM51 590q-23 0 -38.5 17t-15.5 40q0 24 16 40t41 16q26 0 40.5 -15t14.5 -39q0 -25 -16 -42t-42 -17zM250 590q-23 0 -38.5 17t-15.5 40q0 24 16 40t41 16q26 0 40.5 -15t14.5 -39q0 -25 -16 -42t-42 -17z" />
    <glyph glyph-name="afii10105" unicode="&#x458;" horiz-adv-x="302" 
d="M188 505l20 -5v-483q0 -151 -156 -274l-20 20q83 86 83 242v447l-81 8v31zM159 627q-26 0 -42.5 16t-16.5 41q0 26 18 41t46 15q27 0 42.5 -14.5t15.5 -39.5q0 -27 -17 -43t-46 -16z" />
    <glyph glyph-name="afii10106" unicode="&#x459;" horiz-adv-x="805" 
d="M93 469v31h461v-31l-81 -13v-133h102q91 0 142.5 -38t51.5 -113q0 -82 -58 -127t-157 -45h-254v31l80 13v406h-156q-4 -241 -43 -350.5t-119 -109.5q-12 0 -23 2.5t-16 5.5l-5 2v76q14 -2 24 -2q64 0 97 105t33 277zM473 50h91q49 0 75 30.5t26 82.5q0 110 -110 110h-82
v-223z" />
    <glyph glyph-name="afii10107" unicode="&#x45a;" horiz-adv-x="885" 
d="M460 278v178l-79 13v31h253v-31l-81 -12v-134h102q91 0 142.5 -38t51.5 -113q0 -82 -58 -127t-157 -45h-254v31l80 13v184h-243v-185l71 -12v-31h-243v31l79 13v412l-79 13v31h243v-31l-71 -12v-179h243zM553 50h91q49 0 75 30.5t26 82.5q0 110 -110 110h-82v-223z" />
    <glyph glyph-name="afii10108" unicode="&#x45b;" horiz-adv-x="639" 
d="M205 540l-1 -139q89 69 162 69q77 0 119 -49t42 -130v-247l80 -13v-31h-243v31l70 13v221q0 128 -103 128q-32 0 -64 -7.5t-47 -15.5l-16 -8q4 -41 4 -95v-223l70 -13v-31h-243v31l80 13v496h-84v54h84v113l-81 8v31l154 15l20 -5l-2 -162h190v-54h-191z" />
    <glyph glyph-name="afii10109" unicode="&#x45c;" horiz-adv-x="604" 
d="M124 43v413l-79 13v31h243v-31l-71 -13v-172h74l126 175l-58 10v31h205v-31l-71 -10l-148 -171l188 -225q16 -19 25 -23.5t36 -8.5v-31h-62q-46 0 -63.5 9t-45.5 44l-150 185h-56v-195l70 -12v-31h-243v31zM294 590l-28 30l149 177l62 -64z" />
    <glyph glyph-name="afii10110" unicode="&#x45e;" horiz-adv-x="574" 
d="M301 616q-112 0 -184 70l54 61q8 -7 34.5 -36.5t47.5 -42.5t48 -13t48 13t47.5 42.5t34.5 36.5l54 -61q-28 -27 -77 -48.5t-107 -21.5zM164 -250q32 119 98 232l-193 474l-65 13v31h233v-31l-65 -13l97 -263l36 -116h4q14 53 34 113l90 266l-75 13v31h212v-31l-69 -13
l-172 -457q-24 -63 -41.5 -126.5t-23.5 -95.5l-6 -32z" />
    <glyph glyph-name="afii10193" unicode="&#x45f;" horiz-adv-x="667" 
d="M291 0h-246v31l79 14v410l-79 14v31h243v-31l-71 -13l1 -406h231v406l-70 13v31h243v-31l-79 -14v-410l79 -14v-31h-244l-21 -164h-47z" />
    <glyph glyph-name="afii10050" unicode="&#x490;" horiz-adv-x="551" 
d="M225 644v-600l90 -13v-31h-268v31l80 13v612l-80 13v31h414l35 170h40l-9 -236z" />
    <glyph glyph-name="afii10098" unicode="&#x491;" horiz-adv-x="461" 
d="M439 635l-6 -190l-215 7v-408l99 -13v-31h-272v31l79 13v412l-79 13v31h329l29 135h36z" />
    <glyph glyph-name="Wgrave" unicode="&#x1e80;" horiz-adv-x="983" 
d="M985 669l-66 -13q-22 -54 -65 -201l-126 -455l-90 -6l-124 461q-7 26 -12.5 53.5t-7.5 42.5l-2 15h-4q-7 -59 -20 -109l-115 -457l-88 -6l-200 662l-76 13v31h259v-31l-84 -13l128 -438q8 -29 15 -58.5t9 -43.5l3 -15h4q10 52 25 117l118 482l79 5l128 -492q8 -29 14 -59
t8 -45l2 -15h4q9 53 28 118l87 335q21 80 25 109l-84 13v31h228v-31zM577 780l-28 -30l-183 143l62 64z" />
    <glyph glyph-name="wgrave" unicode="&#x1e81;" horiz-adv-x="831" 
d="M758 456l-160 -456l-77 -5l-92 339l-19 83h-4q-7 -48 -16 -85l-83 -332l-85 -5l-157 461l-60 13v31h220v-31l-69 -13l86 -270q8 -26 15 -55.5l11 -46.5l3 -16h4q9 55 25 116l81 316l78 7l91 -315q8 -28 14 -58.5t8 -47.5l3 -16h5q13 62 31 122l81 264l-70 13v31h205v-31z
M484 620l-28 -30l-183 143l62 64z" />
    <glyph glyph-name="Wacute" unicode="&#x1e82;" horiz-adv-x="983" 
d="M985 669l-66 -13q-22 -54 -65 -201l-126 -455l-90 -6l-124 461q-7 26 -12.5 53.5t-7.5 42.5l-2 15h-4q-7 -59 -20 -109l-115 -457l-88 -6l-200 662l-76 13v31h259v-31l-84 -13l128 -438q8 -29 15 -58.5t9 -43.5l3 -15h4q10 52 25 117l118 482l79 5l128 -492q8 -29 14 -59
t8 -45l2 -15h4q9 53 28 118l87 335q21 80 25 109l-84 13v31h228v-31zM471 748l-28 30l149 177l62 -64z" />
    <glyph glyph-name="wacute" unicode="&#x1e83;" horiz-adv-x="831" 
d="M758 456l-160 -456l-77 -5l-92 339l-19 83h-4q-7 -48 -16 -85l-83 -332l-85 -5l-157 461l-60 13v31h220v-31l-69 -13l86 -270q8 -26 15 -55.5l11 -46.5l3 -16h4q9 55 25 116l81 316l78 7l91 -315q8 -28 14 -58.5t8 -47.5l3 -16h5q13 62 31 122l81 264l-70 13v31h205v-31z
M407 590l-28 30l149 177l62 -64z" />
    <glyph glyph-name="Wdieresis" unicode="&#x1e84;" horiz-adv-x="983" 
d="M985 669l-66 -13q-22 -54 -65 -201l-126 -455l-90 -6l-124 461q-7 26 -12.5 53.5t-7.5 42.5l-2 15h-4q-7 -59 -20 -109l-115 -457l-88 -6l-200 662l-76 13v31h259v-31l-84 -13l128 -438q8 -29 15 -58.5t9 -43.5l3 -15h4q10 52 25 117l118 482l79 5l128 -492q8 -29 14 -59
t8 -45l2 -15h4q9 53 28 118l87 335q21 80 25 109l-84 13v31h228v-31zM400 782q-23 0 -38.5 17t-15.5 40q0 24 16 40t41 16q26 0 40.5 -15t14.5 -39q0 -25 -16 -42t-42 -17zM599 782q-23 0 -38.5 17t-15.5 40q0 24 16 40t41 16q26 0 40.5 -15t14.5 -39q0 -25 -16 -42t-42 -17
z" />
    <glyph glyph-name="wdieresis" unicode="&#x1e85;" horiz-adv-x="831" 
d="M758 456l-160 -456l-77 -5l-92 339l-19 83h-4q-7 -48 -16 -85l-83 -332l-85 -5l-157 461l-60 13v31h220v-31l-69 -13l86 -270q8 -26 15 -55.5l11 -46.5l3 -16h4q9 55 25 116l81 316l78 7l91 -315q8 -28 14 -58.5t8 -47.5l3 -16h5q13 62 31 122l81 264l-70 13v31h205v-31z
M311 590q-23 0 -38.5 17t-15.5 40q0 24 16 40t41 16q26 0 40.5 -15t14.5 -39q0 -25 -16 -42t-42 -17zM510 590q-23 0 -38.5 17t-15.5 40q0 24 16 40t41 16q26 0 40.5 -15t14.5 -39q0 -25 -16 -42t-42 -17z" />
    <glyph glyph-name="Ygrave" unicode="&#x1ef2;" horiz-adv-x="632" 
d="M369 299v-255l80 -13v-31h-258v31l80 13v255l-230 357l-58 13v31h239v-31l-77 -13l143 -234l43 -83h4q17 38 45 89l93 159q23 42 23 65l-68 17v31h205v-31l-59 -15zM403 780l-28 -30l-183 143l62 64z" />
    <glyph glyph-name="ygrave" unicode="&#x1ef3;" horiz-adv-x="574" 
d="M164 -250q32 119 98 232l-193 474l-65 13v31h233v-31l-65 -13l97 -263l36 -116h4q14 53 34 113l90 266l-75 13v31h212v-31l-69 -13l-172 -457q-24 -63 -41.5 -126.5t-23.5 -95.5l-6 -32zM359 620l-28 -30l-183 143l62 64z" />
    <glyph glyph-name="thinspace" unicode="&#x2009;" horiz-adv-x="40" 
 />
    <glyph glyph-name="endash" unicode="&#x2013;" horiz-adv-x="585" 
d="M77 259v64h431v-64h-431z" />
    <glyph glyph-name="emdash" unicode="&#x2014;" horiz-adv-x="815" 
d="M77 262v64h661v-64h-661z" />
    <glyph glyph-name="quoteleft" unicode="&#x2018;" horiz-adv-x="238" 
d="M179 713l18 -24q-37 -22 -63.5 -56.5t-30.5 -70.5q34 8 54.5 -10t20.5 -46q0 -27 -18 -43.5t-46 -16.5t-46.5 18.5t-18.5 53.5q0 59 36.5 112t93.5 83z" />
    <glyph glyph-name="quoteright" unicode="&#x2019;" horiz-adv-x="229" 
d="M77 433l-20 22q69 60 74 143q-34 -8 -54.5 10t-20.5 46q0 27 18 43.5t46 16.5t46.5 -18.5t18.5 -53.5q0 -126 -108 -209z" />
    <glyph glyph-name="quotesinglbase" unicode="&#x201a;" horiz-adv-x="250" 
d="M81 -171l-20 22q69 60 74 143q-34 -8 -54.5 10t-20.5 46q0 27 18 43.5t46 16.5t46.5 -18.5t18.5 -53.5q0 -126 -108 -209z" />
    <glyph glyph-name="quotereversed" unicode="&#x201b;" horiz-adv-x="236" 
d="M188 461l-18 -24q-56 29 -92 87t-36 118q0 35 18.5 53.5t46.5 18.5t46 -16.5t18 -43.5q0 -28 -20.5 -46t-54.5 -10q4 -38 30.5 -77t61.5 -60z" />
    <glyph glyph-name="quotedblleft" unicode="&#x201c;" horiz-adv-x="442" 
d="M179 713l18 -24q-37 -22 -63.5 -56.5t-30.5 -70.5q34 8 54.5 -10t20.5 -46q0 -27 -18 -43.5t-46 -16.5t-46.5 18.5t-18.5 53.5q0 59 36.5 112t93.5 83zM383 713l18 -24q-37 -22 -63.5 -56.5t-30.5 -70.5q34 8 54.5 -10t20.5 -46q0 -27 -18 -43.5t-46 -16.5t-46.5 18.5
t-18.5 53.5q0 59 36.5 112t93.5 83z" />
    <glyph glyph-name="quotedblright" unicode="&#x201d;" horiz-adv-x="433" 
d="M281 433l-20 22q69 60 74 143q-34 -8 -54.5 10t-20.5 46q0 27 18 43.5t46 16.5t46.5 -18.5t18.5 -53.5q0 -126 -108 -209zM77 433l-20 22q69 60 74 143q-34 -8 -54.5 10t-20.5 46q0 27 18 43.5t46 16.5t46.5 -18.5t18.5 -53.5q0 -126 -108 -209z" />
    <glyph glyph-name="quotedblbase" unicode="&#x201e;" horiz-adv-x="442" 
d="M81 -171l-20 22q69 60 74 143q-34 -8 -54.5 10t-20.5 46q0 27 18 43.5t46 16.5t46.5 -18.5t18.5 -53.5q0 -126 -108 -209zM273 -171l-20 22q69 60 74 143q-34 -8 -54.5 10t-20.5 46q0 27 18 43.5t46 16.5t46.5 -18.5t18.5 -53.5q0 -126 -108 -209z" />
    <glyph glyph-name="uni201F" unicode="&#x201f;" horiz-adv-x="440" 
d="M188 461l-18 -24q-56 29 -92 87t-36 118q0 35 18.5 53.5t46.5 18.5t46 -16.5t18 -43.5q0 -28 -20.5 -46t-54.5 -10q4 -38 30.5 -77t61.5 -60zM392 461l-18 -24q-56 29 -92 87t-36 118q0 35 18.5 53.5t46.5 18.5t46 -16.5t18 -43.5q0 -28 -20.5 -46t-54.5 -10
q4 -38 30.5 -77t61.5 -60z" />
    <glyph glyph-name="dagger" unicode="&#x2020;" horiz-adv-x="552" 
d="M37 500l216 -16l-16 231h78l-17 -231l217 16v-74l-217 16l17 -655l-38 -37l-40 37l16 655l-216 -16v74z" />
    <glyph glyph-name="daggerdbl" unicode="&#x2021;" horiz-adv-x="578" 
d="M528 -35l-215 14l15 -229h-78l14 229l-214 -14v74l214 -14l-19 200l19 214l-214 -13v74l214 -13l-14 228h78l-14 -228l214 13v-74l-214 13l19 -214l-20 -200l215 14v-74z" />
    <glyph glyph-name="bullet" unicode="&#x2022;" horiz-adv-x="278" 
d="M134 228q-34 0 -51 22t-17 52q0 31 18.5 50t55.5 19q35 0 54 -22t19 -49q0 -33 -20.5 -52.5t-58.5 -19.5z" />
    <glyph glyph-name="onedotenleader" unicode="&#x2024;" horiz-adv-x="256" 
d="M125 -15q-29 0 -47 17.5t-18 45.5q0 29 19.5 45.5t51.5 16.5q30 0 47 -16t17 -44q0 -30 -19 -47.5t-51 -17.5z" />
    <glyph glyph-name="twodotenleader" unicode="&#x2025;" horiz-adv-x="511" 
d="M125 -15q-29 0 -47 17.5t-18 45.5q0 29 19.5 45.5t51.5 16.5q30 0 47 -16t17 -44q0 -30 -19 -47.5t-51 -17.5zM380 -15q-29 0 -47 17.5t-18 45.5q0 29 19.5 45.5t51.5 16.5q30 0 47 -16t17 -44q0 -30 -19 -47.5t-51 -17.5z" />
    <glyph glyph-name="ellipsis" unicode="&#x2026;" horiz-adv-x="765" 
d="M125 -15q-29 0 -47 17.5t-18 45.5q0 29 19.5 45.5t51.5 16.5q30 0 47 -16t17 -44q0 -30 -19 -47.5t-51 -17.5zM379 -15q-29 0 -47 17.5t-18 45.5q0 29 19.5 45.5t51.5 16.5q30 0 47 -16t17 -44q0 -30 -19 -47.5t-51 -17.5zM634 -15q-29 0 -47 17.5t-18 45.5
q0 29 19.5 45.5t51.5 16.5q30 0 47 -16t17 -44q0 -30 -19 -47.5t-51 -17.5z" />
    <glyph glyph-name="perthousand" unicode="&#x2030;" horiz-adv-x="1340" 
d="M271 0h-98q286 400 478 700h97q-267 -373 -477 -700zM233 394q44 0 67.5 31t23.5 90q0 146 -99 146q-90 0 -90 -121q0 -146 98 -146zM221 341q-82 0 -130 53t-48 123q0 91 50 144t146 53q82 0 130 -53t48 -123q0 -91 -50 -144t-146 -53zM695 43q44 0 67.5 31t23.5 90
q0 146 -99 146q-90 0 -90 -121q0 -146 98 -146zM683 -10q-82 0 -130 53t-48 123q0 91 50 144t146 53q82 0 130 -53t48 -123q0 -91 -50 -144t-146 -53zM1115 43q44 0 67.5 31t23.5 90q0 146 -99 146q-90 0 -90 -121q0 -146 98 -146zM1103 -10q-82 0 -130 53t-48 123
q0 91 50 144t146 53q82 0 130 -53t48 -123q0 -91 -50 -144t-146 -53z" />
    <glyph glyph-name="guilsinglleft" unicode="&#x2039;" horiz-adv-x="348" 
d="M26 269l228 240l52 -50l-209 -205l206 -201l-49 -53l-228 240v29z" />
    <glyph glyph-name="guilsinglright" unicode="&#x203a;" horiz-adv-x="348" 
d="M94 509l228 -240v-29l-228 -240l-49 53l206 201l-209 205z" />
    <glyph glyph-name="fraction" unicode="&#x2044;" horiz-adv-x="473" 
d="M82 0h-83l396 701h82z" />
    <glyph glyph-name="Euro" unicode="&#x20ac;" horiz-adv-x="761" 
d="M531 38q49 0 107 15l21 150h38v-178q-78 -39 -177 -39q-143 0 -237.5 63.5t-124.5 181.5h-125l21 65h94q-2 26 -2 42q0 29 2 43h-114l20 65h104q28 120 116 194t222 74q58 0 109 -10t73 -20l22 -10l-8 -170h-39l-15 134q-60 24 -135 24q-101 0 -165 -57.5t-83 -158.5h310
l-21 -65h-296v-22q0 -36 4 -63h268l-21 -65h-232q29 -89 97 -141t167 -52z" />
    <glyph glyph-name="afii61352" unicode="&#x2116;" horiz-adv-x="1133" 
d="M781 180v64h286v-64h-286zM926 337q29 0 49.5 28t20.5 75q0 54 -20.5 87.5t-54.5 33.5q-30 0 -50 -28t-20 -74q0 -55 20 -88.5t55 -33.5zM916 291q-70 0 -112.5 46t-42.5 109q0 68 44.5 114.5t119.5 46.5t118.5 -45.5t43.5 -108.5q0 -69 -46.5 -115.5t-124.5 -46.5z
M588 234v417l-80 18v31h218v-31l-80 -18v-651l-54 -4l-358 488l-52 79l-3 -1q5 -44 5 -90v-425l80 -16v-31h-218v31l80 16v563l-46 53v37l110 4l349 -480q11 -15 23.5 -34.5t19.5 -31.5l6 -12l4 1q-4 46 -4 87z" />
    <glyph glyph-name="trademark" unicode="&#x2122;" horiz-adv-x="1034" 
d="M974 346h-205v29l61 15v121l2 79l-3 1q-12 -30 -39 -70l-91 -135h-12l-89 134q-11 16 -20 34t-12 28l-4 9l-3 -1q3 -36 3 -78v-122l55 -15v-29h-179v29l68 15v265l-67 20v27h137l99 -158l30 -56h3q14 29 30 54l98 161h138v-28l-60 -20v-265l60 -15v-29zM332 346h-205v29
l60 15v260h-96l-15 -79h-30v130h362v-130h-30l-15 79h-91v-260l60 -15v-29z" />
    <glyph glyph-name="estimated" unicode="&#x212e;" horiz-adv-x="815" 
d="M411 -53q-150 0 -255.5 95t-105.5 230q0 134 105.5 229.5t255.5 95.5q149 0 255 -95.5t106 -229.5v-9h-585q-5 0 -5 -4v-177q0 -12 8 -20q91 -96 222 -96q138 0 232 107h53q-51 -58 -126 -92t-160 -34zM187 281h448q5 0 5 5v178q0 11 -10 21q-90 92 -218 92
q-129 0 -221 -95q-9 -9 -9 -22v-174q0 -5 5 -5z" />
    <glyph glyph-name="uni2139" unicode="&#x2139;" horiz-adv-x="400" 
d="M56 397l228 26l-1 -343q0 -46 71 -52v-28l-299 -1v27q35 0 54 13.5t19 36.5v232q0 45 -72 54v35zM206 634q33 0 56 -23t23 -56t-22.5 -57t-54.5 -24q-33 0 -56.5 21t-23.5 55q0 37 22 60.5t56 23.5z" />
    <glyph glyph-name="uni2150" unicode="&#x2150;" horiz-adv-x="698" 
d="M112 0l-53 35l480 677l53 -33zM423 318l3 61h244v-25q-74 -156 -145 -378l-72 24q51 125 167 330zM30 656l150 55h12v-387h-71v320l-85 -8z" />
    <glyph glyph-name="uni2151" unicode="&#x2151;" horiz-adv-x="739" 
d="M472 9q136 22 160 163q-30 -32 -81 -32q-53 0 -86.5 32t-33.5 84q0 56 36.5 92.5t92.5 36.5q67 0 106 -42.5t39 -114.5q0 -114 -62 -173t-165 -71zM111 0l-53 35l480 677l53 -33zM29 656l150 55h12v-387h-71v320l-85 -8zM568 185q44 0 68 34q1 6 1 20q0 111 -73 111
q-66 0 -66 -83q0 -82 70 -82z" />
    <glyph glyph-name="uni2152" unicode="&#x2152;" horiz-adv-x="983" 
d="M806 30q33 0 52.5 40.5t19.5 101.5q0 78 -19.5 124.5t-58.5 46.5q-34 0 -52 -39.5t-18 -101.5q0 -172 76 -172zM796 -10q-68 0 -103.5 54.5t-35.5 131.5q0 97 38 153t117 56q66 0 102 -55t36 -132q0 -97 -37.5 -152.5t-116.5 -55.5zM111 0l-53 35l480 677l53 -33zM29 656
l150 55h12v-387h-71v320l-85 -8zM416 333l150 55h12v-387h-71v320l-85 -8z" />
    <glyph glyph-name="onethird" unicode="&#x2153;" horiz-adv-x="706" 
d="M123 0l-53 35l480 677l53 -33zM471 184l3 28q45 0 69.5 18t24.5 49q0 59 -68 59q-24 0 -43 -3.5t-26 -6.5l-7 -4v25q34 32 107 32q48 0 78 -23.5t30 -63.5q0 -75 -83 -94q46 -6 72.5 -31t26.5 -67q0 -47 -39.5 -79.5t-99.5 -32.5q-30 0 -56 9t-37 18l-11 9l5 21
q37 -16 78 -16q42 0 64.5 20t22.5 55q0 78 -111 78zM41 656l150 55h12v-387h-71v320l-85 -8z" />
    <glyph glyph-name="twothirds" unicode="&#x2154;" horiz-adv-x="791" 
d="M204 0l-53 35l480 677l53 -33zM223 597q0 71 -71 71q-20 0 -42 -5t-34 -9l-12 -5v23q4 5 12.5 11.5t38.5 18t63 11.5q52 0 85 -29t33 -80q0 -91 -169 -231l186 12l-5 -61h-264v32q179 153 179 241zM559 184l3 28q45 0 69.5 18t24.5 49q0 59 -68 59q-24 0 -43 -3.5
t-26 -6.5l-7 -4v25q34 32 107 32q48 0 78 -23.5t30 -63.5q0 -75 -83 -94q46 -6 72.5 -31t26.5 -67q0 -47 -39.5 -79.5t-99.5 -32.5q-30 0 -56 9t-37 18l-11 9l5 21q37 -16 78 -16q42 0 64.5 20t22.5 55q0 78 -111 78z" />
    <glyph glyph-name="uni2155" unicode="&#x2155;" horiz-adv-x="716" 
d="M111 0l-53 35l480 677l53 -33zM661 381l-2 -56l-162 8l-6 -92q180 -8 180 -133q0 -51 -36.5 -84.5t-99.5 -33.5q-30 0 -57 9t-38 19l-12 9l4 23q45 -14 83 -14q84 0 84 72q0 91 -150 91l11 182h201zM29 656l150 55h12v-387h-71v320l-85 -8z" />
    <glyph glyph-name="uni2156" unicode="&#x2156;" horiz-adv-x="784" 
d="M185 0l-53 35l480 677l53 -33zM214 597q0 71 -71 71q-20 0 -42 -5t-34 -9l-12 -5v23q4 5 12.5 11.5t38.5 18t63 11.5q52 0 85 -29t33 -80q0 -91 -169 -231l186 12l-5 -61h-264v32q179 153 179 241zM729 381l-2 -56l-162 8l-6 -92q180 -8 180 -133q0 -51 -36.5 -84.5
t-99.5 -33.5q-30 0 -57 9t-38 19l-12 9l4 23q45 -14 83 -14q84 0 84 72q0 91 -150 91l11 182h201z" />
    <glyph glyph-name="uni2157" unicode="&#x2157;" horiz-adv-x="766" 
d="M161 0l-53 35l480 677l53 -33zM711 381l-2 -56l-162 8l-6 -92q180 -8 180 -133q0 -51 -36.5 -84.5t-99.5 -33.5q-30 0 -57 9t-38 19l-12 9l4 23q45 -14 83 -14q84 0 84 72q0 91 -150 91l11 182h201zM97 513l3 28q45 0 69.5 18t24.5 49q0 59 -68 59q-24 0 -43 -3.5
t-26 -7.5l-7 -3v25q34 32 107 32q48 0 78 -23t30 -64q0 -75 -83 -94q46 -6 72.5 -31t26.5 -67q0 -47 -39.5 -79.5t-99.5 -32.5q-30 0 -56 9t-37 18l-11 9l5 21q37 -16 78 -16q42 0 64.5 20t22.5 55q0 78 -111 78z" />
    <glyph glyph-name="uni2158" unicode="&#x2158;" horiz-adv-x="844" 
d="M195 316v107h-157l-13 19l183 287l59 -8v-256h63l-4 -42h-59v-55l2 -52h-74zM232 0l-53 35l480 677l53 -33zM784 381l-2 -56l-162 8l-6 -92q180 -8 180 -133q0 -51 -36.5 -84.5t-99.5 -33.5q-30 0 -57 9t-39 19l-11 9l4 23q45 -14 83 -14q84 0 84 72q0 91 -150 91l11 182
h201zM172 600l-85 -136l107 1v136l4 49h-2q-6 -21 -24 -50z" />
    <glyph glyph-name="uni2159" unicode="&#x2159;" horiz-adv-x="700" 
d="M623 368q-137 -23 -160 -163q30 32 81 32q53 0 86.5 -32t33.5 -84q0 -56 -36.5 -92.5t-92.5 -36.5q-67 0 -106 42.5t-39 114.5q0 114 62 173t165 71zM111 0l-53 35l480 677l53 -33zM29 656l150 55h12v-387h-71v320l-85 -8zM527 192q-40 0 -69 -34v-20q0 -111 73 -111
q66 0 66 83q0 82 -70 82z" />
    <glyph glyph-name="uni215A" unicode="&#x215a;" horiz-adv-x="773" 
d="M697 368q-137 -23 -160 -163q30 32 81 32q53 0 86.5 -32t33.5 -84q0 -56 -36.5 -92.5t-92.5 -36.5q-67 0 -106 42.5t-39 114.5q0 114 62 173t165 71zM180 0l-53 35l480 677l53 -33zM272 700l-2 -56l-162 8l-6 -92q180 -8 180 -133q0 -51 -36.5 -84.5t-99.5 -33.5
q-30 0 -57 9.5t-39 18.5l-11 9l4 23q45 -14 83 -14q84 0 84 72q0 91 -150 91l11 182h201zM601 192q-40 0 -69 -34v-20q0 -111 73 -111q66 0 66 83q0 82 -70 82z" />
    <glyph glyph-name="oneeighth" unicode="&#x215b;" horiz-adv-x="734" 
d="M431 90q0 66 83 101q-73 43 -73 97q0 44 34.5 70t85.5 26q48 0 80.5 -24t31.5 -63q-2 -56 -73 -92q40 -22 62 -46.5t22 -61.5q0 -47 -38 -77.5t-88 -30.5q-56 0 -91.5 27t-35.5 74zM123 0l-53 35l480 677l53 -33zM41 656l150 55h12v-387h-71v320l-85 -8zM621 88
q0 21 -14 38.5t-28.5 27t-43.5 25.5q-45 -34 -45 -90q0 -26 18 -43.5t48 -17.5t47.5 15.5t17.5 44.5zM504 300q0 -26 18.5 -44t54.5 -37q35 26 36 76q1 24 -13.5 38t-41.5 14q-25 0 -39.5 -13t-14.5 -34z" />
    <glyph glyph-name="threeeighths" unicode="&#x215c;" horiz-adv-x="782" 
d="M484 90q0 66 83 101q-73 43 -73 97q0 44 34.5 70t85.5 26q48 0 80.5 -24t31.5 -63q-2 -56 -73 -92q40 -22 62 -46.5t22 -61.5q0 -47 -38 -77.5t-88 -30.5q-56 0 -91.5 27t-35.5 74zM168 0l-53 35l480 677l53 -33zM104 513l3 28q45 0 69.5 18t24.5 49q0 59 -68 59
q-24 0 -43 -3.5t-26 -7.5l-7 -3v25q34 32 107 32q48 0 78 -23t30 -64q0 -75 -83 -94q46 -6 72.5 -31t26.5 -67q0 -47 -39.5 -79.5t-99.5 -32.5q-30 0 -56 9t-37 18l-11 9l5 21q37 -16 78 -16q42 0 64.5 20t22.5 55q0 78 -111 78zM674 88q0 21 -14 38.5t-28.5 27t-43.5 25.5
q-45 -34 -45 -90q0 -26 18 -43.5t48 -17.5q29 0 47 15.5t18 44.5zM557 300q0 -26 18.5 -44t54.5 -37q35 26 36 76q1 24 -13.5 38t-41.5 14q-25 0 -39.5 -13t-14.5 -34z" />
    <glyph glyph-name="fiveeighths" unicode="&#x215d;" horiz-adv-x="796" 
d="M498 90q0 66 83 101q-73 43 -73 97q0 44 34.5 70t85.5 26q48 0 80.5 -24t31.5 -63q-2 -56 -73 -92q40 -22 62 -46.5t22 -61.5q0 -47 -38 -77.5t-88 -30.5q-56 0 -91.5 27t-35.5 74zM186 0l-53 35l480 677l53 -33zM278 700l-2 -56l-162 8l-6 -92q180 -8 180 -133
q0 -51 -36.5 -84.5t-99.5 -33.5q-30 0 -57 9.5t-39 18.5l-11 9l4 23q45 -14 83 -14q84 0 84 72q0 91 -150 91l11 182h201zM688 88q0 21 -14 38.5t-28.5 27t-43.5 25.5q-45 -34 -45 -90q0 -26 18 -43.5t48 -17.5q29 0 47 15.5t18 44.5zM571 300q0 -26 18.5 -44t54.5 -37
q35 26 36 76q1 24 -13.5 38t-41.5 14q-25 0 -39.5 -13t-14.5 -34z" />
    <glyph glyph-name="seveneighths" unicode="&#x215e;" horiz-adv-x="760" 
d="M460 90q0 66 83 101q-73 43 -73 97q0 44 34.5 70t85.5 26q48 0 80.5 -24t31.5 -63q-2 -56 -73 -92q40 -22 62 -46.5t22 -61.5q0 -47 -38 -77.5t-88 -30.5q-56 0 -91.5 27t-35.5 74zM148 0l-53 35l480 677l53 -33zM43 633l4 67h254v-20q-67 -141 -145 -385l-71 21
q51 142 152 326zM650 88q0 21 -14 38.5t-28.5 27t-43.5 25.5q-45 -34 -45 -90q0 -26 18 -43.5t48 -17.5q29 0 47 15.5t18 44.5zM533 300q0 -26 18.5 -44t54.5 -37q35 26 36 76q1 24 -13.5 38t-41.5 14q-25 0 -39.5 -13t-14.5 -34z" />
    <glyph glyph-name="uni215F" unicode="&#x215f;" horiz-adv-x="621" 
d="M121 0l-53 35l480 677l53 -33zM39 656l150 55h12v-387h-71v320l-85 -8z" />
    <glyph glyph-name="arrowright" unicode="&#x2192;" horiz-adv-x="779" 
d="M601 280l-4 3q-39 35 -74 83.5t-50 81.5l64 34q49 -90 143 -176l50 -46v-29l-50 -46q-94 -86 -143 -176l-64 34q15 33 49.5 80.5t72.5 82.5h-529v74h535z" />
    <glyph glyph-name="arrowboth" unicode="&#x2194;" horiz-adv-x="961" 
d="M182 283l-4 -3h605l-4 3q-39 35 -74 83.5t-50 81.5l64 34q49 -90 143 -176l50 -46v-29l-50 -46q-94 -86 -143 -176l-64 34q15 33 49.5 80.5t72.5 82.5h-593q38 -35 72.5 -82.5t49.5 -80.5l-64 -34q-49 90 -143 176l-50 46v29l50 46q94 86 143 176l64 -34
q-15 -33 -50 -81.5t-74 -83.5z" />
    <glyph glyph-name="arrowupdn" unicode="&#x2195;" horiz-adv-x="577" 
d="M86 425l-34 59q84 46 173 143l46 50h29l46 -50q83 -90 179 -143l-34 -59q-29 13 -80 51t-87 77v-615q36 38 86.5 76t80.5 52l34 -59q-96 -53 -179 -143l-46 -50h-29l-46 50q-89 97 -173 143l34 59q31 -15 79.5 -50.5t85.5 -76.5v613q-38 -41 -86.5 -77.5t-78.5 -49.5z
" />
    <glyph glyph-name="Delta" unicode="&#x2206;" horiz-adv-x="653" 
d="M52 0l-18 29l285 671h52l245 -673l-15 -27h-549zM303 480l-165 -418h367l-140 417q-8 23 -14.5 48.5t-9.5 39.5l-3 14h-4q-13 -55 -31 -101z" />
    <glyph glyph-name="minus" unicode="&#x2212;" horiz-adv-x="521" 
d="M75 253v64h371v-64h-371z" />
    <glyph glyph-name="radical" unicode="&#x221a;" horiz-adv-x="628" 
d="M622 701l-253 -701l-86 -5l-156 444h-103v61h175l106 -312q10 -28 17.5 -57.5t10.5 -45.5l3 -16h4q12 56 32 117l171 515h79z" />
    <glyph glyph-name="infinity" unicode="&#x221e;" horiz-adv-x="728" 
d="M209 430q80 0 154 -106q78 106 168 106q55 0 96 -38t41 -106q0 -67 -42 -104.5t-100 -37.5q-84 0 -163 106q-78 -106 -163 -106q-57 0 -99 39t-42 103q0 69 43 106.5t107 37.5zM526 359q-73 0 -136 -72q22 -26 58.5 -49t76.5 -23q35 0 55.5 20t20.5 52q0 31 -20.5 51.5
t-54.5 20.5zM208 359q-39 0 -60.5 -20t-21.5 -52t20.5 -52t55.5 -20q40 0 75.5 23t58.5 49q-63 72 -128 72z" />
    <glyph glyph-name="approxequal" unicode="&#x2248;" horiz-adv-x="555" 
d="M361 199q72 0 98 67l30 -11q1 -56 -32 -94t-85 -38q-36 0 -88.5 32.5t-86.5 32.5q-72 0 -98 -67l-30 11q-1 56 32 94t85 38q43 0 92.5 -32.5t82.5 -32.5zM360 369q72 0 98 67l30 -11q1 -56 -32 -94t-85 -38q-36 0 -88.5 32.5t-86.5 32.5q-72 0 -98 -67l-30 11
q-1 56 32 94t85 38q43 0 92.5 -32.5t82.5 -32.5z" />
    <glyph glyph-name="notequal" unicode="&#x2260;" horiz-adv-x="533" 
d="M61 342v69h254l99 155l58 -40l-80 -115h80v-69h-127l-80 -121h207v-69h-252l-101 -161l-58 39l83 122h-83v69h130l79 121h-209z" />
    <glyph glyph-name="lessequal" unicode="&#x2264;" 
d="M63 64v65h365v-65h-365zM63 343l365 184v-78l-251 -116l251 -116v-79l-365 185v20z" />
    <glyph glyph-name="greaterequal" unicode="&#x2265;" horiz-adv-x="501" 
d="M438 129v-65h-365v65h365zM73 527l365 -184v-20l-365 -185v79l251 116l-251 116v78z" />
    <glyph glyph-name="filledbox" unicode="&#x25a0;" horiz-adv-x="635" 
d="M73 86l-22 22q30 210 -1 489l23 23q279 -31 489 -1l22 -22q-30 -210 1 -490l-22 -22q-280 31 -490 1z" />
    <glyph glyph-name="triagup" unicode="&#x25b2;" horiz-adv-x="723" 
d="M673 92h-623v25l300 486h24l299 -486v-25z" />
    <glyph glyph-name="triagdn" unicode="&#x25bc;" horiz-adv-x="723" 
d="M50 603h623v-25l-299 -486h-24l-300 486v25z" />
    <glyph glyph-name="uni25C6" unicode="&#x25c6;" horiz-adv-x="534" 
d="M50 343v19q104 77 207 208h20q103 -131 207 -208v-19q-105 -78 -207 -209h-20q-102 131 -207 209z" />
    <glyph glyph-name="lozenge" unicode="&#x25ca;" horiz-adv-x="622" 
d="M20 328v31l265 341h52l265 -343v-31l-265 -341h-52zM502 336l-198 275l-186 -259l199 -281z" />
    <glyph glyph-name="H18533" unicode="&#x25cf;" horiz-adv-x="637" 
d="M50 351q0 111 78.5 190t189.5 79t190 -79t79 -190t-79 -189.5t-190 -78.5t-189.5 78.5t-78.5 189.5z" />
    <glyph glyph-name="uni2715" unicode="&#x2715;" horiz-adv-x="845" 
d="M652 -7l-114 116l29 29l-145 148l-146 -146l25 -24l-126 -126l-116 116l126 126l29 -29l146 144l-149 148l-29 -29l-116 116l126 126l116 -116l-29 -29l148 -149l144 145l-29 30l126 126l116 -116l-126 -126l-25 25l-145 -146l147 -146l29 29l115 -114z" />
    <glyph glyph-name="uni271A" unicode="&#x271a;" horiz-adv-x="799" 
d="M50 256v186h251v257h196v-257h252v-186h-252v-256h-196v256h-251z" />
    <glyph glyph-name="uni271B" unicode="&#x271b;" horiz-adv-x="799" 
d="M50 286v126h281v287h136v-287h282v-126h-282v-286h-136v286h-281zM341 402v-106h116v106h-116z" />
    <glyph glyph-name="uni271C" unicode="&#x271c;" horiz-adv-x="799" 
d="M50 256v186h251v257h196v-257h252v-186h-252v-256h-196v256h-251zM311 432v-166h176v166h-176z" />
    <glyph glyph-name="uni2722" unicode="&#x2722;" horiz-adv-x="795" 
d="M745 424l-1 -151h-146v39l-162 1v-168h39v-145h-154v145h44v167h-170v-39h-145v151h145v-36h170v168h-44v145h154v-145h-39v-168h162v36h147z" />
    <glyph glyph-name="uni2723" unicode="&#x2723;" horiz-adv-x="921" 
d="M323 629q0 56 39.5 96t95.5 40t96 -40t40 -96q0 -46 -27 -81.5t-70 -47.5v-112h109q13 42 48.5 69t80.5 27q56 0 96 -40t40 -96t-40 -95.5t-96 -39.5q-47 0 -83 27.5t-47 71.5l-108 1v-109q43 -13 70 -49t27 -81q0 -56 -40 -95.5t-96 -39.5t-95.5 39.5t-39.5 95.5
q0 48 29 84.5t74 47.5v106h-110q-12 -44 -48.5 -71.5t-82.5 -27.5q-56 0 -95.5 39.5t-39.5 95.5t39.5 96t95.5 40q45 0 81 -27t49 -69h111v110q-45 11 -74 47t-29 84zM677 348q0 -24 17 -41t41 -17t41.5 17t17.5 41t-17.5 41.5t-41.5 17.5t-41 -17.5t-17 -41.5zM127 348
q0 -24 17 -41t41 -17t41.5 17t17.5 41t-17.5 41.5t-41.5 17.5t-41 -17.5t-17 -41.5zM400 74q0 -24 17 -41t41 -17t41.5 17t17.5 41t-17.5 41.5t-41.5 17.5t-41 -17.5t-17 -41.5zM400 629q0 -24 17 -41t41 -17t41.5 17t17.5 41t-17.5 41.5t-41.5 17.5t-41 -17.5t-17 -41.5z
" />
    <glyph glyph-name="uni2724" unicode="&#x2724;" horiz-adv-x="865" 
d="M324 629q0 44 31 75.5t75 31.5t75.5 -31.5t31.5 -75.5q0 -33 -19 -60.5t-49 -38.5v-142h140q12 30 39 48.5t60 18.5q44 0 75.5 -31.5t31.5 -75.5t-31.5 -75t-75.5 -31q-35 0 -62 19.5t-38 50.5l-139 1v-141q30 -11 49 -38.5t19 -60.5q0 -44 -31.5 -75t-75.5 -31t-75 31
t-31 75q0 35 20.5 63t53.5 39v137h-142q-11 -31 -38.5 -50.5t-61.5 -19.5q-44 0 -75 31t-31 75t31 75.5t75 31.5q33 0 60 -18.5t39 -48.5h143v140q-33 10 -53.5 37.5t-20.5 63.5z" />
    <glyph glyph-name="uni2725" unicode="&#x2725;" horiz-adv-x="865" 
d="M50 348q0 22 42 64.5t64 42.5q14 0 40 -21t46 -46l163 -10l-10 157q-25 20 -46.5 46.5t-21.5 40.5q0 22 42 64.5t64 42.5t64.5 -42.5t42.5 -64.5q0 -14 -21.5 -40.5t-46.5 -46.5l-10 -157l160 10q20 25 46 46t40 21q22 0 64.5 -42.5t42.5 -64.5t-42.5 -64t-64.5 -42
q-15 0 -42.5 22.5t-46.5 48.5l-157 10l10 -162q25 -20 46.5 -46.5t21.5 -40.5q0 -22 -42.5 -64t-64.5 -42t-64 42t-42 64q0 14 21.5 40.5t46.5 46.5l10 162l-159 -10q-20 -26 -48 -48.5t-42 -22.5q-22 0 -64 42t-42 64z" />
    <glyph glyph-name="uni2726" unicode="&#x2726;" horiz-adv-x="825" 
d="M50 351q0 47 69 135.5t157 158.5t135 70t135.5 -70t158.5 -158.5t70 -135.5t-70 -135t-158.5 -157t-135.5 -69t-135 69t-157 157t-69 135z" />
    <glyph glyph-name="uni2727" unicode="&#x2727;" horiz-adv-x="822" 
d="M50 337v31q172 129 345 347h32q173 -218 345 -347v-31q-172 -129 -345 -347h-32q-173 218 -345 347z" />
    <glyph glyph-name="uni2756" unicode="&#x2756;" horiz-adv-x="826" 
d="M243 536v15q82 61 163 164h16q79 -100 163 -164v-15q-86 -65 -163 -165h-16q-79 103 -163 165zM50 345v15q84 64 163 164h16q79 -100 163 -164v-15q-82 -60 -163 -164h-16q-81 104 -163 164zM434 345v15q84 64 163 164h16q81 -103 163 -164v-15q-80 -58 -163 -164h-16
q-81 104 -163 164zM242 155v15q80 58 163 164h16q81 -104 163 -164v-15q-86 -65 -163 -165h-16q-79 103 -163 165z" />
    <glyph glyph-name="uni2766" unicode="&#x2766;" horiz-adv-x="885" 
d="M713 137l36 -33q-100 -116 -267 -113q-117 2 -196.5 81t-79.5 213q0 63 17.5 110t45.5 71.5t62 35t67 6t61 -20.5q-3 47 -18 84q-52 -15 -89 -15q-128 0 -166 138q-85 -36 -85 -151h-50q0 102 60 157t146 55q63 0 120 -32t92 -92l63 24t73 25.5t68 17t82 7.5t81 -13
l-10 -50q-19 5 -38 7.5t-39.5 2t-36 -1.5t-39 -6.5t-35.5 -8t-38.5 -11l-35.5 -11.5l-38.5 -13.5t-36.5 -13.5q17 -47 20 -101q30 21 69.5 23t74 -13t58.5 -51t24 -85q0 -55 -23.5 -98.5t-57.5 -68.5t-68 -43t-57.5 -32t-23.5 -26q0 -27 39 -27q98 0 169 73z" />
    <glyph glyph-name="uni2776" unicode="&#x2776;" horiz-adv-x="815" 
d="M408 -8q-152 0 -255 104.5t-103 257.5q0 152 103 257.5t255 105.5q151 0 254 -105.5t103 -257.5q0 -150 -104 -256t-253 -106zM280 555l4 -40l105 10v-404h65v471h-10z" />
    <glyph glyph-name="uni2777" unicode="&#x2777;" horiz-adv-x="815" 
d="M408 -8q-152 0 -255 104.5t-103 257.5q0 152 103 257.5t255 105.5q151 0 254 -105.5t103 -257.5q0 -150 -104 -256t-253 -106zM468 462q0 -124 -193 -308v-33h272l6 54l-201 -5q181 167 181 295q0 64 -35.5 95t-96.5 31q-30 0 -57.5 -5.5t-40.5 -11.5l-13 -6v-54
q49 23 101 23q77 0 77 -75z" />
    <glyph glyph-name="uni2778" unicode="&#x2778;" horiz-adv-x="815" 
d="M408 -8q-152 0 -255 104.5t-103 257.5q0 152 103 257.5t255 105.5q151 0 254 -105.5t103 -257.5q0 -150 -104 -256t-253 -106zM353 390l-6 -49q73 -1 107 -27t34 -65q0 -38 -26 -60t-72 -22q-25 0 -51 4.5t-39 8.5l-14 5l-14 -53q54 -20 118 -20q78 0 121 39t43 98
q0 49 -32.5 81.5t-86.5 40.5q49 12 74 42.5t25 70.5q0 51 -35 79t-98 28q-28 0 -55.5 -5.5t-40.5 -11.5l-13 -6v-54q46 23 103 23q36 0 55.5 -16.5t19.5 -44.5q0 -80 -117 -86z" />
    <glyph glyph-name="uni2779" unicode="&#x2779;" horiz-adv-x="815" 
d="M408 -8q-152 0 -255 104.5t-103 257.5q0 152 103 257.5t255 105.5q151 0 254 -105.5t103 -257.5q0 -150 -104 -256t-253 -106zM430 249v-128h64q-3 30 -3 60v68h69l5 50l-74 -1v291l-53 11l-219 -321l18 -30h193zM430 297l-142 -3l112 168l33 59h1q-4 -32 -4 -61v-163z
" />
    <glyph glyph-name="uni277A" unicode="&#x277a;" horiz-adv-x="815" 
d="M408 -8q-152 0 -255 104.5t-103 257.5q0 152 103 257.5t255 105.5q151 0 254 -105.5t103 -257.5q0 -150 -104 -256t-253 -106zM536 531l3 60h-230l-12 -221q187 -17 187 -111q0 -42 -24.5 -66t-73.5 -24q-40 0 -105 18l-14 -53q56 -20 122 -20q78 0 120 41t42 104
q0 138 -201 164l6 113z" />
    <glyph glyph-name="uni277B" unicode="&#x277b;" horiz-adv-x="815" 
d="M408 -8q-152 0 -255 104.5t-103 257.5q0 152 103 257.5t255 105.5q151 0 254 -105.5t103 -257.5q0 -150 -104 -256t-253 -106zM409 407q-51 0 -91 -26q24 145 201 169l-6 51q-266 -31 -266 -277q0 -102 44 -160q39 -52 107 -52q74 0 113 45t39 112q0 66 -36.5 102
t-104.5 36zM407 162q-93 0 -93 163q35 29 81 29q90 0 90 -93q0 -99 -78 -99z" />
    <glyph glyph-name="uni277C" unicode="&#x277c;" horiz-adv-x="815" 
d="M407 716q152 0 255 -104.5t103 -257.5q0 -152 -103 -257.5t-255 -105.5q-151 0 -254 105.5t-103 257.5q0 150 104 256t253 106zM278 591l-6 -61l222 7q-121 -249 -182 -415l69 -20q89 283 179 477v12h-282z" />
    <glyph glyph-name="uni277D" unicode="&#x277d;" horiz-adv-x="815" 
d="M407 716q152 0 255 -104.5t103 -257.5q0 -152 -103 -257.5t-255 -105.5q-151 0 -254 105.5t-103 257.5q0 150 104 256t253 106zM257 238q0 -59 41.5 -91.5t109.5 -32.5q60 0 104 37t44 95q0 46 -27 75t-74 55q35 17 61 46t27 69q1 49 -36.5 78.5t-95.5 29.5
q-61 0 -101 -32t-40 -86q0 -66 83 -114q-39 -17 -67.5 -50.5t-28.5 -78.5zM493 240q0 -35 -24.5 -55t-62.5 -20q-41 0 -63 21.5t-22 55.5q0 61 68 105q27 -15 39.5 -22.5t31 -22t26 -29.5t7.5 -33zM334 488q0 27 20.5 43t53.5 16q35 0 53.5 -17t17.5 -45q-1 -47 -60 -90
q-42 23 -63.5 43t-21.5 50z" />
    <glyph glyph-name="uni277E" unicode="&#x277e;" horiz-adv-x="815" 
d="M407 716q152 0 255 -104.5t103 -257.5q0 -152 -103 -257.5t-255 -105.5q-151 0 -254 105.5t-103 257.5q0 150 104 256t253 106zM419 307q32 0 76 11q-18 -81 -71.5 -115t-133.5 -43l11 -48q267 24 267 288q0 199 -153 199q-73 0 -111.5 -43t-38.5 -110q0 -66 40.5 -102.5
t113.5 -36.5zM502 391q0 -15 -1 -23q-33 -11 -70 -11q-49 0 -75 26.5t-26 69.5q0 46 20.5 72t60.5 26q91 0 91 -160z" />
    <glyph glyph-name="uni277F" unicode="&#x277f;" horiz-adv-x="815" 
d="M407 716q152 0 255 -104.5t103 -257.5q0 -152 -103 -257.5t-255 -105.5q-151 0 -254 105.5t-103 257.5q0 150 104 256t253 106zM156 557l4 -40l72 8v-404h65v471h-10zM497 172q-78 0 -78 199q0 170 75 170q42 0 61 -59.5t19 -149.5q0 -160 -77 -160zM491 110
q70 0 116.5 63.5t46.5 192.5q0 106 -43 171.5t-109 65.5q-75 0 -119 -66.5t-44 -199.5q0 -105 43 -166t109 -61z" />
    <glyph glyph-name="uni2780" unicode="&#x2780;" horiz-adv-x="815" 
d="M408 -8q-152 0 -255 104.5t-103 257.5q0 152 103 257.5t255 105.5q151 0 254 -105.5t103 -257.5q0 -150 -104 -256t-253 -106zM284 515l-4 40l164 37h10v-471h-65v404zM408 26q135 0 229 96t94 232q0 138 -93 233.5t-230 95.5t-231 -95.5t-94 -233.5t93.5 -233t231.5 -95
z" />
    <glyph glyph-name="uni2781" unicode="&#x2781;" horiz-adv-x="815" 
d="M468 462q0 75 -77 75q-23 0 -48.5 -5.5t-38.5 -11.5l-14 -6v54q44 23 111 23q61 0 96.5 -31t35.5 -95q0 -128 -181 -295l201 5l-6 -54h-272v33q193 184 193 308zM408 -8q-152 0 -255 104.5t-103 257.5q0 152 103 257.5t255 105.5q151 0 254 -105.5t103 -257.5
q0 -150 -104 -256t-253 -106zM408 26q135 0 229 96t94 232q0 138 -93 233.5t-230 95.5t-231 -95.5t-94 -233.5t93.5 -233t231.5 -95z" />
    <glyph glyph-name="uni2782" unicode="&#x2782;" horiz-adv-x="815" 
d="M347 341l6 49q117 6 117 86q0 28 -19.5 44.5t-55.5 16.5q-25 0 -51 -5.5t-39 -11.5l-13 -6v54q45 23 109 23q63 0 98 -28t35 -79q0 -40 -25 -70.5t-74 -42.5q54 -8 86.5 -40.5t32.5 -81.5q0 -59 -43 -98t-121 -39q-28 0 -57.5 5t-44.5 10l-16 5l14 53q48 -18 104 -18
q46 0 72 22t26 60q0 39 -34 65t-107 27zM408 -8q-152 0 -255 104.5t-103 257.5q0 152 103 257.5t255 105.5q151 0 254 -105.5t103 -257.5q0 -150 -104 -256t-253 -106zM408 26q135 0 229 96t94 232q0 138 -93 233.5t-230 95.5t-231 -95.5t-94 -233.5t93.5 -233t231.5 -95z
" />
    <glyph glyph-name="uni2783" unicode="&#x2783;" horiz-adv-x="815" 
d="M430 121v128h-193l-18 30l219 321l53 -11v-291l74 1l-5 -50h-69v-68l3 -60h-64zM288 294l142 3v163l4 61h-1q-11 -23 -33 -59zM408 -8q-152 0 -255 104.5t-103 257.5q0 152 103 257.5t255 105.5q151 0 254 -105.5t103 -257.5q0 -150 -104 -256t-253 -106zM408 26
q135 0 229 96t94 232q0 138 -93 233.5t-230 95.5t-231 -95.5t-94 -233.5t93.5 -233t231.5 -95z" />
    <glyph glyph-name="uni2784" unicode="&#x2784;" horiz-adv-x="815" 
d="M539 591l-3 -60l-180 5l-6 -113q201 -26 201 -164q0 -63 -42 -104t-120 -41q-66 0 -122 20l14 53q65 -18 105 -18q49 0 73.5 24t24.5 66q0 94 -187 111l12 221h230zM408 -8q-152 0 -255 104.5t-103 257.5q0 152 103 257.5t255 105.5q151 0 254 -105.5t103 -257.5
q0 -150 -104 -256t-253 -106zM408 26q135 0 229 96t94 232q0 138 -93 233.5t-230 95.5t-231 -95.5t-94 -233.5t93.5 -233t231.5 -95z" />
    <glyph glyph-name="uni2785" unicode="&#x2785;" horiz-adv-x="815" 
d="M409 407q68 0 104.5 -36t36.5 -102q0 -67 -39 -112t-113 -45q-68 0 -107 52q-44 58 -44 160q0 246 266 277l6 -51q-177 -24 -201 -169q40 26 91 26zM407 162q78 0 78 99q0 93 -90 93q-46 0 -81 -29q0 -163 93 -163zM408 -8q-152 0 -255 104.5t-103 257.5q0 152 103 257.5
t255 105.5q151 0 254 -105.5t103 -257.5q0 -150 -104 -256t-253 -106zM408 26q135 0 229 96t94 232q0 138 -93 233.5t-230 95.5t-231 -95.5t-94 -233.5t93.5 -233t231.5 -95z" />
    <glyph glyph-name="uni2786" unicode="&#x2786;" horiz-adv-x="815" 
d="M272 530l6 61h282v-12q-90 -194 -179 -477l-69 20q61 166 182 415zM408 -8q-152 0 -255 104.5t-103 257.5q0 152 103 257.5t255 105.5q151 0 254 -105.5t103 -257.5q0 -150 -104 -256t-253 -106zM408 26q135 0 229 96t94 232q0 138 -93 233.5t-230 95.5t-231 -95.5
t-94 -233.5t93.5 -233t231.5 -95z" />
    <glyph glyph-name="uni2787" unicode="&#x2787;" horiz-adv-x="815" 
d="M257 238q0 45 28.5 78.5t67.5 50.5q-83 48 -83 114q0 54 40 86t101 32q58 0 95.5 -29.5t36.5 -78.5q-1 -40 -27 -69t-61 -46q47 -26 74 -55t27 -75q0 -58 -44 -95t-104 -37q-68 0 -109.5 32.5t-41.5 91.5zM493 240q0 18 -7.5 33t-26 29.5t-31 22t-39.5 22.5
q-68 -44 -68 -105q0 -34 22 -55.5t63 -21.5q38 0 62.5 20t24.5 55zM334 488q0 -30 21.5 -50t63.5 -43q59 43 60 90q1 28 -17.5 45t-53.5 17q-33 0 -53.5 -16t-20.5 -43zM408 -8q-152 0 -255 104.5t-103 257.5q0 152 103 257.5t255 105.5q151 0 254 -105.5t103 -257.5
q0 -150 -104 -256t-253 -106zM408 26q135 0 229 96t94 232q0 138 -93 233.5t-230 95.5t-231 -95.5t-94 -233.5t93.5 -233t231.5 -95z" />
    <glyph glyph-name="uni2788" unicode="&#x2788;" horiz-adv-x="815" 
d="M419 307q-73 0 -113.5 36.5t-40.5 102.5q0 67 38.5 110t111.5 43q153 0 153 -199q0 -264 -267 -288l-11 48q80 9 133.5 43t71.5 115q-44 -11 -76 -11zM502 391q0 160 -91 160q-40 0 -60.5 -26t-20.5 -72q0 -43 26 -69.5t75 -26.5q37 0 70 11q1 8 1 23zM408 -8
q-152 0 -255 104.5t-103 257.5q0 152 103 257.5t255 105.5q151 0 254 -105.5t103 -257.5q0 -150 -104 -256t-253 -106zM408 26q135 0 229 96t94 232q0 138 -93 233.5t-230 95.5t-231 -95.5t-94 -233.5t93.5 -233t231.5 -95z" />
    <glyph glyph-name="uni2789" unicode="&#x2789;" horiz-adv-x="815" 
d="M160 517l-4 40l131 35h10v-471h-65v404zM497 172q77 0 77 160q0 90 -19 149.5t-61 59.5q-75 0 -75 -170q0 -199 78 -199zM491 110q-66 0 -109 61t-43 166q0 133 44 199.5t119 66.5q66 0 109 -65.5t43 -171.5q0 -129 -46.5 -192.5t-116.5 -63.5zM408 -8q-152 0 -255 104.5
t-103 257.5q0 152 103 257.5t255 105.5q151 0 254 -105.5t103 -257.5q0 -150 -104 -256t-253 -106zM408 26q135 0 229 96t94 232q0 138 -93 233.5t-230 95.5t-231 -95.5t-94 -233.5t93.5 -233t231.5 -95z" />
    <glyph glyph-name="uni278A" unicode="&#x278a;" horiz-adv-x="815" 
d="M280 555l4 -40l105 10v-404h65v471h-10zM86 0l-30 29v642l30 29h643l29 -29v-643l-29 -28h-643z" />
    <glyph glyph-name="uni278B" unicode="&#x278b;" horiz-adv-x="815" 
d="M468 462q0 -124 -193 -308v-33h272l6 54l-201 -5q181 167 181 295q0 64 -35.5 95t-96.5 31q-30 0 -57.5 -5.5t-40.5 -11.5l-13 -6v-54q49 23 101 23q77 0 77 -75zM86 0l-30 29v642l30 29h643l29 -29v-643l-29 -28h-643z" />
    <glyph glyph-name="uni278C" unicode="&#x278c;" horiz-adv-x="815" 
d="M353 390l-6 -49q73 -1 107 -27t34 -65q0 -38 -26 -60t-72 -22q-25 0 -51 4.5t-39 8.5l-14 5l-14 -53q54 -20 118 -20q78 0 121 39t43 98q0 49 -32.5 81.5t-86.5 40.5q49 12 74 42.5t25 70.5q0 51 -35 79t-98 28q-28 0 -55.5 -5.5t-40.5 -11.5l-13 -6v-54q46 23 103 23
q36 0 55.5 -16.5t19.5 -44.5q0 -80 -117 -86zM86 0l-30 29v642l30 29h643l29 -29v-643l-29 -28h-643z" />
    <glyph glyph-name="uni278D" unicode="&#x278d;" horiz-adv-x="815" 
d="M430 249v-128h64q-3 30 -3 60v68h69l5 50l-74 -1v291l-53 11l-219 -321l18 -30h193zM430 297l-142 -3l112 168l33 59h1q-4 -32 -4 -61v-163zM86 0l-30 29v642l30 29h643l29 -29v-643l-29 -28h-643z" />
    <glyph glyph-name="uni278E" unicode="&#x278e;" horiz-adv-x="815" 
d="M536 531l3 60h-230l-12 -221q187 -17 187 -111q0 -42 -24.5 -66t-73.5 -24q-40 0 -105 18l-14 -53q56 -20 122 -20q78 0 120 41t42 104q0 138 -201 164l6 113zM86 0l-30 29v642l30 29h643l29 -29v-643l-29 -28h-643z" />
    <glyph glyph-name="uni278F" unicode="&#x278f;" horiz-adv-x="815" 
d="M409 407q-51 0 -91 -26q24 145 201 169l-6 51q-266 -31 -266 -277q0 -102 44 -160q39 -52 107 -52q74 0 113 45t39 112q0 66 -36.5 102t-104.5 36zM407 162q-93 0 -93 163q35 29 81 29q90 0 90 -93q0 -99 -78 -99zM86 0l-30 29v642l30 29h643l29 -29v-643l-29 -28h-643z
" />
    <glyph glyph-name="uni2790" unicode="&#x2790;" horiz-adv-x="815" 
d="M278 591l-6 -61l222 7q-121 -249 -182 -415l69 -20q89 283 179 477v12h-282zM86 0l-30 29v642l30 29h643l29 -29v-643l-29 -28h-643z" />
    <glyph glyph-name="uni2791" unicode="&#x2791;" horiz-adv-x="815" 
d="M257 238q0 -59 41.5 -91.5t109.5 -32.5q60 0 104 37t44 95q0 46 -27 75t-74 55q35 17 61 46t27 69q1 49 -36.5 78.5t-95.5 29.5q-61 0 -101 -32t-40 -86q0 -66 83 -114q-39 -17 -67.5 -50.5t-28.5 -78.5zM493 240q0 -35 -24.5 -55t-62.5 -20q-41 0 -63 21.5t-22 55.5
q0 61 68 105q27 -15 39.5 -22.5t31 -22t26 -29.5t7.5 -33zM334 488q0 27 20.5 43t53.5 16q35 0 53.5 -17t17.5 -45q-1 -47 -60 -90q-42 23 -63.5 43t-21.5 50zM86 0l-30 29v642l30 29h643l29 -29v-643l-29 -28h-643z" />
    <glyph glyph-name="uni2792" unicode="&#x2792;" horiz-adv-x="815" 
d="M419 307q32 0 76 11q-18 -81 -71.5 -115t-133.5 -43l11 -48q267 24 267 288q0 199 -153 199q-73 0 -111.5 -43t-38.5 -110q0 -66 40.5 -102.5t113.5 -36.5zM502 391q0 -15 -1 -23q-33 -11 -70 -11q-49 0 -75 26.5t-26 69.5q0 46 20.5 72t60.5 26q91 0 91 -160zM86 0
l-30 29v642l30 29h643l29 -29v-643l-29 -28h-643z" />
    <glyph glyph-name="uni2793" unicode="&#x2793;" horiz-adv-x="815" 
d="M156 557l4 -40l72 8v-404h65v471h-10zM497 172q-78 0 -78 199q0 170 75 170q42 0 61 -59.5t19 -149.5q0 -160 -77 -160zM491 110q70 0 116.5 63.5t46.5 192.5q0 106 -43 171.5t-109 65.5q-75 0 -119 -66.5t-44 -199.5q0 -105 43 -166t109 -61zM86 0l-30 29v642l30 29h643
l29 -29v-643l-29 -28h-643z" />
    <glyph glyph-name="uni2794" unicode="&#x2794;" horiz-adv-x="767" 
d="M606 280l-4 3q-43 39 -85 88.5t-55 76.5h90q50 -76 123 -142l50 -46v-29l-50 -46q-72 -67 -123 -142h-90q12 26 54.5 74.5t86.5 88.5h-542v74h545z" />
    <glyph glyph-name="uni2799" unicode="&#x2799;" horiz-adv-x="757" 
d="M489 280v202h37q49 -90 143 -176l50 -46v-29l-50 -46q-94 -86 -143 -176h-37v197h-434v74h434z" />
    <glyph glyph-name="uni279B" unicode="&#x279b;" horiz-adv-x="752" 
d="M51 211v69l475 1q-75 20 -140 70t-87 97l70 46q26 -47 137.5 -125t208.5 -109v-29q-97 -31 -208.5 -109t-137.5 -125l-70 46q22 47 87 97t140 70z" />
    <glyph glyph-name="uni27B3" unicode="&#x27b3;" horiz-adv-x="1152" 
d="M797 61h-10v145h-295l-23 -21q-94 -86 -143 -176l-64 34q15 33 50 81.5t74 83.5l42 37l-42 38q-39 35 -74 83.5t-50 81.5l64 34q49 -90 143 -176l29 -26h289v153h10q21 -7 56 -21t120 -61.5t142 -100.5v-9q-57 -52 -136.5 -97t-130.5 -64zM218 245l-42 38
q-66 60 -116 150l65 34q46 -79 134 -161l50 -46v-29l-50 -46q-84 -77 -133 -159l-65 35q48 86 115 147z" />
    <glyph glyph-name="uni27B4" unicode="&#x27b4;" horiz-adv-x="950" 
d="M560 -34l-7 7l103 103l-209 209l-31 1q-125 6 -225 -23l-22 69q35 13 93.5 22.5t111.5 6.5l56 -4l-3 57q-3 52 6.5 110.5t22.5 93.5l69 -21q-29 -102 -23 -225l2 -39l204 -205l108 109l7 -8q10 -20 25 -54.5t41.5 -128t29.5 -171.5l-6 -6q-77 3 -165.5 27.5t-137.5 47.5z
M281 506l-3 56q-4 87 24 189l70 -22q-23 -93 -19 -209l3 -68l-20 -20l-68 3q-115 4 -207 -19l-21 71q93 28 185 22z" />
    <glyph glyph-name="uni27B5" unicode="&#x27b5;" horiz-adv-x="1152" 
d="M365 61h-10q-8 3 -21.5 7.5t-53 21.5t-76.5 36.5t-84 50.5t-83 64v9q57 53 136.5 98.5t130.5 65.5l51 19h10v-153h289l29 26q94 86 143 176l64 -34q-15 -33 -50 -81.5t-74 -83.5l-42 -38l42 -37q39 -35 74 -83.5t50 -81.5l-64 -34q-49 90 -143 176l-23 21h-295v-145z
M976 283l-42 -38l42 -37q67 -61 115 -147l-65 -35q-49 82 -133 159l-50 46v29l50 46q88 82 134 161l65 -34q-50 -90 -116 -150z" />
    <glyph glyph-name="uni27B6" unicode="&#x27b6;" horiz-adv-x="951" 
d="M547 647l7 7q20 10 54.5 25t128 42t170.5 30l6 -6q-3 -78 -27 -166.5t-46 -138.5l-23 -49l-7 -8l-108 109l-204 -205l-2 -39q-6 -123 23 -225l-69 -21q-13 35 -22.5 93.5t-6.5 110.5l3 57l-56 -4q-53 -3 -111.5 6.5t-93.5 22.5l22 69q100 -29 225 -23l31 1l209 209z
M272 58l3 56l-56 -3q-92 -6 -185 22l21 71q92 -23 207 -19l68 3l20 -20l-3 -68q-4 -116 19 -209l-70 -22q-28 102 -24 189z" />
    <glyph glyph-name="uni27BB" unicode="&#x27bb;" horiz-adv-x="841" 
d="M674 280l-4 3q-39 35 -74 83.5t-50 81.5l64 34q49 -90 143 -176l50 -46v-29l-50 -46q-94 -86 -143 -176l-64 34q15 33 49.5 80.5t72.5 82.5h-163q-112 0 -233.5 -21.5t-205.5 -46.5v216q11 -2 75 -18t111.5 -26t120.5 -20t133 -10h168z" />
    <glyph glyph-name="uni27BC" unicode="&#x27bc;" horiz-adv-x="868" 
d="M701 280l-4 3q-39 35 -74 83.5t-50 81.5l64 34q49 -90 143 -176l50 -46v-29l-50 -46q-94 -86 -143 -176l-64 34q15 33 49.5 80.5t72.5 82.5h-284q-15 -29 -61.5 -48t-101.5 -19h-192q6 2 16 7.5t23.5 16.5t23 29.5t9.5 40.5v24q0 31 -16.5 54.5t-29.5 31t-21 9.5h40h47.5
t44.5 0.5t35 0.5h13q57 0 105.5 -20.5t64.5 -52.5h290z" />
    <glyph glyph-name="uni27BD" unicode="&#x27bd;" horiz-adv-x="873" 
d="M706 280l-4 3q-39 35 -74 83.5t-50 81.5l64 34q49 -90 143 -176l50 -46v-29l-50 -46q-94 -86 -143 -176l-64 34q15 33 49.5 80.5t72.5 82.5h-284l-54 -67h-301l72 84v44l-72 85l301 1l54 -73h290z" />
    <glyph glyph-name="uni27BE" unicode="&#x27be;" horiz-adv-x="758" 
d="M55 190v105h477q-63 69 -99 145l94 48q51 -92 139 -174l53 -48v-43l-53 -48q-87 -80 -139 -173l-94 48q13 28 40.5 69t54.5 71h-473zM575 279l4 -2h-505v-69h499q-36 -32 -68 -76t-47 -74l60 -31q47 82 135 162l47 42v27l-47 43q-90 81 -135 162l-60 -31q14 -31 47 -76
t70 -77z" />
    <glyph glyph-name="commaaccent" unicode="&#xf6c3;" horiz-adv-x="170" 
d="M35 -312l-18 24q37 22 63.5 56.5t30.5 70.5q-34 -8 -54.5 10t-20.5 46q0 27 18 43.5t46 16.5t46.5 -18.5t18.5 -53.5q0 -59 -36.5 -112t-93.5 -83z" />
    <glyph glyph-name="uniFFFD" unicode="&#xfffd;" horiz-adv-x="1022" 
d="M30 267l481 482l481 -482l-481 -480zM496 480q41 0 64 -16.5t23 -44.5q0 -30 -23 -57.5t-50 -46t-50 -48t-23 -63.5q0 -31 22 -51.5t52 -20.5q35 0 71 30l-33 42q-11 -9 -21 -9q-7 0 -12 6.5t-5 13.5q0 14 15.5 30.5t37.5 33t44.5 36t38 48t15.5 60.5q0 49 -37.5 84
t-117.5 35q-38 0 -69.5 -9.5t-43.5 -18.5l-13 -10v-62q46 38 115 38zM501 -35q25 0 40 14t15 38q0 22 -13.5 34.5t-36.5 12.5q-25 0 -40.5 -13t-15.5 -36q0 -22 14 -36t37 -14z" />
    <glyph glyph-name="H.sc" horiz-adv-x="754" 
d="M220 326h314v231l-80 13v31h253v-31l-80 -13v-513l80 -13v-31h-253v31l80 13v232h-314v-232l80 -13v-31h-253v31l80 13v513l-80 13v31h253v-31l-80 -13v-231z" />
    <glyph glyph-name="I.sc" horiz-adv-x="347" 
d="M220 557v-513l80 -13v-31h-253v31l80 13v513l-80 13v31h253v-31z" />
    <glyph glyph-name="J.sc" horiz-adv-x="337" 
d="M218 557v-475q0 -72 -17 -118q-12 -31 -33.5 -63.5t-37 -50l-50.5 -55.5q-8 -9 -12 -13l-33 24l42 58q27 37 35 72t8 94v527l-80 13v31h258v-31z" />
    <glyph glyph-name="L.sc" horiz-adv-x="561" 
d="M47 31l80 13v513l-80 13v31h263v-31l-90 -13v-507l248 4l27 116h37l-4 -170h-481v31z" />
    <glyph glyph-name="O.sc" horiz-adv-x="690" 
d="M358 34q87 0 132 72t45 167q0 76 -21 139.5t-68.5 106.5t-114.5 43q-86 0 -131 -72.5t-45 -166.5q0 -118 53 -203.5t150 -85.5zM335 -14q-128 0 -204.5 86t-76.5 223q0 60 17.5 114.5t52.5 100.5t94.5 73t136.5 27q128 0 205 -86t77 -223q0 -60 -17.5 -114.5
t-52.5 -100.5t-95 -73t-137 -27z" />
    <glyph glyph-name="E.sc" horiz-adv-x="585" 
d="M444 265l-224 5v-220l248 4l27 116h37l-4 -170h-481v31l80 13v513l-80 13v31h472l-7 -174h-37l-19 118l-236 6v-231l224 6v-61z" />
    <glyph glyph-name="F.sc" horiz-adv-x="552" 
d="M47 601h472l-7 -174h-37l-19 118l-236 6v-241l224 6v-61l-224 5v-216l100 -13v-31h-273v31l80 13v513l-80 13v31z" />
    <glyph glyph-name="T.sc" horiz-adv-x="622" 
d="M265 44v509l-167 -9l-27 -127h-37l-1 184h561l-11 -184h-37l-17 127l-171 9v-509l80 -13v-31h-253v31z" />
    <glyph glyph-name="D.sc" horiz-adv-x="699" 
d="M47 570v31h252q164 0 255.5 -73t91.5 -211q0 -143 -93.5 -230t-245.5 -87h-260v31l80 13v513zM225 50h62q121 0 190 69t69 178q0 115 -67 184.5t-192 69.5h-62v-501z" />
    <glyph glyph-name="C.sc" horiz-adv-x="618" 
d="M378 609q49 0 92 -10t62 -20l19 -10l-1 -160h-39l-27 129q-42 20 -99 20q-107 0 -171 -73t-64 -173q0 -121 62.5 -197t168.5 -76q66 0 113 17l27 127h38l-6 -157l-23 -11t-64.5 -18t-102.5 -11q-63 0 -117.5 18.5t-98 54t-69 93.5t-25.5 132q0 49 10.5 94.5t35.5 88
t61.5 73.5t92.5 50t125 19z" />
    <glyph glyph-name="N.sc" horiz-adv-x="722" 
d="M603 557v-557l-42 -16l-380 472v-412l80 -13v-31h-218v31l80 13v476l-44 53v28h102l364 -459v415l-80 13v31h218v-31z" />
    <glyph glyph-name="U.sc" horiz-adv-x="718" 
d="M612 557v-274q0 -293 -252 -293q-120 0 -187.5 73.5t-67.5 202.5v291l-80 13v31h258v-31l-80 -13v-284q0 -232 166 -232q83 0 125.5 57t42.5 163v296l-80 13v31h235v-31z" />
    <glyph glyph-name="Q.sc" horiz-adv-x="690" 
d="M335 -14q-128 0 -204.5 86t-76.5 223q0 60 17.5 114.5t52.5 100.5t94.5 73t136.5 27q128 0 205 -86t77 -223q0 -88 -37 -163.5t-111 -115.5q31 -21 51 -45l102 -119q16 -19 26.5 -25t30.5 -8v-31h-52q-45 0 -63 9t-46 44l-121 148q-38 -9 -82 -9zM358 34q87 0 132 72
t45 167q0 76 -21 139.5t-68.5 106.5t-114.5 43q-86 0 -131 -72.5t-45 -166.5q0 -118 53 -203.5t150 -85.5z" />
    <glyph glyph-name="P.sc" horiz-adv-x="580" 
d="M220 215v-171l80 -13v-31h-253v31l80 13v513l-80 13v31h265q105 0 168 -49t63 -140q0 -88 -59 -142.5t-172 -54.5h-92zM299 551h-79v-286h80q68 0 106.5 40.5t38.5 101.5q0 62 -39 103t-107 41z" />
    <glyph glyph-name="Z.sc" horiz-adv-x="553" 
d="M120 547l-24 -116h-37l4 170h439v-15l-339 -536l278 4l22 111h37l-4 -165h-453v15l339 536z" />
    <glyph glyph-name="V.sc" horiz-adv-x="670" 
d="M596 549l-220 -549l-78 -6l-224 554l-75 22v31h250v-31l-73 -22l135 -351q11 -28 21 -57.5t14 -44.5l4 -15h4l40 115l128 354l-81 21v31h230v-31z" />
    <glyph glyph-name="A.sc" horiz-adv-x="647" 
d="M73 44l208 557l77 6l223 -566l65 -10v-31h-238v31l76 9l-51 133h-256l-14 -41l-26 -89l77 -12v-31h-216v31zM302 530h-4q-15 -57 -37 -119l-66 -188h219l-70 186z" />
    <glyph glyph-name="G.sc" horiz-adv-x="678" 
d="M401 558q-116 0 -184 -74.5t-68 -180.5q0 -120 74 -192.5t186 -72.5q36 0 74 5v182l-100 14v31h268v-31l-80 -14v-207q-63 -32 -183 -32q-91 0 -165.5 31t-122.5 100t-48 167q0 49 11.5 94.5t38 88t65 73.5t97 50t130.5 19q49 0 92 -10t62 -20l19 -10l-1 -160h-39
l-27 129q-42 20 -99 20z" />
    <glyph glyph-name="R.sc" horiz-adv-x="629" 
d="M220 235v-191l80 -13v-31h-253v31l80 13v513l-80 13v31h275q107 0 169 -44.5t62 -134.5q0 -136 -130 -174l116 -182q18 -27 27.5 -34t34.5 -10v-22q-31 -11 -73 -11q-33 0 -51 14t-39 52l-101 180h-117zM309 551h-89v-266h90q69 0 107 36t38 96t-38.5 97t-107.5 37z" />
    <glyph glyph-name="S.sc" horiz-adv-x="533" 
d="M243 38q61 0 103 28t42 77q0 35 -24 60t-60 38t-77.5 30t-77.5 34.5t-60 52t-24 82.5q0 72 58 120.5t169 48.5q49 0 91.5 -10t60.5 -20l18 -10l-1 -160h-39l-27 129q-45 21 -110 21q-61 0 -96 -27t-35 -66q0 -44 33.5 -73t81 -45.5l94.5 -34.5t80.5 -54.5t33.5 -91.5
q0 -81 -63.5 -131t-170.5 -50q-48 0 -92.5 10t-65.5 20l-21 10l-6 157h38l27 -126q54 -19 120 -19z" />
    <glyph glyph-name="M.sc" horiz-adv-x="904" 
d="M691 44l-12 377l3 63l-5 1q-9 -28 -25 -58l-209 -393h-14l-213 388l-29 60l-5 -2l3 -67l-3 -363l82 -19v-31h-218v31l78 19l6 506l-79 14v31h169l199 -372l32 -67h3q13 34 31 68l193 371h172v-31l-79 -13l14 -513l80 -13v-31h-254v31z" />
    <glyph glyph-name="B.sc" horiz-adv-x="610" 
d="M220 50h123q51 0 84 32.5t33 86.5q0 53 -33.5 82.5t-89.5 29.5h-117v-231zM440 440q0 53 -35 82t-102 29h-83v-220h160q2 1 6.5 3.5t14.5 11.5t18 20.5t14.5 31t6.5 42.5zM336 0h-289v31l80 13v513l-80 13v31h274q102 0 159.5 -39t57.5 -115q0 -49 -30.5 -84.5
t-83.5 -51.5v-4q61 -12 97.5 -48t36.5 -90q0 -81 -61 -125t-161 -44z" />
    <glyph glyph-name="K.sc" horiz-adv-x="660" 
d="M220 273v-229l80 -13v-31h-253v31l80 13v513l-80 13v31h249v-31l-76 -13v-234h88l158 231l-59 16v31h224v-31l-79 -16l-185 -229l213 -254q20 -23 30.5 -29t41.5 -11v-31h-80q-41 0 -55 8t-42 43l-182 222h-73z" />
    <glyph glyph-name="W.sc" horiz-adv-x="939" 
d="M662 80h3q11 55 23 98l101 368l-77 24v31h226v-31l-76 -23l-174 -547l-85 -6l-124 402l-16 74h-3q-6 -42 -14 -74l-108 -396l-88 -6l-169 552l-80 24v31h245v-31l-70 -24l104 -366l25 -100h3q8 55 21 100l115 421l65 4l129 -425z" />
    <glyph glyph-name="X.sc" horiz-adv-x="666" 
d="M85 56l198 240l-197 250l-70 24v31h263v-31l-82 -22l149 -196l143 196l-82 22v31h228v-31l-63 -23l-195 -236l213 -258l69 -22v-31h-263v31l83 22l-163 203l-151 -201l83 -24v-31h-228v31z" />
    <glyph glyph-name="Y.sc" horiz-adv-x="618" 
d="M355 224v-180l80 -13v-31h-253v31l80 13v181l-192 325l-72 20v31h253v-31l-79 -19l112 -202l41 -79h4q16 38 39 79l102 197l-81 24v31h228v-31l-71 -24z" />
    <glyph glyph-name="afii10017.sc" horiz-adv-x="647" 
d="M73 44l208 557l77 6l223 -566l65 -10v-31h-238v31l76 9l-51 133h-256l-14 -41l-26 -89l77 -12v-31h-216v31zM302 530h-4q-15 -57 -37 -119l-66 -188h219l-70 186z" />
    <glyph glyph-name="afii10019.sc" horiz-adv-x="610" 
d="M220 50h123q51 0 84 32.5t33 86.5q0 53 -33.5 82.5t-89.5 29.5h-117v-231zM440 440q0 53 -35 82t-102 29h-83v-220h160q2 1 6.5 3.5t14.5 11.5t18 20.5t14.5 31t6.5 42.5zM336 0h-289v31l80 13v513l-80 13v31h274q102 0 159.5 -39t57.5 -115q0 -49 -30.5 -84.5
t-83.5 -51.5v-4q61 -12 97.5 -48t36.5 -90q0 -81 -61 -125t-161 -44z" />
    <glyph glyph-name="afii10022.sc" horiz-adv-x="585" 
d="M444 265l-224 5v-220l248 4l27 116h37l-4 -170h-481v31l80 13v513l-80 13v31h472l-7 -174h-37l-19 118l-236 6v-231l224 6v-61z" />
    <glyph glyph-name="afii10023.sc" horiz-adv-x="585" 
d="M444 265l-224 5v-220l248 4l27 116h37l-4 -170h-481v31l80 13v513l-80 13v31h472l-7 -174h-37l-19 118l-236 6v-231l224 6v-61zM209 673q-23 0 -38.5 17t-15.5 40q0 24 16 40t41 16q26 0 40.5 -15t14.5 -39q0 -25 -16 -42t-42 -17zM408 673q-23 0 -38.5 17t-15.5 40
q0 24 16 40t41 16q26 0 40.5 -15t14.5 -39q0 -25 -16 -42t-42 -17z" />
    <glyph glyph-name="afii10028.sc" horiz-adv-x="660" 
d="M220 273v-229l80 -13v-31h-253v31l80 13v513l-80 13v31h249v-31l-76 -13v-234h88l158 231l-59 16v31h224v-31l-79 -16l-185 -229l213 -254q20 -23 30.5 -29t41.5 -11v-31h-80q-41 0 -55 8t-42 43l-182 222h-73z" />
    <glyph glyph-name="afii10030.sc" horiz-adv-x="904" 
d="M691 44l-12 377l3 63l-5 1q-9 -28 -25 -58l-209 -393h-14l-213 388l-29 60l-5 -2l3 -67l-3 -363l82 -19v-31h-218v31l78 19l6 506l-79 14v31h169l199 -372l32 -67h3q13 34 31 68l193 371h172v-31l-79 -13l14 -513l80 -13v-31h-254v31z" />
    <glyph glyph-name="afii10031.sc" horiz-adv-x="754" 
d="M220 326h314v231l-80 13v31h253v-31l-80 -13v-513l80 -13v-31h-253v31l80 13v232h-314v-232l80 -13v-31h-253v31l80 13v513l-80 13v31h253v-31l-80 -13v-231z" />
    <glyph glyph-name="afii10032.sc" horiz-adv-x="690" 
d="M358 34q87 0 132 72t45 167q0 76 -21 139.5t-68.5 106.5t-114.5 43q-86 0 -131 -72.5t-45 -166.5q0 -118 53 -203.5t150 -85.5zM335 -14q-128 0 -204.5 86t-76.5 223q0 60 17.5 114.5t52.5 100.5t94.5 73t136.5 27q128 0 205 -86t77 -223q0 -60 -17.5 -114.5
t-52.5 -100.5t-95 -73t-137 -27z" />
    <glyph glyph-name="afii10033.sc" horiz-adv-x="744" 
d="M47 601h650v-31l-80 -13v-513l80 -13v-31h-253v31l80 13v507h-304v-507l80 -13v-31h-253v31l80 13v513l-80 13v31z" />
    <glyph glyph-name="afii10034.sc" horiz-adv-x="580" 
d="M220 215v-171l80 -13v-31h-253v31l80 13v513l-80 13v31h265q105 0 168 -49t63 -140q0 -88 -59 -142.5t-172 -54.5h-92zM299 551h-79v-286h80q68 0 106.5 40.5t38.5 101.5q0 62 -39 103t-107 41z" />
    <glyph glyph-name="afii10035.sc" horiz-adv-x="618" 
d="M378 609q49 0 92 -10t62 -20l19 -10l-1 -160h-39l-27 129q-42 20 -99 20q-107 0 -171 -73t-64 -173q0 -121 62.5 -197t168.5 -76q66 0 113 17l27 127h38l-6 -157l-23 -11t-64.5 -18t-102.5 -11q-63 0 -117.5 18.5t-98 54t-69 93.5t-25.5 132q0 49 10.5 94.5t35.5 88
t61.5 73.5t92.5 50t125 19z" />
    <glyph glyph-name="afii10036.sc" horiz-adv-x="622" 
d="M265 44v509l-167 -9l-27 -127h-37l-1 184h561l-11 -184h-37l-17 127l-171 9v-509l80 -13v-31h-253v31z" />
    <glyph glyph-name="afii10039.sc" horiz-adv-x="666" 
d="M85 56l198 240l-197 250l-70 24v31h263v-31l-82 -22l149 -196l143 196l-82 22v31h228v-31l-63 -23l-195 -236l213 -258l69 -22v-31h-263v31l83 22l-163 203l-151 -201l83 -24v-31h-228v31z" />
    <glyph glyph-name="afii10020.sc" horiz-adv-x="546" 
d="M47 601h472l-7 -174h-37l-19 118l-236 6v-507l100 -13v-31h-273v31l80 13v513l-80 13v31z" />
    <glyph glyph-name="afii10040.sc" horiz-adv-x="744" 
d="M615 557v-507h94l-6 -224h-41l-27 174h-590v21l80 23v513l-80 23v21h253v-21l-80 -23v-507h304v507l-80 23v21h253v-21z" />
    <glyph glyph-name="afii10042.sc" horiz-adv-x="993" 
d="M47 0v31l80 13v513l-80 13v31h253v-31l-80 -13v-507h230v507l-70 13v31h233v-31l-70 -13v-507h230v507l-80 13v31h253v-31l-80 -13v-513l80 -13v-31h-899z" />
    <glyph glyph-name="afii10043.sc" horiz-adv-x="996" 
d="M886 0h-839v31l80 13v513l-80 13v31h253v-31l-80 -13v-507h230v507l-70 13v31h233v-31l-70 -13v-507h230v507l-80 13v31h253v-31l-80 -13v-507h94l-6 -224h-41z" />
    <glyph glyph-name="afii10018.sc" horiz-adv-x="605" 
d="M220 50h107q57 0 92.5 35t35.5 94q0 58 -35 92.5t-95 34.5h-105v-256zM47 601h472l-7 -174h-37l-19 118l-236 6v-195h124q99 0 155 -45t56 -124q0 -93 -63 -140t-170 -47h-275v31l80 13v513l-80 13v31z" />
    <glyph glyph-name="afii10029.sc" horiz-adv-x="680" 
d="M455 547h-190q-11 -149 -28 -252.5t-50 -191.5q-29 -77 -77 -100t-98 -3v82q88 -16 126 89q59 165 69 386l-80 13v31h506v-31l-80 -13v-513l80 -13v-31h-258v31l80 13v503z" />
    <glyph glyph-name="afii10021.sc" horiz-adv-x="675" 
d="M191 557l-80 13v31h514v-31l-80 -13v-507h94l-6 -224h-41l-27 174h-487l-37 -174h-41l4 224h59q128 131 128 507zM137 50h315v501h-198q-6 -190 -32.5 -312.5t-84.5 -188.5z" />
    <glyph glyph-name="afii10024.sc" horiz-adv-x="973" 
d="M440 44v229h-76l-182 -222q-27 -33 -43 -42t-51 -9h-80v31q32 5 42.5 11t29.5 29l212 254l-184 229l-79 16v31h224v-31l-59 -16l158 -231h88v234l-75 13v31h243v-31l-75 -13v-234h88l158 231l-59 16v31h224v-31l-79 -16l-185 -229l213 -254q20 -23 30.5 -29t41.5 -11v-31
h-80q-36 0 -52.5 9t-43.5 42l-182 222h-74v-229l80 -13v-31h-253v31z" />
    <glyph glyph-name="afii10026.sc" horiz-adv-x="760" 
d="M220 0h-173v31l80 13v513l-80 13v31h253v-31l-80 -13v-377l-5 -90h4q17 37 44 79l277 432h173v-31l-80 -13v-513l80 -13v-31h-253v31l80 13v393l4 75h-3q-14 -30 -39 -70z" />
    <glyph glyph-name="afii10027.sc" horiz-adv-x="760" 
d="M394 674q-112 0 -184 70l54 61q8 -7 34.5 -36.5t47.5 -42.5t48 -13t48 13t47.5 42.5t34.5 36.5l54 -61q-28 -27 -77 -48.5t-107 -21.5zM220 0h-173v31l80 13v513l-80 13v31h253v-31l-80 -13v-377l-5 -90h4q17 37 44 79l277 432h173v-31l-80 -13v-513l80 -13v-31h-253v31
l80 13v393l4 75h-3q-14 -30 -39 -70z" />
    <glyph glyph-name="afii10025.sc" horiz-adv-x="523" 
d="M216 39q74 0 113.5 37.5t39.5 93.5q0 114 -146 114h-51v50h53q66 0 100.5 30t34.5 83q0 48 -34 79.5t-89 31.5q-57 0 -99 -20l-27 -129h-39l-1 160q7 4 20.5 11t58.5 18t94 11q104 0 160 -42t56 -109q0 -52 -40.5 -93t-101.5 -49v-5q73 -8 112 -45t39 -96
q0 -77 -64.5 -130.5t-171.5 -53.5q-53 0 -96.5 10t-60.5 20l-17 10l-6 157h38l27 -127q40 -17 98 -17z" />
    <glyph glyph-name="afii10037.sc" horiz-adv-x="594" 
d="M533 549l-173 -400q-35 -80 -73 -119.5t-100 -39.5q-16 0 -31 3t-22 6l-7 3v65q22 -6 61 -6q55 0 86 39l-207 449l-66 31v21h234v-21l-74 -31l114 -263q12 -26 21.5 -52.5t13.5 -39.5l4 -13h6q17 51 36 99l105 269l-83 31v21h220v-21z" />
    <glyph glyph-name="afii10046.sc" horiz-adv-x="592" 
d="M220 557v-201h124q99 0 155 -45t56 -124q0 -93 -63 -140t-170 -47h-275v31l80 13v513l-80 13v31h263v-31zM220 50h107q57 0 92.5 35t35.5 94q0 58 -35 92.5t-95 34.5h-105v-256z" />
    <glyph glyph-name="afii10045.sc" horiz-adv-x="906" 
d="M220 557v-201h124q99 0 155 -45t56 -124q0 -93 -63 -140t-170 -47h-275v31l80 13v513l-80 13v31h263v-31zM220 50h107q57 0 92.5 35t35.5 94q0 58 -35 92.5t-95 34.5h-105v-256zM779 557v-513l80 -13v-31h-253v31l80 13v513l-80 13v31h253v-31z" />
    <glyph glyph-name="afii10044.sc" horiz-adv-x="712" 
d="M34 417l2 184h384v-21l-80 -23v-201h124q99 0 155 -45t56 -124q0 -93 -63 -140t-170 -47h-275v21l80 23v507l-154 -6l-22 -128h-37zM340 50h107q57 0 92.5 35t35.5 94q0 58 -35 92.5t-95 34.5h-105v-256z" />
    </font>
</defs>
</svg>
