<?xml version="1.0" standalone="no"?>
<!DOCTYPE svg PUBLIC "-//W3C//DTD SVG 1.1//EN" "http://www.w3.org/Graphics/SVG/1.1/DTD/svg11.dtd" >
<svg>
<metadata>
Created by FontForge 20090622 at Thu Jan 28 12:55:53 2016
 By deploy user
Copyright (c) 2013 by Mariya Pigoulevskaya. All rights reserved.
</metadata>
<defs>
<font id="Merel-Light" horiz-adv-x="537" >
  <font-face 
    font-family="Merel"
    font-weight="300"
    font-stretch="normal"
    units-per-em="1000"
    panose-1="0 0 4 0 0 0 0 0 0 0"
    ascent="789"
    descent="-211"
    x-height="400"
    cap-height="650"
    bbox="-53 -256.5 1136 1032"
    underline-thickness="50"
    underline-position="-50"
    unicode-range="U+0020-U+25CA"
  />
<missing-glyph horiz-adv-x="500" 
d="M0 0v700h500v-700h-500zM250 395l170 255h-340zM280 350l170 -255v510zM80 50h340l-170 255zM50 605v-510l170 255z" />
    <glyph glyph-name=".notdef" horiz-adv-x="500" 
d="M0 0v700h500v-700h-500zM250 395l170 255h-340zM280 350l170 -255v510zM80 50h340l-170 255zM50 605v-510l170 255z" />
    <glyph glyph-name=".null" horiz-adv-x="0" 
 />
    <glyph glyph-name="nonmarkingreturn" horiz-adv-x="333" 
 />
    <glyph glyph-name="space" unicode=" " horiz-adv-x="210" 
 />
    <glyph glyph-name="exclam" unicode="!" horiz-adv-x="160" 
d="M103 537l-9 -325q-15 -6 -29 0l-9 325v113q24 11 47 0v-113zM81 51q14 0 23 -9t9 -23t-9 -23t-23 -9q-15 0 -25 9t-10 23t10 23t25 9z" />
    <glyph glyph-name="quotedbl" unicode="&#x22;" horiz-adv-x="267" 
d="M93 650l-14 -197q-17 -7 -33 0v197q23 11 47 0zM220 650l-14 -197q-16 -7 -33 0v197q24 11 47 0z" />
    <glyph glyph-name="numbersign" unicode="#" horiz-adv-x="514" 
d="M332 272h97q1 -5 -2 -16t-7 -15h-96l-69 -242q-18 -9 -34 0l70 242h-113l-70 -242q-16 -9 -33 0l69 242h-96q-1 5 2 16q3 10 8 15h95l31 106h-97q-1 4 2 15t7 15h96l70 242q16 9 33 0l-69 -242h113l69 242q16 9 34 0l-70 -242h97q1 -16 -9 -30h-98zM216 378l-31 -106h113
l30 106h-112z" />
    <glyph glyph-name="dollar" unicode="$" horiz-adv-x="569" 
d="M500 164l-6 -5q0 -77 -57 -126q-56 -49 -147 -52v-93q-12 -11 -26 0v93q-107 4 -187 66q-4 4 -4 24t4 24q89 -74 201 -74q75 0 122 38t47 96q0 64 -42 94q-40 29 -143 61q-51 16 -79 28q-32 14 -60 34q-31 22 -44 51q-14 31 -14 69q0 70 54 119t146 51v93q14 11 26 0v-93
q104 -6 171 -64q4 -5 4 -25t-4 -24q-78 72 -188 72q-74 0 -117 -36t-43 -89q0 -56 39 -83q40 -28 147 -62q41 -13 62 -21q28 -10 53 -25q29 -17 45 -34t28 -45q12 -27 12 -62z" />
    <glyph glyph-name="percent" unicode="%" horiz-adv-x="766" 
d="M181 665v-2q62 0 98 -46q36 -47 36 -123t-36 -123q-36 -46 -98 -46t-98 47q-36 46 -36 123t36 123q36 47 98 47zM555 648l-308 -650q-18 -9 -35 0l308 650q17 9 35 0zM181 631q-45 0 -72 -36t-27 -101t27 -101t72 -36t71 36q26 37 26 101t-26 101q-26 36 -71 36zM585 323
v-2q62 0 98 -46q36 -47 36 -123t-36 -123q-36 -46 -98 -46t-98 47q-36 46 -36 123t36 123q36 47 98 47zM585 289q-45 0 -72 -36t-27 -101t27 -101t72 -36t71 36q26 37 26 101t-26 101q-26 36 -71 36z" />
    <glyph glyph-name="ampersand" unicode="&#x26;" horiz-adv-x="635" 
d="M271 665l-1 -4q76 0 120 -42t44 -106q0 -19 -6 -35q-7 -18 -12 -29q-6 -13 -22 -27q-15 -14 -25 -22q-11 -10 -33 -23l-35 -21l-40 -22l188 -191q64 88 67 205q24 11 47 0q-6 -136 -82 -237l115 -114q-8 -4 -30 -4t-30 4l-85 83q-92 -98 -216 -98q-80 0 -139 44
q-58 43 -58 119q0 67 39 111q40 44 118 90q-87 104 -87 174q0 61 45 103t118 42zM270 620l-1 1q-53 0 -84 -30t-31 -74q0 -61 78 -153l70 39q21 12 45 30q25 19 32 36q8 19 8 42q0 47 -30 78t-87 31zM420 110l-198 200q-73 -42 -106 -76t-33 -88q0 -58 45 -91t106 -33
q108 0 186 88z" />
    <glyph glyph-name="quotesingle" unicode="'" horiz-adv-x="139" 
d="M93 650l-14 -197q-17 -7 -33 0v197q23 11 47 0z" />
    <glyph glyph-name="parenleft" unicode="(" horiz-adv-x="228" 
d="M181 650l-1 -4q-40 -80 -66 -183q-25 -101 -25 -197t25 -197q26 -103 66 -183q-21 -9 -43 0q-41 75 -66 180q-25 103 -25 202q0 95 26 202q26 105 66 180q22 9 43 0z" />
    <glyph glyph-name="parenright" unicode=")" horiz-adv-x="228" 
d="M89 650l-1 4q40 -75 66 -180q26 -107 26 -202q0 -99 -25 -202q-25 -105 -66 -180q-21 -9 -43 0q40 80 66 183q25 101 25 197t-25 197q-26 103 -66 183q21 9 43 0z" />
    <glyph glyph-name="asterisk" unicode="*" horiz-adv-x="408" 
d="M217 507l133 54q14 -15 12 -36l-136 -42l96 -107q-11 -18 -29 -23l-89 118l-88 -118q-18 5 -29 23l96 107l-136 42q-1 21 12 36l133 -54l-7 143q19 7 37 0z" />
    <glyph glyph-name="plus" unicode="+" horiz-adv-x="443" 
d="M239 300h155q9 -20 0 -36h-155v-154q-17 -9 -35 0v154h-154q-9 16 0 36h154v154q18 8 35 0v-154z" />
    <glyph glyph-name="comma" unicode="," horiz-adv-x="168" 
d="M83 51l-4 -1q16 0 26 -10q11 -10 12 -30q5 -33 -9 -83q-14 -49 -30 -66q-14 -7 -30 0q18 19 30 59t11 65q-3 -1 -9 -1q-14 0 -23 9t-9 24q0 13 9 24q9 10 26 10z" />
    <glyph glyph-name="hyphen" unicode="-" horiz-adv-x="374" 
d="M50 300h275q9 -20 0 -36h-275q-9 16 0 36z" />
    <glyph glyph-name="period" unicode="." horiz-adv-x="160" 
d="M81 -15q-15 0 -25 9t-10 23t10 23t25 9q14 0 23 -9t9 -23t-9 -23t-23 -9z" />
    <glyph glyph-name="slash" unicode="/" horiz-adv-x="306" 
d="M260 650l-171 -650q-22 -9 -43 0l171 650q21 9 43 0z" />
    <glyph glyph-name="zero" unicode="0" horiz-adv-x="659" 
d="M330 665h-1q119 0 189 -93q71 -94 71 -246q0 -154 -70 -246q-71 -93 -189 -93t-189 93q-71 94 -71 246t71 246q71 93 189 93zM329 624l-1 -2q-98 0 -155 -79t-57 -219t57 -219t155 -79t155 80t57 219t-57 219t-154 80z" />
    <glyph glyph-name="one" unicode="1" horiz-adv-x="340" 
d="M42 533l166 117q20 8 39 0v-650q-24 -11 -47 0v598l-157 -112q-4 4 -4 23q0 18 3 24z" />
    <glyph glyph-name="two" unicode="2" horiz-adv-x="527" 
d="M129 41l337 -2q8 -21 0 -41h-421v9q159 155 237 243t102 135t24 95q0 59 -42 101t-118 42q-102 0 -177 -72q-4 4 -4 24q0 21 4 26q71 64 180 64q98 0 152 -54t54 -128q0 -82 -64 -168q-63 -85 -264 -274z" />
    <glyph glyph-name="three" unicode="3" horiz-adv-x="557" 
d="M280 665l-2 -1q95 0 151 -50q55 -49 55 -122q0 -51 -29 -94q-28 -41 -78 -61q64 -16 99 -62q34 -44 34 -103q0 -84 -63 -135t-162 -51q-51 0 -105 17q-52 17 -87 45q-3 6 -3 26t4 24q37 -34 89 -54q50 -19 101 -19q79 0 129 41t50 110q0 58 -42 99q-41 40 -123 40h-88
q-8 19 0 39h88q63 0 102 39t39 96t-42 96t-117 39q-103 0 -181 -72q-4 4 -4 24q0 19 3 25q74 64 182 64z" />
    <glyph glyph-name="four" unicode="4" horiz-adv-x="573" 
d="M432 189h98q8 -19 0 -39h-98v-149q-24 -11 -47 0v149h-343q-8 20 0 39l349 461q21 8 41 0v-461zM385 580l-297 -391h297v391z" />
    <glyph glyph-name="five" unicode="5" horiz-adv-x="527" 
d="M154 650l293 -1q8 -20 0 -41h-257l-38 -249q51 25 105 25q101 0 162 -54t61 -142q0 -89 -63 -146t-163 -57q-116 0 -192 63q-3 6 -3 26t4 24q79 -73 190 -73q79 0 129 45t50 117q0 73 -51 116q-52 44 -137 44q-69 0 -142 -41z" />
    <glyph glyph-name="six" unicode="6" horiz-adv-x="583" 
d="M306 415l-2 -1q96 0 152 -60q56 -61 56 -151q0 -92 -62 -156q-62 -63 -159 -63q-101 0 -162 63q-61 62 -61 168q0 68 24 134q25 67 58 114q32 45 77 88q42 41 75 63t60 36q8 4 36 4t36 -4q-34 -16 -71 -41q-33 -22 -79 -60q-44 -36 -81 -87q-38 -51 -57 -106
q67 59 160 59zM289 25l-1 1q76 0 126 50q49 49 49 126t-46 126t-126 49q-55 0 -99 -24t-66 -51q-11 -46 -11 -90q0 -85 48 -136t126 -51z" />
    <glyph glyph-name="seven" unicode="7" horiz-adv-x="527" 
d="M488 641l-328 -641q-25 -10 -52 0l314 609h-365q-8 21 0 41h431v-9z" />
    <glyph glyph-name="eight" unicode="8" horiz-adv-x="543" 
d="M272 665l-1 -2q92 0 146 -51t54 -121q0 -52 -30 -94t-79 -60q63 -18 98 -65t35 -105q0 -83 -63 -132q-64 -50 -161 -50t-161 50q-63 49 -63 132q0 58 35 105t98 65q-49 18 -79 60t-30 95q0 71 54 122t147 51zM270 622l-1 -1q-71 0 -111 -40q-41 -41 -41 -96t39 -94
t98 -39h30q60 0 99 39t39 95t-40 96t-112 40zM284 312h-30q-74 0 -118 -42q-43 -42 -43 -101q0 -67 50 -108q49 -40 126 -40t126 40q50 41 50 108q0 59 -43 101t-118 42z" />
    <glyph glyph-name="nine" unicode="9" horiz-adv-x="583" 
d="M291 665l-1 -2q100 0 162 -63q62 -64 62 -168q0 -67 -24 -133q-25 -67 -58 -114q-34 -48 -76 -88q-42 -41 -75 -63t-60 -36q-8 -4 -36 -4t-36 4q34 16 71 41q39 26 80 60q44 36 81 87t57 107q-67 -59 -160 -59q-96 0 -152 60q-56 61 -56 152q0 92 62 156q62 63 159 63z
M290 622l1 -2q-77 0 -126 -49t-49 -126t46 -126t126 -49q56 0 99 24t66 51q11 46 11 90q0 85 -48 136t-126 51z" />
    <glyph glyph-name="colon" unicode=":" horiz-adv-x="160" 
d="M81 349q-15 0 -25 9t-10 23t10 23t25 9q14 0 23 -9t9 -23t-9 -23t-23 -9zM81 -15q-15 0 -25 9t-10 23t10 23t25 9q14 0 23 -9t9 -23t-9 -23t-23 -9z" />
    <glyph glyph-name="semicolon" unicode=";" horiz-adv-x="168" 
d="M83 415q14 0 23 -9t9 -23t-9 -23t-23 -9q-15 0 -25 9t-10 23t10 23q11 9 25 9zM83 51l-4 -1q16 0 26 -10q11 -10 12 -30q5 -33 -9 -83q-14 -49 -30 -66q-14 -7 -30 0q18 19 30 59t11 65q-3 -1 -9 -1q-14 0 -23 9t-9 24q0 13 9 24q9 10 26 10z" />
    <glyph glyph-name="less" unicode="&#x3c;" horiz-adv-x="456" 
d="M50 289l357 180q11 -23 0 -42l-304 -152l304 -152q11 -23 0 -42l-357 180q-4 4 -4 14t4 14z" />
    <glyph glyph-name="equal" unicode="=" horiz-adv-x="443" 
d="M50 356h344q9 -18 0 -36h-344q-9 18 0 36zM50 227h344q9 -17 0 -36l-344 1q-9 18 0 35z" />
    <glyph glyph-name="greater" unicode="&#x3e;" horiz-adv-x="456" 
d="M50 470l357 -182q4 -4 4 -13t-4 -13l-357 -180q-10 20 0 42l303 152l-303 152q-10 20 0 42z" />
    <glyph glyph-name="question" unicode="?" horiz-adv-x="493" 
d="M238 212l-3 2q-24 -8 -47 0q0 56 19 81t66 54q72 44 98 72q27 29 27 78q0 53 -43 89t-117 36q-110 0 -189 -72q-4 4 -4 24q0 19 3 25q76 64 192 64q94 0 150 -48t56 -116q0 -59 -31 -93q-32 -35 -100 -78q-27 -18 -43 -30q-14 -10 -24 -33q-10 -21 -10 -55zM213 -13
q-15 0 -25 9t-10 23t10 23t25 9q14 0 23 -9t9 -23t-9 -23t-23 -9z" />
    <glyph glyph-name="at" unicode="@" horiz-adv-x="944" 
d="M478 611v-1q182 0 290 -110t108 -281q0 -66 -17 -117q-16 -48 -44 -73q-26 -23 -52 -34q-27 -11 -49 -11q-82 2 -96 75q-64 -75 -162 -75q-92 0 -147 61t-55 154q0 92 56 154q55 61 147 61q96 0 160 -73l2 58q19 7 39 0v-310q0 -68 55 -68q52 0 88 51t36 147
q0 161 -97 259q-98 99 -261 99q-156 0 -264 -105t-108 -265q0 -135 79 -229t199 -118q4 -4 4 -17t-4 -18q-136 24 -226 129t-90 254q0 172 118 287q119 116 291 116zM464 375v-4q-75 0 -120 -49q-45 -50 -45 -126t45 -126q45 -49 120 -49q50 0 90 24q39 23 61 50v206
q-22 27 -61 50q-40 24 -90 24z" />
    <glyph glyph-name="A" unicode="A" horiz-adv-x="670" 
d="M356 650l275 -650q-25 -10 -49 0l-85 200h-325l-85 -200q-25 -10 -49 0l275 650q22 9 43 0zM188 241h295l-148 349z" />
    <glyph glyph-name="B" unicode="B" horiz-adv-x="611" 
d="M94 650h247q85 0 141 -45t56 -119q0 -53 -27 -92q-28 -40 -76 -56q63 -16 96 -59q33 -42 33 -101q0 -80 -58 -129t-162 -49h-250v650zM141 609l1 -256h210q64 0 102 35t38 93q0 59 -43 93q-44 35 -111 35h-197zM142 317v-278h200q83 0 128 39t45 102q0 62 -40 99
q-41 38 -123 38h-210z" />
    <glyph glyph-name="C" unicode="C" horiz-adv-x="727" 
d="M414 26l-1 -4q128 0 219 70q4 -4 4 -23t-4 -23q-88 -64 -220 -64q-151 0 -247 99t-96 242t96 242t248 99q132 0 220 -64q4 -4 4 -23t-4 -23q-91 70 -219 70q-129 0 -213 -86t-84 -213t84 -213t213 -86z" />
    <glyph glyph-name="D" unicode="D" horiz-adv-x="713" 
d="M94 650h206q164 0 254 -93t90 -232t-90 -232t-253 -93h-207v650zM141 41h158q142 0 219 80t77 204q0 125 -76 204q-77 80 -219 80h-159v-568z" />
    <glyph glyph-name="E" unicode="E" horiz-adv-x="577" 
d="M141 41h385q8 -21 0 -41h-432v650h432q8 -20 0 -41h-385v-255h356q8 -20 0 -41h-356v-272z" />
    <glyph glyph-name="F" unicode="F" horiz-adv-x="577" 
d="M141 349h356q8 -21 0 -41h-356v-308q-23 -11 -47 0v650h432q8 -20 0 -41h-385v-260z" />
    <glyph glyph-name="G" unicode="G" horiz-adv-x="735" 
d="M599 73l-1 232q24 9 46 0v-260q-43 -31 -105 -47q-65 -17 -127 -17q-151 0 -247 99t-96 242t96 242t248 99q132 0 220 -64q4 -4 4 -23t-4 -23q-91 70 -219 70q-129 0 -213 -86q-84 -85 -84 -213t84 -213q84 -86 213 -86q107 0 185 48z" />
    <glyph glyph-name="H" unicode="H" horiz-adv-x="723" 
d="M581 354v296q23 11 47 0v-650q-24 -11 -47 0v313h-440v-313q-23 -11 -47 0v650q23 11 47 0v-296h440z" />
    <glyph glyph-name="I" unicode="I" horiz-adv-x="236" 
d="M141 650v-650q-23 -11 -47 0v650q23 11 47 0z" />
    <glyph glyph-name="J" unicode="J" horiz-adv-x="412" 
d="M318 650l-1 -470q0 -99 -43 -146q-44 -48 -120 -48q-60 0 -113 33q-3 6 -3 23t4 21q51 -36 104 -36q125 0 125 156v467q23 11 47 0z" />
    <glyph glyph-name="K" unicode="K" horiz-adv-x="609" 
d="M191 335l378 -335q-8 -4 -30 -4t-30 4l-368 323v-323q-23 -11 -47 0v650q23 11 47 0v-304l347 304q9 4 32 4q22 0 30 -4z" />
    <glyph glyph-name="L" unicode="L" horiz-adv-x="554" 
d="M141 41h371q8 -21 0 -41h-418v650q23 11 47 0v-609z" />
    <glyph glyph-name="M" unicode="M" horiz-adv-x="875" 
d="M686 650l150 -650q-23 -9 -47 0l-129 567l-202 -567q-21 -8 -42 0l-202 567l-129 -567q-24 -9 -47 0l150 650q21 9 42 0l207 -578l207 578q21 9 42 0z" />
    <glyph glyph-name="N" unicode="N" horiz-adv-x="713" 
d="M624 650l-1 -650q-19 -8 -39 0l-447 572v-572q-23 -11 -47 0v650q20 8 41 0l446 -572v572q23 11 47 0z" />
    <glyph glyph-name="O" unicode="O" horiz-adv-x="817" 
d="M408 665v-2q148 0 244 -99t96 -241t-96 -241t-244 -99t-244 99t-96 242t96 242t244 99zM408 622l-3 -2q-126 0 -208 -85t-82 -213q0 -127 83 -213q82 -85 209 -85t210 86t83 213q0 128 -82 213q-83 86 -210 86z" />
    <glyph glyph-name="P" unicode="P" horiz-adv-x="624" 
d="M94 650h224q116 0 177 -60t61 -148q0 -87 -61 -147t-177 -60h-177v-235q-23 -11 -47 0v650zM142 275l177 -1q93 0 141 48t48 119q0 72 -48 120t-141 48h-177v-334z" />
    <glyph glyph-name="Q" unicode="Q" horiz-adv-x="817" 
d="M408 665l-1 -2q148 0 244 -99t96 -241q0 -121 -72 -213t-190 -117l120 -158q-8 -4 -26 -4t-26 4l-114 150q-30 -2 -33 -2q-149 2 -243 100q-95 100 -95 241q0 143 96 242t244 99zM407 622l-3 -2q-126 0 -208 -85t-82 -213q0 -127 83 -213q82 -85 209 -85t210 86t83 213
q0 128 -82 213q-83 86 -210 86z" />
    <glyph glyph-name="R" unicode="R" horiz-adv-x="624" 
d="M94 650l233 -1q116 0 177 -58t61 -145q0 -74 -45 -128q-46 -55 -133 -68l192 -250q-9 -4 -28 -4t-28 4l-187 244h-195v-244q-23 -11 -47 0v650zM142 608v-326h186q95 0 141 46q47 47 47 117t-47 117q-46 46 -141 46h-186z" />
    <glyph glyph-name="S" unicode="S" horiz-adv-x="569" 
d="M277 665l-5 -5q115 0 189 -64q4 -5 4 -25t-4 -24q-78 72 -188 72q-73 0 -117 -36q-43 -36 -43 -89q0 -56 39 -83q40 -28 147 -62q41 -13 62 -21q28 -10 53 -25q29 -17 45 -34t28 -45q12 -27 12 -62q0 -80 -61 -129t-156 -49q-116 0 -201 66q-4 4 -4 24t4 24
q89 -74 201 -74q75 0 122 38t47 96q0 64 -42 94q-40 29 -143 61q-51 16 -79 28q-32 14 -60 34q-31 22 -44 51q-14 31 -14 69q0 70 56 120t152 50z" />
    <glyph glyph-name="T" unicode="T" horiz-adv-x="585" 
d="M42 650h501q8 -20 0 -41h-227v-609q-22 -10 -48 0v609h-226q-8 21 0 41z" />
    <glyph glyph-name="U" unicode="U" horiz-adv-x="697" 
d="M560 239l-3 411q24 10 48 0v-406q0 -121 -69 -190t-187 -69t-188 68q-69 67 -69 191v406q24 10 48 0v-411q0 -99 57 -156t153 -57t153 57t57 156z" />
    <glyph glyph-name="V" unicode="V" horiz-adv-x="660" 
d="M330 67l242 583q24 10 49 0l-270 -650q-21 -9 -43 0l-270 650q25 10 49 0z" />
    <glyph glyph-name="W" unicode="W" horiz-adv-x="1002" 
d="M963 650l-224 -650q-21 -9 -42 0l-196 575l-197 -575q-21 -9 -42 0l-224 650q24 10 48 0l197 -580l197 580q20 9 41 0l197 -580l197 580q24 10 48 0z" />
    <glyph glyph-name="X" unicode="X" horiz-adv-x="603" 
d="M334 335l231 -335q-9 -4 -28 -4t-28 4l-209 302l-207 -302q-8 -4 -27 -4t-27 4l231 335l-219 315q8 4 27 4t27 -4l197 -282l195 282q9 4 28 4t27 -4z" />
    <glyph glyph-name="Y" unicode="Y" horiz-adv-x="626" 
d="M337 251v-251q-23 -10 -48 0v250l-251 400q8 4 26 4t26 -4l223 -354l223 354q25 10 52 0z" />
    <glyph glyph-name="Z" unicode="Z" horiz-adv-x="547" 
d="M117 41h379q8 -21 0 -41h-449v9l383 600h-371q-8 21 0 41h441v-9z" />
    <glyph glyph-name="bracketleft" unicode="[" horiz-adv-x="248" 
d="M90 -73h108q8 -19 0 -39h-152v762h152q8 -20 0 -39h-108v-684z" />
    <glyph glyph-name="backslash" unicode="\" horiz-adv-x="306" 
d="M217 0l-171 650q21 9 43 0l171 -650q-22 -9 -43 0z" />
    <glyph glyph-name="bracketright" unicode="]" horiz-adv-x="248" 
d="M202 -112h-152q-8 20 0 39h107v684h-107q-8 19 0 39h152v-762z" />
    <glyph glyph-name="asciicircum" unicode="^" horiz-adv-x="430" 
d="M214 650l166 -167q4 -5 4 -27q0 -21 -4 -25l-165 167l-165 -167q-4 4 -4 26q0 21 3 27z" />
    <glyph glyph-name="underscore" unicode="_" horiz-adv-x="492" 
d="M50 -69h393q9 -19 0 -36h-393q-9 17 0 36z" />
    <glyph glyph-name="grave" unicode="`" horiz-adv-x="239" 
d="M76 860l117 -133q-1 -6 -9 -12q-7 -5 -15 -7l-123 126q1 7 12 16q10 8 18 10z" />
    <glyph glyph-name="a" unicode="a" horiz-adv-x="488" 
d="M241 415l-5 -4q86 0 131 -46t45 -127v-241q-20 -7 -39 0l-2 52q-28 -25 -73 -46t-96 -21q-67 0 -109 36t-42 94t42 94t111 36q52 0 96 -19q46 -20 71 -42v62q0 64 -34 99q-35 36 -102 36q-72 0 -141 -48q-4 4 -4 20t4 20q57 45 147 45zM207 209h1q-52 0 -84 -27
q-31 -27 -31 -69t30 -69t84 -27q49 0 94 22q47 23 66 43v62q-19 20 -66 43q-45 22 -94 22z" />
    <glyph glyph-name="b" unicode="b" 
d="M278 415h-2q92 0 147 -61q56 -62 56 -154q0 -93 -55 -154t-147 -61q-96 0 -160 73l-2 -58q-21 -8 -41 0v650q22 9 45 0v-306q65 71 159 71zM269 24q75 0 120 50t45 126t-45 126t-120 50q-49 0 -90 -24q-41 -25 -63 -49v-206q22 -24 63 -49q41 -24 90 -24z" />
    <glyph glyph-name="c" unicode="c" horiz-adv-x="501" 
d="M283 23v-2q74 0 141 49q4 -4 4 -21t-4 -21q-58 -46 -145 -46q-100 0 -162 61q-63 62 -63 154q0 93 63 154q62 61 162 61q87 0 145 -46q4 -4 4 -20t-4 -20q-67 49 -141 49q-79 0 -131 -50q-51 -49 -51 -126t51 -126q52 -50 131 -50z" />
    <glyph glyph-name="d" unicode="d" 
d="M417 344l-2 306q23 9 45 0v-650q-20 -8 -39 0l-2 58q-64 -73 -162 -73q-92 0 -147 61t-55 154q0 92 56 154q55 61 147 61q94 0 159 -71zM415 97v202q-22 27 -61 50q-40 24 -90 24q-75 0 -120 -49q-45 -50 -45 -126t45 -126q45 -49 120 -49q50 0 90 24q39 23 61 50z" />
    <glyph glyph-name="e" unicode="e" horiz-adv-x="515" 
d="M268 415v-2q96 0 150 -66q54 -67 41 -153h-358q1 -80 51 -126q50 -47 129 -47q76 0 143 49q4 -4 4 -20t-4 -20q-55 -46 -147 -46q-99 0 -160 60t-61 156q0 92 59 154q58 61 153 61zM268 377l3 -1q-70 0 -115 -42t-51 -111h316q2 66 -42 110t-111 44z" />
    <glyph glyph-name="f" unicode="f" horiz-adv-x="375" 
d="M237 627h-1q-84 0 -84 -95v-132h153q9 -20 0 -38h-153v-362q-22 -9 -45 0v362h-66q-9 18 0 38h66v138q0 63 35 95t87 32q55 0 105 -31q3 -6 3 -22q0 -17 -4 -21q-49 36 -96 36z" />
    <glyph glyph-name="g" unicode="g" horiz-adv-x="534" 
d="M258 415l-1 1q98 0 162 -73l2 58q19 7 39 0v-396q0 -82 -49 -132q-49 -51 -141 -51q-94 0 -150 45q-4 5 -4 21t4 20q68 -48 144 -48q74 0 113 39t39 104v55q-65 -71 -159 -71q-92 0 -147 61t-55 153q0 91 56 153q55 61 147 61zM266 377l1 -2q-75 0 -120 -49
q-45 -50 -45 -126t45 -126q45 -49 120 -49q49 0 90 24q40 24 60 50v204q-22 27 -61 50q-40 24 -90 24z" />
    <glyph glyph-name="h" unicode="h" horiz-adv-x="515" 
d="M282 415l1 -2q79 0 120 -45q40 -44 40 -118v-251q-23 -9 -45 0v244q0 62 -31 97q-31 36 -96 36q-43 0 -84 -26q-39 -25 -66 -53v-297q-23 -9 -45 0v650q22 9 45 0v-313q78 78 161 78z" />
    <glyph glyph-name="i" unicode="i" horiz-adv-x="220" 
d="M112 575q14 0 23 -9t9 -23t-9 -23t-23 -9t-25 9q-10 9 -10 23t10 23t25 9zM132 400v-400q-22 -9 -45 0v400q23 9 45 0z" />
    <glyph glyph-name="j" unicode="j" horiz-adv-x="273" 
d="M167 570q13 0 22 -9t9 -22t-9 -22t-22 -9q-14 0 -23 9t-9 22t9 22t23 9zM188 400l-1 -478q0 -50 -25 -75t-67 -25q-43 0 -87 24q-3 6 -3 22q0 17 4 21q44 -29 78 -29q56 0 56 66v474q23 9 45 0z" />
    <glyph glyph-name="k" unicode="k" horiz-adv-x="454" 
d="M164 206l252 -206q-8 -4 -29 -4t-30 4l-236 192v-192q-23 -9 -45 0v650q22 9 45 0v-431l228 181q8 4 29 4t29 -4z" />
    <glyph glyph-name="l" unicode="l" horiz-adv-x="194" 
d="M121 650v-650q-23 -9 -45 0v650q22 9 45 0z" />
    <glyph glyph-name="m" unicode="m" horiz-adv-x="814" 
d="M590 415v-2q76 0 114 -45q38 -46 38 -118v-251q-22 -9 -45 0v244q0 61 -30 97t-88 36q-45 0 -85 -27t-63 -54v-296q-23 -9 -45 0v244q0 60 -29 97q-28 36 -89 36q-43 0 -84 -26q-39 -25 -64 -54v-296q-22 -9 -45 0v400q20 8 41 0l2 -66q74 81 160 81q109 0 141 -92
q84 92 171 92z" />
    <glyph glyph-name="n" unicode="n" horiz-adv-x="514" 
d="M281 415l4 -1q79 0 120 -45q40 -44 40 -118v-251q-23 -9 -45 0v244q0 62 -31 97q-31 36 -96 36q-45 0 -87 -27t-66 -54v-296q-22 -9 -45 0v400q20 8 41 0l2 -66q74 81 163 81z" />
    <glyph glyph-name="o" unicode="o" horiz-adv-x="542" 
d="M271 415h-1q91 0 153 -62t62 -153q0 -92 -61 -153q-62 -62 -153 -62q-92 0 -154 62q-61 61 -61 153t61 153q62 62 154 62zM270 376h-1q-73 0 -121 -50t-48 -126t48 -126t122 -50t122 50t48 126t-48 126t-122 50z" />
    <glyph glyph-name="p" unicode="p" horiz-adv-x="539" 
d="M280 415q92 0 147 -61q56 -62 56 -154q0 -93 -55 -154t-147 -61q-94 0 -159 71v-219q-22 -9 -45 0v563q20 8 41 0l2 -58q64 73 160 73zM273 24q75 0 120 50t45 126t-45 126t-120 50q-49 0 -90 -24q-41 -25 -63 -49v-206q22 -24 63 -49q41 -24 90 -24z" />
    <glyph glyph-name="q" unicode="q" 
d="M419 342l2 58q19 8 39 0v-563q-22 -9 -45 0v219q-65 -71 -159 -71q-92 0 -147 61t-55 154q0 92 56 154q55 61 147 61q98 0 162 -73zM417 97v202q-22 27 -61 50q-40 24 -90 24q-75 0 -120 -49q-45 -50 -45 -126t45 -126q45 -49 120 -49q50 0 90 24q39 23 61 50z" />
    <glyph glyph-name="r" unicode="r" horiz-adv-x="395" 
d="M353 396h2q4 -4 4 -22q0 -19 -4 -24q-35 24 -87 24q-72 0 -147 -99v-275q-23 -9 -45 0v400q20 8 41 0l3 -83q66 98 152 98q50 0 81 -19z" />
    <glyph glyph-name="s" unicode="s" horiz-adv-x="404" 
d="M214 221l-3 2q75 -24 108 -49q34 -25 34 -72q0 -55 -45 -85t-107 -30q-41 0 -81 12q-39 11 -64 32q-4 4 -4 20q0 15 4 19q68 -50 143 -50q44 0 77 18t33 57q0 23 -16 39q-17 16 -36 24t-66 24q-75 25 -111 50q-34 24 -34 70q0 52 44 82t105 30q41 0 81 -12q41 -12 64 -31
q4 -4 4 -20q0 -15 -4 -19q-68 50 -140 50q-44 0 -76 -19q-33 -19 -33 -55q0 -16 8 -29t27 -23q22 -12 36 -17q22 -8 52 -18z" />
    <glyph glyph-name="t" unicode="t" horiz-adv-x="357" 
d="M304 65l-1 -2q4 -4 4 -20q0 -15 -3 -21q-49 -38 -102 -38q-42 0 -68 26t-26 75v277h-66q-9 18 0 38h66v130q22 9 45 0v-130h141q9 -20 0 -38h-141v-273q0 -66 56 -66q38 0 95 42z" />
    <glyph glyph-name="u" unicode="u" horiz-adv-x="511" 
d="M394 104l-5 296q23 9 45 0v-400q-20 -8 -39 0l-3 66q-74 -81 -163 -81q-79 0 -120 45q-40 44 -40 119v251q23 9 45 0v-244q0 -62 31 -97q31 -36 96 -36q45 0 87 27t66 54z" />
    <glyph glyph-name="v" unicode="v" horiz-adv-x="494" 
d="M247 56l160 344q25 10 48 0l-189 -400q-20 -10 -39 0l-189 400q23 11 47 0z" />
    <glyph glyph-name="w" unicode="w" horiz-adv-x="690" 
d="M183 0l-145 400q23 11 47 0l119 -338l121 338q19 10 39 0l122 -338l117 338q24 9 47 0l-145 -400q-19 -10 -39 0l-122 340l-122 -340q-20 -10 -39 0z" />
    <glyph glyph-name="x" unicode="x" horiz-adv-x="475" 
d="M268 206l169 -206q-8 -4 -26 -4t-26 4l-148 177l-147 -177q-8 -4 -26 -4t-26 4l169 206l-160 194q8 4 26 4t26 -4l140 -167l138 167q25 10 52 0z" />
    <glyph glyph-name="y" unicode="y" horiz-adv-x="494" 
d="M248 79l160 321q26 10 48 0l-283 -563q-23 -9 -47 0l99 195l-187 368q23 11 47 0z" />
    <glyph glyph-name="z" unicode="z" horiz-adv-x="419" 
d="M111 39h262q7 -19 0 -39h-330v8l266 353h-253q-8 19 0 39h320v-8z" />
    <glyph glyph-name="braceleft" unicode="{" horiz-adv-x="288" 
d="M92 269q32 -13 45 -30t18 -45q9 -67 15 -98q6 -33 24 -90q18 -56 48 -118q-21 -9 -43 0q-67 127 -89 308q-1 24 -14 38q-12 14 -48 27v16q36 13 48 27q13 14 14 38q22 181 89 308q22 9 43 0q-30 -62 -48 -118q-18 -57 -24 -90q-6 -31 -15 -98q-5 -28 -18 -45t-45 -30z
" />
    <glyph glyph-name="bar" unicode="|" horiz-adv-x="126" 
d="M80 650v-710q-16 -8 -33 0v710q17 8 33 0z" />
    <glyph glyph-name="braceright" unicode="}" horiz-adv-x="288" 
d="M178 342v-2q1 -24 14 -38q12 -14 48 -27v-16q-36 -13 -48 -27q-13 -14 -14 -38q-19 -179 -89 -308q-21 -9 -43 0q30 61 48 119q18 57 24 90q6 31 15 98q5 29 18 45t45 30q-32 14 -45 30t-18 45q-9 67 -15 98q-6 33 -24 90q-18 58 -48 119q21 9 43 0q70 -129 89 -308z" />
    <glyph glyph-name="asciitilde" unicode="~" horiz-adv-x="481" 
d="M164 299h-2q34 0 81 -24t75 -24q14 0 26 3q13 3 26 9l21 9q5 2 23 11q16 8 17 9q9 -20 0 -36q-1 -2 -21 -12l-29 -15q-9 -5 -27 -9q-20 -5 -35 -5q-35 0 -81 24t-75 24q-13 0 -25 -3q-13 -3 -26 -9l-21 -9l-5 -2.5l-8 -4l-9 -4.5q-16 -8 -17 -9q-9 16 0 36q2 2 21 12
l29 15q9 5 27 9q20 5 35 5z" />
    <glyph glyph-name="exclamdown" unicode="&#xa1;" horiz-adv-x="160" 
d="M81 494q14 0 23 -9t9 -23t-9 -23t-23 -9q-15 0 -25 9t-10 23t10 23t25 9zM103 -58v-113q-23 -11 -47 0v113l9 325q15 6 29 0z" />
    <glyph glyph-name="cent" unicode="&#xa2;" horiz-adv-x="495" 
d="M283 23l-1 -4q74 0 141 49q4 -4 4 -21t-4 -21q-50 -41 -132 -46v-93q-14 -11 -26 0v93q-95 4 -153 66q-58 61 -58 150q0 88 59 150t153 66v93q12 11 26 0v-93q82 -5 132 -46q4 -4 4 -20t-4 -20q-67 49 -141 49q-79 0 -131 -50q-51 -49 -51 -126t51 -126q52 -50 131 -50z
" />
    <glyph glyph-name="sterling" unicode="&#xa3;" horiz-adv-x="593" 
d="M141 41l355 -1q8 -21 0 -41h-418v9q28 34 40 82q12 50 11 99q-2 52 -6 110h-84q-11 12 0 24h81q-9 117 -9 160q0 74 54 128t152 54q110 0 180 -64q4 -5 4 -25t-4 -24q-75 72 -177 72q-75 0 -117 -42t-42 -101q0 -58 10 -159h228q7 -12 0 -24h-224q9 -72 3 -144
q-6 -73 -37 -113z" />
    <glyph glyph-name="currency" unicode="&#xa4;" horiz-adv-x="415" 
d="M369 450l-59 -58q31 -37 31 -85t-31 -85l59 -58q-2 -7 -7 -12t-12 -7l-58 59q-38 -30 -85 -30t-85 30l-59 -59q-17 5 -18 18l59 59q-31 37 -31 85q0 49 31 84l-59 59q2 7 7 12t11 7l59 -59q37 31 85 31t85 -31l59 59q6 -2 11 -7t7 -12zM136 237l-1 1q31 -31 73 -31t71 29
t29 71t-30 72t-72 30t-71 -29q-28 -28 -28 -71q0 -41 29 -72z" />
    <glyph glyph-name="yen" unicode="&#xa5;" horiz-adv-x="626" 
d="M337 151h156q7 -12 0 -24h-156v-127q-23 -10 -48 0v127h-155q-10 12 0 24h155v86h-155q-10 12 0 24h149l-245 389q8 4 26 4t26 -4l223 -354l223 354q25 10 52 0l-246 -389h151q7 -12 0 -24h-156v-86z" />
    <glyph glyph-name="brokenbar" unicode="&#xa6;" horiz-adv-x="126" 
d="M80 650v-309q-16 -9 -33 0v309q17 8 33 0zM80 249v-309q-16 -8 -33 0v309q17 9 33 0z" />
    <glyph glyph-name="section" unicode="&#xa7;" horiz-adv-x="402" 
d="M194 549l-1 -1q41 0 81 -12q41 -12 64 -31q4 -4 4 -20q0 -15 -4 -19q-68 50 -140 50q-44 0 -76 -19q-33 -20 -33 -55q0 -16 8 -29t27 -23q22 -12 36 -17q22 -8 52 -18q74 -25 108 -51q34 -25 34 -72q0 -68 -72 -97q72 -35 72 -95q0 -55 -45 -85t-108 -30q-41 0 -81 12
t-63 32q-4 4 -4 20t4 20q68 -50 141 -50q46 0 78 19q33 19 33 58q0 14 -6 26t-14 20q-7 7 -27 16l-31 13l-41 15q-75 25 -111 50q-34 24 -34 69q0 70 81 97q-81 36 -81 95q0 52 44 82q43 30 105 30zM190 316l-29 9q-36 -5 -59 -22q-24 -18 -24 -48q0 -22 18 -40t39 -27
t66 -24l9 -3l35 -12q72 17 72 70q0 17 -7 30q-8 13 -15 21q-8 8 -29 17q-30 13 -33 14q-16 6 -43 15z" />
    <glyph glyph-name="dieresis" unicode="&#xa8;" horiz-adv-x="397" 
d="M81 821v-1q14 0 23 -9t9 -22q0 -15 -9 -24t-23 -9q-15 0 -25 9t-10 24q0 14 10 23t25 9zM317 820v-1q14 0 23 -9t9 -22q0 -15 -9 -24t-23 -9q-15 0 -25 9t-10 24q0 14 10 23t25 9z" />
    <glyph glyph-name="copyright" unicode="&#xa9;" horiz-adv-x="640" 
d="M320 700q118 0 196 -79t78 -192t-78 -192t-196 -79t-196 79t-78 192t78 192t196 79zM321 673v-4q-108 0 -177 -70q-69 -71 -69 -172t69 -172q69 -70 177 -70q107 0 176 71q69 70 69 173t-69 173q-69 71 -176 71zM326 574l-2 -3q59 0 100 -32q3 -4 3 -16t-3 -15
q-46 34 -98 34t-87 -33q-34 -33 -34 -85t35 -85q34 -33 87 -33t98 33q3 -1 3 -14q0 -11 -3 -16q-40 -31 -99 -31q-68 0 -111 42t-43 106t43 106t111 42z" />
    <glyph glyph-name="guillemotleft" unicode="&#xab;" horiz-adv-x="407" 
d="M96 217l119 -156q-19 -7 -37 0l-132 156l132 156q19 7 37 0zM242 217l119 -156q-19 -7 -37 0l-132 156l132 156q18 7 37 0z" />
    <glyph glyph-name="logicalnot" unicode="&#xac;" horiz-adv-x="440" 
d="M394 300v-138q-20 -8 -39 0v102h-305q-9 16 0 36h344z" />
    <glyph glyph-name="registered" unicode="&#xae;" horiz-adv-x="640" 
d="M320 700q118 0 196 -79t78 -192t-78 -192t-196 -79t-196 79t-78 192t78 192t196 79zM321 673v-4q-108 0 -177 -70q-69 -71 -69 -172t69 -172q69 -70 177 -70q107 0 176 71q69 70 69 173t-69 173q-69 71 -176 71zM210 566l136 2q44 0 71 -21t27 -64q0 -67 -74 -81l91 -118
q-6 -3 -20 -3q-13 0 -18 3l-89 115h-91v-115q-17 -8 -33 0v282zM241 541v-114h100q29 0 48 13q20 14 20 45q0 29 -20 43q-19 13 -48 13h-100z" />
    <glyph glyph-name="macron" unicode="&#xaf;" horiz-adv-x="358" 
d="M50 791h259q9 -17 0 -36l-259 1q-9 18 0 35z" />
    <glyph glyph-name="degree" unicode="&#xb0;" horiz-adv-x="338" 
d="M168 713v-3q53 0 88 -34q36 -34 36 -84t-36 -84q-36 -35 -88 -36q-51 0 -87 36t-36 86t36 84q37 35 87 35zM169 678h-2q-38 0 -63 -25t-25 -63q0 -37 26 -63q25 -25 63 -25t63 25q26 26 26 63q0 38 -25 63t-63 25z" />
    <glyph glyph-name="plusminus" unicode="&#xb1;" horiz-adv-x="443" 
d="M204 322h-154q-9 20 0 36h154v100q18 9 35 0v-100h155q9 -16 0 -36h-155v-99q-17 -9 -35 0v99zM50 171h344q9 -18 0 -36h-344q-9 18 0 36z" />
    <glyph glyph-name="acute" unicode="&#xb4;" horiz-adv-x="239" 
d="M46 729l116 132q8 -2 18 -10q11 -9 12 -16l-122 -126q-7 1 -15 8q-7 6 -9 12z" />
    <glyph glyph-name="paragraph" unicode="&#xb6;" horiz-adv-x="589" 
d="M253 650l287 -1q6 -17 0 -33h-74v-781q-16 -9 -33 0v781h-145v-781q-16 -9 -33 0v421q-52 0 -97 18t-78 63t-33 112q0 99 62 150q61 51 144 51z" />
    <glyph glyph-name="periodcentered" unicode="&#xb7;" horiz-adv-x="160" 
d="M81 222q-15 0 -25 9t-10 23t10 23t25 9q14 0 23 -9t9 -23t-9 -23t-23 -9z" />
    <glyph glyph-name="cedilla" unicode="&#xb8;" horiz-adv-x="236" 
d="M98 0v-70q32 8 62 -12q30 -19 30 -58q0 -34 -24 -55t-59 -21q-31 0 -57 17q-4 4 -4 15t4 15q25 -19 54 -19q24 0 40 13t16 37q0 32 -28 44t-63 -2v96h29z" />
    <glyph glyph-name="guillemotright" unicode="&#xbb;" horiz-adv-x="407" 
d="M215 217l-132 -156q-19 -7 -37 0l120 156l-120 156q19 7 37 0zM361 217l-132 -156q-19 -7 -37 0l120 156l-120 156q18 7 37 0z" />
    <glyph glyph-name="onequarter" unicode="&#xbc;" horiz-adv-x="613" 
d="M174 650v-312q-18 -9 -37 0v273l-87 -63q-4 4 -4 18t4 18l93 66q15 9 31 0zM470 648l-308 -650q-18 -9 -35 0l308 650q17 9 35 0zM513 98h51q8 -15 0 -30h-51v-70q-18 -9 -37 0v70h-154q-8 15 0 30l160 210q16 9 31 0v-210zM355 98h122v160z" />
    <glyph glyph-name="onehalf" unicode="&#xbd;" horiz-adv-x="630" 
d="M154 650v-312q-18 -9 -37 0v273l-87 -63q-4 4 -4 18t4 18l93 66q15 9 31 0zM450 648l-308 -650q-18 -9 -35 0l308 650q17 9 35 0zM461 323h-1q52 0 81 -27t29 -63q0 -41 -30 -80q-31 -41 -123 -122h162q8 -17 0 -32h-224v8q115 107 147 147q32 41 32 78q0 23 -20 41
t-57 18q-49 0 -88 -36q-2 2 -2 18q0 15 2 19q35 31 92 31z" />
    <glyph glyph-name="threequarters" unicode="&#xbe;" horiz-adv-x="667" 
d="M263 420l-1 -2q0 -44 -33 -69q-34 -26 -84 -26q-60 0 -98 32q-2 4 -2 18q0 15 2 17q40 -37 96 -37q38 0 60 19q23 20 23 49q0 28 -20 48t-59 20h-42q-5 13 0 30h43q29 0 48 17q18 16 18 39t-19 41t-54 18q-50 0 -90 -37q-2 2 -2 17q0 14 2 18q38 32 93 32q49 0 78 -26
t29 -60q0 -48 -48 -73q60 -22 60 -85zM180 -2l308 650q17 9 35 0l-308 -650q-18 -9 -35 0zM566 98h51q7 -15 0 -30h-51v-70q-18 -9 -37 0v70h-154q-7 15 0 30l160 210q16 9 31 0v-210zM530 258l-122 -160h122v160z" />
    <glyph glyph-name="questiondown" unicode="&#xbf;" horiz-adv-x="493" 
d="M278 496q14 0 24 -9t10 -23t-10 -23t-24 -9t-24 9t-10 23t10 23t24 9zM254 269v-4q22 7 48 0q0 -56 -19 -81q-19 -26 -66 -54q-69 -43 -97 -72q-27 -28 -27 -78q0 -53 44 -89q43 -36 117 -36q110 0 188 72q4 -4 4 -24t-4 -25q-74 -64 -192 -64q-94 0 -150 48
q-55 48 -55 116q0 60 31 95q32 36 99 78q33 21 44 30q13 11 24 33q11 24 11 55z" />
    <glyph glyph-name="Agrave" unicode="&#xc0;" horiz-adv-x="670" 
d="M292 860l117 -133q-1 -6 -9 -12q-7 -5 -15 -7l-123 126q1 7 12 16q10 8 18 10zM357 648l275 -650q-25 -10 -49 0l-85 200h-325l-85 -200q-25 -10 -49 0l275 650q22 9 43 0zM189 239h295l-148 349z" />
    <glyph glyph-name="Aacute" unicode="&#xc1;" horiz-adv-x="670" 
d="M262 729l116 132q8 -2 18 -10q11 -9 12 -16l-122 -126q-7 1 -15 8q-7 6 -9 12zM355 651l275 -650q-25 -10 -49 0l-85 200h-325l-85 -200q-25 -10 -49 0l275 650q22 9 43 0zM187 242h295l-148 349z" />
    <glyph glyph-name="Acircumflex" unicode="&#xc2;" horiz-adv-x="670" 
d="M355 850l118 -121q-1 -7 -10 -16t-16 -10l-113 114l-112 -114q-8 1 -16 10q-10 10 -11 16l120 121q7 6 20 6t20 -6zM354 650l275 -650q-25 -10 -49 0l-85 200h-325l-85 -200q-25 -10 -49 0l275 650q22 9 43 0zM186 241h295l-148 349z" />
    <glyph glyph-name="Atilde" unicode="&#xc3;" horiz-adv-x="670" 
d="M272 813l-1 -2q28 0 75 -22q27 -12 52 -12q28 0 87 30q9 -17 0 -36q-6 -3 -13 -7q-8 -5 -15 -7q-3 -1 -13 -6q-9 -5 -15 -6t-15 -3q-6 -1 -16 -1q-28 0 -75 22q-27 12 -52 12q-29 0 -87 -30q-9 19 0 36q6 3 13 7q13 7 15 8q3 1 13 6q9 4 15 6t15 3q12 2 17 2zM355 648
l275 -650q-25 -10 -49 0l-85 200h-325l-85 -200q-25 -10 -49 0l275 650q22 9 43 0zM187 239h295l-148 349z" />
    <glyph glyph-name="Adieresis" unicode="&#xc4;" horiz-adv-x="670" 
d="M218 821v-1q14 0 23 -9t9 -22q0 -15 -9 -24t-23 -9t-25 9q-10 9 -10 24q0 14 10 23q11 9 25 9zM454 820v-1q14 0 23 -9t9 -22q0 -15 -9 -24t-23 -9t-25 9q-10 9 -10 24q0 14 10 23q11 9 25 9zM356 648l275 -650q-25 -10 -49 0l-85 200h-325l-85 -200q-25 -10 -49 0
l275 650q22 9 43 0zM188 239h295l-148 349z" />
    <glyph glyph-name="Aring" unicode="&#xc5;" horiz-adv-x="670" 
d="M336 868v-2q33 0 56 -23t23 -53q0 -34 -23 -57q-22 -22 -56 -22t-57 23t-23 57q0 31 23 54t57 23zM336 836l-2 -1q-22 0 -36 -14q-13 -13 -13 -32q0 -20 13 -34q14 -15 36 -15t35 15q14 16 14 35t-13 32q-14 14 -34 14zM354 647l275 -650q-25 -10 -49 0l-85 200h-325
l-85 -200q-25 -10 -49 0l275 650q22 9 43 0zM186 238h295l-148 349z" />
    <glyph glyph-name="AE" unicode="&#xc6;" horiz-adv-x="809" 
d="M374 41h384q8 -21 0 -41h-432v200h-154l-85 -200q-25 -10 -49 0l275 650h445q8 -20 0 -41h-384v-255h355q8 -20 0 -41h-355v-272zM327 571l-139 -330h139v330z" />
    <glyph glyph-name="Ccedilla" unicode="&#xc7;" horiz-adv-x="727" 
d="M414 26v-7q128 0 219 70q4 -4 4 -23t-4 -23q-81 -58 -206 -63v-53q32 8 62 -12q30 -19 30 -58q0 -34 -24 -55t-59 -21q-31 0 -57 17q-4 4 -4 15t4 15q25 -19 54 -19q24 0 40 13t16 37q0 32 -28 44t-63 -2v81q-145 6 -237 104t-92 237q0 143 96 242t248 99q132 0 220 -64
q4 -4 4 -23t-4 -23q-91 70 -219 70q-129 0 -213 -86t-84 -213t84 -213t213 -86z" />
    <glyph glyph-name="Egrave" unicode="&#xc8;" horiz-adv-x="577" 
d="M248 860l117 -133q-1 -6 -9 -12q-7 -5 -15 -7l-123 126q1 7 12 16q10 8 18 10zM142 39h385q8 -21 0 -41h-432v650h432q8 -20 0 -41h-385v-255h356q8 -20 0 -41h-356v-272z" />
    <glyph glyph-name="Eacute" unicode="&#xc9;" horiz-adv-x="577" 
d="M218 729l116 132q8 -2 18 -10q11 -9 12 -16l-122 -126q-7 1 -15 8q-7 6 -9 12zM140 42h385q8 -21 0 -41h-432v650h432q8 -20 0 -41h-385v-255h356q8 -20 0 -41h-356v-272z" />
    <glyph glyph-name="Ecircumflex" unicode="&#xca;" horiz-adv-x="577" 
d="M311 850l118 -121q-1 -7 -10 -16t-16 -10l-113 114l-112 -114q-7 1 -16 10q-10 10 -11 16l120 121q7 6 20 6t20 -6zM139 41h385q8 -21 0 -41h-432v650h432q8 -20 0 -41h-385v-255h356q8 -20 0 -41h-356v-272z" />
    <glyph glyph-name="Edieresis" unicode="&#xcb;" horiz-adv-x="577" 
d="M189 821v-1q14 0 23 -9t9 -22q0 -15 -9 -24t-23 -9q-15 0 -25 9t-10 24q0 14 10 23t25 9zM425 820v-1q14 0 23 -9t9 -22q0 -15 -9 -24t-23 -9q-15 0 -25 9t-10 24q0 14 10 23t25 9zM141 39h385q8 -21 0 -41h-432v650h432q8 -20 0 -41h-385v-255h356q8 -20 0 -41h-356
v-272z" />
    <glyph glyph-name="Igrave" unicode="&#xcc;" horiz-adv-x="236" 
d="M75 860l117 -133q-2 -6 -9 -12q-7 -5 -15 -7l-123 126q1 7 12 16q10 8 18 10zM142 648v-650q-23 -11 -47 0v650q23 11 47 0z" />
    <glyph glyph-name="Iacute" unicode="&#xcd;" horiz-adv-x="236" 
d="M45 729l116 132q8 -2 18 -10q11 -9 12 -16l-122 -126q-7 1 -15 8q-8 6 -9 12zM140 651v-650q-23 -11 -47 0v650q23 11 47 0z" />
    <glyph glyph-name="Icircumflex" unicode="&#xce;" horiz-adv-x="236" 
d="M138 850l118 -122q-1 -6 -11 -16q-9 -8 -16 -10l-112 114l-113 -114q-6 1 -16 11q-8 9 -10 16l120 121q8 6 20 6t20 -6zM139 649v-650q-23 -11 -47 0v650q23 11 47 0z" />
    <glyph glyph-name="Idieresis" unicode="&#xcf;" horiz-adv-x="236" 
d="M0 821v-1q14 0 24 -9t10 -22q0 -15 -10 -24t-24 -9t-24 9t-10 24q0 14 10 23t24 9zM236 820v-1q14 0 23 -9t9 -22q0 -15 -9 -24t-23 -9t-25 9q-10 9 -10 24q0 14 10 23q11 9 25 9zM141 648v-650q-23 -11 -47 0v650q23 11 47 0z" />
    <glyph glyph-name="Eth" unicode="&#xd0;" horiz-adv-x="713" 
d="M94 650h206q164 0 254 -93t90 -232t-90 -232t-253 -93h-207v309h-46q-9 18 0 36h46v305zM141 41h158q142 0 219 80t77 204q0 125 -76 204q-77 80 -219 80h-159v-264h181q9 -18 0 -36h-181v-268z" />
    <glyph glyph-name="Ntilde" unicode="&#xd1;" horiz-adv-x="713" 
d="M293 813l-1 -2q28 0 75 -22q27 -12 52 -12q29 0 87 30q9 -17 0 -36q-6 -3 -13 -7q-8 -5 -15 -7q-3 -1 -13 -6q-9 -5 -15 -6t-15 -3q-6 -1 -16 -1q-28 0 -75 22q-27 12 -52 12q-28 0 -87 -30q-9 19 0 36q6 3 13 7q13 7 15 8q3 1 13 6q9 4 15 6t15 3q12 2 17 2zM623 648
l-1 -650q-20 -8 -39 0l-447 572v-572q-23 -11 -47 0v650q20 8 41 0l446 -572v572q23 11 47 0z" />
    <glyph glyph-name="Ograve" unicode="&#xd2;" horiz-adv-x="817" 
d="M365 860l117 -133q-2 -6 -9 -12q-7 -5 -15 -7l-123 126q1 7 12 16q10 8 18 10zM409 663v-2q148 0 244 -99t96 -241t-96 -241t-244 -99t-244 99t-96 242t96 242t244 99zM409 620l-3 -2q-126 0 -208 -85t-82 -213q0 -127 83 -213q82 -85 209 -85t210 86t83 213
q0 128 -82 213q-83 86 -210 86z" />
    <glyph glyph-name="Oacute" unicode="&#xd3;" horiz-adv-x="817" 
d="M335 729l116 132q8 -2 18 -10q11 -9 12 -16l-122 -126q-7 1 -15 8q-8 6 -9 12zM407 666v-2q148 0 244 -99t96 -241t-96 -241t-244 -99t-244 99t-96 242t96 242t244 99zM407 623l-3 -2q-126 0 -208 -85t-82 -213q0 -127 83 -213q82 -85 209 -85t210 86t83 213
q0 128 -82 213q-83 86 -210 86z" />
    <glyph glyph-name="Ocircumflex" unicode="&#xd4;" horiz-adv-x="817" 
d="M428 850l118 -121q-2 -7 -10 -16t-16 -10l-113 114l-112 -114q-7 1 -16 10q-10 10 -11 16l120 121q8 6 20 6t20 -6zM406 665v-2q148 0 244 -99t96 -241t-96 -241t-244 -99t-244 99t-96 242t96 242t244 99zM406 622l-3 -2q-126 0 -208 -85t-82 -213q0 -127 83 -213
q82 -85 209 -85t210 86t83 213q0 128 -82 213q-83 86 -210 86z" />
    <glyph glyph-name="Otilde" unicode="&#xd5;" horiz-adv-x="817" 
d="M345 813l-1 -2q28 0 75 -22q27 -12 52 -12q29 0 87 30q9 -17 0 -36q-6 -3 -13 -7q-8 -5 -15 -7q-3 -1 -13 -6q-9 -5 -15 -6t-15 -3q-6 -1 -16 -1q-28 0 -75 22q-27 12 -52 12q-28 0 -87 -30q-9 19 0 36q6 3 13 7q13 7 15 8q3 1 13 6q9 4 15 6t15 3q12 2 17 2zM407 663v-2
q148 0 244 -99t96 -241t-96 -241t-244 -99t-244 99t-96 242t96 242t244 99zM407 620l-3 -2q-126 0 -208 -85t-82 -213q0 -127 83 -213q82 -85 209 -85t210 86t83 213q0 128 -82 213q-83 86 -210 86z" />
    <glyph glyph-name="Odieresis" unicode="&#xd6;" horiz-adv-x="817" 
d="M291 821v-1q14 0 23 -9t9 -22q0 -15 -9 -24t-23 -9q-15 0 -25 9t-10 24q0 14 10 23t25 9zM527 820v-1q14 0 23 -9t9 -22q0 -15 -9 -24t-23 -9q-15 0 -25 9t-10 24q0 14 10 23t25 9zM408 663v-2q148 0 244 -99t96 -241t-96 -241t-244 -99t-244 99t-96 242t96 242t244 99z
M408 620l-3 -2q-126 0 -208 -85t-82 -213q0 -127 83 -213q82 -85 209 -85t210 86t83 213q0 128 -82 213q-83 86 -210 86z" />
    <glyph glyph-name="multiply" unicode="&#xd7;" horiz-adv-x="361" 
d="M206 282l109 -109q-7 -19 -27 -27l-109 109l-108 -109q-19 8 -27 27l109 109l-109 108q8 20 27 27l108 -109l109 109q20 -7 27 -27z" />
    <glyph glyph-name="Oslash" unicode="&#xd8;" horiz-adv-x="817" 
d="M748 650l-90 -92q89 -98 89 -234q0 -142 -96 -241t-244 -99q-133 0 -228 84l-67 -69q-7 -4 -22 -4t-22 4l89 91q-89 98 -89 234q0 143 96 242t244 99q134 0 228 -84l67 69q7 4 22 4q16 0 23 -4zM116 324l-1 -1q0 -116 72 -202l417 427q-83 74 -198 74q-126 0 -208 -85
t-82 -213zM698 323h-2q0 117 -72 202l-417 -427q83 -74 198 -74q127 0 210 86t83 213z" />
    <glyph glyph-name="Ugrave" unicode="&#xd9;" horiz-adv-x="697" 
d="M306 860l117 -133q-1 -6 -9 -12q-7 -5 -15 -7l-123 126q1 7 12 16q10 8 18 10zM561 237l-3 411q24 10 48 0v-406q0 -121 -69 -190t-187 -69t-188 68q-69 67 -69 191v406q24 10 48 0v-411q0 -99 57 -156t153 -57t153 57t57 156z" />
    <glyph glyph-name="Uacute" unicode="&#xda;" horiz-adv-x="697" 
d="M276 729l116 132q8 -2 18 -10q11 -9 12 -16l-122 -126q-7 1 -15 8q-7 6 -9 12zM559 240l-3 411q24 11 48 0v-406q0 -121 -69 -190t-187 -69t-188 68q-69 68 -69 191v406q24 11 48 0v-411q0 -99 57 -156t153 -57t153 57t57 156z" />
    <glyph glyph-name="Ucircumflex" unicode="&#xdb;" horiz-adv-x="697" 
d="M369 850l118 -121q-1 -7 -10 -16t-16 -10l-113 114l-112 -114q-8 1 -16 10q-10 10 -11 16l120 121q7 6 20 6t20 -6zM558 239l-3 411q24 10 48 0v-406q0 -121 -69 -190t-187 -69t-188 68q-69 67 -69 191v406q24 10 48 0v-411q0 -99 57 -156t153 -57t153 57t57 156z" />
    <glyph glyph-name="Udieresis" unicode="&#xdc;" horiz-adv-x="697" 
d="M232 821v-1q14 0 23 -9t9 -22q0 -15 -9 -24t-23 -9t-25 9q-10 9 -10 24q0 14 10 23q11 9 25 9zM468 820v-1q14 0 23 -9t9 -22q0 -15 -9 -24t-23 -9t-25 9q-10 9 -10 24q0 14 10 23q11 9 25 9zM560 237l-3 411q24 10 48 0v-406q0 -121 -69 -190t-187 -69t-188 68
q-69 67 -69 191v406q24 10 48 0v-411q0 -99 57 -156t153 -57t153 57t57 156z" />
    <glyph glyph-name="Yacute" unicode="&#xdd;" horiz-adv-x="626" 
d="M240 729l116 132q8 -2 18 -10q11 -9 12 -16l-122 -126q-7 1 -15 8q-7 6 -9 12zM336 252v-251q-22 -11 -48 0v250l-251 400q8 4 26 4t26 -4l223 -354l223 354q25 10 52 0z" />
    <glyph glyph-name="Thorn" unicode="&#xde;" horiz-adv-x="624" 
d="M141 565h177q116 0 177 -60t61 -148q0 -87 -61 -147t-177 -60h-177v-150q-23 -11 -47 0v650q23 11 47 0v-85zM142 190h177q93 0 141 48t48 119t-48 119t-141 48h-177v-334z" />
    <glyph glyph-name="germandbls" unicode="&#xdf;" horiz-adv-x="588" 
d="M409 338v-4q65 -18 99 -63q34 -44 34 -105q0 -80 -60 -133q-59 -52 -156 -52q-106 0 -174 57q-4 5 -4 23q0 17 4 21q28 -28 75 -45q45 -16 95 -16q76 0 126 41q49 40 49 108q0 62 -43 102t-126 40h-80q-8 20 0 39h80q62 0 103 39q40 39 40 96q0 58 -42 99q-41 40 -118 40
q-89 0 -141 -58q-53 -59 -53 -159v-408q-23 -9 -45 0v409q0 117 66 186t174 69q95 0 149 -51t54 -123q0 -53 -28 -93q-29 -41 -78 -59z" />
    <glyph glyph-name="agrave" unicode="&#xe0;" horiz-adv-x="488" 
d="M199 610l117 -133q-2 -6 -9 -12q-7 -5 -15 -7l-123 126q1 7 12 16q10 8 18 10zM242 413l-5 -4q86 0 131 -46q45 -47 45 -127v-241q-19 -7 -39 0l-2 52q-28 -25 -73 -46t-96 -21q-67 0 -109 36t-42 94t42 94t111 36q52 0 96 -19q46 -20 71 -42v62q0 64 -34 99
q-34 36 -102 36q-72 0 -141 -48q-4 4 -4 20t4 20q57 45 147 45zM208 207h1q-53 0 -84 -27t-31 -69t30 -69t84 -27q49 0 94 22q47 23 66 43v62q-19 20 -66 43q-45 22 -94 22z" />
    <glyph glyph-name="aacute" unicode="&#xe1;" horiz-adv-x="488" 
d="M169 479l116 132q8 -2 18 -10q11 -9 12 -16l-122 -126q-7 1 -15 8q-8 6 -9 12zM240 416l-5 -4q86 0 131 -46t45 -127v-241q-19 -8 -39 0l-2 52q-28 -25 -73 -46t-96 -21q-67 0 -109 36t-42 94t42 94t111 36q52 0 96 -19q46 -20 71 -42v62q0 64 -34 99q-34 36 -102 36
q-72 0 -141 -48q-4 4 -4 20t4 20q57 45 147 45zM206 210h1q-53 0 -84 -27t-31 -69t30 -69t84 -27q49 0 94 22q47 23 66 43v62q-19 20 -66 43q-45 22 -94 22z" />
    <glyph glyph-name="acircumflex" unicode="&#xe2;" horiz-adv-x="488" 
d="M263 600l118 -121q-1 -7 -10 -16t-16 -10l-113 114l-112 -114q-8 1 -16 10q-10 10 -11 16l120 121q8 6 20 6q13 0 20 -6zM239 415l-5 -4q86 0 131 -46t45 -127v-241q-20 -7 -39 0l-2 52q-28 -25 -73 -46t-96 -21q-67 0 -109 36t-42 94t42 94t111 36q52 0 96 -19
q46 -20 71 -42v62q0 64 -34 99q-35 36 -102 36q-72 0 -141 -48q-4 4 -4 20t4 20q57 45 147 45zM205 209h1q-52 0 -84 -27q-31 -27 -31 -69t30 -69t84 -27q49 0 94 22q47 23 66 43v62q-19 20 -66 43q-45 22 -94 22z" />
    <glyph glyph-name="atilde" unicode="&#xe3;" horiz-adv-x="488" 
d="M183 563l-1 -2q28 0 75 -22q27 -12 52 -12q29 0 87 30q9 -17 0 -36q-6 -3 -13 -7q-8 -5 -15 -7q-3 -1 -13 -6q-9 -5 -15 -6t-15 -3q-6 -1 -16 -1q-28 0 -75 22q-27 12 -52 12q-28 0 -87 -30q-9 19 0 36q6 3 13 7q13 7 15 8q3 1 13 6q9 4 15 6t15 3q12 2 17 2zM240 413
l-5 -4q86 0 131 -46q45 -47 45 -127v-241q-19 -7 -39 0l-2 52q-28 -25 -73 -46t-96 -21q-67 0 -109 36t-42 94t42 94t111 36q52 0 96 -19q46 -20 71 -42v62q0 64 -34 99q-34 36 -102 36q-72 0 -141 -48q-4 4 -4 20t4 20q57 45 147 45zM206 207h1q-53 0 -84 -27t-31 -69
t30 -69t84 -27q49 0 94 22q47 23 66 43v62q-19 20 -66 43q-45 22 -94 22z" />
    <glyph glyph-name="adieresis" unicode="&#xe4;" horiz-adv-x="488" 
d="M125 571v-1q14 0 23 -9t9 -22q0 -15 -9 -24t-23 -9q-15 0 -25 9t-10 24q0 14 10 23q11 9 25 9zM361 570v-1q14 0 23 -9t9 -22q0 -15 -9 -24t-23 -9q-15 0 -25 9t-10 24q0 14 10 23t25 9zM241 413l-5 -4q86 0 131 -46q45 -47 45 -127v-241q-20 -7 -39 0l-2 52
q-28 -25 -73 -46t-96 -21q-67 0 -109 36t-42 94t42 94t111 36q52 0 96 -19q46 -20 71 -42v62q0 64 -34 99q-35 36 -102 36q-72 0 -141 -48q-4 4 -4 20t4 20q57 45 147 45zM207 207h1q-52 0 -84 -27q-31 -27 -31 -69t30 -69t84 -27q49 0 94 22q47 23 66 43v62q-19 20 -66 43
q-45 22 -94 22z" />
    <glyph glyph-name="aring" unicode="&#xe5;" horiz-adv-x="488" 
d="M243 618v-2q33 0 56 -23t23 -53q0 -34 -23 -57q-22 -22 -56 -22t-57 23t-23 57q0 31 23 54t57 23zM243 586l-4 -1q-20 0 -34 -14q-13 -13 -13 -32q0 -20 13 -34q13 -15 36 -15q21 0 35 15q14 16 14 35t-13 32q-14 14 -34 14zM237 412l-5 -4q86 0 131 -46t45 -127v-241
q-20 -8 -39 0l-2 52q-28 -25 -73 -46t-96 -21q-67 0 -109 36t-42 94t42 94t111 36q52 0 96 -19q46 -20 71 -42v62q0 64 -34 99q-35 36 -102 36q-72 0 -141 -48q-4 4 -4 20t4 20q57 45 147 45zM203 206h1q-52 0 -84 -27q-31 -27 -31 -69t30 -69t84 -27q49 0 94 22
q47 23 66 43v62q-19 20 -66 43q-45 22 -94 22z" />
    <glyph glyph-name="ae" unicode="&#xe6;" horiz-adv-x="831" 
d="M583 415l-5 -3q96 0 150 -66q54 -67 41 -153h-358q1 -79 51 -126t129 -47q77 0 144 49q4 -4 4 -20q0 -15 -3 -21q-58 -46 -147 -46q-63 0 -111 27q-47 26 -73 74l-1 -85q-16 -10 -33 0l-2 52q-28 -25 -73 -46t-96 -21q-67 0 -109 36t-42 94t42 94t111 36q52 0 96 -19
q46 -20 71 -42l1 61q0 64 -34 99q-34 36 -102 36q-72 0 -141 -48q-4 4 -4 20t4 20q57 45 147 45q131 0 161 -110q23 50 71 80t111 30zM414 222l319 -1q2 66 -42 110t-111 44q-70 0 -115 -42t-51 -111zM369 82l1 62q-19 20 -66 43q-45 22 -94 22q-52 0 -84 -27
q-31 -27 -31 -69t30 -69t84 -27q49 0 94 22q47 23 66 43z" />
    <glyph glyph-name="ccedilla" unicode="&#xe7;" horiz-adv-x="501" 
d="M283 23l-1 -5q74 0 141 49q4 -4 4 -21t-4 -21q-58 -46 -144 -46v-53q32 8 62 -12t30 -58q0 -34 -24 -55t-59 -21q-31 0 -57 17q-4 4 -4 15t4 15q25 -19 54 -19q24 0 40 13t16 37q0 32 -28 44t-63 -2v82q-88 10 -142 70t-54 145q0 93 63 154q62 61 162 61q87 0 145 -46
q4 -4 4 -20t-4 -20q-67 49 -141 49q-79 0 -131 -50q-51 -49 -51 -126t51 -126q52 -50 131 -50z" />
    <glyph glyph-name="egrave" unicode="&#xe8;" horiz-adv-x="516" 
d="M217 610l117 -133q-2 -6 -9 -12q-7 -5 -15 -7l-123 126q1 7 12 16q10 8 18 10zM269 413v-2q96 0 150 -66q54 -67 41 -153h-358q2 -80 51 -126q50 -47 129 -47q76 0 143 49q4 -4 4 -20t-4 -20q-55 -46 -147 -46q-98 0 -160 60q-61 60 -61 156q0 92 59 154q58 61 153 61z
M269 375l3 -1q-70 0 -115 -42t-51 -111h316q2 66 -42 110t-111 44z" />
    <glyph glyph-name="eacute" unicode="&#xe9;" horiz-adv-x="516" 
d="M187 479l116 132q8 -2 18 -10q11 -9 12 -16l-122 -126q-7 1 -15 8q-8 6 -9 12zM267 416v-2q96 0 150 -66q54 -67 41 -153h-358q2 -79 51 -126q50 -47 129 -47q76 0 143 49q4 -4 4 -20t-4 -20q-55 -46 -147 -46q-98 0 -160 60q-61 60 -61 156q0 92 59 154q58 61 153 61z
M267 378l3 -1q-70 0 -115 -42t-51 -111h316q2 66 -42 110t-111 44z" />
    <glyph glyph-name="ecircumflex" unicode="&#xea;" horiz-adv-x="516" 
d="M280 600l118 -121q-2 -7 -10 -16t-16 -10l-113 114l-112 -114q-7 1 -16 10q-10 10 -11 16l120 121q8 6 20 6t20 -6zM266 415v-2q96 0 150 -66q54 -67 41 -153h-358q1 -80 51 -126q50 -47 129 -47q76 0 143 49q4 -4 4 -20t-4 -20q-55 -46 -147 -46q-99 0 -160 60t-61 156
q0 92 59 154q58 61 153 61zM266 377l3 -1q-70 0 -115 -42t-51 -111h316q2 66 -42 110t-111 44z" />
    <glyph glyph-name="edieresis" unicode="&#xeb;" horiz-adv-x="516" 
d="M143 571v-1q14 0 23 -9t9 -22q0 -15 -9 -24t-23 -9q-15 0 -25 9t-10 24q0 14 10 23t25 9zM379 570v-1q14 0 23 -9t9 -22q0 -15 -9 -24t-23 -9t-25 9q-10 9 -10 24q0 14 10 23q11 9 25 9zM268 413v-2q96 0 150 -66q54 -67 41 -153h-358q1 -80 51 -126q50 -47 129 -47
q76 0 143 49q4 -4 4 -20t-4 -20q-55 -46 -147 -46q-99 0 -160 60t-61 156q0 92 59 154q58 61 153 61zM268 375l3 -1q-70 0 -115 -42t-51 -111h316q2 66 -42 110t-111 44z" />
    <glyph glyph-name="igrave" unicode="&#xec;" horiz-adv-x="197" 
d="M56 610l117 -133q-1 -6 -9 -12q-7 -5 -15 -7l-123 126q1 7 12 16q10 8 18 10zM122 398v-400q-22 -9 -45 0v400q23 9 45 0z" />
    <glyph glyph-name="iacute" unicode="&#xed;" horiz-adv-x="197" 
d="M26 479l116 132q8 -2 18 -10q11 -9 12 -16l-122 -126q-7 1 -15 8q-7 6 -9 12zM120 401v-400q-22 -9 -45 0v400q23 9 45 0z" />
    <glyph glyph-name="icircumflex" unicode="&#xee;" horiz-adv-x="197" 
d="M120 600l118 -122q-1 -6 -11 -16q-9 -8 -16 -10l-112 114l-113 -114q-6 1 -16 11q-8 9 -10 16l120 121q8 6 20 6t20 -6zM119 399v-400q-23 -9 -45 0v400q22 9 45 0z" />
    <glyph glyph-name="idieresis" unicode="&#xef;" horiz-adv-x="197" 
d="M-19 571v-1q13 0 24 -9q10 -9 10 -22q0 -15 -10 -24q-11 -9 -24 -9t-24 9q-10 9 -10 24q0 14 10 23q11 9 24 9zM218 570v-1q14 0 23 -9t9 -22q0 -15 -9 -24t-23 -9t-25 9q-10 9 -10 24q0 14 10 23q11 9 25 9zM121 398v-400q-23 -9 -45 0v400q22 9 45 0z" />
    <glyph glyph-name="eth" unicode="&#xf0;" horiz-adv-x="515" 
d="M417 587l-80 -48q120 -115 120 -289v-44q0 -104 -56 -163q-55 -58 -144 -58q-85 0 -145 60t-60 155q0 91 53 152q53 60 144 60q90 0 154 -64q-25 98 -102 168l-111 -67q-10 18 0 34l88 52q-72 55 -158 72q-4 5 -4 22t4 21q107 -16 196 -90l101 61q10 -18 0 -34zM414 200
l1 44q0 25 -5 58q-23 26 -64 48q-43 23 -88 23q-74 0 -117 -48q-43 -47 -43 -126q0 -78 47 -127q47 -48 114 -48t111 45q44 46 44 131z" />
    <glyph glyph-name="ntilde" unicode="&#xf1;" horiz-adv-x="514" 
d="M193 563l-1 -2q28 0 75 -22q27 -12 52 -12q29 0 87 30q9 -17 0 -36q-6 -3 -13 -7q-8 -5 -15 -7q-3 -1 -13 -6q-9 -5 -15 -6t-15 -3q-6 -1 -16 -1q-28 0 -75 22q-27 12 -52 12q-28 0 -87 -30q-9 19 0 36q6 3 13 7q13 7 15 8q3 1 13 6q9 4 15 6t15 3q12 2 17 2zM280 413
l4 -1q80 0 120 -45q40 -44 40 -118v-251q-22 -9 -45 0v244q0 62 -31 97q-32 36 -96 36q-45 0 -87 -27t-66 -54v-296q-23 -9 -45 0v400q20 8 41 0l2 -66q73 81 163 81z" />
    <glyph glyph-name="ograve" unicode="&#xf2;" horiz-adv-x="542" 
d="M228 610l117 -133q-1 -6 -9 -12q-7 -5 -15 -7l-123 126q1 7 12 16q10 8 18 10zM272 413h-1q91 0 153 -62t62 -153q0 -92 -61 -153q-62 -62 -153 -62q-92 0 -154 62q-61 61 -61 153t61 153q62 62 154 62zM271 374h-1q-73 0 -121 -50t-48 -126t48 -126t122 -50t122 50
t48 126t-48 126t-122 50z" />
    <glyph glyph-name="oacute" unicode="&#xf3;" horiz-adv-x="542" 
d="M198 479l116 132q8 -2 18 -10q11 -9 12 -16l-122 -126q-7 1 -15 8q-7 6 -9 12zM270 416h-1q91 0 153 -62t62 -153q0 -92 -61 -153q-62 -62 -153 -62q-92 0 -154 62q-61 61 -61 153t61 153q62 62 154 62zM269 377h-1q-73 0 -121 -50q-48 -49 -48 -126t48 -126
q48 -50 122 -50t122 50q48 49 48 126t-48 126q-48 50 -122 50z" />
    <glyph glyph-name="ocircumflex" unicode="&#xf4;" horiz-adv-x="542" 
d="M291 600l118 -121q-1 -7 -10 -16t-16 -10l-113 114l-112 -114q-8 1 -16 10q-10 10 -11 16l120 121q7 6 20 6t20 -6zM269 415h-1q91 0 153 -62t62 -153q0 -92 -61 -153q-62 -62 -153 -62q-92 0 -154 62q-61 61 -61 153t61 153q62 62 154 62zM268 376h-1q-73 0 -121 -50
t-48 -126t48 -126t122 -50t122 50t48 126t-48 126t-122 50z" />
    <glyph glyph-name="otilde" unicode="&#xf5;" horiz-adv-x="542" 
d="M207 563l-1 -2q28 0 75 -22q27 -12 52 -12q29 0 87 30q9 -17 0 -36q-6 -3 -13 -7q-8 -5 -15 -7q-3 -1 -13 -6q-9 -5 -15 -6t-15 -3q-6 -1 -16 -1q-28 0 -75 22q-27 12 -52 12q-28 0 -87 -30q-9 19 0 36q6 3 13 7q13 7 15 8q3 1 13 6q9 4 15 6t15 3q12 2 17 2zM270 413h-1
q91 0 153 -62t62 -153q0 -92 -61 -153q-62 -62 -153 -62q-92 0 -154 62q-61 61 -61 153t61 153q62 62 154 62zM269 374h-1q-73 0 -121 -50t-48 -126t48 -126t122 -50t122 50t48 126t-48 126t-122 50z" />
    <glyph glyph-name="odieresis" unicode="&#xf6;" horiz-adv-x="542" 
d="M153 571v-1q14 0 23 -9t9 -22q0 -15 -9 -24t-23 -9q-15 0 -25 9t-10 24q0 14 10 23q11 9 25 9zM390 570v-1q14 0 23 -9t9 -22q0 -15 -9 -24t-23 -9t-25 9q-10 9 -10 24q0 14 10 23q11 9 25 9zM271 413h-1q91 0 153 -62t62 -153q0 -92 -61 -153q-62 -62 -153 -62
q-92 0 -154 62q-61 61 -61 153t61 153q62 62 154 62zM270 374h-1q-73 0 -121 -50t-48 -126t48 -126t122 -50t122 50t48 126t-48 126t-122 50z" />
    <glyph glyph-name="divide" unicode="&#xf7;" horiz-adv-x="443" 
d="M223 422l-2 2q14 0 24 -10t10 -24t-9 -24t-23 -10q-15 0 -25 10t-10 24t10 23q11 9 25 9zM48 302h344q9 -20 0 -36h-344q-9 16 0 36zM221 210q14 0 23 -9t9 -23t-9 -23t-23 -9q-15 0 -25 9t-10 23t10 23t25 9z" />
    <glyph glyph-name="oslash" unicode="&#xf8;" horiz-adv-x="542" 
d="M486 400l-49 -55q53 -62 53 -145q0 -92 -61 -153q-62 -62 -153 -62q-83 0 -141 49l-32 -34q-7 -4 -22 -4t-22 4l53 55q-53 62 -53 145q0 92 61 153q62 62 154 62q80 0 138 -48l32 33q7 4 21 4t21 -4zM105 200h-1q0 -65 38 -114l242 251q-45 39 -110 39q-73 0 -121 -50
t-48 -126zM445 200q0 65 -38 115l-243 -251q46 -40 111 -40q74 0 122 50t48 126z" />
    <glyph glyph-name="ugrave" unicode="&#xf9;" horiz-adv-x="511" 
d="M213 610l117 -133q-2 -6 -9 -12q-7 -5 -15 -7l-123 126q1 7 12 16q10 8 18 10zM395 102l-5 296q22 9 45 0v-400q-19 -8 -39 0l-3 66q-73 -81 -163 -81q-80 0 -120 45q-40 44 -40 119v251q22 9 45 0v-244q0 -62 31 -97q32 -36 96 -36q45 0 87 27t66 54z" />
    <glyph glyph-name="uacute" unicode="&#xfa;" horiz-adv-x="511" 
d="M183 479l116 132q8 -2 18 -10q11 -9 12 -16l-122 -126q-7 1 -15 8q-8 6 -9 12zM393 105l-5 296q22 9 45 0v-400q-19 -7 -39 0l-3 66q-73 -81 -163 -81q-80 0 -120 45q-40 44 -40 119v251q22 9 45 0v-244q0 -62 31 -97q32 -36 96 -36q45 0 87 27t66 54z" />
    <glyph glyph-name="ucircumflex" unicode="&#xfb;" horiz-adv-x="511" 
d="M276 600l118 -121q-2 -7 -10 -16t-16 -10l-113 114l-112 -114q-8 1 -16 10q-10 10 -11 16l120 121q7 6 20 6q12 0 20 -6zM392 104l-5 296q23 9 45 0v-400q-20 -8 -39 0l-3 66q-74 -81 -163 -81q-79 0 -120 45q-40 44 -40 119v251q23 9 45 0v-244q0 -62 31 -97
q31 -36 96 -36q45 0 87 27t66 54z" />
    <glyph glyph-name="udieresis" unicode="&#xfc;" horiz-adv-x="511" 
d="M138 571v-1q14 0 23 -9t9 -22q0 -15 -9 -24t-23 -9t-25 9q-10 9 -10 24q0 14 10 23q11 9 25 9zM374 570v-1q14 0 23 -9t9 -22q0 -15 -9 -24t-23 -9t-25 9q-10 9 -10 24q0 14 10 23q11 9 25 9zM394 102l-5 296q23 9 45 0v-400q-20 -8 -39 0l-3 66q-74 -81 -163 -81
q-79 0 -120 45q-40 44 -40 119v251q23 9 45 0v-244q0 -62 31 -97q31 -36 96 -36q45 0 87 27t66 54z" />
    <glyph glyph-name="yacute" unicode="&#xfd;" horiz-adv-x="494" 
d="M174 479l116 132q8 -2 18 -10q11 -9 12 -16l-122 -126q-7 1 -15 8q-7 6 -9 12zM247 80l160 321q25 11 48 0l-283 -563q-23 -9 -47 0l99 195l-187 368q23 11 47 0z" />
    <glyph glyph-name="thorn" unicode="&#xfe;" horiz-adv-x="539" 
d="M280 415h-1q92 0 147 -61q56 -62 56 -154q0 -93 -55 -154t-147 -61q-94 0 -159 71v-219q-23 -9 -45 0v813q22 9 45 0v-306q65 71 159 71zM272 24q75 0 120 50t45 126t-45 126t-120 50q-50 0 -90 -24q-41 -25 -63 -49v-206q22 -24 63 -49q40 -24 90 -24z" />
    <glyph glyph-name="ydieresis" unicode="&#xff;" horiz-adv-x="494" 
d="M130 571v-1q14 0 23 -9t9 -22q0 -15 -9 -24t-23 -9t-25 9q-10 9 -10 24q0 14 10 23q11 9 25 9zM366 570v-1q14 0 23 -9t9 -22q0 -15 -9 -24t-23 -9t-25 9q-10 9 -10 24q0 14 10 23q11 9 25 9zM248 77l160 321q26 10 48 0l-283 -563q-23 -9 -47 0l99 195l-187 368
q23 11 47 0z" />
    <glyph glyph-name="Amacron" unicode="&#x100;" horiz-adv-x="670" 
d="M205 791h259q9 -17 0 -36l-259 1q-9 18 0 35zM356 650l275 -650q-25 -10 -49 0l-85 200h-325l-85 -200q-25 -10 -49 0l275 650q22 9 43 0zM188 241h295l-148 349z" />
    <glyph glyph-name="amacron" unicode="&#x101;" horiz-adv-x="488" 
d="M112 541h259q9 -17 0 -36l-259 1q-9 18 0 35zM241 415l-5 -4q86 0 131 -46t45 -127v-241q-20 -7 -39 0l-2 52q-28 -25 -73 -46t-96 -21q-67 0 -109 36t-42 94t42 94t111 36q52 0 96 -19q46 -20 71 -42v62q0 64 -34 99q-35 36 -102 36q-72 0 -141 -48q-4 4 -4 20t4 20
q57 45 147 45zM207 209h1q-52 0 -84 -27q-31 -27 -31 -69t30 -69t84 -27q49 0 94 22q47 23 66 43v62q-19 20 -66 43q-45 22 -94 22z" />
    <glyph glyph-name="Abreve" unicode="&#x102;" horiz-adv-x="670" 
d="M482 830h-1q4 -4 4 -20t-4 -21q-55 -46 -147 -46q-89 0 -147 46q-3 6 -3 21q0 16 4 20q69 -48 147 -48t147 48zM355 650l275 -650q-25 -10 -49 0l-85 200h-325l-85 -200q-25 -10 -49 0l275 650q22 9 43 0zM187 241h295l-148 349z" />
    <glyph glyph-name="abreve" unicode="&#x103;" horiz-adv-x="488" 
d="M389 580h-1q4 -4 4 -20t-4 -21q-55 -46 -147 -46q-89 0 -147 46q-3 6 -3 21q0 16 4 20q69 -48 147 -48t147 48zM240 415l-5 -4q86 0 131 -46t45 -127v-241q-19 -7 -39 0l-2 52q-28 -25 -73 -46t-96 -21q-67 0 -109 36t-42 94t42 94t111 36q52 0 96 -19q46 -20 71 -42v62
q0 64 -34 99q-34 36 -102 36q-72 0 -141 -48q-4 4 -4 20t4 20q57 45 147 45zM206 209h1q-53 0 -84 -27t-31 -69t30 -69t84 -27q49 0 94 22q47 23 66 43v62q-19 20 -66 43q-45 22 -94 22z" />
    <glyph glyph-name="Aogonek" unicode="&#x104;" horiz-adv-x="670" 
d="M655 -179l-1 -2q9 -15 0 -32q-11 -4 -33 -4q-44 0 -73 28q-30 29 -30 72q0 35 21 65t56 47q-8 0 -14 3l-85 200h-325l-85 -200q-25 -10 -49 0l275 650q22 9 43 0l274 -650q-35 -15 -58 -45q-22 -29 -22 -62q0 -32 21 -53t56 -21q20 0 29 4zM482 239l-148 349l-147 -349
h295z" />
    <glyph glyph-name="aogonek" unicode="&#x105;" horiz-adv-x="488" 
d="M440 -179l-5 -7q9 -15 0 -32q-11 -4 -33 -4q-44 0 -73 28q-30 28 -30 72q0 35 22 66q23 32 57 48l-7 2l-2 52q-28 -25 -73 -46t-96 -21q-67 0 -109 36t-42 94t42 94t111 36q52 0 96 -19q46 -20 71 -42v62q0 64 -34 99q-35 36 -102 36q-72 0 -141 -48q-4 4 -4 20t4 20
q57 45 147 45q86 0 131 -46t45 -127l-1 -241q-35 -15 -58 -45q-22 -29 -22 -62q0 -32 21 -53t56 -21q20 0 29 4zM366 79l1 62q-19 20 -66 43q-45 22 -94 22q-53 0 -84 -27t-31 -69t30 -69t84 -27q49 0 94 22q47 23 66 43z" />
    <glyph glyph-name="Cacute" unicode="&#x106;" horiz-adv-x="727" 
d="M339 727l116 132q8 -2 18 -10q11 -9 12 -16l-122 -126q-8 2 -15 7q-8 6 -9 13zM413 27l-1 -4q128 0 219 70q4 -4 4 -23t-4 -23q-88 -64 -220 -64q-151 0 -247 99t-96 242t96 242t248 99q132 0 220 -64q4 -4 4 -23t-4 -23q-91 70 -219 70q-129 0 -213 -86
q-84 -85 -84 -213t84 -213q84 -86 213 -86z" />
    <glyph glyph-name="cacute" unicode="&#x107;" horiz-adv-x="501" 
d="M196 479l116 132q8 -2 18 -10q11 -9 12 -16l-122 -126q-7 1 -15 8q-7 6 -9 12zM282 24v-2q74 0 141 49q4 -4 4 -21t-4 -21q-58 -46 -145 -46q-100 0 -162 61q-63 62 -63 154t63 154q62 61 162 61q87 0 145 -46q4 -4 4 -20t-4 -20q-67 49 -141 49q-79 0 -131 -50
q-51 -50 -51 -126t51 -126q52 -50 131 -50z" />
    <glyph glyph-name="Cdotaccent" unicode="&#x10a;" horiz-adv-x="727" 
d="M413 753q-15 0 -25 9t-10 23t10 23t25 9q14 0 23 -9t9 -23t-9 -23t-23 -9zM414 26l-1 -4q128 0 219 70q4 -4 4 -23t-4 -23q-88 -64 -220 -64q-151 0 -247 99t-96 242t96 242t248 99q132 0 220 -64q4 -4 4 -23t-4 -23q-91 70 -219 70q-129 0 -213 -86t-84 -213t84 -213
t213 -86z" />
    <glyph glyph-name="cdotaccent" unicode="&#x10b;" horiz-adv-x="501" 
d="M270 505v-1q-14 0 -25 9q-10 9 -10 24q0 14 10 23q11 9 25 9t23 -9t9 -22q0 -15 -9 -24t-23 -9zM283 22v-2q74 0 141 49q4 -4 4 -21t-4 -21q-58 -46 -145 -46q-100 0 -162 61q-63 61 -63 154q0 92 63 154q62 61 162 61q87 0 145 -46q4 -4 4 -20t-4 -20q-67 49 -141 49
q-79 0 -131 -50q-51 -50 -51 -126t51 -126q52 -50 131 -50z" />
    <glyph glyph-name="Ccaron" unicode="&#x10c;" horiz-adv-x="727" 
d="M413 739l111 114q8 -2 17 -9q10 -8 11 -15l-120 -121q-20 -16 -39 0l-120 121q1 7 11 15q9 7 17 9zM412 26l-1 -4q128 0 219 70q4 -4 4 -23t-4 -23q-88 -64 -220 -64q-151 0 -247 99t-96 242t96 242t248 99q132 0 220 -64q4 -4 4 -23t-4 -23q-91 70 -219 70
q-129 0 -213 -86t-84 -213t84 -213t213 -86z" />
    <glyph glyph-name="ccaron" unicode="&#x10d;" horiz-adv-x="501" 
d="M269 492l112 113q7 -1 16 -10q10 -10 11 -16l-120 -121q-20 -16 -39 0l-120 121q1 6 11 16q8 8 17 10zM282 23v-2q74 0 141 49q4 -4 4 -21t-4 -21q-58 -46 -145 -46q-100 0 -162 61q-63 62 -63 154q0 93 63 154q62 61 162 61q87 0 145 -46q4 -4 4 -20t-4 -20
q-67 49 -141 49q-79 0 -131 -50q-51 -49 -51 -126t51 -126q52 -50 131 -50z" />
    <glyph glyph-name="Dcaron" unicode="&#x10e;" horiz-adv-x="713" 
d="M301 742l112 113q8 -1 16 -10q10 -10 11 -16l-120 -121q-20 -16 -39 0l-120 121q1 6 11 16q8 8 17 10zM93 650h206q164 0 254 -93t90 -232t-90 -232t-253 -93h-207v650zM140 41h158q142 0 219 80t77 204q0 125 -76 204q-77 80 -219 80h-159v-568z" />
    <glyph glyph-name="dcaron" unicode="&#x10f;" horiz-adv-x="584" 
d="M542 665h-3q14 0 24 -10q11 -11 12 -30q5 -33 -9 -83t-30 -66q-14 -8 -30 0q16 19 30 59q14 39 12 65q-3 -1 -9 -1q-14 0 -23 9t-9 23q0 13 9 24q9 10 26 10zM414 344l-2 306q22 9 45 0v-650q-19 -8 -39 0l-2 58q-64 -73 -162 -73q-92 0 -147 61t-55 154q0 92 56 154
q55 61 147 61q94 0 159 -71zM412 97v202q-22 27 -61 50q-41 24 -90 24q-75 0 -120 -49q-45 -50 -45 -126t45 -126q45 -49 120 -49q49 0 90 24q39 23 61 50z" />
    <glyph glyph-name="Dcroat" unicode="&#x110;" horiz-adv-x="713" 
d="M94 650h206q164 0 254 -93t90 -232t-90 -232t-253 -93h-207v309h-46q-9 18 0 36h46v305zM141 41h158q142 0 219 80t77 204q0 125 -76 204q-77 80 -219 80h-159v-264h181q9 -18 0 -36h-181v-268z" />
    <glyph glyph-name="dcroat" unicode="&#x111;" 
d="M461 538h56q9 -16 0 -36h-58v-502q-19 -8 -39 0l-2 58q-64 -73 -162 -73q-92 0 -147 61t-55 154q0 92 56 154q55 61 147 61q94 0 159 -71v158l-157 1q-9 17 0 35h157v112q22 9 45 0v-112zM415 97v202q-22 27 -61 50q-40 24 -90 24q-75 0 -120 -49q-45 -50 -45 -126
t45 -126q45 -49 120 -49q50 0 90 24q39 23 61 50z" />
    <glyph glyph-name="Emacron" unicode="&#x112;" horiz-adv-x="577" 
d="M161 791h259q9 -17 0 -36l-259 1q-9 18 0 35zM141 41h385q8 -21 0 -41h-432v650h432q8 -20 0 -41h-385v-255h356q8 -20 0 -41h-356v-272z" />
    <glyph glyph-name="emacron" unicode="&#x113;" horiz-adv-x="516" 
d="M130 541h259q9 -17 0 -36l-259 1q-9 18 0 35zM268 415v-2q96 0 150 -66q54 -67 41 -153h-358q1 -80 51 -126q50 -47 129 -47q76 0 143 49q4 -4 4 -20t-4 -20q-55 -46 -147 -46q-99 0 -160 60t-61 156q0 92 59 154q58 61 153 61zM268 377l3 -1q-70 0 -115 -42t-51 -111
h316q2 66 -42 110t-111 44z" />
    <glyph glyph-name="Edotaccent" unicode="&#x116;" horiz-adv-x="577" 
d="M292 755v-1q-14 0 -25 9q-10 9 -10 24q0 14 10 23q11 9 25 9t23 -9t9 -22q0 -15 -9 -24t-23 -9zM141 40h385q8 -21 0 -41h-432v650h432q8 -20 0 -41h-385v-255h356q8 -20 0 -41h-356v-272z" />
    <glyph glyph-name="edotaccent" unicode="&#x117;" horiz-adv-x="516" 
d="M261 505v-1q-15 0 -25 9t-10 24q0 14 10 23t25 9q14 0 23 -9t9 -22q0 -15 -9 -24t-23 -9zM268 414v-2q96 0 150 -66q54 -67 41 -153h-358q1 -79 51 -126t129 -47q76 0 143 49q4 -4 4 -20t-4 -20q-55 -46 -147 -46q-99 0 -160 60t-61 156q0 92 59 154q58 61 153 61z
M268 376l3 -1q-70 0 -115 -42t-51 -111h316q2 66 -42 110t-111 44z" />
    <glyph glyph-name="Eogonek" unicode="&#x118;" horiz-adv-x="577" 
d="M550 -179l-1 -4q9 -15 0 -32q-11 -4 -33 -4q-44 0 -73 28q-30 29 -30 72q0 37 24 69t61 48h-404v650h432q8 -20 0 -41h-385v-255h356q8 -20 0 -41h-356v-272h385q8 -21 0 -41q-38 -15 -60 -45q-22 -29 -22 -62q0 -32 21 -53t56 -21q20 0 29 4z" />
    <glyph glyph-name="eogonek" unicode="&#x119;" horiz-adv-x="516" 
d="M268 415l-1 -7q96 0 150 -66q54 -67 41 -153h-358q2 -79 51 -126q50 -47 129 -47q76 0 143 49q4 -4 4 -20t-4 -20q-25 -19 -59 -30q-35 -15 -58 -45q-22 -29 -22 -62q0 -32 21 -53t56 -21q20 0 29 4q9 -15 0 -32q-11 -4 -33 -4q-44 0 -73 28q-30 28 -30 72q0 65 61 105
q-18 -3 -38 -3q-99 0 -160 60t-61 156q0 92 59 154q58 61 153 61zM102 218l319 -1q2 66 -42 110t-111 44q-70 0 -115 -42t-51 -111z" />
    <glyph glyph-name="Ecaron" unicode="&#x11a;" horiz-adv-x="577" 
d="M291 742l112 113q8 -1 16 -10q10 -10 11 -16l-120 -121q-20 -16 -39 0l-120 121q1 6 11 16q8 8 17 10zM140 41h385q8 -21 0 -41h-432v650h432q8 -20 0 -41h-385v-255h356q8 -20 0 -41h-356v-272z" />
    <glyph glyph-name="ecaron" unicode="&#x11b;" horiz-adv-x="516" 
d="M260 492l112 113q7 -1 16 -10q10 -10 11 -16l-120 -121q-19 -16 -39 0l-120 121q1 6 11 16q8 8 17 10zM267 415v-2q96 0 150 -66q54 -67 41 -153h-358q2 -80 51 -126q50 -47 129 -47q76 0 143 49q4 -4 4 -20t-4 -20q-55 -46 -147 -46q-98 0 -160 60q-61 60 -61 156
q0 92 59 154q58 61 153 61zM267 377l3 -1q-70 0 -115 -42t-51 -111h316q2 66 -42 110t-111 44z" />
    <glyph glyph-name="Gbreve" unicode="&#x11e;" horiz-adv-x="735" 
d="M559 830h-1q4 -4 4 -20t-4 -21q-55 -46 -147 -46q-89 0 -147 46q-3 6 -3 21q0 16 4 20q69 -48 147 -48t147 48zM598 73l-1 232q24 9 46 0v-260q-43 -31 -105 -47q-65 -17 -127 -17q-151 0 -247 99t-96 242t96 242t248 99q132 0 220 -64q4 -4 4 -23t-4 -23q-91 70 -219 70
q-129 0 -213 -86q-84 -85 -84 -213t84 -213q84 -86 213 -86q107 0 185 48z" />
    <glyph glyph-name="gbreve" unicode="&#x11f;" horiz-adv-x="534" 
d="M414 580h-1q4 -4 4 -20t-4 -21q-55 -46 -147 -46q-89 0 -147 46q-3 6 -3 21q0 16 4 20q69 -48 147 -48t147 48zM257 415l-1 1q98 0 162 -73l2 58q20 7 39 0v-396q0 -82 -49 -132q-50 -51 -141 -51q-95 0 -150 45q-4 5 -4 21t4 20q67 -48 144 -48q74 0 113 39t39 104v55
q-65 -71 -159 -71q-92 0 -147 61t-55 153q0 91 56 153q55 61 147 61zM265 377l1 -2q-75 0 -120 -49q-45 -50 -45 -126t45 -126q45 -49 120 -49q50 0 90 24t60 50v204q-22 27 -61 50q-41 24 -90 24z" />
    <glyph glyph-name="Gdotaccent" unicode="&#x120;" horiz-adv-x="735" 
d="M413 755v-1q-15 0 -25 9t-10 24q0 14 10 23t25 9q14 0 23 -9t9 -22q0 -15 -9 -24t-23 -9zM599 72l-1 232q24 9 46 0v-260q-43 -31 -105 -47q-65 -17 -127 -17q-151 0 -247 99t-96 242t96 242t248 99q132 0 220 -64q4 -4 4 -23t-4 -23q-91 70 -219 70q-129 0 -213 -86
t-84 -213t84 -213t213 -86q107 0 185 48z" />
    <glyph glyph-name="gdotaccent" unicode="&#x121;" horiz-adv-x="534" 
d="M268 505v-1q-14 0 -25 9q-10 9 -10 24q0 14 10 23t25 9q14 0 23 -9t9 -22q0 -15 -9 -24t-23 -9zM258 414l-1 1q98 0 162 -73l2 58q19 8 39 0v-396q0 -82 -49 -132q-49 -51 -141 -51q-94 0 -150 45q-4 5 -4 21t4 20q68 -48 144 -48q74 0 113 39t39 104v55
q-65 -71 -159 -71q-92 0 -147 61t-55 153q0 91 56 153q55 61 147 61zM266 376l1 -2q-75 0 -120 -49t-45 -126t45 -126t120 -49q49 0 90 24q40 24 60 50v204q-22 27 -61 50q-40 24 -90 24z" />
    <glyph glyph-name="Gcommaaccent" unicode="&#x122;" horiz-adv-x="735" 
d="M599 73l-1 232q24 9 46 0v-260q-43 -31 -105 -47q-65 -17 -127 -17q-151 0 -247 99t-96 242t96 242t248 99q132 0 220 -64q4 -4 4 -23t-4 -23q-91 70 -219 70q-129 0 -213 -86q-84 -85 -84 -213t84 -213q84 -86 213 -86q107 0 185 48zM412 -63h-5q16 0 26 -10
q11 -11 12 -30q5 -33 -9 -83t-30 -66q-14 -8 -30 0q16 19 30 59q14 39 12 65q-3 -1 -9 -1q-14 0 -23 9t-9 23q0 13 9 24q9 10 26 10z" />
    <glyph glyph-name="gcommaaccent" unicode="&#x123;" horiz-adv-x="534" 
d="M303 695q-18 -21 -29 -58q-12 -40 -11 -67q3 1 9 1q14 0 23 -9t9 -23q0 -13 -9 -24q-9 -10 -25 -10q-13 0 -24 11q-10 10 -12 30q-5 33 9 83q13 49 30 66q17 7 30 0zM258 415l-1 1q98 0 162 -73l2 58q19 7 39 0v-396q0 -82 -49 -132q-49 -51 -141 -51q-94 0 -150 45
q-4 5 -4 21t4 20q68 -48 144 -48q74 0 113 39t39 104v55q-65 -71 -159 -71q-92 0 -147 61t-55 153q0 91 56 153q55 61 147 61zM266 377l1 -2q-75 0 -120 -49q-45 -50 -45 -126t45 -126q45 -49 120 -49q49 0 90 24q40 24 60 50v204q-22 27 -61 50q-40 24 -90 24z" />
    <glyph glyph-name="Hbar" unicode="&#x126;" horiz-adv-x="723" 
d="M628 504h63q7 -16 0 -36h-63v-468q-24 -11 -47 0v313h-440v-313q-23 -11 -47 0v468h-62q-9 20 0 36h62v146q23 11 47 0v-146h440v146q23 11 47 0v-146zM581 468h-440v-114h440v114z" />
    <glyph glyph-name="hbar" unicode="&#x127;" horiz-adv-x="515" 
d="M282 415l1 -2q79 0 120 -45q40 -44 40 -118v-251q-23 -9 -45 0v244q0 62 -31 97q-31 36 -96 36q-43 0 -84 -26q-39 -25 -66 -53v-297q-23 -9 -45 0v503h-57q-9 17 0 35h57v112q22 9 45 0v-112h158q9 -16 0 -36l-158 1v-166q78 78 161 78z" />
    <glyph glyph-name="Imacron" unicode="&#x12a;" horiz-adv-x="236" 
d="M-13 791h259q9 -17 0 -36l-259 1q-9 18 0 35zM141 650v-650q-23 -11 -47 0v650q23 11 47 0z" />
    <glyph glyph-name="imacron" unicode="&#x12b;" horiz-adv-x="197" 
d="M-31 541h259q9 -17 0 -36l-259 1q-8 18 0 35zM121 400v-400q-23 -9 -45 0v400q22 9 45 0z" />
    <glyph glyph-name="Iogonek" unicode="&#x12e;" horiz-adv-x="236" 
d="M165 -179h-1q9 -15 0 -32q-11 -4 -33 -4q-44 0 -73 28q-30 29 -30 72q0 35 21 65t56 47h-3h-3l-3 1h-3v650q23 11 47 0l-1 -650q-35 -15 -58 -45q-22 -29 -22 -62q0 -32 21 -53t56 -21q20 0 29 4z" />
    <glyph glyph-name="iogonek" unicode="&#x12f;" horiz-adv-x="197" 
d="M100 505v-1q-14 0 -25 9q-10 9 -10 24q0 14 10 23t25 9q14 0 23 -9t9 -22q0 -15 -9 -24t-23 -9zM145 -180l-1 -2q9 -15 0 -32q-11 -4 -33 -4q-44 0 -73 28q-30 28 -30 72q0 35 21 65t56 47q-6 2 -10 3v400q23 9 45 0l-1 -400q-35 -15 -58 -45q-22 -29 -22 -62
q0 -32 21 -53t56 -21q20 0 29 4z" />
    <glyph glyph-name="Idotaccent" unicode="&#x130;" horiz-adv-x="236" 
d="M118 755v-1q-14 0 -25 9q-10 9 -10 24q0 14 10 23q11 9 25 9t23 -9t9 -22q0 -15 -9 -24t-23 -9zM141 649v-650q-23 -11 -47 0v650q23 11 47 0z" />
    <glyph glyph-name="dotlessi" unicode="&#x131;" horiz-adv-x="197" 
d="M121 400v-400q-23 -9 -45 0v400q22 9 45 0z" />
    <glyph glyph-name="IJ" unicode="&#x132;" horiz-adv-x="648" 
d="M141 650v-650q-23 -11 -47 0v650q23 11 47 0zM554 650l-1 -470q0 -99 -43 -146q-44 -48 -120 -48q-60 0 -113 33q-3 6 -3 23t4 21q51 -36 104 -36q125 0 125 156v467q23 11 47 0z" />
    <glyph glyph-name="ij" unicode="&#x133;" horiz-adv-x="493" 
d="M112 575q14 0 23 -9t9 -23t-9 -23t-23 -9t-25 9q-10 9 -10 23t10 23t25 9zM387 570q13 0 22 -9t9 -22t-9 -22t-22 -9q-14 0 -23 9t-9 22t9 22t23 9zM132 400v-400q-22 -9 -45 0v400q23 9 45 0zM409 400l-1 -478q0 -50 -25 -75t-67 -25q-44 0 -87 24q-3 6 -3 22q0 17 4 21
q44 -29 78 -29q56 0 56 66v474q22 9 45 0z" />
    <glyph glyph-name="Kcommaaccent" unicode="&#x136;" horiz-adv-x="609" 
d="M191 335l378 -335q-8 -4 -30 -4t-30 4l-368 323v-323q-23 -11 -47 0v650q23 11 47 0v-304l347 304q9 4 32 4q22 0 30 -4zM305 -59h-3q14 0 24 -10q10 -11 12 -30q5 -33 -9 -83q-13 -50 -30 -66q-13 -8 -30 0q16 19 30 59q14 39 12 65q-3 -1 -9 -1q-14 0 -23 9t-9 23
q0 13 9 24q9 10 26 10z" />
    <glyph glyph-name="kcommaaccent" unicode="&#x137;" horiz-adv-x="454" 
d="M164 206l252 -206q-8 -4 -29 -4t-30 4l-236 192v-192q-23 -9 -45 0v650q22 9 45 0v-431l228 181q8 4 29 4t29 -4zM228 -59h-3q14 0 24 -10q11 -11 12 -30q5 -33 -9 -83t-30 -66q-14 -8 -30 0q16 19 30 59q14 39 12 65q-3 -1 -9 -1q-14 0 -23 9t-9 23q0 13 9 24
q9 10 26 10z" />
    <glyph glyph-name="Lacute" unicode="&#x139;" horiz-adv-x="554" 
d="M207 729l116 132q8 -2 18 -10q11 -9 12 -16l-122 -126q-7 1 -15 8q-8 6 -9 12zM140 42h371q8 -21 0 -41h-418v650q23 11 47 0v-609z" />
    <glyph glyph-name="lacute" unicode="&#x13a;" horiz-adv-x="194" 
d="M26 729l116 132q8 -2 18 -10q11 -9 12 -16l-122 -126q-7 1 -15 8q-7 6 -9 12zM120 651v-650q-22 -9 -45 0v650q23 9 45 0z" />
    <glyph glyph-name="Lcommaaccent" unicode="&#x13b;" horiz-adv-x="554" 
d="M141 41h371q8 -21 0 -41h-418v650q23 11 47 0v-609zM282 -59h-3q14 0 24 -10q11 -11 12 -30q5 -33 -9 -83t-30 -66q-14 -8 -30 0q16 19 30 59q14 39 12 65q-3 -1 -9 -1q-14 0 -23 9t-9 23q0 13 9 24q9 10 26 10z" />
    <glyph glyph-name="lcommaaccent" unicode="&#x13c;" horiz-adv-x="194" 
d="M121 650v-650q-23 -9 -45 0v650q22 9 45 0zM98 -59h-3q14 0 24 -10q11 -11 12 -30q5 -33 -9 -83t-30 -66q-14 -8 -30 0q16 19 30 59q14 39 12 65q-3 -1 -9 -1q-14 0 -23 9t-9 23q0 13 9 24q9 10 26 10z" />
    <glyph glyph-name="Lcaron" unicode="&#x13d;" horiz-adv-x="554" 
d="M475 665h-5q16 0 26 -10q10 -11 12 -30q5 -33 -9 -83q-13 -50 -30 -66q-13 -8 -30 0q16 19 30 59q14 39 12 65q-3 -1 -9 -1q-14 0 -23 9t-9 23q0 13 9 24q9 10 26 10zM136 41h371q8 -21 0 -41h-418v650q23 11 47 0v-609z" />
    <glyph glyph-name="lcaron" unicode="&#x13e;" horiz-adv-x="246" 
d="M202 665h-3q14 0 24 -10q11 -11 12 -30q5 -33 -9 -83t-30 -66q-14 -8 -30 0q16 19 30 59q14 39 12 65q-3 -1 -9 -1q-14 0 -23 9t-9 23q0 13 9 24q9 10 26 10zM118 650v-650q-22 -9 -45 0v650q23 9 45 0z" />
    <glyph glyph-name="Ldot" unicode="&#x13f;" horiz-adv-x="554" 
d="M141 41h371q8 -21 0 -41h-418v650q23 11 47 0v-609zM479 281q-15 0 -25 9t-10 23t10 23t25 9q14 0 23 -9t9 -23t-9 -23t-23 -9z" />
    <glyph glyph-name="ldot" unicode="&#x140;" horiz-adv-x="240" 
d="M121 650v-650q-23 -9 -45 0v650q22 9 45 0zM202 274q-14 0 -25 9q-10 9 -10 23t10 23q11 9 25 9t23 -9t9 -23t-9 -23t-23 -9z" />
    <glyph glyph-name="Lslash" unicode="&#x141;" horiz-adv-x="554" 
d="M141 41h371q8 -21 0 -41h-418v327l-59 -20q-9 20 0 38l59 20v285q23 11 47 0v-270l160 54q9 -18 0 -38l-160 -54v-301z" />
    <glyph glyph-name="lslash" unicode="&#x142;" horiz-adv-x="194" 
d="M121 382l59 16q9 -18 0 -37l-59 -16v-345q-23 -9 -45 0v332l-58 -16q-9 18 0 38l58 16v280q22 9 45 0v-268z" />
    <glyph glyph-name="Nacute" unicode="&#x143;" horiz-adv-x="713" 
d="M284 729l116 132q8 -2 18 -10q11 -9 12 -16l-122 -126q-7 1 -15 8q-7 6 -9 12zM623 651l-1 -650q-20 -7 -39 0l-447 572v-572q-23 -11 -47 0v650q20 8 41 0l446 -572v572q23 11 47 0z" />
    <glyph glyph-name="nacute" unicode="&#x144;" horiz-adv-x="514" 
d="M184 479l116 132q8 -2 18 -10q11 -9 12 -16l-122 -126q-7 1 -15 8q-7 6 -9 12zM280 416l4 -1q80 0 120 -45q40 -44 40 -118v-251q-22 -9 -45 0v244q0 62 -31 97q-32 36 -96 36q-45 0 -87 -27t-66 -54v-296q-23 -9 -45 0v400q20 8 41 0l2 -66q73 81 163 81z" />
    <glyph glyph-name="Ncommaaccent" unicode="&#x145;" horiz-adv-x="713" 
d="M624 650l-1 -650q-19 -8 -39 0l-447 572v-572q-23 -11 -47 0v650q20 8 41 0l446 -572v572q23 11 47 0zM356 -59h-5q16 0 26 -10q11 -11 12 -30q5 -33 -9 -83t-30 -66q-14 -8 -30 0q16 19 30 59q14 39 12 65q-3 -1 -9 -1q-14 0 -23 9t-9 23q0 13 9 24q9 10 26 10z" />
    <glyph glyph-name="ncommaaccent" unicode="&#x146;" horiz-adv-x="514" 
d="M281 415l4 -1q79 0 120 -45q40 -44 40 -118v-251q-23 -9 -45 0v244q0 62 -31 97q-31 36 -96 36q-45 0 -87 -27t-66 -54v-296q-22 -9 -45 0v400q20 8 41 0l2 -66q74 81 163 81zM261 -60h-5q16 0 26 -10t12 -30q5 -33 -9 -83q-13 -49 -30 -66q-13 -7 -30 0q16 19 30 59
q14 39 12 65q-3 -1 -9 -1q-14 0 -23 9t-9 23t9 24t26 10z" />
    <glyph glyph-name="Ncaron" unicode="&#x147;" horiz-adv-x="713" 
d="M357 742l112 113q7 -1 16 -10q10 -10 11 -16l-120 -121q-20 -16 -39 0l-120 121q1 6 11 16q8 8 17 10zM623 650l-1 -650q-20 -8 -39 0l-447 572v-572q-23 -11 -47 0v650q20 8 41 0l446 -572v572q23 11 47 0z" />
    <glyph glyph-name="ncaron" unicode="&#x148;" horiz-adv-x="514" 
d="M257 492l112 113q7 -1 16 -10q10 -10 11 -16l-120 -121q-20 -16 -39 0l-120 121q1 6 11 16q8 8 17 10zM280 415l4 -1q80 0 120 -45q40 -44 40 -118v-251q-22 -9 -45 0v244q0 62 -31 97q-32 36 -96 36q-45 0 -87 -27t-66 -54v-296q-23 -9 -45 0v400q20 8 41 0l2 -66
q73 81 163 81z" />
    <glyph glyph-name="Eng" unicode="&#x14a;" horiz-adv-x="713" 
d="M577 78l-1 572q23 11 47 0v-728q0 -50 -25 -75t-67 -25q-44 0 -86 24q-4 5 -4 22t4 21q44 -29 78 -29q57 0 57 66v79l-443 567v-572q-23 -11 -47 0v650q20 8 41 0z" />
    <glyph glyph-name="eng" unicode="&#x14b;" horiz-adv-x="514" 
d="M281 415l2 -1q79 0 120 -45q40 -44 40 -118v-329q0 -50 -25 -75t-67 -25q-44 0 -86 24q-4 5 -4 22t4 21q44 -29 78 -29q57 0 57 66v318q0 62 -31 97q-31 36 -96 36q-45 0 -87 -27t-66 -54v-296q-22 -9 -45 0v400q20 8 41 0l2 -66q74 81 163 81z" />
    <glyph glyph-name="Omacron" unicode="&#x14c;" horiz-adv-x="817" 
d="M278 791h259q9 -17 0 -36l-259 1q-9 18 0 35zM408 665v-2q148 0 244 -99t96 -241t-96 -241t-244 -99t-244 99t-96 242t96 242t244 99zM408 622l-3 -2q-126 0 -208 -85t-82 -213q0 -127 83 -213q82 -85 209 -85t210 86t83 213q0 128 -82 213q-83 86 -210 86z" />
    <glyph glyph-name="omacron" unicode="&#x14d;" horiz-adv-x="542" 
d="M141 541h259q9 -17 0 -36l-259 1q-9 18 0 35zM271 415h-1q91 0 153 -62t62 -153q0 -92 -61 -153q-62 -62 -153 -62q-92 0 -154 62q-61 61 -61 153t61 153q62 62 154 62zM270 376h-1q-73 0 -121 -50t-48 -126t48 -126t122 -50t122 50t48 126t-48 126t-122 50z" />
    <glyph glyph-name="Ohungarumlaut" unicode="&#x150;" horiz-adv-x="817" 
d="M292 729l116 132q8 -2 18 -10q11 -9 12 -16l-122 -126q-7 1 -15 8q-7 6 -9 12zM409 730l116 132q8 -2 18 -10q11 -9 12 -16l-122 -126q-7 1 -15 8q-8 6 -9 12zM406 667v-2q148 0 244 -99t96 -241t-96 -241t-244 -99t-244 99t-96 242t96 242t244 99zM406 624l-3 -2
q-126 0 -208 -85t-82 -213q0 -127 83 -213q82 -85 209 -85t210 86t83 213q0 128 -82 213q-83 86 -210 86z" />
    <glyph glyph-name="ohungarumlaut" unicode="&#x151;" horiz-adv-x="542" 
d="M154 479l116 132q8 -2 18 -10q11 -9 12 -16l-122 -126q-7 1 -15 8q-7 6 -9 12zM271 480l116 132q8 -2 18 -10q11 -9 12 -16l-122 -126q-7 1 -15 8q-8 6 -9 12zM269 417h-1q91 0 153 -62t62 -153q0 -92 -61 -153q-62 -62 -153 -62q-92 0 -154 62q-61 61 -61 153t61 153
q62 62 154 62zM268 378h-1q-73 0 -121 -50t-48 -126t48 -126t122 -50t122 50t48 126t-48 126t-122 50z" />
    <glyph glyph-name="OE" unicode="&#x152;" horiz-adv-x="1183" 
d="M748 41l384 -4q8 -21 0 -41h-432v173q-34 -84 -113 -135q-78 -51 -179 -51q-148 0 -244 99t-96 242t96 242t244 99q101 0 179 -51q79 -52 113 -136v172h432q8 -20 0 -41h-384v-255h355q8 -20 0 -41h-355v-272zM408 22h-3q127 0 210 86t83 213t-83 213t-209 86
q-125 0 -208 -86q-82 -85 -82 -213q0 -127 83 -213t209 -86z" />
    <glyph glyph-name="oe" unicode="&#x153;" horiz-adv-x="901" 
d="M653 415l-3 -1q96 0 150 -66q54 -67 41 -153h-358q1 -79 51 -126t129 -47q76 0 143 49q4 -4 4 -20t-4 -20q-55 -46 -147 -46q-72 0 -124 34q-53 35 -75 94q-22 -58 -74 -93t-117 -35q-92 0 -154 62q-61 61 -61 153t61 153q62 62 154 62q67 0 119 -35t74 -93q22 59 72 93
q50 35 119 35zM650 378l3 -1q-70 0 -115 -42t-51 -111h316q2 66 -42 110t-111 44zM271 374h-1q-73 0 -121 -50t-48 -126t48 -126t122 -50t122 50t48 126t-48 126t-122 50z" />
    <glyph glyph-name="Racute" unicode="&#x154;" horiz-adv-x="624" 
d="M221 729l116 132q8 -2 18 -10q11 -9 12 -16l-122 -126q-7 1 -15 8q-8 6 -9 12zM93 651l233 -1q116 0 177 -58t61 -145q0 -74 -45 -128q-46 -55 -133 -68l192 -250q-9 -4 -28 -4t-28 4l-187 244h-195v-244q-23 -11 -47 0v650zM141 609v-326h186q95 0 141 46q47 47 47 117
t-47 117q-46 46 -141 46h-186z" />
    <glyph glyph-name="racute" unicode="&#x155;" horiz-adv-x="395" 
d="M125 479l116 132q8 -2 18 -10q11 -9 12 -16l-122 -126q-7 1 -15 8q-8 6 -9 12zM352 397h2q4 -4 4 -22q0 -19 -4 -24q-34 24 -87 24q-72 0 -147 -99v-275q-22 -9 -45 0v400q20 8 41 0l3 -83q66 98 152 98q50 0 81 -19z" />
    <glyph glyph-name="Rcommaaccent" unicode="&#x156;" horiz-adv-x="624" 
d="M94 650l233 -1q116 0 177 -58t61 -145q0 -74 -45 -128q-46 -55 -133 -68l192 -250q-9 -4 -28 -4t-28 4l-187 244h-195v-244q-23 -11 -47 0v650zM142 608v-326h186q95 0 141 46q47 47 47 117t-47 117q-46 46 -141 46h-186zM313 -62h-5q16 0 26 -10t12 -30q5 -33 -9 -83
q-13 -49 -30 -66q-13 -7 -30 0q16 19 30 59q14 39 12 65q-3 -1 -9 -1q-14 0 -23 9t-9 23t9 24t26 10z" />
    <glyph glyph-name="rcommaaccent" unicode="&#x157;" horiz-adv-x="395" 
d="M353 396h2q4 -4 4 -22q0 -19 -4 -24q-35 24 -87 24q-72 0 -147 -99v-275q-23 -9 -45 0v400q20 8 41 0l3 -83q66 98 152 98q50 0 81 -19zM201 -59h-5q16 0 26 -10q10 -11 12 -30q5 -33 -9 -83q-13 -50 -30 -66q-13 -8 -30 0q16 19 30 59q14 39 12 65q-3 -1 -9 -1
q-14 0 -23 9t-9 23q0 13 9 24q9 10 26 10z" />
    <glyph glyph-name="Rcaron" unicode="&#x158;" horiz-adv-x="624" 
d="M294 742l112 113q7 -1 16 -10q10 -10 11 -16l-120 -121q-19 -16 -39 0l-120 121q1 6 11 16q8 8 17 10zM93 650l233 -1q116 0 177 -58t61 -145q0 -74 -45 -128q-46 -55 -133 -68l192 -250q-9 -4 -28 -4t-28 4l-187 244h-195v-244q-23 -11 -47 0v650zM141 608v-326h186
q95 0 141 46q47 47 47 117t-47 117q-46 46 -141 46h-186z" />
    <glyph glyph-name="rcaron" unicode="&#x159;" horiz-adv-x="395" 
d="M198 492l112 113q8 -1 16 -10q10 -10 11 -16l-120 -121q-19 -16 -39 0l-120 121q1 6 11 16q8 8 17 10zM352 396h2q4 -4 4 -22q0 -19 -4 -24q-34 24 -87 24q-72 0 -147 -99v-275q-22 -9 -45 0v400q20 8 41 0l3 -83q66 98 152 98q50 0 81 -19z" />
    <glyph glyph-name="Sacute" unicode="&#x15a;" horiz-adv-x="569" 
d="M212 729l116 132q8 -2 18 -10q11 -9 12 -16l-122 -126q-7 1 -15 8q-7 6 -9 12zM276 666l-5 -5q115 0 189 -64q4 -5 4 -25t-4 -24q-78 72 -188 72q-74 0 -117 -36t-43 -89q0 -56 39 -83q40 -28 147 -62q41 -13 62 -21q28 -10 53 -25q29 -17 45 -34t28 -45q12 -27 12 -62
q0 -80 -61 -129t-156 -49q-115 0 -201 66q-4 4 -4 24t4 24q89 -74 201 -74q75 0 122 38t47 96q0 64 -42 94q-40 29 -143 61q-51 16 -79 28q-32 14 -60 34q-31 22 -44 51q-14 31 -14 69q0 70 56 120t152 50z" />
    <glyph glyph-name="sacute" unicode="&#x15b;" horiz-adv-x="404" 
d="M129 479l116 132q8 -2 18 -10q11 -9 12 -16l-122 -126q-7 1 -15 8q-8 6 -9 12zM213 222l-3 2q75 -24 108 -49q34 -25 34 -72q0 -55 -45 -85t-107 -30q-40 0 -81 12q-39 11 -64 32q-4 4 -4 20q0 15 4 19q68 -50 143 -50q44 0 77 18t33 57q0 23 -16 39q-16 17 -36 24
l-66 24q-75 25 -111 50q-34 24 -34 70q0 52 44 82q43 30 105 30q40 0 81 -12t64 -31q4 -4 4 -20q0 -15 -4 -19q-68 50 -140 50q-44 0 -76 -19q-33 -20 -33 -55q0 -16 8 -29t27 -23q22 -12 36 -17q22 -8 52 -18z" />
    <glyph glyph-name="Scedilla" unicode="&#x15e;" horiz-adv-x="569" 
d="M500 164l-5 -5q0 -77 -57 -126t-146 -54v-53q32 8 62 -12t30 -58q0 -34 -24 -55t-59 -21q-31 0 -57 17q-4 4 -4 15t4 15q25 -19 54 -19q24 0 40 13t16 37q0 32 -28 44t-63 -2v81q-109 7 -186 66q-4 4 -4 24t4 24q89 -74 201 -74q75 0 122 38t47 96q0 64 -42 94
q-40 29 -143 61q-51 16 -79 28q-32 14 -60 34q-31 22 -44 51q-14 31 -14 69q0 70 56 120t152 50q115 0 189 -64q4 -5 4 -25t-4 -24q-78 72 -188 72q-74 0 -117 -36t-43 -89q0 -56 39 -83q40 -28 147 -62q41 -13 62 -21q28 -10 53 -25q29 -17 45 -34t28 -45q12 -27 12 -62z
" />
    <glyph glyph-name="scedilla" unicode="&#x15f;" horiz-adv-x="404" 
d="M356 99h-2q0 -55 -44 -84t-105 -30v-53q32 8 62 -12t30 -58q0 -34 -24 -55t-59 -21q-31 0 -57 17q-4 4 -4 15t4 15q25 -19 54 -19q24 0 40 13t16 37q0 32 -28 44t-63 -2v82q-76 8 -120 42q-4 4 -4 20q0 15 4 19q68 -50 143 -50q44 0 77 18t33 57q0 23 -16 39
q-17 17 -36 24l-66 24q-75 25 -111 50q-34 24 -34 70q0 52 44 82t105 30q41 0 81 -12q41 -12 64 -31q4 -4 4 -20q0 -15 -4 -19q-68 50 -140 50q-44 0 -76 -19q-33 -19 -33 -55q0 -16 8 -29t27 -23q22 -12 36 -17q22 -8 52 -18q75 -24 108 -49q34 -25 34 -72z" />
    <glyph glyph-name="Scaron" unicode="&#x160;" horiz-adv-x="569" 
d="M285 742l112 113q7 -1 16 -10q10 -10 11 -16l-120 -121q-20 -16 -39 0l-120 121q1 6 11 16q8 8 17 10zM276 665l-5 -5q115 0 189 -64q4 -5 4 -25t-4 -24q-78 72 -188 72q-74 0 -117 -36t-43 -89q0 -56 39 -83q40 -28 147 -62q41 -13 62 -21q28 -10 53 -25q29 -17 45 -34
t28 -45q12 -27 12 -62q0 -80 -61 -129t-156 -49q-115 0 -201 66q-4 4 -4 24t4 24q89 -74 201 -74q75 0 122 38t47 96q0 64 -42 94q-40 29 -143 61q-51 16 -79 28q-32 14 -60 34q-31 22 -44 51q-14 31 -14 69q0 70 56 120t152 50z" />
    <glyph glyph-name="scaron" unicode="&#x161;" horiz-adv-x="404" 
d="M202 492l112 113q8 -1 16 -10q10 -10 11 -16l-120 -121q-19 -16 -39 0l-120 121q1 6 11 16q8 8 17 10zM213 221l-3 2q75 -24 108 -49q34 -25 34 -72q0 -55 -45 -85t-107 -30q-40 0 -81 12q-39 11 -64 32q-4 4 -4 20q0 15 4 19q68 -50 143 -50q44 0 77 18t33 57
q0 23 -16 39t-36 24t-66 24q-75 25 -111 50q-34 24 -34 70q0 52 44 82q43 30 105 30q40 0 81 -12t64 -31q4 -4 4 -20q0 -15 -4 -19q-68 50 -140 50q-44 0 -76 -19q-33 -19 -33 -55q0 -16 8 -29t27 -23q22 -12 36 -17q22 -8 52 -18z" />
    <glyph glyph-name="Tcedilla" unicode="&#x162;" horiz-adv-x="585" 
d="M316 609v-611l-9 -3v-65q32 8 62 -12q30 -19 30 -58q0 -34 -24 -55t-59 -21q-31 0 -57 17q-4 4 -4 15t4 15q25 -19 54 -19q24 0 40 13t16 37q0 32 -28 44t-63 -2v93q-6 2 -10 3v609h-226q-8 21 0 41h501q8 -20 0 -41h-227z" />
    <glyph glyph-name="tcedilla" unicode="&#x163;" horiz-adv-x="357" 
d="M213 -15l-1 -57q32 8 62 -12t30 -58q0 -34 -24 -55t-59 -21q-31 0 -57 17q-4 4 -4 15t4 15q25 -19 54 -19q24 0 40 13t16 37q0 32 -28 44t-63 -2v82q-34 6 -55 31t-21 69v277h-66q-9 18 0 38h66v130q23 9 45 0v-130h141q9 -20 0 -38h-141v-273q0 -66 56 -66q38 0 95 42
q4 -4 4 -20q0 -15 -3 -21q-40 -34 -91 -38z" />
    <glyph glyph-name="Tcaron" unicode="&#x164;" horiz-adv-x="585" 
d="M292 742l112 113q8 -1 16 -10q10 -10 11 -16l-120 -121q-19 -16 -39 0l-120 121q1 6 11 16q8 8 17 10zM41 650h501q8 -20 0 -41h-227v-609q-23 -10 -48 0v609h-226q-8 21 0 41z" />
    <glyph glyph-name="tcaron" unicode="&#x165;" horiz-adv-x="357" 
d="M313 665l-1 -2q16 0 26 -10q10 -11 12 -30q4 -31 -9 -76q-13 -44 -30 -61q-13 -8 -30 0q17 17 29 53q12 37 11 61q-3 -1 -9 -1q-14 0 -23 9t-9 23q0 13 9 24q9 10 24 10zM303 63l-1 -2q4 -4 4 -20q0 -15 -3 -21q-49 -38 -102 -38q-42 0 -68 26t-26 75v277h-66q-9 18 0 38
h66v130q23 9 45 0v-130h141q9 -20 0 -38h-141v-273q0 -66 56 -66q38 0 95 42z" />
    <glyph glyph-name="Tbar" unicode="&#x166;" horiz-adv-x="585" 
d="M316 609v-209h110q9 -18 0 -36h-110v-364q-22 -10 -48 0v364h-110q-9 18 0 36h110v209h-226q-8 21 0 41h501q8 -20 0 -41h-227z" />
    <glyph glyph-name="tbar" unicode="&#x167;" horiz-adv-x="357" 
d="M304 65l-1 -2q4 -4 4 -20q0 -15 -3 -21q-49 -38 -102 -38q-42 0 -68 26t-26 75v151h-66q-8 16 0 33h66v92h-66q-9 18 0 38h66v130q22 9 45 0v-130h141q9 -20 0 -38h-141v-92h141q8 -17 0 -33h-141v-147q0 -66 56 -66q38 0 95 42z" />
    <glyph glyph-name="Umacron" unicode="&#x16a;" horiz-adv-x="697" 
d="M219 791h259q9 -17 0 -36l-259 1q-9 18 0 35zM560 239l-3 411q24 10 48 0v-406q0 -121 -69 -190t-187 -69t-188 68q-69 67 -69 191v406q24 10 48 0v-411q0 -99 57 -156t153 -57t153 57t57 156z" />
    <glyph glyph-name="umacron" unicode="&#x16b;" horiz-adv-x="511" 
d="M126 541h259q9 -17 0 -36l-259 1q-9 18 0 35zM394 104l-5 296q23 9 45 0v-400q-20 -8 -39 0l-3 66q-74 -81 -163 -81q-79 0 -120 45q-40 44 -40 119v251q23 9 45 0v-244q0 -62 31 -97q31 -36 96 -36q45 0 87 27t66 54z" />
    <glyph glyph-name="Uring" unicode="&#x16e;" horiz-adv-x="697" 
d="M350 868v-2q33 0 56 -23t23 -53q0 -34 -23 -57q-22 -22 -56 -22t-57 23t-23 57q0 31 23 54t57 23zM350 836l-2 -1q-22 0 -36 -14q-13 -13 -13 -32q0 -20 13 -34q14 -15 36 -15t35 15q14 16 14 35t-13 32q-14 14 -34 14zM558 236l-3 411q24 11 48 0v-406q0 -121 -69 -190
t-187 -69t-188 68q-69 68 -69 191v406q24 11 48 0v-411q0 -99 57 -156t153 -57t153 57t57 156z" />
    <glyph glyph-name="uring" unicode="&#x16f;" horiz-adv-x="511" 
d="M256 618v-2q33 0 56 -23t23 -53q0 -34 -23 -57q-22 -22 -56 -22t-57 23t-23 57q0 31 23 54t57 23zM256 586l-2 -1q-22 0 -36 -14q-13 -13 -13 -32q0 -20 13 -34q14 -15 36 -15t35 15q14 16 14 35t-13 32q-14 14 -34 14zM392 101l-5 296q23 9 45 0v-400q-20 -7 -39 0
l-3 66q-74 -81 -163 -81q-79 0 -120 45q-40 44 -40 119v251q23 9 45 0v-244q0 -62 31 -97q31 -36 96 -36q45 0 87 27t66 54z" />
    <glyph glyph-name="Uhungarumlaut" unicode="&#x170;" horiz-adv-x="697" 
d="M233 729l116 132q8 -2 18 -10q11 -9 12 -16l-122 -126q-7 1 -15 8q-8 6 -9 12zM349 730l116 132q8 -2 18 -10q11 -9 12 -16l-122 -126q-7 1 -15 8q-8 6 -9 12zM558 241l-3 411q24 10 48 0v-406q0 -121 -69 -190t-187 -69t-188 68q-69 67 -69 191v406q24 10 48 0v-411
q0 -99 57 -156t153 -57t153 57t57 156z" />
    <glyph glyph-name="uhungarumlaut" unicode="&#x171;" horiz-adv-x="511" 
d="M139 479l116 132q8 -2 18 -10q11 -9 12 -16l-122 -126q-7 1 -15 8q-8 6 -9 12zM256 480l116 132q8 -2 18 -10q11 -9 12 -16l-122 -126q-7 1 -15 8q-7 6 -9 12zM392 106l-5 296q23 9 45 0v-400q-20 -8 -39 0l-3 66q-74 -81 -163 -81q-79 0 -120 45q-40 44 -40 119v251
q23 9 45 0v-244q0 -62 31 -97q31 -36 96 -36q45 0 87 27t66 54z" />
    <glyph glyph-name="Uogonek" unicode="&#x172;" horiz-adv-x="697" 
d="M560 239l-2 409q24 10 48 0v-406q0 -94 -42 -157t-117 -87q-34 -15 -55 -45t-21 -61q0 -32 21 -53t56 -21q20 0 29 4q9 -15 0 -32q-11 -4 -33 -4q-44 0 -73 28q-30 28 -30 72q0 62 59 103q-19 -4 -51 -4q-118 0 -188 68q-69 67 -69 191v406q24 10 48 0v-411
q0 -99 57 -156t153 -57t153 57t57 156z" />
    <glyph glyph-name="uogonek" unicode="&#x173;" horiz-adv-x="511" 
d="M462 -179l-5 -3q9 -15 0 -32q-11 -4 -33 -4q-44 0 -73 28q-30 28 -30 72q0 35 22 66q23 32 57 48l-7 2l-3 66q-74 -81 -163 -81q-79 0 -120 45q-40 44 -40 119v251q23 9 45 0v-244q0 -62 31 -97q31 -36 96 -36q45 0 87 27t66 54v296q22 9 45 0l-1 -400q-35 -15 -58 -45
q-22 -29 -22 -62q0 -32 21 -53t56 -21q20 0 29 4z" />
    <glyph glyph-name="Wcircumflex" unicode="&#x174;" horiz-adv-x="1002" 
d="M521 850l118 -121q-1 -7 -10 -16t-16 -10l-113 114l-112 -114q-7 1 -16 10q-10 10 -11 16l120 121q8 6 20 6q13 0 20 -6zM961 650l-224 -650q-21 -9 -42 0l-196 575l-197 -575q-21 -9 -42 0l-224 650q24 10 48 0l197 -580l197 580q20 9 41 0l197 -580l197 580q24 10 48 0
z" />
    <glyph glyph-name="wcircumflex" unicode="&#x175;" horiz-adv-x="690" 
d="M365 600l118 -121q-1 -7 -10 -16t-16 -10l-113 114l-112 -114q-8 1 -16 10q-10 10 -11 16l120 121q7 6 20 6t20 -6zM181 0l-145 400q23 11 47 0l119 -338l121 338q19 10 39 0l122 -338l117 338q24 9 47 0l-145 -400q-19 -10 -39 0l-122 340l-122 -340q-20 -10 -39 0z" />
    <glyph glyph-name="Ycircumflex" unicode="&#x176;" horiz-adv-x="626" 
d="M334 850l118 -121q-2 -7 -10 -16q-9 -9 -16 -10l-113 114l-112 -114q-8 1 -16 10q-10 10 -11 16l120 121q8 6 20 6t20 -6zM335 251v-251q-23 -10 -48 0v250l-251 400q8 4 26 4t26 -4l223 -354l223 354q25 10 52 0z" />
    <glyph glyph-name="ycircumflex" unicode="&#x177;" horiz-adv-x="494" 
d="M267 600l118 -121q-1 -7 -10 -16t-16 -10l-113 114l-112 -114q-7 1 -16 10q-10 10 -11 16l120 121q7 6 20 6t20 -6zM246 79l160 321q26 10 48 0l-283 -563q-23 -9 -47 0l99 195l-187 368q23 11 47 0z" />
    <glyph glyph-name="Ydieresis" unicode="&#x178;" horiz-adv-x="626" 
d="M196 821v-1q14 0 23 -9t9 -22q0 -15 -9 -24t-23 -9t-25 9q-10 9 -10 24q0 14 10 23t25 9zM432 820v-1q14 0 23 -9t9 -22q0 -15 -9 -24t-23 -9t-25 9q-10 9 -10 24q0 14 10 23q11 9 25 9zM337 249v-251q-23 -10 -48 0v250l-251 400q8 4 26 4t26 -4l223 -354l223 354
q25 10 52 0z" />
    <glyph glyph-name="Zacute" unicode="&#x179;" horiz-adv-x="547" 
d="M201 729l116 132q8 -2 18 -10q11 -9 12 -16l-122 -126q-7 1 -15 8q-8 6 -9 12zM116 42h379q8 -21 0 -41h-449v9l383 600h-371q-8 21 0 41h441v-9z" />
    <glyph glyph-name="zacute" unicode="&#x17a;" horiz-adv-x="419" 
d="M137 479l116 132q8 -2 18 -10q11 -9 12 -16l-122 -126q-7 1 -15 8q-8 6 -9 12zM110 40h262q8 -20 0 -39h-330v8l266 353h-253q-7 20 0 39h320v-8z" />
    <glyph glyph-name="Zdotaccent" unicode="&#x17b;" horiz-adv-x="547" 
d="M274 755v-1q-14 0 -25 9q-10 9 -10 24q0 14 10 23q11 9 25 9t23 -9t9 -22q0 -15 -9 -24t-23 -9zM117 40h379q8 -21 0 -41h-449v9l383 600h-371q-8 21 0 41h441v-9z" />
    <glyph glyph-name="zdotaccent" unicode="&#x17c;" horiz-adv-x="419" 
d="M211 505v-1q-15 0 -25 9t-10 24q0 14 10 23q11 9 25 9t23 -9t9 -22q0 -15 -9 -24t-23 -9zM111 38h262q7 -20 0 -39h-330v8l266 353h-253q-8 20 0 39h320v-8z" />
    <glyph glyph-name="Zcaron" unicode="&#x17d;" horiz-adv-x="547" 
d="M274 742l112 113q7 -1 16 -10q10 -10 11 -16l-120 -121q-19 -16 -39 0l-120 121q1 6 11 16q8 8 17 10zM116 41h379q8 -21 0 -41h-449v9l383 600h-371q-8 21 0 41h441v-9z" />
    <glyph glyph-name="zcaron" unicode="&#x17e;" horiz-adv-x="419" 
d="M210 492l112 113q7 -1 16 -10q10 -10 11 -16l-120 -121q-19 -16 -39 0l-120 121q1 6 11 16q8 8 17 10zM110 39h262q8 -19 0 -39h-330v8l266 353h-253q-7 19 0 39h320v-8z" />
    <glyph glyph-name="Acaron" unicode="&#x1cd;" horiz-adv-x="670" 
d="M335 742l112 113q7 -1 16 -10q10 -10 11 -16l-120 -121q-20 -16 -39 0l-120 121q1 6 11 16q8 8 17 10zM355 650l275 -650q-25 -10 -49 0l-85 200h-325l-85 -200q-25 -10 -49 0l275 650q22 9 43 0zM187 241h295l-148 349z" />
    <glyph glyph-name="acaron" unicode="&#x1ce;" horiz-adv-x="488" 
d="M243 492l112 113q7 -1 16 -10q10 -10 11 -16l-120 -121q-20 -16 -39 0l-120 121q1 6 11 16q8 8 17 10zM240 415l-5 -4q86 0 131 -46t45 -127v-241q-19 -7 -39 0l-2 52q-28 -25 -73 -46t-96 -21q-67 0 -109 36t-42 94t42 94t111 36q52 0 96 -19q46 -20 71 -42v62
q0 64 -34 99q-34 36 -102 36q-72 0 -141 -48q-4 4 -4 20t4 20q57 45 147 45zM206 209h1q-53 0 -84 -27t-31 -69t30 -69t84 -27q49 0 94 22q47 23 66 43v62q-19 20 -66 43q-45 22 -94 22z" />
    <glyph glyph-name="Icaron" unicode="&#x1cf;" horiz-adv-x="236" 
d="M118 742l110 113q9 -2 17 -10q10 -10 11 -16l-120 -121q-20 -16 -39 0l-120 121q1 6 11 16q8 8 17 10zM139 650v-650q-23 -11 -47 0v650q23 11 47 0z" />
    <glyph glyph-name="icaron" unicode="&#x1d0;" horiz-adv-x="197" 
d="M100 492l111 113q9 -2 17 -10q10 -10 11 -16l-120 -121q-19 -16 -39 0l-120 121q1 6 11 16q9 9 16 10zM120 400v-400q-22 -9 -45 0v400q23 9 45 0z" />
    <glyph glyph-name="Ocaron" unicode="&#x1d1;" horiz-adv-x="817" 
d="M408 742l112 113q8 -1 16 -10q10 -10 11 -16l-120 -121q-19 -16 -39 0l-120 121q1 6 11 16q8 8 17 10zM407 665v-2q148 0 244 -99t96 -241t-96 -241t-244 -99t-244 99t-96 242t96 242t244 99zM407 622l-3 -2q-126 0 -208 -85t-82 -213q0 -127 83 -213q82 -85 209 -85
t210 86t83 213q0 128 -82 213q-83 86 -210 86z" />
    <glyph glyph-name="ocaron" unicode="&#x1d2;" horiz-adv-x="542" 
d="M271 492l112 113q8 -1 16 -10q10 -10 11 -16l-120 -121q-20 -16 -39 0l-120 121q1 6 11 16q8 8 17 10zM270 415h-1q91 0 153 -62t62 -153q0 -92 -61 -153q-62 -62 -153 -62q-92 0 -154 62q-61 61 -61 153t61 153q62 62 154 62zM269 376h-1q-73 0 -121 -50t-48 -126
t48 -126t122 -50t122 50t48 126t-48 126t-122 50z" />
    <glyph glyph-name="Ucaron" unicode="&#x1d3;" horiz-adv-x="697" 
d="M349 742l112 113q7 -1 16 -10q10 -10 11 -16l-120 -121q-20 -16 -39 0l-120 121q1 6 11 16q8 8 17 10zM559 239l-3 411q24 10 48 0v-406q0 -121 -69 -190t-187 -69t-188 68q-69 67 -69 191v406q24 10 48 0v-411q0 -99 57 -156t153 -57t153 57t57 156z" />
    <glyph glyph-name="ucaron" unicode="&#x1d4;" horiz-adv-x="511" 
d="M256 492l112 113q8 -1 16 -10q10 -10 11 -16l-120 -121q-19 -16 -39 0l-120 121q1 6 11 16q8 8 17 10zM393 104l-5 296q22 9 45 0v-400q-19 -8 -39 0l-3 66q-73 -81 -163 -81q-80 0 -120 45q-40 44 -40 119v251q22 9 45 0v-244q0 -62 31 -97q32 -36 96 -36q45 0 87 27
t66 54z" />
    <glyph glyph-name="Udieresismacron" unicode="&#x1d5;" horiz-adv-x="697" 
d="M219 931h259q9 -18 0 -36h-259q-9 18 0 36zM232 821v-1q14 0 23 -9t9 -22q0 -15 -9 -24t-23 -9t-25 9q-10 9 -10 24q0 14 10 23q11 9 25 9zM468 820v-1q14 0 23 -9t9 -22q0 -15 -9 -24t-23 -9t-25 9q-10 9 -10 24q0 14 10 23q11 9 25 9zM560 237l-3 411q24 10 48 0v-406
q0 -121 -69 -190t-187 -69t-188 68q-69 67 -69 191v406q24 10 48 0v-411q0 -99 57 -156t153 -57t153 57t57 156z" />
    <glyph glyph-name="udieresismacron" unicode="&#x1d6;" horiz-adv-x="511" 
d="M126 681h259q9 -19 0 -36h-259q-9 17 0 36zM138 571v-1q14 0 23 -9t9 -22q0 -15 -9 -24t-23 -9t-25 9q-10 9 -10 24q0 14 10 23q11 9 25 9zM374 570v-1q14 0 23 -9t9 -22q0 -15 -9 -24t-23 -9t-25 9q-10 9 -10 24q0 14 10 23q11 9 25 9zM394 102l-5 296q23 9 45 0v-400
q-20 -8 -39 0l-3 66q-74 -81 -163 -81q-79 0 -120 45q-40 44 -40 119v251q23 9 45 0v-244q0 -62 31 -97q31 -36 96 -36q45 0 87 27t66 54z" />
    <glyph glyph-name="Udieresisacute" unicode="&#x1d7;" horiz-adv-x="697" 
d="M276 901l116 131q8 0 18 -9q11 -9 12 -16l-122 -126q-7 1 -15 8q-7 6 -9 12zM231 821v-1q14 0 23 -9t9 -22q0 -15 -9 -24t-23 -9q-15 0 -25 9t-10 24q0 14 10 23t25 9zM467 820v-1q14 0 23 -9t9 -22q0 -15 -9 -24t-23 -9q-15 0 -25 9t-10 24q0 14 10 23t25 9zM559 237
l-3 411q24 10 48 0v-406q0 -121 -69 -190t-187 -69t-188 68q-69 67 -69 191v406q24 10 48 0v-411q0 -99 57 -156t153 -57t153 57t57 156z" />
    <glyph glyph-name="udieresisacute" unicode="&#x1d8;" horiz-adv-x="511" 
d="M183 651l116 132q8 -2 18 -10q11 -9 12 -16l-122 -126q-7 1 -15 8q-8 6 -9 12zM137 572v-1q14 0 23 -9t9 -22q0 -15 -9 -24t-23 -9q-15 0 -25 9t-10 24q0 14 10 23t25 9zM373 571v-1q14 0 23 -9t9 -22q0 -15 -9 -24t-23 -9q-15 0 -25 9t-10 24q0 14 10 23t25 9zM393 103
l-5 296q22 9 45 0v-400q-19 -7 -39 0l-3 66q-73 -81 -163 -81q-80 0 -120 45q-40 44 -40 119v251q22 9 45 0v-244q0 -62 31 -97q32 -36 96 -36q45 0 87 27t66 54z" />
    <glyph glyph-name="Udieresiscaron" unicode="&#x1d9;" horiz-adv-x="697" 
d="M349 914l112 113q8 -1 16 -10q10 -10 11 -16l-120 -121q-20 -16 -39 0l-120 121q1 6 11 16q8 8 17 10zM231 821v-1q14 0 23 -9t9 -22q0 -15 -9 -24t-23 -9q-15 0 -25 9t-10 24q0 14 10 23t25 9zM467 820v-1q14 0 23 -9t9 -22q0 -15 -9 -24t-23 -9q-15 0 -25 9t-10 24
q0 14 10 23t25 9zM559 237l-3 411q24 10 48 0v-406q0 -121 -69 -190t-187 -69t-188 68q-69 67 -69 191v406q24 10 48 0v-411q0 -99 57 -156t153 -57t153 57t57 156z" />
    <glyph glyph-name="udieresiscaron" unicode="&#x1da;" horiz-adv-x="511" 
d="M256 664l112 113q8 -1 16 -10q10 -10 11 -16l-120 -121q-19 -16 -39 0l-120 121q1 6 11 16q8 8 17 10zM137 571v-1q14 0 23 -9t9 -22q0 -15 -9 -24t-23 -9q-15 0 -25 9t-10 24q0 14 10 23t25 9zM373 570v-1q14 0 23 -9t9 -22q0 -15 -9 -24t-23 -9q-15 0 -25 9t-10 24
q0 14 10 23t25 9zM393 102l-5 296q22 9 45 0v-400q-19 -8 -39 0l-3 66q-73 -81 -163 -81q-80 0 -120 45q-40 44 -40 119v251q22 9 45 0v-244q0 -62 31 -97q32 -36 96 -36q45 0 87 27t66 54z" />
    <glyph glyph-name="Udieresisgrave" unicode="&#x1db;" horiz-adv-x="697" 
d="M306 1032l117 -132q-1 -6 -9 -12q-7 -5 -15 -7l-123 126q1 7 12 16q10 9 18 9zM233 820v-1q14 0 23 -9t9 -22q0 -15 -9 -24t-23 -9q-15 0 -25 9t-10 24q0 14 10 23t25 9zM469 819v-1q14 0 23 -9t9 -22q0 -15 -9 -24t-23 -9q-15 0 -25 9t-10 24q0 14 10 23t25 9zM561 236
l-3 411q24 11 48 0v-406q0 -121 -69 -190t-187 -69t-188 68q-69 68 -69 191v406q24 11 48 0v-411q0 -99 57 -156t153 -57t153 57t57 156z" />
    <glyph glyph-name="udieresisgrave" unicode="&#x1dc;" horiz-adv-x="511" 
d="M213 782l117 -132q-2 -6 -9 -12q-7 -5 -15 -7l-123 126q1 7 12 16t18 9zM139 570v-1q14 0 23 -9t9 -22q0 -15 -9 -24t-23 -9q-15 0 -25 9t-10 24q0 14 10 23q11 9 25 9zM375 569v-1q14 0 23 -9t9 -22q0 -15 -9 -24t-23 -9q-15 0 -25 9t-10 24q0 14 10 23t25 9zM395 101
l-5 296q22 9 45 0v-400q-19 -7 -39 0l-3 66q-73 -81 -163 -81q-80 0 -120 45q-40 44 -40 119v251q22 9 45 0v-244q0 -62 31 -97q32 -36 96 -36q45 0 87 27t66 54z" />
    <glyph glyph-name="Scommaaccent" unicode="&#x218;" horiz-adv-x="569" 
d="M277 665l-5 -5q115 0 189 -64q4 -5 4 -25t-4 -24q-78 72 -188 72q-73 0 -117 -36q-43 -36 -43 -89q0 -56 39 -83q40 -28 147 -62q41 -13 62 -21q28 -10 53 -25q29 -17 45 -34t28 -45q12 -27 12 -62q0 -80 -61 -129t-156 -49q-116 0 -201 66q-4 4 -4 24t4 24
q89 -74 201 -74q75 0 122 38t47 96q0 64 -42 94q-40 29 -143 61q-51 16 -79 28q-32 14 -60 34q-31 22 -44 51q-14 31 -14 69q0 70 56 120t152 50zM279 -64h-3q14 0 24 -10t12 -30q5 -33 -9 -83q-13 -49 -30 -66q-13 -7 -30 0q16 19 30 59q14 39 12 65q-3 -1 -9 -1
q-14 0 -23 9t-9 23t9 24t26 10z" />
    <glyph glyph-name="scommaaccent" unicode="&#x219;" horiz-adv-x="404" 
d="M214 221l-3 2q75 -24 108 -49q34 -25 34 -72q0 -55 -45 -85t-107 -30q-41 0 -81 12q-39 11 -64 32q-4 4 -4 20q0 15 4 19q68 -50 143 -50q44 0 77 18t33 57q0 23 -16 39q-17 16 -36 24t-66 24q-75 25 -111 50q-34 24 -34 70q0 52 44 82t105 30q41 0 81 -12q41 -12 64 -31
q4 -4 4 -20q0 -15 -4 -19q-68 50 -140 50q-44 0 -76 -19q-33 -19 -33 -55q0 -16 8 -29t27 -23q22 -12 36 -17q22 -8 52 -18zM190 -57h-5q16 0 26 -10q11 -11 12 -30q5 -33 -9 -83t-30 -66q-14 -8 -30 0q16 19 30 59q14 39 12 65q-3 -1 -9 -1q-14 0 -23 9t-9 23q0 13 9 24
q9 10 26 10z" />
    <glyph glyph-name="uni021A" unicode="&#x21a;" horiz-adv-x="585" 
d="M42 650h501q8 -20 0 -41h-227v-609q-22 -10 -48 0v609h-226q-8 21 0 41zM293 -59h-5q16 0 26 -10q10 -11 12 -30q5 -33 -9 -83q-13 -50 -30 -66q-13 -8 -30 0q16 19 30 59q14 39 12 65q-3 -1 -9 -1q-14 0 -23 9t-9 23q0 13 9 24q9 10 26 10z" />
    <glyph glyph-name="uni021B" unicode="&#x21b;" horiz-adv-x="357" 
d="M304 65l-1 -2q4 -4 4 -20q0 -15 -3 -21q-49 -38 -102 -38q-42 0 -68 26t-26 75v277h-66q-9 18 0 38h66v130q22 9 45 0v-130h141q9 -20 0 -38h-141v-273q0 -66 56 -66q38 0 95 42zM198 -61h-5q16 0 26 -10q11 -11 12 -30q5 -33 -9 -83t-30 -66q-14 -8 -30 0q16 19 30 59
q14 39 12 65q-3 -1 -9 -1q-14 0 -23 9t-9 23q0 13 9 24q9 10 26 10z" />
    <glyph glyph-name="circumflex" unicode="&#x2c6;" horiz-adv-x="372" 
d="M206 850l118 -121q-2 -7 -10 -16t-16 -10l-113 114l-112 -114q-7 1 -16 10q-10 10 -11 16l120 121q7 6 20 6q12 0 20 -6z" />
    <glyph glyph-name="caron" unicode="&#x2c7;" horiz-adv-x="372" 
d="M186 742l112 113q8 -1 16 -10q10 -10 11 -16l-120 -121q-19 -16 -39 0l-120 121q1 6 11 16q8 8 17 10z" />
    <glyph glyph-name="breve" unicode="&#x2d8;" horiz-adv-x="394" 
d="M343 830h-1q4 -4 4 -20t-4 -21q-55 -46 -147 -46q-89 0 -147 46q-3 6 -3 21q0 16 4 20q69 -48 147 -48t147 48z" />
    <glyph glyph-name="dotaccent" unicode="&#x2d9;" horiz-adv-x="160" 
d="M81 755v-1q-15 0 -25 9t-10 24q0 14 10 23t25 9q14 0 23 -9t9 -22q0 -15 -9 -24t-23 -9z" />
    <glyph glyph-name="ring" unicode="&#x2da;" horiz-adv-x="251" 
d="M126 868v-2q33 0 56 -23t23 -53q0 -34 -23 -57q-22 -22 -56 -22t-57 23t-23 57q0 31 23 54t57 23zM126 836l-2 -1q-22 0 -36 -14q-13 -13 -13 -32q0 -20 13 -34q14 -15 36 -15t35 15q14 16 14 35t-13 32q-14 14 -34 14z" />
    <glyph glyph-name="ogonek" unicode="&#x2db;" horiz-adv-x="232" 
d="M130 0l27 -4q-37 -15 -60 -45q-22 -29 -22 -62q0 -32 21 -53t56 -21q20 0 29 4q9 -15 0 -32q-11 -4 -33 -4q-44 0 -73 28q-30 29 -30 72q0 37 24 69t61 48z" />
    <glyph glyph-name="tilde" unicode="&#x2dc;" horiz-adv-x="398" 
d="M136 813l-1 -2q28 0 75 -22q27 -12 52 -12q28 0 87 30q9 -17 0 -36q-6 -3 -13 -7q-8 -5 -15 -7q-3 -1 -13 -6q-9 -5 -15 -6t-15 -3q-6 -1 -16 -1q-28 0 -75 22q-27 12 -52 12q-29 0 -87 -30q-9 19 0 36q6 3 13 7q13 7 15 8q3 1 13 6q9 4 15 6t15 3q12 2 17 2z" />
    <glyph glyph-name="hungarumlaut" unicode="&#x2dd;" horiz-adv-x="356" 
d="M46 729l116 132q8 -2 18 -10q11 -9 12 -16l-122 -126q-7 1 -15 8q-7 6 -9 12zM163 730l116 132q8 -2 18 -10q11 -9 12 -16l-122 -126q-7 1 -15 8q-8 6 -9 12z" />
    <glyph glyph-name="uni0326" unicode="&#x326;" horiz-adv-x="0" 
d="M83 -59h-5q16 0 26 -10q10 -11 12 -30q5 -33 -9 -83q-13 -50 -30 -66q-13 -8 -30 0q16 19 30 59q14 39 12 65q-3 -1 -9 -1q-14 0 -23 9t-9 23q0 13 9 24q9 10 26 10z" />
    <glyph glyph-name="uni0401" unicode="&#x401;" horiz-adv-x="577" 
d="M191 821v-1q14 0 23 -9t9 -22q0 -15 -9 -24t-23 -9q-15 0 -25 9t-10 24q0 14 10 23t25 9zM423 820v-1q14 0 23 -9t9 -22q0 -15 -9 -24t-23 -9q-15 0 -25 9t-10 24q0 14 10 23t25 9zM94 648h432q8 -20 0 -41h-385v-255h356q8 -20 0 -41h-356v-272h385q8 -21 0 -41h-432
v650z" />
    <glyph glyph-name="uni0410" unicode="&#x410;" horiz-adv-x="670" 
d="M356 650l275 -650q-25 -10 -49 0l-85 200h-325l-85 -200q-25 -10 -49 0l275 650q22 9 43 0zM188 241h295l-148 349z" />
    <glyph glyph-name="uni0411" unicode="&#x411;" horiz-adv-x="619" 
d="M141 394h181q115 0 174 -58q60 -58 60 -139t-60 -139q-59 -58 -174 -58h-228v650h400q8 -20 0 -41h-353v-215zM142 41l181 1q91 0 138 45q46 45 46 110t-46 111t-138 46h-181v-313z" />
    <glyph glyph-name="uni0412" unicode="&#x412;" horiz-adv-x="611" 
d="M94 650h247q85 0 141 -45t56 -119q0 -53 -27 -92q-28 -40 -76 -56q63 -16 96 -59q33 -42 33 -101q0 -80 -58 -129t-162 -49h-250v650zM141 609l1 -256h210q64 0 102 35t38 93q0 59 -43 93q-44 35 -111 35h-197zM142 317v-278h200q83 0 128 39t45 102q0 62 -40 99
q-41 38 -123 38h-210z" />
    <glyph glyph-name="uni0413" unicode="&#x413;" horiz-adv-x="554" 
d="M94 650h418q8 -20 0 -41h-371v-609q-23 -11 -47 0v650z" />
    <glyph glyph-name="uni0414" unicode="&#x414;" horiz-adv-x="753" 
d="M714 41v-157q-22 -10 -48 0v117h-581v-117q-23 -11 -47 0v158h64q75 50 90 192l42 416h399v-609h81zM587 610h-309l-38 -375q-6 -61 -27 -114q-21 -52 -52 -79h426v568z" />
    <glyph glyph-name="uni0415" unicode="&#x415;" horiz-adv-x="577" 
d="M141 41h385q8 -21 0 -41h-432v650h432q8 -20 0 -41h-385v-255h356q8 -20 0 -41h-356v-272z" />
    <glyph glyph-name="uni0416" unicode="&#x416;" horiz-adv-x="853" 
d="M495 335l316 -335q-8 -4 -28 -4t-28 4l-307 321v-321q-22 -10 -48 0v322l-306 -320q-9 -4 -30 -4q-20 0 -28 4l319 334l-299 316q9 3 29 3q19 0 30 -3l286 -302v302q25 8 48 0v-303l287 301q8 4 29 4t29 -4z" />
    <glyph glyph-name="uni0417" unicode="&#x417;" horiz-adv-x="589" 
d="M410 338l-3 -1q64 -16 99 -62q34 -44 34 -103q0 -84 -63 -135t-165 -51q-132 0 -221 63q-3 6 -3 24q0 19 4 23q94 -71 220 -71q79 0 131 41q51 41 51 110q0 58 -42 99q-41 40 -123 40h-116q-7 19 0 39h116q63 0 102 39t39 96t-42 96t-118 39q-116 0 -207 -70q-4 4 -4 23
q0 18 3 24q88 64 210 64q95 0 150 -50q54 -49 54 -122q0 -53 -28 -94t-78 -61z" />
    <glyph glyph-name="uni0418" unicode="&#x418;" horiz-adv-x="713" 
d="M624 650l1 -650q-24 -11 -47 0v572l-446 -572q-21 -8 -41 0v650q24 11 47 0v-572l447 572q19 8 39 0z" />
    <glyph glyph-name="uni0419" unicode="&#x419;" horiz-adv-x="713" 
d="M500 830h-1q4 -4 4 -20t-4 -21q-55 -46 -147 -46q-89 0 -147 46q-3 6 -3 21q0 16 4 20q69 -48 147 -48t147 48zM623 650l1 -650q-24 -11 -47 0v572l-446 -572q-21 -8 -41 0v650q24 11 47 0v-572l447 572q20 8 39 0z" />
    <glyph glyph-name="uni041A" unicode="&#x41a;" horiz-adv-x="609" 
d="M191 335l378 -335q-8 -4 -30 -4t-30 4l-368 323v-323q-23 -11 -47 0v650q23 11 47 0v-304l347 304q9 4 32 4q22 0 30 -4z" />
    <glyph glyph-name="uni041B" unicode="&#x41b;" horiz-adv-x="726" 
d="M636 650l-1 -651q-25 -11 -48 0v609h-309l-44 -429q-11 -101 -49 -147q-39 -47 -113 -47q-15 0 -30 3q-9 20 0 41q18 -2 21 -2q56 0 86 36t39 120l48 467h400z" />
    <glyph glyph-name="uni041C" unicode="&#x41c;" horiz-adv-x="875" 
d="M686 650l150 -650q-23 -9 -47 0l-129 567l-202 -567q-21 -8 -42 0l-202 567l-129 -567q-24 -9 -47 0l150 650q21 9 42 0l207 -578l207 578q21 9 42 0z" />
    <glyph glyph-name="uni041D" unicode="&#x41d;" horiz-adv-x="723" 
d="M581 354v296q23 11 47 0v-650q-24 -11 -47 0v313h-440v-313q-23 -11 -47 0v650q23 11 47 0v-296h440z" />
    <glyph glyph-name="uni041E" unicode="&#x41e;" horiz-adv-x="817" 
d="M408 665v-2q148 0 244 -99t96 -241t-96 -241t-244 -99t-244 99t-96 242t96 242t244 99zM408 622l-3 -2q-126 0 -208 -85t-82 -213q0 -127 83 -213q82 -85 209 -85t210 86t83 213q0 128 -82 213q-83 86 -210 86z" />
    <glyph glyph-name="uni041F" unicode="&#x41f;" horiz-adv-x="723" 
d="M628 650v-650q-24 -11 -47 0v609h-440v-609q-23 -11 -47 0v650h534z" />
    <glyph glyph-name="uni0420" unicode="&#x420;" horiz-adv-x="624" 
d="M94 650h224q116 0 177 -60t61 -148q0 -87 -61 -147t-177 -60h-177v-235q-23 -11 -47 0v650zM142 275l177 -1q93 0 141 48t48 119q0 72 -48 120t-141 48h-177v-334z" />
    <glyph glyph-name="uni0421" unicode="&#x421;" horiz-adv-x="727" 
d="M414 26l-1 -4q128 0 219 70q4 -4 4 -23t-4 -23q-88 -64 -220 -64q-151 0 -247 99t-96 242t96 242t248 99q132 0 220 -64q4 -4 4 -23t-4 -23q-91 70 -219 70q-129 0 -213 -86t-84 -213t84 -213t213 -86z" />
    <glyph glyph-name="uni0422" unicode="&#x422;" horiz-adv-x="585" 
d="M42 650h501q8 -20 0 -41h-227v-609q-22 -10 -48 0v609h-226q-8 21 0 41z" />
    <glyph glyph-name="uni0423" unicode="&#x423;" horiz-adv-x="626" 
d="M313 296l223 354q25 10 52 0l-409 -650q-8 -4 -26 -4t-26 4l160 254l-249 396q8 4 26 4t26 -4z" />
    <glyph glyph-name="uni0424" unicode="&#x424;" horiz-adv-x="909" 
d="M478 582l56 -1q79 0 142 -23t95 -61q34 -40 50 -82t16 -90t-16 -90q-17 -44 -49 -82q-34 -40 -94 -62q-63 -23 -142 -23h-60v-71q-24 -11 -47 0v71h-60q-79 0 -142 23q-60 22 -94 62q-32 38 -49 82q-16 42 -16 90t16 90t50 82q33 39 95 62q63 23 142 23h60v68q24 11 47 0
v-68zM427 541h-62q-71 0 -121 -19q-52 -20 -78 -52t-40 -69q-13 -35 -13 -75t13 -75t41 -69q26 -32 78 -52q50 -19 122 -19h60v430zM472 111l58 -3q67 0 121 20t80 52q28 34 41 69t13 75t-13 75q-14 37 -40 69q-28 34 -79 53q-54 20 -121 20h-60v-430z" />
    <glyph glyph-name="uni0425" unicode="&#x425;" horiz-adv-x="603" 
d="M334 335l231 -335q-9 -4 -28 -4t-28 4l-209 302l-207 -302q-8 -4 -27 -4t-27 4l231 335l-219 315q8 4 27 4t27 -4l197 -282l195 282q9 4 28 4t27 -4z" />
    <glyph glyph-name="uni0426" unicode="&#x426;" horiz-adv-x="735" 
d="M696 41v-158q-23 -11 -47 0v117h-555v650q23 11 47 0v-609h427v609q26 10 48 0v-609h80z" />
    <glyph glyph-name="uni0427" unicode="&#x427;" horiz-adv-x="636" 
d="M495 361v290q23 11 47 0v-650q-24 -11 -47 0v317q-28 -28 -85 -55t-122 -27q-105 0 -159 57t-54 150v207q24 11 47 0v-202q0 -79 43 -125q44 -47 135 -47q61 0 117 29q55 28 78 56z" />
    <glyph glyph-name="uni0428" unicode="&#x428;" horiz-adv-x="987" 
d="M845 41v609q23 10 48 0v-650h-799v650q23 11 47 0v-609h329v609q24 11 47 0v-609h328z" />
    <glyph glyph-name="uni0429" unicode="&#x429;" horiz-adv-x="1012" 
d="M973 41v-158q-23 -11 -47 0v117h-832v650q23 11 47 0v-609h329v609q24 11 47 0v-609h328v609q23 10 48 0v-609h80z" />
    <glyph glyph-name="uni042A" unicode="&#x42a;" horiz-adv-x="699" 
d="M216 410h177q113 0 175 -60q61 -60 61 -145t-61 -145q-62 -60 -175 -60h-224v609h-127q-8 21 0 41h174v-240zM216 41l177 -1q92 0 141 47q48 47 48 117t-48 118t-141 48h-177v-329z" />
    <glyph glyph-name="uni042B" unicode="&#x42b;" horiz-adv-x="790" 
d="M141 410h177q116 0 177 -60t61 -145t-61 -145t-177 -60h-224v650q23 11 47 0v-240zM649 0v650q24 11 47 0v-650q-23 -11 -47 0zM142 41l177 -1q92 0 141 47q48 47 48 117t-48 118t-141 48h-177v-329z" />
    <glyph glyph-name="uni042C" unicode="&#x42c;" horiz-adv-x="624" 
d="M141 410h177q116 0 177 -60t61 -145t-61 -145t-177 -60h-224v650q23 11 47 0v-240zM142 41l177 -1q92 0 141 47q48 47 48 117t-48 118t-141 48h-177v-329z" />
    <glyph glyph-name="uni042D" unicode="&#x42d;" horiz-adv-x="727" 
d="M314 665l-1 -1q152 0 248 -99t96 -241t-96 -241t-248 -99q-134 0 -222 64q-3 6 -3 24q0 19 4 23q91 -70 219 -70q127 0 209 81q83 81 87 202h-335q-9 21 0 41h335q-8 119 -90 197t-205 78q-128 0 -219 -70q-4 4 -4 23q0 18 3 24q88 64 222 64z" />
    <glyph glyph-name="uni042E" unicode="&#x42e;" horiz-adv-x="1020" 
d="M611 665h-2q148 0 244 -99t96 -241t-96 -241t-244 -99q-143 0 -237 93t-99 230h-132v-308q-23 -11 -47 0v650q23 11 47 0v-301h132q7 133 102 225q94 91 236 91zM609 26l-3 -2q127 0 210 86t83 213q0 128 -82 213q-83 86 -210 86q-126 0 -208 -85t-82 -213
q0 -127 83 -213q82 -85 209 -85z" />
    <glyph glyph-name="uni042F" unicode="&#x42f;" horiz-adv-x="624" 
d="M530 650v-650q-26 -10 -48 0v244l-194 1l-188 -245q-8 -4 -27 -4t-27 4l192 251q-87 13 -133 68q-45 54 -45 128q0 87 60 145q59 58 175 58h235zM482 609l-186 2q-95 0 -141 -46q-47 -47 -47 -117t47 -117q46 -46 141 -46h186v324z" />
    <glyph glyph-name="uni0430" unicode="&#x430;" horiz-adv-x="488" 
d="M241 415l-5 -4q86 0 131 -46t45 -127v-241q-20 -7 -39 0l-2 52q-28 -25 -73 -46t-96 -21q-67 0 -109 36t-42 94t42 94t111 36q52 0 96 -19q46 -20 71 -42v62q0 64 -34 99q-35 36 -102 36q-72 0 -141 -48q-4 4 -4 20t4 20q57 45 147 45zM207 209h1q-52 0 -84 -27
q-31 -27 -31 -69t30 -69t84 -27q49 0 94 22q47 23 66 43v62q-19 20 -66 43q-45 22 -94 22z" />
    <glyph glyph-name="uni0431" unicode="&#x431;" horiz-adv-x="515" 
d="M264 413l2 -5q92 0 144 -60q53 -61 53 -152q0 -94 -59 -155q-58 -60 -146 -60q-87 0 -144 59t-57 164v78q0 144 54 212q54 67 179 90q56 11 80 21q25 11 53 42q4 -4 4 -23t-4 -24q-23 -26 -49 -36q-27 -11 -88 -21q-89 -16 -133 -63t-51 -139q68 72 162 72zM259 19h4
q67 0 113 48q47 49 47 126q0 79 -43 126q-44 48 -117 48q-49 0 -93 -24q-43 -24 -66 -50v-98q0 -85 44 -131q44 -45 111 -45z" />
    <glyph glyph-name="uni0432" unicode="&#x432;" horiz-adv-x="473" 
d="M75 400l192 1q131 0 131 -100q0 -66 -58 -87q75 -26 75 -102q0 -58 -39 -85t-102 -27h-199v400zM119 367v-140h148q87 0 87 70t-89 70h-146zM119 197v-162h151q101 0 101 81t-101 81h-151z" />
    <glyph glyph-name="uni0433" unicode="&#x433;" horiz-adv-x="427" 
d="M75 400h311q8 -20 0 -39h-266v-361q-22 -9 -45 0v400z" />
    <glyph glyph-name="uni0434" unicode="&#x434;" horiz-adv-x="616" 
d="M578 38l1 -144q-23 -8 -44 0v107h-452v-107q-23 -8 -45 0v145h66q51 41 63 150l22 211h300v-362h89zM445 363h-215l-18 -173q-10 -111 -56 -151h289v324z" />
    <glyph glyph-name="uni0435" unicode="&#x435;" horiz-adv-x="516" 
d="M268 415v-2q96 0 150 -66q54 -67 41 -153h-358q1 -80 51 -126q50 -47 129 -47q76 0 143 49q4 -4 4 -20t-4 -20q-55 -46 -147 -46q-99 0 -160 60t-61 156q0 92 59 154q58 61 153 61zM268 377l3 -1q-70 0 -115 -42t-51 -111h316q2 66 -42 110t-111 44z" />
    <glyph glyph-name="uni0436" unicode="&#x436;" horiz-adv-x="633" 
d="M378 206l216 -206q-8 -4 -27 -4t-28 4l-200 191v-191q-23 -9 -45 0v191l-201 -191q-8 -4 -27 -4t-27 4l217 206l-208 194q8 4 27 4t27 -4l192 -179v179q22 9 45 0v-179l191 179q9 4 29 4q19 0 27 -4z" />
    <glyph glyph-name="uni0437" unicode="&#x437;" horiz-adv-x="413" 
d="M196 415l-2 -2q62 0 106 -31q45 -32 45 -81q0 -66 -57 -90q34 -12 54 -39q20 -28 20 -66q0 -58 -48 -90q-49 -32 -117 -32q-90 0 -148 46q-3 6 -3 20t4 18q69 -48 143 -48q53 0 90 23q36 23 36 66q0 44 -28 65q-29 21 -72 21h-96q-7 15 0 30h92q87 0 87 73q0 36 -33 58
q-32 22 -78 22q-67 0 -136 -48q-4 4 -4 19q0 16 4 20q58 46 141 46z" />
    <glyph glyph-name="uni0438" unicode="&#x438;" horiz-adv-x="533" 
d="M119 62l302 338q19 7 37 0v-400q-22 -9 -45 0v338l-302 -338q-18 -7 -37 0v400q22 9 45 0v-338z" />
    <glyph glyph-name="uni0439" unicode="&#x439;" horiz-adv-x="533" 
d="M266 493h-1q-89 0 -147 46q-3 6 -3 21q0 16 4 20q69 -48 147 -48t147 48q4 -4 4 -20t-4 -21q-55 -46 -147 -46zM118 62l302 338q19 7 37 0v-400q-23 -9 -45 0v338l-302 -338q-18 -7 -37 0v400q23 9 45 0v-338z" />
    <glyph glyph-name="uni043A" unicode="&#x43a;" horiz-adv-x="452" 
d="M162 206l252 -206q-8 -4 -29 -4t-30 4l-236 192v-192q-23 -9 -45 0v400q22 9 45 0v-181l228 181q8 4 29 4t29 -4z" />
    <glyph glyph-name="uni043B" unicode="&#x43b;" horiz-adv-x="553" 
d="M478 400l-1 -400q-23 -9 -45 0v362h-223l-25 -245q-14 -132 -120 -132q-2 0 -24 2q-3 6 -3 20t4 18q2 0 5 -0.5t5 -1t3.5 -0.5h2.5q75 0 84 95l29 282h308z" />
    <glyph glyph-name="uni043C" unicode="&#x43c;" horiz-adv-x="689" 
d="M532 400l120 -400q-21 -9 -44 0l-99 335l-144 -335q-19 -8 -39 0l-145 335l-99 -335q-22 -9 -45 0l120 400q19 8 39 0l149 -344l148 344q19 8 39 0z" />
    <glyph glyph-name="uni043D" unicode="&#x43d;" horiz-adv-x="534" 
d="M414 224v176q22 9 45 0v-400q-23 -9 -45 0v185h-295v-185q-23 -9 -45 0v400q22 9 45 0v-176h295z" />
    <glyph glyph-name="uni043E" unicode="&#x43e;" horiz-adv-x="542" 
d="M271 415h-1q91 0 153 -62t62 -153q0 -92 -61 -153q-62 -62 -153 -62q-92 0 -154 62q-61 61 -61 153t61 153q62 62 154 62zM270 376h-1q-73 0 -121 -50t-48 -126t48 -126t122 -50t122 50t48 126t-48 126t-122 50z" />
    <glyph glyph-name="uni043F" unicode="&#x43f;" horiz-adv-x="533" 
d="M458 400l1 -400q-23 -9 -45 0v362h-294v-362q-22 -9 -45 0v400h383z" />
    <glyph glyph-name="uni0440" unicode="&#x440;" horiz-adv-x="539" 
d="M280 415q92 0 147 -61q56 -62 56 -154q0 -93 -55 -154t-147 -61q-94 0 -159 71v-219q-22 -9 -45 0v563q20 8 41 0l2 -58q64 73 160 73zM273 24q75 0 120 50t45 126t-45 126t-120 50q-49 0 -90 -24q-41 -25 -63 -49v-206q22 -24 63 -49q41 -24 90 -24z" />
    <glyph glyph-name="uni0441" unicode="&#x441;" horiz-adv-x="501" 
d="M283 23v-2q74 0 141 49q4 -4 4 -21t-4 -21q-58 -46 -145 -46q-100 0 -162 61q-63 62 -63 154q0 93 63 154q62 61 162 61q87 0 145 -46q4 -4 4 -20t-4 -20q-67 49 -141 49q-79 0 -131 -50q-51 -49 -51 -126t51 -126q52 -50 131 -50z" />
    <glyph glyph-name="uni0442" unicode="&#x442;" horiz-adv-x="463" 
d="M42 400h379q7 -20 0 -39h-167v-361q-22 -9 -45 0v361h-167q-8 19 0 39z" />
    <glyph glyph-name="uni0443" unicode="&#x443;" horiz-adv-x="494" 
d="M248 79l160 321q26 10 48 0l-283 -563q-23 -9 -47 0l99 195l-187 368q23 11 47 0z" />
    <glyph glyph-name="uni0444" unicode="&#x444;" horiz-adv-x="674" 
d="M360 415h44q92 0 154 -62q61 -61 61 -153t-61 -153q-62 -62 -154 -62h-44v-148q-22 -9 -45 0v148h-43q-94 0 -156 62q-61 61 -61 153t61 153q62 62 156 62h43v235q23 9 45 0v-235zM316 377l-44 2q-74 0 -122 -51t-48 -127t48 -127t122 -51h44v354zM360 379v-356h44
q74 0 122 51t48 127t-48 127t-122 51h-44z" />
    <glyph glyph-name="uni0445" unicode="&#x445;" horiz-adv-x="475" 
d="M268 206l169 -206q-8 -4 -26 -4t-26 4l-148 177l-147 -177q-8 -4 -26 -4t-26 4l169 206l-160 194q8 4 26 4t26 -4l140 -167l138 167q25 10 52 0z" />
    <glyph glyph-name="uni0446" unicode="&#x446;" horiz-adv-x="571" 
d="M532 38l-1 -151q-22 -9 -43 0v113h-414v400q22 9 45 0v-362h280v362q23 9 45 0v-362h88z" />
    <glyph glyph-name="uni0447" unicode="&#x447;" horiz-adv-x="492" 
d="M372 213l-3 187q23 9 45 0v-400q-22 -9 -45 0v173q-71 -66 -162 -66q-77 0 -116 41q-39 40 -39 111v141q22 9 45 0v-135q0 -119 121 -119q87 0 154 67z" />
    <glyph glyph-name="uni0448" unicode="&#x448;" horiz-adv-x="761" 
d="M641 38l-1 362q22 9 45 0v-400h-611v400q22 9 45 0v-362h239v362q22 9 45 0v-362h238z" />
    <glyph glyph-name="uni0449" unicode="&#x449;" horiz-adv-x="813" 
d="M774 38l-1 -145q-22 -7 -43 0v107h-656v400q22 9 45 0v-362h239v362q22 9 45 0v-362h238v362q23 9 45 0v-362h88z" />
    <glyph glyph-name="uni044A" unicode="&#x44a;" horiz-adv-x="510" 
d="M175 262l141 -1q64 0 108 -32t44 -99q0 -68 -42 -99q-43 -32 -106 -32h-189v362h-89q-8 19 0 39h133v-138zM174 34l137 -2q47 0 79 22q33 22 33 75t-33 75q-32 22 -79 22h-137v-192z" />
    <glyph glyph-name="uni044B" unicode="&#x44b;" horiz-adv-x="604" 
d="M119 262h141q63 0 107 -32t44 -99t-42 -99q-43 -32 -105 -32h-190v400q22 9 45 0v-138zM482 0v400q22 9 45 0v-400q-23 -9 -45 0zM118 35l137 -2q47 0 79 22q33 23 33 75t-33 75q-32 22 -79 22h-137v-192z" />
    <glyph glyph-name="uni044C" unicode="&#x44c;" horiz-adv-x="454" 
d="M119 262h141q63 0 107 -32t44 -99t-42 -99q-43 -32 -105 -32h-190v400q22 9 45 0v-138zM118 35l137 -2q47 0 79 22q33 23 33 75t-33 75q-32 22 -79 22h-137v-192z" />
    <glyph glyph-name="uni044D" unicode="&#x44d;" horiz-adv-x="501" 
d="M222 415l-1 -4q100 0 161 -61q62 -62 62 -154t-62 -154q-61 -61 -161 -61q-89 0 -147 46q-3 6 -3 21q0 16 4 20q69 -48 143 -48q79 0 128 46q50 47 53 118h-210q-6 16 0 33h210q-5 69 -54 114t-126 45q-74 0 -143 -48q-4 4 -4 20q0 15 3 21q58 46 147 46z" />
    <glyph glyph-name="uni044E" unicode="&#x44e;" horiz-adv-x="700" 
d="M429 415v-1q92 0 154 -62q61 -61 61 -153t-61 -153q-62 -62 -154 -62q-88 0 -148 57t-66 142h-97v-183q-22 -9 -45 0v400q23 9 45 0v-178h97q7 82 68 138q59 55 146 55zM429 23h-1q74 0 122 50q48 49 48 126t-48 126q-48 50 -122 50q-73 0 -121 -50q-48 -49 -48 -126
t48 -126q48 -50 122 -50z" />
    <glyph glyph-name="uni044F" unicode="&#x44f;" horiz-adv-x="474" 
d="M399 400v-399q-23 -9 -45 0v162h-141l-125 -162q-26 -11 -51 0l128 167q-103 18 -103 113q0 61 39 90q40 29 101 29h197zM354 366h-144q-103 0 -103 -85q0 -84 103 -84h144v169z" />
    <glyph glyph-name="uni0451" unicode="&#x451;" horiz-adv-x="519" 
d="M144 571v-1q14 0 23 -9t9 -22q0 -15 -9 -24t-23 -9t-25 9q-10 9 -10 24q0 14 10 23q11 9 25 9zM380 570v-1q14 0 23 -9t9 -22q0 -15 -9 -24t-23 -9t-25 9q-10 9 -10 24q0 14 10 23q11 9 25 9zM268 413v-2q96 0 150 -66q54 -67 41 -153h-358q1 -80 51 -126q50 -47 129 -47
q76 0 143 49q4 -4 4 -20t-4 -20q-55 -46 -147 -46q-99 0 -160 60t-61 156q0 92 59 154q58 61 153 61zM268 375l3 -1q-70 0 -115 -42t-51 -111h316q2 66 -42 110t-111 44z" />
    <glyph glyph-name="Wgrave" unicode="&#x1e80;" horiz-adv-x="1002" 
d="M458 860l117 -133q-1 -6 -9 -12q-7 -5 -15 -7l-123 126q1 7 12 16q10 8 18 10zM964 648l-224 -650q-21 -9 -42 0l-196 575l-197 -575q-21 -9 -42 0l-224 650q24 10 48 0l197 -580l197 580q20 9 41 0l197 -580l197 580q24 10 48 0z" />
    <glyph glyph-name="wgrave" unicode="&#x1e81;" horiz-adv-x="690" 
d="M302 610l117 -133q-1 -6 -9 -12q-7 -5 -15 -7l-123 126q1 7 12 16q10 8 18 10zM184 -2l-145 400q23 11 47 0l119 -338l121 338q20 10 39 0l122 -338l117 338q24 9 47 0l-145 -400q-20 -10 -39 0l-122 340l-122 -340q-19 -10 -39 0z" />
    <glyph glyph-name="Wacute" unicode="&#x1e82;" horiz-adv-x="1002" 
d="M428 729l116 132q8 -2 18 -10q11 -9 12 -16l-122 -126q-7 1 -15 8q-7 6 -9 12zM962 651l-224 -650q-21 -9 -42 0l-196 575l-197 -575q-21 -9 -42 0l-224 650q24 11 48 0l197 -580l197 580q20 9 41 0l197 -580l197 580q24 11 48 0z" />
    <glyph glyph-name="wacute" unicode="&#x1e83;" horiz-adv-x="690" 
d="M272 479l116 132q8 -2 18 -10q11 -9 12 -16l-122 -126q-7 1 -15 8q-7 6 -9 12zM182 1l-145 400q23 11 47 0l119 -338l121 338q20 11 39 0l122 -338l117 338q24 9 47 0l-145 -400q-20 -11 -39 0l-122 340l-122 -340q-19 -11 -39 0z" />
    <glyph glyph-name="Wdieresis" unicode="&#x1e84;" horiz-adv-x="1002" 
d="M383 821v-1q14 0 23 -9t9 -22q0 -15 -9 -24t-23 -9q-15 0 -25 9t-10 24q0 14 10 23t25 9zM620 820v-1q14 0 23 -9t9 -22q0 -15 -9 -24t-23 -9t-25 9q-10 9 -10 24q0 14 10 23q11 9 25 9zM963 648l-224 -650q-21 -9 -42 0l-196 575l-197 -575q-21 -9 -42 0l-224 650
q24 10 48 0l197 -580l197 580q20 9 41 0l197 -580l197 580q24 10 48 0z" />
    <glyph glyph-name="wdieresis" unicode="&#x1e85;" horiz-adv-x="690" 
d="M228 571v-1q14 0 23 -9t9 -22q0 -15 -9 -24t-23 -9t-25 9q-10 9 -10 24q0 14 10 23q11 9 25 9zM464 570v-1q14 0 23 -9t9 -22q0 -15 -9 -24t-23 -9t-25 9q-10 9 -10 24q0 14 10 23q11 9 25 9zM183 -2l-145 400q23 11 47 0l119 -338l121 338q19 10 39 0l122 -338l117 338
q24 9 47 0l-145 -400q-19 -10 -39 0l-122 340l-122 -340q-20 -10 -39 0z" />
    <glyph glyph-name="Ygrave" unicode="&#x1ef2;" horiz-adv-x="626" 
d="M270 860l117 -133q-1 -6 -9 -12q-7 -5 -15 -7l-123 126q1 7 12 16q10 8 18 10zM338 249v-251q-22 -10 -48 0v250l-251 400q8 4 26 4t26 -4l223 -354l223 354q25 10 52 0z" />
    <glyph glyph-name="ygrave" unicode="&#x1ef3;" horiz-adv-x="494" 
d="M204 610l117 -133q-1 -6 -9 -12q-7 -5 -15 -7l-123 126q1 7 12 16q10 8 18 10zM249 77l160 321q25 10 48 0l-283 -563q-23 -9 -47 0l99 195l-187 368q23 11 47 0z" />
    <glyph glyph-name="endash" unicode="&#x2013;" horiz-adv-x="517" 
d="M50 300h418q9 -20 0 -36h-418q-9 16 0 36z" />
    <glyph glyph-name="emdash" unicode="&#x2014;" horiz-adv-x="629" 
d="M50 300h530q9 -20 0 -36h-530q-9 16 0 36z" />
    <glyph glyph-name="quoteleft" unicode="&#x2018;" horiz-adv-x="168" 
d="M118 650h1q-18 -21 -29 -58q-12 -40 -11 -67q3 1 9 1q14 0 23 -9t9 -23t-9 -24t-25 -10q-14 0 -25 11t-12 30q-5 33 9 83t30 66q16 8 30 0z" />
    <glyph glyph-name="quoteright" unicode="&#x2019;" horiz-adv-x="168" 
d="M83 665h-5q16 0 26 -10q10 -11 12 -30q5 -33 -9 -83q-13 -50 -30 -66q-13 -8 -30 0q16 19 30 59q14 39 12 65q-3 -1 -9 -1q-14 0 -23 9t-9 23q0 13 9 24q9 10 26 10z" />
    <glyph glyph-name="quotesinglbase" unicode="&#x201a;" horiz-adv-x="168" 
d="M83 51l-4 -1q16 0 26 -10q11 -10 12 -30q5 -33 -9 -83q-14 -49 -30 -66q-14 -7 -30 0q18 19 30 59t11 65q-3 -1 -9 -1q-14 0 -23 9t-9 24q0 13 9 24q9 10 26 10z" />
    <glyph glyph-name="quotedblleft" unicode="&#x201c;" horiz-adv-x="287" 
d="M118 650h1q-18 -21 -29 -58q-12 -40 -11 -67q3 1 9 1q14 0 23 -9t9 -23t-9 -24t-25 -10q-14 0 -25 11t-12 30q-5 33 9 83t30 66q16 8 30 0zM239 650h1q-18 -21 -29 -58q-12 -40 -11 -67q3 1 9 1q14 0 23 -9t9 -23t-9 -24t-25 -10q-14 0 -25 11q-10 11 -12 30q-5 33 9 83
q13 50 30 66q17 8 30 0z" />
    <glyph glyph-name="quotedblright" unicode="&#x201d;" horiz-adv-x="287" 
d="M83 665h-5q16 0 26 -10q10 -11 12 -30q5 -33 -9 -83q-13 -50 -30 -66q-13 -8 -30 0q16 19 30 59q14 39 12 65q-3 -1 -9 -1q-14 0 -23 9t-9 23q0 13 9 24q9 10 26 10zM197 665h-3q14 0 24 -10q10 -11 12 -30q5 -33 -9 -83q-13 -50 -30 -66q-13 -8 -30 0q16 19 30 59
q14 39 12 65q-3 -1 -9 -1q-14 0 -23 9t-9 23q0 13 9 24q9 10 26 10z" />
    <glyph glyph-name="quotedblbase" unicode="&#x201e;" horiz-adv-x="287" 
d="M83 51l-4 -1q16 0 26 -10q11 -10 12 -30q5 -33 -9 -83q-14 -49 -30 -66q-14 -7 -30 0q18 19 30 59t11 65q-3 -1 -9 -1q-14 0 -23 9t-9 24q0 13 9 24q9 10 26 10zM198 50l-2 -1q14 0 24 -10q10 -11 12 -30q5 -33 -9 -83q-13 -50 -30 -66q-13 -8 -30 0q18 19 30 59t11 65
q-3 -1 -9 -1q-14 0 -23 9t-9 24q0 14 9 24t26 10z" />
    <glyph glyph-name="dagger" unicode="&#x2020;" horiz-adv-x="456" 
d="M252 400h154q8 -20 0 -41h-154v-442q-22 -11 -48 0v442h-154q-8 21 0 41h154v250q26 10 48 0v-250z" />
    <glyph glyph-name="daggerdbl" unicode="&#x2021;" horiz-adv-x="456" 
d="M252 195h154q8 -19 0 -39h-154v-238q-22 -10 -48 0v238h-154q-8 20 0 39h154v179h-154q-8 20 0 39h154v236q26 11 48 0v-236h154q8 -19 0 -39h-154v-179z" />
    <glyph glyph-name="bullet" unicode="&#x2022;" horiz-adv-x="217" 
d="M109 349q26 0 44 -18t18 -44t-18 -44t-44 -18t-44 18t-18 44t18 44t44 18z" />
    <glyph glyph-name="ellipsis" unicode="&#x2026;" horiz-adv-x="496" 
d="M81 -15q-15 0 -25 9t-10 23t10 23t25 9q14 0 23 -9t9 -23t-9 -23t-23 -9zM249 -15q-15 0 -25 9t-10 23t10 23t25 9q14 0 23 -9t9 -23t-9 -23t-23 -9zM416 -15q-14 0 -25 9q-10 9 -10 23t10 23q11 9 25 9t23 -9t9 -23t-9 -23t-23 -9z" />
    <glyph glyph-name="perthousand" unicode="&#x2030;" horiz-adv-x="1082" 
d="M181 665v-2q62 0 98 -46q36 -47 36 -123t-36 -123q-36 -46 -98 -46t-98 47q-36 46 -36 123t36 123q36 47 98 47zM555 648l-308 -650q-18 -9 -35 0l308 650q17 9 35 0zM181 631q-45 0 -72 -36t-27 -101t27 -101t72 -36t71 36q26 37 26 101t-26 101q-26 36 -71 36zM585 323
v-2q62 0 98 -46q36 -47 36 -123t-36 -123q-36 -46 -98 -46t-98 47q-36 46 -36 123t36 123q36 47 98 47zM902 321v-2q62 0 98 -46q36 -47 36 -123t-36 -123q-36 -46 -98 -46t-98 47q-36 46 -36 123t36 123q36 47 98 47zM585 287q-45 0 -72 -36t-27 -101t27 -101t72 -36t71 36
q26 37 26 101t-26 101q-26 36 -71 36zM902 287q-45 0 -72 -36t-27 -101t27 -101t72 -36q46 0 71 36q26 37 26 101t-26 101q-25 36 -71 36z" />
    <glyph glyph-name="guilsinglleft" unicode="&#x2039;" horiz-adv-x="261" 
d="M96 217l119 -156q-19 -7 -37 0l-132 156l132 156q19 7 37 0z" />
    <glyph glyph-name="guilsinglright" unicode="&#x203a;" horiz-adv-x="261" 
d="M215 217l-132 -156q-19 -7 -37 0l120 156l-120 156q19 7 37 0z" />
    <glyph glyph-name="fraction" unicode="&#x2044;" horiz-adv-x="435" 
d="M389 650l-308 -650q-18 -9 -35 0l308 650q17 9 35 0z" />
    <glyph glyph-name="Euro" unicode="&#x20ac;" horiz-adv-x="785" 
d="M473 26v-1q128 0 219 70q4 -4 4 -24t-4 -24q-88 -64 -222 -64q-130 0 -222 75q-91 75 -114 194h-85q-9 12 0 25h81q-3 23 -3 46t3 45h-81q-9 13 0 25h85q23 119 114 194q92 75 222 75q134 0 222 -64q4 -4 4 -24t-4 -24q-91 70 -219 70q-109 0 -189 -63q-79 -63 -102 -164
h296q9 -12 0 -25h-301q-3 -22 -3 -45t3 -45h261q9 -13 0 -25h-256q23 -101 102 -164q80 -63 189 -63z" />
    <glyph glyph-name="uni2116" unicode="&#x2116;" horiz-adv-x="1155" 
d="M902 665h-1q91 0 153 -62t62 -153q0 -92 -61 -153q-62 -62 -153 -62q-92 0 -154 62q-61 61 -61 153t61 153q62 62 154 62zM623 650l-1 -650q-20 -8 -39 0l-447 572v-572q-23 -11 -47 0v650q20 8 41 0l446 -572v572q23 11 47 0zM899 626h-1q-73 0 -121 -50t-48 -126
t48 -126t122 -50t122 50t48 126t-48 126t-122 50zM706 178h385q10 -19 0 -40h-385q-10 21 0 40z" />
    <glyph glyph-name="trademark" unicode="&#x2122;" horiz-adv-x="624" 
d="M49 650h209q8 -14 0 -27h-89v-175q-15 -7 -31 0v175h-89q-7 13 0 27zM518 647l60 -199q-16 -7 -31 0l-46 155l-66 -155q-13 -8 -27 0l-66 155l-45 -155q-16 -7 -31 0l59 199q13 7 27 0l69 -161l70 161q13 7 27 0z" />
    <glyph glyph-name="estimated" unicode="&#x212e;" horiz-adv-x="817" 
d="M408 665l1 -4q148 0 244 -99t96 -241h-575v-214q91 -103 234 -103q144 0 236 84q4 -4 4 -15t-4 -15q-96 -75 -236 -75q-148 0 -244 99t-96 242t96 242t244 99zM410 638h-1q-145 0 -236 -103v-192h471v192q-91 103 -234 103z" />
    <glyph glyph-name="oneeighth" unicode="&#x215b;" horiz-adv-x="658" 
d="M174 650v-312q-18 -9 -37 0v273l-87 -63q-4 4 -4 18t4 18l93 66q15 9 31 0zM470 648l-308 -650q-18 -9 -35 0l308 650q17 9 35 0zM493 323h-2q49 0 78 -26t29 -60q0 -47 -47 -73q59 -23 59 -85q0 -42 -33 -69t-85 -27t-85 27t-33 69q0 63 60 85q-48 26 -48 73q0 34 29 60
t78 26zM490 292q-34 0 -52 -18t-18 -41q0 -22 17 -39t47 -17h15q30 0 47 17t17 39q0 23 -19 41q-20 18 -54 18zM497 149h-17q-37 0 -57 -20q-19 -19 -19 -48t24 -48q23 -19 61 -19t61 19q24 19 24 48t-19 48q-20 20 -58 20z" />
    <glyph glyph-name="threeeighths" unicode="&#x215c;" horiz-adv-x="712" 
d="M145 665l-1 -2q49 0 78 -26t29 -60q0 -47 -48 -73q60 -22 60 -85q0 -43 -33 -69q-34 -26 -84 -26q-60 0 -98 32q-2 4 -2 18q0 15 2 17q40 -37 96 -37q38 0 60 19q23 20 23 49q0 28 -20 48t-59 20h-42q-4 14 0 30h43q29 0 48 17q18 17 18 39q0 23 -19 41q-20 18 -54 18
q-50 0 -90 -37q-2 2 -2 17q0 14 2 18q38 32 93 32zM522 648l-308 -650q-18 -9 -35 0l308 650q17 9 35 0zM545 323h-2q49 0 78 -26t29 -60q0 -49 -47 -73q59 -21 59 -85q0 -42 -33 -69t-85 -27t-85 27t-33 69q0 63 60 85q-48 26 -48 73q0 34 29 60t78 26zM543 292
q-34 0 -52 -18t-18 -41q0 -22 17 -39t47 -17h15q30 0 47 17t17 39q0 23 -19 41t-54 18zM549 149h-17q-37 0 -57 -20q-19 -19 -19 -48t24 -48q23 -19 61 -19t61 19q24 19 24 48t-19 48q-20 20 -58 20z" />
    <glyph glyph-name="fiveeighths" unicode="&#x215d;" horiz-adv-x="708" 
d="M519 650l-308 -650q-18 -9 -35 0l308 650q17 9 35 0zM91 650l148 -3q8 -15 0 -32h-120l-15 -101q22 9 45 9q50 0 80 -27t30 -71q0 -45 -33 -73q-32 -28 -85 -28q-60 0 -94 31q-2 4 -2 18q0 15 2 17q38 -35 90 -35q39 0 62 20t23 51t-23 52t-63 21q-36 0 -71 -20zM542 322
h-2q49 0 78 -26t29 -60q0 -47 -47 -73q59 -23 59 -85q0 -42 -33 -69t-85 -27t-85 27t-33 69q0 62 60 85q-48 25 -48 73q0 34 29 60t78 26zM540 291q-34 0 -52 -18t-18 -41q0 -22 17 -39t47 -17h15q30 0 47 17t17 39q0 23 -19 41q-20 18 -54 18zM547 148h-17q-37 0 -57 -20
q-19 -19 -19 -48q0 -28 24 -48q23 -19 61 -19t61 19q24 20 24 48q0 29 -19 48q-20 20 -58 20z" />
    <glyph glyph-name="seveneighths" unicode="&#x215e;" horiz-adv-x="642" 
d="M454 650l-308 -650q-18 -9 -35 0l308 650q17 9 35 0zM263 642l-153 -302q-20 -9 -39 0l143 278h-164q-8 17 0 32h213v-8zM476 325h-2q49 0 78 -26t29 -60q0 -48 -47 -72q59 -23 59 -86q0 -42 -33 -69t-85 -27t-85 27t-33 69q0 63 59 86q-47 24 -47 72q0 34 29 60t78 26z
M474 294q-34 0 -52 -18t-18 -41q0 -22 17 -39t47 -17h15q30 0 47 17t17 39q0 23 -19 41q-20 18 -54 18zM481 151h-17q-37 0 -57 -20q-19 -19 -19 -48t24 -48q23 -19 61 -19t61 19q24 19 24 48t-19 48q-20 20 -58 20z" />
    <glyph glyph-name="partialdiff" unicode="&#x2202;" horiz-adv-x="515" 
d="M120 650l-1 -2q137 -23 237 -130q101 -109 101 -268v-44q0 -104 -56 -163q-55 -58 -144 -58q-85 0 -145 60t-60 155q0 91 53 152q53 60 144 60q90 0 154 -64q-27 103 -106 172t-177 87q-4 5 -4 22t4 21zM257 372h1q-74 0 -117 -48q-43 -47 -43 -126q0 -78 47 -127
q47 -48 114 -48t111 45q44 46 44 131v44q0 25 -5 58q-23 26 -64 48q-43 23 -88 23z" />
    <glyph glyph-name="emptyset" unicode="&#x2205;" horiz-adv-x="542" 
d="M452 383l-29 -31q62 -60 62 -152t-61 -153q-62 -62 -153 -62q-77 0 -135 45l-27 -30q-5 0 -11 6q-7 7 -8 12l27 30q-61 62 -61 153q0 92 61 153q62 62 154 62q77 0 135 -46l27 31q5 0 11 -6q7 -7 8 -12zM100 200l-1 1q0 -74 46 -123l231 262q-45 36 -107 36
q-73 0 -121 -50t-48 -126zM269 25h1q74 0 122 50q48 49 48 126q0 72 -46 121l-231 -261q45 -36 106 -36z" />
    <glyph glyph-name="product" unicode="&#x220f;" horiz-adv-x="684" 
d="M50 650h584q8 -20 0 -41h-74v-609q-22 -10 -48 0v609h-340v-609q-26 -10 -48 0v609h-74q-8 21 0 41z" />
    <glyph glyph-name="summation" unicode="&#x2211;" horiz-adv-x="482" 
d="M119 41l313 -1q8 -21 0 -41h-386v10l233 315l-233 315v10h386q8 -20 0 -41h-313l200 -265q6 -7 6 -19t-6 -19z" />
    <glyph glyph-name="minus" unicode="&#x2212;" horiz-adv-x="443" 
d="M50 300h344q9 -20 0 -36h-344q-9 16 0 36z" />
    <glyph glyph-name="radical" unicode="&#x221a;" horiz-adv-x="746" 
d="M534 650h161q7 -20 0 -39h-132l-289 -611q-20 -10 -39 0l-189 400q24 11 47 0l162 -345z" />
    <glyph glyph-name="infinity" unicode="&#x221e;" horiz-adv-x="687" 
d="M485 422l-1 -2q65 0 110 -46t45 -111t-46 -111t-111 -46q-45 0 -85 26q-38 25 -55 68q-18 -43 -57 -68q-40 -26 -85 -26q-65 0 -111 46t-46 111t46 111t111 46q48 0 86 -25q39 -26 57 -67q17 42 56 68q40 26 86 26zM201 143l-2 -2q49 0 85 36t36 86q0 49 -35 86
q-35 36 -84 36t-84 -36q-35 -37 -35 -85t35 -85q35 -36 84 -36zM482 141l-2 -2q49 0 85 36t36 86q0 49 -35 86q-34 36 -84 36t-84 -36q-35 -37 -35 -85t35 -85q34 -36 84 -36z" />
    <glyph glyph-name="integral" unicode="&#x222b;" horiz-adv-x="506" 
d="M456 634l-4 -1q4 -4 4 -21t-4 -21q-50 36 -96 36q-37 0 -60 -23t-23 -72v-655q0 -64 -34 -95q-35 -32 -87 -32q-55 0 -105 31q-3 6 -3 22q0 17 4 21q49 -36 98 -36q83 0 83 95v655q0 63 35 95t87 32q55 0 105 -31z" />
    <glyph glyph-name="approxequal" unicode="&#x2248;" horiz-adv-x="481" 
d="M164 357h-2q34 0 81 -24t75 -24q14 0 26 3q13 3 26 9l21 9q5 2 23 11q16 8 17 9q8 -15 0 -32q-1 -2 -21 -12l-29 -15q-9 -5 -27 -9q-20 -5 -35 -5q-35 0 -81 24t-75 24q-13 0 -25 -3q-13 -3 -26 -9l-21 -9l-5 -2.5l-8 -4l-9 -4.5q-16 -8 -17 -9q-8 17 0 32q2 2 21 12
l29 15q9 5 27 9q20 5 35 5zM162 233l-2 1q34 0 81 -24t75 -24q14 0 26 3q13 3 26 9l21 9q5 2 23 11q16 8 17 9q7 -17 0 -33q-1 -2 -21 -12l-29 -15q-9 -5 -27 -9q-20 -5 -35 -5q-35 0 -81 24t-75 24q-13 0 -25 -3q-13 -3 -26 -9l-21 -9l-22 -11q-16 -8 -17 -9q-8 17 0 32
q2 2 21 12l29 15q9 5 27 9q20 5 35 5z" />
    <glyph glyph-name="notequal" unicode="&#x2260;" horiz-adv-x="443" 
d="M257 356h137q9 -18 0 -36h-146l-25 -93h171q9 -17 0 -36h-180l-21 -81q-4 -4 -14 -4t-14 4l21 81l-136 1q-9 18 0 35h145l25 93h-170q-9 18 0 36h179l21 81q4 4 14 4t14 -4z" />
    <glyph glyph-name="lessequal" unicode="&#x2264;" horiz-adv-x="456" 
d="M50 331l357 133q11 -20 0 -39l-296 -107l296 -106q11 -21 0 -41l-357 134q-11 14 0 26zM50 113h357q9 -17 0 -36h-357q-9 19 0 36z" />
    <glyph glyph-name="greaterequal" unicode="&#x2265;" horiz-adv-x="456" 
d="M50 465l357 -133q11 -12 0 -26l-357 -134q-11 20 0 41l295 106l-295 107q-10 20 0 39zM50 115h357q9 -17 0 -36h-357q-9 19 0 36z" />
    <glyph glyph-name="lozenge" unicode="&#x25ca;" horiz-adv-x="453" 
d="M226 287l-180 182l180 181l181 -181zM355 469l-129 130l-128 -130l128 -130z" />
    <glyph glyph-name="i.loclTRK" horiz-adv-x="197" 
d="M100 505v-1q-14 0 -25 9q-10 9 -10 24q0 14 10 23t25 9q14 0 23 -9t9 -22q0 -15 -9 -24t-23 -9zM121 399v-400q-23 -9 -45 0v400q22 9 45 0z" />
    <glyph glyph-name="a.ss01" 
d="M258 415h-1q98 0 162 -73l2 58q19 8 39 0v-400q-20 -8 -39 0l-2 58q-64 -73 -162 -73q-92 0 -147 61t-55 154q0 92 56 154q55 61 147 61zM266 376v-4q-75 0 -120 -49t-45 -126t45 -126t120 -49q50 0 90 24q39 23 61 50v206q-22 27 -61 50q-40 24 -90 24z" />
    <glyph glyph-name="aacute.ss01" 
d="M203 479l116 132q8 -2 18 -10q11 -9 12 -16l-122 -126q-7 1 -15 8q-8 6 -9 12zM257 416h-1q98 0 162 -73l2 58q20 7 39 0v-400q-19 -7 -39 0l-2 58q-64 -73 -162 -73q-92 0 -147 61t-55 154q0 92 56 154q55 61 147 61zM265 377v-4q-75 0 -120 -49q-45 -50 -45 -126
t45 -126q45 -49 120 -49q49 0 90 24q39 23 61 50v206q-22 27 -61 50q-41 24 -90 24z" />
    <glyph glyph-name="abreve.ss01" 
d="M423 580h-1q4 -4 4 -20t-4 -21q-55 -46 -147 -46q-89 0 -147 46q-3 6 -3 21q0 16 4 20q69 -48 147 -48t147 48zM257 415h-1q98 0 162 -73l2 58q20 8 39 0v-400q-19 -8 -39 0l-2 58q-64 -73 -162 -73q-92 0 -147 61t-55 154q0 92 56 154q55 61 147 61zM265 376v-4
q-75 0 -120 -49t-45 -126t45 -126t120 -49q49 0 90 24q39 23 61 50v206q-22 27 -61 50q-41 24 -90 24z" />
    <glyph glyph-name="acaron.ss01" 
d="M276 492l112 113q8 -1 16 -10q10 -10 11 -16l-120 -121q-19 -16 -39 0l-120 121q1 6 11 16q8 8 17 10zM257 415h-1q98 0 162 -73l2 58q20 8 39 0v-400q-19 -8 -39 0l-2 58q-64 -73 -162 -73q-92 0 -147 61t-55 154q0 92 56 154q55 61 147 61zM265 376v-4q-75 0 -120 -49
t-45 -126t45 -126t120 -49q49 0 90 24q39 23 61 50v206q-22 27 -61 50q-41 24 -90 24z" />
    <glyph glyph-name="acircumflex.ss01" 
d="M296 600l118 -121q-2 -7 -10 -16t-16 -10l-113 114l-112 -114q-8 1 -16 10q-10 10 -11 16l120 121q7 6 20 6q12 0 20 -6zM256 415h-1q98 0 162 -73l2 58q19 8 39 0v-400q-20 -8 -39 0l-2 58q-64 -73 -162 -73q-92 0 -147 61t-55 154q0 92 56 154q55 61 147 61zM264 376
v-4q-75 0 -120 -49t-45 -126t45 -126t120 -49q50 0 90 24q39 23 61 50v206q-22 27 -61 50q-40 24 -90 24z" />
    <glyph glyph-name="adieresis.ss01" 
d="M159 571v-1q14 0 23 -9t9 -22q0 -15 -9 -24t-23 -9q-15 0 -25 9t-10 24q0 14 10 23t25 9zM395 570v-1q14 0 23 -9t9 -22q0 -15 -9 -24t-23 -9q-15 0 -25 9t-10 24q0 14 10 23t25 9zM258 413h-1q98 0 162 -73l2 58q19 8 39 0v-400q-20 -8 -39 0l-2 58q-64 -73 -162 -73
q-92 0 -147 61t-55 154q0 92 56 154q55 61 147 61zM266 374v-4q-75 0 -120 -49t-45 -126t45 -126t120 -49q50 0 90 24q39 23 61 50v206q-22 27 -61 50q-40 24 -90 24z" />
    <glyph glyph-name="agrave.ss01" 
d="M233 610l117 -133q-2 -6 -9 -12q-7 -5 -15 -7l-123 126q1 7 12 16q10 8 18 10zM259 413h-1q98 0 162 -73l2 58q20 8 39 0v-400q-19 -8 -39 0l-2 58q-64 -73 -162 -73q-92 0 -147 61t-55 154q0 92 56 154q55 61 147 61zM267 374v-4q-75 0 -120 -49t-45 -126t45 -126
t120 -49q49 0 90 24q39 23 61 50v206q-22 27 -61 50q-41 24 -90 24z" />
    <glyph glyph-name="amacron.ss01" 
d="M146 541h259q9 -17 0 -36l-259 1q-9 18 0 35zM258 415h-1q98 0 162 -73l2 58q19 8 39 0v-400q-20 -8 -39 0l-2 58q-64 -73 -162 -73q-92 0 -147 61t-55 154q0 92 56 154q55 61 147 61zM266 376v-4q-75 0 -120 -49t-45 -126t45 -126t120 -49q50 0 90 24q39 23 61 50v206
q-22 27 -61 50q-40 24 -90 24z" />
    <glyph glyph-name="aogonek.ss01" 
d="M485 -179l-1 -3q9 -15 0 -32q-11 -4 -33 -4q-44 0 -73 28q-30 28 -30 72q0 35 22 66q22 32 57 48l-7 2l-2 58q-64 -73 -162 -73q-92 0 -147 61t-55 154q0 92 56 154q55 61 147 61q98 0 162 -73l2 58q19 8 39 0l-1 -400q-35 -15 -58 -45q-22 -29 -22 -62q0 -32 21 -53
t56 -21q20 0 29 4zM416 94v202q-22 27 -61 50q-41 24 -90 24q-75 0 -120 -49t-45 -126t45 -126t120 -49q49 0 90 24q39 23 61 50z" />
    <glyph glyph-name="aring.ss01" 
d="M276 618v-2q33 0 56 -23t23 -53q0 -34 -23 -57q-22 -22 -56 -22t-57 23t-23 57q0 31 23 54t57 23zM276 586l-2 -1q-22 0 -36 -14q-13 -13 -13 -32q0 -20 13 -34q14 -15 36 -15t35 15q14 16 14 35t-13 32q-14 14 -34 14zM256 412h-1q98 0 162 -73l2 58q19 7 39 0v-400
q-20 -7 -39 0l-2 58q-64 -73 -162 -73q-92 0 -147 61t-55 154q0 92 56 154q55 61 147 61zM264 373v-4q-75 0 -120 -49q-45 -50 -45 -126t45 -126q45 -49 120 -49q50 0 90 24q39 23 61 50v206q-22 27 -61 50q-40 24 -90 24z" />
    <glyph glyph-name="atilde.ss01" 
d="M212 563l-1 -2q28 0 75 -22q27 -12 52 -12q28 0 87 30q9 -17 0 -36q-6 -3 -13 -7q-8 -5 -15 -7q-3 -1 -13 -6q-9 -5 -15 -6t-15 -3q-6 -1 -16 -1q-28 0 -75 22q-27 12 -52 12q-29 0 -87 -30q-9 19 0 36q6 3 13 7q13 7 15 8q3 1 13 6q9 4 15 6t15 3q12 2 17 2zM257 413h-1
q98 0 162 -73l2 58q20 8 39 0v-400q-19 -8 -39 0l-2 58q-64 -73 -162 -73q-92 0 -147 61t-55 154q0 92 56 154q55 61 147 61zM265 374v-4q-75 0 -120 -49t-45 -126t45 -126t120 -49q49 0 90 24q39 23 61 50v206q-22 27 -61 50q-41 24 -90 24z" />
    <glyph glyph-name="ae.ss01" horiz-adv-x="876" 
d="M628 415l-2 -1q96 0 151 -66t42 -153h-358q1 -79 51 -126t128 -47q77 0 144 49q4 -4 4 -20t-4 -20q-55 -46 -147 -46q-62 0 -111 26q-47 25 -73 74v-85q-17 -10 -33 0l-2 58q-64 -73 -162 -73q-92 0 -147 61t-55 154q0 92 56 154q55 61 147 61q98 0 162 -73l2 58
q17 10 33 0v-85q25 46 70 73t104 27zM627 378l3 -1q-70 0 -115 -42t-51 -111h316q2 66 -42 110t-111 44zM268 374v-4q-75 0 -120 -49t-45 -126t45 -126t120 -49q50 0 90 24q39 23 61 50v206q-22 27 -61 50q-40 24 -90 24z" />
    <glyph glyph-name="uni0430.ss01" 
d="M258 415h-1q98 0 162 -73l2 58q19 8 39 0v-400q-20 -8 -39 0l-2 58q-64 -73 -162 -73q-92 0 -147 61t-55 154q0 92 56 154q55 61 147 61zM266 376v-4q-75 0 -120 -49t-45 -126t45 -126t120 -49q50 0 90 24q39 23 61 50v206q-22 27 -61 50q-40 24 -90 24z" />
    <glyph glyph-name="zero.tf" horiz-adv-x="600" 
d="M300 665h-1q119 0 189 -93q71 -94 71 -246q0 -154 -70 -246q-71 -93 -189 -93t-189 93q-71 94 -71 246t71 246q71 93 189 93zM299 624l-1 -2q-98 0 -155 -79t-57 -219t57 -219t155 -79t155 80t57 219t-57 219t-154 80z" />
    <glyph glyph-name="one.tf" horiz-adv-x="600" 
d="M148 533l166 117q20 8 39 0v-650q-24 -11 -47 0v598l-157 -112q-4 4 -4 23q0 18 3 24z" />
    <glyph glyph-name="two.tf" horiz-adv-x="600" 
d="M167 41l337 -2q8 -21 0 -41h-421v9q159 155 237 243t102 135t24 95q0 59 -42 101t-118 42q-102 0 -177 -72q-4 4 -4 24q0 21 4 26q71 64 180 64q98 0 152 -54t54 -128q0 -82 -64 -168q-63 -85 -264 -274z" />
    <glyph glyph-name="three.tf" horiz-adv-x="600" 
d="M284 665v-1q95 0 151 -50q55 -49 55 -122q0 -51 -29 -94q-28 -41 -78 -61q65 -17 98 -62t33 -103q0 -84 -63 -135t-162 -51q-51 0 -105 17q-52 17 -87 45q-3 6 -3 26t4 24q37 -34 89 -54q50 -19 101 -19q79 0 129 41t50 110q0 58 -42 99q-41 40 -123 40h-88q-8 19 0 39
h88q63 0 102 39t39 96t-42 96t-117 39q-103 0 -181 -72q-4 4 -4 24q0 19 3 25q74 64 182 64z" />
    <glyph glyph-name="four.tf" horiz-adv-x="600" 
d="M447 189h98q7 -19 0 -39h-98v-149q-23 -11 -47 0v149h-343q-7 20 0 39l349 461q21 8 41 0v-461zM400 580l-297 -391h297v391z" />
    <glyph glyph-name="five.tf" horiz-adv-x="600" 
d="M283 385l-1 -1q100 0 162 -54q61 -54 61 -142q0 -89 -63 -146t-163 -57q-115 0 -192 63q-3 6 -3 26t4 24q79 -73 190 -73q80 0 129 45q50 45 50 117q0 73 -51 116q-52 44 -137 44q-69 0 -142 -41l52 344h294q8 -20 0 -41h-257l-38 -249q49 25 105 25z" />
    <glyph glyph-name="six.tf" horiz-adv-x="600" 
d="M314 415l-1 -2q97 0 152 -60q56 -61 56 -151q0 -92 -62 -156q-61 -63 -159 -63q-100 0 -162 63q-61 62 -61 168q0 68 24 134q25 67 58 114q32 45 77 88q42 40 75 63t60 36q8 4 36 4t36 -4q-37 -19 -71 -42q-39 -26 -80 -60q-42 -35 -81 -86q-37 -49 -57 -105
q67 59 160 59zM298 24l-1 1q76 0 126 50q49 49 49 126t-46 126t-126 49q-56 0 -99 -24t-66 -51q-11 -46 -11 -90q0 -85 48 -136t126 -51z" />
    <glyph glyph-name="seven.tf" horiz-adv-x="600" 
d="M520 641l-328 -641q-25 -10 -52 0l314 609h-365q-8 21 0 41h431v-9z" />
    <glyph glyph-name="eight.tf" horiz-adv-x="600" 
d="M300 665l-1 -2q92 0 146 -51t54 -121q0 -52 -30 -94t-79 -60q63 -18 98 -65t35 -105q0 -83 -63 -132q-64 -50 -161 -50t-161 50q-63 49 -63 132q0 58 35 105t98 65q-49 18 -79 60t-30 95q0 71 54 122t147 51zM299 622l-1 -1q-71 0 -111 -40q-41 -41 -41 -96t39 -94
t98 -39h30q60 0 99 39t39 95t-40 96t-112 40zM312 312h-30q-74 0 -118 -42q-43 -42 -43 -101q0 -67 50 -108q49 -40 126 -40t126 40q50 41 50 108q0 59 -43 101q-44 42 -118 42z" />
    <glyph glyph-name="nine.tf" horiz-adv-x="600" 
d="M299 665h-1q100 0 162 -63q62 -64 62 -168q0 -67 -24 -133q-25 -67 -58 -114q-34 -48 -76 -88q-42 -41 -75 -63t-60 -36q-8 -4 -36 -4t-36 4q37 19 71 42q39 26 80 60q42 35 81 86q37 50 57 105q-67 -59 -160 -59q-96 0 -152 60q-56 61 -56 152q0 92 62 156q62 63 159 63
zM298 624l1 -2q-77 0 -126 -49t-49 -126t46 -126t126 -49q56 0 99 24t66 51q11 46 11 90q0 85 -48 136t-126 51z" />
    <glyph glyph-name="zero.dnom" horiz-adv-x="362" 
d="M181 325v-2q62 0 98 -46q36 -47 36 -123t-36 -123q-36 -46 -98 -46t-98 47q-36 46 -36 123t36 123q36 47 98 47zM181 291q-45 0 -72 -36t-27 -101t27 -101t72 -36t71 36q26 37 26 101t-26 101q-26 36 -71 36z" />
    <glyph glyph-name="one.dnom" horiz-adv-x="220" 
d="M50 244l93 64q15 9 31 0v-310q-18 -9 -37 0v273l-87 -63q-4 4 -4 18t4 18z" />
    <glyph glyph-name="two.dnom" horiz-adv-x="320" 
d="M108 32h161q8 -17 0 -32h-224v8q115 106 147 147t32 78q0 23 -20 41t-57 18q-49 0 -88 -36q-2 2 -2 18q0 15 2 19q35 31 92 31q53 0 81 -27q29 -27 29 -63q0 -41 -30 -80q-31 -41 -123 -122z" />
    <glyph glyph-name="three.dnom" horiz-adv-x="309" 
d="M145 325l-1 -2q49 0 78 -26t29 -60q0 -48 -47 -72q59 -23 59 -86q0 -43 -33 -69q-34 -26 -84 -26q-60 0 -98 32q-2 4 -2 18q0 15 2 17q40 -37 96 -37q38 0 60 19q23 20 23 49q0 28 -20 48t-59 20h-42q-4 14 0 30h43q29 0 48 17q18 17 18 39q0 23 -19 41q-20 18 -54 18
q-50 0 -90 -37q-2 2 -2 17q0 14 2 18q38 32 93 32z" />
    <glyph glyph-name="four.dnom" horiz-adv-x="341" 
d="M241 100h51q8 -15 0 -30h-51v-70q-18 -9 -37 0v70h-154q-8 15 0 30l160 210q16 9 31 0v-210zM205 260l-122 -160h122v160z" />
    <glyph glyph-name="five.dnom" horiz-adv-x="306" 
d="M149 186l-2 -3q50 0 80 -27t30 -71q0 -45 -33 -73q-32 -28 -85 -28q-60 0 -94 31q-2 4 -2 18q0 15 2 17q38 -35 90 -35q39 0 62 20t23 51t-23 52t-63 21q-36 0 -71 -20l26 171h148q8 -15 0 -32h-120l-16 -101q25 9 48 9z" />
    <glyph glyph-name="six.dnom" horiz-adv-x="319" 
d="M167 193h-1q48 0 77 -30q29 -31 29 -73q0 -44 -33 -75q-32 -31 -81 -31q-50 0 -81 33q-32 34 -32 87q0 68 48 128t86 77q6 2 28 2t28 -2q-37 -19 -78 -55q-42 -37 -61 -85q32 24 71 24zM158 15l2 -2q32 0 54 21q23 21 23 54q0 32 -21 54t-55 22q-47 0 -77 -33
q-3 -15 -3 -30q0 -41 22 -63q23 -23 55 -23z" />
    <glyph glyph-name="seven.dnom" horiz-adv-x="309" 
d="M263 302l-153 -302q-20 -9 -39 0l143 278h-164q-8 17 0 32h213v-8z" />
    <glyph glyph-name="eight.dnom" horiz-adv-x="330" 
d="M165 325h-2q49 0 78 -26t29 -60q0 -48 -47 -72q59 -23 59 -86q0 -42 -33 -69t-85 -27t-85 27t-33 69q0 63 59 86q-47 24 -47 72q0 34 29 60t78 26zM163 294q-34 0 -52 -18t-18 -41q0 -22 17 -39t47 -17h15q30 0 47 17t17 39q0 23 -19 41t-54 18zM169 151h-17
q-37 0 -57 -20q-19 -19 -19 -48t24 -48q23 -19 61 -19t61 19q24 19 24 48t-19 48q-20 20 -58 20z" />
    <glyph glyph-name="nine.dnom" horiz-adv-x="319" 
d="M159 326l-3 -2q50 0 81 -34q32 -35 32 -87q0 -67 -48 -127t-85 -78q-6 -2 -27 -2t-27 2q36 17 78 56q40 38 60 87q-30 -24 -71 -24q-47 0 -75 30q-29 31 -29 73q0 44 33 75q32 31 81 31zM154 144l-4 2q50 0 78 33q3 13 3 30q0 41 -22 63q-23 23 -55 23t-54 -21t-22 -54
q0 -32 21 -54t55 -22z" />
    <glyph glyph-name="zero.numr" horiz-adv-x="362" 
d="M181 665v-2q62 0 98 -46q36 -47 36 -123t-36 -123q-36 -46 -98 -46t-98 47q-36 46 -36 123t36 123q36 47 98 47zM181 631q-45 0 -72 -36t-27 -101t27 -101t72 -36t71 36q26 37 26 101t-26 101q-26 36 -71 36z" />
    <glyph glyph-name="one.numr" horiz-adv-x="220" 
d="M50 584l93 64q15 9 31 0v-310q-18 -9 -37 0v273l-87 -63q-4 4 -4 18t4 18z" />
    <glyph glyph-name="two.numr" horiz-adv-x="320" 
d="M108 372h161q8 -17 0 -32h-224v8q115 106 147 147t32 78q0 23 -20 41t-57 18q-49 0 -88 -36q-2 2 -2 18q0 15 2 19q35 31 92 31q53 0 81 -27q29 -27 29 -63q0 -41 -30 -80q-31 -41 -123 -122z" />
    <glyph glyph-name="three.numr" horiz-adv-x="309" 
d="M145 665l-1 -2q49 0 78 -26t29 -60q0 -48 -47 -72q59 -23 59 -86q0 -43 -33 -69q-34 -26 -84 -26q-60 0 -98 32q-2 4 -2 18q0 15 2 17q40 -37 96 -37q38 0 60 19q23 20 23 49q0 28 -20 48t-59 20h-42q-4 14 0 30h43q29 0 48 17q18 17 18 39q0 23 -19 41q-20 18 -54 18
q-50 0 -90 -37q-2 2 -2 17q0 14 2 18q38 32 93 32z" />
    <glyph glyph-name="four.numr" horiz-adv-x="341" 
d="M241 440h51q8 -15 0 -30h-51v-70q-18 -9 -37 0v70h-154q-8 15 0 30l160 210q16 9 31 0v-210zM205 600l-122 -160h122v160z" />
    <glyph glyph-name="five.numr" horiz-adv-x="306" 
d="M149 526l-2 -3q50 0 80 -27t30 -71q0 -45 -33 -73q-32 -28 -85 -28q-60 0 -94 31q-2 4 -2 18q0 15 2 17q38 -35 90 -35q39 0 62 20t23 51t-23 52t-63 21q-36 0 -71 -20l26 171h148q8 -15 0 -32h-120l-16 -101q25 9 48 9z" />
    <glyph glyph-name="six.numr" horiz-adv-x="319" 
d="M167 533h-1q48 0 77 -30q29 -31 29 -73q0 -44 -33 -75q-32 -31 -81 -31q-50 0 -81 33q-32 34 -32 87q0 68 48 128t86 77q6 2 28 2t28 -2q-37 -19 -78 -55q-42 -37 -61 -85q31 24 71 24zM158 355l2 -2q32 0 54 21q23 21 23 54q0 32 -21 54t-55 22q-47 0 -77 -33
q-3 -15 -3 -30q0 -41 22 -63q23 -23 55 -23z" />
    <glyph glyph-name="seven.numr" horiz-adv-x="309" 
d="M263 642l-153 -302q-20 -9 -39 0l143 278h-164q-8 17 0 32h213v-8z" />
    <glyph glyph-name="eight.numr" horiz-adv-x="330" 
d="M165 665h-2q49 0 78 -26t29 -60q0 -48 -47 -72q59 -23 59 -86q0 -42 -33 -69t-85 -27t-85 27t-33 69q0 63 59 86q-47 24 -47 72q0 34 29 60t78 26zM163 634q-34 0 -52 -18t-18 -41q0 -22 17 -39t47 -17h15q30 0 47 17t17 39q0 23 -19 41t-54 18zM169 491h-17
q-37 0 -57 -20q-19 -19 -19 -48t24 -48q23 -19 61 -19t61 19q24 19 24 48t-19 48q-20 20 -58 20z" />
    <glyph glyph-name="nine.numr" horiz-adv-x="319" 
d="M159 665l-1 -4q50 0 81 -33q32 -34 32 -87q0 -67 -48 -126t-85 -78q-3 -1 -28 -1t-28 1q36 17 78 56q40 37 60 87q-30 -24 -71 -24q-47 0 -75 30q-29 31 -29 73q0 43 33 75q32 31 81 31zM156 481l-3 2q47 0 77 33q3 15 3 30q0 41 -22 63q-23 23 -55 23t-54 -21t-22 -54
q0 -31 21 -54q21 -22 55 -22z" />
    <glyph glyph-name="ampersand.ss01" horiz-adv-x="628" 
d="M445 354l140 -1q7 -19 0 -39h-99q7 -52 7 -143q0 -84 -64 -135q-65 -51 -165 -51t-163 51t-63 135q0 60 34 104q35 46 99 62q-50 20 -78 61q-29 43 -29 95q0 73 55 122q56 50 151 50q108 0 182 -64q3 -6 3 -25q0 -20 -4 -24q-78 72 -181 72q-75 0 -117 -39t-42 -96
t39 -96t102 -39h81q7 -20 0 -39h-81q-82 0 -123 -40q-42 -41 -42 -99q0 -69 50 -110t129 -41t129 41t50 110v178z" />
    </font>
</defs>
</svg>
