<?xml version="1.0" standalone="no"?>
<!DOCTYPE svg PUBLIC "-//W3C//DTD SVG 1.1//EN" "http://www.w3.org/Graphics/SVG/1.1/DTD/svg11.dtd" >
<svg>
<metadata>
Created by FontForge 20090622 at Thu Jan 28 14:52:49 2016
 By deploy user
Copyright (c) 2007 by Alexandra Korolkova. All rights reserved. PDFx by atburn
</metadata>
<defs>
<font id="LeksaPro-Italic" horiz-adv-x="531" >
  <font-face 
    font-family="LeksaPro"
    font-weight="400"
    font-style="italic"
    font-stretch="normal"
    units-per-em="1000"
    panose-1="2 0 0 0 0 0 0 0 0 0"
    ascent="750"
    descent="-250"
    x-height="482"
    cap-height="667"
    bbox="-125.333 -310.129 1235 944"
    underline-thickness="50"
    underline-position="-50"
    unicode-range="U+0020-U+FB02"
  />
<missing-glyph horiz-adv-x="810" 
d="M161 296q-16 -7 -32 -6.5t-28.5 8t-20 22.5t-7.5 39q0 33 18.5 56.5t46 38.5t60 22.5t60.5 7.5q40 0 74 -10.5t58.5 -32.5t38 -57t13.5 -83v-25.5t-2 -23.5q30 7 49 25t33 42.5t25 51t25 50t33 39.5t49 20q16 2 32 -2t29 -11q-26 -5 -42.5 -22.5t-30 -41t-26 -50
t-29.5 -50t-42.5 -41.5t-63.5 -23v-1q0 -1 0.5 -1.5t0.5 -1.5q41 -1 68 -17.5t47 -41t34.5 -53t30.5 -53.5t35.5 -43t49.5 -22q-14 -11 -31.5 -16.5t-33.5 -3.5q-34 1 -56 16.5t-37.5 39.5t-29 52t-29 53t-37.5 43.5t-56 23.5q-2 -23 -3 -48.5t-1 -58.5q0 -18 2 -34.5
t8 -27.5t18 -16.5t32 -0.5q-4 -20 -22 -30.5t-42 -10.5q-23 0 -37.5 9.5t-22.5 24.5t-11.5 32.5t-4.5 32.5q-12 -29 -30.5 -49.5t-39.5 -33t-42 -18.5t-37 -6q-29 0 -54.5 8t-44.5 24.5t-30.5 41.5t-11.5 58q0 53 31 86.5t76.5 50.5t97.5 18.5t94 -9.5l1 43q0 65 -28 105.5
t-89 40.5q-27 0 -49 -13t-34.5 -34t-14 -47.5t12.5 -54.5zM361 216q-43 13 -81.5 11t-68 -15.5t-46.5 -37t-17 -54.5q0 -42 25.5 -63t58.5 -21q36 0 71 29t52 81z" />
    <glyph glyph-name=".notdef" horiz-adv-x="810" 
d="M161 296q-16 -7 -32 -6.5t-28.5 8t-20 22.5t-7.5 39q0 33 18.5 56.5t46 38.5t60 22.5t60.5 7.5q40 0 74 -10.5t58.5 -32.5t38 -57t13.5 -83v-25.5t-2 -23.5q30 7 49 25t33 42.5t25 51t25 50t33 39.5t49 20q16 2 32 -2t29 -11q-26 -5 -42.5 -22.5t-30 -41t-26 -50
t-29.5 -50t-42.5 -41.5t-63.5 -23v-1q0 -1 0.5 -1.5t0.5 -1.5q41 -1 68 -17.5t47 -41t34.5 -53t30.5 -53.5t35.5 -43t49.5 -22q-14 -11 -31.5 -16.5t-33.5 -3.5q-34 1 -56 16.5t-37.5 39.5t-29 52t-29 53t-37.5 43.5t-56 23.5q-2 -23 -3 -48.5t-1 -58.5q0 -18 2 -34.5
t8 -27.5t18 -16.5t32 -0.5q-4 -20 -22 -30.5t-42 -10.5q-23 0 -37.5 9.5t-22.5 24.5t-11.5 32.5t-4.5 32.5q-12 -29 -30.5 -49.5t-39.5 -33t-42 -18.5t-37 -6q-29 0 -54.5 8t-44.5 24.5t-30.5 41.5t-11.5 58q0 53 31 86.5t76.5 50.5t97.5 18.5t94 -9.5l1 43q0 65 -28 105.5
t-89 40.5q-27 0 -49 -13t-34.5 -34t-14 -47.5t12.5 -54.5zM361 216q-43 13 -81.5 11t-68 -15.5t-46.5 -37t-17 -54.5q0 -42 25.5 -63t58.5 -21q36 0 71 29t52 81z" />
    <glyph glyph-name=".null" horiz-adv-x="0" 
 />
    <glyph glyph-name="nonmarkingreturn" horiz-adv-x="213" 
 />
    <glyph glyph-name="space" unicode=" " horiz-adv-x="213" 
 />
    <glyph glyph-name="space" unicode="&#xa0;" horiz-adv-x="213" 
 />
    <glyph glyph-name="Acircumflex" unicode="&#xc2;" horiz-adv-x="688" 
d="M385 668q26 23 61 21q6 -34 16.5 -84.5l23.5 -109.5l27.5 -122.5l29 -123.5l27.5 -112l23 -89l39 -11q4 -19 -5 -38h-215q-6 20 6 38l40 11q15 3 23.5 7.5t6.5 20.5q-5 35 -12.5 76t-16.5 85q-62 2 -118 3t-117 -1l-51 -103.5t-40 -87.5l66 -11q5 -21 -5 -38h-174
q-4 21 6 43l16 6q10 3 23.5 13.5t22.5 24.5t32 56.5l53 100l63.5 122.5l63.5 124.5l53 107.5t32 71zM384 549l-24.5 -48l-32.5 -62l-38 -72.5l-40 -77.5q27 -2 50 -3.5t46 -1.5t47.5 0.5t54.5 2.5q-9 42 -18.5 82l-18 74.5t-14.5 62t-8 44.5zM544 768q-5 -11 -13.5 -19
t-22.5 -13l-111 77l-89 -73q-19 6 -31 26l120 130q18 10 33 0z" />
    <glyph glyph-name="Agrave" unicode="&#xc0;" horiz-adv-x="688" 
d="M385 668q26 23 61 21q6 -34 16.5 -84.5l23.5 -109.5l27.5 -122.5l29 -123.5l27.5 -112l23 -89l39 -11q4 -19 -5 -38h-215q-6 20 6 38l40 11q15 3 23.5 7.5t6.5 20.5q-5 35 -12.5 76t-16.5 85q-62 2 -118 3t-117 -1l-51 -103.5t-40 -87.5l66 -11q5 -21 -5 -38h-174
q-4 21 6 43l16 6q10 3 23.5 13.5t22.5 24.5t32 56.5l53 100l63.5 122.5l63.5 124.5l53 107.5t32 71zM384 549l-24.5 -48l-32.5 -62l-38 -72.5l-40 -77.5q27 -2 50 -3.5t46 -1.5t47.5 0.5t54.5 2.5q-9 42 -18.5 82l-18 74.5t-14.5 62t-8 44.5zM411 736l-175 131q9 28 28 47.5
t52 28.5l132 -176z" />
    <glyph glyph-name="Adieresis" unicode="&#xc4;" horiz-adv-x="688" 
d="M385 668q26 23 61 21q6 -34 16.5 -84.5l23.5 -109.5l27.5 -122.5l29 -123.5l27.5 -112l23 -89l39 -11q4 -19 -5 -38h-215q-6 20 6 38l40 11q15 3 23.5 7.5t6.5 20.5q-5 35 -12.5 76t-16.5 85q-62 2 -118 3t-117 -1l-51 -103.5t-40 -87.5l66 -11q5 -21 -5 -38h-174
q-4 21 6 43l16 6q10 3 23.5 13.5t22.5 24.5t32 56.5l53 100l63.5 122.5l63.5 124.5l53 107.5t32 71zM384 549l-24.5 -48l-32.5 -62l-38 -72.5l-40 -77.5q27 -2 50 -3.5t46 -1.5t47.5 0.5t54.5 2.5q-9 42 -18.5 82l-18 74.5t-14.5 62t-8 44.5zM519 881q2 -17 8.5 -35
t14.5 -30q-9 -13 -30 -24t-38 -11q-9 0 -15 6.5t-10.5 16t-6.5 20.5t-2 19q0 10 8 17t20 11t25.5 6.5t25.5 3.5zM352 881q2 -17 9 -35t16 -30q-10 -13 -31 -24t-38 -11q-8 0 -14 6.5t-10.5 16t-6.5 20.5t-2 19q0 10 7.5 17t19 11t25 6.5t25.5 3.5z" />
    <glyph glyph-name="Amacron" unicode="&#x100;" horiz-adv-x="652" 
d="M385 668q26 23 61 21q6 -34 16.5 -84.5l23.5 -109.5l27.5 -122.5l29 -123.5l27.5 -112l23 -89l39 -11q4 -19 -5 -38h-215q-6 20 6 38l40 11q15 3 23.5 7.5t6.5 20.5q-5 35 -12.5 76t-16.5 85q-62 2 -118 3t-117 -1l-51 -103.5t-40 -87.5l66 -11q5 -21 -5 -38h-174
q-4 21 6 43l16 6q10 3 23.5 13.5t22.5 24.5t32 56.5l53 100l63.5 122.5l63.5 124.5l53 107.5t32 71zM384 549l-24.5 -48l-32.5 -62l-38 -72.5l-40 -77.5q27 -2 50 -3.5t46 -1.5t47.5 0.5t54.5 2.5q-9 42 -18.5 82l-18 74.5t-14.5 62t-8 44.5zM548 801q4 -18 0.5 -30.5
t-12.5 -24.5h-251q-6 20 -1.5 32.5t17.5 22.5h247z" />
    <glyph glyph-name="Aogonek" unicode="&#x104;" horiz-adv-x="652" 
d="M385 668q26 23 61 21q6 -34 16.5 -84.5l23.5 -109.5l27.5 -122.5l29 -123.5l27.5 -112l23 -89l39 -11q4 -19 -5 -38h-39q-29 -24 -51.5 -57t-22.5 -63q0 -26 13.5 -41t35.5 -15q15 0 30 2.5t29 7.5q4 -4 7.5 -9t5.5 -17q-20 -13 -48.5 -22.5t-52.5 -13.5q-45 0 -70.5 22
t-25.5 60q0 21 9 41.5t23 40t32.5 36t38.5 28.5h-129q-6 20 6 38l40 11q15 3 23.5 7.5t6.5 20.5q-5 35 -12.5 76t-16.5 85q-62 2 -118 3t-117 -1l-51 -103.5t-40 -87.5l66 -11q5 -21 -5 -38h-174q-4 21 6 43l16 6q10 3 23.5 13.5t22.5 24.5t32 56.5l53 100l63.5 122.5
l63.5 124.5l53 107.5t32 71zM384 549l-24.5 -48l-32.5 -62l-38 -72.5l-40 -77.5q27 -2 50 -3.5t46 -1.5t47.5 0.5t54.5 2.5q-9 42 -18.5 82l-18 74.5t-14.5 62t-8 44.5z" />
    <glyph glyph-name="Aring" unicode="&#xc5;" horiz-adv-x="688" 
d="M385 668q26 23 61 21q6 -34 16.5 -84.5l23.5 -109.5l27.5 -122.5l29 -123.5l27.5 -112l23 -89l39 -11q4 -19 -5 -38h-215q-6 20 6 38l40 11q15 3 23.5 7.5t6.5 20.5q-5 35 -12.5 76t-16.5 85q-62 2 -118 3t-117 -1l-51 -103.5t-40 -87.5l66 -11q5 -21 -5 -38h-174
q-4 21 6 43l16 6q10 3 23.5 13.5t22.5 24.5t32 56.5l53 100l63.5 122.5l63.5 124.5l53 107.5t32 71zM517 842q0 -28 -10.5 -47.5t-26 -31.5t-32.5 -17.5t-30 -5.5q-40 0 -65 26t-25 65q0 29 11.5 48.5t27.5 31.5t32.5 17t26.5 5q41 0 66 -26.5t25 -64.5zM384 549l-24.5 -48
l-32.5 -62l-38 -72.5l-40 -77.5q27 -2 50 -3.5t46 -1.5t47.5 0.5t54.5 2.5q-9 42 -18.5 82l-18 74.5t-14.5 62t-8 44.5zM372 841q0 -26 18.5 -41t39.5 -15q6 0 15.5 1t14.5 3q5 5 9 14.5t4 27.5q0 25 -17.5 41.5t-39.5 16.5q-11 0 -17 -2t-11 -4q-3 -2 -9.5 -12t-6.5 -30z
" />
    <glyph glyph-name="Atilde" unicode="&#xc3;" horiz-adv-x="688" 
d="M385 668q26 23 61 21q6 -34 16.5 -84.5l23.5 -109.5l27.5 -122.5l29 -123.5l27.5 -112l23 -89l39 -11q4 -19 -5 -38h-215q-6 20 6 38l40 11q15 3 23.5 7.5t6.5 20.5q-5 35 -12.5 76t-16.5 85q-62 2 -118 3t-117 -1l-51 -103.5t-40 -87.5l66 -11q5 -21 -5 -38h-174
q-4 21 6 43l16 6q10 3 23.5 13.5t22.5 24.5t32 56.5l53 100l63.5 122.5l63.5 124.5l53 107.5t32 71zM384 549l-24.5 -48l-32.5 -62l-38 -72.5l-40 -77.5q27 -2 50 -3.5t46 -1.5t47.5 0.5t54.5 2.5q-9 42 -18.5 82l-18 74.5t-14.5 62t-8 44.5zM274 841q33 34 58 43t44.5 5
t36.5 -15.5t34.5 -19t38 -5.5t47.5 26q9 -4 15.5 -16t5.5 -26q-32 -33 -58.5 -43t-49 -7.5t-42 13t-38 18t-36.5 6.5t-37 -21q-22 16 -19 42z" />
    <glyph glyph-name="AE" unicode="&#xc6;" horiz-adv-x="810" 
d="M279 -1q-2 10 -0.5 20t6.5 19l46 10q12 3 20.5 8t15.5 23t14.5 55t17.5 103q-50 1 -94.5 2t-90.5 -1l-72 -106.5l-56 -83.5l62 -11q6 -19 -4 -38h-174q-5 21 7 43l16 6q10 3 21.5 9.5t23.5 18.5q14 14 43 53l66 90.5l78.5 111l79.5 115.5l69 102l48 72l-61 9q-1 9 0 18.5
t5 19.5h341q31 0 65 4.5t52 17.5l9 -9l-45 -170q-23 -8 -40 0l14 104q-58 5 -112 5.5t-105 -4.5q-14 -49 -25.5 -114t-21.5 -138q63 -2 105 0t63 11l27 56q11 4 21.5 3.5t20.5 -3.5l-48 -194q-15 -7 -34 -2l11 80q-39 1 -83 1t-90 -2q-3 -26 -8 -62.5t-9.5 -74t-8 -71.5
t-3.5 -54q92 -10 145.5 -3.5t72.5 14.5l58 98q9 4 16 3.5t14 -3.5l-47 -162l-19 -12q-8 4 -34 8.5t-74 4.5h-315zM416 349q3 26 7.5 57t8 62l7 59.5t5.5 51.5l-39 -58.5l-47.5 -71.5l-53.5 -79l-56 -82q38 -3 75 -3t84 3q2 14 4.5 29t4.5 32z" />
    <glyph glyph-name="B" unicode="B" horiz-adv-x="617" 
d="M190 249l14.5 108.5l14 104.5t11.5 92.5t8 74.5q-22 -2 -41.5 -4t-36.5 -4q-8 20 3 39l89 14q16 2 44.5 4.5l58.5 5t55 4t34 1.5q15 0 41 -5t51.5 -20t44.5 -42t19 -70q0 -42 -12 -73t-31.5 -53t-44 -36t-48.5 -23v-7q29 -4 51.5 -16t37.5 -29t22.5 -38.5t7.5 -43.5
q0 -66 -26 -111t-71.5 -72.5t-108 -39t-135.5 -11.5h-177q-5 20 5 38l59 11q10 2 17.5 7.5t14 25.5t13 59t16.5 109zM355 326q-20 0 -39.5 -2.5t-35.5 -7.5q-11 -70 -17 -134t-14 -124q23 -3 47.5 -3.5t47.5 0.5t43 4t34 8q27 13 50 46t23 87q0 55 -32.5 90.5t-106.5 35.5z
M330 636q-3 -22 -8 -53.5l-11 -66.5t-11.5 -71l-10.5 -67q23 -1 45 -1h41q27 0 51 8.5t42 26t29 45t11 65.5q0 115 -132 115z" />
    <glyph glyph-name="C" unicode="C" horiz-adv-x="624" 
d="M673 677l-47 -188q-22 -9 -37 0l4 102q-17 15 -57 26t-84 11q-31 0 -68 -5.5t-63 -18.5q-18 -10 -43 -35t-47.5 -63.5t-38 -89.5t-15.5 -111q0 -49 12 -97t40.5 -86t77 -61.5t121.5 -23.5q47 0 83 14.5t72 31.5q5 -6 7.5 -15t-0.5 -20q-26 -16 -56.5 -29t-61.5 -22.5
t-60.5 -14.5t-51.5 -5q-60 0 -110.5 21t-87 58.5t-56.5 90t-20 115.5q0 98 31.5 177t86 134.5t128.5 85t159 29.5q20 0 41.5 -2.5t43 -4.5t43 -1t42.5 9z" />
    <glyph glyph-name="Cacute" unicode="&#x106;" horiz-adv-x="624" 
d="M673 677l-47 -188q-22 -9 -37 0l4 102q-17 15 -57 26t-84 11q-31 0 -68 -5.5t-63 -18.5q-18 -10 -43 -35t-47.5 -63.5t-38 -89.5t-15.5 -111q0 -49 12 -97t40.5 -86t77 -61.5t121.5 -23.5q47 0 83 14.5t72 31.5q5 -6 7.5 -15t-0.5 -20q-26 -16 -56.5 -29t-61.5 -22.5
t-60.5 -14.5t-51.5 -5q-60 0 -110.5 21t-87 58.5t-56.5 90t-20 115.5q0 98 31.5 177t86 134.5t128.5 85t159 29.5q20 0 41.5 -2.5t43 -4.5t43 -1t42.5 9zM424 764l152 150q32 -8 48 -24.5t24 -43.5l-201 -109z" />
    <glyph glyph-name="Ccaron" unicode="&#x10c;" horiz-adv-x="624" 
d="M673 677l-47 -188q-22 -9 -37 0l4 102q-17 15 -57 26t-84 11q-31 0 -68 -5.5t-63 -18.5q-18 -10 -43 -35t-47.5 -63.5t-38 -89.5t-15.5 -111q0 -49 12 -97t40.5 -86t77 -61.5t121.5 -23.5q47 0 83 14.5t72 31.5q5 -6 7.5 -15t-0.5 -20q-26 -16 -56.5 -29t-61.5 -22.5
t-60.5 -14.5t-51.5 -5q-60 0 -110.5 21t-87 58.5t-56.5 90t-20 115.5q0 98 31.5 177t86 134.5t128.5 85t159 29.5q20 0 41.5 -2.5t43 -4.5t43 -1t42.5 9zM344 836q5 10 12 17t20 12l100 -70l79 65q18 -3 27 -23l-107 -116h-28z" />
    <glyph glyph-name="Ccedilla" unicode="&#xc7;" horiz-adv-x="661" 
d="M673 677l-47 -188q-22 -9 -37 0l4 102q-17 15 -57 26t-84 11q-31 0 -68 -5.5t-63 -18.5q-18 -10 -43 -35t-47.5 -63.5t-38 -89.5t-15.5 -111q0 -49 12 -97t40.5 -86t77 -61.5t121.5 -23.5q47 0 83 14.5t72 31.5q5 -6 7.5 -15t-0.5 -20q-26 -16 -56.5 -29t-61.5 -22.5
t-60.5 -14.5t-51.5 -5q-60 0 -110.5 21t-87 58.5t-56.5 90t-20 115.5q0 98 31.5 177t86 134.5t128.5 85t159 29.5q20 0 41.5 -2.5t43 -4.5t43 -1t42.5 9zM291 -102q-1 21 9 42q21 4 45 3.5t44.5 -8.5t34.5 -25t14 -46q0 -28 -13.5 -51t-35.5 -40t-51 -28.5t-59 -17.5
q-10 13 -10 36q43 11 68.5 34t25.5 55q0 27 -22.5 39t-49.5 7z" />
    <glyph glyph-name="D" unicode="D" horiz-adv-x="713" 
d="M254 59q23 -5 53 -6.5t62.5 0.5t66.5 8.5t66 18.5q22 10 46.5 34t45.5 61.5t34.5 89.5t13.5 118q0 61 -17 109t-54.5 80t-96.5 47t-143 10q-10 -54 -20.5 -124.5l-24.5 -164.5q-12 -84 -21 -154t-11 -127zM76 -1q-2 8 -1 18.5t7 20.5l50 10q10 2 16.5 7t14 31.5t17 84
t24.5 164.5l11.5 86.5t10 81l8 70t6.5 52.5l-86 11q-4 16 4 35q19 2 45.5 3.5t55 2.5l57.5 2t53 1.5t40.5 1t20.5 0.5q72 0 128.5 -13.5t95.5 -43.5t59.5 -78t20.5 -117q0 -87 -19 -152.5t-52 -113.5t-77 -79.5t-95.5 -50.5t-107 -27t-110.5 -8h-197z" />
    <glyph glyph-name="Dcaron" unicode="&#x10e;" horiz-adv-x="713" 
d="M254 59q23 -5 53 -6.5t62.5 0.5t66.5 8.5t66 18.5q22 10 46.5 34t45.5 61.5t34.5 89.5t13.5 118q0 61 -17 109t-54.5 80t-96.5 47t-143 10q-10 -54 -20.5 -124.5l-24.5 -164.5q-12 -84 -21 -154t-11 -127zM76 -1q-2 8 -1 18.5t7 20.5l50 10q10 2 16.5 7t14 31.5t17 84
t24.5 164.5l11.5 86.5t10 81l8 70t6.5 52.5l-86 11q-4 16 4 35q19 2 45.5 3.5t55 2.5l57.5 2t53 1.5t40.5 1t20.5 0.5q72 0 128.5 -13.5t95.5 -43.5t59.5 -78t20.5 -117q0 -87 -19 -152.5t-52 -113.5t-77 -79.5t-95.5 -50.5t-107 -27t-110.5 -8h-197zM346 836q5 10 12 17
t20 12l100 -70l79 65q18 -3 27 -23l-107 -116h-28z" />
    <glyph glyph-name="Dcroat" unicode="&#x110;" horiz-adv-x="713" 
d="M76 -1q-2 8 -1 18.5t7 20.5l50 10q6 1 11 3t9.5 10t9 24t10 45.5t12.5 75.5l17 113h-108q-6 20 -1.5 33t17.5 22h100l10 75.5t8.5 69.5t7 60t5.5 46l-86 11q-4 16 4 35q19 2 45.5 3.5t55 2.5l57.5 2t53 1.5t40.5 1t20.5 0.5q72 0 128.5 -13.5t95.5 -43.5t59.5 -78
t20.5 -117q0 -87 -19 -152.5t-52 -113.5t-77 -79.5t-95.5 -50.5t-107 -27t-110.5 -8h-197zM254 59q23 -5 53 -6.5t62.5 0.5t66.5 8.5t66 18.5q22 10 46.5 34t45.5 61.5t34.5 89.5t13.5 118q0 61 -17 109t-54.5 80t-96.5 47t-143 10q-9 -50 -18 -112t-22 -143h139
q4 -17 0.5 -30t-12.5 -25h-135q-11 -77 -19 -141.5t-10 -118.5z" />
    <glyph glyph-name="E" unicode="E" horiz-adv-x="605" 
d="M70 -1q-5 21 6 39l48 10q14 3 23 10t17.5 36t18.5 88t25 167l9 72.5l9.5 77t7.5 69t3 48.5l-85 13q-3 17 5 38h342q15 0 32 1t32.5 3.5t29 7t22.5 10.5l9 -9l-45 -170q-23 -8 -40 0l14 104q-113 10 -216 1q-15 -49 -26.5 -114t-20.5 -138q62 -2 104 0t63 11l27 56
q11 4 21.5 3.5t20.5 -3.5l-47 -194q-16 -7 -34 -2l11 80q-38 0 -82.5 0.5t-90.5 -1.5q-4 -26 -9 -62.5t-9.5 -74t-8 -71.5t-3.5 -54q93 -10 146.5 -3.5t73.5 14.5l57 98q9 4 16 3.5t15 -3.5l-49 -162l-16 -12q-8 4 -35.5 8.5t-75.5 4.5h-315z" />
    <glyph glyph-name="Eacute" unicode="&#xc9;" horiz-adv-x="633" 
d="M70 -1q-5 21 6 39l48 10q14 3 23 10t17.5 36t18.5 88t25 167l9 72.5l9.5 77t7.5 69t3 48.5l-85 13q-3 17 5 38h342q15 0 32 1t32.5 3.5t29 7t22.5 10.5l9 -9l-45 -170q-23 -8 -40 0l14 104q-113 10 -216 1q-15 -49 -26.5 -114t-20.5 -138q62 -2 104 0t63 11l27 56
q11 4 21.5 3.5t20.5 -3.5l-47 -194q-16 -7 -34 -2l11 80q-38 0 -82.5 0.5t-90.5 -1.5q-4 -26 -9 -62.5t-9.5 -74t-8 -71.5t-3.5 -54q93 -10 146.5 -3.5t73.5 14.5l57 98q9 4 16 3.5t15 -3.5l-49 -162l-16 -12q-8 4 -35.5 8.5t-75.5 4.5h-315zM362 766l152 150
q32 -8 48 -24.5t24 -43.5l-201 -109z" />
    <glyph glyph-name="Ecaron" unicode="&#x11a;" horiz-adv-x="605" 
d="M70 -1q-5 21 6 39l48 10q14 3 23 10t17.5 36t18.5 88t25 167l9 72.5l9.5 77t7.5 69t3 48.5l-85 13q-3 17 5 38h342q15 0 32 1t32.5 3.5t29 7t22.5 10.5l9 -9l-45 -170q-23 -8 -40 0l14 104q-113 10 -216 1q-15 -49 -26.5 -114t-20.5 -138q62 -2 104 0t63 11l27 56
q11 4 21.5 3.5t20.5 -3.5l-47 -194q-16 -7 -34 -2l11 80q-38 0 -82.5 0.5t-90.5 -1.5q-4 -26 -9 -62.5t-9.5 -74t-8 -71.5t-3.5 -54q93 -10 146.5 -3.5t73.5 14.5l57 98q9 4 16 3.5t15 -3.5l-49 -162l-16 -12q-8 4 -35.5 8.5t-75.5 4.5h-315zM304 833q5 10 12 17t20 12
l100 -70l79 65q18 -3 27 -23l-107 -116h-28z" />
    <glyph glyph-name="Ecircumflex" unicode="&#xca;" horiz-adv-x="633" 
d="M70 -1q-5 21 6 39l48 10q14 3 23 10t17.5 36t18.5 88t25 167l9 72.5l9.5 77t7.5 69t3 48.5l-85 13q-3 17 5 38h342q15 0 32 1t32.5 3.5t29 7t22.5 10.5l9 -9l-45 -170q-23 -8 -40 0l14 104q-113 10 -216 1q-15 -49 -26.5 -114t-20.5 -138q62 -2 104 0t63 11l27 56
q11 4 21.5 3.5t20.5 -3.5l-47 -194q-16 -7 -34 -2l11 80q-38 0 -82.5 0.5t-90.5 -1.5q-4 -26 -9 -62.5t-9.5 -74t-8 -71.5t-3.5 -54q93 -10 146.5 -3.5t73.5 14.5l57 98q9 4 16 3.5t15 -3.5l-49 -162l-16 -12q-8 4 -35.5 8.5t-75.5 4.5h-315zM540 768q-5 -11 -13.5 -19
t-22.5 -13l-111 77l-89 -73q-19 6 -31 26l120 130q18 10 33 0z" />
    <glyph glyph-name="Edieresis" unicode="&#xcb;" horiz-adv-x="633" 
d="M70 -1q-5 21 6 39l48 10q14 3 23 10t17.5 36t18.5 88t25 167l9 72.5l9.5 77t7.5 69t3 48.5l-85 13q-3 17 5 38h342q15 0 32 1t32.5 3.5t29 7t22.5 10.5l9 -9l-45 -170q-23 -8 -40 0l14 104q-113 10 -216 1q-15 -49 -26.5 -114t-20.5 -138q62 -2 104 0t63 11l27 56
q11 4 21.5 3.5t20.5 -3.5l-47 -194q-16 -7 -34 -2l11 80q-38 0 -82.5 0.5t-90.5 -1.5q-4 -26 -9 -62.5t-9.5 -74t-8 -71.5t-3.5 -54q93 -10 146.5 -3.5t73.5 14.5l57 98q9 4 16 3.5t15 -3.5l-49 -162l-16 -12q-8 4 -35.5 8.5t-75.5 4.5h-315zM523 881q2 -17 8.5 -35
t14.5 -30q-9 -13 -30 -24t-38 -11q-9 0 -15 6.5t-10.5 16t-6.5 20.5t-2 19q0 10 8 17t20 11t25.5 6.5t25.5 3.5zM356 881q2 -17 9 -35t16 -30q-10 -13 -31 -24t-38 -11q-8 0 -14 6.5t-10.5 16t-6.5 20.5t-2 19q0 10 7.5 17t19 11t25 6.5t25.5 3.5z" />
    <glyph glyph-name="Edotaccent" unicode="&#x116;" horiz-adv-x="605" 
d="M70 -1q-5 21 6 39l48 10q14 3 23 10t17.5 36t18.5 88t25 167l9 72.5l9.5 77t7.5 69t3 48.5l-85 13q-3 17 5 38h342q15 0 32 1t32.5 3.5t29 7t22.5 10.5l9 -9l-45 -170q-23 -8 -40 0l14 104q-113 10 -216 1q-15 -49 -26.5 -114t-20.5 -138q62 -2 104 0t63 11l27 56
q11 4 21.5 3.5t20.5 -3.5l-47 -194q-16 -7 -34 -2l11 80q-38 0 -82.5 0.5t-90.5 -1.5q-4 -26 -9 -62.5t-9.5 -74t-8 -71.5t-3.5 -54q93 -10 146.5 -3.5t73.5 14.5l57 98q9 4 16 3.5t15 -3.5l-49 -162l-16 -12q-8 4 -35.5 8.5t-75.5 4.5h-315zM467 778q-5 -33 -30.5 -44
t-52.5 -2l-23 42q3 31 26 44.5t58 4.5z" />
    <glyph glyph-name="Egrave" unicode="&#xc8;" horiz-adv-x="633" 
d="M70 -1q-5 21 6 39l48 10q14 3 23 10t17.5 36t18.5 88t25 167l9 72.5l9.5 77t7.5 69t3 48.5l-85 13q-3 17 5 38h342q15 0 32 1t32.5 3.5t29 7t22.5 10.5l9 -9l-45 -170q-23 -8 -40 0l14 104q-113 10 -216 1q-15 -49 -26.5 -114t-20.5 -138q62 -2 104 0t63 11l27 56
q11 4 21.5 3.5t20.5 -3.5l-47 -194q-16 -7 -34 -2l11 80q-38 0 -82.5 0.5t-90.5 -1.5q-4 -26 -9 -62.5t-9.5 -74t-8 -71.5t-3.5 -54q93 -10 146.5 -3.5t73.5 14.5l57 98q9 4 16 3.5t15 -3.5l-49 -162l-16 -12q-8 4 -35.5 8.5t-75.5 4.5h-315zM443 736l-175 131q9 28 28 47.5
t52 28.5l132 -176z" />
    <glyph glyph-name="Emacron" unicode="&#x112;" horiz-adv-x="605" 
d="M70 -1q-5 21 6 39l48 10q14 3 23 10t17.5 36t18.5 88t25 167l9 72.5l9.5 77t7.5 69t3 48.5l-85 13q-3 17 5 38h342q15 0 32 1t32.5 3.5t29 7t22.5 10.5l9 -9l-45 -170q-23 -8 -40 0l14 104q-113 10 -216 1q-15 -49 -26.5 -114t-20.5 -138q62 -2 104 0t63 11l27 56
q11 4 21.5 3.5t20.5 -3.5l-47 -194q-16 -7 -34 -2l11 80q-38 0 -82.5 0.5t-90.5 -1.5q-4 -26 -9 -62.5t-9.5 -74t-8 -71.5t-3.5 -54q93 -10 146.5 -3.5t73.5 14.5l57 98q9 4 16 3.5t15 -3.5l-49 -162l-16 -12q-8 4 -35.5 8.5t-75.5 4.5h-315zM547 791q4 -18 0.5 -30.5
t-12.5 -24.5h-251q-6 20 -1.5 32.5t17.5 22.5h247z" />
    <glyph glyph-name="Eogonek" unicode="&#x118;" horiz-adv-x="605" 
d="M70 -1q-5 21 6 39l48 10q14 3 23 10t17.5 36t18.5 88t25 167l9 72.5l9.5 77t7.5 69t3 48.5l-85 13q-3 17 5 38h342q15 0 32 1t32.5 3.5t29 7t22.5 10.5l9 -9l-45 -170q-23 -8 -40 0l14 104q-113 10 -216 1q-15 -49 -26.5 -114t-20.5 -138q62 -2 104 0t63 11l27 56
q11 4 21.5 3.5t20.5 -3.5l-47 -194q-16 -7 -34 -2l11 80q-38 0 -82.5 0.5t-90.5 -1.5q-4 -26 -9 -62.5t-9.5 -74t-8 -71.5t-3.5 -54q93 -10 146.5 -3.5t73.5 14.5l57 98q9 4 16 3.5t15 -3.5l-49 -162l-16 -12q-6 3 -21 6t-40 5q-29 -24 -50.5 -56.5t-21.5 -61.5
q0 -26 13.5 -41t35.5 -15q15 0 30 2.5t29 7.5q4 -4 7.5 -9t5.5 -17q-20 -13 -48.5 -22.5t-52.5 -13.5q-45 0 -70.5 22t-25.5 60q0 21 9 41.5t23 40t32.5 36t38.5 28.5h-5h-315z" />
    <glyph glyph-name="F" unicode="F" horiz-adv-x="590" 
d="M72 -1q-6 18 5 38l45 11q9 2 16 4.5t13 11t11 25.5t11 48.5t13.5 80t17.5 120.5q4 33 9.5 74.5l10.5 81.5t8.5 73.5t4.5 50.5l-86 12q-1 9 -0.5 18t5.5 19h305q57 0 100 5.5t59 16.5l11 -8l-52 -159q-21 -6 -35 0l14 92q-58 6 -115 6t-107 -5q-17 -51 -29 -122t-23 -149
q34 -2 66 -2.5t58.5 0t46 2.5t29.5 7l27 46q21 7 43 0l-46 -169q-16 -6 -33 -1l7 67q-21 0 -46 0.5l-52 1t-54.5 0.5t-52.5 -2l-7 -62l-8 -69.5t-6.5 -65t-2.5 -49.5l132 -11q3 -18 -4 -38h-309z" />
    <glyph glyph-name="G" unicode="G" horiz-adv-x="705" 
d="M611 66q-34 -21 -74 -38t-77.5 -28t-68.5 -17t-49 -6q-68 0 -116.5 22t-79 59.5t-45 88.5t-14.5 108q0 102 31.5 180.5t85.5 132.5t125 82t150 28q24 0 44 -3t41.5 -5t45.5 -1t55 9l12 -10l-50 -202q-20 -9 -41 0l8 111q-26 19 -68 29.5t-103 10.5q-24 0 -48 -3.5
t-41 -9.5q-25 -11 -52.5 -32.5t-50 -58.5t-37.5 -92t-15 -133q0 -37 10 -81t34.5 -81.5t66 -63t104.5 -25.5q38 0 69 11t70 30q5 13 9.5 32.5t7.5 41.5t4 44.5t1 40.5l-101 11q-4 9 -2 18.5t7 19.5h247q3 -10 1.5 -19.5t-6.5 -18.5l-34 -11q-13 -4 -20.5 -10.5t-13 -24
t-10.5 -49.5t-12 -87z" />
    <glyph glyph-name="Gcommaaccent" unicode="&#x122;" horiz-adv-x="705" 
d="M611 66q-34 -21 -74 -38t-77.5 -28t-68.5 -17t-49 -6q-68 0 -116.5 22t-79 59.5t-45 88.5t-14.5 108q0 102 31.5 180.5t85.5 132.5t125 82t150 28q24 0 44 -3t41.5 -5t45.5 -1t55 9l12 -10l-50 -202q-20 -9 -41 0l8 111q-26 19 -68 29.5t-103 10.5q-24 0 -48 -3.5
t-41 -9.5q-25 -11 -52.5 -32.5t-50 -58.5t-37.5 -92t-15 -133q0 -37 10 -81t34.5 -81.5t66 -63t104.5 -25.5q38 0 69 11t70 30q5 13 9.5 32.5t7.5 41.5t4 44.5t1 40.5l-101 11q-4 9 -2 18.5t7 19.5h247q3 -10 1.5 -19.5t-6.5 -18.5l-34 -11q-13 -4 -20.5 -10.5t-13 -24
t-10.5 -49.5t-12 -87zM414 -136q-5 -36 -21.5 -64.5t-36 -49t-37.5 -31t-25 -10.5q-10 10 -8 21q19 15 33.5 35t18.5 48q2 17 -2 30t-11.5 22t-15.5 15.5t-13 11.5q17 44 53 70q36 0 53.5 -26.5t11.5 -71.5z" />
    <glyph glyph-name="H" unicode="H" horiz-adv-x="828" 
d="M533 -1q-4 16 5 38l51 11q8 1 14.5 7t11.5 21t10 40.5t11 67.5l18 131q-58 3 -107 4t-93.5 1t-87.5 -1t-89 -3q-6 -43 -10.5 -79.5t-8 -68.5l-6.5 -61.5l-6 -58.5l58 -11q4 -19 -5 -38h-229q-3 22 6 38l55 11q9 1 15 7.5t11 21.5t10 40.5t12 66.5q8 50 16.5 111t15.5 121
t12 113.5t6 88.5l-75 11q-6 17 4 38h249q4 -20 -4 -38l-53 -11q-8 -2 -14.5 -8.5t-13.5 -28.5t-15 -65.5t-19 -118.5l-4 -24q90 -5 183.5 -5.5t193.5 5.5q9 72 16 137.5t9 107.5l-60 11q-5 18 6 38h239q4 -16 -6 -38l-51 -11q-11 -3 -19.5 -10.5t-16 -30t-15.5 -65
t-18 -115.5l-14.5 -109t-11.5 -90.5l-9 -77.5t-7 -72l76 -11q4 -18 -5 -38h-241z" />
    <glyph glyph-name="I" unicode="I" horiz-adv-x="414" 
d="M68 -1q-2 18 7 38l60 11q15 3 25 8t17.5 19t13 39t11.5 69q6 51 14 112l15.5 121t13 113.5t6.5 88.5l-98 11q-4 18 5 38h299q2 -9 0 -18.5t-5 -19.5l-54 -11q-19 -4 -30.5 -9.5t-20.5 -26t-17 -63.5t-18 -123q-9 -60 -15 -109l-11 -90t-9 -77t-7 -72l98 -11q3 -18 -4 -38
h-296z" />
    <glyph glyph-name="Iacute" unicode="&#xcd;" horiz-adv-x="432" 
d="M68 -1q-2 18 7 38l60 11q15 3 25 8t17.5 19t13 39t11.5 69q6 51 14 112l15.5 121t13 113.5t6.5 88.5l-98 11q-4 18 5 38h299q2 -9 0 -18.5t-5 -19.5l-54 -11q-19 -4 -30.5 -9.5t-20.5 -26t-17 -63.5t-18 -123q-9 -60 -15 -109l-11 -90t-9 -77t-7 -72l98 -11q3 -18 -4 -38
h-296zM253 766l152 150q32 -8 48 -24.5t24 -43.5l-201 -109z" />
    <glyph glyph-name="Icircumflex" unicode="&#xce;" horiz-adv-x="432" 
d="M68 -1q-2 18 7 38l60 11q15 3 25 8t17.5 19t13 39t11.5 69q6 51 14 112l15.5 121t13 113.5t6.5 88.5l-98 11q-4 18 5 38h299q2 -9 0 -18.5t-5 -19.5l-54 -11q-19 -4 -30.5 -9.5t-20.5 -26t-17 -63.5t-18 -123q-9 -60 -15 -109l-11 -90t-9 -77t-7 -72l98 -11q3 -18 -4 -38
h-296zM452 768q-5 -11 -13.5 -19t-22.5 -13l-111 77l-89 -73q-19 6 -31 26l120 130q18 10 33 0z" />
    <glyph glyph-name="Idieresis" unicode="&#xcf;" horiz-adv-x="432" 
d="M68 -1q-2 18 7 38l60 11q15 3 25 8t17.5 19t13 39t11.5 69q6 51 14 112l15.5 121t13 113.5t6.5 88.5l-98 11q-4 18 5 38h299q2 -9 0 -18.5t-5 -19.5l-54 -11q-19 -4 -30.5 -9.5t-20.5 -26t-17 -63.5t-18 -123q-9 -60 -15 -109l-11 -90t-9 -77t-7 -72l98 -11q3 -18 -4 -38
h-296zM423 881q2 -17 8.5 -35t14.5 -30q-9 -13 -30 -24t-38 -11q-9 0 -15 6.5t-10.5 16t-6.5 20.5t-2 19q0 10 8 17t20 11t25.5 6.5t25.5 3.5zM256 881q2 -17 9 -35t16 -30q-10 -13 -31 -24t-38 -11q-8 0 -14 6.5t-10.5 16t-6.5 20.5t-2 19q0 10 7.5 17t19 11t25 6.5
t25.5 3.5z" />
    <glyph glyph-name="Igrave" unicode="&#xcc;" horiz-adv-x="432" 
d="M68 -1q-2 18 7 38l60 11q15 3 25 8t17.5 19t13 39t11.5 69q6 51 14 112l15.5 121t13 113.5t6.5 88.5l-98 11q-4 18 5 38h299q2 -9 0 -18.5t-5 -19.5l-54 -11q-19 -4 -30.5 -9.5t-20.5 -26t-17 -63.5t-18 -123q-9 -60 -15 -109l-11 -90t-9 -77t-7 -72l98 -11q3 -18 -4 -38
h-296zM290 736l-175 131q9 28 28 47.5t52 28.5l132 -176z" />
    <glyph glyph-name="Imacron" horiz-adv-x="414" 
d="M68 -1q-2 18 7 38l60 11q15 3 25 8t17.5 19t13 39t11.5 69q6 51 14 112l15.5 121t13 113.5t6.5 88.5l-98 11q-4 18 5 38h299q2 -9 0 -18.5t-5 -19.5l-54 -11q-19 -4 -30.5 -9.5t-20.5 -26t-17 -63.5t-18 -123q-9 -60 -15 -109l-11 -90t-9 -77t-7 -72l98 -11q3 -18 -4 -38
h-296zM441 791q4 -18 0.5 -30.5t-12.5 -24.5h-251q-6 20 -1.5 32.5t17.5 22.5h247z" />
    <glyph glyph-name="Iogonek" unicode="&#x12e;" horiz-adv-x="414" 
d="M316 -1q-29 -24 -51.5 -57t-22.5 -63q0 -26 13.5 -41t35.5 -15q15 0 30 2.5t29 7.5q4 -4 7.5 -9t5.5 -17q-20 -13 -48.5 -22.5t-52.5 -13.5q-45 0 -70.5 22t-25.5 60q0 21 9 41.5t23 40t32.5 36t38.5 28.5h-201q-2 18 7 38l60 11q15 3 25 8t17.5 19t13 39t11.5 69
q6 51 14 112l15.5 121t13 113.5t6.5 88.5l-98 11q-4 18 5 38h299q2 -9 0 -18.5t-5 -19.5l-54 -11q-19 -4 -30.5 -9.5t-20.5 -26t-17 -63.5t-18 -123q-9 -60 -15 -109l-11 -90t-9 -77t-7 -72l98 -11q3 -18 -4 -38h-48z" />
    <glyph glyph-name="J" unicode="J" horiz-adv-x="382" 
d="M286 254q-18 -122 -49.5 -200.5t-67.5 -125t-72.5 -64.5t-63.5 -18q-23 0 -36 12.5t-15.5 29.5t6.5 34.5t31 28.5l87 -17q11 10 22 22.5t21.5 38.5t20.5 70.5t20 118.5l15.5 111.5t16 120.5t12.5 113.5t7 88.5l-103 11q-5 20 6 38h302q3 -21 -5 -38l-54 -11
q-13 -3 -22 -7.5t-16 -17t-13.5 -35.5t-13.5 -63t-15.5 -98.5z" />
    <glyph glyph-name="K" unicode="K" horiz-adv-x="695" 
d="M731 667q1 -9 -1 -19t-9 -20l-47 -11q-12 -3 -31.5 -17.5t-43 -37l-50 -50l-53 -55.5l-52 -54l-46.5 -46q27 -29 59 -71l67.5 -89t75 -94t82.5 -86q3 -12 -8 -30h-55q-26 0 -55.5 24.5t-60.5 61t-61 79.5l-56.5 80t-47.5 61.5t-33 24.5h-26q-6 -43 -10.5 -79.5l-8.5 -69
l-7.5 -62.5t-6.5 -59l61 -11q3 -20 -6 -38h-237q-3 21 7 38l60 11q9 1 15.5 5.5t11.5 18t10 40t11 73.5l15.5 111.5t16 120t13 112.5t6.5 88l-76 11q-3 20 6 39h235q5 -21 -5 -39l-39 -11q-7 -2 -13.5 -7.5t-13 -26.5t-14.5 -64t-19 -122q-2 -11 -3 -20.5t-3 -20.5
q13 0 26 1.5t22 6.5q13 7 40.5 32t61.5 61l70.5 78t66.5 82l-42 11q-2 22 6 39h195z" />
    <glyph glyph-name="Kcommaaccent" unicode="&#x136;" horiz-adv-x="695" 
d="M731 667q1 -9 -1 -19t-9 -20l-47 -11q-12 -3 -31.5 -17.5t-43 -37l-50 -50l-53 -55.5l-52 -54l-46.5 -46q27 -29 59 -71l67.5 -89t75 -94t82.5 -86q3 -12 -8 -30h-55q-26 0 -55.5 24.5t-60.5 61t-61 79.5l-56.5 80t-47.5 61.5t-33 24.5h-26q-6 -43 -10.5 -79.5l-8.5 -69
l-7.5 -62.5t-6.5 -59l61 -11q3 -20 -6 -38h-237q-3 21 7 38l60 11q9 1 15.5 5.5t11.5 18t10 40t11 73.5l15.5 111.5t16 120t13 112.5t6.5 88l-76 11q-3 20 6 39h235q5 -21 -5 -39l-39 -11q-7 -2 -13.5 -7.5t-13 -26.5t-14.5 -64t-19 -122q-2 -11 -3 -20.5t-3 -20.5
q13 0 26 1.5t22 6.5q13 7 40.5 32t61.5 61l70.5 78t66.5 82l-42 11q-2 22 6 39h195zM408 -136q-5 -36 -21.5 -64.5t-36 -49t-37.5 -31t-25 -10.5q-10 10 -8 21q19 15 33.5 35t18.5 48q2 17 -2 30t-11.5 22t-15.5 15.5t-13 11.5q17 44 53 70q36 0 53.5 -26.5t11.5 -71.5z" />
    <glyph glyph-name="L" unicode="L" horiz-adv-x="604" 
d="M70 -1q-4 16 6 39l51 10q14 3 23 11.5t17.5 38.5t18 89t24.5 162q4 33 9.5 73.5l10.5 78.5t8 70t3 47l-88 11q-5 21 6 38h266q5 -20 -6 -38l-50 -11q-15 -3 -24 -10.5t-16.5 -34.5t-16 -82l-22.5 -152q-3 -20 -8 -58.5l-10.5 -82t-10 -84t-4.5 -63.5q61 -5 105.5 -5t74 4
t45.5 11.5t21 19.5l60 126q17 10 35 0l-61 -209l-17 -12q-4 3 -19 5t-34.5 4t-41.5 3t-41 1h-314z" />
    <glyph glyph-name="Lacute" unicode="&#x139;" horiz-adv-x="604" 
d="M70 -1q-4 16 6 39l51 10q14 3 23 11.5t17.5 38.5t18 89t24.5 162q4 33 9.5 73.5l10.5 78.5t8 70t3 47l-88 11q-5 21 6 38h266q5 -20 -6 -38l-50 -11q-15 -3 -24 -10.5t-16.5 -34.5t-16 -82l-22.5 -152q-3 -20 -8 -58.5l-10.5 -82t-10 -84t-4.5 -63.5q61 -5 105.5 -5t74 4
t45.5 11.5t21 19.5l60 126q17 10 35 0l-61 -209l-17 -12q-4 3 -19 5t-34.5 4t-41.5 3t-41 1h-314zM338 723l152 150q32 -8 48 -24.5t24 -43.5l-201 -109z" />
    <glyph glyph-name="Lcaron" unicode="&#x13d;" horiz-adv-x="604" 
d="M587 608q-5 -36 -21.5 -64.5t-36 -49t-37.5 -31.5t-25 -11q-11 10 -9 21q18 15 33 36t20 47q2 18 -2.5 31t-12 22.5t-15.5 16t-13 11.5q17 44 55 70q36 0 53 -26t11 -73zM70 -1q-4 16 6 39l51 10q14 3 23 11.5t17.5 38.5t18 89t24.5 162q4 33 9.5 73.5l10.5 78.5t8 70
t3 47l-88 11q-5 21 6 38h266q5 -20 -6 -38l-50 -11q-15 -3 -24 -10.5t-16.5 -34.5t-16 -82l-22.5 -152q-3 -20 -8 -58.5l-10.5 -82t-10 -84t-4.5 -63.5q61 -5 105.5 -5t74 4t45.5 11.5t21 19.5l60 126q17 10 35 0l-61 -209l-17 -12q-4 3 -19 5t-34.5 4t-41.5 3t-41 1h-314z
" />
    <glyph glyph-name="Lcommaaccent" unicode="&#x13b;" horiz-adv-x="604" 
d="M70 -1q-4 16 6 39l51 10q14 3 23 11.5t17.5 38.5t18 89t24.5 162q4 33 9.5 73.5l10.5 78.5t8 70t3 47l-88 11q-5 21 6 38h266q5 -20 -6 -38l-50 -11q-15 -3 -24 -10.5t-16.5 -34.5t-16 -82l-22.5 -152q-3 -20 -8 -58.5l-10.5 -82t-10 -84t-4.5 -63.5q61 -5 105.5 -5t74 4
t45.5 11.5t21 19.5l60 126q17 10 35 0l-61 -209l-17 -12q-4 3 -19 5t-34.5 4t-41.5 3t-41 1h-314zM363 -136q-5 -36 -21.5 -64.5t-36 -49t-37.5 -31t-25 -10.5q-10 10 -8 21q19 15 33.5 35t18.5 48q2 17 -2 30t-11.5 22t-15.5 15.5t-13 11.5q17 44 53 70q36 0 53.5 -26.5
t11.5 -71.5z" />
    <glyph glyph-name="Lslash" unicode="&#x141;" horiz-adv-x="634" 
d="M70 -1q-4 16 6 39l51 10q12 3 21 10t16.5 29.5t15.5 66t19 119.5l-98 -37q-8 10 -9.5 27.5t4.5 33.5l112 43l2 9q4 33 9.5 73.5l10.5 78.5t8 70t3 47l-88 11q-5 21 6 38h266q5 -20 -6 -38l-50 -11q-14 -3 -23 -10t-16.5 -31t-15.5 -71.5t-20 -132.5l148 56q5 -8 8 -27
t-1 -33l-163 -63q-4 -27 -8.5 -62.5l-9 -72t-8 -69t-3.5 -51.5q61 -5 105.5 -5t74 4t45.5 11.5t21 19.5l60 126q17 10 35 0l-61 -209l-17 -12q-4 3 -19 5t-34.5 4t-41.5 3t-41 1h-314z" />
    <glyph glyph-name="M" unicode="M" horiz-adv-x="875" 
d="M48 -1q-4 18 5 38l41 11q8 2 15 10t14.5 28.5t17 58.5t22 100.5l29.5 153.5l40 219l-67 11q-4 18 5 38h180q17 -101 47.5 -222l65.5 -253h5l64 127.5l57.5 118.5l53.5 114.5l52 114.5h189q5 -17 -6 -38l-62 -11q-5 -1 -10 -26.5t-9.5 -69.5t-9 -104t-10.5 -129
q-6 -76 -9 -134t-3 -107l71 -11q5 -20 -6 -38h-227q-3 18 6 38l39 11q13 4 22.5 50t17 120.5t14.5 170t16 199.5h-11l-52 -111.5l-55 -116.5l-62 -130l-72 -152q-13 -11 -29.5 -16.5t-30.5 -5.5l-22.5 95.5l-25.5 104.5l-25.5 105l-22.5 96.5t-16.5 79t-6.5 52.5l-12 -1
l-10.5 -54.5l-14.5 -79l-17 -96l-18 -105l-18 -106t-16 -99.5l37 -11q4 -19 -5 -38h-165z" />
    <glyph glyph-name="N" unicode="N" horiz-adv-x="756" 
d="M780 618q-12 -5 -21.5 -10.5t-17 -19t-13 -37t-11.5 -63.5l-43 -302l-28 -198q-15 -15 -41 -18q-20 19 -51 65.5t-66.5 106l-72.5 125.5l-68.5 125l-55 103t-31.5 61h-8q-3 -31 -11.5 -84t-19.5 -131q-9 -61 -14.5 -104.5l-9.5 -76.5l-7 -59t-5 -53l67 -11q6 -22 -5 -38
h-188q-4 16 5 38l39 11q6 2 10.5 4.5t9 12t9.5 28.5t11 52.5t13.5 84.5t17.5 126q10 67 17.5 129l15.5 133l-63 11q-7 18 6 38h157l34 -66l46.5 -90.5l54.5 -103.5l58 -106.5l56 -99t50 -79.5h6q11 55 19.5 112t16.5 120q11 82 18.5 145.5l13.5 118.5l-71 11q-5 20 6 38h202
q7 -18 -5 -38z" />
    <glyph glyph-name="Nacute" unicode="&#x143;" horiz-adv-x="756" 
d="M780 618q-12 -5 -21.5 -10.5t-17 -19t-13 -37t-11.5 -63.5l-43 -302l-28 -198q-15 -15 -41 -18q-20 19 -51 65.5t-66.5 106l-72.5 125.5l-68.5 125l-55 103t-31.5 61h-8q-3 -31 -11.5 -84t-19.5 -131q-9 -61 -14.5 -104.5l-9.5 -76.5l-7 -59t-5 -53l67 -11q6 -22 -5 -38
h-188q-4 16 5 38l39 11q6 2 10.5 4.5t9 12t9.5 28.5t11 52.5t13.5 84.5t17.5 126q10 67 17.5 129l15.5 133l-63 11q-7 18 6 38h157l34 -66l46.5 -90.5l54.5 -103.5l58 -106.5l56 -99t50 -79.5h6q11 55 19.5 112t16.5 120q11 82 18.5 145.5l13.5 118.5l-71 11q-5 20 6 38h202
q7 -18 -5 -38zM451 723l152 150q32 -8 48 -24.5t24 -43.5l-201 -109z" />
    <glyph glyph-name="Ncaron" unicode="&#x147;" horiz-adv-x="756" 
d="M780 618q-12 -5 -21.5 -10.5t-17 -19t-13 -37t-11.5 -63.5l-43 -302l-28 -198q-15 -15 -41 -18q-20 19 -51 65.5t-66.5 106l-72.5 125.5l-68.5 125l-55 103t-31.5 61h-8q-3 -31 -11.5 -84t-19.5 -131q-9 -61 -14.5 -104.5l-9.5 -76.5l-7 -59t-5 -53l67 -11q6 -22 -5 -38
h-188q-4 16 5 38l39 11q6 2 10.5 4.5t9 12t9.5 28.5t11 52.5t13.5 84.5t17.5 126q10 67 17.5 129l15.5 133l-63 11q-7 18 6 38h157l34 -66l46.5 -90.5l54.5 -103.5l58 -106.5l56 -99t50 -79.5h6q11 55 19.5 112t16.5 120q11 82 18.5 145.5l13.5 118.5l-71 11q-5 20 6 38h202
q7 -18 -5 -38zM360 824q5 10 12 17t20 12l100 -70l79 65q18 -3 27 -23l-107 -116h-28z" />
    <glyph glyph-name="Ncommaaccent" unicode="&#x145;" horiz-adv-x="756" 
d="M780 618q-12 -5 -21.5 -10.5t-17 -19t-13 -37t-11.5 -63.5l-43 -302l-28 -198q-15 -15 -41 -18q-20 19 -51 65.5t-66.5 106l-72.5 125.5l-68.5 125l-55 103t-31.5 61h-8q-3 -31 -11.5 -84t-19.5 -131q-9 -61 -14.5 -104.5l-9.5 -76.5l-7 -59t-5 -53l67 -11q6 -22 -5 -38
h-188q-4 16 5 38l39 11q6 2 10.5 4.5t9 12t9.5 28.5t11 52.5t13.5 84.5t17.5 126q10 67 17.5 129l15.5 133l-63 11q-7 18 6 38h157l34 -66l46.5 -90.5l54.5 -103.5l58 -106.5l56 -99t50 -79.5h6q11 55 19.5 112t16.5 120q11 82 18.5 145.5l13.5 118.5l-71 11q-5 20 6 38h202
q7 -18 -5 -38zM439 -136q-5 -36 -21.5 -64.5t-36 -49t-37.5 -31t-25 -10.5q-10 10 -8 21q19 15 33.5 35t18.5 48q2 17 -2 30t-11.5 22t-15.5 15.5t-13 11.5q17 44 53 70q36 0 53.5 -26.5t11.5 -71.5z" />
    <glyph glyph-name="Ntilde" unicode="&#xd1;" horiz-adv-x="793" 
d="M780 618q-12 -5 -21.5 -10.5t-17 -19t-13 -37t-11.5 -63.5l-43 -302l-28 -198q-15 -15 -41 -18q-20 19 -51 65.5t-66.5 106l-72.5 125.5l-68.5 125l-55 103t-31.5 61h-8q-3 -31 -11.5 -84t-19.5 -131q-9 -61 -14.5 -104.5l-9.5 -76.5l-7 -59t-5 -53l67 -11q6 -22 -5 -38
h-188q-4 16 5 38l39 11q6 2 10.5 4.5t9 12t9.5 28.5t11 52.5t13.5 84.5t17.5 126q10 67 17.5 129l15.5 133l-63 11q-7 18 6 38h157l34 -66l46.5 -90.5l54.5 -103.5l58 -106.5l56 -99t50 -79.5h6q11 55 19.5 112t16.5 120q11 82 18.5 145.5l13.5 118.5l-71 11q-5 20 6 38h202
q7 -18 -5 -38zM358 841q33 34 58 43t44.5 5t36.5 -15.5t34.5 -19t38 -5.5t47.5 26q9 -4 15.5 -16t5.5 -26q-32 -33 -58.5 -43t-49 -7.5t-42 13t-38 18t-36.5 6.5t-37 -21q-22 16 -19 42z" />
    <glyph glyph-name="O" unicode="O" horiz-adv-x="739" 
d="M760 412q0 -111 -36 -192.5t-93 -135.5t-127 -80.5t-138 -26.5q-69 0 -121 21.5t-87 60t-53 92.5t-18 119q0 102 34.5 180t93 131t134 80.5t158.5 27.5q52 0 98 -19.5t80.5 -55.5t54.5 -87t20 -115zM179 291q0 -50 16.5 -96t47 -81t75.5 -56t102 -21q16 0 28.5 1.5
t24.5 4t25 7t28 10.5q21 12 46 38.5t46 66t35 91.5t14 116q0 56 -16 103t-46 81.5t-73 53.5t-97 19q-33 0 -61.5 -6.5t-55.5 -19.5q-23 -15 -48 -42t-45 -66t-33 -90t-13 -114z" />
    <glyph glyph-name="Oacute" unicode="&#xd3;" horiz-adv-x="788" 
d="M760 412q0 -111 -36 -192.5t-93 -135.5t-127 -80.5t-138 -26.5q-69 0 -121 21.5t-87 60t-53 92.5t-18 119q0 102 34.5 180t93 131t134 80.5t158.5 27.5q52 0 98 -19.5t80.5 -55.5t54.5 -87t20 -115zM179 291q0 -50 16.5 -96t47 -81t75.5 -56t102 -21q16 0 28.5 1.5
t24.5 4t25 7t28 10.5q21 12 46 38.5t46 66t35 91.5t14 116q0 56 -16 103t-46 81.5t-73 53.5t-97 19q-33 0 -61.5 -6.5t-55.5 -19.5q-23 -15 -48 -42t-45 -66t-33 -90t-13 -114zM397 766l152 150q32 -8 48 -24.5t24 -43.5l-201 -109z" />
    <glyph glyph-name="Ocircumflex" unicode="&#xd4;" horiz-adv-x="788" 
d="M760 412q0 -111 -36 -192.5t-93 -135.5t-127 -80.5t-138 -26.5q-69 0 -121 21.5t-87 60t-53 92.5t-18 119q0 102 34.5 180t93 131t134 80.5t158.5 27.5q52 0 98 -19.5t80.5 -55.5t54.5 -87t20 -115zM179 291q0 -50 16.5 -96t47 -81t75.5 -56t102 -21q16 0 28.5 1.5
t24.5 4t25 7t28 10.5q21 12 46 38.5t46 66t35 91.5t14 116q0 56 -16 103t-46 81.5t-73 53.5t-97 19q-33 0 -61.5 -6.5t-55.5 -19.5q-23 -15 -48 -42t-45 -66t-33 -90t-13 -114zM616 768q-5 -11 -13.5 -19t-22.5 -13l-111 77l-89 -73q-19 6 -31 26l120 130q18 10 33 0z" />
    <glyph glyph-name="Odieresis" unicode="&#xd6;" horiz-adv-x="788" 
d="M760 412q0 -111 -36 -192.5t-93 -135.5t-127 -80.5t-138 -26.5q-69 0 -121 21.5t-87 60t-53 92.5t-18 119q0 102 34.5 180t93 131t134 80.5t158.5 27.5q52 0 98 -19.5t80.5 -55.5t54.5 -87t20 -115zM179 291q0 -50 16.5 -96t47 -81t75.5 -56t102 -21q16 0 28.5 1.5
t24.5 4t25 7t28 10.5q21 12 46 38.5t46 66t35 91.5t14 116q0 56 -16 103t-46 81.5t-73 53.5t-97 19q-33 0 -61.5 -6.5t-55.5 -19.5q-23 -15 -48 -42t-45 -66t-33 -90t-13 -114zM580 881q2 -17 8.5 -35t14.5 -30q-9 -13 -30 -24t-38 -11q-9 0 -15 6.5t-10.5 16t-6.5 20.5
t-2 19q0 10 8 17t20 11t25.5 6.5t25.5 3.5zM413 881q2 -17 9 -35t16 -30q-10 -13 -31 -24t-38 -11q-8 0 -14 6.5t-10.5 16t-6.5 20.5t-2 19q0 10 7.5 17t19 11t25 6.5t25.5 3.5z" />
    <glyph glyph-name="Ograve" unicode="&#xd2;" horiz-adv-x="788" 
d="M760 412q0 -111 -36 -192.5t-93 -135.5t-127 -80.5t-138 -26.5q-69 0 -121 21.5t-87 60t-53 92.5t-18 119q0 102 34.5 180t93 131t134 80.5t158.5 27.5q52 0 98 -19.5t80.5 -55.5t54.5 -87t20 -115zM179 291q0 -50 16.5 -96t47 -81t75.5 -56t102 -21q16 0 28.5 1.5
t24.5 4t25 7t28 10.5q21 12 46 38.5t46 66t35 91.5t14 116q0 56 -16 103t-46 81.5t-73 53.5t-97 19q-33 0 -61.5 -6.5t-55.5 -19.5q-23 -15 -48 -42t-45 -66t-33 -90t-13 -114zM462 736l-175 131q9 28 28 47.5t52 28.5l132 -176z" />
    <glyph glyph-name="Ohungarumlaut" unicode="&#x150;" horiz-adv-x="739" 
d="M760 412q0 -111 -36 -192.5t-93 -135.5t-127 -80.5t-138 -26.5q-69 0 -121 21.5t-87 60t-53 92.5t-18 119q0 102 34.5 180t93 131t134 80.5t158.5 27.5q52 0 98 -19.5t80.5 -55.5t54.5 -87t20 -115zM179 291q0 -50 16.5 -96t47 -81t75.5 -56t102 -21q16 0 28.5 1.5
t24.5 4t25 7t28 10.5q21 12 46 38.5t46 66t35 91.5t14 116q0 56 -16 103t-46 81.5t-73 53.5t-97 19q-33 0 -61.5 -6.5t-55.5 -19.5q-23 -15 -48 -42t-45 -66t-33 -90t-13 -114zM382 719l56 174q23 6 42 -2t27 -30l-75 -142h-50zM505 719l81 165q23 6 45 -3t31 -32l-109 -130
h-48z" />
    <glyph glyph-name="Omacron" unicode="&#x14c;" horiz-adv-x="739" 
d="M760 412q0 -111 -36 -192.5t-93 -135.5t-127 -80.5t-138 -26.5q-69 0 -121 21.5t-87 60t-53 92.5t-18 119q0 102 34.5 180t93 131t134 80.5t158.5 27.5q52 0 98 -19.5t80.5 -55.5t54.5 -87t20 -115zM179 291q0 -50 16.5 -96t47 -81t75.5 -56t102 -21q16 0 28.5 1.5
t24.5 4t25 7t28 10.5q21 12 46 38.5t46 66t35 91.5t14 116q0 56 -16 103t-46 81.5t-73 53.5t-97 19q-33 0 -61.5 -6.5t-55.5 -19.5q-23 -15 -48 -42t-45 -66t-33 -90t-13 -114zM613 791q4 -18 0.5 -30.5t-12.5 -24.5h-251q-6 20 -1.5 32.5t17.5 22.5h247z" />
    <glyph glyph-name="Oslash" unicode="&#xd8;" horiz-adv-x="788" 
d="M760 412q0 -111 -36 -192.5t-93 -135.5t-127 -80.5t-138 -26.5l-30 1l-27 -77q-15 5 -32 14t-25 24l19 51q-91 26 -137.5 100t-46.5 180q0 102 34.5 180t93 131t134 80.5t158.5 27.5q10 0 15 -1l28 73q17 -5 33 -15t22 -24l-17 -46q37 -13 68.5 -36.5t54.5 -57.5
t36 -76.5t13 -93.5zM179 291q0 -72 32.5 -133.5t93.5 -93.5l196 556q-30 9 -66 9q-33 0 -61.5 -6.5t-55.5 -19.5q-23 -15 -48 -42t-45 -66t-33 -90t-13 -114zM667 372q0 77 -30 135.5t-84 90.5l-199 -553q16 -5 32 -6.5t34 -1.5q16 0 28.5 1.5t24.5 4t25 7t28 10.5
q21 12 46 38.5t46 66t35 91.5t14 116z" />
    <glyph glyph-name="Otilde" unicode="&#xd5;" horiz-adv-x="788" 
d="M760 412q0 -111 -36 -192.5t-93 -135.5t-127 -80.5t-138 -26.5q-69 0 -121 21.5t-87 60t-53 92.5t-18 119q0 102 34.5 180t93 131t134 80.5t158.5 27.5q52 0 98 -19.5t80.5 -55.5t54.5 -87t20 -115zM179 291q0 -50 16.5 -96t47 -81t75.5 -56t102 -21q16 0 28.5 1.5
t24.5 4t25 7t28 10.5q21 12 46 38.5t46 66t35 91.5t14 116q0 56 -16 103t-46 81.5t-73 53.5t-97 19q-33 0 -61.5 -6.5t-55.5 -19.5q-23 -15 -48 -42t-45 -66t-33 -90t-13 -114zM331 841q33 34 58 43t44.5 5t36.5 -15.5t34.5 -19t38 -5.5t47.5 26q9 -4 15.5 -16t5.5 -26
q-32 -33 -58.5 -43t-49 -7.5t-42 13t-38 18t-36.5 6.5t-37 -21q-22 16 -19 42z" />
    <glyph glyph-name="OE" unicode="&#x152;" horiz-adv-x="934" 
d="M493 -1q-26 -9 -57.5 -15.5t-64.5 -6.5q-69 0 -121.5 20t-88.5 55.5t-54 84.5t-18 107q0 84 20 149.5t54 115t78 84t91 56t94.5 31t88.5 9.5q32 0 58.5 -6.5t46.5 -15.5h211q31 0 64.5 4.5t52.5 17.5l9 -9l-46 -170q-12 -4 -21.5 -4.5t-18.5 4.5l15 104q-59 5 -112.5 5.5
t-104.5 -4.5q-15 -49 -26 -114t-22 -138q63 -2 105 0t63 11l27 56q11 4 21.5 3.5t20.5 -3.5l-46 -194q-16 -7 -36 -2l11 80q-38 1 -82 1t-91 -2q-3 -26 -8 -62.5l-10 -74t-8.5 -71.5t-3.5 -54q92 -10 146 -3.5t73 14.5l58 98q15 7 31 0l-49 -162l-17 -12q-8 4 -34.5 8.5
t-74.5 4.5h-224zM538 349l8.5 62t8.5 67.5l7.5 63.5t5.5 52q-55 35 -126 35q-62 0 -117 -26q-24 -15 -49 -40.5t-45.5 -64t-34 -90.5t-13.5 -121q0 -58 18 -104t50 -78.5t77 -50t98 -17.5q20 0 35 1.5t31 6.5l9 52t10.5 64l12 82z" />
    <glyph glyph-name="P" unicode="P" horiz-adv-x="599" 
d="M74 -1q-5 16 5 38l53 11q6 2 11.5 4.5t10 11.5t9.5 27t11 49.5t13 78.5l17 116l11.5 86.5l10 80l8 68.5t5.5 53l-85 13q-3 18 3 31q20 2 48 3.5l58.5 3l61 3t56 2.5t42.5 1.5t21 0.5q53 0 88 -12t56 -32.5t29.5 -46.5t8.5 -53q0 -75 -29.5 -126.5t-78 -83.5t-112 -45.5
t-131.5 -11.5q-8 -63 -14.5 -120t-7.5 -102l89 -11q4 -20 -5 -38h-263zM283 325q42 -5 77 -5.5t68 7.5q54 23 81.5 64.5t27.5 108.5q0 28 -8.5 53t-31.5 43.5t-63 27.5t-103 5q-8 -54 -20 -124.5t-26 -164.5z" />
    <glyph glyph-name="Q" unicode="Q" horiz-adv-x="760" 
d="M767 412q0 -93 -26 -165.5t-68.5 -125t-97.5 -86t-113 -47.5l-136 -65q73 -30 154 -67.5t166 -66t171.5 -39.5t170.5 12q3 -8 7.5 -16t-0.5 -16q-73 -29 -141.5 -36.5t-135 0.5t-132 28.5t-131 47l-133 55t-138.5 53.5q-2 24 0 44l59 18q22 7 48.5 16.5t50.5 22.5
q-61 5 -107.5 28t-77.5 61t-47 89t-16 113q0 102 34.5 180t93 131t134 80.5t158.5 27.5q52 0 98 -19.5t80.5 -55.5t54.5 -87t20 -115zM186 291q0 -50 16.5 -96t47 -81t75.5 -56t102 -21q16 0 28.5 1.5t24.5 4t25 7t28 10.5q21 12 46 38.5t46 66t35 91.5t14 116q0 56 -16 103
t-46 81.5t-73 53.5t-97 19q-33 0 -61.5 -6.5t-55.5 -19.5q-23 -15 -48 -42t-45 -66t-33 -90t-13 -114z" />
    <glyph glyph-name="R" unicode="R" horiz-adv-x="654" 
d="M73 -1q-2 8 -0.5 17.5t5.5 20.5l53 11q10 2 17 10t14.5 36t17 84.5t23.5 156.5l36 293l-87 4q-5 25 6 41q29 3 70.5 5.5l80.5 5t68.5 4t35.5 1.5q81 0 126.5 -36t45.5 -102q0 -44 -14.5 -79.5t-38 -62.5t-52 -45.5t-56.5 -28.5l56 -89l65 -96.5t65 -88t56 -62.5
q4 -10 -4 -21l-32 -1q-28 0 -57.5 19.5t-58.5 50t-57 69t-52 76.5l-44.5 71.5t-34.5 54.5h-46q-11 -78 -19 -147t-9 -123l84 -11q5 -22 -6 -38h-257zM331 636l-20.5 -119.5t-24.5 -155.5q27 -5 51.5 -5.5t45.5 4.5q22 6 42.5 20.5t36.5 35.5t25.5 49t9.5 62q0 59 -43 88
t-123 21z" />
    <glyph glyph-name="Racute" unicode="&#x154;" horiz-adv-x="654" 
d="M73 -1q-2 8 -0.5 17.5t5.5 20.5l53 11q10 2 17 10t14.5 36t17 84.5t23.5 156.5l36 293l-87 4q-5 25 6 41q29 3 70.5 5.5l80.5 5t68.5 4t35.5 1.5q81 0 126.5 -36t45.5 -102q0 -44 -14.5 -79.5t-38 -62.5t-52 -45.5t-56.5 -28.5l56 -89l65 -96.5t65 -88t56 -62.5
q4 -10 -4 -21l-32 -1q-28 0 -57.5 19.5t-58.5 50t-57 69t-52 76.5l-44.5 71.5t-34.5 54.5h-46q-11 -78 -19 -147t-9 -123l84 -11q5 -22 -6 -38h-257zM331 636l-20.5 -119.5t-24.5 -155.5q27 -5 51.5 -5.5t45.5 4.5q22 6 42.5 20.5t36.5 35.5t25.5 49t9.5 62q0 59 -43 88
t-123 21zM375 735l152 150q32 -8 48 -24.5t24 -43.5l-201 -109z" />
    <glyph glyph-name="Rcaron" unicode="&#x158;" horiz-adv-x="654" 
d="M73 -1q-2 8 -0.5 17.5t5.5 20.5l53 11q10 2 17 10t14.5 36t17 84.5t23.5 156.5l36 293l-87 4q-5 25 6 41q29 3 70.5 5.5l80.5 5t68.5 4t35.5 1.5q81 0 126.5 -36t45.5 -102q0 -44 -14.5 -79.5t-38 -62.5t-52 -45.5t-56.5 -28.5l56 -89l65 -96.5t65 -88t56 -62.5
q4 -10 -4 -21l-32 -1q-28 0 -57.5 19.5t-58.5 50t-57 69t-52 76.5l-44.5 71.5t-34.5 54.5h-46q-11 -78 -19 -147t-9 -123l84 -11q5 -22 -6 -38h-257zM331 636l-20.5 -119.5t-24.5 -155.5q27 -5 51.5 -5.5t45.5 4.5q22 6 42.5 20.5t36.5 35.5t25.5 49t9.5 62q0 59 -43 88
t-123 21zM294 826q5 10 12 17t20 12l100 -70l79 65q18 -3 27 -23l-107 -116h-28z" />
    <glyph glyph-name="Rcommaaccent" unicode="&#x156;" horiz-adv-x="654" 
d="M73 -1q-2 8 -0.5 17.5t5.5 20.5l53 11q10 2 17 10t14.5 36t17 84.5t23.5 156.5l36 293l-87 4q-5 25 6 41q29 3 70.5 5.5l80.5 5t68.5 4t35.5 1.5q81 0 126.5 -36t45.5 -102q0 -44 -14.5 -79.5t-38 -62.5t-52 -45.5t-56.5 -28.5l56 -89l65 -96.5t65 -88t56 -62.5
q4 -10 -4 -21l-32 -1q-28 0 -57.5 19.5t-58.5 50t-57 69t-52 76.5l-44.5 71.5t-34.5 54.5h-46q-11 -78 -19 -147t-9 -123l84 -11q5 -22 -6 -38h-257zM331 636l-20.5 -119.5t-24.5 -155.5q27 -5 51.5 -5.5t45.5 4.5q22 6 42.5 20.5t36.5 35.5t25.5 49t9.5 62q0 59 -43 88
t-123 21zM408 -136q-5 -36 -21.5 -64.5t-36 -49t-37.5 -31t-25 -10.5q-10 10 -8 21q19 15 33.5 35t18.5 48q2 17 -2 30t-11.5 22t-15.5 15.5t-13 11.5q17 44 53 70q36 0 53.5 -26.5t11.5 -71.5z" />
    <glyph glyph-name="S" unicode="S" horiz-adv-x="514" 
d="M491 496q-17 -7 -31 0l20 91q-16 16 -38.5 25t-46 12.5t-45.5 1t-37 -9.5q-9 -6 -20.5 -15.5t-21.5 -23t-16.5 -32t-6.5 -42.5q0 -32 17.5 -55t43.5 -43t56 -38t56 -40t43.5 -50t17.5 -67q0 -55 -24 -96.5t-62 -69.5t-84.5 -42t-91.5 -14q-18 0 -39.5 7t-43 16.5
t-41 19.5l-33.5 17l-2 12l64 158q19 7 36 -2l-18 -93q12 -26 34.5 -43t49.5 -26t56 -9t55 8q20 11 40 37t20 67q0 35 -17.5 60t-43.5 45t-56 39t-56 43t-43.5 56t-17.5 78q0 51 22.5 88.5t57 62.5t76 37t79.5 12q11 0 27.5 -2l36 -4.5l40 -5l38.5 -4.5l5 -15z" />
    <glyph glyph-name="Sacute" unicode="&#x15a;" horiz-adv-x="514" 
d="M491 496q-17 -7 -31 0l20 91q-16 16 -38.5 25t-46 12.5t-45.5 1t-37 -9.5q-9 -6 -20.5 -15.5t-21.5 -23t-16.5 -32t-6.5 -42.5q0 -32 17.5 -55t43.5 -43t56 -38t56 -40t43.5 -50t17.5 -67q0 -55 -24 -96.5t-62 -69.5t-84.5 -42t-91.5 -14q-18 0 -39.5 7t-43 16.5
t-41 19.5l-33.5 17l-2 12l64 158q19 7 36 -2l-18 -93q12 -26 34.5 -43t49.5 -26t56 -9t55 8q20 11 40 37t20 67q0 35 -17.5 60t-43.5 45t-56 39t-56 43t-43.5 56t-17.5 78q0 51 22.5 88.5t57 62.5t76 37t79.5 12q11 0 27.5 -2l36 -4.5l40 -5l38.5 -4.5l5 -15zM353 745
l152 150q32 -8 48 -24.5t24 -43.5l-201 -109z" />
    <glyph glyph-name="Scaron" unicode="&#x160;" horiz-adv-x="538" 
d="M491 496q-17 -7 -31 0l20 91q-16 16 -38.5 25t-46 12.5t-45.5 1t-37 -9.5q-9 -6 -20.5 -15.5t-21.5 -23t-16.5 -32t-6.5 -42.5q0 -32 17.5 -55t43.5 -43t56 -38t56 -40t43.5 -50t17.5 -67q0 -55 -24 -96.5t-62 -69.5t-84.5 -42t-91.5 -14q-18 0 -39.5 7t-43 16.5
t-41 19.5l-33.5 17l-2 12l64 158q19 7 36 -2l-18 -93q12 -26 34.5 -43t49.5 -26t56 -9t55 8q20 11 40 37t20 67q0 35 -17.5 60t-43.5 45t-56 39t-56 43t-43.5 56t-17.5 78q0 51 22.5 88.5t57 62.5t76 37t79.5 12q11 0 27.5 -2l36 -4.5l40 -5l38.5 -4.5l5 -15zM248 840
q5 10 12 17t20 12l100 -70l79 65q18 -3 27 -23l-107 -116h-28z" />
    <glyph glyph-name="T" unicode="T" horiz-adv-x="579" 
d="M699 680l-57 -210q-20 -7 -41 0l16 145q-12 1 -37.5 2l-53.5 2t-53.5 1h-37.5q-3 -10 -6.5 -25t-8.5 -44.5t-12.5 -78.5t-18.5 -128q-12 -84 -18 -132l-9.5 -76.5t-5 -46t-2.5 -39.5l74 -13q2 -23 -5 -38h-250q-5 18 4 38l55 11q5 1 10.5 4t10.5 12.5t10.5 28t12 51
t14.5 82t18 120.5q18 127 24.5 191t7.5 83q-22 0 -47.5 -1t-49 -3t-41.5 -5.5t-24 -8.5l-60 -131q-20 -9 -38 0l51 210l11 8q26 -9 90.5 -15.5t167.5 -6.5q65 0 113 1.5t82.5 4.5t56.5 7t35 9z" />
    <glyph glyph-name="Tcaron" unicode="&#x164;" horiz-adv-x="579" 
d="M699 680l-57 -210q-20 -7 -41 0l16 145q-12 1 -37.5 2l-53.5 2t-53.5 1h-37.5q-3 -10 -6.5 -25t-8.5 -44.5t-12.5 -78.5t-18.5 -128q-12 -84 -18 -132l-9.5 -76.5t-5 -46t-2.5 -39.5l74 -13q2 -23 -5 -38h-250q-5 18 4 38l55 11q5 1 10.5 4t10.5 12.5t10.5 28t12 51
t14.5 82t18 120.5q18 127 24.5 191t7.5 83q-22 0 -47.5 -1t-49 -3t-41.5 -5.5t-24 -8.5l-60 -131q-20 -9 -38 0l51 210l11 8q26 -9 90.5 -15.5t167.5 -6.5q65 0 113 1.5t82.5 4.5t56.5 7t35 9zM281 833q5 10 12 17t20 12l100 -70l79 65q18 -3 27 -23l-107 -116h-28z" />
    <glyph glyph-name="U" unicode="U" horiz-adv-x="754" 
d="M386 667q3 -20 -7 -39l-50 -10q-16 -3 -30.5 -40.5t-25 -92t-17 -117t-6.5 -114.5q0 -101 47.5 -157t135.5 -56q26 0 43 3t36 13q18 8 37.5 26.5t37.5 51.5t34 82.5t26 119.5q4 27 8.5 65l9 78t7.5 77t3 61l-62 10q-3 19 6 39h193q6 -19 -6 -39l-43 -10q-8 -2 -15.5 -14
t-15 -44t-17 -89t-21.5 -150q-14 -99 -45.5 -164t-73 -103t-88.5 -53.5t-92 -15.5q-51 0 -94 14.5t-73.5 46t-47.5 81t-17 120.5q0 43 5.5 97t12.5 106l13.5 96.5t8.5 70.5l-68 11q-3 21 7 39h244z" />
    <glyph glyph-name="Uacute" unicode="&#xda;" horiz-adv-x="793" 
d="M386 667q3 -20 -7 -39l-50 -10q-16 -3 -30.5 -40.5t-25 -92t-17 -117t-6.5 -114.5q0 -101 47.5 -157t135.5 -56q26 0 43 3t36 13q18 8 37.5 26.5t37.5 51.5t34 82.5t26 119.5q4 27 8.5 65l9 78t7.5 77t3 61l-62 10q-3 19 6 39h193q6 -19 -6 -39l-43 -10q-8 -2 -15.5 -14
t-15 -44t-17 -89t-21.5 -150q-14 -99 -45.5 -164t-73 -103t-88.5 -53.5t-92 -15.5q-51 0 -94 14.5t-73.5 46t-47.5 81t-17 120.5q0 43 5.5 97t12.5 106l13.5 96.5t8.5 70.5l-68 11q-3 21 7 39h244zM425 766l152 150q32 -8 48 -24.5t24 -43.5l-201 -109z" />
    <glyph glyph-name="Ucircumflex" unicode="&#xdb;" horiz-adv-x="793" 
d="M386 667q3 -20 -7 -39l-50 -10q-16 -3 -30.5 -40.5t-25 -92t-17 -117t-6.5 -114.5q0 -101 47.5 -157t135.5 -56q26 0 43 3t36 13q18 8 37.5 26.5t37.5 51.5t34 82.5t26 119.5q4 27 8.5 65l9 78t7.5 77t3 61l-62 10q-3 19 6 39h193q6 -19 -6 -39l-43 -10q-8 -2 -15.5 -14
t-15 -44t-17 -89t-21.5 -150q-14 -99 -45.5 -164t-73 -103t-88.5 -53.5t-92 -15.5q-51 0 -94 14.5t-73.5 46t-47.5 81t-17 120.5q0 43 5.5 97t12.5 106l13.5 96.5t8.5 70.5l-68 11q-3 21 7 39h244zM630 768q-5 -11 -13.5 -19t-22.5 -13l-111 77l-89 -73q-19 6 -31 26
l120 130q18 10 33 0z" />
    <glyph glyph-name="Udieresis" unicode="&#xdc;" horiz-adv-x="793" 
d="M386 667q3 -20 -7 -39l-50 -10q-16 -3 -30.5 -40.5t-25 -92t-17 -117t-6.5 -114.5q0 -101 47.5 -157t135.5 -56q26 0 43 3t36 13q18 8 37.5 26.5t37.5 51.5t34 82.5t26 119.5q4 27 8.5 65l9 78t7.5 77t3 61l-62 10q-3 19 6 39h193q6 -19 -6 -39l-43 -10q-8 -2 -15.5 -14
t-15 -44t-17 -89t-21.5 -150q-14 -99 -45.5 -164t-73 -103t-88.5 -53.5t-92 -15.5q-51 0 -94 14.5t-73.5 46t-47.5 81t-17 120.5q0 43 5.5 97t12.5 106l13.5 96.5t8.5 70.5l-68 11q-3 21 7 39h244zM604 881q2 -17 8.5 -35t14.5 -30q-9 -13 -30 -24t-38 -11q-9 0 -15 6.5
t-10.5 16t-6.5 20.5t-2 19q0 10 8 17t20 11t25.5 6.5t25.5 3.5zM437 881q2 -17 9 -35t16 -30q-10 -13 -31 -24t-38 -11q-8 0 -14 6.5t-10.5 16t-6.5 20.5t-2 19q0 10 7.5 17t19 11t25 6.5t25.5 3.5z" />
    <glyph glyph-name="Ugrave" unicode="&#xd9;" horiz-adv-x="793" 
d="M386 667q3 -20 -7 -39l-50 -10q-16 -3 -30.5 -40.5t-25 -92t-17 -117t-6.5 -114.5q0 -101 47.5 -157t135.5 -56q26 0 43 3t36 13q18 8 37.5 26.5t37.5 51.5t34 82.5t26 119.5q4 27 8.5 65l9 78t7.5 77t3 61l-62 10q-3 19 6 39h193q6 -19 -6 -39l-43 -10q-8 -2 -15.5 -14
t-15 -44t-17 -89t-21.5 -150q-14 -99 -45.5 -164t-73 -103t-88.5 -53.5t-92 -15.5q-51 0 -94 14.5t-73.5 46t-47.5 81t-17 120.5q0 43 5.5 97t12.5 106l13.5 96.5t8.5 70.5l-68 11q-3 21 7 39h244zM510 736l-175 131q9 28 28 47.5t52 28.5l132 -176z" />
    <glyph glyph-name="Uhungarumlaut" unicode="&#x170;" horiz-adv-x="754" 
d="M386 667q3 -20 -7 -39l-50 -10q-16 -3 -30.5 -40.5t-25 -92t-17 -117t-6.5 -114.5q0 -101 47.5 -157t135.5 -56q26 0 43 3t36 13q18 8 37.5 26.5t37.5 51.5t34 82.5t26 119.5q4 27 8.5 65l9 78t7.5 77t3 61l-62 10q-3 19 6 39h193q6 -19 -6 -39l-43 -10q-8 -2 -15.5 -14
t-15 -44t-17 -89t-21.5 -150q-14 -99 -45.5 -164t-73 -103t-88.5 -53.5t-92 -15.5q-51 0 -94 14.5t-73.5 46t-47.5 81t-17 120.5q0 43 5.5 97t12.5 106l13.5 96.5t8.5 70.5l-68 11q-3 21 7 39h244zM392 698l56 174q23 6 42 -2t27 -30l-75 -142h-50zM515 698l81 165
q23 6 45 -3t31 -32l-109 -130h-48z" />
    <glyph glyph-name="Umacron" unicode="&#x16a;" horiz-adv-x="754" 
d="M386 667q3 -20 -7 -39l-50 -10q-16 -3 -30.5 -40.5t-25 -92t-17 -117t-6.5 -114.5q0 -101 47.5 -157t135.5 -56q26 0 43 3t36 13q18 8 37.5 26.5t37.5 51.5t34 82.5t26 119.5q4 27 8.5 65l9 78t7.5 77t3 61l-62 10q-3 19 6 39h193q6 -19 -6 -39l-43 -10q-8 -2 -15.5 -14
t-15 -44t-17 -89t-21.5 -150q-14 -99 -45.5 -164t-73 -103t-88.5 -53.5t-92 -15.5q-51 0 -94 14.5t-73.5 46t-47.5 81t-17 120.5q0 43 5.5 97t12.5 106l13.5 96.5t8.5 70.5l-68 11q-3 21 7 39h244zM613 791q4 -18 0.5 -30.5t-12.5 -24.5h-251q-6 20 -1.5 32.5t17.5 22.5h247
z" />
    <glyph glyph-name="Uogonek" unicode="&#x172;" horiz-adv-x="754" 
d="M386 667q3 -20 -7 -39l-50 -10q-16 -3 -30.5 -40.5t-25 -92t-17 -117t-6.5 -114.5q0 -101 47.5 -157t135.5 -56q26 0 43 3t36 13q18 8 37.5 26.5t37.5 51.5t34 82.5t26 119.5q4 27 8.5 65l9 78t7.5 77t3 61l-62 10q-3 19 6 39h193q6 -19 -6 -39l-43 -10q-8 -2 -15.5 -14
t-15 -44t-17 -89t-21.5 -150q-10 -74 -30.5 -129t-48 -93t-60.5 -62t-67 -36q-30 -24 -53.5 -57.5t-23.5 -64.5q0 -26 13.5 -41t35.5 -15q15 0 30 2.5t29 7.5q4 -4 7.5 -9t5.5 -17q-20 -13 -48.5 -22.5t-52.5 -13.5q-45 0 -70.5 22t-25.5 60q0 37 25 72.5t59 60.5l-24 -1
q-51 0 -94 14.5t-73.5 46t-47.5 81t-17 120.5q0 43 5.5 97t12.5 106l13.5 96.5t8.5 70.5l-68 11q-3 21 7 39h244z" />
    <glyph glyph-name="Uring" unicode="&#x16e;" horiz-adv-x="754" 
d="M386 667q3 -20 -7 -39l-50 -10q-16 -3 -30.5 -40.5t-25 -92t-17 -117t-6.5 -114.5q0 -101 47.5 -157t135.5 -56q26 0 43 3t36 13q18 8 37.5 26.5t37.5 51.5t34 82.5t26 119.5q4 27 8.5 65l9 78t7.5 77t3 61l-62 10q-3 19 6 39h193q6 -19 -6 -39l-43 -10q-8 -2 -15.5 -14
t-15 -44t-17 -89t-21.5 -150q-14 -99 -45.5 -164t-73 -103t-88.5 -53.5t-92 -15.5q-51 0 -94 14.5t-73.5 46t-47.5 81t-17 120.5q0 43 5.5 97t12.5 106l13.5 96.5t8.5 70.5l-68 11q-3 21 7 39h244zM605 800q0 -28 -10.5 -47.5t-26 -31.5t-32.5 -17.5t-30 -5.5q-40 0 -65 26
t-25 65q0 29 11.5 48.5t27.5 31.5t32.5 17t26.5 5q41 0 66 -26.5t25 -64.5zM460 799q0 -26 18.5 -41t39.5 -15q6 0 15.5 1t14.5 3q5 5 9 14.5t4 27.5q0 25 -17.5 41.5t-39.5 16.5q-11 0 -17 -2t-11 -4q-3 -2 -9.5 -12t-6.5 -30z" />
    <glyph glyph-name="V" unicode="V" horiz-adv-x="611" 
d="M364 -2q-28 -24 -68 -22l-176 642l-54 11q-5 21 5 38h234q5 -20 -6 -40l-28 -9q-23 -8 -32 -16t-9 -25q0 -9 8 -41.5t20.5 -78l27.5 -98l29.5 -102l26.5 -90t19 -61.5l4 1q30 69 95 197t150 314l-60 11q-2 9 -1 18t6 20h178q5 -21 -5 -38l-37 -11q-11 -3 -16 -9.5
t-15 -21.5q-10 -14 -33 -57l-53 -100.5l-63 -123.5l-62.5 -126.5l-52.5 -109.5t-32 -72z" />
    <glyph glyph-name="W" unicode="W" horiz-adv-x="855" 
d="M315 -2q-17 -13 -33.5 -18t-32.5 -4l-15 85l-19 107.5l-21.5 119l-23.5 121l-24 113.5t-23 96l-45 11q-2 10 -0.5 19t6.5 19h213q5 -22 -7 -38l-26 -11q-21 -9 -28 -18.5t-7 -26.5q0 -8 5 -40.5t12.5 -77l17 -97l18.5 -101l16.5 -87.5t12.5 -58h6q23 51 70 142.5
t101 211.5l-15 80.5l-13 70.5l-37 11q-3 21 5 39h181q6 -19 -5 -38l-38 -12q-6 -2 -8 -10t-2 -19q0 -6 4.5 -38t12 -77.5l16.5 -99.5l18 -104.5l17 -92t13 -62.5l3 1l80.5 189.5l125.5 312.5l-56 11q-3 21 5 39h182q3 -22 -6 -38l-29 -11q-17 -8 -30 -25.5t-22 -32.5
q-10 -14 -28.5 -54.5l-42.5 -95l-50.5 -116.5l-51.5 -119.5l-45.5 -105t-32.5 -71.5q-25 -22 -61 -22q-8 34 -17 81.5l-18.5 102.5l-20.5 114l-21 117l-57 -118.5l-56 -114.5l-46 -96.5t-27 -63.5z" />
    <glyph glyph-name="X" unicode="X" horiz-adv-x="720" 
d="M58 -1q-2 8 0 17.5t5 20.5l41 11q10 3 28.5 19.5t42 40.5t50 54l52 60.5l48.5 58.5l39 49l-2 5l-49.5 87.5l-52.5 89l-44 71.5t-23 35l-51 11q-6 18 5 38h214q4 -19 -7 -38l-33 -11q-8 -3 -7 -13.5t13 -35t35.5 -66.5l60.5 -108l45 54.5l54 67l48.5 61.5t27.5 40l-42 8
q-6 22 5 41h183q4 -20 -5 -38l-40 -11q-17 -5 -50 -35.5t-70.5 -71.5t-73.5 -84.5l-59 -73.5l6 -10l47.5 -85l52 -88.5l46 -75.5t29.5 -46l54 -11q5 -21 -4 -38h-219q-3 18 6 38l38 11q8 2 7.5 9.5t-13.5 31.5l-39 70.5l-69 126.5l-46 -58l-56 -70.5l-50.5 -66t-29.5 -42.5
l42 -12q3 -19 -5 -38h-185z" />
    <glyph glyph-name="Y" unicode="Y" horiz-adv-x="595" 
d="M715 667q4 -17 -4 -38l-45 -11q-12 -3 -31 -21.5t-43 -47l-50.5 -63l-52 -70l-49 -69l-40.5 -58.5q-12 -86 -19 -142.5t-7 -98.5l78 -11q3 -19 -5 -38h-256q-1 17 5 38l57 11q10 1 17 12.5t13 36.5t12.5 65.5l15.5 101.5q-11 29 -28 65.5l-35.5 74.5l-37.5 75l-35 66.5
l-27.5 49t-14.5 23.5l-51 11q-4 19 5 38h225q4 -18 -5 -38l-39 -11q-10 -3 -5 -26.5t21 -61.5t40.5 -88l54.5 -107l54 77l58.5 86l50 75t27.5 45l-41 11q-3 19 7 38h180z" />
    <glyph glyph-name="Yacute" unicode="&#xdd;" horiz-adv-x="626" 
d="M715 667q4 -17 -4 -38l-45 -11q-12 -3 -31 -21.5t-43 -47l-50.5 -63l-52 -70l-49 -69l-40.5 -58.5q-12 -86 -19 -142.5t-7 -98.5l78 -11q3 -19 -5 -38h-256q-1 17 5 38l57 11q10 1 17 12.5t13 36.5t12.5 65.5l15.5 101.5q-11 29 -28 65.5l-35.5 74.5l-37.5 75l-35 66.5
l-27.5 49t-14.5 23.5l-51 11q-4 19 5 38h225q4 -18 -5 -38l-39 -11q-10 -3 -5 -26.5t21 -61.5t40.5 -88l54.5 -107l54 77l58.5 86l50 75t27.5 45l-41 11q-3 19 7 38h180zM365 766l152 150q32 -8 48 -24.5t24 -43.5l-201 -109z" />
    <glyph glyph-name="Ydieresis" unicode="&#x178;" horiz-adv-x="626" 
d="M715 667q4 -17 -4 -38l-45 -11q-12 -3 -31 -21.5t-43 -47l-50.5 -63l-52 -70l-49 -69l-40.5 -58.5q-12 -86 -19 -142.5t-7 -98.5l78 -11q3 -19 -5 -38h-256q-1 17 5 38l57 11q10 1 17 12.5t13 36.5t12.5 65.5l15.5 101.5q-11 29 -28 65.5l-35.5 74.5l-37.5 75l-35 66.5
l-27.5 49t-14.5 23.5l-51 11q-4 19 5 38h225q4 -18 -5 -38l-39 -11q-10 -3 -5 -26.5t21 -61.5t40.5 -88l54.5 -107l54 77l58.5 86l50 75t27.5 45l-41 11q-3 19 7 38h180zM511 881q2 -17 8.5 -35t14.5 -30q-9 -13 -30 -24t-38 -11q-9 0 -15 6.5t-10.5 16t-6.5 20.5t-2 19
q0 10 8 17t20 11t25.5 6.5t25.5 3.5zM344 881q2 -17 9 -35t16 -30q-10 -13 -31 -24t-38 -11q-8 0 -14 6.5t-10.5 16t-6.5 20.5t-2 19q0 10 7.5 17t19 11t25 6.5t25.5 3.5z" />
    <glyph glyph-name="Z" unicode="Z" horiz-adv-x="614" 
d="M648 668q1 -9 1.5 -19.5t-4.5 -19.5l-54.5 -66.5l-80 -98l-93.5 -114.5l-94 -115l-82 -101l-57 -72l2 -4q86 -5 162 -3.5t159 12.5l59 138q19 7 34 0l-54 -217l-12 -8q-23 4 -53 7.5t-82 6t-135 4t-213 1.5q-1 9 2 25t8 24q20 20 57 63.5l82.5 98l95.5 115.5l95 117
l81.5 102l54.5 70l-3 2h-89.5t-86.5 -1t-74.5 -3t-54.5 -6l-53 -117q-18 -5 -32 0l40 193l11 7q18 -5 42.5 -8.5t73 -6.5t131 -4.5t216.5 -1.5z" />
    <glyph glyph-name="Zacute" unicode="&#x179;" horiz-adv-x="614" 
d="M648 668q1 -9 1.5 -19.5t-4.5 -19.5l-54.5 -66.5l-80 -98l-93.5 -114.5l-94 -115l-82 -101l-57 -72l2 -4q86 -5 162 -3.5t159 12.5l59 138q19 7 34 0l-54 -217l-12 -8q-23 4 -53 7.5t-82 6t-135 4t-213 1.5q-1 9 2 25t8 24q20 20 57 63.5l82.5 98l95.5 115.5l95 117
l81.5 102l54.5 70l-3 2h-89.5t-86.5 -1t-74.5 -3t-54.5 -6l-53 -117q-18 -5 -32 0l40 193l11 7q18 -5 42.5 -8.5t73 -6.5t131 -4.5t216.5 -1.5zM367 745l152 150q32 -8 48 -24.5t24 -43.5l-201 -109z" />
    <glyph glyph-name="Zcaron" unicode="&#x17d;" horiz-adv-x="646" 
d="M648 668q1 -9 1.5 -19.5t-4.5 -19.5l-54.5 -66.5l-80 -98l-93.5 -114.5l-94 -115l-82 -101l-57 -72l2 -4q86 -5 162 -3.5t159 12.5l59 138q19 7 34 0l-54 -217l-12 -8q-23 4 -53 7.5t-82 6t-135 4t-213 1.5q-1 9 2 25t8 24q20 20 57 63.5l82.5 98l95.5 115.5l95 117
l81.5 102l54.5 70l-3 2h-89.5t-86.5 -1t-74.5 -3t-54.5 -6l-53 -117q-18 -5 -32 0l40 193l11 7q18 -5 42.5 -8.5t73 -6.5t131 -4.5t216.5 -1.5zM277 857q5 10 12 17t20 12l100 -70l79 65q18 -3 27 -23l-107 -116h-28z" />
    <glyph glyph-name="Zdotaccent" unicode="&#x17b;" horiz-adv-x="614" 
d="M648 668q1 -9 1.5 -19.5t-4.5 -19.5l-54.5 -66.5l-80 -98l-93.5 -114.5l-94 -115l-82 -101l-57 -72l2 -4q86 -5 162 -3.5t159 12.5l59 138q19 7 34 0l-54 -217l-12 -8q-23 4 -53 7.5t-82 6t-135 4t-213 1.5q-1 9 2 25t8 24q20 20 57 63.5l82.5 98l95.5 115.5l95 117
l81.5 102l54.5 70l-3 2h-89.5t-86.5 -1t-74.5 -3t-54.5 -6l-53 -117q-18 -5 -32 0l40 193l11 7q18 -5 42.5 -8.5t73 -6.5t131 -4.5t216.5 -1.5zM461 778q-5 -33 -30.5 -44t-52.5 -2l-23 42q3 31 26 44.5t58 4.5z" />
    <glyph glyph-name="Asmall" horiz-adv-x="536" 
d="M-23 -1q-4 16 5 38l39 11q8 2 26 30.5t41 72l49 96l50.5 102.5l45 92.5l32.5 66.5q16 11 30 16t28 5l20 -83l22.5 -94l23.5 -95.5t24 -88.5t22.5 -72.5t19.5 -47.5l29 -11q3 -10 1.5 -19.5t-6.5 -18.5h-198q-4 16 7 38l52 11q4 1 4.5 12.5t-2 31t-7.5 44.5t-12 53
q-48 2 -86.5 2t-81.5 -1l-38.5 -83l-26.5 -59l55 -11q4 -20 -4 -38h-164zM264 419l-41 -87.5l-49 -102.5q33 -3 67 -3.5t73 1.5l-26 107.5t-18 84.5h-6z" />
    <glyph glyph-name="Aacutesmall" horiz-adv-x="564" 
d="M-23 -1q-4 16 5 38l39 11q8 2 26 30.5t41 72l49 96l50.5 102.5l45 92.5l32.5 66.5q16 11 30 16t28 5l20 -83l22.5 -94l23.5 -95.5t24 -88.5t22.5 -72.5t19.5 -47.5l29 -11q3 -10 1.5 -19.5t-6.5 -18.5h-198q-4 16 7 38l52 11q4 1 4.5 12.5t-2 31t-7.5 44.5t-12 53
q-48 2 -86.5 2t-81.5 -1l-38.5 -83l-26.5 -59l55 -11q4 -20 -4 -38h-164zM236 596l152 150q32 -8 48 -24.5t24 -43.5l-201 -109zM264 419l-41 -87.5l-49 -102.5q33 -3 67 -3.5t73 1.5l-26 107.5t-18 84.5h-6z" />
    <glyph glyph-name="Acircumflexsmall" horiz-adv-x="564" 
d="M-23 -1q-4 16 5 38l39 11q8 2 26 30.5t41 72l49 96l50.5 102.5l45 92.5l32.5 66.5q16 11 30 16t28 5l20 -83l22.5 -94l23.5 -95.5t24 -88.5t22.5 -72.5t19.5 -47.5l29 -11q3 -10 1.5 -19.5t-6.5 -18.5h-198q-4 16 7 38l52 11q4 1 4.5 12.5t-2 31t-7.5 44.5t-12 53
q-48 2 -86.5 2t-81.5 -1l-38.5 -83l-26.5 -59l55 -11q4 -20 -4 -38h-164zM436 598q-5 -11 -13.5 -19t-22.5 -13l-111 77l-89 -73q-19 6 -31 26l120 130q18 10 33 0zM264 419l-41 -87.5l-49 -102.5q33 -3 67 -3.5t73 1.5l-26 107.5t-18 84.5h-6z" />
    <glyph glyph-name="Adieresissmall" horiz-adv-x="564" 
d="M-23 -1q-4 16 5 38l39 11q8 2 26 30.5t41 72l49 96l50.5 102.5l45 92.5l32.5 66.5q16 11 30 16t28 5l20 -83l22.5 -94l23.5 -95.5t24 -88.5t22.5 -72.5t19.5 -47.5l29 -11q3 -10 1.5 -19.5t-6.5 -18.5h-198q-4 16 7 38l52 11q4 1 4.5 12.5t-2 31t-7.5 44.5t-12 53
q-48 2 -86.5 2t-81.5 -1l-38.5 -83l-26.5 -59l55 -11q4 -20 -4 -38h-164zM264 419l-41 -87.5l-49 -102.5q33 -3 67 -3.5t73 1.5l-26 107.5t-18 84.5h-6zM405 711q2 -17 8.5 -35t14.5 -30q-9 -13 -30 -24t-38 -11q-9 0 -15 6.5t-10.5 16t-6.5 20.5t-2 19q0 10 8 17t20 11
t25.5 6.5t25.5 3.5zM238 711q2 -17 9 -35t16 -30q-10 -13 -31 -24t-38 -11q-8 0 -14 6.5t-10.5 16t-6.5 20.5t-2 19q0 10 7.5 17t19 11t25 6.5t25.5 3.5z" />
    <glyph glyph-name="Agravesmall" horiz-adv-x="564" 
d="M-23 -1q-4 16 5 38l39 11q8 2 26 30.5t41 72l49 96l50.5 102.5l45 92.5l32.5 66.5q16 11 30 16t28 5l20 -83l22.5 -94l23.5 -95.5t24 -88.5t22.5 -72.5t19.5 -47.5l29 -11q3 -10 1.5 -19.5t-6.5 -18.5h-198q-4 16 7 38l52 11q4 1 4.5 12.5t-2 31t-7.5 44.5t-12 53
q-48 2 -86.5 2t-81.5 -1l-38.5 -83l-26.5 -59l55 -11q4 -20 -4 -38h-164zM301 566l-175 131q9 28 28 47.5t52 28.5l132 -176zM264 419l-41 -87.5l-49 -102.5q33 -3 67 -3.5t73 1.5l-26 107.5t-18 84.5h-6z" />
    <glyph glyph-name="Aringsmall" horiz-adv-x="564" 
d="M-23 -1q-4 16 5 38l39 11q8 2 26 30.5t41 72l49 96l50.5 102.5l45 92.5l32.5 66.5q16 11 30 16t28 5l20 -83l22.5 -94l23.5 -95.5t24 -88.5t22.5 -72.5t19.5 -47.5l29 -11q3 -10 1.5 -19.5t-6.5 -18.5h-198q-4 16 7 38l52 11q4 1 4.5 12.5t-2 31t-7.5 44.5t-12 53
q-48 2 -86.5 2t-81.5 -1l-38.5 -83l-26.5 -59l55 -11q4 -20 -4 -38h-164zM388 672q0 -28 -10.5 -47.5t-26 -31.5t-32.5 -17.5t-30 -5.5q-40 0 -65 26t-25 65q0 29 11.5 48.5t27.5 31.5t32.5 17t26.5 5q41 0 66 -26.5t25 -64.5zM264 419l-41 -87.5l-49 -102.5q33 -3 67 -3.5
t73 1.5l-26 107.5t-18 84.5h-6zM243 671q0 -26 18.5 -41t39.5 -15q6 0 15.5 1t14.5 3q5 5 9 14.5t4 27.5q0 25 -17.5 41.5t-39.5 16.5q-11 0 -17 -2t-11 -4q-3 -2 -9.5 -12t-6.5 -30z" />
    <glyph glyph-name="Atildesmall" horiz-adv-x="564" 
d="M-23 -1q-4 16 5 38l39 11q8 2 26 30.5t41 72l49 96l50.5 102.5l45 92.5l32.5 66.5q16 11 30 16t28 5l20 -83l22.5 -94l23.5 -95.5t24 -88.5t22.5 -72.5t19.5 -47.5l29 -11q3 -10 1.5 -19.5t-6.5 -18.5h-198q-4 16 7 38l52 11q4 1 4.5 12.5t-2 31t-7.5 44.5t-12 53
q-48 2 -86.5 2t-81.5 -1l-38.5 -83l-26.5 -59l55 -11q4 -20 -4 -38h-164zM167 671q33 34 58 43t44.5 5t36.5 -15.5t34.5 -19t38 -5.5t47.5 26q9 -4 15.5 -16t5.5 -26q-32 -33 -58.5 -43t-49 -7.5t-42 13t-38 18t-36.5 6.5t-37 -21q-22 16 -19 42zM264 419l-41 -87.5
l-49 -102.5q33 -3 67 -3.5t73 1.5l-26 107.5t-18 84.5h-6z" />
    <glyph glyph-name="AEsmall" horiz-adv-x="725" 
d="M221 -1q-5 19 7 39l44 10q8 2 13.5 5t10.5 14t10 33t11 62q-23 1 -40 1.5t-32 0.5t-31 -0.5t-37 -0.5q-26 -38 -44 -68t-23 -47l65 -11q6 -20 0 -38h-180q-8 18 0 38l39 11q6 2 25.5 25.5t46.5 60.5l58.5 82.5l61.5 91l56.5 86.5t42.5 69l-42 6q-6 21 5 38h261
q50 0 72.5 6t33.5 11l7 -6l-42 -136q-7 -4 -15 -4t-15 5l10 75q-42 5 -82.5 3.5t-76.5 -5.5q-10 -34 -17.5 -81.5l-15.5 -98.5q47 -3 83 -2t50 9l15 38q22 7 36 0l-44 -149q-14 -7 -26 1l4 53q-29 -1 -60.5 0t-64.5 -1q-3 -19 -6 -43.5l-6 -49t-5 -46.5t-2 -35
q78 -8 124 -2.5t54 22.5l28 66q17 6 31 -1l-34 -143l-14 -5q-6 3 -30 7t-69 4h-251zM350 418l-31 -48l-36.5 -53.5l-40 -56.5l-39.5 -57q34 -4 59.5 -4.5t59.5 3.5q4 24 9 59q5 34 10.5 78.5t8.5 78.5z" />
    <glyph glyph-name="Bsmall" horiz-adv-x="535" 
d="M94 470q-3 20 5 37q18 3 54.5 5t75.5 3.5t72 2.5t44 1q59 0 91.5 -25t32.5 -78q0 -28 -9.5 -52.5t-25 -44t-35 -32t-39.5 -15.5v-4q25 -1 43.5 -10t31 -23.5t18.5 -32.5t6 -36q0 -45 -19.5 -76.5t-57 -52t-91.5 -29.5t-124 -9h-139q-2 9 -0.5 18.5t5.5 19.5l45 11
q10 3 17.5 10.5t14 29t14 62t17.5 108.5l6.5 50t6.5 54l5.5 51.5l4.5 44.5zM270 241q-14 0 -28.5 -1t-30.5 -3q-2 -9 -2.5 -18.5t-2.5 -20.5q-2 -14 -4.5 -34l-5 -41.5t-4.5 -41t-2 -30.5q17 -6 51 -7.5t70 2.5q10 4 22 13t21.5 23t16 32t6.5 39q0 88 -107 88zM247 467
q-2 -12 -3.5 -17.5t-4.5 -21t-8 -49.5t-14 -102q21 -2 45 -2t36 1q13 0 29 9t29.5 24.5t22.5 36.5t9 45q0 18 -3.5 32.5t-12.5 25t-26 16.5t-44 6q-13 0 -26.5 -1t-28.5 -3z" />
    <glyph glyph-name="Csmall" horiz-adv-x="537" 
d="M513 511l-40 -157q-20 -10 -35 0l12 88q-12 12 -43 18t-69 6q-28 0 -58 -6.5t-49 -15.5q-17 -11 -32.5 -30t-28.5 -45.5t-20.5 -60t-7.5 -73.5q0 -39 12 -73.5t35.5 -60t59.5 -40t84 -14.5q33 0 65 10.5t55 23.5q13 -18 10 -42q-18 -12 -42.5 -21.5t-50.5 -16.5
t-51 -10.5t-43 -3.5q-53 0 -94 16t-69 44t-42 66t-14 83q0 81 27 141.5t71.5 100.5t101 60t115.5 20q12 0 29 -2t35 -3.5t36 -0.5t33 6z" />
    <glyph glyph-name="Ccedillasmall" horiz-adv-x="564" 
d="M513 511l-40 -157q-20 -10 -35 0l12 88q-12 12 -43 18t-69 6q-28 0 -58 -6.5t-49 -15.5q-17 -11 -32.5 -30t-28.5 -45.5t-20.5 -60t-7.5 -73.5q0 -39 12 -73.5t35.5 -60t59.5 -40t84 -14.5q33 0 65 10.5t55 23.5q13 -18 10 -42q-18 -12 -42.5 -21.5t-50.5 -16.5
t-51 -10.5t-43 -3.5q-53 0 -94 16t-69 44t-42 66t-14 83q0 81 27 141.5t71.5 100.5t101 60t115.5 20q12 0 29 -2t35 -3.5t36 -0.5t33 6zM208 -99q-1 21 9 42q21 4 45 3.5t44.5 -8.5t34.5 -25t14 -46q0 -28 -13.5 -51t-35.5 -40t-51 -28.5t-59 -17.5q-10 13 -10 36
q43 11 68.5 34t25.5 55q0 27 -22.5 39t-49.5 7z" />
    <glyph glyph-name="Dsmall" horiz-adv-x="621" 
d="M193 58q16 -3 39 -4t48.5 0.5t52 6.5t49.5 14q15 7 32.5 28.5t32.5 52.5t25 69.5t10 79.5q0 84 -56.5 128.5t-177.5 32.5q-5 -38 -14.5 -88.5t-18.5 -117.5q-8 -60 -14 -111t-8 -91zM40 -2q-3 10 -1.5 19.5t6.5 18.5l42 11q7 1 12 7.5t11 28t13 62t17 111.5q4 31 8.5 62
l8.5 58.5t6 50t2 38.5l-64 5q-5 20 6 37q20 2 55 4l72 4t69.5 3t48.5 1q103 0 158.5 -49t55.5 -132q0 -54 -14 -102t-38.5 -88.5t-58.5 -70.5t-74 -48q-48 -22 -114.5 -26.5t-138.5 -4.5h-88z" />
    <glyph glyph-name="Esmall" horiz-adv-x="519" 
d="M41 -1q-5 19 7 39l44 10q10 3 16.5 7.5t12.5 24.5t12.5 62l17.5 119l7 52.5t7.5 58t5.5 52t2 35.5l-70 10q-6 21 5 38h261q50 0 72.5 6t33.5 11l7 -6l-42 -136q-7 -4 -15 -4t-15 5l10 75q-42 5 -82.5 3.5t-76.5 -5.5q-10 -34 -17.5 -81.5l-15.5 -98.5q47 -3 83 -2t50 9
l15 38q22 7 36 0l-44 -149q-14 -7 -26 1l4 53q-29 -1 -60.5 0t-64.5 -1q-3 -19 -6 -43.5l-6 -49t-5 -46.5t-2 -35q78 -8 124 -2.5t54 22.5l28 66q17 6 31 -1l-34 -143l-14 -5q-6 3 -30 7t-69 4h-251z" />
    <glyph glyph-name="Eacutesmall" horiz-adv-x="545" 
d="M41 -1q-5 19 7 39l44 10q10 3 16.5 7.5t12.5 24.5t12.5 62l17.5 119l7 52.5t7.5 58t5.5 52t2 35.5l-70 10q-6 21 5 38h261q50 0 72.5 6t33.5 11l7 -6l-42 -136q-7 -4 -15 -4t-15 5l10 75q-42 5 -82.5 3.5t-76.5 -5.5q-10 -34 -17.5 -81.5l-15.5 -98.5q47 -3 83 -2t50 9
l15 38q22 7 36 0l-44 -149q-14 -7 -26 1l4 53q-29 -1 -60.5 0t-64.5 -1q-3 -19 -6 -43.5l-6 -49t-5 -46.5t-2 -35q78 -8 124 -2.5t54 22.5l28 66q17 6 31 -1l-34 -143l-14 -5q-6 3 -30 7t-69 4h-251zM257 596l152 150q32 -8 48 -24.5t24 -43.5l-201 -109z" />
    <glyph glyph-name="Ecircumflexsmall" horiz-adv-x="545" 
d="M41 -1q-5 19 7 39l44 10q10 3 16.5 7.5t12.5 24.5t12.5 62l17.5 119l7 52.5t7.5 58t5.5 52t2 35.5l-70 10q-6 21 5 38h261q50 0 72.5 6t33.5 11l7 -6l-42 -136q-7 -4 -15 -4t-15 5l10 75q-42 5 -82.5 3.5t-76.5 -5.5q-10 -34 -17.5 -81.5l-15.5 -98.5q47 -3 83 -2t50 9
l15 38q22 7 36 0l-44 -149q-14 -7 -26 1l4 53q-29 -1 -60.5 0t-64.5 -1q-3 -19 -6 -43.5l-6 -49t-5 -46.5t-2 -35q78 -8 124 -2.5t54 22.5l28 66q17 6 31 -1l-34 -143l-14 -5q-6 3 -30 7t-69 4h-251zM444 598q-5 -11 -13.5 -19t-22.5 -13l-111 77l-89 -73q-19 6 -31 26
l120 130q18 10 33 0z" />
    <glyph glyph-name="Edieresissmall" horiz-adv-x="545" 
d="M41 -1q-5 19 7 39l44 10q10 3 16.5 7.5t12.5 24.5t12.5 62l17.5 119l7 52.5t7.5 58t5.5 52t2 35.5l-70 10q-6 21 5 38h261q50 0 72.5 6t33.5 11l7 -6l-42 -136q-7 -4 -15 -4t-15 5l10 75q-42 5 -82.5 3.5t-76.5 -5.5q-10 -34 -17.5 -81.5l-15.5 -98.5q47 -3 83 -2t50 9
l15 38q22 7 36 0l-44 -149q-14 -7 -26 1l4 53q-29 -1 -60.5 0t-64.5 -1q-3 -19 -6 -43.5l-6 -49t-5 -46.5t-2 -35q78 -8 124 -2.5t54 22.5l28 66q17 6 31 -1l-34 -143l-14 -5q-6 3 -30 7t-69 4h-251zM423 711q2 -17 8.5 -35t14.5 -30q-9 -13 -30 -24t-38 -11q-9 0 -15 6.5
t-10.5 16t-6.5 20.5t-2 19q0 10 8 17t20 11t25.5 6.5t25.5 3.5zM256 711q2 -17 9 -35t16 -30q-10 -13 -31 -24t-38 -11q-8 0 -14 6.5t-10.5 16t-6.5 20.5t-2 19q0 10 7.5 17t19 11t25 6.5t25.5 3.5z" />
    <glyph glyph-name="Egravesmall" horiz-adv-x="545" 
d="M41 -1q-5 19 7 39l44 10q10 3 16.5 7.5t12.5 24.5t12.5 62l17.5 119l7 52.5t7.5 58t5.5 52t2 35.5l-70 10q-6 21 5 38h261q50 0 72.5 6t33.5 11l7 -6l-42 -136q-7 -4 -15 -4t-15 5l10 75q-42 5 -82.5 3.5t-76.5 -5.5q-10 -34 -17.5 -81.5l-15.5 -98.5q47 -3 83 -2t50 9
l15 38q22 7 36 0l-44 -149q-14 -7 -26 1l4 53q-29 -1 -60.5 0t-64.5 -1q-3 -19 -6 -43.5l-6 -49t-5 -46.5t-2 -35q78 -8 124 -2.5t54 22.5l28 66q17 6 31 -1l-34 -143l-14 -5q-6 3 -30 7t-69 4h-251zM353 566l-175 131q9 28 28 47.5t52 28.5l132 -176z" />
    <glyph glyph-name="Fsmall" horiz-adv-x="498" 
d="M33 -1q-4 18 5 38l50 11q10 2 17 7.5t13 26t13 62.5t18 118l6.5 52l7 57t6 51t3.5 35l-72 11q-1 10 0.5 20t6.5 19h231q34 0 56 1.5t35.5 3.5t21 5t13.5 6l8 -5l-41 -141q-18 -6 -33 0l11 78q-38 3 -76.5 3.5t-74.5 -3.5q-11 -37 -18.5 -85.5l-15.5 -103.5q18 -1 38 -1.5
t38 -0.5t33 1t24 4l18 39q11 4 20 4t20 -2l-40 -160q-14 -7 -30 -2l3 68q-29 0 -63.5 1.5t-67.5 -1.5q-3 -20 -6 -44l-6 -47t-5 -42.5t-2 -31.5l99 -14q1 -9 -0.5 -18.5t-7.5 -19.5h-256z" />
    <glyph glyph-name="Gsmall" horiz-adv-x="602" 
d="M480 44q-24 -17 -53 -29.5t-58 -20.5t-56.5 -12.5t-49.5 -4.5q-51 0 -89.5 16.5t-64.5 45.5t-39 70t-13 89q0 76 25.5 136.5t67.5 103.5t97 66t114 23q16 0 38.5 -1.5t46 -2t45.5 0t38 4.5l7 -7l-39 -153q-19 -9 -37 -2l9 79q-21 17 -62 24t-86 7q-25 0 -44 -4.5
t-30 -11.5q-15 -7 -34 -28.5t-35 -54t-27 -74t-11 -87.5q0 -35 9 -67.5t28.5 -57t50.5 -39t76 -14.5q56 0 106 27q4 10 7 25t5.5 31.5t3.5 32.5t0 28l-73 12q-3 21 6 37h196q2 -9 1.5 -18t-6.5 -19l-27 -12q-8 -4 -14 -11t-10.5 -22t-9 -40t-9.5 -65z" />
    <glyph glyph-name="Hsmall" horiz-adv-x="672" 
d="M631 507q3 -21 -7 -38l-32 -11q-12 -4 -19.5 -12t-14.5 -29t-13.5 -59t-15.5 -103l-7 -54.5l-7.5 -61.5l-6.5 -54.5t-3 -34.5l63 -13q3 -18 -7 -38h-194q-8 18 6 38l24 11q7 3 13 8.5t13 25t14.5 58.5t17.5 108q-34 -11 -67.5 -16t-65 -6.5t-60.5 -1t-53 1.5
q-6 -44 -11 -91.5t-6 -84.5l40 -13q3 -20 -6 -38h-193q0 9 1 18.5t6 19.5l31 11q13 4 21.5 11.5t15.5 27.5t14.5 59.5t17.5 108.5l6.5 51t6.5 54t5.5 52.5t3.5 45.5l-59 11q-2 11 0 20.5t7 17.5h185q3 -20 -5 -38l-21 -11q-6 -3 -12 -10t-12.5 -25t-13 -50.5t-14.5 -87.5
q57 -7 119.5 -7t123.5 10q6 44 11.5 90.5t6.5 79.5l-48 11q-3 19 8 38h193z" />
    <glyph glyph-name="Ismall" horiz-adv-x="394" 
d="M342 507q2 -8 0.5 -17.5t-7.5 -20.5l-38 -11q-10 -3 -18 -10.5t-15 -28.5t-14.5 -59.5t-17.5 -104.5l-7 -53.5t-7.5 -60.5t-6 -54.5t-3.5 -36.5l70 -13q3 -21 -7 -38h-223q-6 18 5 38l36 11q13 4 22 10t16 26t14 59.5t17 111.5l6.5 51t6.5 54t5.5 52.5t3.5 45.5l-69 11
q-2 11 -1 20.5t7 17.5h225z" />
    <glyph glyph-name="Iacutesmall" horiz-adv-x="413" 
d="M342 507q2 -8 0.5 -17.5t-7.5 -20.5l-38 -11q-10 -3 -18 -10.5t-15 -28.5t-14.5 -59.5t-17.5 -104.5l-7 -53.5t-7.5 -60.5t-6 -54.5t-3.5 -36.5l70 -13q3 -21 -7 -38h-223q-6 18 5 38l36 11q13 4 22 10t16 26t14 59.5t17 111.5l6.5 51t6.5 54t5.5 52.5t3.5 45.5l-69 11
q-2 11 -1 20.5t7 17.5h225zM179 596l152 150q32 -8 48 -24.5t24 -43.5l-201 -109z" />
    <glyph glyph-name="Icircumflexsmall" horiz-adv-x="413" 
d="M342 507q2 -8 0.5 -17.5t-7.5 -20.5l-38 -11q-10 -3 -18 -10.5t-15 -28.5t-14.5 -59.5t-17.5 -104.5l-7 -53.5t-7.5 -60.5t-6 -54.5t-3.5 -36.5l70 -13q3 -21 -7 -38h-223q-6 18 5 38l36 11q13 4 22 10t16 26t14 59.5t17 111.5l6.5 51t6.5 54t5.5 52.5t3.5 45.5l-69 11
q-2 11 -1 20.5t7 17.5h225zM368 598q-5 -11 -13.5 -19t-22.5 -13l-111 77l-89 -73q-19 6 -31 26l120 130q18 10 33 0z" />
    <glyph glyph-name="Idieresissmall" horiz-adv-x="413" 
d="M342 507q2 -8 0.5 -17.5t-7.5 -20.5l-38 -11q-10 -3 -18 -10.5t-15 -28.5t-14.5 -59.5t-17.5 -104.5l-7 -53.5t-7.5 -60.5t-6 -54.5t-3.5 -36.5l70 -13q3 -21 -7 -38h-223q-6 18 5 38l36 11q13 4 22 10t16 26t14 59.5t17 111.5l6.5 51t6.5 54t5.5 52.5t3.5 45.5l-69 11
q-2 11 -1 20.5t7 17.5h225zM355 711q2 -17 8.5 -35t14.5 -30q-9 -13 -30 -24t-38 -11q-9 0 -15 6.5t-10.5 16t-6.5 20.5t-2 19q0 10 8 17t20 11t25.5 6.5t25.5 3.5zM188 711q2 -17 9 -35t16 -30q-10 -13 -31 -24t-38 -11q-8 0 -14 6.5t-10.5 16t-6.5 20.5t-2 19q0 10 7.5 17
t19 11t25 6.5t25.5 3.5z" />
    <glyph glyph-name="Igravesmall" horiz-adv-x="413" 
d="M342 507q2 -8 0.5 -17.5t-7.5 -20.5l-38 -11q-10 -3 -18 -10.5t-15 -28.5t-14.5 -59.5t-17.5 -104.5l-7 -53.5t-7.5 -60.5t-6 -54.5t-3.5 -36.5l70 -13q3 -21 -7 -38h-223q-6 18 5 38l36 11q13 4 22 10t16 26t14 59.5t17 111.5l6.5 51t6.5 54t5.5 52.5t3.5 45.5l-69 11
q-2 11 -1 20.5t7 17.5h225zM243 566l-175 131q9 28 28 47.5t52 28.5l132 -176z" />
    <glyph glyph-name="Jsmall" horiz-adv-x="397" 
d="M240 202q-11 -77 -27 -131t-37.5 -89.5t-48 -54.5t-58.5 -26q-27 0 -41 12t-17 28t5.5 31.5t27.5 22.5l64 -21q15 14 26.5 56t22.5 123q6 35 12 78t11 85.5t9 80t5 61.5l-92 11q-5 20 5 38h247q4 -18 -5 -38l-38 -11q-13 -4 -21 -10.5t-15 -30.5t-14.5 -74z" />
    <glyph glyph-name="Ksmall" horiz-adv-x="563" 
d="M297 507q6 -19 -5 -39l-22 -10q-6 -3 -12.5 -11t-13 -27.5t-13.5 -55t-14 -93.5q9 1 19.5 2t12.5 3q20 8 42 28t44 45.5t43 55l40 56.5l-27 7q-6 21 7 39h151q4 -17 -5 -36l-51 -19q-13 -5 -35 -27t-46.5 -49.5l-48 -54t-38.5 -39.5l-1 -5q18 -18 38.5 -55l43 -77.5
t45 -76t43.5 -51.5q5 -14 -4 -28h-59q-18 0 -35.5 17t-34 43t-32 57l-29.5 58.5t-26.5 47.5t-23.5 24q-3 1 -15 1.5t-22 -0.5l-12 -96.5t-7 -91.5l40 -12q5 -22 -6 -38h-189q-2 9 -0.5 19t5.5 20l42 10q8 2 14.5 11.5t12.5 32.5t12.5 62t14.5 101l6.5 51l7 54t6.5 52.5
t4 45.5l-59 11q-2 10 0 19.5t6 18.5h186z" />
    <glyph glyph-name="Lsmall" horiz-adv-x="491" 
d="M39 -1q-6 17 4 38l40 11q10 3 17 9t13 27.5t13 63.5t18 117l6.5 52l7 57t6 50.5t2.5 33.5l-62 13q-3 8 -1.5 17.5t6.5 18.5h207q4 -18 -6 -38l-35 -11q-11 -3 -18 -8.5t-12.5 -25t-11.5 -58.5l-16 -109q-2 -14 -5.5 -41.5l-7.5 -58.5t-7 -60.5t-4 -45.5q86 -6 125 0
t46 22l46 115q22 10 38 0l-52 -192l-9 -8q-24 11 -104 11h-244z" />
    <glyph glyph-name="Lslashsmall" horiz-adv-x="516" 
d="M39 -1q-6 17 4 38l40 11q9 3 15 7.5t11.5 19t11 43t13.5 78.5l-59 -27q-8 9 -9.5 26.5t3.5 33.5l75 34v2l6.5 52l7 57t6 50.5t2.5 33.5l-62 13q-3 8 -1.5 17.5t6.5 18.5h207q4 -18 -6 -38l-35 -11q-11 -3 -17.5 -7.5t-11.5 -20t-10.5 -46t-12.5 -84.5l140 65
q5 -8 8 -26.5t-2 -34.5l-156 -72q-3 -19 -6 -44.5l-6 -51l-5.5 -48.5t-2.5 -37q86 -6 125 0t46 22l46 115q22 10 38 0l-52 -192l-9 -8q-24 11 -104 11h-244z" />
    <glyph glyph-name="Msmall" horiz-adv-x="781" 
d="M23 -1q-2 8 -0.5 17.5t8.5 20.5l44 11q6 2 11.5 6.5t12.5 19t15.5 41t18.5 71.5t23 111t29 160l-64 12q-3 21 6 37h169q6 -35 15.5 -79.5l20.5 -93.5t24 -98.5l25 -94.5h4l101 196.5t83 169.5h154q4 -9 2.5 -18t-6.5 -20l-50 -11q-3 -1 -7 -20.5t-8 -52.5t-8 -76t-7 -89
q-2 -54 -4.5 -94.5t-4.5 -76.5l60 -11q3 -22 -6 -38h-189q-2 8 -1 17.5t7 20.5l33 11q11 4 19 40t13.5 89.5t9 117.5l6.5 123h-8q-38 -81 -89 -172t-103 -199q-27 -18 -57 -13l-25.5 100.5l-28 109.5t-24 101t-13.5 75l-6 -1q-5 -20 -14 -62l-20 -94.5l-22.5 -109
t-20.5 -105.5l37 -11q5 -21 -6 -38h-159z" />
    <glyph glyph-name="Nsmall" horiz-adv-x="664" 
d="M599 458q-9 -3 -15 -7.5t-11.5 -14t-10 -27t-8.5 -46.5l-17 -117.5l-15 -104.5l-12.5 -86.5t-8.5 -63.5q-16 -15 -43 -12q-14 13 -36.5 45.5t-48.5 74.5l-53 89l-50.5 88.5l-41 73l-23.5 42.5h-6q-2 -21 -7.5 -53.5t-12.5 -83.5l-10.5 -72.5t-7.5 -54t-5 -42.5t-3 -38
l57 -11q5 -20 -6 -38h-174q-2 8 -1.5 17.5t7.5 20.5l36 11q7 3 13.5 10t13.5 28.5t14.5 64t18.5 115.5l14 97.5t11 94.5l-64 11q-4 10 -3 19.5t10 18.5h141l25 -46.5l35 -64.5l41 -74l44 -76l42.5 -70t37.5 -56h2q8 36 13 71t10 79q8 55 14 102.5l11 85.5l-60 11q-6 21 5 38
h177q3 -20 -8 -38z" />
    <glyph glyph-name="Ntildesmall" horiz-adv-x="699" 
d="M599 458q-9 -3 -15 -7.5t-11.5 -14t-10 -27t-8.5 -46.5l-17 -117.5l-15 -104.5l-12.5 -86.5t-8.5 -63.5q-16 -15 -43 -12q-14 13 -36.5 45.5t-48.5 74.5l-53 89l-50.5 88.5l-41 73l-23.5 42.5h-6q-2 -21 -7.5 -53.5t-12.5 -83.5l-10.5 -72.5t-7.5 -54t-5 -42.5t-3 -38
l57 -11q5 -20 -6 -38h-174q-2 8 -1.5 17.5t7.5 20.5l36 11q7 3 13.5 10t13.5 28.5t14.5 64t18.5 115.5l14 97.5t11 94.5l-64 11q-4 10 -3 19.5t10 18.5h141l25 -46.5l35 -64.5l41 -74l44 -76l42.5 -70t37.5 -56h2q8 36 13 71t10 79q8 55 14 102.5l11 85.5l-60 11q-6 21 5 38
h177q3 -20 -8 -38zM243 671q33 34 58 43t44.5 5t36.5 -15.5t34.5 -19t38 -5.5t47.5 26q9 -4 15.5 -16t5.5 -26q-32 -33 -58.5 -43t-49 -7.5t-42 13t-38 18t-36.5 6.5t-37 -21q-22 16 -19 42z" />
    <glyph glyph-name="Osmall" horiz-adv-x="633" 
d="M576 325q0 -77 -25.5 -139.5t-68 -106.5t-99 -68.5t-118.5 -24.5q-48 0 -87 15.5t-67 44t-43 68.5t-15 88q0 73 26 133.5t70.5 103.5t103.5 66.5t124 23.5q48 0 85.5 -16.5t62.5 -44.5t38 -65t13 -78zM141 222q0 -44 14 -78t37 -57t52.5 -35t61.5 -12q20 0 37.5 2.5
t34.5 11.5q12 8 31 26.5t37.5 49t32 72.5t13.5 96q0 43 -13 76t-35 55.5t-52.5 34.5t-64.5 12q-22 0 -35 -3t-27 -8q-19 -11 -41 -31.5t-40.5 -51t-30.5 -71t-12 -89.5z" />
    <glyph glyph-name="Oacutesmall" horiz-adv-x="667" 
d="M576 325q0 -77 -25.5 -139.5t-68 -106.5t-99 -68.5t-118.5 -24.5q-48 0 -87 15.5t-67 44t-43 68.5t-15 88q0 73 26 133.5t70.5 103.5t103.5 66.5t124 23.5q48 0 85.5 -16.5t62.5 -44.5t38 -65t13 -78zM141 222q0 -44 14 -78t37 -57t52.5 -35t61.5 -12q20 0 37.5 2.5
t34.5 11.5q12 8 31 26.5t37.5 49t32 72.5t13.5 96q0 43 -13 76t-35 55.5t-52.5 34.5t-64.5 12q-22 0 -35 -3t-27 -8q-19 -11 -41 -31.5t-40.5 -51t-30.5 -71t-12 -89.5zM309 596l152 150q32 -8 48 -24.5t24 -43.5l-201 -109z" />
    <glyph glyph-name="Ocircumflexsmall" horiz-adv-x="667" 
d="M576 325q0 -77 -25.5 -139.5t-68 -106.5t-99 -68.5t-118.5 -24.5q-48 0 -87 15.5t-67 44t-43 68.5t-15 88q0 73 26 133.5t70.5 103.5t103.5 66.5t124 23.5q48 0 85.5 -16.5t62.5 -44.5t38 -65t13 -78zM141 222q0 -44 14 -78t37 -57t52.5 -35t61.5 -12q20 0 37.5 2.5
t34.5 11.5q12 8 31 26.5t37.5 49t32 72.5t13.5 96q0 43 -13 76t-35 55.5t-52.5 34.5t-64.5 12q-22 0 -35 -3t-27 -8q-19 -11 -41 -31.5t-40.5 -51t-30.5 -71t-12 -89.5zM509 598q-5 -11 -13.5 -19t-22.5 -13l-111 77l-89 -73q-19 6 -31 26l120 130q18 10 33 0z" />
    <glyph glyph-name="Odieresissmall" horiz-adv-x="667" 
d="M576 325q0 -77 -25.5 -139.5t-68 -106.5t-99 -68.5t-118.5 -24.5q-48 0 -87 15.5t-67 44t-43 68.5t-15 88q0 73 26 133.5t70.5 103.5t103.5 66.5t124 23.5q48 0 85.5 -16.5t62.5 -44.5t38 -65t13 -78zM141 222q0 -44 14 -78t37 -57t52.5 -35t61.5 -12q20 0 37.5 2.5
t34.5 11.5q12 8 31 26.5t37.5 49t32 72.5t13.5 96q0 43 -13 76t-35 55.5t-52.5 34.5t-64.5 12q-22 0 -35 -3t-27 -8q-19 -11 -41 -31.5t-40.5 -51t-30.5 -71t-12 -89.5zM467 711q2 -17 8.5 -35t14.5 -30q-9 -13 -30 -24t-38 -11q-9 0 -15 6.5t-10.5 16t-6.5 20.5t-2 19
q0 10 8 17t20 11t25.5 6.5t25.5 3.5zM300 711q2 -17 9 -35t16 -30q-10 -13 -31 -24t-38 -11q-8 0 -14 6.5t-10.5 16t-6.5 20.5t-2 19q0 10 7.5 17t19 11t25 6.5t25.5 3.5z" />
    <glyph glyph-name="Ogravesmall" horiz-adv-x="667" 
d="M576 325q0 -77 -25.5 -139.5t-68 -106.5t-99 -68.5t-118.5 -24.5q-48 0 -87 15.5t-67 44t-43 68.5t-15 88q0 73 26 133.5t70.5 103.5t103.5 66.5t124 23.5q48 0 85.5 -16.5t62.5 -44.5t38 -65t13 -78zM141 222q0 -44 14 -78t37 -57t52.5 -35t61.5 -12q20 0 37.5 2.5
t34.5 11.5q12 8 31 26.5t37.5 49t32 72.5t13.5 96q0 43 -13 76t-35 55.5t-52.5 34.5t-64.5 12q-22 0 -35 -3t-27 -8q-19 -11 -41 -31.5t-40.5 -51t-30.5 -71t-12 -89.5zM389 566l-175 131q9 28 28 47.5t52 28.5l132 -176z" />
    <glyph glyph-name="Otildesmall" horiz-adv-x="667" 
d="M576 325q0 -77 -25.5 -139.5t-68 -106.5t-99 -68.5t-118.5 -24.5q-48 0 -87 15.5t-67 44t-43 68.5t-15 88q0 73 26 133.5t70.5 103.5t103.5 66.5t124 23.5q48 0 85.5 -16.5t62.5 -44.5t38 -65t13 -78zM141 222q0 -44 14 -78t37 -57t52.5 -35t61.5 -12q20 0 37.5 2.5
t34.5 11.5q12 8 31 26.5t37.5 49t32 72.5t13.5 96q0 43 -13 76t-35 55.5t-52.5 34.5t-64.5 12q-22 0 -35 -3t-27 -8q-19 -11 -41 -31.5t-40.5 -51t-30.5 -71t-12 -89.5zM229 671q33 34 58 43t44.5 5t36.5 -15.5t34.5 -19t38 -5.5t47.5 26q9 -4 15.5 -16t5.5 -26
q-32 -33 -58.5 -43t-49 -7.5t-42 13t-38 18t-36.5 6.5t-37 -21q-22 16 -19 42z" />
    <glyph glyph-name="Oslashsmall" horiz-adv-x="667" 
d="M576 325q0 -77 -25.5 -139.5t-68 -106.5t-99 -68.5t-118.5 -24.5h-6l-31 -87q-15 5 -32 14t-25 24l22 59q-66 20 -103 74t-37 132q0 73 26 133.5t70.5 103.5t103.5 66.5t124 23.5h5l34 88q17 -5 33.5 -15.5t21.5 -24.5l-22 -60q31 -11 55 -30t40 -44.5t24 -55.5t8 -62z
M141 222q0 -60 25 -101.5t63 -61.5l142 411q-21 6 -44 6q-22 0 -35 -3t-27 -8q-19 -11 -41 -31.5t-40.5 -51t-30.5 -71t-12 -89.5zM492 298q0 57 -22 96t-58 60l-141 -410q15 -4 35 -4t37.5 2.5t34.5 11.5q12 8 31 26.5t37.5 49t32 72.5t13.5 96z" />
    <glyph glyph-name="OEsmall" horiz-adv-x="752" 
d="M371 -1q-15 -5 -36 -9t-56 -4q-44 0 -81.5 15.5t-65 43t-43.5 67t-16 87.5q0 81 30.5 142.5t78 103t105 63t111.5 21.5q50 0 92 -22h130q49 0 72 6t33 11l9 -6l-43 -136q-17 -8 -31 1l10 75q-42 5 -82 3.5t-76 -5.5q-11 -34 -18.5 -81.5l-15.5 -98.5q48 -2 84 -1.5
t50 8.5l15 38q20 7 37 0l-46 -149q-13 -7 -27 1l5 53q-29 0 -60.5 0.5t-64.5 -1.5q-3 -19 -6 -43.5l-6 -49l-5.5 -46.5t-2.5 -35q79 -8 125 -2.5t54 22.5l28 66q18 6 31 -1l-36 -142l-11 -5q-8 3 -31.5 6.5t-69.5 3.5h-170zM324 40q12 0 23 0.5t22 2.5l11.5 75l20.5 143
q6 38 12 91t11 106q-29 18 -79 18q-21 0 -34.5 -3t-26.5 -8q-18 -9 -40 -28t-40.5 -49.5t-31.5 -72.5t-13 -97q0 -42 14 -75t37.5 -56t53 -35t60.5 -12z" />
    <glyph glyph-name="Psmall" 
d="M43 -1q-6 17 6 38l40 11q9 3 15.5 9t13 26.5t14 61t17.5 111.5q10 63 16.5 117t8.5 85l-72 12q-2 10 -2 19t7 18q21 3 58.5 5t75 3.5t66.5 2t33 0.5q65 0 106 -31t41 -102q0 -57 -25.5 -95.5t-65.5 -61.5t-89 -33t-95 -11q-5 -39 -8.5 -74t-4.5 -62l82 -11q5 -22 -7 -38
h-231zM223 260q-1 -5 -1.5 -9.5t-1.5 -9.5q25 -7 53.5 -9.5t58.5 4.5q15 6 28.5 18.5t23.5 29.5t16 37t6 41q0 49 -33.5 76t-117.5 20l-14 -85.5t-18 -112.5z" />
    <glyph glyph-name="Qsmall" horiz-adv-x="634" 
d="M588 325q0 -60 -16 -111.5t-44 -92.5t-66 -71t-82 -46q56 -41 119 -75t129.5 -55.5t134.5 -27.5t134 8q11 -15 -2 -31q-20 -10 -50.5 -14t-67.5 -5q-46 -1 -104.5 5t-124.5 25.5t-137 56t-142 95.5q-47 1 -84.5 17.5t-64 44.5t-41 67t-14.5 87q0 73 26 133.5t70.5 103.5
t103.5 66.5t124 23.5q48 0 85.5 -16.5t62.5 -44.5t38 -65t13 -78zM153 222q0 -44 14 -78t37 -57t52.5 -35t61.5 -12q20 0 37.5 2.5t34.5 11.5q12 8 31 26.5t37.5 49t32 72.5t13.5 96q0 43 -13 76t-35 55.5t-52.5 34.5t-64.5 12q-22 0 -35 -3t-27 -8q-19 -11 -41 -31.5
t-40.5 -51t-30.5 -71t-12 -89.5z" />
    <glyph glyph-name="Rsmall" horiz-adv-x="556" 
d="M46 -1q-5 17 6 38l36 11q7 2 12.5 6.5t11 24t12 61l17.5 117.5q9 63 15.5 117.5t9.5 87.5l-61 14q-4 8 -2 16t7 16q20 1 53 3t66 3.5t58.5 2.5t29.5 1q57 0 90 -25t33 -79q0 -25 -8 -48t-21.5 -43t-31.5 -36t-37 -27l36.5 -72t42 -75.5t43 -67t39.5 -45.5q8 -12 -4 -24
h-35q-18 1 -37.5 15t-38.5 37t-37.5 51.5t-35 57l-31 54.5l-24.5 44q-12 -2 -24.5 -1.5t-24.5 0.5q-8 -53 -12.5 -102t-6.5 -84l62 -11q6 -20 -6 -38h-202zM249 466l-15.5 -84.5t-17.5 -108.5q19 -3 35 -3t35 6q27 10 49 42t22 73q0 45 -25.5 62.5t-82.5 12.5z" />
    <glyph glyph-name="Ssmall" horiz-adv-x="445" 
d="M188 235q-21 16 -36 30.5t-25.5 30.5t-15.5 36t-5 47q0 33 17 61t43 47.5t57.5 30.5t60.5 11q27 0 52 -4.5t54 0.5l6 -7l-43 -131q-16 -7 -29 3l13 65q-12 12 -27.5 18t-32 7.5t-31.5 -0.5t-26 -8q-15 -8 -27 -29t-12 -46q0 -39 26 -66t65 -57q35 -28 54.5 -54.5
t19.5 -64.5q0 -41 -18 -72t-47 -52t-64.5 -32t-69.5 -11q-15 0 -31 5.5t-31 13l-29 14.5t-26 9l-2 8l57 137q11 0 18.5 -2.5t12.5 -7.5l-17 -69q9 -20 24.5 -32.5t34 -18t39 -5.5t39.5 6q15 9 25 30t10 47q0 34 -23.5 58.5t-59.5 53.5z" />
    <glyph glyph-name="Scaronsmall" horiz-adv-x="468" 
d="M188 235q-21 16 -36 30.5t-25.5 30.5t-15.5 36t-5 47q0 33 17 61t43 47.5t57.5 30.5t60.5 11q27 0 52 -4.5t54 0.5l6 -7l-43 -131q-16 -7 -29 3l13 65q-12 12 -27.5 18t-32 7.5t-31.5 -0.5t-26 -8q-15 -8 -27 -29t-12 -46q0 -39 26 -66t65 -57q35 -28 54.5 -54.5
t19.5 -64.5q0 -41 -18 -72t-47 -52t-64.5 -32t-69.5 -11q-15 0 -31 5.5t-31 13l-29 14.5t-26 9l-2 8l57 137q11 0 18.5 -2.5t12.5 -7.5l-17 -69q9 -20 24.5 -32.5t34 -18t39 -5.5t39.5 6q15 9 25 30t10 47q0 34 -23.5 58.5t-59.5 53.5zM150 687q5 10 12 17t20 12l100 -70
l79 65q18 -3 27 -23l-107 -116h-28z" />
    <glyph glyph-name="Tsmall" horiz-adv-x="552" 
d="M546 521l-60 -217q-20 -11 -37 0l22 154q-12 2 -29 3t-34.5 1h-34.5h-30q-3 -10 -7 -31l-9 -47.5t-9.5 -55.5l-8.5 -54q-8 -65 -14 -122l-11 -102l59 -13q5 -16 -5 -38h-218q-2 20 8 38l38 11q11 3 19 10t16 29.5t16 66.5t19 122q3 24 6 52.5t5.5 55l4.5 48t2 30.5
q-20 0 -39.5 0.5t-36 -1t-28 -5t-14.5 -10.5l-56 -142q-20 -9 -33 0l40 219l7 7q11 -4 26 -8t39.5 -7.5t61 -5.5t90.5 -2q61 0 101.5 2t66 5t38.5 7t20 9z" />
    <glyph glyph-name="Usmall" horiz-adv-x="617" 
d="M284 507q7 -20 -5 -39l-35 -10q-12 -3 -22.5 -34.5t-18 -75t-12 -91.5t-4.5 -85q0 -72 45 -107.5t123 -23.5q16 9 31 24t27.5 39t23 58.5t17.5 84.5q3 19 6.5 48l7 59t6 58t2.5 46l-46 10q-5 19 7 39h154q5 -18 -5 -39l-31 -10q-6 -2 -12 -12.5t-12 -35.5t-13 -67
t-15 -108q-9 -64 -29.5 -111t-49.5 -77.5t-64 -45.5t-73 -15q-27 0 -58.5 7t-58.5 27t-45 55t-18 91q0 31 4.5 73.5t10 85l10.5 78.5t6 54l-46 11q-3 10 -1.5 20t5.5 19h188z" />
    <glyph glyph-name="Uacutesmall" horiz-adv-x="651" 
d="M284 507q7 -20 -5 -39l-35 -10q-12 -3 -22.5 -34.5t-18 -75t-12 -91.5t-4.5 -85q0 -72 45 -107.5t123 -23.5q16 9 31 24t27.5 39t23 58.5t17.5 84.5q3 19 6.5 48l7 59t6 58t2.5 46l-46 10q-5 19 7 39h154q5 -18 -5 -39l-31 -10q-6 -2 -12 -12.5t-12 -35.5t-13 -67
t-15 -108q-9 -64 -29.5 -111t-49.5 -77.5t-64 -45.5t-73 -15q-27 0 -58.5 7t-58.5 27t-45 55t-18 91q0 31 4.5 73.5t10 85l10.5 78.5t6 54l-46 11q-3 10 -1.5 20t5.5 19h188zM320 596l152 150q32 -8 48 -24.5t24 -43.5l-201 -109z" />
    <glyph glyph-name="Ucircumflexsmall" horiz-adv-x="651" 
d="M284 507q7 -20 -5 -39l-35 -10q-12 -3 -22.5 -34.5t-18 -75t-12 -91.5t-4.5 -85q0 -72 45 -107.5t123 -23.5q16 9 31 24t27.5 39t23 58.5t17.5 84.5q3 19 6.5 48l7 59t6 58t2.5 46l-46 10q-5 19 7 39h154q5 -18 -5 -39l-31 -10q-6 -2 -12 -12.5t-12 -35.5t-13 -67
t-15 -108q-9 -64 -29.5 -111t-49.5 -77.5t-64 -45.5t-73 -15q-27 0 -58.5 7t-58.5 27t-45 55t-18 91q0 31 4.5 73.5t10 85l10.5 78.5t6 54l-46 11q-3 10 -1.5 20t5.5 19h188zM500 598q-5 -11 -13.5 -19t-22.5 -13l-111 77l-89 -73q-19 6 -31 26l120 130q18 10 33 0z" />
    <glyph glyph-name="Udieresissmall" horiz-adv-x="651" 
d="M284 507q7 -20 -5 -39l-35 -10q-12 -3 -22.5 -34.5t-18 -75t-12 -91.5t-4.5 -85q0 -72 45 -107.5t123 -23.5q16 9 31 24t27.5 39t23 58.5t17.5 84.5q3 19 6.5 48l7 59t6 58t2.5 46l-46 10q-5 19 7 39h154q5 -18 -5 -39l-31 -10q-6 -2 -12 -12.5t-12 -35.5t-13 -67
t-15 -108q-9 -64 -29.5 -111t-49.5 -77.5t-64 -45.5t-73 -15q-27 0 -58.5 7t-58.5 27t-45 55t-18 91q0 31 4.5 73.5t10 85l10.5 78.5t6 54l-46 11q-3 10 -1.5 20t5.5 19h188zM469 711q2 -17 8.5 -35t14.5 -30q-9 -13 -30 -24t-38 -11q-9 0 -15 6.5t-10.5 16t-6.5 20.5t-2 19
q0 10 8 17t20 11t25.5 6.5t25.5 3.5zM302 711q2 -17 9 -35t16 -30q-10 -13 -31 -24t-38 -11q-8 0 -14 6.5t-10.5 16t-6.5 20.5t-2 19q0 10 7.5 17t19 11t25 6.5t25.5 3.5z" />
    <glyph glyph-name="Ugravesmall" horiz-adv-x="651" 
d="M284 507q7 -20 -5 -39l-35 -10q-12 -3 -22.5 -34.5t-18 -75t-12 -91.5t-4.5 -85q0 -72 45 -107.5t123 -23.5q16 9 31 24t27.5 39t23 58.5t17.5 84.5q3 19 6.5 48l7 59t6 58t2.5 46l-46 10q-5 19 7 39h154q5 -18 -5 -39l-31 -10q-6 -2 -12 -12.5t-12 -35.5t-13 -67
t-15 -108q-9 -64 -29.5 -111t-49.5 -77.5t-64 -45.5t-73 -15q-27 0 -58.5 7t-58.5 27t-45 55t-18 91q0 31 4.5 73.5t10 85l10.5 78.5t6 54l-46 11q-3 10 -1.5 20t5.5 19h188zM378 566l-175 131q9 28 28 47.5t52 28.5l132 -176z" />
    <glyph glyph-name="Vsmall" horiz-adv-x="573" 
d="M578 507q6 -17 -6 -38l-30 -14q-8 -4 -26 -33.5t-42 -74l-51.5 -97l-53 -103l-47 -93l-33.5 -65.5q-28 -22 -58 -22l-20.5 83.5l-24 96l-26 98.5l-25.5 91t-23 74t-19 48l-32 11q-6 18 6 38h193q2 -8 1.5 -17.5t-7.5 -20.5l-47 -11q-7 -2 -5 -23.5t9.5 -55.5t18 -75.5
l21.5 -82.5l20 -77.5t13 -59.5h7l45.5 89.5l55 108.5l51.5 103t35 73l-61 11q-3 21 5 38h156z" />
    <glyph glyph-name="Wsmall" horiz-adv-x="778" 
d="M411 334l-26 -56l-31.5 -66.5l-33.5 -69.5l-31.5 -65.5l-26 -53.5t-17.5 -34q-25 -21 -57 -22q-10 37 -19 83.5t-17.5 96l-17 98.5t-17 91t-17 74t-17.5 48l-30 11q-6 21 5 38h196q3 -19 -7 -38l-51 -11q-7 -2 -7.5 -23.5t3 -55t9.5 -74.5t13.5 -82t15 -77.5l12.5 -59.5
h7l28 59l37 76.5l41 86.5l40 89q-8 24 -14.5 37l-12.5 24l-32 11q-3 21 7 38h179q2 -9 -1 -18.5t-8 -19.5l-30 -11q-7 -2 -6 -24.5t6 -56.5t13.5 -75.5l17.5 -82.5l17 -76.5t12 -58.5h5q16 35 38 88.5l44 109l41 103.5l29 73l-61 11q-3 22 6 38h160q2 -9 1 -18.5t-9 -19.5
l-28 -11q-8 -3 -24.5 -32.5t-37 -74l-43.5 -98l-45 -104.5l-41.5 -94t-31.5 -66q-23 -19 -57 -22q-7 30 -17 78l-21 100l-21.5 102.5z" />
    <glyph glyph-name="Xsmall" horiz-adv-x="585" 
d="M25 -1q-5 20 5 38l38 11q15 4 37.5 26t48 52.5l51 64l45.5 61.5l-31.5 69l-31 63.5t-26 48.5t-15.5 25l-54 11q-2 9 -1.5 18.5t5.5 19.5h196q3 -19 -6 -38l-23 -11q-8 -4 -6.5 -16.5t9 -32.5t19 -45.5l24.5 -54.5l28.5 38.5l30.5 42t27 39t18 29.5l-31 11q-5 18 6 38h158
q1 -9 -0.5 -18.5t-7.5 -19.5l-38 -11q-17 -5 -39.5 -25.5t-46 -48t-46.5 -58.5l-42 -57l3 -7l28.5 -66.5t29 -61l27 -51t22.5 -35.5l58 -11q5 -20 -6 -38h-198q-1 9 0.5 18.5t8.5 19.5l22 11q8 4 6 18t-10 35.5t-21.5 49.5l-27.5 60l-29 -40.5l-31 -45l-28 -42.5t-20 -32
l31 -14q3 -21 -6 -38h-160z" />
    <glyph glyph-name="Ysmall" horiz-adv-x="533" 
d="M537 507q2 -9 0.5 -18t-9.5 -20l-28 -11q-12 -5 -35.5 -32.5t-51 -63.5l-54.5 -74l-46 -65l-14.5 -105.5t-6.5 -69.5l65 -11q2 -10 1 -19.5t-9 -18.5h-215q-1 9 0.5 18.5t8.5 19.5l39 11q9 3 16 9t13 22t11.5 46t12.5 80q-7 20 -19.5 45.5l-26.5 53l-28.5 54l-26.5 48
l-20.5 35.5t-10.5 17l-43 11q-4 20 6 38h188q3 -19 -7 -38l-31 -11q-7 -2 -3.5 -18t14 -42t27 -60t36.5 -71l38.5 54l38.5 57.5l32 49.5t18 30l-41 11q-2 10 -0.5 19.5t5.5 18.5h156z" />
    <glyph glyph-name="Yacutesmall" horiz-adv-x="561" 
d="M537 507q2 -9 0.5 -18t-9.5 -20l-28 -11q-12 -5 -35.5 -32.5t-51 -63.5l-54.5 -74l-46 -65l-14.5 -105.5t-6.5 -69.5l65 -11q2 -10 1 -19.5t-9 -18.5h-215q-1 9 0.5 18.5t8.5 19.5l39 11q9 3 16 9t13 22t11.5 46t12.5 80q-7 20 -19.5 45.5l-26.5 53l-28.5 54l-26.5 48
l-20.5 35.5t-10.5 17l-43 11q-4 20 6 38h188q3 -19 -7 -38l-31 -11q-7 -2 -3.5 -18t14 -42t27 -60t36.5 -71l38.5 54l38.5 57.5l32 49.5t18 30l-41 11q-2 10 -0.5 19.5t5.5 18.5h156zM258 596l152 150q32 -8 48 -24.5t24 -43.5l-201 -109z" />
    <glyph glyph-name="Ydieresissmall" horiz-adv-x="561" 
d="M537 507q2 -9 0.5 -18t-9.5 -20l-28 -11q-12 -5 -35.5 -32.5t-51 -63.5l-54.5 -74l-46 -65l-14.5 -105.5t-6.5 -69.5l65 -11q2 -10 1 -19.5t-9 -18.5h-215q-1 9 0.5 18.5t8.5 19.5l39 11q9 3 16 9t13 22t11.5 46t12.5 80q-7 20 -19.5 45.5l-26.5 53l-28.5 54l-26.5 48
l-20.5 35.5t-10.5 17l-43 11q-4 20 6 38h188q3 -19 -7 -38l-31 -11q-7 -2 -3.5 -18t14 -42t27 -60t36.5 -71l38.5 54l38.5 57.5l32 49.5t18 30l-41 11q-2 10 -0.5 19.5t5.5 18.5h156zM424 711q2 -17 8.5 -35t14.5 -30q-9 -13 -30 -24t-38 -11q-9 0 -15 6.5t-10.5 16
t-6.5 20.5t-2 19q0 10 8 17t20 11t25.5 6.5t25.5 3.5zM257 711q2 -17 9 -35t16 -30q-10 -13 -31 -24t-38 -11q-8 0 -14 6.5t-10.5 16t-6.5 20.5t-2 19q0 10 7.5 17t19 11t25 6.5t25.5 3.5z" />
    <glyph glyph-name="Zsmall" horiz-adv-x="496" 
d="M458 507q2 -8 2.5 -16.5t-4.5 -18.5l-36 -46.5l-54 -71.5l-63.5 -84l-64 -85.5l-56.5 -76l-40 -54.5l2 -3q30 -2 60.5 -2t58 1.5t50.5 4.5t38 8l51 140q16 6 30 -2l-42 -214l-13 -10q-10 4 -25 8t-50.5 7t-100 5t-173.5 2q0 10 0.5 18.5t5.5 18.5q13 14 38 46l56 72.5
l64.5 86.5l64 87.5l55 75.5l37.5 51l-1 3q-57 1 -108.5 -1.5t-83.5 -7.5l-47 -124q-19 -10 -32 0l29 200l9 5q8 -5 20 -9t46.5 -7t99 -5t177.5 -2z" />
    <glyph glyph-name="Zcaronsmall" horiz-adv-x="521" 
d="M458 507q2 -8 2.5 -16.5t-4.5 -18.5l-36 -46.5l-54 -71.5l-63.5 -84l-64 -85.5l-56.5 -76l-40 -54.5l2 -3q30 -2 60.5 -2t58 1.5t50.5 4.5t38 8l51 140q16 6 30 -2l-42 -214l-13 -10q-10 4 -25 8t-50.5 7t-100 5t-173.5 2q0 10 0.5 18.5t5.5 18.5q13 14 38 46l56 72.5
l64.5 86.5l64 87.5l55 75.5l37.5 51l-1 3q-57 1 -108.5 -1.5t-83.5 -7.5l-47 -124q-19 -10 -32 0l29 200l9 5q8 -5 20 -9t46.5 -7t99 -5t177.5 -2zM164 687q5 10 12 17t20 12l100 -70l79 65q18 -3 27 -23l-107 -116h-28z" />
    <glyph glyph-name="a" unicode="a" horiz-adv-x="485" 
d="M435 463l-10 -53.5t-12 -71.5l-12.5 -81.5t-11 -83t-8 -76t-3.5 -60.5h43q2 -4 3 -10.5t-3 -12.5q-14 -11 -35 -22t-44 -11q-40 0 -40 56q0 10 2.5 28l5.5 38t7 40.5l7 35.5h-3q-13 -35 -35.5 -70t-49.5 -63.5t-56 -46.5t-55 -18q-46 0 -64.5 36t-18.5 94q0 52 11 100
t30 89.5t45.5 76t56.5 59.5q33 27 74.5 39t81.5 12q23 0 50.5 -7t43.5 -17zM359 417q-13 7 -29 11t-33 4t-40.5 -4t-40.5 -12q-17 -22 -33.5 -52t-29.5 -66t-21 -76t-8 -82q0 -54 8.5 -78.5t26.5 -24.5q11 0 27 13.5t34 35.5t36.5 50t34 56.5t27 55.5t15.5 48q4 18 7.5 31.5
t6.5 27t6 28.5t6 34z" />
    <glyph glyph-name="aacute" unicode="&#xe1;" horiz-adv-x="485" 
d="M435 463l-10 -53.5t-12 -71.5l-12.5 -81.5t-11 -83t-8 -76t-3.5 -60.5h43q2 -4 3 -10.5t-3 -12.5q-14 -11 -35 -22t-44 -11q-40 0 -40 56q0 10 2.5 28l5.5 38t7 40.5l7 35.5h-3q-13 -35 -35.5 -70t-49.5 -63.5t-56 -46.5t-55 -18q-46 0 -64.5 36t-18.5 94q0 52 11 100
t30 89.5t45.5 76t56.5 59.5q33 27 74.5 39t81.5 12q23 0 50.5 -7t43.5 -17zM359 417q-13 7 -29 11t-33 4t-40.5 -4t-40.5 -12q-17 -22 -33.5 -52t-29.5 -66t-21 -76t-8 -82q0 -54 8.5 -78.5t26.5 -24.5q11 0 27 13.5t34 35.5t36.5 50t34 56.5t27 55.5t15.5 48q4 18 7.5 31.5
t6.5 27t6 28.5t6 34zM276 562l152 150q32 -8 48 -24.5t24 -43.5l-201 -109z" />
    <glyph glyph-name="acircumflex" unicode="&#xe2;" horiz-adv-x="485" 
d="M435 463l-10 -53.5t-12 -71.5l-12.5 -81.5t-11 -83t-8 -76t-3.5 -60.5h43q2 -4 3 -10.5t-3 -12.5q-14 -11 -35 -22t-44 -11q-40 0 -40 56q0 10 2.5 28l5.5 38t7 40.5l7 35.5h-3q-13 -35 -35.5 -70t-49.5 -63.5t-56 -46.5t-55 -18q-46 0 -64.5 36t-18.5 94q0 52 11 100
t30 89.5t45.5 76t56.5 59.5q33 27 74.5 39t81.5 12q23 0 50.5 -7t43.5 -17zM359 417q-13 7 -29 11t-33 4t-40.5 -4t-40.5 -12q-17 -22 -33.5 -52t-29.5 -66t-21 -76t-8 -82q0 -54 8.5 -78.5t26.5 -24.5q11 0 27 13.5t34 35.5t36.5 50t34 56.5t27 55.5t15.5 48q4 18 7.5 31.5
t6.5 27t6 28.5t6 34zM441 565q-5 -11 -13.5 -19t-22.5 -13l-111 77l-89 -73q-19 6 -31 26l120 130q18 10 33 0z" />
    <glyph glyph-name="adieresis" unicode="&#xe4;" horiz-adv-x="485" 
d="M435 463l-10 -53.5t-12 -71.5l-12.5 -81.5t-11 -83t-8 -76t-3.5 -60.5h43q2 -4 3 -10.5t-3 -12.5q-14 -11 -35 -22t-44 -11q-40 0 -40 56q0 10 2.5 28l5.5 38t7 40.5l7 35.5h-3q-13 -35 -35.5 -70t-49.5 -63.5t-56 -46.5t-55 -18q-46 0 -64.5 36t-18.5 94q0 52 11 100
t30 89.5t45.5 76t56.5 59.5q33 27 74.5 39t81.5 12q23 0 50.5 -7t43.5 -17zM359 417q-13 7 -29 11t-33 4t-40.5 -4t-40.5 -12q-17 -22 -33.5 -52t-29.5 -66t-21 -76t-8 -82q0 -54 8.5 -78.5t26.5 -24.5q11 0 27 13.5t34 35.5t36.5 50t34 56.5t27 55.5t15.5 48q4 18 7.5 31.5
t6.5 27t6 28.5t6 34zM414 677q2 -17 8.5 -35t14.5 -30q-9 -13 -30 -24t-38 -11q-9 0 -15 6.5t-10.5 16t-6.5 20.5t-2 19q0 10 8 17t20 11t25.5 6.5t25.5 3.5zM247 677q2 -17 9 -35t16 -30q-10 -13 -31 -24t-38 -11q-8 0 -14 6.5t-10.5 16t-6.5 20.5t-2 19q0 10 7.5 17t19 11
t25 6.5t25.5 3.5z" />
    <glyph glyph-name="agrave" unicode="&#xe0;" horiz-adv-x="485" 
d="M435 463l-10 -53.5t-12 -71.5l-12.5 -81.5t-11 -83t-8 -76t-3.5 -60.5h43q2 -4 3 -10.5t-3 -12.5q-14 -11 -35 -22t-44 -11q-40 0 -40 56q0 10 2.5 28l5.5 38t7 40.5l7 35.5h-3q-13 -35 -35.5 -70t-49.5 -63.5t-56 -46.5t-55 -18q-46 0 -64.5 36t-18.5 94q0 52 11 100
t30 89.5t45.5 76t56.5 59.5q33 27 74.5 39t81.5 12q23 0 50.5 -7t43.5 -17zM359 417q-13 7 -29 11t-33 4t-40.5 -4t-40.5 -12q-17 -22 -33.5 -52t-29.5 -66t-21 -76t-8 -82q0 -54 8.5 -78.5t26.5 -24.5q11 0 27 13.5t34 35.5t36.5 50t34 56.5t27 55.5t15.5 48q4 18 7.5 31.5
t6.5 27t6 28.5t6 34zM345 533l-175 131q9 28 28 47.5t52 28.5l132 -176z" />
    <glyph glyph-name="amacron" unicode="&#x101;" horiz-adv-x="485" 
d="M435 463l-10 -53.5t-12 -71.5l-12.5 -81.5t-11 -83t-8 -76t-3.5 -60.5h43q2 -4 3 -10.5t-3 -12.5q-14 -11 -35 -22t-44 -11q-40 0 -40 56q0 10 2.5 28l5.5 38t7 40.5l7 35.5h-3q-13 -35 -35.5 -70t-49.5 -63.5t-56 -46.5t-55 -18q-46 0 -64.5 36t-18.5 94q0 52 11 100
t30 89.5t45.5 76t56.5 59.5q33 27 74.5 39t81.5 12q23 0 50.5 -7t43.5 -17zM359 417q-13 7 -29 11t-33 4t-40.5 -4t-40.5 -12q-17 -22 -33.5 -52t-29.5 -66t-21 -76t-8 -82q0 -54 8.5 -78.5t26.5 -24.5q11 0 27 13.5t34 35.5t36.5 50t34 56.5t27 55.5t15.5 48q4 18 7.5 31.5
t6.5 27t6 28.5t6 34zM453 641q4 -18 0.5 -30.5t-12.5 -24.5h-251q-6 20 -1.5 32.5t17.5 22.5h247z" />
    <glyph glyph-name="aogonek" unicode="&#x105;" horiz-adv-x="485" 
d="M435 463l-10 -53.5t-12 -71.5l-12.5 -81.5t-11 -83t-8 -76t-3.5 -60.5h43q2 -4 3 -10.5t-3 -12.5q-17 -14 -42 -25q-26 -23 -44.5 -53t-18.5 -57q0 -26 13.5 -41t35.5 -15q15 0 30 2.5t29 7.5q4 -4 7.5 -9t5.5 -17q-20 -13 -48.5 -22.5t-52.5 -13.5q-45 0 -70.5 22
t-25.5 60q0 36 24.5 71.5t58.5 61.5q-21 12 -21 51q0 10 2.5 28l5.5 38t7 40.5l7 35.5h-3q-13 -35 -35.5 -70t-49.5 -63.5t-56 -46.5t-55 -18q-46 0 -64.5 36t-18.5 94q0 52 11 100t30 89.5t45.5 76t56.5 59.5q33 27 74.5 39t81.5 12q23 0 50.5 -7t43.5 -17zM359 417
q-13 7 -29 11t-33 4t-40.5 -4t-40.5 -12q-17 -22 -33.5 -52t-29.5 -66t-21 -76t-8 -82q0 -54 8.5 -78.5t26.5 -24.5q11 0 27 13.5t34 35.5t36.5 50t34 56.5t27 55.5t15.5 48q4 18 7.5 31.5t6.5 27t6 28.5t6 34z" />
    <glyph glyph-name="aring" unicode="&#xe5;" horiz-adv-x="485" 
d="M435 463l-10 -53.5t-12 -71.5l-12.5 -81.5t-11 -83t-8 -76t-3.5 -60.5h43q2 -4 3 -10.5t-3 -12.5q-14 -11 -35 -22t-44 -11q-40 0 -40 56q0 10 2.5 28l5.5 38t7 40.5l7 35.5h-3q-13 -35 -35.5 -70t-49.5 -63.5t-56 -46.5t-55 -18q-46 0 -64.5 36t-18.5 94q0 52 11 100
t30 89.5t45.5 76t56.5 59.5q33 27 74.5 39t81.5 12q23 0 50.5 -7t43.5 -17zM359 417q-13 7 -29 11t-33 4t-40.5 -4t-40.5 -12q-17 -22 -33.5 -52t-29.5 -66t-21 -76t-8 -82q0 -54 8.5 -78.5t26.5 -24.5q11 0 27 13.5t34 35.5t36.5 50t34 56.5t27 55.5t15.5 48q4 18 7.5 31.5
t6.5 27t6 28.5t6 34zM406 639q0 -28 -10.5 -47.5t-26 -31.5t-32.5 -17.5t-30 -5.5q-40 0 -65 26t-25 65q0 29 11.5 48.5t27.5 31.5t32.5 17t26.5 5q41 0 66 -26.5t25 -64.5zM261 638q0 -26 18.5 -41t39.5 -15q6 0 15.5 1t14.5 3q5 5 9 14.5t4 27.5q0 25 -17.5 41.5
t-39.5 16.5q-11 0 -17 -2t-11 -4q-3 -2 -9.5 -12t-6.5 -30z" />
    <glyph glyph-name="atilde" unicode="&#xe3;" horiz-adv-x="485" 
d="M435 463l-10 -53.5t-12 -71.5l-12.5 -81.5t-11 -83t-8 -76t-3.5 -60.5h43q2 -4 3 -10.5t-3 -12.5q-14 -11 -35 -22t-44 -11q-40 0 -40 56q0 10 2.5 28l5.5 38t7 40.5l7 35.5h-3q-13 -35 -35.5 -70t-49.5 -63.5t-56 -46.5t-55 -18q-46 0 -64.5 36t-18.5 94q0 52 11 100
t30 89.5t45.5 76t56.5 59.5q33 27 74.5 39t81.5 12q23 0 50.5 -7t43.5 -17zM359 417q-13 7 -29 11t-33 4t-40.5 -4t-40.5 -12q-17 -22 -33.5 -52t-29.5 -66t-21 -76t-8 -82q0 -54 8.5 -78.5t26.5 -24.5q11 0 27 13.5t34 35.5t36.5 50t34 56.5t27 55.5t15.5 48q4 18 7.5 31.5
t6.5 27t6 28.5t6 34zM179 637q34 34 58.5 43t44 5t36.5 -15.5t34.5 -19t38 -5.5t47.5 26q9 -4 15.5 -16t5.5 -26q-32 -33 -58.5 -43t-49 -7.5t-42 13t-38 18t-36.5 6.5t-37 -21q-22 16 -19 42z" />
    <glyph glyph-name="ae" unicode="&#xe6;" horiz-adv-x="709" 
d="M359 417q-13 7 -29 11t-33 4t-40.5 -4t-40.5 -12q-17 -22 -33.5 -52t-29.5 -66t-21 -76t-8 -82q0 -54 8.5 -78.5t26.5 -24.5q11 0 27 13.5t34 35.5t36.5 50t34 56.5t27 55.5t15.5 48q4 18 7.5 31.5t6.5 27t6 28.5t6 34zM324 181q-14 -35 -37 -70.5t-50.5 -64.5t-56.5 -47
t-55 -18q-46 0 -64.5 36t-18.5 94q0 52 11 100t30 89.5t45.5 76t56.5 59.5q33 27 74.5 39t81.5 12q23 0 53.5 -6t57.5 -23q20 11 53.5 20t71.5 9q25 0 44 -8.5t32 -22t19.5 -30.5t6.5 -35q0 -41 -19 -66t-48 -45q-33 -20 -89 -34t-116 -18q-1 -12 -1.5 -20.5t-0.5 -20.5
q0 -78 14.5 -116t56.5 -38q11 0 29.5 5.5t38.5 14.5t40.5 19.5t35.5 20.5q8 -5 13.5 -12t6.5 -16q-48 -36 -103 -62t-107 -26q-62 0 -83.5 48t-16.5 156h-6zM409 267q32 1 66 5.5t62.5 16t46.5 30.5t18 49q0 25 -15.5 44.5t-57.5 19.5q-17 0 -38 -6.5t-34 -14.5
q-16 -23 -30 -62.5t-18 -81.5z" />
    <glyph glyph-name="b" unicode="b" horiz-adv-x="471" 
d="M91 310l7.5 52t9 66.5t8.5 74l7.5 74t5.5 66t2 51.5h-54q-3 11 0 24q15 12 41.5 21.5t49.5 9.5q26 0 33 -13.5t7 -31.5q0 -25 -5.5 -74.5t-14 -106t-18 -111t-18.5 -89.5h4q13 25 32.5 53t43 51.5t49 39t51.5 15.5q47 0 72.5 -36t25.5 -94q0 -104 -37 -189.5t-98 -135.5
q-34 -27 -79 -38t-81 -11q-8 0 -21 1.5t-27 4.5t-26 7t-19 9q19 90 29 168.5t20 141.5zM124 45q12 -6 31.5 -8.5t36.5 -2.5q34 0 69 15q18 16 34 45.5t28 66t19 78t7 83.5q0 54 -15.5 79t-33.5 25t-41 -22t-45 -54.5t-39.5 -69.5t-23.5 -66q-4 -17 -8 -38.5t-7.5 -44
t-6.5 -45t-5 -41.5z" />
    <glyph glyph-name="c" unicode="c" horiz-adv-x="396" 
d="M378 442q0 -18 -13.5 -29t-24.5 -16q-14 11 -41 23t-55 12q-12 0 -25 -3t-20 -9q-10 -9 -23 -34t-24 -59.5t-19 -74.5t-8 -80q0 -66 28 -102.5t74 -36.5q27 0 49 9t46 23q18 -7 21 -29q-27 -25 -65.5 -42t-90.5 -17q-64 0 -104.5 47t-40.5 129q0 42 9 85t24.5 82t38 71
t49.5 52q30 23 67 33.5t71 10.5q36 0 56.5 -14t20.5 -31z" />
    <glyph glyph-name="cacute" unicode="&#x107;" horiz-adv-x="396" 
d="M378 442q0 -18 -13.5 -29t-24.5 -16q-14 11 -41 23t-55 12q-12 0 -25 -3t-20 -9q-10 -9 -23 -34t-24 -59.5t-19 -74.5t-8 -80q0 -66 28 -102.5t74 -36.5q27 0 49 9t46 23q18 -7 21 -29q-27 -25 -65.5 -42t-90.5 -17q-64 0 -104.5 47t-40.5 129q0 42 9 85t24.5 82t38 71
t49.5 52q30 23 67 33.5t71 10.5q36 0 56.5 -14t20.5 -31zM236 562l152 150q32 -8 48 -24.5t24 -43.5l-201 -109z" />
    <glyph glyph-name="ccaron" unicode="&#x10d;" horiz-adv-x="396" 
d="M378 442q0 -18 -13.5 -29t-24.5 -16q-14 11 -41 23t-55 12q-12 0 -25 -3t-20 -9q-10 -9 -23 -34t-24 -59.5t-19 -74.5t-8 -80q0 -66 28 -102.5t74 -36.5q27 0 49 9t46 23q18 -7 21 -29q-27 -25 -65.5 -42t-90.5 -17q-64 0 -104.5 47t-40.5 129q0 42 9 85t24.5 82t38 71
t49.5 52q30 23 67 33.5t71 10.5q36 0 56.5 -14t20.5 -31zM167 653q5 10 12 17t20 12l100 -70l79 65q18 -3 27 -23l-107 -116h-28z" />
    <glyph glyph-name="ccedilla" unicode="&#xe7;" horiz-adv-x="396" 
d="M378 442q0 -18 -13.5 -29t-24.5 -16q-14 11 -41 23t-55 12q-12 0 -25 -3t-20 -9q-10 -9 -23 -34t-24 -59.5t-19 -74.5t-8 -80q0 -66 28 -102.5t74 -36.5q27 0 49 9t46 23q18 -7 21 -29q-27 -25 -65.5 -42t-90.5 -17q-64 0 -104.5 47t-40.5 129q0 42 9 85t24.5 82t38 71
t49.5 52q30 23 67 33.5t71 10.5q36 0 56.5 -14t20.5 -31zM125 -99q-1 21 9 42q21 4 45 3.5t44.5 -8.5t34.5 -25t14 -46q0 -28 -13.5 -51t-35.5 -40t-51 -28.5t-59 -17.5q-10 13 -10 36q43 11 68.5 34t25.5 55q0 27 -22.5 39t-49.5 7z" />
    <glyph glyph-name="d" unicode="d" horiz-adv-x="492" 
d="M400 272l-7.5 -59t-6.5 -56t-5 -58t-2 -65h43q5 -12 0 -23q-14 -12 -35.5 -22.5t-44.5 -10.5q-21 0 -30 14t-9 40q0 11 2 31t4.5 42.5t6 45t6.5 38.5h-4q-14 -35 -34.5 -72.5t-45 -68t-52 -50.5t-55.5 -20q-47 0 -68 33.5t-21 91.5q0 52 9 101t26.5 92t42 79t54.5 61
q16 13 38.5 22.5t46 15.5t47 9t42.5 3q4 18 9 48.5t8.5 61l6.5 56.5t3 36h-50q-6 14 0 29q14 11 41.5 20.5t53.5 9.5q20 0 25 -13.5t5 -31.5q0 -10 -3 -39.5t-7.5 -69.5l-10 -86.5l-11 -91l-10.5 -82.5zM339 418q-27 12 -63 12q-17 0 -35.5 -3t-35.5 -11q-17 -22 -32 -53.5
t-26 -68.5t-17 -78t-6 -83q0 -54 10.5 -76.5t28.5 -22.5q12 0 27 14t31.5 36t33 50.5t30.5 58t24.5 56.5t14.5 48q3 17 5 31t3.5 27.5l3 28z" />
    <glyph glyph-name="dcaron" unicode="&#x10f;" horiz-adv-x="502" 
d="M592 609q-5 -35 -21 -62.5t-35 -47.5t-36 -30.5t-24 -10.5q-5 5 -7.5 10t-1.5 11q18 14 32.5 33.5t18.5 46.5q2 17 -2 29.5t-11.5 21.5t-15.5 15.5t-13 11.5q8 20 21.5 37t32.5 31q35 0 52 -26t10 -70zM400 272l-7.5 -59t-6.5 -56t-5 -58t-2 -65h43q5 -12 0 -23
q-14 -12 -35.5 -22.5t-44.5 -10.5q-21 0 -30 14t-9 40q0 11 2 31t4.5 42.5t6 45t6.5 38.5h-4q-14 -35 -34.5 -72.5t-45 -68t-52 -50.5t-55.5 -20q-47 0 -68 33.5t-21 91.5q0 52 9 101t26.5 92t42 79t54.5 61q16 13 38.5 22.5t46 15.5t47 9t42.5 3q4 18 9 48.5t8.5 61
l6.5 56.5t3 36h-50q-6 14 0 29q14 11 41.5 20.5t53.5 9.5q20 0 25 -13.5t5 -31.5q0 -10 -3 -39.5t-7.5 -69.5l-10 -86.5l-11 -91l-10.5 -82.5zM339 418q-27 12 -63 12q-17 0 -35.5 -3t-35.5 -11q-17 -22 -32 -53.5t-26 -68.5t-17 -78t-6 -83q0 -54 10.5 -76.5t28.5 -22.5
q12 0 27 14t31.5 36t33 50.5t30.5 58t24.5 56.5t14.5 48q3 17 5 31t3.5 27.5l3 28z" />
    <glyph glyph-name="dcroat" unicode="&#x111;" horiz-adv-x="492" 
d="M400 272l-7.5 -59t-6.5 -56t-5 -58t-2 -65h43q5 -12 0 -23q-14 -12 -35.5 -22.5t-44.5 -10.5q-21 0 -30 14t-9 40q0 11 2 31t4.5 42.5t6 45t6.5 38.5h-4q-14 -35 -34.5 -72.5t-45 -68t-52 -50.5t-55.5 -20q-47 0 -68 33.5t-21 91.5q0 52 9 101t26.5 92t42 79t54.5 61
q16 13 38.5 22.5t46 15.5t47 9t42.5 3q3 12 6 29.5t6 37.5h-133q-5 20 -0.5 32t17.5 22h123q3 27 5 49.5t3 31.5h-50q-6 14 0 29q14 11 41.5 20.5t53.5 9.5q20 0 25 -13.5t5 -31.5q0 -10 -2.5 -35t-6.5 -60h56q5 -18 1 -29.5t-13 -24.5h-50l-10 -79l-9.5 -79.5l-8.5 -70.5
t-7 -52zM339 418q-27 12 -63 12q-17 0 -35.5 -3t-35.5 -11q-17 -22 -32 -53.5t-26 -68.5t-17 -78t-6 -83q0 -54 10.5 -76.5t28.5 -22.5q12 0 27 14t31.5 36t33 50.5t30.5 58t24.5 56.5t14.5 48q3 17 5 31t3.5 27.5l3 28z" />
    <glyph glyph-name="e" unicode="e" horiz-adv-x="423" 
d="M198 -23q-73 0 -117 47t-44 141q0 33 8.5 71t24 75t39 71t53.5 60q54 45 128 45q25 0 44.5 -8.5t32 -22t19 -30.5t6.5 -35q0 -41 -18.5 -66t-47.5 -45q-33 -20 -88 -34t-116 -18q-2 -12 -3 -20.5t-1 -20.5q0 -39 9.5 -68t25 -48t36 -28.5t41.5 -9.5t50.5 10t53.5 30
q17 -10 20 -28q-12 -14 -32 -26.5t-42.5 -21.5t-44.5 -14.5t-37 -5.5zM125 267q31 1 65 5.5t61.5 16t45.5 30.5t18 49q0 25 -15.5 44.5t-57.5 19.5q-17 0 -28 -3.5t-22 -7.5q-8 -10 -19 -27.5t-21.5 -38.5t-18 -44t-8.5 -44z" />
    <glyph glyph-name="eacute" unicode="&#xe9;" horiz-adv-x="423" 
d="M198 -23q-73 0 -117 47t-44 141q0 33 8.5 71t24 75t39 71t53.5 60q54 45 128 45q25 0 44.5 -8.5t32 -22t19 -30.5t6.5 -35q0 -41 -18.5 -66t-47.5 -45q-33 -20 -88 -34t-116 -18q-2 -12 -3 -20.5t-1 -20.5q0 -39 9.5 -68t25 -48t36 -28.5t41.5 -9.5t50.5 10t53.5 30
q17 -10 20 -28q-12 -14 -32 -26.5t-42.5 -21.5t-44.5 -14.5t-37 -5.5zM125 267q31 1 65 5.5t61.5 16t45.5 30.5t18 49q0 25 -15.5 44.5t-57.5 19.5q-17 0 -28 -3.5t-22 -7.5q-8 -10 -19 -27.5t-21.5 -38.5t-18 -44t-8.5 -44zM210 563l152 150q32 -8 48 -24.5t24 -43.5
l-201 -109z" />
    <glyph glyph-name="ecaron" unicode="&#x11b;" horiz-adv-x="423" 
d="M198 -23q-73 0 -117 47t-44 141q0 33 8.5 71t24 75t39 71t53.5 60q54 45 128 45q25 0 44.5 -8.5t32 -22t19 -30.5t6.5 -35q0 -41 -18.5 -66t-47.5 -45q-33 -20 -88 -34t-116 -18q-2 -12 -3 -20.5t-1 -20.5q0 -39 9.5 -68t25 -48t36 -28.5t41.5 -9.5t50.5 10t53.5 30
q17 -10 20 -28q-12 -14 -32 -26.5t-42.5 -21.5t-44.5 -14.5t-37 -5.5zM125 267q31 1 65 5.5t61.5 16t45.5 30.5t18 49q0 25 -15.5 44.5t-57.5 19.5q-17 0 -28 -3.5t-22 -7.5q-8 -10 -19 -27.5t-21.5 -38.5t-18 -44t-8.5 -44zM158 653q5 10 12 17t20 12l100 -70l79 65
q18 -3 27 -23l-107 -116h-28z" />
    <glyph glyph-name="ecircumflex" unicode="&#xea;" horiz-adv-x="423" 
d="M198 -23q-73 0 -117 47t-44 141q0 33 8.5 71t24 75t39 71t53.5 60q54 45 128 45q25 0 44.5 -8.5t32 -22t19 -30.5t6.5 -35q0 -41 -18.5 -66t-47.5 -45q-33 -20 -88 -34t-116 -18q-2 -12 -3 -20.5t-1 -20.5q0 -39 9.5 -68t25 -48t36 -28.5t41.5 -9.5t50.5 10t53.5 30
q17 -10 20 -28q-12 -14 -32 -26.5t-42.5 -21.5t-44.5 -14.5t-37 -5.5zM125 267q31 1 65 5.5t61.5 16t45.5 30.5t18 49q0 25 -15.5 44.5t-57.5 19.5q-17 0 -28 -3.5t-22 -7.5q-8 -10 -19 -27.5t-21.5 -38.5t-18 -44t-8.5 -44zM415 565q-5 -11 -13.5 -19t-22.5 -13l-111 77
l-89 -73q-19 6 -31 26l120 130q18 10 33 0z" />
    <glyph glyph-name="edieresis" unicode="&#xeb;" horiz-adv-x="423" 
d="M198 -23q-73 0 -117 47t-44 141q0 33 8.5 71t24 75t39 71t53.5 60q54 45 128 45q25 0 44.5 -8.5t32 -22t19 -30.5t6.5 -35q0 -41 -18.5 -66t-47.5 -45q-33 -20 -88 -34t-116 -18q-2 -12 -3 -20.5t-1 -20.5q0 -39 9.5 -68t25 -48t36 -28.5t41.5 -9.5t50.5 10t53.5 30
q17 -10 20 -28q-12 -14 -32 -26.5t-42.5 -21.5t-44.5 -14.5t-37 -5.5zM125 267q31 1 65 5.5t61.5 16t45.5 30.5t18 49q0 25 -15.5 44.5t-57.5 19.5q-17 0 -28 -3.5t-22 -7.5q-8 -10 -19 -27.5t-21.5 -38.5t-18 -44t-8.5 -44zM376 677q2 -17 8.5 -35t14.5 -30q-9 -13 -30 -24
t-38 -11q-9 0 -15 6.5t-10.5 16t-6.5 20.5t-2 19q0 10 8 17t20 11t25.5 6.5t25.5 3.5zM209 677q2 -17 9 -35t16 -30q-10 -13 -31 -24t-38 -11q-8 0 -14 6.5t-10.5 16t-6.5 20.5t-2 19q0 10 7.5 17t19 11t25 6.5t25.5 3.5z" />
    <glyph glyph-name="edotaccent" unicode="&#x117;" horiz-adv-x="423" 
d="M198 -23q-73 0 -117 47t-44 141q0 33 8.5 71t24 75t39 71t53.5 60q54 45 128 45q25 0 44.5 -8.5t32 -22t19 -30.5t6.5 -35q0 -41 -18.5 -66t-47.5 -45q-33 -20 -88 -34t-116 -18q-2 -12 -3 -20.5t-1 -20.5q0 -39 9.5 -68t25 -48t36 -28.5t41.5 -9.5t50.5 10t53.5 30
q17 -10 20 -28q-12 -14 -32 -26.5t-42.5 -21.5t-44.5 -14.5t-37 -5.5zM125 267q31 1 65 5.5t61.5 16t45.5 30.5t18 49q0 25 -15.5 44.5t-57.5 19.5q-17 0 -28 -3.5t-22 -7.5q-8 -10 -19 -27.5t-21.5 -38.5t-18 -44t-8.5 -44zM363 627q-5 -33 -30.5 -44t-52.5 -2l-23 42
q3 31 26 44.5t58 4.5z" />
    <glyph glyph-name="egrave" unicode="&#xe8;" horiz-adv-x="423" 
d="M198 -23q-73 0 -117 47t-44 141q0 33 8.5 71t24 75t39 71t53.5 60q54 45 128 45q25 0 44.5 -8.5t32 -22t19 -30.5t6.5 -35q0 -41 -18.5 -66t-47.5 -45q-33 -20 -88 -34t-116 -18q-2 -12 -3 -20.5t-1 -20.5q0 -39 9.5 -68t25 -48t36 -28.5t41.5 -9.5t50.5 10t53.5 30
q17 -10 20 -28q-12 -14 -32 -26.5t-42.5 -21.5t-44.5 -14.5t-37 -5.5zM125 267q31 1 65 5.5t61.5 16t45.5 30.5t18 49q0 25 -15.5 44.5t-57.5 19.5q-17 0 -28 -3.5t-22 -7.5q-8 -10 -19 -27.5t-21.5 -38.5t-18 -44t-8.5 -44zM315 535l-175 131q9 28 28 47.5t52 28.5
l132 -176z" />
    <glyph glyph-name="emacron" unicode="&#x113;" horiz-adv-x="423" 
d="M198 -23q-73 0 -117 47t-44 141q0 33 8.5 71t24 75t39 71t53.5 60q54 45 128 45q25 0 44.5 -8.5t32 -22t19 -30.5t6.5 -35q0 -41 -18.5 -66t-47.5 -45q-33 -20 -88 -34t-116 -18q-2 -12 -3 -20.5t-1 -20.5q0 -39 9.5 -68t25 -48t36 -28.5t41.5 -9.5t50.5 10t53.5 30
q17 -10 20 -28q-12 -14 -32 -26.5t-42.5 -21.5t-44.5 -14.5t-37 -5.5zM125 267q31 1 65 5.5t61.5 16t45.5 30.5t18 49q0 25 -15.5 44.5t-57.5 19.5q-17 0 -28 -3.5t-22 -7.5q-8 -10 -19 -27.5t-21.5 -38.5t-18 -44t-8.5 -44zM423 641q4 -18 0.5 -30.5t-12.5 -24.5h-251
q-6 20 -1.5 32.5t17.5 22.5h247z" />
    <glyph glyph-name="eogonek" unicode="&#x119;" horiz-adv-x="423" 
d="M321 20q-18 -11 -37 -27t-34 -35t-24.5 -39.5t-9.5 -39.5q0 -26 13.5 -41t35.5 -15q15 0 30 2.5t29 7.5q4 -4 7.5 -9t5.5 -17q-20 -13 -48.5 -22.5t-52.5 -13.5q-45 0 -70.5 22t-25.5 60q0 34 21.5 67t52.5 59q-5 -1 -8.5 -1.5t-7.5 -0.5q-73 0 -117 47t-44 141
q0 33 8.5 71t24 75t39 71t53.5 60q54 45 128 45q25 0 44.5 -8.5t32 -22t19 -30.5t6.5 -35q0 -41 -18.5 -66t-47.5 -45q-33 -20 -88 -34t-116 -18q-2 -12 -3 -20.5t-1 -20.5q0 -39 9.5 -68t25 -48t36 -28.5t41.5 -9.5t50.5 10t53.5 30q17 -10 20 -28q-11 -13 -28 -24
t-36.5 -19.5t-39.5 -14.5t-36 -8q18 14 37 24.5t36 16.5h34zM125 267q31 1 65 5.5t61.5 16t45.5 30.5t18 49q0 25 -15.5 44.5t-57.5 19.5q-17 0 -28 -3.5t-22 -7.5q-8 -10 -19 -27.5t-21.5 -38.5t-18 -44t-8.5 -44z" />
    <glyph glyph-name="f" unicode="f" horiz-adv-x="306" 
d="M383 670q-9 6 -25 11t-34 8t-36 3t-31 -4q-18 -20 -31 -77.5t-21 -136.5h116q2 -11 0 -27.5t-9 -27.5h-114l-18 -196q-14 -149 -40 -248t-63.5 -157t-86 -81t-107.5 -20q-10 14 -8 37.5t16 37.5q27 -8 60 -6.5t56 9.5q15 20 30.5 58.5t30.5 110t28.5 181.5t24.5 274h-75
q-3 12 -0.5 28.5t9.5 26.5h71q9 87 30.5 140.5t52 83t68 40t78.5 10.5q20 0 31 -9t13.5 -21.5t-2 -25.5t-14.5 -22z" />
    <glyph glyph-name="ff" unicode="&#xfb00;" horiz-adv-x="522" 
d="M183 223q-14 -156 -38 -256.5t-59 -158.5t-82 -79t-106 -18q-11 14 -9 38t16 38q27 -8 60 -7t57 9q15 21 29 63t26.5 117t24 188.5t22.5 277.5h-75q-6 23 7 46h72q3 74 22.5 122t48 76.5t61.5 40t63 11.5t40.5 -12t10.5 -26q0 -9 -8 -20.5t-22 -16.5q-19 12 -39 18
t-47 -3q-9 -10 -16.5 -24.5t-14 -36t-12 -53t-9.5 -76.5h162q8 84 27 137t47.5 83t67 41t86.5 11q30 0 41.5 -12t11.5 -26q0 -8 -8 -20t-23 -17q-9 6 -24 11t-31.5 7t-34 1.5t-30.5 -4.5q-17 -20 -30.5 -71t-21.5 -141h80q2 -12 0.5 -24t-6.5 -22h-78l-19 -212
q-12 -141 -36 -232.5t-59.5 -145t-83 -73.5t-106.5 -17q-11 14 -9 38t16 38q27 -8 60.5 -7t56.5 9q10 14 19.5 33.5t18 50t17 74.5t16.5 106.5t15.5 145.5t15.5 192h-162z" />
    <glyph glyph-name="fi" unicode="&#xfb01;" horiz-adv-x="502" 
d="M280 470q53 0 84.5 6t55.5 6q19 0 27 -15t8 -38q0 -12 -4.5 -42.5t-11 -70l-14 -83l-14 -83t-11 -70t-4.5 -43.5h52v-26q-7 -6 -18.5 -11.5t-25 -9t-26.5 -6t-22 -2.5q-22 0 -32 17t-10 37q0 15 4.5 46.5t11 71.5t14.5 83.5l14.5 82l11 67t4.5 39.5h-177l-18 -203
q-14 -150 -38.5 -248.5t-61 -156t-84.5 -79.5t-107 -19q-5 7 -7.5 17t-1.5 20.5t5 20.5t11 17q27 -8 60.5 -7.5t56.5 8.5q15 21 30 60.5t28.5 112t26 183.5t23.5 274h-75q-5 24 8 44h70q7 91 32.5 146.5t62 86t81.5 40.5t92 10q52 0 78.5 -19t26.5 -43q0 -14 -6.5 -23
t-16 -15t-20.5 -9t-20 -5q-11 29 -35 42t-50.5 15.5t-51 -3t-36.5 -12.5q-17 -20 -33.5 -70.5t-25.5 -140.5h79z" />
    <glyph glyph-name="fl" unicode="&#xfb02;" horiz-adv-x="529" 
d="M401 752q44 0 59.5 -15t15.5 -37q0 -13 -5.5 -63.5t-14 -120l-18.5 -148l-18.5 -148l-14.5 -120t-6 -63.5h54q5 -8 0 -26q-8 -6 -20 -11.5t-25 -9t-26 -6t-22 -2.5q-22 0 -32.5 17t-10.5 37q0 11 3.5 42.5l8.5 76t12 98l14 108.5l14 108t12 96.5l8.5 73t3.5 38.5
q-8 7 -25.5 12t-37.5 6t-40.5 -2t-33.5 -12q-18 -20 -30 -65.5t-20 -134.5h79q2 -12 1 -24t-7 -22h-77l-19 -212q-14 -159 -37 -259t-58 -156.5t-82.5 -77t-108.5 -19.5q-5 7 -7 17.5t-1 22t5 21.5t11 17q27 -8 60.5 -7t56.5 9q15 21 29 62.5t26.5 116.5t24 188t22.5 277
h-75q-6 23 7 46h72q6 85 26 138t54.5 82.5t82.5 40t110 10.5z" />
    <glyph glyph-name="g" unicode="g" horiz-adv-x="455" 
d="M331 418q-13 6 -30 9t-34 3q-33 0 -68 -16q-17 -19 -30.5 -51t-23 -69t-14.5 -75.5t-5 -70.5q0 -54 10.5 -81.5t34.5 -27.5q17 0 40.5 25.5t46 64.5t40 84.5t22.5 84.5q4 28 6.5 55t4.5 65zM134 -17q-23 0 -40 12.5t-28 33.5t-16.5 47t-5.5 53q0 44 9.5 89t26 86.5
t39 75.5t49.5 55q33 27 70.5 39t85.5 12q8 0 20.5 -1.5t25.5 -4.5t24.5 -7.5t18.5 -9.5q-8 -88 -18 -172t-17 -155q-9 -88 -23 -152t-32 -109.5t-38.5 -74.5t-42.5 -47q-20 -16 -45.5 -28.5t-69.5 -12.5q-15 0 -32 1t-34.5 4t-33.5 8.5t-29 13.5q-5 20 2.5 42t24.5 37
q17 -12 39.5 -22t48 -15.5t52 -5t51.5 9.5q19 17 34.5 61t27 99t20 112.5l14.5 100.5h-2q-17 -37 -37 -69t-42.5 -55.5t-46.5 -37t-50 -13.5z" />
    <glyph glyph-name="gcommaaccent" unicode="&#x123;" horiz-adv-x="455" 
d="M252 605q0 35 15.5 65.5t36.5 53.5t43 37t36 16q4 -5 5 -8.5t0 -11.5q-19 -11 -37 -37t-18 -54q0 -18 5 -33t25 -31q-12 -38 -51 -63q-36 0 -48 19t-12 47zM331 418q-13 6 -30 9t-34 3q-33 0 -68 -16q-17 -19 -30.5 -51t-23 -69t-14.5 -75.5t-5 -70.5q0 -54 10.5 -81.5
t34.5 -27.5q17 0 40.5 25.5t46 64.5t40 84.5t22.5 84.5q4 28 6.5 55t4.5 65zM134 -17q-23 0 -40 12.5t-28 33.5t-16.5 47t-5.5 53q0 44 9.5 89t26 86.5t39 75.5t49.5 55q33 27 70.5 39t85.5 12q8 0 20.5 -1.5t25.5 -4.5t24.5 -7.5t18.5 -9.5q-8 -88 -18 -172t-17 -155
q-9 -88 -23 -152t-32 -109.5t-38.5 -74.5t-42.5 -47q-20 -16 -45.5 -28.5t-69.5 -12.5q-15 0 -32 1t-34.5 4t-33.5 8.5t-29 13.5q-5 20 2.5 42t24.5 37q17 -12 39.5 -22t48 -15.5t52 -5t51.5 9.5q19 17 34.5 61t27 99t20 112.5l14.5 100.5h-2q-17 -37 -37 -69t-42.5 -55.5
t-46.5 -37t-50 -13.5z" />
    <glyph glyph-name="h" unicode="h" horiz-adv-x="488" 
d="M164 297q42 88 93.5 136.5t101.5 48.5q38 0 58.5 -30.5t20.5 -90.5q0 -37 -4 -79.5t-13.5 -85t-25.5 -81t-40 -68.5t-56.5 -47.5t-74.5 -17.5q-6 4 -9 13t-2.5 20t4.5 22.5t11 20.5q17 -5 40 -5.5t41 4.5q11 13 19.5 43t14.5 68t9.5 79.5t3.5 79.5q0 60 -11 79t-33 19
q-15 0 -38 -23t-46 -58t-42 -75.5t-26 -76.5q-5 -24 -8 -45.5l-6 -44.5l-6 -47.5t-8 -54.5q-9 -3 -20.5 -5t-23 -2t-21.5 1.5t-16 5.5q6 33 15.5 94l20 134l21 150l19 143t14 112.5t5.5 58.5h-60q-3 11 0 22q7 6 19.5 12t27.5 11t30 8t27 3q23 0 30 -13.5t7 -40.5
q0 -8 -3 -33.5t-8.5 -62l-12.5 -79.5l-14.5 -85t-15.5 -78.5t-15 -59.5z" />
    <glyph glyph-name="i" unicode="i" horiz-adv-x="302" 
d="M80 426q-4 12 0 22q10 6 23.5 12.5t28 11t28.5 7.5t26 3q19 0 27.5 -15t8.5 -38q0 -12 -4.5 -42.5t-11 -70l-14 -83l-14 -83t-11 -70t-4.5 -43.5h52q6 -13 0 -26q-7 -6 -18.5 -11.5t-25 -9t-26.5 -6t-22 -2.5q-22 0 -32.5 17t-10.5 37q0 15 4.5 46.5t11.5 71.5l14.5 83.5
l14.5 82t11.5 67t4.5 39.5h-61zM247 671q-5 -33 -30.5 -44t-52.5 -2l-23 42q3 31 26 44.5t58 4.5z" />
    <glyph glyph-name="iacute" unicode="&#xed;" horiz-adv-x="326" 
d="M95 426q-4 12 0 22q10 6 23.5 12.5t28 11t28.5 7.5t26 3q19 0 27.5 -15t8.5 -38q0 -12 -4.5 -42.5t-11 -70l-14 -83l-14 -83t-11 -70t-4.5 -43.5h52q6 -13 0 -26q-7 -6 -18.5 -11.5t-25 -9t-26.5 -6t-22 -2.5q-22 0 -32.5 17t-10.5 37q0 15 4.5 46.5t11.5 71.5l14.5 83.5
l14.5 82t11.5 67t4.5 39.5h-61zM133 562l152 150q32 -8 48 -24.5t24 -43.5l-201 -109z" />
    <glyph glyph-name="icircumflex" unicode="&#xee;" horiz-adv-x="326" 
d="M95 426q-4 12 0 22q10 6 23.5 12.5t28 11t28.5 7.5t26 3q19 0 27.5 -15t8.5 -38q0 -12 -4.5 -42.5t-11 -70l-14 -83l-14 -83t-11 -70t-4.5 -43.5h52q6 -13 0 -26q-7 -6 -18.5 -11.5t-25 -9t-26.5 -6t-22 -2.5q-22 0 -32.5 17t-10.5 37q0 15 4.5 46.5t11.5 71.5l14.5 83.5
l14.5 82t11.5 67t4.5 39.5h-61zM323 564q-5 -11 -13.5 -19t-22.5 -13l-111 77l-89 -73q-19 6 -31 26l120 130q18 10 33 0z" />
    <glyph glyph-name="idieresis" unicode="&#xef;" horiz-adv-x="326" 
d="M95 426q-4 12 0 22q10 6 23.5 12.5t28 11t28.5 7.5t26 3q19 0 27.5 -15t8.5 -38q0 -12 -4.5 -42.5t-11 -70l-14 -83l-14 -83t-11 -70t-4.5 -43.5h52q6 -13 0 -26q-7 -6 -18.5 -11.5t-25 -9t-26.5 -6t-22 -2.5q-22 0 -32.5 17t-10.5 37q0 15 4.5 46.5t11.5 71.5l14.5 83.5
l14.5 82t11.5 67t4.5 39.5h-61zM310 677q2 -17 8.5 -35t14.5 -30q-9 -13 -30 -24t-38 -11q-9 0 -15 6.5t-10.5 16t-6.5 20.5t-2 19q0 10 8 17t20 11t25.5 6.5t25.5 3.5zM143 677q2 -17 9 -35t16 -30q-10 -13 -31 -24t-38 -11q-8 0 -14 6.5t-10.5 16t-6.5 20.5t-2 19
q0 10 7.5 17t19 11t25 6.5t25.5 3.5z" />
    <glyph glyph-name="igrave" unicode="&#xec;" horiz-adv-x="326" 
d="M95 426q-4 12 0 22q10 6 23.5 12.5t28 11t28.5 7.5t26 3q19 0 27.5 -15t8.5 -38q0 -12 -4.5 -42.5t-11 -70l-14 -83l-14 -83t-11 -70t-4.5 -43.5h52q6 -13 0 -26q-7 -6 -18.5 -11.5t-25 -9t-26.5 -6t-22 -2.5q-22 0 -32.5 17t-10.5 37q0 15 4.5 46.5t11.5 71.5l14.5 83.5
l14.5 82t11.5 67t4.5 39.5h-61zM210 535l-175 131q9 28 28 47.5t52 28.5l132 -176z" />
    <glyph glyph-name="imacron" unicode="&#x12b;" horiz-adv-x="326" 
d="M95 426q-4 12 0 22q10 6 23.5 12.5t28 11t28.5 7.5t26 3q19 0 27.5 -15t8.5 -38q0 -12 -4.5 -42.5t-11 -70l-14 -83l-14 -83t-11 -70t-4.5 -43.5h52q6 -13 0 -26q-7 -6 -18.5 -11.5t-25 -9t-26.5 -6t-22 -2.5q-22 0 -32.5 17t-10.5 37q0 15 4.5 46.5t11.5 71.5l14.5 83.5
l14.5 82t11.5 67t4.5 39.5h-61zM330 641q4 -18 0.5 -30.5t-12.5 -24.5h-251q-6 20 -1.5 32.5t17.5 22.5h247z" />
    <glyph glyph-name="iogonek" unicode="&#x12f;" horiz-adv-x="302" 
d="M80 426q-4 12 0 22q10 6 23.5 12.5t28 11t28.5 7.5t26 3q19 0 27.5 -15t8.5 -38q0 -12 -4.5 -42.5t-11 -70l-14 -83l-14 -83t-11 -70t-4.5 -43.5h52q6 -13 0 -26q-7 -6 -17.5 -10.5t-22.5 -8.5q-26 -24 -46 -54.5t-20 -58.5q0 -26 13.5 -41t35.5 -15q15 0 30 2.5t29 7.5
q4 -4 7.5 -9t5.5 -17q-20 -13 -48.5 -22.5t-52.5 -13.5q-45 0 -70.5 22t-25.5 60q0 35 24 70t56 60q-17 5 -25 20t-8 33q0 15 4.5 46.5t11.5 71.5l14.5 83.5l14.5 82t11.5 67t4.5 39.5h-61zM247 671q-5 -33 -30.5 -44t-52.5 -2l-23 42q3 31 26 44.5t58 4.5z" />
    <glyph glyph-name="dotlessi" unicode="&#x131;" horiz-adv-x="326" 
d="M95 426q-4 12 0 22q10 6 23.5 12.5t28 11t28.5 7.5t26 3q19 0 27.5 -15t8.5 -38q0 -12 -4.5 -42.5t-11 -70l-14 -83l-14 -83t-11 -70t-4.5 -43.5h52q6 -13 0 -26q-7 -6 -18.5 -11.5t-25 -9t-26.5 -6t-22 -2.5q-22 0 -32.5 17t-10.5 37q0 15 4.5 46.5t11.5 71.5l14.5 83.5
l14.5 82t11.5 67t4.5 39.5h-61z" />
    <glyph glyph-name="j" unicode="j" horiz-adv-x="292" 
d="M79 426q-4 11 0 22q20 13 51.5 23.5t54.5 10.5q20 0 28 -15t8 -38q0 -12 -3 -42.5t-7.5 -69.5t-10 -82.5t-11 -82.5l-10 -70t-7.5 -45q-11 -63 -24 -119t-38.5 -98.5t-69.5 -69t-117 -29.5q-7 1 -11 11t-4.5 23.5t4 27.5t15.5 24q11 -4 26.5 -7t31.5 -4t31.5 -0.5
t27.5 3.5q11 17 23 66.5t22.5 114t20 137t16 136.5t10.5 111t4 62h-61zM255 670q-5 -33 -30.5 -44t-52.5 -2l-23 42q3 31 26 44.5t58 4.5z" />
    <glyph glyph-name="k" unicode="k" horiz-adv-x="483" 
d="M93 691q-2 6 -2.5 13t2.5 12q7 7 20.5 13t29 10t32 6t28.5 2q26 0 26 -43q0 -14 -3 -41t-8 -61.5l-11 -73.5t-12.5 -76.5t-13.5 -71l-12 -57.5h3q38 84 80 121.5t98 37.5q35 0 58.5 -25t23.5 -63q0 -61 -46 -106t-119 -71q11 -23 27.5 -51.5t34.5 -55.5t34.5 -47.5
t27.5 -25.5h37q1 -14 0 -24q-9 -16 -30.5 -23.5t-42.5 -7.5q-22 0 -43 20.5t-41 52t-39 69l-37 71.5h-35q-9 -47 -15.5 -98.5t-14.5 -95.5q-20 -8 -44 -9.5t-35 8.5l20 120t21.5 138l20.5 141l18 129t12.5 102t4.5 61h-55zM168 230q37 0 70 12.5t58 33t40 47t15 54.5
q0 24 -14.5 36.5t-30.5 12.5q-24 0 -46.5 -22t-41 -53.5t-32 -65t-18.5 -55.5z" />
    <glyph glyph-name="kcommaaccent" unicode="&#x137;" horiz-adv-x="483" 
d="M93 691q-2 6 -2.5 13t2.5 12q7 7 20.5 13t29 10t32 6t28.5 2q26 0 26 -43q0 -14 -3 -41t-8 -61.5l-11 -73.5t-12.5 -76.5t-13.5 -71l-12 -57.5h3q38 84 80 121.5t98 37.5q35 0 58.5 -25t23.5 -63q0 -61 -46 -106t-119 -71q11 -23 27.5 -51.5t34.5 -55.5t34.5 -47.5
t27.5 -25.5h37q1 -14 0 -24q-9 -16 -30.5 -23.5t-42.5 -7.5q-22 0 -43 20.5t-41 52t-39 69l-37 71.5h-35q-9 -47 -15.5 -98.5t-14.5 -95.5q-20 -8 -44 -9.5t-35 8.5l20 120t21.5 138l20.5 141l18 129t12.5 102t4.5 61h-55zM168 230q37 0 70 12.5t58 33t40 47t15 54.5
q0 24 -14.5 36.5t-30.5 12.5q-24 0 -46.5 -22t-41 -53.5t-32 -65t-18.5 -55.5zM259 -136q-5 -36 -21.5 -64.5t-36 -49t-37.5 -31t-25 -10.5q-10 10 -8 21q19 15 33.5 35t18.5 48q2 17 -2 30t-11.5 22t-15.5 15.5t-13 11.5q17 44 53 70q36 0 53.5 -26.5t11.5 -71.5z" />
    <glyph glyph-name="l" unicode="l" horiz-adv-x="280" 
d="M99 691q-4 12 0 22q9 6 22.5 12.5t28 11t29 7.5t26.5 3q19 0 27 -15t8 -38q0 -13 -6.5 -63t-16.5 -118.5l-22 -146.5l-22 -147t-16.5 -119t-6.5 -63h53q6 -9 0 -26q-7 -6 -19 -11.5t-25 -9t-26 -6t-22 -2.5q-23 0 -33 17t-10 37q0 11 4 43.5l10 78t14.5 101l16.5 112
l16.5 111t14.5 98.5l10 73.5t4 37.5h-59z" />
    <glyph glyph-name="lacute" unicode="&#x13a;" horiz-adv-x="280" 
d="M99 691q-4 12 0 22q9 6 22.5 12.5t28 11t29 7.5t26.5 3q19 0 27 -15t8 -38q0 -13 -6.5 -63t-16.5 -118.5l-22 -146.5l-22 -147t-16.5 -119t-6.5 -63h53q6 -9 0 -26q-7 -6 -19 -11.5t-25 -9t-26 -6t-22 -2.5q-23 0 -33 17t-10 37q0 11 4 43.5l10 78t14.5 101l16.5 112
l16.5 111t14.5 98.5l10 73.5t4 37.5h-59zM167 794l152 150q32 -8 48 -24.5t24 -43.5l-201 -109z" />
    <glyph glyph-name="lcaron" unicode="&#x13e;" horiz-adv-x="324" 
d="M392 605q-5 -37 -21.5 -66.5t-36 -50t-38 -31.5t-25.5 -11q-11 9 -9 22q19 15 34 35.5t19 47.5q3 18 -1.5 31.5t-12 23t-16 16.5t-13.5 12q9 20 22.5 38.5t33.5 32.5q37 0 54 -27.5t10 -72.5zM99 691q-4 12 0 22q9 6 22.5 12.5t28 11t29 7.5t26.5 3q19 0 27 -15t8 -38
q0 -13 -6.5 -63t-16.5 -118.5l-22 -146.5l-22 -147t-16.5 -119t-6.5 -63h53q6 -9 0 -26q-7 -6 -19 -11.5t-25 -9t-26 -6t-22 -2.5q-23 0 -33 17t-10 37q0 11 4 43.5l10 78t14.5 101l16.5 112l16.5 111t14.5 98.5l10 73.5t4 37.5h-59z" />
    <glyph glyph-name="lcommaaccent" unicode="&#x13c;" horiz-adv-x="280" 
d="M99 691q-4 12 0 22q9 6 22.5 12.5t28 11t29 7.5t26.5 3q19 0 27 -15t8 -38q0 -13 -6.5 -63t-16.5 -118.5l-22 -146.5l-22 -147t-16.5 -119t-6.5 -63h53q6 -9 0 -26q-7 -6 -19 -11.5t-25 -9t-26 -6t-22 -2.5q-23 0 -33 17t-10 37q0 11 4 43.5l10 78t14.5 101l16.5 112
l16.5 111t14.5 98.5l10 73.5t4 37.5h-59zM178 -136q-5 -36 -21.5 -64.5t-36 -49t-37.5 -31t-25 -10.5q-10 10 -8 21q19 15 33.5 35t18.5 48q2 17 -2 30t-11.5 22t-15.5 15.5t-13 11.5q17 44 53 70q36 0 53.5 -26.5t11.5 -71.5z" />
    <glyph glyph-name="lslash" unicode="&#x142;" horiz-adv-x="338" 
d="M99 691q-4 12 0 22q9 6 22.5 12.5t28 11t29 7.5t26.5 3q19 0 27 -15t8 -38q0 -9 -3.5 -38t-9.5 -71l-13.5 -93l-15.5 -105l57 37q5 -8 8 -24.5t-2 -31.5l-73 -47q-8 -51 -14.5 -98.5l-12 -85.5t-8.5 -64.5t-3 -35.5h53q6 -9 0 -26q-7 -6 -19 -11.5t-25 -9t-26 -6
t-22 -2.5q-23 0 -33 17t-10 37q0 8 2.5 29l6 51.5t9 68l11.5 78.5l-56 -35q-8 10 -9.5 25t3.5 30l72 46l18 122.5l16.5 111.5t12 84.5t4.5 43.5h-59z" />
    <glyph glyph-name="m" unicode="m" horiz-adv-x="738" 
d="M185 293q45 94 94.5 141.5t94.5 47.5q31 0 46 -21.5t15 -62.5q0 -6 -1.5 -20t-4 -30l-5 -31.5t-4.5 -24.5l6 1q17 41 39 75.5t46.5 60t51.5 39.5t54 14q35 0 54 -24.5t19 -63.5q0 -33 -11 -84t-24 -103.5l-24 -98.5t-11 -70h57q2 -5 2 -11.5t-2 -13.5
q-15 -14 -44.5 -22.5t-55.5 -8.5q-20 0 -29.5 16.5t-9.5 44.5q0 24 11 68t24.5 93t24.5 94t11 70q0 34 -10 45.5t-27 11.5q-11 0 -25.5 -12.5t-30.5 -32.5t-32 -45t-30 -50.5t-24.5 -49t-15.5 -39.5q-12 -43 -21 -88t-23 -108q-19 -8 -41 -8t-34 8l21.5 100.5t21.5 103
t16 94t6 73.5q0 28 -6 41t-27 13q-9 0 -22.5 -12t-29.5 -31t-32 -43.5t-30 -50t-24.5 -49.5t-14.5 -42l-11 -47.5t-9.5 -46l-9.5 -48.5l-11 -55q-17 -7 -40 -7.5t-35 7.5q11 54 22 120t19.5 128t14 111t5.5 67h-60q-4 11 0 22q20 16 50.5 25t53.5 9q36 0 36 -55q0 -8 -2 -25
t-5 -37t-6.5 -39.5t-6.5 -33.5z" />
    <glyph glyph-name="n" unicode="n" horiz-adv-x="517" 
d="M176 271q21 48 46 87t52 66.5t54 42.5t52 15q38 0 58.5 -27t20.5 -81q0 -19 -4.5 -47.5t-11 -61.5t-14 -67.5l-14 -66t-11 -56t-4.5 -37.5h54q4 -12 0 -25q-17 -14 -41 -22.5t-48 -8.5q-45 0 -45 55q0 24 9 67.5l19.5 91t19.5 92.5t9 72q0 35 -7.5 50t-24.5 15
q-20 0 -48.5 -30.5t-56.5 -73t-50 -87t-28 -72.5q-4 -20 -8 -36.5l-8 -34.5l-8.5 -39.5l-10.5 -51.5q-17 -7 -39 -7.5t-35 7.5q10 49 21 108.5t20 118t15 111t6 88.5h-61q-4 11 0 22q7 6 20 12t28 11t30 8t27 3q37 0 37 -61q0 -8 -3 -28t-7 -43l-8 -45t-7 -35z" />
    <glyph glyph-name="nacute" unicode="&#x144;" horiz-adv-x="517" 
d="M176 271q21 48 46 87t52 66.5t54 42.5t52 15q38 0 58.5 -27t20.5 -81q0 -19 -4.5 -47.5t-11 -61.5t-14 -67.5l-14 -66t-11 -56t-4.5 -37.5h54q4 -12 0 -25q-17 -14 -41 -22.5t-48 -8.5q-45 0 -45 55q0 24 9 67.5l19.5 91t19.5 92.5t9 72q0 35 -7.5 50t-24.5 15
q-20 0 -48.5 -30.5t-56.5 -73t-50 -87t-28 -72.5q-4 -20 -8 -36.5l-8 -34.5l-8.5 -39.5l-10.5 -51.5q-17 -7 -39 -7.5t-35 7.5q10 49 21 108.5t20 118t15 111t6 88.5h-61q-4 11 0 22q7 6 20 12t28 11t30 8t27 3q37 0 37 -61q0 -8 -3 -28t-7 -43l-8 -45t-7 -35zM277 562
l152 150q32 -8 48 -24.5t24 -43.5l-201 -109z" />
    <glyph glyph-name="ncaron" unicode="&#x148;" horiz-adv-x="517" 
d="M176 271q21 48 46 87t52 66.5t54 42.5t52 15q38 0 58.5 -27t20.5 -81q0 -19 -4.5 -47.5t-11 -61.5t-14 -67.5l-14 -66t-11 -56t-4.5 -37.5h54q4 -12 0 -25q-17 -14 -41 -22.5t-48 -8.5q-45 0 -45 55q0 24 9 67.5l19.5 91t19.5 92.5t9 72q0 35 -7.5 50t-24.5 15
q-20 0 -48.5 -30.5t-56.5 -73t-50 -87t-28 -72.5q-4 -20 -8 -36.5l-8 -34.5l-8.5 -39.5l-10.5 -51.5q-17 -7 -39 -7.5t-35 7.5q10 49 21 108.5t20 118t15 111t6 88.5h-61q-4 11 0 22q7 6 20 12t28 11t30 8t27 3q37 0 37 -61q0 -8 -3 -28t-7 -43l-8 -45t-7 -35zM185 653
q5 10 12 17t20 12l100 -70l79 65q18 -3 27 -23l-107 -116h-28z" />
    <glyph glyph-name="ncommaaccent" unicode="&#x146;" horiz-adv-x="517" 
d="M176 271q21 48 46 87t52 66.5t54 42.5t52 15q38 0 58.5 -27t20.5 -81q0 -19 -4.5 -47.5t-11 -61.5t-14 -67.5l-14 -66t-11 -56t-4.5 -37.5h54q4 -12 0 -25q-17 -14 -41 -22.5t-48 -8.5q-45 0 -45 55q0 24 9 67.5l19.5 91t19.5 92.5t9 72q0 35 -7.5 50t-24.5 15
q-20 0 -48.5 -30.5t-56.5 -73t-50 -87t-28 -72.5q-4 -20 -8 -36.5l-8 -34.5l-8.5 -39.5l-10.5 -51.5q-17 -7 -39 -7.5t-35 7.5q10 49 21 108.5t20 118t15 111t6 88.5h-61q-4 11 0 22q7 6 20 12t28 11t30 8t27 3q37 0 37 -61q0 -8 -3 -28t-7 -43l-8 -45t-7 -35zM277 -136
q-5 -36 -21.5 -64.5t-36 -49t-37.5 -31t-25 -10.5q-10 10 -8 21q19 15 33.5 35t18.5 48q2 17 -2 30t-11.5 22t-15.5 15.5t-13 11.5q17 44 53 70q36 0 53.5 -26.5t11.5 -71.5z" />
    <glyph glyph-name="ntilde" unicode="&#xf1;" horiz-adv-x="517" 
d="M176 271q21 48 46 87t52 66.5t54 42.5t52 15q38 0 58.5 -27t20.5 -81q0 -19 -4.5 -47.5t-11 -61.5t-14 -67.5l-14 -66t-11 -56t-4.5 -37.5h54q4 -12 0 -25q-17 -14 -41 -22.5t-48 -8.5q-45 0 -45 55q0 24 9 67.5l19.5 91t19.5 92.5t9 72q0 35 -7.5 50t-24.5 15
q-20 0 -48.5 -30.5t-56.5 -73t-50 -87t-28 -72.5q-4 -20 -8 -36.5l-8 -34.5l-8.5 -39.5l-10.5 -51.5q-17 -7 -39 -7.5t-35 7.5q10 49 21 108.5t20 118t15 111t6 88.5h-61q-4 11 0 22q7 6 20 12t28 11t30 8t27 3q37 0 37 -61q0 -8 -3 -28t-7 -43l-8 -45t-7 -35zM161 637
q33 34 58 43t44.5 5t36.5 -15.5t34.5 -19t38 -5.5t47.5 26q9 -4 15.5 -16t5.5 -26q-32 -33 -58.5 -43t-49 -7.5t-42 13t-38 18t-36.5 6.5t-37 -21q-22 16 -19 42z" />
    <glyph glyph-name="o" unicode="o" horiz-adv-x="462" 
d="M281 486q35 0 61 -12.5t43.5 -35t26 -52.5t8.5 -64q0 -38 -6 -80.5t-18 -83t-30 -75t-42 -57.5q-26 -26 -59.5 -37.5t-67.5 -11.5q-33 0 -61.5 11t-49 32.5t-32.5 54.5t-12 77q0 35 6.5 71.5t18.5 71t29 66t38 57.5q29 35 67 51.5t80 16.5zM124 179q0 -76 29 -111t71 -35
q16 0 26.5 1.5t21.5 7.5q15 18 27 46.5t21 61.5t14 69t5 70q0 40 -7.5 67t-20 43.5t-29 23.5t-34.5 7q-20 0 -30.5 -2.5t-23.5 -6.5q-31 -39 -50.5 -103t-19.5 -139z" />
    <glyph glyph-name="oacute" unicode="&#xf3;" horiz-adv-x="462" 
d="M281 486q35 0 61 -12.5t43.5 -35t26 -52.5t8.5 -64q0 -38 -6 -80.5t-18 -83t-30 -75t-42 -57.5q-26 -26 -59.5 -37.5t-67.5 -11.5q-33 0 -61.5 11t-49 32.5t-32.5 54.5t-12 77q0 35 6.5 71.5t18.5 71t29 66t38 57.5q29 35 67 51.5t80 16.5zM124 179q0 -76 29 -111t71 -35
q16 0 26.5 1.5t21.5 7.5q15 18 27 46.5t21 61.5t14 69t5 70q0 40 -7.5 67t-20 43.5t-29 23.5t-34.5 7q-20 0 -30.5 -2.5t-23.5 -6.5q-31 -39 -50.5 -103t-19.5 -139zM229 562l152 150q32 -8 48 -24.5t24 -43.5l-201 -109z" />
    <glyph glyph-name="ocircumflex" unicode="&#xf4;" horiz-adv-x="462" 
d="M281 486q35 0 61 -12.5t43.5 -35t26 -52.5t8.5 -64q0 -38 -6 -80.5t-18 -83t-30 -75t-42 -57.5q-26 -26 -59.5 -37.5t-67.5 -11.5q-33 0 -61.5 11t-49 32.5t-32.5 54.5t-12 77q0 35 6.5 71.5t18.5 71t29 66t38 57.5q29 35 67 51.5t80 16.5zM124 179q0 -76 29 -111t71 -35
q16 0 26.5 1.5t21.5 7.5q15 18 27 46.5t21 61.5t14 69t5 70q0 40 -7.5 67t-20 43.5t-29 23.5t-34.5 7q-20 0 -30.5 -2.5t-23.5 -6.5q-31 -39 -50.5 -103t-19.5 -139zM409 564q-5 -11 -13.5 -19t-22.5 -13l-111 77l-89 -73q-19 6 -31 26l120 130q18 10 33 0z" />
    <glyph glyph-name="odieresis" unicode="&#xf6;" horiz-adv-x="462" 
d="M281 486q35 0 61 -12.5t43.5 -35t26 -52.5t8.5 -64q0 -38 -6 -80.5t-18 -83t-30 -75t-42 -57.5q-26 -26 -59.5 -37.5t-67.5 -11.5q-33 0 -61.5 11t-49 32.5t-32.5 54.5t-12 77q0 35 6.5 71.5t18.5 71t29 66t38 57.5q29 35 67 51.5t80 16.5zM124 179q0 -76 29 -111t71 -35
q16 0 26.5 1.5t21.5 7.5q15 18 27 46.5t21 61.5t14 69t5 70q0 40 -7.5 67t-20 43.5t-29 23.5t-34.5 7q-20 0 -30.5 -2.5t-23.5 -6.5q-31 -39 -50.5 -103t-19.5 -139zM398 677q2 -17 8.5 -35t14.5 -30q-9 -13 -30 -24t-38 -11q-9 0 -15 6.5t-10.5 16t-6.5 20.5t-2 19
q0 10 8 17t20 11t25.5 6.5t25.5 3.5zM231 677q2 -17 9 -35t16 -30q-10 -13 -31 -24t-38 -11q-8 0 -14 6.5t-10.5 16t-6.5 20.5t-2 19q0 10 7.5 17t19 11t25 6.5t25.5 3.5z" />
    <glyph glyph-name="ograve" unicode="&#xf2;" horiz-adv-x="462" 
d="M281 486q35 0 61 -12.5t43.5 -35t26 -52.5t8.5 -64q0 -38 -6 -80.5t-18 -83t-30 -75t-42 -57.5q-26 -26 -59.5 -37.5t-67.5 -11.5q-33 0 -61.5 11t-49 32.5t-32.5 54.5t-12 77q0 35 6.5 71.5t18.5 71t29 66t38 57.5q29 35 67 51.5t80 16.5zM124 179q0 -76 29 -111t71 -35
q16 0 26.5 1.5t21.5 7.5q15 18 27 46.5t21 61.5t14 69t5 70q0 40 -7.5 67t-20 43.5t-29 23.5t-34.5 7q-20 0 -30.5 -2.5t-23.5 -6.5q-31 -39 -50.5 -103t-19.5 -139zM318 535l-175 131q9 28 28 47.5t52 28.5l132 -176z" />
    <glyph glyph-name="ohungarumlaut" unicode="&#x151;" horiz-adv-x="462" 
d="M281 486q35 0 61 -12.5t43.5 -35t26 -52.5t8.5 -64q0 -38 -6 -80.5t-18 -83t-30 -75t-42 -57.5q-26 -26 -59.5 -37.5t-67.5 -11.5q-33 0 -61.5 11t-49 32.5t-32.5 54.5t-12 77q0 35 6.5 71.5t18.5 71t29 66t38 57.5q29 35 67 51.5t80 16.5zM124 179q0 -76 29 -111t71 -35
q16 0 26.5 1.5t21.5 7.5q15 18 27 46.5t21 61.5t14 69t5 70q0 40 -7.5 67t-20 43.5t-29 23.5t-34.5 7q-20 0 -30.5 -2.5t-23.5 -6.5q-31 -39 -50.5 -103t-19.5 -139zM192 536l56 174q23 6 42 -2t27 -30l-75 -142h-50zM315 536l81 165q23 6 45 -3t31 -32l-109 -130h-48z" />
    <glyph glyph-name="omacron" unicode="&#x14d;" horiz-adv-x="462" 
d="M281 486q35 0 61 -12.5t43.5 -35t26 -52.5t8.5 -64q0 -38 -6 -80.5t-18 -83t-30 -75t-42 -57.5q-26 -26 -59.5 -37.5t-67.5 -11.5q-33 0 -61.5 11t-49 32.5t-32.5 54.5t-12 77q0 35 6.5 71.5t18.5 71t29 66t38 57.5q29 35 67 51.5t80 16.5zM124 179q0 -76 29 -111t71 -35
q16 0 26.5 1.5t21.5 7.5q15 18 27 46.5t21 61.5t14 69t5 70q0 40 -7.5 67t-20 43.5t-29 23.5t-34.5 7q-20 0 -30.5 -2.5t-23.5 -6.5q-31 -39 -50.5 -103t-19.5 -139zM410 641q4 -18 0.5 -30.5t-12.5 -24.5h-251q-6 20 -1.5 32.5t17.5 22.5h247z" />
    <glyph glyph-name="oslash" unicode="&#xf8;" horiz-adv-x="462" 
d="M289 486l32 82q17 -4 33.5 -14.5t22.5 -24.5l-23 -63q33 -20 49.5 -58t16.5 -86q0 -38 -6 -80.5t-18 -83t-30 -75t-42 -57.5q-26 -26 -59.5 -37.5t-67.5 -11.5l-20 1l-28 -77q-14 5 -31.5 14t-24.5 24l21 60q-33 20 -52.5 58t-19.5 95q0 35 6.5 71.5t18.5 71t29 66
t38 57.5q29 35 67 51.5t80 16.5h8zM124 179q0 -38 7.5 -65t20.5 -45l125 356q-15 5 -29 5q-20 0 -30.5 -2.5t-23.5 -6.5q-31 -39 -50.5 -103t-19.5 -139zM339 289q0 39 -7 65t-19 43l-124 -358q16 -6 35 -6q16 0 26.5 1.5t21.5 7.5q15 18 27 46.5t21 61.5t14 69t5 70z" />
    <glyph glyph-name="otilde" unicode="&#xf5;" horiz-adv-x="462" 
d="M281 486q35 0 61 -12.5t43.5 -35t26 -52.5t8.5 -64q0 -38 -6 -80.5t-18 -83t-30 -75t-42 -57.5q-26 -26 -59.5 -37.5t-67.5 -11.5q-33 0 -61.5 11t-49 32.5t-32.5 54.5t-12 77q0 35 6.5 71.5t18.5 71t29 66t38 57.5q29 35 67 51.5t80 16.5zM124 179q0 -76 29 -111t71 -35
q16 0 26.5 1.5t21.5 7.5q15 18 27 46.5t21 61.5t14 69t5 70q0 40 -7.5 67t-20 43.5t-29 23.5t-34.5 7q-20 0 -30.5 -2.5t-23.5 -6.5q-31 -39 -50.5 -103t-19.5 -139zM158 637q33 34 58 43t44.5 5t36.5 -15.5t34.5 -19t38 -5.5t47.5 26q9 -4 15.5 -16t5.5 -26
q-32 -33 -58.5 -43t-49 -7.5t-42 13t-38 18t-36.5 6.5t-37 -21q-22 16 -19 42z" />
    <glyph glyph-name="oe" unicode="&#x153;" horiz-adv-x="718" 
d="M124 179q0 -76 29 -111t71 -35q16 0 26.5 1.5t21.5 7.5q15 18 27 46.5t21 61.5t14 69t5 70q0 40 -7.5 67t-20 43.5t-29 23.5t-34.5 7q-20 0 -30.5 -2.5t-23.5 -6.5q-31 -39 -50.5 -103t-19.5 -139zM352 65q-16 -25 -36 -42t-41 -27t-41 -14.5t-37 -4.5q-33 0 -61.5 11
t-49 32.5t-32.5 54.5t-12 77q0 35 6.5 71.5t18.5 71t29 66t38 57.5q29 35 67 51.5t80 16.5q51 0 81.5 -24.5t47.5 -69.5q29 42 75.5 68.5t99.5 26.5q25 0 44.5 -8.5t32 -22t19 -30.5t6.5 -35q0 -41 -18.5 -66t-47.5 -45q-33 -20 -88 -34t-115 -18q-2 -12 -3 -20.5t-1 -20.5
q0 -39 9.5 -68t25 -48t35.5 -28.5t41 -9.5q22 0 51.5 10t52.5 30q8 -5 13.5 -12t6.5 -16q-11 -14 -31 -26.5t-42.5 -21.5t-44.5 -14.5t-37 -5.5q-34 0 -58 9.5t-40.5 23t-27 28.5t-16.5 27zM420 267q32 1 66 5.5t61.5 16t45.5 30.5t18 49q0 25 -15.5 44.5t-57.5 19.5
q-17 0 -29 -3.5t-22 -7.5q-8 -10 -19 -27.5t-21 -38.5t-18 -44t-9 -44z" />
    <glyph glyph-name="p" unicode="p" horiz-adv-x="500" 
d="M94 186q4 31 8 59t7 56.5t4.5 59t1.5 65.5h-54q-1 13 0 25q7 6 18.5 11.5t25 10t27.5 7t26 2.5q21 0 29.5 -14.5t8.5 -39.5q0 -11 -2 -30.5t-5 -42.5t-6.5 -46t-7.5 -40h3q14 38 34.5 76t45 68.5t51.5 49.5t56 19q46 0 71 -35.5t25 -91.5q0 -53 -12.5 -101.5t-33.5 -90.5
t-49 -76.5t-58 -59.5q-17 -14 -38 -23.5t-43.5 -15.5t-45.5 -8.5t-42 -2.5q-3 -12 -7 -34l-9 -48.5l-10.5 -54.5l-10 -52.5t-7.5 -43t-4 -25.5q-6 -6 -17 -9t-23.5 -3t-24 2.5t-16.5 7.5l7.5 43l13.5 75l17.5 93.5l18 99l16 90t11.5 68.5zM149 45q24 -12 57 -12t68 16
q18 16 37 45.5t34 66t25 78t10 83.5q0 54 -15 79t-33 25q-13 0 -28.5 -13.5t-32 -35.5t-33 -50t-30.5 -57t-24 -56t-14 -48q-3 -17 -6 -31l-6 -27.5t-5 -28.5t-4 -34z" />
    <glyph glyph-name="q" unicode="q" horiz-adv-x="472" 
d="M380 162q-5 -30 -10.5 -69.5t-11 -83.5l-11 -88.5l-10 -84l-8 -70.5t-4.5 -48q-5 -6 -16 -8.5t-23.5 -2.5t-24 2.5t-17.5 7.5q3 21 7.5 58t11 81l14 92.5l15 94t15.5 84t15 62.5h-3q-14 -36 -35 -72.5t-45 -66.5t-51 -49t-53 -19q-46 0 -69.5 35.5t-23.5 93.5
q0 105 35.5 190t96.5 135q34 27 78.5 39t80.5 12q8 0 20.5 -2t25.5 -5t24.5 -7.5t18.5 -9.5q-11 -74 -21.5 -154t-20.5 -147zM341 418q-28 14 -65 14q-17 0 -34 -5t-34 -13q-18 -17 -33 -46t-26.5 -65.5t-18 -78.5t-6.5 -84q0 -53 12.5 -77.5t32.5 -24.5q17 0 41.5 29.5
t49 71t44 86.5t25.5 77q4 18 6 31.5t3.5 26.5t2 26.5t0.5 31.5z" />
    <glyph glyph-name="r" unicode="r" horiz-adv-x="383" 
d="M54 426q-4 11 0 23q23 15 48 24t53 9q17 0 28 -15t11 -41q0 -23 -2.5 -40.5t-4.5 -36.5l4 -1q14 30 34 54.5t43.5 42t50.5 27.5t54 10q7 -8 9.5 -20t1.5 -24t-5 -22.5t-10 -16.5q-23 10 -53 4t-58.5 -26.5t-51 -56t-31.5 -84.5q-5 -28 -10.5 -53.5l-11 -53l-12 -59
t-12.5 -70.5q-23 -8 -44.5 -8t-31.5 8q10 52 20.5 114.5t19 121.5t14 109.5t5.5 80.5h-58z" />
    <glyph glyph-name="racute" unicode="&#x155;" horiz-adv-x="383" 
d="M54 426q-4 11 0 23q23 15 48 24t53 9q17 0 28 -15t11 -41q0 -23 -2.5 -40.5t-4.5 -36.5l4 -1q14 30 34 54.5t43.5 42t50.5 27.5t54 10q7 -8 9.5 -20t1.5 -24t-5 -22.5t-10 -16.5q-23 10 -53 4t-58.5 -26.5t-51 -56t-31.5 -84.5q-5 -28 -10.5 -53.5l-11 -53l-12 -59
t-12.5 -70.5q-23 -8 -44.5 -8t-31.5 8q10 52 20.5 114.5t19 121.5t14 109.5t5.5 80.5h-58zM187 562l152 150q32 -8 48 -24.5t24 -43.5l-201 -109z" />
    <glyph glyph-name="rcaron" unicode="&#x159;" horiz-adv-x="383" 
d="M54 426q-4 11 0 23q23 15 48 24t53 9q17 0 28 -15t11 -41q0 -23 -2.5 -40.5t-4.5 -36.5l4 -1q14 30 34 54.5t43.5 42t50.5 27.5t54 10q7 -8 9.5 -20t1.5 -24t-5 -22.5t-10 -16.5q-23 10 -53 4t-58.5 -26.5t-51 -56t-31.5 -84.5q-5 -28 -10.5 -53.5l-11 -53l-12 -59
t-12.5 -70.5q-23 -8 -44.5 -8t-31.5 8q10 52 20.5 114.5t19 121.5t14 109.5t5.5 80.5h-58zM119 653q5 10 12 17t20 12l100 -70l79 65q18 -3 27 -23l-107 -116h-28z" />
    <glyph glyph-name="rcommaaccent" unicode="&#x157;" horiz-adv-x="383" 
d="M54 426q-4 11 0 23q23 15 48 24t53 9q17 0 28 -15t11 -41q0 -23 -2.5 -40.5t-4.5 -36.5l4 -1q14 30 34 54.5t43.5 42t50.5 27.5t54 10q7 -8 9.5 -20t1.5 -24t-5 -22.5t-10 -16.5q-23 10 -53 4t-58.5 -26.5t-51 -56t-31.5 -84.5q-5 -28 -10.5 -53.5l-11 -53l-12 -59
t-12.5 -70.5q-23 -8 -44.5 -8t-31.5 8q10 52 20.5 114.5t19 121.5t14 109.5t5.5 80.5h-58zM145 -136q-5 -36 -21.5 -64.5t-36 -49t-37.5 -31t-25 -10.5q-10 10 -8 21q19 15 33.5 35t18.5 48q2 17 -2 30t-11.5 22t-15.5 15.5t-13 11.5q17 44 53 70q36 0 53.5 -26.5
t11.5 -71.5z" />
    <glyph glyph-name="s" unicode="s" horiz-adv-x="383" 
d="M310 378q-35 54 -91 54q-27 0 -45 -14t-18 -43q0 -21 11 -38.5t28 -34t36.5 -33t36.5 -35.5t28 -41.5t11 -50.5q0 -45 -20.5 -75.5t-50.5 -49.5t-64.5 -27.5t-62.5 -8.5q-33 0 -51 13t-22.5 30.5t2.5 36t24 30.5q15 -21 40 -37.5t60 -16.5q28 0 46 21.5t18 56.5
q0 37 -23.5 63.5t-52 51t-52 52.5t-23.5 68q0 37 19 63t48.5 42.5t64 24t66.5 7.5q23 0 42 -12t27 -29t1.5 -36t-33.5 -32z" />
    <glyph glyph-name="sacute" unicode="&#x15b;" horiz-adv-x="383" 
d="M310 378q-35 54 -91 54q-27 0 -45 -14t-18 -43q0 -21 11 -38.5t28 -34t36.5 -33t36.5 -35.5t28 -41.5t11 -50.5q0 -45 -20.5 -75.5t-50.5 -49.5t-64.5 -27.5t-62.5 -8.5q-33 0 -51 13t-22.5 30.5t2.5 36t24 30.5q15 -21 40 -37.5t60 -16.5q28 0 46 21.5t18 56.5
q0 37 -23.5 63.5t-52 51t-52 52.5t-23.5 68q0 37 19 63t48.5 42.5t64 24t66.5 7.5q23 0 42 -12t27 -29t1.5 -36t-33.5 -32zM206 562l152 150q32 -8 48 -24.5t24 -43.5l-201 -109z" />
    <glyph glyph-name="scaron" unicode="&#x161;" horiz-adv-x="395" 
d="M310 378q-35 54 -91 54q-27 0 -45 -14t-18 -43q0 -21 11 -38.5t28 -34t36.5 -33t36.5 -35.5t28 -41.5t11 -50.5q0 -45 -20.5 -75.5t-50.5 -49.5t-64.5 -27.5t-62.5 -8.5q-33 0 -51 13t-22.5 30.5t2.5 36t24 30.5q15 -21 40 -37.5t60 -16.5q28 0 46 21.5t18 56.5
q0 37 -23.5 63.5t-52 51t-52 52.5t-23.5 68q0 37 19 63t48.5 42.5t64 24t66.5 7.5q23 0 42 -12t27 -29t1.5 -36t-33.5 -32zM113 653q5 10 12 17t20 12l100 -70l79 65q18 -3 27 -23l-107 -116h-28z" />
    <glyph glyph-name="t" unicode="t" horiz-adv-x="367" 
d="M341 471q2 -3 2 -11t-2 -17t-5.5 -17t-7.5 -11h-112l-19 -91t-18.5 -96t-14.5 -86.5t-6 -61.5q0 -17 10 -26.5t21 -9.5q25 0 58 7.5t58 18.5q6 0 10 -12t4 -20q-12 -9 -35.5 -19t-50 -18t-52 -13.5t-42.5 -5.5q-22 0 -42 19.5t-20 55.5q0 26 7 74t16 101.5l17.5 103
t11.5 79.5h-60q-2 4 -3 12t-0.5 16.5t2 16t4.5 11.5q26 1 45 7.5t33.5 20t26 33t22.5 45.5h40l-19 -106h121z" />
    <glyph glyph-name="tcaron" unicode="&#x165;" horiz-adv-x="371" 
d="M399 653q-5 -33 -20.5 -60t-33.5 -46t-34.5 -29.5t-23.5 -10.5q-9 10 -9 20q17 14 31.5 32.5t18.5 44.5q2 17 -2.5 29t-11 21t-14.5 14.5t-12 10.5q8 20 20.5 37t31.5 30q34 0 49.5 -25t9.5 -68zM341 471q2 -3 2 -11t-2 -17t-5.5 -17t-7.5 -11h-112l-19 -91t-18.5 -96
t-14.5 -86.5t-6 -61.5q0 -17 10 -26.5t21 -9.5q25 0 58 7.5t58 18.5q6 0 10 -12t4 -20q-12 -9 -35.5 -19t-50 -18t-52 -13.5t-42.5 -5.5q-22 0 -42 19.5t-20 55.5q0 26 7 74t16 101.5l17.5 103t11.5 79.5h-60q-2 4 -3 12t-0.5 16.5t2 16t4.5 11.5q26 1 45 7.5t33.5 20t26 33
t22.5 45.5h40l-19 -106h121z" />
    <glyph glyph-name="u" unicode="u" horiz-adv-x="518" 
d="M342 198q-20 -48 -46 -88t-53.5 -68.5t-56 -44t-53.5 -15.5q-37 0 -55.5 26.5t-18.5 73.5q0 18 4.5 47t12 63l15.5 70l15.5 68t12 57.5t4.5 38.5h-62q-6 14 0 26q17 14 46 22t58 8q19 0 29 -17.5t10 -44.5q0 -23 -10 -66.5l-22 -92t-22 -95t-10 -73.5q0 -55 37 -55
q15 0 40.5 29.5t52 70.5t49 84t30.5 70q12 38 19.5 77t16.5 96q9 3 20 5t22.5 2t21.5 -1.5t16 -5.5l-13.5 -72.5l-15 -80.5l-14.5 -82t-12.5 -77.5t-8.5 -66.5t-3 -48h50q5 -8 0 -21q-6 -6 -17.5 -12t-24.5 -11.5t-27 -8.5t-26 -3q-37 0 -37 61q0 9 3.5 29t9 44l10.5 46.5
l8 36.5z" />
    <glyph glyph-name="uacute" unicode="&#xfa;" horiz-adv-x="518" 
d="M342 198q-20 -48 -46 -88t-53.5 -68.5t-56 -44t-53.5 -15.5q-37 0 -55.5 26.5t-18.5 73.5q0 18 4.5 47t12 63l15.5 70l15.5 68t12 57.5t4.5 38.5h-62q-6 14 0 26q17 14 46 22t58 8q19 0 29 -17.5t10 -44.5q0 -23 -10 -66.5l-22 -92t-22 -95t-10 -73.5q0 -55 37 -55
q15 0 40.5 29.5t52 70.5t49 84t30.5 70q12 38 19.5 77t16.5 96q9 3 20 5t22.5 2t21.5 -1.5t16 -5.5l-13.5 -72.5l-15 -80.5l-14.5 -82t-12.5 -77.5t-8.5 -66.5t-3 -48h50q5 -8 0 -21q-6 -6 -17.5 -12t-24.5 -11.5t-27 -8.5t-26 -3q-37 0 -37 61q0 9 3.5 29t9 44l10.5 46.5
l8 36.5zM225 562l152 150q32 -8 48 -24.5t24 -43.5l-201 -109z" />
    <glyph glyph-name="ucircumflex" unicode="&#xfb;" horiz-adv-x="518" 
d="M342 198q-20 -48 -46 -88t-53.5 -68.5t-56 -44t-53.5 -15.5q-37 0 -55.5 26.5t-18.5 73.5q0 18 4.5 47t12 63l15.5 70l15.5 68t12 57.5t4.5 38.5h-62q-6 14 0 26q17 14 46 22t58 8q19 0 29 -17.5t10 -44.5q0 -23 -10 -66.5l-22 -92t-22 -95t-10 -73.5q0 -55 37 -55
q15 0 40.5 29.5t52 70.5t49 84t30.5 70q12 38 19.5 77t16.5 96q9 3 20 5t22.5 2t21.5 -1.5t16 -5.5l-13.5 -72.5l-15 -80.5l-14.5 -82t-12.5 -77.5t-8.5 -66.5t-3 -48h50q5 -8 0 -21q-6 -6 -17.5 -12t-24.5 -11.5t-27 -8.5t-26 -3q-37 0 -37 61q0 9 3.5 29t9 44l10.5 46.5
l8 36.5zM430 565q-5 -11 -13.5 -19t-22.5 -13l-111 77l-89 -73q-19 6 -31 26l120 130q18 10 33 0z" />
    <glyph glyph-name="udieresis" unicode="&#xfc;" horiz-adv-x="518" 
d="M342 198q-20 -48 -46 -88t-53.5 -68.5t-56 -44t-53.5 -15.5q-37 0 -55.5 26.5t-18.5 73.5q0 18 4.5 47t12 63l15.5 70l15.5 68t12 57.5t4.5 38.5h-62q-6 14 0 26q17 14 46 22t58 8q19 0 29 -17.5t10 -44.5q0 -23 -10 -66.5l-22 -92t-22 -95t-10 -73.5q0 -55 37 -55
q15 0 40.5 29.5t52 70.5t49 84t30.5 70q12 38 19.5 77t16.5 96q9 3 20 5t22.5 2t21.5 -1.5t16 -5.5l-13.5 -72.5l-15 -80.5l-14.5 -82t-12.5 -77.5t-8.5 -66.5t-3 -48h50q5 -8 0 -21q-6 -6 -17.5 -12t-24.5 -11.5t-27 -8.5t-26 -3q-37 0 -37 61q0 9 3.5 29t9 44l10.5 46.5
l8 36.5zM413 677q2 -17 8.5 -35t14.5 -30q-9 -13 -30 -24t-38 -11q-9 0 -15 6.5t-10.5 16t-6.5 20.5t-2 19q0 10 8 17t20 11t25.5 6.5t25.5 3.5zM246 677q2 -17 9 -35t16 -30q-10 -13 -31 -24t-38 -11q-8 0 -14 6.5t-10.5 16t-6.5 20.5t-2 19q0 10 7.5 17t19 11t25 6.5
t25.5 3.5z" />
    <glyph glyph-name="uhungarumlaut" unicode="&#x171;" horiz-adv-x="518" 
d="M342 198q-20 -48 -46 -88t-53.5 -68.5t-56 -44t-53.5 -15.5q-37 0 -55.5 26.5t-18.5 73.5q0 18 4.5 47t12 63l15.5 70l15.5 68t12 57.5t4.5 38.5h-62q-6 14 0 26q17 14 46 22t58 8q19 0 29 -17.5t10 -44.5q0 -23 -10 -66.5l-22 -92t-22 -95t-10 -73.5q0 -55 37 -55
q15 0 40.5 29.5t52 70.5t49 84t30.5 70q12 38 19.5 77t16.5 96q9 3 20 5t22.5 2t21.5 -1.5t16 -5.5l-13.5 -72.5l-15 -80.5l-14.5 -82t-12.5 -77.5t-8.5 -66.5t-3 -48h50q5 -8 0 -21q-6 -6 -17.5 -12t-24.5 -11.5t-27 -8.5t-26 -3q-37 0 -37 61q0 9 3.5 29t9 44l10.5 46.5
l8 36.5zM217 536l56 174q23 6 42 -2t27 -30l-75 -142h-50zM340 536l81 165q23 6 45 -3t31 -32l-109 -130h-48z" />
    <glyph glyph-name="ugrave" unicode="&#xf9;" horiz-adv-x="518" 
d="M342 198q-20 -48 -46 -88t-53.5 -68.5t-56 -44t-53.5 -15.5q-37 0 -55.5 26.5t-18.5 73.5q0 18 4.5 47t12 63l15.5 70l15.5 68t12 57.5t4.5 38.5h-62q-6 14 0 26q17 14 46 22t58 8q19 0 29 -17.5t10 -44.5q0 -23 -10 -66.5l-22 -92t-22 -95t-10 -73.5q0 -55 37 -55
q15 0 40.5 29.5t52 70.5t49 84t30.5 70q12 38 19.5 77t16.5 96q9 3 20 5t22.5 2t21.5 -1.5t16 -5.5l-13.5 -72.5l-15 -80.5l-14.5 -82t-12.5 -77.5t-8.5 -66.5t-3 -48h50q5 -8 0 -21q-6 -6 -17.5 -12t-24.5 -11.5t-27 -8.5t-26 -3q-37 0 -37 61q0 9 3.5 29t9 44l10.5 46.5
l8 36.5zM317 532l-175 131q9 28 28 47.5t52 28.5l132 -176z" />
    <glyph glyph-name="umacron" unicode="&#x16b;" horiz-adv-x="518" 
d="M342 198q-20 -48 -46 -88t-53.5 -68.5t-56 -44t-53.5 -15.5q-37 0 -55.5 26.5t-18.5 73.5q0 18 4.5 47t12 63l15.5 70l15.5 68t12 57.5t4.5 38.5h-62q-6 14 0 26q17 14 46 22t58 8q19 0 29 -17.5t10 -44.5q0 -23 -10 -66.5l-22 -92t-22 -95t-10 -73.5q0 -55 37 -55
q15 0 40.5 29.5t52 70.5t49 84t30.5 70q12 38 19.5 77t16.5 96q9 3 20 5t22.5 2t21.5 -1.5t16 -5.5l-13.5 -72.5l-15 -80.5l-14.5 -82t-12.5 -77.5t-8.5 -66.5t-3 -48h50q5 -8 0 -21q-6 -6 -17.5 -12t-24.5 -11.5t-27 -8.5t-26 -3q-37 0 -37 61q0 9 3.5 29t9 44l10.5 46.5
l8 36.5zM435 641q4 -18 0.5 -30.5t-12.5 -24.5h-251q-6 20 -1.5 32.5t17.5 22.5h247z" />
    <glyph glyph-name="uogonek" unicode="&#x173;" horiz-adv-x="518" 
d="M342 198q-20 -48 -46 -88t-53.5 -68.5t-56 -44t-53.5 -15.5q-37 0 -55.5 26.5t-18.5 73.5q0 18 4.5 47t12 63l15.5 70l15.5 68t12 57.5t4.5 38.5h-62q-6 14 0 26q17 14 46 22t58 8q19 0 29 -17.5t10 -44.5q0 -23 -10 -66.5l-22 -92t-22 -95t-10 -73.5q0 -55 37 -55
q15 0 40.5 29.5t52 70.5t49 84t30.5 70q12 38 19.5 77t16.5 96q9 3 20 5t22.5 2t21.5 -1.5t16 -5.5l-13.5 -72.5l-15 -80.5l-14.5 -82t-12.5 -77.5t-8.5 -66.5t-3 -48h50q4 -8 1 -18h2l-3 -2v-1q-10 -10 -26 -17q-15 -12 -29 -26.5t-24.5 -30.5t-16.5 -32.5t-6 -31.5
q0 -26 13.5 -41t35.5 -15q15 0 30 2.5t29 7.5q4 -4 7.5 -9t5.5 -17q-20 -13 -48.5 -22.5t-52.5 -13.5q-45 0 -70.5 22t-25.5 60q0 35 23.5 69.5t55.5 59.5q-33 5 -33 61q0 9 3.5 29t9 44l10.5 46.5l8 36.5z" />
    <glyph glyph-name="uring" unicode="&#x16f;" horiz-adv-x="518" 
d="M342 198q-20 -48 -46 -88t-53.5 -68.5t-56 -44t-53.5 -15.5q-37 0 -55.5 26.5t-18.5 73.5q0 18 4.5 47t12 63l15.5 70l15.5 68t12 57.5t4.5 38.5h-62q-6 14 0 26q17 14 46 22t58 8q19 0 29 -17.5t10 -44.5q0 -23 -10 -66.5l-22 -92t-22 -95t-10 -73.5q0 -55 37 -55
q15 0 40.5 29.5t52 70.5t49 84t30.5 70q12 38 19.5 77t16.5 96q9 3 20 5t22.5 2t21.5 -1.5t16 -5.5l-13.5 -72.5l-15 -80.5l-14.5 -82t-12.5 -77.5t-8.5 -66.5t-3 -48h50q5 -8 0 -21q-6 -6 -17.5 -12t-24.5 -11.5t-27 -8.5t-26 -3q-37 0 -37 61q0 9 3.5 29t9 44l10.5 46.5
l8 36.5zM397 638q0 -28 -10.5 -47.5t-26 -31.5t-32.5 -17.5t-30 -5.5q-40 0 -65 26t-25 65q0 29 11.5 48.5t27.5 31.5t32.5 17t26.5 5q41 0 66 -26.5t25 -64.5zM252 637q0 -26 18.5 -41t39.5 -15q6 0 15.5 1t14.5 3q5 5 9 14.5t4 27.5q0 25 -17.5 41.5t-39.5 16.5
q-11 0 -17 -2t-11 -4q-3 -2 -9.5 -12t-6.5 -30z" />
    <glyph glyph-name="v" unicode="v" horiz-adv-x="430" 
d="M14 426q-5 14 0 26q15 8 44.5 19t64.5 11q13 0 25 -22.5t23.5 -72t23.5 -127.5t24 -190h6q12 17 32.5 57t40.5 88.5t35 98.5t15 86q0 44 -10 67q10 6 22.5 8t26.5 2q17 0 25.5 -1.5t17.5 -8.5q0 -21 -9 -55.5t-24.5 -76.5t-35.5 -89.5t-42.5 -94.5t-46 -90t-45.5 -76
q-19 -6 -40.5 -6.5t-32.5 6.5l-12.5 108t-17.5 126t-22.5 119t-26.5 88h-61z" />
    <glyph glyph-name="w" unicode="w" horiz-adv-x="684" 
d="M414 481q7 -11 15.5 -35.5t17.5 -71.5t17.5 -121t16.5 -184h5q12 17 31.5 57.5t38 89t32.5 98.5t14 86q0 46 -9 67q9 6 21.5 8t26.5 2q16 0 25 -1.5t18 -8.5q0 -21 -8.5 -55.5t-23 -77t-34 -90t-41 -94t-44.5 -89.5t-44 -76q-20 -6 -41 -6.5t-32 6.5q-5 43 -8.5 93
t-7.5 99.5t-10 94t-15 77.5h-6q-6 -32 -18.5 -74t-31 -90t-43.5 -99t-55 -101q-20 -6 -41.5 -6.5t-32.5 6.5l-7 67t-9 80l-10.5 85t-12.5 82.5t-15.5 72.5t-17.5 54h-61q-5 12 0 26q15 8 44.5 19t64.5 11q13 0 24 -21.5t21.5 -70.5t21.5 -127.5t23 -193.5h5q14 21 28.5 53
t28.5 69t26 77t20.5 78t12 70.5t0.5 54.5q5 2 15 4t22 3.5t23.5 2.5t19.5 0z" />
    <glyph glyph-name="x" unicode="x" horiz-adv-x="441" 
d="M48 450q6 6 18 11.5t26 10t28 7.5t23 3q16 0 27.5 -10.5t22.5 -33t23 -59l29 -88.5q24 34 40.5 60t27.5 46.5t16 38t5 35.5q8 3 17 5t32 2q17 0 26.5 -2t14.5 -5q0 -15 -18 -43t-44 -61l-54 -65.5l-48 -56.5q20 -69 41.5 -123.5t34.5 -78.5h59q5 -13 0 -27q-6 -8 -17 -14
t-23 -10.5t-24 -7t-21 -2.5q-14 0 -25 8t-23 30.5t-27 63t-37 106.5q-30 -44 -48.5 -74.5t-28.5 -52.5t-13.5 -38.5t-3.5 -31.5q-8 -4 -17.5 -6t-28.5 -2q-31 0 -47 8q0 17 14.5 41.5t38.5 55l54.5 67.5l62.5 79l-18 61t-18 55.5t-18 44.5t-17 29h-62q-3 12 0 24z" />
    <glyph glyph-name="y" unicode="y" horiz-adv-x="428" 
d="M17 426q-8 14 0 26q14 8 43 19t64 11q14 0 27 -21.5t25.5 -70t26.5 -127.5t29 -193h6q12 17 29.5 57t34 88.5t28 98.5t11.5 86q0 45 -11 67q10 6 22.5 8t26.5 2q17 0 25.5 -1.5t17.5 -8.5q0 -31 -12.5 -82.5t-33.5 -111t-48 -120t-56 -109.5q-32 -54 -70 -110.5
t-74 -104.5t-65 -83t-42 -47q-9 4 -18.5 10t-18.5 14.5t-15.5 19.5t-8.5 25q18 13 46.5 37.5t58.5 54.5t58.5 62t46.5 59q-3 28 -8.5 66.5t-12.5 81t-15.5 86t-18 83.5t-19 73.5t-19.5 54.5h-60z" />
    <glyph glyph-name="yacute" unicode="&#xfd;" horiz-adv-x="428" 
d="M17 426q-8 14 0 26q14 8 43 19t64 11q14 0 27 -21.5t25.5 -70t26.5 -127.5t29 -193h6q12 17 29.5 57t34 88.5t28 98.5t11.5 86q0 45 -11 67q10 6 22.5 8t26.5 2q17 0 25.5 -1.5t17.5 -8.5q0 -31 -12.5 -82.5t-33.5 -111t-48 -120t-56 -109.5q-32 -54 -70 -110.5
t-74 -104.5t-65 -83t-42 -47q-9 4 -18.5 10t-18.5 14.5t-15.5 19.5t-8.5 25q18 13 46.5 37.5t58.5 54.5t58.5 62t46.5 59q-3 28 -8.5 66.5t-12.5 81t-15.5 86t-18 83.5t-19 73.5t-19.5 54.5h-60zM213 562l152 150q32 -8 48 -24.5t24 -43.5l-201 -109z" />
    <glyph glyph-name="ydieresis" unicode="&#xff;" horiz-adv-x="428" 
d="M17 426q-8 14 0 26q14 8 43 19t64 11q14 0 27 -21.5t25.5 -70t26.5 -127.5t29 -193h6q12 17 29.5 57t34 88.5t28 98.5t11.5 86q0 45 -11 67q10 6 22.5 8t26.5 2q17 0 25.5 -1.5t17.5 -8.5q0 -31 -12.5 -82.5t-33.5 -111t-48 -120t-56 -109.5q-32 -54 -70 -110.5
t-74 -104.5t-65 -83t-42 -47q-9 4 -18.5 10t-18.5 14.5t-15.5 19.5t-8.5 25q18 13 46.5 37.5t58.5 54.5t58.5 62t46.5 59q-3 28 -8.5 66.5t-12.5 81t-15.5 86t-18 83.5t-19 73.5t-19.5 54.5h-60zM361 677q2 -17 8.5 -35t14.5 -30q-9 -13 -30 -24t-38 -11q-9 0 -15 6.5
t-10.5 16t-6.5 20.5t-2 19q0 10 8 17t20 11t25.5 6.5t25.5 3.5zM194 677q2 -17 9 -35t16 -30q-10 -13 -31 -24t-38 -11q-8 0 -14 6.5t-10.5 16t-6.5 20.5t-2 19q0 10 7.5 17t19 11t25 6.5t25.5 3.5z" />
    <glyph glyph-name="z" unicode="z" horiz-adv-x="403" 
d="M310 404q-30 -1 -60 -1t-58 0.5t-51 1.5t-39 3l-22 -39q-8 -2 -16 1.5t-13 11.5l30 100q25 0 62.5 -3.5t79 -6.5t82.5 -3.5t72 5.5q12 -2 18.5 -16.5t6.5 -29.5l-304 -354l4 -3q48 1 87.5 -5t71 -9t55.5 1.5t42 27.5q5 0 13 -6t10 -13q-15 -47 -42.5 -66t-81.5 -19
q-30 0 -54.5 3.5t-51.5 6.5t-58.5 3.5t-74.5 -6.5q-6 7 -11 20t-5 25l313 368z" />
    <glyph glyph-name="zacute" unicode="&#x17a;" horiz-adv-x="403" 
d="M310 404q-30 -1 -60 -1t-58 0.5t-51 1.5t-39 3l-22 -39q-8 -2 -16 1.5t-13 11.5l30 100q25 0 62.5 -3.5t79 -6.5t82.5 -3.5t72 5.5q12 -2 18.5 -16.5t6.5 -29.5l-304 -354l4 -3q48 1 87.5 -5t71 -9t55.5 1.5t42 27.5q5 0 13 -6t10 -13q-15 -47 -42.5 -66t-81.5 -19
q-30 0 -54.5 3.5t-51.5 6.5t-58.5 3.5t-74.5 -6.5q-6 7 -11 20t-5 25l313 368zM214 562l152 150q32 -8 48 -24.5t24 -43.5l-201 -109z" />
    <glyph glyph-name="zcaron" unicode="&#x17e;" horiz-adv-x="442" 
d="M310 404q-30 -1 -60 -1t-58 0.5t-51 1.5t-39 3l-22 -39q-8 -2 -16 1.5t-13 11.5l30 100q25 0 62.5 -3.5t79 -6.5t82.5 -3.5t72 5.5q12 -2 18.5 -16.5t6.5 -29.5l-304 -354l4 -3q48 1 87.5 -5t71 -9t55.5 1.5t42 27.5q5 0 13 -6t10 -13q-15 -47 -42.5 -66t-81.5 -19
q-30 0 -54.5 3.5t-51.5 6.5t-58.5 3.5t-74.5 -6.5q-6 7 -11 20t-5 25l313 368zM115 653q5 10 12 17t20 12l100 -70l79 65q18 -3 27 -23l-107 -116h-28z" />
    <glyph glyph-name="zdotaccent" unicode="&#x17c;" horiz-adv-x="403" 
d="M310 404q-30 -1 -60 -1t-58 0.5t-51 1.5t-39 3l-22 -39q-8 -2 -16 1.5t-13 11.5l30 100q25 0 62.5 -3.5t79 -6.5t82.5 -3.5t72 5.5q12 -2 18.5 -16.5t6.5 -29.5l-304 -354l4 -3q48 1 87.5 -5t71 -9t55.5 1.5t42 27.5q5 0 13 -6t10 -13q-15 -47 -42.5 -66t-81.5 -19
q-30 0 -54.5 3.5t-51.5 6.5t-58.5 3.5t-74.5 -6.5q-6 7 -11 20t-5 25l313 368zM294 627q-5 -33 -30.5 -44t-52.5 -2l-23 42q3 31 26 44.5t58 4.5z" />
    <glyph glyph-name="Eth" unicode="&#xd0;" horiz-adv-x="713" 
d="M76 -1q-2 8 -1 18.5t7 20.5l50 10q6 1 11 3t9.5 10t9 24t10 45.5t12.5 75.5l17 113h-108q-6 20 -1.5 33t17.5 22h100l10 75.5t8.5 69.5t7 60t5.5 46l-86 11q-4 16 4 35q19 2 45.5 3.5t55 2.5l57.5 2t53 1.5t40.5 1t20.5 0.5q72 0 128.5 -13.5t95.5 -43.5t59.5 -78
t20.5 -117q0 -87 -19 -152.5t-52 -113.5t-77 -79.5t-95.5 -50.5t-107 -27t-110.5 -8h-197zM254 59q23 -5 53 -6.5t62.5 0.5t66.5 8.5t66 18.5q22 10 46.5 34t45.5 61.5t34.5 89.5t13.5 118q0 61 -17 109t-54.5 80t-96.5 47t-143 10q-9 -50 -18 -112t-22 -143h139
q4 -17 0.5 -30t-12.5 -25h-135q-11 -77 -19 -141.5t-10 -118.5z" />
    <glyph glyph-name="Ethsmall" horiz-adv-x="654" 
d="M40 -2q-3 10 -1.5 19.5t6.5 18.5l42 11q6 1 11.5 7t10.5 25.5t12 57t16 101.5h-61q-6 20 -1 32.5t17 21.5h53q8 54 14 100t6 73l-64 5q-5 20 6 37q20 2 55 4l72 4t69.5 3t48.5 1q103 0 158.5 -49t55.5 -132q0 -54 -14 -102t-38.5 -88.5t-58.5 -70.5t-74 -48
q-48 -22 -114.5 -26.5t-138.5 -4.5h-88zM193 58q16 -3 39 -4t48.5 0.5t52 6.5t49.5 14q15 7 32.5 28.5t32.5 52.5t25 69.5t10 79.5q0 84 -56.5 128.5t-177.5 32.5q-5 -34 -13 -76.5t-16 -97.5h160q4 -17 0.5 -29.5t-12.5 -24.5h-155q-7 -53 -12 -98.5t-7 -81.5z" />
    <glyph glyph-name="eth" unicode="&#xf0;" horiz-adv-x="462" 
d="M342 462q-5 47 -18 88.5t-36 73.5l-85 -62q-11 7 -18.5 19.5t-5.5 23.5l80 53q-23 20 -52 33t-65 15q0 10 4.5 24.5t15.5 17.5q47 0 83.5 -13t65.5 -36l61 53q13 -1 24 -14t11 -27l-63 -46q41 -50 59 -120.5t18 -151.5q0 -83 -17.5 -158t-49 -132.5t-76 -91.5t-98.5 -34
q-66 0 -102 43t-36 134q0 80 20 141t52.5 102.5t72.5 62.5t79 21q25 0 42 -6t30 -14zM124 179q0 -78 22.5 -112t56.5 -34q27 0 48 7q17 15 33 40.5t28.5 59t20 74.5t7.5 87q0 72 -24 101.5t-72 29.5q-9 0 -25 -3.5t-28 -12.5q-15 -19 -27 -46.5t-21 -59t-14 -65.5t-5 -66z
" />
    <glyph glyph-name="Thorn" unicode="&#xde;" horiz-adv-x="582" 
d="M59 -1q-2 7 0 20.5t7 21.5l58 12q10 2 17.5 7t13.5 21.5t12.5 49t14.5 88.5l11 78l12.5 92.5l13 98.5t11.5 95l9 82.5t5 60.5l-71 12q-6 17 3 32h237q3 -15 -4 -33l-47 -10q-11 -3 -19.5 -11t-16.5 -39q38 2 65.5 3t45.5 1q78 0 123.5 -40.5t45.5 -116.5
q0 -73 -28.5 -125.5t-76.5 -86.5t-110.5 -49.5t-129.5 -14.5q-7 -58 -12 -107.5l-9 -87.5l77 -12q4 -7 1 -20.5t-8 -21.5h-251zM290 466l-11.5 -83l-10.5 -81q38 -4 71.5 -4t64.5 7q54 23 82.5 73.5t29.5 117.5q2 62 -34.5 97.5t-114.5 35.5q-9 0 -23.5 -1.5t-29.5 -3.5
q-5 -28 -10.5 -66.5z" />
    <glyph glyph-name="Thornsmall" 
d="M165 261q4 33 10.5 78t12 90.5l10 84.5t5.5 59l-59 11q-4 19 7 38h184q2 -10 0.5 -19t-6.5 -19l-22 -11q-13 -7 -19.5 -21.5t-11.5 -43.5q9 2 21.5 4t24.5 3.5t22 2t13 0.5q66 0 106 -28.5t40 -86.5q0 -64 -26 -106t-66 -66.5t-89 -35t-95 -11.5q-5 -39 -8.5 -74
t-4.5 -62l81 -11q5 -22 -6 -38h-233q-4 17 7 38l41 11q9 3 15.5 8t13 25.5t14 62.5t18.5 117zM238 260q-1 -5 -1.5 -9.5t-1.5 -9.5q25 -7 53.5 -9.5t57.5 4.5q31 12 51.5 49.5t20.5 85.5q0 23 -7 40.5t-24.5 29t-46 16t-71.5 1.5q-6 -39 -14 -85t-17 -113z" />
    <glyph glyph-name="germandbls" unicode="&#xdf;" horiz-adv-x="541" 
d="M435 511l-36 -26.5t-34.5 -28.5t-26 -32t-11.5 -38q0 -24 13 -44t33 -37t43.5 -33t43.5 -34t33.5 -39t13.5 -48q0 -41 -22 -71.5t-53.5 -51t-67 -30.5t-61.5 -10q-20 0 -37.5 7t-30 17.5t-19.5 22.5t-7 23q1 18 14 31t43 17l7 -1q5 -19 26 -39t56 -24q12 2 24.5 8
t23.5 15.5t18 22t7 26.5q0 21 -12.5 38t-31 32t-40 30t-40 33t-31 40.5t-12.5 53.5q0 36 14 63t35 48.5t44 39.5t41 36q20 22 18.5 45t-16 41.5t-37.5 28.5t-45 6q-21 -13 -35.5 -29.5t-25 -38.5t-17.5 -51.5t-12 -67.5l-45 -330l-12.5 -84.5t-8.5 -48.5h-147q-3 19 7 38
l45 11q8 2 15 8.5t13 23t12 46.5t13 80l8 72l10 88l9.5 81.5t6.5 52.5q10 72 42.5 112.5t72.5 60t78.5 24t61.5 4.5q29 -7 49.5 -28.5t27 -49.5t-4 -58t-43.5 -54z" />
    <glyph glyph-name="zero" unicode="0" horiz-adv-x="504" 
d="M37 237q0 91 14.5 161t38 121t54.5 85t63.5 55t64.5 29.5t59 8.5q44 0 72 -21.5t44 -58.5t22 -86t6 -104q0 -108 -23.5 -190t-62.5 -137.5t-88.5 -83.5t-101.5 -28q-45 0 -76 23.5t-50 60t-27.5 80.5t-8.5 85zM122 305q0 -56 6 -100t19.5 -74.5t36 -47t56.5 -16.5
q23 0 38.5 5t30.5 13q12 14 26 37.5t25.5 59t19.5 85t8 115.5q0 56 -4 100t-16 74t-32.5 46t-53.5 16q-17 0 -34 -4.5t-33 -14.5q-12 -11 -28 -31.5t-30.5 -55t-24.5 -85t-10 -122.5z" />
    <glyph glyph-name="one" unicode="1" horiz-adv-x="504" 
d="M355 704q-8 -31 -13.5 -57t-11.5 -62.5t-14 -90.5l-20 -142q-14 -103 -20.5 -161.5t-7.5 -87.5t3.5 -36.5t12.5 -8.5l111 -12q3 -11 0.5 -24t-7.5 -23h-361q-3 11 -1 23.5t7 23.5l82 12q14 2 24 5t18 12.5t15 27.5t14 50.5t14.5 81.5l17.5 120l23 164t10 106h-92
q-5 12 -0.5 26t22.5 18l169 41z" />
    <glyph glyph-name="two" unicode="2" horiz-adv-x="504" 
d="M122 570q-12 2 -16.5 14.5t8.5 26.5q19 20 43 36.5t49.5 28t49.5 17.5t42 6q66 0 104.5 -39.5t38.5 -100.5q0 -69 -29 -134.5t-75 -127t-103 -119l-112 -110.5q92 11 153 15t88 9l24 42q8 14 20.5 13t18.5 -7l-42 -141q-23 -11 -57.5 -10.5t-82 3.5t-108 4t-134.5 -8
q-2 8 -3 14.5t1 14.5l129.5 117.5t113.5 120t81 122t31 123.5q0 58 -21.5 89.5t-75.5 31.5q-28 0 -66 -12.5t-70 -38.5z" />
    <glyph glyph-name="three" unicode="3" horiz-adv-x="504" 
d="M130 579q-15 8 -16 25.5t15 28.5q18 12 41 24t46.5 21.5t45 15.5t36.5 6q25 0 48 -7.5t40.5 -22t27.5 -34.5t10 -45q0 -49 -14.5 -83t-35 -56t-42.5 -35t-38 -20l-5 -10q24 0 46 -8.5t39 -25t27 -40.5t10 -55q0 -71 -34 -125t-83.5 -90.5t-105.5 -55t-100 -18.5
q-26 0 -41.5 14t-19 32t6 36t33.5 26q9 -8 26.5 -15t38 -11t42.5 -5t40 2q20 9 40 21.5t36.5 33.5t27 52t10.5 76q0 34 -18 55.5t-45 32.5t-58.5 11.5t-58.5 -7.5l-5 5q-2 18 8.5 29.5t26.5 19t32.5 12t26.5 9.5q14 7 32 20.5t34 32.5t27 42.5t11 50.5q0 38 -27 57.5
t-70 19.5q-14 0 -30 -4t-31 -10t-29 -13.5t-24 -14.5z" />
    <glyph glyph-name="four" unicode="4" horiz-adv-x="504" 
d="M372 676q16 11 33.5 17.5t31.5 4.5l-14.5 -85l-12.5 -80.5l-13 -85t-14 -97.5q-4 -23 -7.5 -49.5l-7.5 -55.5q33 -2 60.5 -2t44.5 1l2 -4q-11 -35 -39.5 -47.5t-76.5 -14.5l-12.5 -97.5t-11.5 -95.5q-8 -7 -20 -12t-24.5 -8t-23.5 -3t-16 4l16.5 102l17.5 110
q-53 1 -119 1.5t-147 -7.5q-7 8 -10.5 21t-1.5 27q13 23 52 70.5l90.5 109.5l110.5 133.5t112 142.5zM80 249q42 2 99.5 1.5t116.5 -2.5q2 17 4.5 34t5.5 34q9 66 16 127t15 118h-5l-56 -70l-68.5 -84.5l-69.5 -85.5z" />
    <glyph glyph-name="five" unicode="5" horiz-adv-x="504" 
d="M483 698l-24 -49q-8 -16 -23.5 -27t-43.5 -16t-71 -5t-105 6q-15 -32 -25.5 -75.5t-18.5 -85.5q60 7 105 -1t75.5 -28.5t45.5 -50.5t15 -66q0 -58 -15.5 -104t-40 -81t-55.5 -59.5t-62.5 -40t-60.5 -22.5t-50 -7q-29 0 -53 12t-34.5 31t-4 41.5t38.5 43.5q9 -12 23 -21
t30.5 -15t33.5 -9t32 -3q12 0 28.5 2.5t24.5 8.5q9 6 22.5 17.5t26 31.5t21.5 50t9 73q0 40 -19.5 67t-51 41t-71 16.5t-79.5 -6.5l11.5 59t17.5 81.5l21 87t22 77.5l22 17q55 0 99.5 -0.5t79 0.5t58.5 5.5t36 16.5z" />
    <glyph glyph-name="six" unicode="6" horiz-adv-x="504" 
d="M446 700q12 -5 12.5 -18t-9.5 -25q-31 -7 -77.5 -28t-94.5 -57.5t-90 -89.5t-64 -123q22 16 46 31.5t46.5 27t42.5 18.5t34 7q77 0 124.5 -42t47.5 -130q0 -73 -28 -126.5t-67.5 -89t-84 -52.5t-77.5 -17q-37 0 -70.5 15t-58.5 42.5t-40 66.5t-15 87q0 108 36.5 194.5
t96.5 150t136 103.5t154 55zM261 363q-74 0 -150 -55q-2 -17 -3.5 -33.5t-1.5 -34.5q0 -38 10.5 -70t29.5 -55t45 -36t57 -13q67 0 99.5 44t32.5 117q0 26 -8 50.5t-23.5 43.5t-37.5 30.5t-50 11.5z" />
    <glyph glyph-name="seven" unicode="7" horiz-adv-x="504" 
d="M499 689q10 -9 5 -28q-40 -64 -85.5 -144.5t-88 -169.5t-78.5 -181.5t-58 -179.5q-9 -6 -20.5 -11.5t-23.5 -8.5t-23.5 -4.5t-18.5 0.5q7 26 24.5 70t42 98.5l53 116.5l59 124l60.5 120.5l57 106.5q-38 -5 -75 -4.5t-69 2t-57.5 1.5t-40.5 -6l-15 -25t-19 -24
q-8 -6 -18 -7t-18 7q7 20 12.5 41l11.5 42t12.5 40.5t14.5 35.5q27 0 66.5 -4.5t87 -8t99.5 -4.5t103 5z" />
    <glyph glyph-name="eight" unicode="8" horiz-adv-x="504" 
d="M32 138q0 43 14 77t36.5 60t50.5 44.5t57 32.5q-19 14 -36 30t-29.5 34.5t-20 41.5t-7.5 51q0 30 12.5 56t32 47.5t43.5 38t47.5 27.5t43.5 17t32 6q38 0 66 -10t46.5 -28t27.5 -42t9 -51q0 -45 -13.5 -78.5t-34 -58t-44.5 -41.5t-46 -28q21 -15 40 -30.5t33.5 -33.5
t23 -38t8.5 -44q0 -63 -27 -107t-64 -71.5t-74 -40.5t-58 -13q-35 0 -66 10.5t-54 30.5t-36 48t-13 63zM342 180q0 27 -10.5 48t-28 38.5t-39.5 33.5l-45 32q-21 -12 -40 -26.5t-33.5 -34t-23.5 -45.5t-9 -62q0 -20 9 -38.5t25 -33t38.5 -23t49.5 -8.5q15 0 34.5 3t36.5 10
q16 11 26 34.5t10 71.5zM178 523q0 -22 9.5 -40.5t25 -35t35.5 -32l41 -30.5q17 12 33 27t28.5 34t20 42t7.5 50q0 18 -7 34t-19.5 28t-30 19.5t-38.5 7.5q-15 0 -35 -3t-39 -14q-12 -9 -21.5 -31t-9.5 -56z" />
    <glyph glyph-name="nine" unicode="9" horiz-adv-x="504" 
d="M78 -18q-9 4 -10.5 15t3.5 21q38 12 85 37t91.5 63t82 88t57.5 113q-19 -14 -41.5 -27t-45 -23t-44 -15.5t-37.5 -5.5q-31 0 -61 12t-54 34t-38.5 54t-14.5 73q0 55 15.5 97t39.5 73t54.5 52t59.5 33.5t54.5 18t40.5 5.5q78 0 125 -57.5t47 -162.5q0 -71 -17.5 -133.5
t-48 -115t-71 -95t-86 -74t-93.5 -52t-93 -28.5zM273 328q73 0 126 40q6 31 6 65q0 36 -7.5 69.5t-24.5 60t-43.5 42.5t-63.5 16q-18 0 -36 -2.5t-38 -13.5q-18 -17 -37.5 -53t-19.5 -93q0 -67 37.5 -99t100.5 -32z" />
    <glyph glyph-name="comma" unicode="," horiz-adv-x="315" 
d="M229 -3q-6 -39 -24 -70.5t-39 -53.5t-40.5 -34t-27.5 -12q-11 11 -10 23q20 16 36.5 38.5t20.5 51.5q3 19 -2 33t-12.5 24.5t-16.5 18l-15 12.5q18 47 60 77q39 0 58 -29t12 -79z" />
    <glyph glyph-name="period" unicode="." horiz-adv-x="309" 
d="M179 105q1 -20 9 -41t19 -35q-6 -8 -15.5 -15.5t-20.5 -13.5t-22.5 -9.5t-21.5 -3.5t-17.5 7.5t-13 19t-8 24t-2.5 21.5q0 12 9.5 20.5t23.5 14t30 8t30 3.5z" />
    <glyph glyph-name="cent" unicode="&#xa2;" horiz-adv-x="396" 
d="M378 442q0 -18 -13.5 -29t-24.5 -16q-8 6 -21 13.5t-29 12.5l-74 -390h11q27 0 49 9t46 23q18 -7 21 -29q-23 -22 -54.5 -37t-73.5 -20l-31 -164q-29 -7 -52 10l29 155q-54 9 -86.5 54t-32.5 119q0 42 9 85t24.5 82t38 71t49.5 52q20 15 44 24.5t48 14.5l33 174
q31 3 55 -11l-29 -159q30 -2 47 -15t17 -29zM125 172q0 -49 15.5 -81.5t41.5 -46.5l74 387l-12 1q-12 0 -25 -3t-20 -9q-10 -9 -23 -34t-24 -59.5t-19 -74.5t-8 -80z" />
    <glyph glyph-name="dollar" unicode="$" horiz-adv-x="649" 
d="M469 496q-17 -7 -31 0l20 91q-20 19 -48 28t-56 11l-35 -244l49.5 -32.5t45.5 -36.5t33 -45t13 -58q0 -43 -15 -78t-40.5 -61.5t-58 -44.5t-68.5 -27l-24 -175q-27 -13 -51 0l22 166q-7 -1 -13.5 -1.5t-13.5 -0.5q-18 0 -39.5 7t-43 16.5t-41 19.5l-33.5 17l-2 12l64 158
q19 7 36 -2l-18 -93q16 -35 50.5 -54t72.5 -23l34 242l-48.5 33.5t-44 39.5t-31.5 50t-12 67q0 42 15.5 74.5t40.5 56.5t57 39.5t65 22.5l22 159q14 5 27 4.5t27 -4.5l-22 -152h3q11 0 27.5 -2l36 -4.5l40 -5l38.5 -4.5l5 -15zM376 157q0 39 -21 65t-51 48l-32 -225
q11 1 22 2.5t22 5.5q20 11 40 37t20 67zM226 503q0 -34 19.5 -58.5t48.5 -45.5l32 226q-22 -3 -35 -9q-9 -6 -20.5 -15.5t-21.5 -23t-16.5 -32t-6.5 -42.5z" />
    <glyph glyph-name="Euro" unicode="&#x20ac;" horiz-adv-x="680" 
d="M83 285q2 23 5 45t9 45h-110q-8 10 -6 26.5t11 24.5h122q22 55 57.5 103t82 83.5t103 55.5t119.5 20q19 0 40 -2.5t42.5 -4.5t43 -1t42.5 9l14 -12l-48 -160q-21 -11 -37 0l2 72q-18 16 -47.5 27.5t-72.5 11.5q-37 0 -74 -6t-63 -18q-12 -7 -28 -23.5t-32.5 -39.5
t-32 -52.5t-27.5 -62.5h329q4 -17 -3 -29.5t-18 -21.5h-323q-5 -21 -7.5 -42.5t-2.5 -43.5v-4h320q3 -17 -4 -29t-18 -22h-294q6 -40 23 -76t48 -63t77 -42.5t111 -15.5q50 0 87 14t73 31q13 -12 13 -34q-25 -16 -59 -29t-68 -22.5t-63.5 -14.5t-46.5 -5q-135 0 -209 66
t-81 191h-117q-5 12 -5 27t7 24h116z" />
    <glyph glyph-name="sterling" unicode="&#xa3;" horiz-adv-x="504" 
d="M237 274q12 -37 8.5 -70t-16.5 -59.5t-33 -44.5t-41 -25l1 -4q74 0 126 6.5t89 15.5l23 51q10 8 19.5 6t16.5 -10l-24 -141h-364q-12 14 -9.5 32t9.5 30q21 0 44.5 11.5t44 30t34 41t13.5 44.5q0 24 -5.5 45.5t-14.5 40.5h-88q-5 14 -4.5 27.5t4.5 25.5h75
q-11 35 -21.5 79t-10.5 84q0 45 19 80t51.5 59t75 36.5t90.5 12.5q32 0 59.5 -6t61.5 -10l7 -15l-34 -145q-8 -3 -18.5 -3t-15.5 3l7 83q-14 17 -43 29.5t-68 12.5q-20 0 -35 -3.5t-23 -6.5q-44 -35 -44 -120q0 -54 8 -92.5l16 -77.5h186q5 -10 5 -25t-5 -28h-176z" />
    <glyph glyph-name="yen" unicode="&#xa5;" horiz-adv-x="626" 
d="M303 208l4 26.5t4 29.5q-2 2 -2.5 5t-2.5 6h-168q-7 21 -2 29.5t17 18.5h133q-20 45 -45 95l-47.5 93t-39.5 72.5t-21 34.5l-51 11q-4 19 5 38h225q4 -18 -5 -38l-39 -11q-10 -3 -5 -26.5t21 -61.5t40.5 -88l54.5 -107l54 77l58.5 86l50 75t27.5 45l-41 11q-3 19 7 38
h180q4 -17 -4 -38l-45 -11q-10 -3 -27 -18.5t-37.5 -39.5l-44 -53.5l-47 -61.5l-46 -63.5l-41.5 -58.5h179q4 -17 1 -25.5t-12 -22.5h-193l-5.5 -35.5t-4.5 -31.5h190q4 -17 1 -26t-13 -22h-184q-4 -35 -6 -62t-2 -50l78 -11q3 -19 -5 -38h-256q-1 17 5 38l57 11
q14 2 23 26.5t19 85.5h-181q-6 20 -1.5 29t17.5 19h173z" />
    <glyph glyph-name="florin" unicode="&#x192;" horiz-adv-x="306" 
d="M383 670q-9 6 -25 11t-34 8t-36 3t-31 -4q-18 -20 -31 -77.5t-21 -136.5h116q2 -11 0 -27.5t-9 -27.5h-114l-18 -196q-14 -149 -40 -248t-63.5 -157t-86 -81t-107.5 -20q-10 14 -8 37.5t16 37.5q27 -8 60 -6.5t56 9.5q15 20 30.5 58.5t30.5 110t28.5 181.5t24.5 274h-75
q-3 12 -0.5 28.5t9.5 26.5h71q9 87 30.5 140.5t52 83t68 40t78.5 10.5q20 0 31 -9t13.5 -21.5t-2 -25.5t-14.5 -22z" />
    <glyph glyph-name="numbersign" unicode="#" horiz-adv-x="837" 
d="M490 193h-187l-61 -211q-23 11 -34 38l51 173h-113q1 25 21 51l107 -1l51 172h-154q3 25 22 47h146l55 187q23 -10 32 -34l-45 -153h189l56 190q23 -13 34 -41l-45 -149h97q-3 -28 -19 -47h-92l-51 -172h137q2 -27 -20 -50h-132l-62 -207q-25 12 -33 37zM318 243h187
l51 172h-188z" />
    <glyph glyph-name="zerooldstyle" horiz-adv-x="546" 
d="M516 310q0 -69 -24.5 -128.5t-64.5 -103t-91.5 -68t-106.5 -24.5q-52 0 -90 17.5t-62.5 45t-36.5 62t-12 68.5q0 73 24 134t63.5 104.5t91.5 67.5t109 24q52 0 89.5 -18t62 -46.5t36.5 -64t12 -70.5zM104 248q0 -39 13 -71t35.5 -55t54 -36t69.5 -13t68 9.5t49 23.5
q9 7 18 17.5t16 28t11.5 42t4.5 59.5q0 30 -11.5 60.5t-34.5 54.5t-58 39t-83 15q-34 0 -63.5 -10.5t-41.5 -21.5q-6 -5 -14 -15t-15.5 -27t-12.5 -41.5t-5 -58.5z" />
    <glyph glyph-name="oneoldstyle" horiz-adv-x="373" 
d="M306 444q-13 -2 -23.5 -9t-19.5 -26t-17 -52t-15 -87q-10 -72 -15.5 -115t-5.5 -66.5t5.5 -31t16.5 -8.5l67 -9q1 -11 -0.5 -22t-5.5 -19h-293q-1 8 1 19.5t7 21.5l54 9q19 3 31.5 10t21.5 24t15.5 45t12.5 73q11 76 17 122.5t6 72.5t-5 35t-17 10l-65 8q-3 18 4 38h277
q2 -8 0.5 -18.5t-6.5 -20.5z" />
    <glyph glyph-name="twooldstyle" horiz-adv-x="469" 
d="M99 386q-20 9 -20 26t16 28q18 13 42 25.5t48 22t45.5 15.5t35.5 6q24 0 46 -6t39 -19.5t27 -34.5t10 -50q0 -59 -26 -106.5t-64 -87.5t-81.5 -73.5t-78.5 -63.5l1 -5q41 3 75.5 7t60.5 9t42.5 12.5t20.5 16.5l18 39q5 9 18 9t18 -8l-29 -114q-5 -19 -14.5 -27t-27.5 -8
h-320q-3 22 9 42q51 27 103.5 61t94.5 73t69 82t27 87q0 45 -23 65t-64 20q-58 0 -118 -43z" />
    <glyph glyph-name="threeoldstyle" horiz-adv-x="403" 
d="M81 392q-9 2 -13.5 8.5t-5 14.5t3 16t10.5 13q19 14 41 26t43 20.5t39 13.5t29 5q48 0 80.5 -26t32.5 -78q0 -33 -9 -61t-24 -50t-33.5 -39t-37.5 -27l-1 -9q31 -4 50 -16t30 -29t15 -36t4 -37q0 -45 -15.5 -83t-40 -69t-56 -54.5t-63.5 -39t-62 -23.5t-51 -8
q-29 0 -43 12t-15.5 28.5t9 33.5t30.5 26q13 -5 33 -7.5t42.5 -3t44 2t36.5 8.5q10 4 22 14t22.5 26.5t17.5 39.5t7 55q0 30 -11 52t-30 35t-43 17.5t-49 -0.5l-6 5q2 17 9 26.5t16 15t20 9.5t21 10q13 7 27 18.5t26 27.5t19.5 37.5t7.5 48.5q0 12 -4.5 24t-13.5 22
t-23 16.5t-33 6.5q-29 0 -52.5 -8.5t-52.5 -29.5z" />
    <glyph glyph-name="fouroldstyle" horiz-adv-x="520" 
d="M334 479q15 12 34.5 15.5t34.5 1.5q-6 -45 -11.5 -81.5l-11 -73.5l-12 -78.5t-13.5 -94.5q-3 -18 -5.5 -37.5t-5.5 -39.5q48 -2 88 -2.5t63 1.5l3 -4q-5 -18 -16 -29.5t-30.5 -17.5t-48 -8.5t-68.5 -2.5l-12 -95.5t-11 -99.5q-8 -7 -20 -12.5t-24 -8.5t-23 -3t-16 4
q8 54 17.5 106.5t17.5 107.5q-51 0 -114 -1t-144 -5q-4 9 -5 23.5t1 25.5l53.5 69l75 94.5l94 115zM79 94q35 2 87 1.5t108 -2.5l5 41q9 74 17.5 131.5l17.5 114.5l-6 1l-52 -64.5l-62 -75.5l-62.5 -77.5t-52.5 -69.5z" />
    <glyph glyph-name="fiveoldstyle" horiz-adv-x="385" 
d="M386 519q-10 -40 -29.5 -62.5t-45 -33t-52.5 -12.5t-51.5 -2t-43 -1t-25.5 -8q-6 -6 -11 -21t-7.5 -31t-1.5 -30t6 -19q7 -7 24 -13l38 -13.5t43 -17.5t40 -26t30 -39t12 -56q0 -52 -14 -95t-37 -78t-51.5 -61t-58 -43.5t-56.5 -26.5t-46 -9q-24 0 -38.5 12.5t-18 30
t3.5 35.5t26 30q19 -8 41 -11.5t43 -2.5t39.5 5.5t29.5 13.5q7 5 16 15t17 26t13.5 39.5t5.5 56.5q0 32 -12.5 53.5t-31.5 35.5t-41.5 22.5t-42 15t-33 12.5t-14.5 15q-3 16 0 40.5t8 50.5t11 49t11 36q14 35 37 57t48 31q20 8 47 10.5t55.5 4.5t56.5 7t49 19z" />
    <glyph glyph-name="sixoldstyle" horiz-adv-x="529" 
d="M432 698q11 3 16.5 -0.5t7 -10t0 -14t-5.5 -12.5q-44 -11 -92.5 -37t-93 -65.5t-79.5 -92.5t-53 -119q48 34 96.5 55.5t78.5 23.5q33 -1 62.5 -12.5t51 -31.5t34 -47.5t12.5 -59.5q0 -53 -13.5 -95t-35 -74t-49 -55t-55 -37.5t-52.5 -21t-43 -6.5q-40 0 -73.5 14.5
t-58 41.5t-38 65.5t-13.5 86.5q0 107 34 193t89.5 149.5t126.5 104t146 57.5zM265 346q-35 0 -71.5 -10.5t-72.5 -36.5q-2 -15 -3 -31t-1 -33q0 -33 8.5 -63.5t25.5 -54t44 -37.5t63 -14q19 0 41 4.5t33 12.5q6 4 15 12.5t17.5 24.5t14 42.5t5.5 66.5q0 23 -8 44.5t-23 37.5
t-37 25.5t-51 9.5z" />
    <glyph glyph-name="sevenoldstyle" horiz-adv-x="395" 
d="M417 496q4 -2 3 -10t-3 -16q-40 -64 -82.5 -139.5t-83.5 -157.5t-80 -168.5t-71 -173.5q-17 -13 -38.5 -18t-35.5 -3q7 26 24.5 66.5t41.5 90.5l53 106l59.5 113.5l60.5 113l57 104.5q-39 -6 -67.5 -4.5t-52.5 4.5t-46 5t-46 -3q-8 -2 -12.5 -9.5t-9 -16.5t-9.5 -18
t-12 -16q-7 -5 -17.5 -6.5t-17.5 3.5q6 20 13 46t14.5 50t14.5 42.5t13 24.5q27 1 63 -2.5l78.5 -7.5t90 -5t98.5 5z" />
    <glyph glyph-name="eightoldstyle" horiz-adv-x="494" 
d="M32 139q0 37 11 69.5t30.5 60.5t45.5 50.5t56 39.5q-34 26 -58 59t-24 86q0 55 26.5 93.5t64 62.5t77 34.5t65.5 10.5q25 0 48.5 -9.5t41.5 -27t28.5 -42t10.5 -53.5q0 -39 -12 -70.5t-32.5 -55.5t-46.5 -42.5t-53 -31.5q21 -14 40 -29t34 -34t24 -43.5t9 -55.5
q0 -68 -27 -112t-66 -69t-81 -34.5t-72 -9.5q-27 0 -52.5 11.5t-45 32t-31 48.5t-11.5 61zM336 183q0 30 -12 53t-31.5 41t-44 33.5t-48.5 32.5q-40 -27 -63 -68.5t-23 -109.5q0 -26 9.5 -48t25 -37.5t37 -24t45.5 -8.5q50 0 77.5 35t27.5 101zM174 540q0 -29 9.5 -51.5
t25 -40t35.5 -32t42 -27.5q18 12 34 25.5t28 31t19 39.5t7 50q0 53 -30 81.5t-72 28.5q-45 0 -71.5 -28.5t-26.5 -76.5z" />
    <glyph glyph-name="nineoldstyle" 
d="M76 -209q-12 -2 -18 2.5t-7.5 12t0.5 16t5 14.5q34 6 83 29.5t97.5 63.5t90 96.5t60.5 128.5q-21 -18 -44 -32.5t-45 -25t-40.5 -16.5t-28.5 -6q-37 0 -69 12t-55.5 33.5t-37 51.5t-13.5 67q0 51 14.5 90.5t37.5 70t52 51.5t57.5 34t54 19t41.5 6q41 0 73.5 -15.5
t54.5 -42.5t33.5 -64.5t11.5 -81.5q0 -81 -19 -149t-51 -123t-74 -97.5t-87 -72.5t-91 -48t-86 -24zM266 154q33 0 67 11.5t63 35.5q2 12 3 24.5t1 25.5q0 37 -7.5 69.5t-24 56.5t-41.5 38t-61 14q-19 0 -40.5 -3t-38.5 -15t-33 -39.5t-16 -83.5q0 -59 34 -96.5t94 -37.5z
" />
    <glyph glyph-name="onehalf" unicode="&#xbd;" horiz-adv-x="963" 
d="M766 771q13 -5 20.5 -14.5t9.5 -21.5l-572 -806q-22 11 -25 36zM251 673q-3 -31 -5 -57t-2.5 -50l-1 -47t-0.5 -47q0 -50 1.5 -79t5 -44t9.5 -20t15 -6l74 -12q5 -11 4.5 -20.5t-4.5 -20.5h-294q-5 11 -5 20.5t5 20.5l52 12q21 5 33 10.5t18.5 20t8.5 42.5t2 79v42.5
t-0.5 31t-1.5 24l-2 21.5h-85q-7 12 -4 26t21 19l151 40zM609 291q-12 2 -19 14.5t6 25.5q40 42 83 60t75 18q57 0 92.5 -27t35.5 -90q0 -37 -18 -69.5t-46 -61.5t-62 -54.5t-65 -46.5l1 -5q54 15 98.5 17.5t69.5 6.5l18 38q8 15 20.5 14.5t20.5 -6.5l-24 -125
q-15 -7 -30 -9t-33 -1t-41 3.5t-53 3.5t-69 -0.5t-90 -7.5q-4 3 -7 12.5t0 17.5q111 75 173.5 133.5t62.5 107.5q0 35 -20.5 57t-59.5 22q-40 0 -67 -12.5t-52 -35.5z" />
    <glyph glyph-name="onequarter" unicode="&#xbc;" horiz-adv-x="953" 
d="M737 386q15 11 33 17.5t33 4.5q-2 -45 -3 -74.5t-1.5 -52.5l-1 -44.5t-0.5 -50.5v-52q32 -2 60 -2.5t49 0.5l3 -4q-5 -35 -31 -44t-81 -10q0 -20 0.5 -41t1.5 -48q-7 -7 -18 -12t-22.5 -8t-22 -3t-16.5 4q1 24 1.5 40t1 27.5t1 20.5t0.5 20q-42 -1 -93.5 -2.5
t-116.5 -7.5q-8 9 -14 22t-7 27q13 23 42.5 59t65 75l72.5 76.5t64 62.5zM251 673q-3 -31 -5 -57t-2.5 -50l-1 -47t-0.5 -47q0 -50 1.5 -79t5 -44t9.5 -20t15 -6l74 -12q5 -11 4.5 -20.5t-4.5 -20.5h-294q-5 11 -5 20.5t5 20.5l52 12q21 5 33 10.5t18.5 20t8.5 42.5t2 79
v42.5t-0.5 31t-1.5 24l-2 21.5h-85q-7 12 -4 26t21 19l151 40zM775 771q13 -5 20.5 -14.5t9.5 -21.5l-572 -806q-22 11 -25 36zM560 137q37 2 79.5 2t85.5 -2v15l-1 157h-6q-30 -29 -72.5 -75.5z" />
    <glyph glyph-name="threequarters" unicode="&#xbe;" horiz-adv-x="887" 
d="M669 386q15 11 33 17.5t33 4.5q-2 -45 -3 -74.5t-1.5 -52.5l-1 -44.5t-0.5 -50.5v-52q32 -2 60 -2.5t49 0.5l3 -4q-5 -35 -31 -44t-81 -10q0 -20 0.5 -41t1.5 -48q-7 -7 -18 -12t-22.5 -8t-22 -3t-16.5 4q1 24 1.5 40t1 27.5t1 20.5t0.5 20q-42 -1 -93.5 -2.5
t-116.5 -7.5q-8 9 -14 22t-7 27q13 23 42.5 59t65 75l72.5 76.5t64 62.5zM67 565q-18 8 -21 22.5t11 25.5q34 28 74.5 46.5t78.5 18.5q22 0 42 -4t35 -13.5t23.5 -24.5t8.5 -37q0 -39 -20 -58.5t-51 -35.5v-6q51 0 78.5 -19.5t27.5 -66.5q0 -40 -24.5 -72t-61.5 -55
t-82 -35.5t-85 -12.5q-23 0 -37.5 11t-18 26.5t5.5 32t32 27.5q12 -8 28.5 -13.5t35.5 -8t39 -3t38 2.5q24 11 38 29.5t14 46.5q0 25 -16 38.5t-40 17.5t-52.5 0.5t-54.5 -11.5l-6 6q-5 18 0.5 28t16 16t23 9l21.5 5q13 3 26 8.5t23 13t16.5 17.5t6.5 21q0 23 -17.5 36.5
t-43.5 13.5q-29 0 -56 -11.5t-56 -31.5zM736 771q13 -5 20.5 -14.5t9.5 -21.5l-572 -806q-22 11 -25 36zM492 137q37 2 79.5 2t85.5 -2v15l-1 157h-6q-30 -29 -72.5 -75.5z" />
    <glyph glyph-name="exclam" unicode="!" horiz-adv-x="305" 
d="M292 673l-103 -488q-11 -10 -23 -16t-25 -5l38 501q46 21 93 24zM188 105q2 -20 9.5 -41t18.5 -35q-6 -8 -15.5 -15.5t-21 -13.5t-23 -9.5t-21.5 -3.5t-17.5 7.5t-12.5 19t-7.5 24t-2.5 21.5q0 12 9.5 20.5t23.5 14t30 8t30 3.5z" />
    <glyph glyph-name="quotedbl" unicode="&#x22;" horiz-adv-x="468" 
d="M313 772q21 0 41.5 -4.5t37 -15t26.5 -28t10 -42.5q0 -23 -7 -52.5t-18.5 -60.5t-26.5 -59.5t-31 -50.5l-32 1v312zM132 772q21 0 41.5 -4.5t37 -15t26.5 -28t10 -42.5q0 -23 -7 -52.5t-18.5 -60.5t-26.5 -59.5t-31 -50.5l-32 1v312z" />
    <glyph glyph-name="ampersand" unicode="&#x26;" horiz-adv-x="598" 
d="M125 267q31 1 65 5.5t61.5 16t45.5 30.5t18 49q0 25 -15.5 44.5t-57.5 19.5q-17 0 -28.5 -3t-22.5 -7q-8 -10 -19 -28t-21 -39t-17.5 -44t-8.5 -44zM541 572q16 -23 26 -57t10 -82q0 -51 -14.5 -105t-40.5 -104.5t-62 -95.5t-79 -78.5t-90.5 -53t-97.5 -19.5
q-69 0 -113 47t-44 141q0 33 8.5 71t24.5 75t39.5 71t53.5 60q52 45 127 45q26 0 45 -8.5t32 -22t19 -30.5t6 -35q0 -41 -19 -66t-48 -45q-33 -20 -87.5 -34t-115.5 -18q-2 -11 -2.5 -20t-0.5 -21q0 -38 9 -66.5t25 -48t36 -29.5t43 -10q52 0 102.5 34t90.5 89t64.5 123.5
t24.5 136.5q0 62 -22 105.5t-58 71.5t-82 40.5t-95 12.5q-78 0 -126.5 -27.5t-65.5 -75.5q-20 6 -30 18.5t-10 26.5q0 23 15 42.5t42 34t65.5 23t85.5 8.5q54 0 96 -11.5t76.5 -25l63 -24.5t55.5 -11q23 0 37 11t14 31q0 23 -20 31.5t-41 -0.5q-6 12 -2.5 21t12 15t21 9
t24.5 3q33 0 56 -19.5t23 -55.5q0 -38 -24.5 -67t-81.5 -31z" />
    <glyph glyph-name="ampersandsmall" horiz-adv-x="816" 
d="M290 484q12 0 29 -5.5t32.5 -16t27 -27t11.5 -38.5q0 -45 -23 -69.5t-59 -40.5l1 -5q34 11 72.5 11.5t79 -3t83 -9.5t85 -8.5t84 1.5t80.5 19q5 -16 -9.5 -29.5t-44 -24t-70 -17.5t-86.5 -8q-14 -62 -53 -106.5t-88 -73.5t-101 -42.5t-93 -13.5q-30 0 -68 14t-72 43.5
t-57.5 76t-23.5 111.5q0 64 24.5 113t63 82t85 49.5t90.5 16.5zM412 58q31 22 52.5 65t29.5 95q-41 5 -86.5 11.5t-93.5 8t-98 -6.5t-100 -32q9 -35 26.5 -64.5t43 -51t57 -33.5t67.5 -12q26 0 50 4.5t52 15.5zM109 261v-12t1 -11q33 7 68 17.5t63.5 25.5t47 34.5t18.5 43.5
q0 18 -8 30.5t-20.5 20t-28.5 11t-32 3.5q-31 0 -50 -11q-59 -47 -59 -152z" />
    <glyph glyph-name="plusminus" unicode="&#xb1;" 
d="M237 406v183q23 20 60 23v-206h212q3 -17 -0.5 -37t-12.5 -33h-199v-90q-32 -28 -60 -27v117h-194q-6 20 -1 40t19 30h176zM499 193q4 -17 0.5 -37t-13.5 -33h-453q-6 20 -0.5 40t18.5 30h448z" />
    <glyph glyph-name="slash" unicode="/" horiz-adv-x="456" 
d="M353 770q17 -5 27 -15t16 -24l-292 -816q-32 9 -44 37z" />
    <glyph glyph-name="parenleft" unicode="(" horiz-adv-x="376" 
d="M320 -164q-23 -39 -65 -49q-31 9 -63.5 37t-59.5 72.5t-44 105t-17 134.5q0 109 32 202.5t81.5 168t109.5 128.5t116 84q14 -6 8 -25q-18 -10 -44.5 -31.5t-56 -54.5t-59.5 -76.5t-54 -96t-39 -114.5t-15 -131q0 -71 15 -130t39.5 -104t55 -75.5t60.5 -44.5z" />
    <glyph glyph-name="parenright" unicode=")" horiz-adv-x="376" 
d="M55 648q21 38 64 49q31 -9 64 -37t60 -72.5t44 -105t17 -134.5q0 -109 -32 -202.5t-82 -168t-110 -128.5t-116 -84q-14 6 -8 25q27 15 72 56.5t89 106t76 151t32 190.5q0 71 -15 130t-39.5 104t-55 75.5t-60.5 44.5z" />
    <glyph glyph-name="exclamdown" unicode="&#xa1;" horiz-adv-x="305" 
d="M9 -152l103 488q11 9 22.5 15t25.5 5l-38 -500q-24 -11 -47 -17t-47 -8zM113 416q-1 20 -9 41t-19 35q6 8 15.5 15.5t21 13.5t23 9.5t21.5 3.5t17.5 -8t12.5 -19t7.5 -23.5t2.5 -22.5q0 -12 -9.5 -20t-23.5 -13.5t-30.5 -8t-29.5 -3.5z" />
    <glyph glyph-name="questiondown" unicode="&#xbf;" horiz-adv-x="418" 
d="M187 -174q-6 18 -22 29t-36 20.5t-41.5 18.5t-39.5 22.5t-29 34.5t-10 53q1 50 14.5 83t35 55t47.5 36l51.5 26.5t48 26.5t36.5 36l12 76l22 4q5 -16 6.5 -32.5t0.5 -37.5q-1 -40 -17.5 -66.5t-41.5 -45t-53.5 -32t-53 -26.5t-41 -29t-16.5 -40q-1 -21 12.5 -33
t33.5 -19.5t43.5 -14t43.5 -17t33 -28t12 -47.5q0 -28 -4.5 -45.5t-12 -27t-17.5 -13.5t-21 -4zM224 392q-2 20 -9.5 41t-18.5 35q6 7 15.5 14.5t21 13.5t23 10t21.5 4t17.5 -7.5t12.5 -19t7.5 -24t2.5 -21.5q0 -13 -9.5 -21.5t-23.5 -13.5t-30 -7.5t-30 -3.5z" />
    <glyph glyph-name="guillemotleft" unicode="&#xab;" horiz-adv-x="463" 
d="M286 277l119 -152q-5 -21 -21.5 -37t-39.5 -23l-128 190q-6 17 5 31l188 159q31 -9 28 -44zM127 268l113 -157q-4 -22 -19.5 -36.5t-40.5 -24.5l-125 193q-7 18 3 31l199 180q33 -8 29 -42z" />
    <glyph glyph-name="guillemotright" unicode="&#xbb;" horiz-adv-x="463" 
d="M212 233l-118 153q4 22 20.5 38t40.5 23l127 -190q5 -19 -5 -31l-187 -159q-33 9 -28 44zM369 242l-112 159q9 41 60 61l126 -193q8 -18 -4 -31l-199 -181q-31 10 -28 43z" />
    <glyph glyph-name="hyphen" unicode="-" horiz-adv-x="441" 
d="M353 322q-4 -35 -18 -60.5t-42 -31.5l-202 -42l-6 7q5 35 18 60.5t39 30.5l205 44z" />
    <glyph glyph-name="emdash" unicode="&#x2014;" horiz-adv-x="1052" 
d="M862 332q4 -15 2 -29.5t-14 -30.5h-662q-4 32 19 60h655z" />
    <glyph glyph-name="colon" unicode=":" horiz-adv-x="310" 
d="M262 470q1 -20 9 -41t19 -35q-6 -8 -15.5 -15.5t-20.5 -13.5t-22.5 -9.5t-21.5 -3.5t-17.5 7.5t-13 19t-8 24t-2.5 21.5q0 12 9.5 20.5t23.5 14t30 8t30 3.5zM212 105q1 -20 9 -41t19 -35q-6 -8 -15.5 -15.5t-20.5 -13.5t-22.5 -9.5t-21.5 -3.5t-17.5 7.5t-13 19t-8 24
t-2.5 21.5q0 12 9.5 20.5t23.5 14t30 8t30 3.5z" />
    <glyph glyph-name="lessequal" unicode="&#x2264;" 
d="M435 92q3 -17 -0.5 -37t-12.5 -33l-352 245q-6 20 -0.5 40t17.5 30zM410 644q13 -3 19.5 -18.5t-1.5 -30.5l-230 -132l263 -169q2 -12 0 -25t-7.5 -24.5t-13 -20.5t-16.5 -13l-334 219v28z" />
    <glyph glyph-name="approxequal" unicode="&#x2248;" 
d="M48 400q48 32 84.5 37t67 -3.5t58.5 -24t58.5 -23.5t66 -2t81.5 39q13 -10 18 -28.5t0 -34.5q-58 -34 -101 -40.5t-76 1t-59.5 22.5t-53.5 23.5t-57 4.5t-69 -34q-14 9 -18 29t0 34zM48 261q48 32 84.5 37t67 -3.5t58.5 -24t58.5 -23.5t66 -2t81.5 39q13 -10 18 -28.5
t0 -34.5q-58 -34 -101 -40.5t-76 1t-59.5 22.5t-53.5 23.5t-57 4.5t-69 -34q-14 9 -18 29t0 34z" />
    <glyph glyph-name="notequal" unicode="&#x2260;" 
d="M219 275l46 128h-222q-6 20 -0.5 40t18.5 30h229l107 297q17 -5 27 -15t16 -24l-92 -258h161q4 -17 0.5 -37t-13.5 -33h-173l-46 -128h232q4 -17 0.5 -37t-13.5 -33h-244l-104 -290q-32 9 -44 37l90 253h-151q-6 20 -0.5 40t18.5 30h158z" />
    <glyph glyph-name="logicalnot" unicode="&#xac;" 
d="M499 374v-176q-5 -6 -14.5 -9.5t-20 -4.5t-20.5 0t-16 3v117h-395q-6 20 -0.5 40t18.5 30h448z" />
    <glyph glyph-name="partialdiff" unicode="&#x2202;" horiz-adv-x="462" 
d="M342 462q-5 49 -19 92t-39 76t-60 53t-82 23q0 10 4.5 24.5t15.5 17.5q70 0 119 -28.5t80 -77t45.5 -113t14.5 -136.5q0 -83 -17.5 -158t-49 -132.5t-76 -91.5t-98.5 -34q-66 0 -102 43t-36 134q0 80 20 141t52.5 102.5t72.5 62.5t79 21q25 0 42 -6t30 -14zM124 179
q0 -78 22.5 -112t56.5 -34q27 0 48 7q17 15 33 40.5t28.5 59t20 74.5t7.5 87q0 72 -24 101.5t-72 29.5q-9 0 -25 -3.5t-28 -12.5q-15 -19 -27 -46.5t-21 -59t-14 -65.5t-5 -66z" />
    <glyph glyph-name="greaterequal" unicode="&#x2265;" 
d="M122 34q-9 7 -13.5 20t-1.5 27l315 189q8 -8 17.5 -19t2.5 -26zM143 175q-6 2 -11 7t-8 12t-3 15t4 15l237 144l-259 159q-2 12 0.5 24.5t8 24t13 20.5t16.5 13l331 -215v-27z" />
    <glyph glyph-name="brokenbar" unicode="&#xa6;" horiz-adv-x="507" 
d="M230 180q24 10 56 0v-391q-22 -19 -56 -19v410zM286 385q-14 -3 -27.5 -3.5t-28.5 2.5v373q14 8 28 11t28 3v-386z" />
    <glyph glyph-name="percent" horiz-adv-x="915" 
d="M569 271q-59 0 -121 -23t-119 -57l-219 -204l-22 30q2 23 20.5 48t48.5 50t69 49.5t81 47.5l103.5 84.5l119.5 104.5q-67 -30 -127 -47.5t-96 -17.5q-26 0 -55 8t-53 25.5t-40 45.5t-16 69q0 53 25 91t61.5 62t76.5 35t70 11q22 0 42 -7t35.5 -20.5t24.5 -34.5t9 -48
q0 -38 -16 -64t-38.5 -42t-46 -24t-38.5 -11l-7 25q29 7 50.5 30.5t21.5 64.5q0 25 -11.5 42.5t-29 26t-39 9t-41.5 -6.5q-12 -7 -24.5 -18t-22 -26.5t-16 -36t-6.5 -45.5q0 -31 12 -52t30 -34.5t39.5 -19.5t40.5 -6q64 0 132 25t127 60l90 88l95 99l24 -27
q-3 -22 -18.5 -45.5t-40.5 -46.5t-57.5 -45.5t-69.5 -43.5l-100.5 -84l-122.5 -107q64 27 119 44t84 17q26 0 55 -8t53 -25t40 -42.5t16 -61.5q0 -56 -25 -95.5t-61.5 -64.5t-76.5 -37t-70 -12q-47 0 -79 31.5t-32 85.5q0 31 14 55.5t34 40.5t40.5 24.5t34.5 8.5l16 -20
q-8 -4 -19.5 -11t-22 -18t-18 -26t-7.5 -35q0 -24 12 -41.5t30 -28t39.5 -12.5t41.5 6q9 4 20.5 15t22.5 27.5t18.5 38t7.5 47.5q0 29 -12 50t-30 34.5t-39.5 19.5t-40.5 6z" />
    <glyph glyph-name="perthousand" unicode="&#x2030;" horiz-adv-x="1320" 
d="M1235 155q0 -50 -19.5 -84.5t-47 -56.5t-58.5 -31.5t-55 -9.5q-33 0 -60.5 10.5t-48 29t-34 44t-17.5 55.5q-22 -26 -49.5 -51t-60 -44.5t-69.5 -31.5t-79 -12q-32 0 -60 9.5t-49 27t-33 42.5t-12 57q0 28 12.5 49t30 34.5t36.5 20t33 6.5l20 -20q-8 -4 -18 -10
t-19 -14.5t-15.5 -20.5t-6.5 -27q0 -23 10 -40.5t26.5 -29.5t36.5 -18t40 -6q38 0 61.5 27t23.5 70q0 40 -15.5 67.5t-38 43.5t-47.5 23t-45 7q-63 0 -124 -23t-116 -57l-201 -204l-28 30q-2 23 13.5 48t43.5 50t65 49.5t78 46.5l96.5 85l111.5 105q-66 -29 -126 -47
t-98 -18q-28 0 -62 8.5t-63.5 28t-49.5 52.5t-20 81q0 41 22 74t55 55.5t71 35t70 12.5q22 0 46 -9t43 -25.5t31.5 -41t12.5 -55.5q0 -35 -14 -57t-34 -35t-42 -19t-37 -9l-10 25q9 3 19.5 9t20.5 15t16.5 21.5t6.5 27.5q0 48 -28.5 70.5t-72.5 22.5q-16 0 -33 -6
t-30.5 -18.5t-22 -31t-8.5 -43.5q0 -40 15 -67t37.5 -43t48 -22.5t45.5 -6.5q68 0 135 25t124 60q80 82 169 187l28 -27q1 -22 -12.5 -45.5t-36.5 -46.5t-54.5 -45.5t-67.5 -43.5l-92 -84l-112 -107q63 28 118 44.5t85 16.5q28 0 62 -9t64 -28t50 -49.5t20 -72.5
q0 -30 -10.5 -52t-27.5 -39l2 -2q9 4 22 14.5t26.5 25t26 30.5t21.5 33q7 42 29 70.5t49 46.5t53.5 25.5t41.5 7.5q36 0 66.5 -12.5t52.5 -34.5t34.5 -52.5t12.5 -65.5zM959 156q0 -29 10.5 -52t27.5 -39t39 -24t45 -8q12 0 29.5 3t25.5 10q14 8 24 33t10 54q0 27 -9.5 50.5
t-26 40.5t-38.5 26.5t-47 9.5q-13 0 -26.5 -3t-21.5 -9q-6 -3 -13 -11t-13.5 -20t-11 -27.5t-4.5 -33.5z" />
    <glyph glyph-name="asciitilde" unicode="~" 
d="M48 335q48 32 84.5 37t67 -3.5t58.5 -24t58.5 -23.5t66 -2t81.5 39q13 -10 18 -28.5t0 -34.5q-58 -34 -101 -40.5t-76 1t-59.5 22.5t-53.5 23.5t-57 4.5t-69 -34q-14 9 -18 29t0 34z" />
    <glyph glyph-name="mu" unicode="&#xb5;" horiz-adv-x="628" 
d="M179 463q-3 -15 -5 -30.5t-3.5 -34t-2 -41.5t-0.5 -54v-151q17 -32 46.5 -54.5t77.5 -22.5q61 0 96.5 53t35.5 151v14q0 23 -0.5 42l-1 38.5t-2 41t-2.5 48.5h71q-5 -42 -6 -84.5t-1 -91.5v-45q0 -38 1.5 -75t4 -70t6.5 -58.5t10 -38.5l-62 -12q-6 14 -8.5 43.5
t-3.5 68.5h-4q-6 -27 -20 -48t-33 -35t-42 -21.5t-45 -7.5q-41 0 -69 15.5t-43 39.5h-6v-37.5t0.5 -51l1 -57t1.5 -56.5t2.5 -48t4.5 -32q-39 -25 -74 0q2 15 3.5 49t2 83t1 110t0.5 130v73v70.5t-1 70.5t-2 64t-4 52h75z" />
    <glyph glyph-name="thorn" unicode="&#xfe;" horiz-adv-x="500" 
d="M94 186q3 20 8 59l11 86.5t12 100.5t11 102.5t8 90.5t3 66h-54q-3 13 0 24q7 6 18.5 12t25 10.5t27.5 7t26 2.5q21 0 29 -14.5t8 -39.5q0 -8 -3 -39.5t-8 -75l-11 -93t-12 -93.5l-11 -78t-7 -45h3q14 38 34.5 76t45 68.5t51.5 49.5t56 19q46 0 71 -35.5t25 -91.5
q0 -53 -12.5 -101.5t-33.5 -90.5t-49 -76.5t-58 -59.5q-17 -14 -38 -23.5t-43.5 -15.5t-45.5 -8.5t-42 -2.5q-4 -18 -11 -56.5l-14.5 -79t-13 -74.5t-6.5 -44q-6 -6 -17.5 -9t-24 -3t-24 2.5t-16.5 6.5l7.5 43l13.5 75l17 92.5l17.5 97.5l15.5 89.5t11 68.5zM149 45
q24 -12 57 -12t68 16q18 16 37 45.5t34 66t25 78t10 83.5q0 54 -15 79t-33 25q-13 0 -28.5 -13.5t-32 -35.5t-33 -50t-30.5 -57t-24 -56t-14 -48q-3 -17 -6 -31l-6 -27.5t-5 -28.5t-4 -34z" />
    <glyph glyph-name="product" unicode="&#x220f;" horiz-adv-x="950" 
d="M871 770q6 -19 -1 -38l-51 -11q-12 -3 -19.5 -9.5t-12 -28.5t-6 -65.5t-1.5 -118.5v-96t0.5 -119t0.5 -128t0.5 -122.5t1.5 -102.5t2 -69l83 -11q6 -18 0 -38h-249q-8 20 0 38l45 11q9 2 14.5 7t9 18.5t5 39.5t1.5 71v94t-0.5 132l-1 149.5t-1.5 146t-3 121.5t-4 77h-396
q-8 0 -14 -5t-10.5 -26.5t-6.5 -65.5t-2 -122v-96t0.5 -119l1 -128t1.5 -122.5t1.5 -102.5t1.5 -69l64 -11q6 -19 0 -38h-241q-8 19 -1 38l57 11q9 2 15 7t9 19t4.5 40t1.5 70v94t-0.5 132.5l-1 150.5t-1.5 147t-3 122t-4 77l-81 11q-7 18 0 38h792z" />
    <glyph glyph-name="summation" unicode="&#x2211;" horiz-adv-x="698" 
d="M416 318l-295 -430h300q19 0 41 0.5t43 2.5t38 6t27 12l50 128q9 3 19 2t15 -6l-22 -206l-16 -4q-9 4 -24.5 6t-33.5 3.5t-38 2t-39 0.5h-477q-8 10 -6 20t6 17l26 9q19 6 33.5 20t25.5 30l246 358l-254 428l-65 17q-3 8 -3.5 15t3.5 21h445q65 0 93.5 7t40.5 19l23 -5
l-18 -207q-12 -5 -23 -4t-22 4l-9 133h-361z" />
    <glyph glyph-name="radical" unicode="&#x221a;" horiz-adv-x="718" 
d="M156 411h-130q-2 11 -3 25.5t3 25.5h215q7 -30 21.5 -73l31 -89.5l32 -91.5t25.5 -79h9l116 542h213q5 -12 4 -26t-4 -25h-158l-146 -620v-11h-77z" />
    <glyph glyph-name="infinity" unicode="&#x221e;" horiz-adv-x="666" 
d="M336 359q30 48 68 77t94 29q33 0 58 -12t41.5 -33t25 -48.5t8.5 -58.5q0 -27 -10.5 -56t-30 -53t-46.5 -39.5t-60 -15.5q-25 0 -47 9t-41.5 24t-37 34.5t-33.5 40.5q-10 -21 -23 -40.5t-30.5 -34.5t-39.5 -24t-50 -9q-31 0 -57.5 11t-46.5 31.5t-31.5 49.5t-11.5 65
q0 29 12.5 57.5t33 51t47 36.5t54.5 14q43 0 82.5 -29t71.5 -77zM96 339q0 -29 8.5 -52.5t23.5 -41t35 -27t42 -9.5q29 0 53.5 21t42.5 55q-32 52 -70 85.5t-73 33.5q-27 0 -44.5 -16.5t-17.5 -48.5zM361 326q15 -22 32.5 -43t37 -37.5t40.5 -26.5t44 -10q28 0 41 21.5
t13 55.5q0 24 -8 45.5t-22 37.5t-32.5 25.5t-39.5 9.5q-29 0 -58.5 -22.5t-47.5 -55.5z" />
    <glyph glyph-name="integral" unicode="&#x222b;" horiz-adv-x="281" 
d="M350 629q-9 6 -24 10.5t-32 7t-34 1.5t-30 -6q-9 -10 -15 -21t-9.5 -32t-5 -57t-1.5 -96v-213q0 -140 -14.5 -230t-43.5 -142.5t-73 -72t-104 -16.5q-9 14 -7.5 37.5t15.5 37.5q28 -8 60.5 -7t56.5 9q15 21 22.5 53t11 78.5t3.5 109v144.5v252q0 121 53 174.5t148 53.5
q30 0 41.5 -12t11.5 -26q0 -9 -7.5 -21t-22.5 -16z" />
    <glyph glyph-name="lozenge" unicode="&#x25ca;" horiz-adv-x="581" 
d="M490 314l-211 -360l-211 360l211 358zM153 314l126 -215l126 215l-126 214z" />
    <glyph glyph-name="Delta" unicode="&#x2206;" horiz-adv-x="563" 
d="M541 47l-30 -47h-458l-31 47l239 632h57zM94 62h345l-165 475h-8z" />
    <glyph glyph-name="Omega" unicode="&#x2126;" horiz-adv-x="832" 
d="M478 0q-8 17 -9 34.5t9 34.5q51 32 84 67t53 71.5t28 75.5t8 78q0 59 -17.5 108t-49 84t-75.5 54.5t-98 19.5q-52 0 -90 -10.5t-67 -28.5q-32 -31 -53 -86.5t-21 -126.5q0 -41 8 -80t28 -77t53.5 -75t84.5 -73q5 -17 4.5 -35t-4.5 -35h-269l-19 159q8 6 19 8t22 -3
l24 -72q27 -14 70 -19.5t93 -4.5q-46 24 -85 53.5t-67 66t-43.5 80t-15.5 93.5q0 73 27.5 133t77.5 103.5t119 67.5t152 24q60 0 113 -22t92 -62.5t61.5 -98.5t22.5 -130q0 -47 -14.5 -90.5t-41.5 -82.5t-64.5 -73t-82.5 -61q41 -1 79 4t76 19l25 72q10 5 21.5 3.5
t19.5 -9.5l-18 -158h-270z" />
    <glyph glyph-name="pi" unicode="&#x3c0;" horiz-adv-x="607" 
d="M399 463q61 0 92.5 4t49.5 21l8 -1v-75q-11 -17 -32.5 -26t-45.5 -10q-5 -16 -8.5 -33t-6 -37t-4 -45.5t-1.5 -58.5q0 -41 3 -67t8 -41.5t12 -21.5t16 -6q17 0 32 5t29 12q5 -5 8 -19t-1 -24q-6 -9 -16 -20t-23.5 -20.5t-30 -15.5t-34.5 -6q-35 0 -49.5 34.5t-14.5 109.5
q0 32 3 69.5t6.5 72.5t8 64.5t7.5 46.5h-169q-3 -81 -13 -153t-29 -126.5t-49 -86t-73 -31.5q-20 0 -33 12.5t-16.5 29t3.5 31.5t27 21h41q24 7 42 39.5t29 77t15.5 94.5t1.5 92q-23 2 -48.5 -3t-39.5 -15q-8 8 -13.5 22.5t-3.5 31.5q20 23 58 37.5t93 14.5h161z" />
    <glyph glyph-name="afii10017" unicode="&#x410;" horiz-adv-x="653" 
d="M385 668q26 23 61 21q6 -34 16.5 -84.5l23.5 -109.5l27.5 -122.5l29 -123.5l27.5 -112l23 -89l39 -11q4 -19 -5 -38h-215q-6 20 6 38l40 11q15 3 23.5 7.5t6.5 20.5q-5 35 -12.5 76t-16.5 85q-62 2 -118 3t-117 -1l-51 -103.5t-40 -87.5l66 -11q5 -21 -5 -38h-174
q-4 21 6 43l16 6q10 3 23.5 13.5t22.5 24.5t32 56.5l53 100l63.5 122.5l63.5 124.5l53 107.5t32 71zM384 549l-24.5 -48l-32.5 -62l-38 -72.5l-40 -77.5q27 -2 50 -3.5t46 -1.5t47.5 0.5t54.5 2.5q-9 42 -18.5 82l-18 74.5t-14.5 62t-8 44.5z" />
    <glyph glyph-name="afii10018" unicode="&#x411;" horiz-adv-x="598" 
d="M455 667q38 0 77 4t64 12l11 -16l-44 -158q-18 -6 -37 1l14 97q-41 5 -92.5 6.5t-99.5 1.5q-8 -1 -14 -7.5t-12.5 -31t-15 -75t-20.5 -138.5l41 6.5t41.5 6t35 4t23.5 1.5q33 0 61 -11t48.5 -30.5t32 -47t11.5 -60.5q0 -69 -24.5 -114t-68.5 -71.5t-104 -37t-130 -10.5
h-188q-3 17 5 39l58 10q10 2 17.5 9t14 28.5t13.5 62.5t17 112q14 99 26 194t18 164l-77 11q-4 19 6 38h292zM352 328q-16 0 -35 -2t-37 -5l-19 -141.5t-15 -128.5q51 -8 97.5 -4t74.5 13q32 17 51.5 55.5t19.5 88.5q0 24 -8 46t-24.5 39.5t-42.5 28t-62 10.5z" />
    <glyph glyph-name="afii10019" unicode="&#x412;" horiz-adv-x="617" 
d="M191 249l14.5 108.5l14 104.5t11.5 92.5t8 74.5q-22 -2 -41.5 -4t-36.5 -4q-8 20 3 39l89 14q16 2 44.5 4.5l58.5 5t55 4t34 1.5q15 0 41 -5t51.5 -20t44.5 -42t19 -70q0 -42 -12 -73t-31.5 -53t-44 -36t-48.5 -23v-7q29 -4 51.5 -16t37.5 -29t22.5 -38.5t7.5 -43.5
q0 -66 -26 -111t-71.5 -72.5t-108 -39t-135.5 -11.5h-177q-5 20 5 38l59 11q10 2 17.5 7.5t14 25.5t13 59t16.5 109zM356 326q-20 0 -39.5 -2.5t-35.5 -7.5q-11 -70 -17 -134t-14 -124q23 -3 47.5 -3.5t47.5 0.5t43 4t34 8q27 13 50 46t23 87q0 55 -32.5 90.5t-106.5 35.5z
M331 636q-3 -22 -8 -53.5l-11 -66.5t-11.5 -71l-10.5 -67q23 -1 45 -1h41q27 0 51 8.5t42 26t29 45t11 65.5q0 115 -132 115z" />
    <glyph glyph-name="afii10020" unicode="&#x413;" horiz-adv-x="539" 
d="M73 -1q-6 16 6 39l49 10q13 3 22 10t17 35.5t18 88t25 167.5q4 33 9.5 73t10 78t7.5 69.5t3 48.5l-84 13q-6 19 5 36h270q66 0 108.5 4t70.5 10l6 -14l-58 -235q-22 -10 -43 0l23 174q-30 6 -55 9t-48 3.5t-46.5 -0.5t-48.5 -3q-16 -53 -27.5 -124t-22.5 -152
q-3 -20 -8 -59l-11 -82.5t-10.5 -84.5t-5.5 -64l122 -12q8 -21 -5 -38h-299z" />
    <glyph glyph-name="afii10021" unicode="&#x414;" horiz-adv-x="693" 
d="M701 667q1 -10 -0.5 -19t-6.5 -18l-26 -12q-13 -6 -22 -13.5t-18 -37t-19.5 -91t-26.5 -175.5q-2 -17 -6.5 -51t-9 -72.5t-7.5 -73.5t-3 -53l117 -2l-71 -252q-13 -5 -26 -5.5t-25 5.5l19 128q5 37 -1 55.5t-36 18.5h-433l-59 -201q-27 -13 -52 0l31 251h52q26 0 51 23
t48 63.5t43 95t36.5 117.5t29 131.5t20.5 136.5l-90 12q-2 9 -0.5 19t6.5 20h485zM409 51q18 0 30.5 7.5t22 34t19 77t21.5 137.5l7 50t8 61.5l8 65.5l7.5 60t5.5 46t2 25h-152q-17 0 -28.5 -29t-22 -76.5l-23 -108t-31 -123.5t-46.5 -122.5t-70 -104.5h242z" />
    <glyph glyph-name="afii10022" unicode="&#x415;" horiz-adv-x="604" 
d="M70 -1q-5 21 6 39l48 10q14 3 23 10t17.5 36t18.5 88t25 167l9 72.5l9.5 77t7.5 69t3 48.5l-85 13q-3 17 5 38h342q15 0 32 1t32.5 3.5t29 7t22.5 10.5l9 -9l-45 -170q-23 -8 -40 0l14 104q-113 10 -216 1q-15 -49 -26.5 -114t-20.5 -138q62 -2 104 0t63 11l27 56
q11 4 21.5 3.5t20.5 -3.5l-47 -194q-16 -7 -34 -2l11 80q-38 0 -82.5 0.5t-90.5 -1.5q-4 -26 -9 -62.5t-9.5 -74t-8 -71.5t-3.5 -54q93 -10 146.5 -3.5t73.5 14.5l57 98q9 4 16 3.5t15 -3.5l-49 -162l-16 -12q-8 4 -35.5 8.5t-75.5 4.5h-315z" />
    <glyph glyph-name="afii10023" unicode="&#x401;" horiz-adv-x="604" 
d="M70 -1q-5 21 6 39l48 10q14 3 23 10t17.5 36t18.5 88t25 167l9 72.5l9.5 77t7.5 69t3 48.5l-85 13q-3 17 5 38h342q15 0 32 1t32.5 3.5t29 7t22.5 10.5l9 -9l-45 -170q-23 -8 -40 0l14 104q-113 10 -216 1q-15 -49 -26.5 -114t-20.5 -138q62 -2 104 0t63 11l27 56
q11 4 21.5 3.5t20.5 -3.5l-47 -194q-16 -7 -34 -2l11 80q-38 0 -82.5 0.5t-90.5 -1.5q-4 -26 -9 -62.5t-9.5 -74t-8 -71.5t-3.5 -54q93 -10 146.5 -3.5t73.5 14.5l57 98q9 4 16 3.5t15 -3.5l-49 -162l-16 -12q-8 4 -35.5 8.5t-75.5 4.5h-315zM545 824q2 -20 9.5 -40
t17.5 -33q-11 -15 -34.5 -28.5t-42.5 -13.5q-10 0 -17.5 7.5t-12.5 18.5t-7.5 23.5t-2.5 21.5q0 12 9 20t22.5 13t29.5 7.5t29 3.5zM355 824q2 -20 9.5 -40t17.5 -33q-11 -15 -35 -28.5t-43 -13.5q-9 0 -16.5 7.5t-12.5 18.5t-7.5 23.5t-2.5 21.5q0 12 9 20t22.5 13t29 7.5
t29.5 3.5z" />
    <glyph glyph-name="afii10024" unicode="&#x416;" horiz-adv-x="945" 
d="M973 667q5 -19 -7 -38l-37 -11q-15 -4 -37 -27.5t-50.5 -59l-63.5 -79.5t-75 -89q20 -27 40.5 -69.5l44.5 -91t53 -97.5t68 -89q3 -14 -6 -30h-34q-34 0 -62.5 23.5t-52 59t-43.5 77.5l-37 78.5t-31.5 61.5t-28.5 27q-6 1 -25.5 2.5t-36.5 2.5q-4 -30 -8.5 -69l-9 -77.5
t-7.5 -72t-4 -51.5l35 -11q5 -21 -5 -38h-168q-4 9 -2 18.5t7 19.5l25 11q7 3 12.5 10t12 33.5t15 79t21.5 145.5q-15 -2 -34.5 -2.5t-25.5 -0.5q-16 0 -38 -24t-48.5 -60.5l-56 -79t-60.5 -79t-62.5 -60.5t-61.5 -24h-47q-5 13 3 25q34 28 70.5 72.5t73.5 94.5l74 101
t73 93q-18 25 -38.5 60.5l-40 71.5l-36.5 67t-29 47l-40 11q-2 9 -0.5 18.5t6.5 19.5h192q3 -21 -8 -39l-30 -10q-25 -9 -25 -29q0 -5 7 -22.5t18 -40.5t25 -49.5t28 -50t26 -40.5t20 -21q8 -5 28 -7.5t42 -4.5q4 26 8.5 63.5l9 76t8 72.5t4.5 53l-35 11q-2 10 -0.5 19.5
t8.5 18.5h165q2 -10 0.5 -19.5t-7.5 -18.5l-24 -11q-7 -3 -12.5 -9.5t-12 -32t-15 -78t-21.5 -147.5q29 2 51 6.5t40 15.5q23 14 68.5 75l120.5 170l-61 11q-3 19 6 38h191z" />
    <glyph glyph-name="afii10025" unicode="&#x417;" horiz-adv-x="526" 
d="M119 139q6 -14 20.5 -31.5t37.5 -33.5t54 -26.5t69 -10.5q12 0 33 9t40.5 28.5t34 50t14.5 72.5q0 37 -17.5 62.5t-45 40t-61 18t-66.5 -3.5l-2 4q4 30 13.5 39t33.5 9q32 0 63 11t55 32t39 50.5t15 67.5q0 27 -9 46.5t-24.5 31.5t-36 18t-42.5 6q-34 0 -63.5 -7
t-50.5 -23l-53 -120q-9 -4 -17.5 -4t-16.5 6l46 186l14 15q21 -10 48 -11t53 1.5t49 6t36 3.5q29 0 57 -7t49.5 -21.5t35 -37.5t13.5 -55q0 -39 -13.5 -69.5t-35 -54.5t-48.5 -41.5t-54 -30.5v-4q69 -14 97.5 -49t28.5 -97q0 -51 -29 -95t-72.5 -75.5t-93.5 -49.5t-92 -18
q-62 0 -100.5 21.5t-52 49.5t-2 54.5t48.5 36.5z" />
    <glyph glyph-name="afii10026" unicode="&#x418;" horiz-adv-x="801" 
d="M661 548l-76 -93.5l-109.5 -133l-134 -160l-149.5 -173.5q-29 -14 -56 -11l29 208l15.5 111.5t16 120.5t13 113t7.5 88l-76 11q-1 9 0 18.5t6 19.5h246q3 -22 -6 -38l-49 -11q-8 -2 -14 -9t-13 -29.5t-15 -67t-20 -120.5q-9 -59 -14.5 -98.5l-9.5 -68.5t-8 -52.5
t-10 -51.5h6l111 128l123.5 149l121 148l103.5 125q39 13 74 8l-20 -94.5t-32 -190.5l-14.5 -108.5l-12 -89.5t-9.5 -76.5t-7 -71.5l77 -11q3 -10 1.5 -19.5t-6.5 -18.5h-238q-5 18 6 38l46 11q8 2 14.5 7.5t11.5 19.5t10 40t11 70l14.5 103.5l14.5 100.5t14 89.5t14 69.5
h-7z" />
    <glyph glyph-name="afii10027" unicode="&#x419;" horiz-adv-x="801" 
d="M661 548l-76 -93.5l-109.5 -133l-134 -160l-149.5 -173.5q-29 -14 -56 -11l29 208l15.5 111.5t16 120.5t13 113t7.5 88l-76 11q-1 9 0 18.5t6 19.5h246q3 -22 -6 -38l-49 -11q-8 -2 -14 -9t-13 -29.5t-15 -67t-20 -120.5q-9 -59 -14.5 -98.5l-9.5 -68.5t-8 -52.5
t-10 -51.5h6l111 128l123.5 149l121 148l103.5 125q39 13 74 8l-20 -94.5t-32 -190.5l-14.5 -108.5l-12 -89.5t-9.5 -76.5t-7 -71.5l77 -11q3 -10 1.5 -19.5t-6.5 -18.5h-238q-5 18 6 38l46 11q8 2 14.5 7.5t11.5 19.5t10 40t11 70l14.5 103.5l14.5 100.5t14 89.5t14 69.5
h-7zM484 839q22 -9 48.5 -9.5t53 7.5t51.5 23.5t44 38.5q22 -5 25 -23q-9 -18 -27 -38t-44 -36.5t-59.5 -27.5t-74.5 -11q-30 0 -54.5 8t-42.5 21.5t-27.5 32t-9.5 39.5q0 15 8.5 27t22 19.5t31.5 9.5t37 -4z" />
    <glyph glyph-name="afii10028" unicode="&#x41a;" horiz-adv-x="697" 
d="M732 667q1 -9 -1 -19t-9 -20l-47 -11q-12 -3 -31.5 -17.5t-43 -37l-50 -50l-53 -55.5l-52 -54l-46.5 -46q27 -29 59 -71l67.5 -89t75 -94t82.5 -86q3 -12 -8 -30h-55q-26 0 -55.5 24.5t-60.5 61t-61 79.5l-56.5 80t-47.5 61.5t-33 24.5h-26q-6 -43 -10.5 -79.5l-8.5 -69
l-7.5 -62.5t-6.5 -59l61 -11q3 -20 -6 -38h-237q-3 21 7 38l60 11q9 1 15.5 5.5t11.5 18t10 40t11 73.5l15.5 111.5t16 120t13 112.5t6.5 88l-76 11q-3 20 6 39h235q5 -21 -5 -39l-39 -11q-7 -2 -13.5 -7.5t-13 -26.5t-14.5 -64t-19 -122q-2 -11 -3 -20.5t-3 -20.5
q13 0 26 1.5t22 6.5q13 7 40.5 32t61.5 61l70.5 78t66.5 82l-42 11q-2 22 6 39h195z" />
    <glyph glyph-name="afii10029" unicode="&#x41b;" horiz-adv-x="695" 
d="M740 667q2 -10 0.5 -19.5t-7.5 -18.5l-48 -11q-13 -3 -21.5 -10t-16.5 -34.5t-17.5 -84t-24.5 -159.5q-2 -19 -7.5 -59l-11 -83.5l-10 -82t-5.5 -56.5l65 -12q3 -20 -6 -38h-225q-4 18 5 38l29 11q13 5 22.5 12.5t18.5 34.5t18.5 81.5t23.5 152.5q5 35 10.5 79l10.5 85
l9 74.5t5 47.5h-178q-24 -142 -53.5 -257.5t-66.5 -197.5t-83.5 -127t-104.5 -45q-29 0 -42.5 19t-12 43t18 46.5t47.5 29.5l47 -41q34 7 64 53.5t54 119t42.5 164.5t30.5 190l-99 11q-4 22 6 44h513z" />
    <glyph glyph-name="afii10030" unicode="&#x41c;" horiz-adv-x="875" 
d="M48 -1q-4 18 5 38l41 11q8 2 15 10t14.5 28.5t17 58.5t22 100.5l29.5 153.5l40 219l-67 11q-4 18 5 38h180q17 -101 47.5 -222l65.5 -253h5l64 127.5l57.5 118.5l53.5 114.5l52 114.5h189q5 -17 -6 -38l-62 -11q-5 -1 -10 -26.5t-9.5 -69.5t-9 -104t-10.5 -129
q-6 -76 -9 -134t-3 -107l71 -11q5 -20 -6 -38h-227q-3 18 6 38l39 11q13 4 22.5 50t17 120.5t14.5 170t16 199.5h-11l-52 -111.5l-55 -116.5l-62 -130l-72 -152q-13 -11 -29.5 -16.5t-30.5 -5.5l-22.5 95.5l-25.5 104.5l-25.5 105l-22.5 96.5t-16.5 79t-6.5 52.5l-12 -1
l-10.5 -54.5l-14.5 -79l-17 -96l-18 -105l-18 -106t-16 -99.5l37 -11q4 -19 -5 -38h-165z" />
    <glyph glyph-name="afii10031" unicode="&#x41d;" horiz-adv-x="828" 
d="M533 -1q-4 16 5 38l51 11q8 1 14.5 7t11.5 21t10 40.5t11 67.5l18 131q-58 3 -107 4t-93.5 1t-87.5 -1t-89 -3q-6 -43 -10.5 -79.5t-8 -68.5l-6.5 -61.5l-6 -58.5l58 -11q4 -19 -5 -38h-229q-3 22 6 38l55 11q9 1 15 7.5t11 21.5t10 40.5t12 66.5q8 50 16.5 111t15.5 121
t12 113.5t6 88.5l-75 11q-6 17 4 38h249q4 -20 -4 -38l-53 -11q-8 -2 -14.5 -8.5t-13.5 -28.5t-15 -65.5t-19 -118.5l-4 -24q90 -5 183.5 -5.5t193.5 5.5q9 72 16 137.5t9 107.5l-60 11q-5 18 6 38h239q4 -16 -6 -38l-51 -11q-11 -3 -19.5 -10.5t-16 -30t-15.5 -65
t-18 -115.5l-14.5 -109t-11.5 -90.5l-9 -77.5t-7 -72l76 -11q4 -18 -5 -38h-241z" />
    <glyph glyph-name="afii10032" unicode="&#x41e;" horiz-adv-x="739" 
d="M760 412q0 -111 -36 -192.5t-93 -135.5t-127 -80.5t-138 -26.5q-69 0 -121 21.5t-87 60t-53 92.5t-18 119q0 102 34.5 180t93 131t134 80.5t158.5 27.5q52 0 98 -19.5t80.5 -55.5t54.5 -87t20 -115zM179 291q0 -50 16.5 -96t47 -81t75.5 -56t102 -21q16 0 28.5 1.5
t24.5 4t25 7t28 10.5q21 12 46 38.5t46 66t35 91.5t14 116q0 56 -16 103t-46 81.5t-73 53.5t-97 19q-33 0 -61.5 -6.5t-55.5 -19.5q-23 -15 -48 -42t-45 -66t-33 -90t-13 -114z" />
    <glyph glyph-name="afii10033" unicode="&#x41f;" horiz-adv-x="786" 
d="M829 667q5 -18 -6 -38l-50 -11q-12 -3 -20 -9.5t-15.5 -28.5t-15.5 -65t-18 -118q-9 -60 -15.5 -109t-11.5 -90.5l-9 -77.5t-7 -72l77 -11q4 -19 -5 -38h-236q-6 18 5 38l45 11q8 2 14 7t11.5 18.5t10.5 39.5t11 71l15 111.5l15.5 119.5t13 112t6.5 88h-295
q-8 0 -14 -1.5t-12.5 -21t-14.5 -64t-20 -131.5q-9 -60 -15.5 -109t-11.5 -90.5l-9 -77.5t-7 -72l58 -11q6 -19 -5 -38h-229q-3 18 5 38l56 11q9 1 15 6t11.5 19.5t10.5 40.5t11 70l15 111.5l15.5 120.5t13 113.5t6.5 88.5l-75 11q-5 19 5 38h671z" />
    <glyph glyph-name="afii10034" unicode="&#x420;" horiz-adv-x="599" 
d="M74 -1q-5 16 5 38l53 11q6 2 11.5 4.5t10 11.5t9.5 27t11 49.5t13 78.5l17 116l11.5 86.5l10 80l8 68.5t5.5 53l-85 13q-3 18 3 31q20 2 48 3.5l58.5 3l61 3t56 2.5t42.5 1.5t21 0.5q53 0 88 -12t56 -32.5t29.5 -46.5t8.5 -53q0 -75 -29.5 -126.5t-78 -83.5t-112 -45.5
t-131.5 -11.5q-8 -63 -14.5 -120t-7.5 -102l89 -11q4 -20 -5 -38h-263zM283 325q42 -5 77 -5.5t68 7.5q54 23 81.5 64.5t27.5 108.5q0 28 -8.5 53t-31.5 43.5t-63 27.5t-103 5q-8 -54 -20 -124.5t-26 -164.5z" />
    <glyph glyph-name="afii10035" unicode="&#x421;" horiz-adv-x="624" 
d="M673 677l-47 -188q-22 -9 -37 0l4 102q-17 15 -57 26t-84 11q-31 0 -68 -5.5t-63 -18.5q-18 -10 -43 -35t-47.5 -63.5t-38 -89.5t-15.5 -111q0 -49 12 -97t40.5 -86t77 -61.5t121.5 -23.5q47 0 83 14.5t72 31.5q5 -6 7.5 -15t-0.5 -20q-26 -16 -56.5 -29t-61.5 -22.5
t-60.5 -14.5t-51.5 -5q-60 0 -110.5 21t-87 58.5t-56.5 90t-20 115.5q0 98 31.5 177t86 134.5t128.5 85t159 29.5q20 0 41.5 -2.5t43 -4.5t43 -1t42.5 9z" />
    <glyph glyph-name="afii10036" unicode="&#x422;" horiz-adv-x="577" 
d="M694 680l-57 -210q-20 -7 -41 0l16 145q-12 1 -37.5 2l-53.5 2t-53.5 1h-37.5q-3 -10 -6.5 -25t-8.5 -44.5t-12.5 -78.5t-18.5 -128q-12 -84 -18 -132l-9.5 -76.5t-5 -46t-2.5 -39.5l74 -13q2 -23 -5 -38h-250q-5 18 4 38l55 11q6 1 11 4t10 12.5t10.5 28t12 51t14.5 82
t18 120.5q18 127 24.5 191t7.5 83q-22 0 -47.5 -1t-49 -3t-41.5 -5.5t-24 -8.5l-60 -131q-20 -9 -38 0l51 210l11 8q26 -9 90.5 -15.5t167.5 -6.5q65 0 113 1.5t82.5 4.5t56.5 7t35 9z" />
    <glyph glyph-name="afii10037" unicode="&#x423;" horiz-adv-x="645" 
d="M258 -63q-23 0 -42 18.5t-19 47.5q0 12 5.5 24t15.5 23t23.5 19t28.5 12l36 -48q11 -1 25.5 16.5t28.5 46.5l-26 70l-35.5 95.5l-40.5 106.5l-40 104.5l-34.5 88t-24.5 57.5l-54 11q-4 17 4 38h232q6 -19 -5 -38l-30 -11q-14 -5 -19.5 -13.5t-6.5 -25.5q0 -6 7 -29.5
t18.5 -57l26 -74l29 -80.5l28.5 -75.5l24 -60.5l5 -2q15 27 39 74.5l51.5 105.5l55.5 120l52 117l-54 11q-2 9 -0.5 19t6.5 20h194q5 -21 -5 -38l-27 -11l-15 -5.5t-14 -7t-15.5 -12.5t-18.5 -23q-17 -25 -41.5 -70.5l-54 -103.5l-62 -124l-66.5 -132q-21 -39 -43 -76
t-45.5 -65t-47.5 -45t-49 -17z" />
    <glyph glyph-name="afii10038" unicode="&#x424;" horiz-adv-x="767" 
d="M254 -47q-5 15 6 32l58 11q7 1 12.5 4t10.5 9.5t9 18.5t9 32l-28 2q-115 8 -178.5 61t-63.5 156q0 81 27.5 139.5t74.5 98t109.5 61.5t133.5 30q2 18 2.5 33t1.5 27l-73 12q-5 18 6 32h235q2 -7 0.5 -15.5t-4.5 -17.5l-46 -10l-12.5 -3.5t-10 -7t-9 -16.5t-8.5 -32
q24 2 53 0q48 -4 88 -18.5t69 -40t45 -61.5t16 -84q0 -79 -27 -140.5t-74 -105.5t-110.5 -69.5t-135.5 -31.5q-2 -17 -3 -33t-3 -30l77 -11q7 -14 -6 -32h-251zM701 368q0 52 -16 87t-42.5 56.5t-62 32t-74.5 14.5q-5 -26 -10 -60.5l-11 -79.5q-12 -81 -21.5 -161
l-17.5 -147q26 1 54 5t50 10q23 9 49.5 25.5t49 45t37.5 70.5t15 102zM173 304q0 -47 15 -80.5t41.5 -56.5t62 -35.5t77.5 -17.5q2 11 4 23.5t4 26.5l11.5 86.5l14 103l14.5 107.5t12 100q-28 -1 -58 -4.5t-53 -8.5q-17 -8 -41.5 -23t-47.5 -42.5t-39.5 -71t-16.5 -107.5z
" />
    <glyph glyph-name="afii10039" unicode="&#x425;" horiz-adv-x="720" 
d="M58 -1q-2 8 0 17.5t5 20.5l41 11q10 3 28.5 19.5t42 40.5t50 54l52 60.5l48.5 58.5l39 49l-2 5l-49.5 87.5l-52.5 89l-44 71.5t-23 35l-51 11q-6 18 5 38h214q4 -19 -7 -38l-33 -11q-8 -3 -7 -13.5t13 -35t35.5 -66.5l60.5 -108l45 54.5l54 67l48.5 61.5t27.5 40l-42 8
q-6 22 5 41h183q4 -20 -5 -38l-40 -11q-17 -5 -50 -35.5t-70.5 -71.5t-73.5 -84.5l-59 -73.5l6 -10l47.5 -85l52 -88.5l46 -75.5t29.5 -46l54 -11q5 -21 -4 -38h-219q-3 18 6 38l38 11q8 2 7.5 9.5t-13.5 31.5l-39 70.5l-69 126.5l-46 -58l-56 -70.5l-50.5 -66t-29.5 -42.5
l42 -12q3 -19 -5 -38h-185z" />
    <glyph glyph-name="afii10040" unicode="&#x426;" horiz-adv-x="831" 
d="M799 47l-71 -251q-27 -9 -50 0l21 130q6 37 0 55t-38 18h-587q-9 17 5 39l52 10q13 2 21 8.5t15 28.5t14.5 65t19.5 119q9 60 15.5 109t11.5 90.5l9 77.5t7 72l-77 11q-2 9 -0.5 18.5t6.5 19.5h233q7 -20 -4 -38l-43 -11q-8 -2 -14 -7t-11.5 -19t-11 -40t-11.5 -70
l-15 -111.5t-15 -120t-12.5 -112t-6.5 -87.5h318q7 0 13 6t12 28.5t13.5 66l19.5 117.5q9 60 15.5 109t11.5 90.5t8.5 77.5t7.5 72l-58 11q-3 19 4 38h229q8 -19 -4 -38l-55 -11q-9 -2 -15 -6.5t-11.5 -18t-10.5 -40t-11 -71.5l-15.5 -110.5t-15.5 -117.5t-12 -109.5
t-6 -86.5z" />
    <glyph glyph-name="afii10041" unicode="&#x427;" horiz-adv-x="646" 
d="M684 667q2 -10 0.5 -19.5t-5.5 -18.5l-33 -11q-12 -4 -19.5 -9.5t-13.5 -22t-12 -50.5t-15 -95l-6 -48.5l-9.5 -74l-11 -85.5l-10 -82.5l-8 -66.5t-3.5 -35l61 -12q6 -20 -6 -38h-284q-4 16 6 38l77 11q21 3 33 8.5t20.5 22t14.5 49.5t14 90q2 11 4.5 30.5t6.5 44.5
q-46 -20 -87.5 -28.5t-67.5 -8.5q-36 0 -70.5 8.5t-61 28t-43 52t-16.5 81.5q0 22 3 50t7 55l7.5 50t3.5 37l-53 11q-3 10 -1.5 19.5t6.5 18.5h199q4 -16 -6 -38l-37 -11q-7 -2 -15 -13.5t-14.5 -31t-11 -46.5t-4.5 -60q0 -45 11.5 -74t33 -46.5t51 -24.5t65.5 -7
q32 0 56.5 5.5t50.5 17.5q6 40 11.5 84l10.5 83t8.5 69t3.5 44l-48 11q-3 10 -1.5 19.5t6.5 18.5h202z" />
    <glyph glyph-name="afii10042" unicode="&#x428;" horiz-adv-x="1026" 
d="M65 -1q-3 18 5 39l57 10q11 2 19.5 8.5t16 28.5t15 65t18.5 118q9 60 15 109l11 90.5t9 78l8 72.5l-76 11q-2 9 -0.5 18.5t5.5 19.5h233q3 -18 -6 -38l-42 -11q-8 -3 -14 -8.5t-11.5 -20t-10.5 -40t-11 -68.5l-15 -111.5t-15 -119.5t-12 -111.5t-6 -87.5h226
q5 20 10.5 51t13.5 82q8 52 16 113l15.5 120.5t12.5 112.5t7 88l-68 11q-3 20 6 38h237q2 -21 -7 -38l-41 -10q-10 -3 -17.5 -9t-15 -28t-15.5 -65t-19 -120q-16 -112 -26.5 -195t-17.5 -151h207q7 0 13.5 5.5t13.5 27.5t15 65.5t19 118.5q9 60 15.5 109t11.5 90.5t8.5 78
t7.5 72.5l-55 11q-4 18 4 38h228q2 -9 1 -18.5t-6 -19.5l-56 -11q-9 -2 -15 -7.5t-11 -20t-10 -40.5t-11 -69l-15.5 -111.5t-15.5 -120.5t-12.5 -113t-6.5 -88l76 -11q3 -17 -5 -38h-911z" />
    <glyph glyph-name="afii10043" unicode="&#x429;" horiz-adv-x="1033" 
d="M1010 47l-70 -250q-22 -13 -46 0l19 132q2 18 2 31.5t-6.5 22t-21 12.5t-40.5 4h-776q-3 18 5 39l54 10q12 2 21 9t17 29.5t15.5 65t18.5 116.5l14 109l11.5 90.5t9.5 78l8 72.5l-80 12q-4 9 -2.5 18t6.5 19h237q2 -22 -5 -38l-42 -11q-8 -3 -14.5 -8t-11.5 -19.5
t-10 -40.5t-11 -69l-15 -111.5l-15.5 -119.5t-13 -111.5t-6.5 -87.5h227q5 20 10.5 51t13.5 82t16.5 111.5t16 120.5t12 113.5t5.5 88.5l-66 11q-1 9 0 18.5t6 19.5h237q3 -21 -8 -38l-41 -10q-11 -3 -18.5 -10t-15 -29.5t-15 -65.5t-17.5 -117l-27 -195t-19 -151h208
q7 0 14 5.5t14 27t15 65t19 119.5q9 60 15.5 109t11.5 90.5t9 78t7 72.5l-57 11q-6 22 7 38h227q3 -18 -7 -38l-55 -11q-9 -2 -15.5 -6.5t-11.5 -18t-10 -40t-11 -72.5l-15 -110t-14.5 -117l-12 -109.5t-6.5 -86.5z" />
    <glyph glyph-name="afii10044" unicode="&#x42a;" horiz-adv-x="707" 
d="M350 616q-20 0 -46.5 -0.5t-51 -2.5t-43 -5.5t-24.5 -8.5l-66 -167q-18 -8 -36 0l52 245l15 12q9 -5 28.5 -9t51 -7t76.5 -4.5t106 -1.5h137q1 -9 0 -18.5t-5 -17.5l-75 -13q-9 -3 -15.5 -10t-13 -30t-14.5 -68.5t-20 -126.5l40 6.5t41.5 6.5t38.5 4.5t30 1.5
q33 0 60.5 -12t47.5 -33t31 -49t11 -60q0 -68 -24 -115.5t-68.5 -77t-108.5 -43t-145 -13.5h-180q-3 8 -1.5 18t6.5 21l59 10q11 1 18.5 6.5t14 26t13 60t16.5 110.5q7 49 13.5 99.5t12 98t10 90.5t8.5 77zM480 350q-16 0 -37.5 -2t-41.5 -6q-1 -3 -1 -8
q-11 -75 -20.5 -147.5t-16.5 -135.5q51 -8 97.5 -4t74.5 13q15 8 29.5 21.5t26 33t18.5 45.5t7 60q0 23 -8 46t-24.5 42t-42 30.5t-61.5 11.5z" />
    <glyph glyph-name="afii10045" unicode="&#x42b;" horiz-adv-x="906" 
d="M64 -1q-4 16 5 38l68 11q10 1 17.5 8t14.5 29t14 63t17 112q14 99 26 194t19 164l-74 11q-3 8 -1.5 17.5t5.5 20.5h238q3 -21 -8 -38l-43 -11q-9 -3 -15.5 -9t-13.5 -28t-15.5 -66.5t-19.5 -122.5q19 4 41 7.5l41.5 6.5t35 4.5t23.5 1.5q34 0 61.5 -11.5t47.5 -32.5
t31 -50t11 -63q0 -59 -16.5 -106t-55 -80.5t-102.5 -51.5t-158 -18h-194zM602 -1q-3 19 7 38l53 14q10 2 17.5 6.5t13.5 17.5t11 38t11 70l15 111.5l15.5 120.5t13 113.5t6.5 88.5l-68 12q-4 18 5 38h241q2 -11 0.5 -20.5t-5.5 -18.5l-44 -10q-11 -3 -19 -9.5t-15.5 -29
t-15.5 -65.5t-18 -118q-9 -61 -15 -109.5t-10.5 -89.5t-8 -76.5t-6.5 -69.5l74 -14q7 -21 -6 -38h-252zM366 359q-16 0 -35.5 -2t-37.5 -6q-1 -2 -1 -7q-11 -76 -19.5 -153t-16.5 -140q51 -8 97 -4t75 13q29 19 51 57.5t22 99.5q0 77 -37 109.5t-98 32.5z" />
    </font>
</defs>
</svg>
